<?xml version="1.0" ?>
<svg height="768" version="1.1" width="768" xmlns="http://www.w3.org/2000/svg">
  <defs/>
  <g>
    <path d="M 764.3690185546875 792.4375610351562 C 350.4093017578125 820.512939453125 214.24375915527344 848.244873046875 180.2040557861328 616.718994140625 C 611.2301635742188 340.8465881347656 731.9208374023438 245.66281127929688 20.159040451049805 550.3483276367188 C -16.827816009521484 -99.33478546142578 -1.5054513216018677 -53.182350158691406 764.5155639648438 -12.540603637695312 C 764.3696899414062 260.75262451171875 764.5562133789062 319.7413024902344 764.3690185546875 792.4375610351562" fill="rgb(47, 105, 132)" opacity="0.73249817" stroke="rgb(242, 217, 203)" stroke-linecap="round" stroke-linejoin="round" stroke-opacity="0.71962214" stroke-width="0.0"/>
    <path d="M 419.0157470703125 773.4053955078125 C 417.90032958984375 781.865966796875 412.3475341796875 782.13037109375 282.37115478515625 783.5241088867188 C 292.6704406738281 802.6343994140625 249.13082885742188 771.0643310546875 249.66012573242188 687.4150390625 C 250.975830078125 625.975341796875 294.1471252441406 559.6402587890625 365.421875 548.826904296875 C 428.2115783691406 625.27197265625 414.6734924316406 654.7512817382812 419.0157470703125 773.4053955078125" fill="rgb(51, 0, 46)" opacity="0.9565401" stroke="rgb(52, 80, 13)" stroke-linecap="round" stroke-linejoin="round" stroke-opacity="0.118004136" stroke-width="0.0"/>
    <path d="M 736.7808227539062 591.6371459960938 C 809.0154418945312 944.4723510742188 745.3978881835938 855.3131713867188 639.16796875 783.4080810546875 C 383.5079040527344 780.7656860351562 386.4449157714844 774.120361328125 381.78216552734375 763.547607421875 C 365.41845703125 666.2693481445312 312.28363037109375 694.2014770507812 360.6265869140625 551.7991943359375 C 598.1995849609375 556.1123657226562 371.1273498535156 594.1094360351562 736.7808227539062 591.6371459960938" fill="rgb(53, 10, 54)" opacity="0.79276145" stroke="rgb(4, 38, 250)" stroke-linecap="round" stroke-linejoin="round" stroke-opacity="0.26343647" stroke-width="0.0"/>
    <path d="M 500.4886474609375 677.0686645507812 C 445.15679931640625 636.3032836914062 439.4671630859375 629.5286865234375 430.1327819824219 619.4459838867188 C 416.4884948730469 597.8118286132812 403.4506530761719 611.109375 362.3243408203125 549.3380126953125 C 366.87353515625 548.6386108398438 400.1018981933594 539.9598999023438 462.09918212890625 555.5877075195312 C 504.8154296875 576.5654907226562 534.154052734375 573.0635986328125 500.4886474609375 677.0686645507812" fill="rgb(50, 4, 48)" opacity="0.96779907" stroke="rgb(128, 50, 213)" stroke-linecap="round" stroke-linejoin="round" stroke-opacity="0.26315796" stroke-width="0.0"/>
    <path d="M 477.5944519042969 694.2440185546875 C 440.7642517089844 692.0241088867188 438.56793212890625 687.6596069335938 351.2890319824219 666.1246337890625 C 387.6685485839844 642.003173828125 384.3326416015625 640.7600708007812 382.0379638671875 578.3748779296875 C 396.1446838378906 584.7103881835938 400.0091552734375 588.5696411132812 449.069580078125 590.0900268554688 C 441.9034118652344 601.2164916992188 461.8592529296875 590.17822265625 477.5944519042969 694.2440185546875" fill="rgb(51, 6, 51)" opacity="0.99887896" stroke="rgb(43, 31, 31)" stroke-linecap="round" stroke-linejoin="round" stroke-opacity="0.971857" stroke-width="0.0"/>
    <path d="M 772.7633666992188 645.9262084960938 C 779.4932861328125 788.3673706054688 759.9293823242188 779.6956787109375 759.9092407226562 776.7083129882812 C 667.3804931640625 775.17529296875 664.4019165039062 775.1902465820312 631.3717041015625 798.42919921875 C 618.028076171875 736.8833618164062 612.69921875 743.0921630859375 511.7424011230469 665.3021850585938 C 746.0419921875 601.6625366210938 700.9939575195312 588.9842529296875 772.7633666992188 645.9262084960938" fill="rgb(51, 6, 50)" opacity="1.0" stroke="rgb(114, 58, 76)" stroke-linecap="round" stroke-linejoin="round" stroke-opacity="0.7408875" stroke-width="0.0"/>
    <path d="M 511.99932861328125 636.5139770507812 C 512.5447998046875 802.3163452148438 475.3468933105469 785.3842163085938 462.6378173828125 778.7254638671875 C 399.3269958496094 778.007568359375 395.66119384765625 777.174560546875 381.02099609375 763.1138916015625 C 383.3615417480469 724.6307983398438 386.1288757324219 721.8848266601562 368.9007263183594 699.106689453125 C 444.60595703125 675.6116333007812 452.23760986328125 672.9227905273438 511.99932861328125 636.5139770507812" fill="rgb(51, 6, 51)" opacity="0.9951331" stroke="rgb(192, 160, 53)" stroke-linecap="round" stroke-linejoin="round" stroke-opacity="0.16767655" stroke-width="0.0"/>
    <path d="M 554.7047119140625 467.92474365234375 C 574.7023315429688 646.37353515625 493.4356384277344 553.4984130859375 186.1486358642578 458.11187744140625 C 287.9516296386719 376.6907958984375 293.485107421875 398.86651611328125 265.6328125 351.5370788574219 C 324.48651123046875 314.51318359375 275.1083068847656 316.25433349609375 353.806884765625 264.6827087402344 C 309.3877258300781 278.85552978515625 573.012451171875 269.6228332519531 554.7047119140625 467.92474365234375" fill="rgb(218, 228, 237)" opacity="0.98976076" stroke="rgb(29, 40, 109)" stroke-linecap="round" stroke-linejoin="round" stroke-opacity="0.9429024" stroke-width="0.0"/>
    <path d="M 366.18475341796875 429.4426574707031 C 385.3663330078125 434.74713134765625 381.1962585449219 452.5193786621094 360.22662353515625 450.76153564453125 C 330.9873352050781 462.273193359375 248.7185821533203 399.5955810546875 206.78749084472656 482.25262451171875 C 147.02603149414062 372.716552734375 286.6806945800781 349.2489013671875 355.6874694824219 365.72564697265625 C 290.9795227050781 438.062744140625 404.82061767578125 386.3043212890625 366.18475341796875 429.4426574707031" fill="rgb(210, 175, 46)" opacity="1.0" stroke="rgb(236, 230, 114)" stroke-linecap="round" stroke-linejoin="round" stroke-opacity="0.5568124" stroke-width="0.0"/>
    <path d="M 223.8189697265625 597.8720703125 C 219.37535095214844 616.717041015625 217.5108184814453 620.3284912109375 200.83419799804688 670.0809936523438 C 95.73090362548828 661.1468505859375 91.9188461303711 642.8049926757812 44.931610107421875 633.1980590820312 C 27.00358772277832 509.4327392578125 33.89838409423828 496.8895263671875 62.58469772338867 488.0973815917969 C 197.6073760986328 508.231689453125 187.28665161132812 534.7762451171875 223.8189697265625 597.8720703125" fill="rgb(98, 149, 169)" opacity="0.993491" stroke="rgb(13, 101, 124)" stroke-linecap="round" stroke-linejoin="round" stroke-opacity="0.3704566" stroke-width="0.0"/>
    <path d="M 250.08343505859375 767.8659057617188 C 130.6326904296875 785.94482421875 102.60498046875 780.4519653320312 1.7641054391860962 764.2589721679688 C 6.380613803863525 724.3202514648438 -0.9328242540359497 717.8321533203125 2.7547051906585693 278.9817810058594 C 105.60414123535156 486.34393310546875 53.22004699707031 530.848876953125 172.34629821777344 574.2006225585938 C 193.22499084472656 605.8670043945312 221.33387756347656 580.0316772460938 250.08343505859375 767.8659057617188" fill="rgb(99, 148, 168)" opacity="0.9048477" stroke="rgb(220, 46, 219)" stroke-linecap="round" stroke-linejoin="round" stroke-opacity="0.5888399" stroke-width="0.0"/>
    <path d="M 91.71061706542969 769.4990234375 C 41.49909210205078 781.872314453125 34.28742218017578 779.9769287109375 2.828287363052368 780.1351928710938 C 0.7006008625030518 774.4366455078125 2.140888214111328 748.4223022460938 1.6069704294204712 610.97705078125 C 28.329710006713867 678.99560546875 -8.293965339660645 677.1445922851562 35.43222427368164 686.033935546875 C 62.6231803894043 701.1810302734375 77.02484893798828 694.6234130859375 91.71061706542969 769.4990234375" fill="rgb(96, 143, 164)" opacity="0.57937557" stroke="rgb(47, 198, 143)" stroke-linecap="round" stroke-linejoin="round" stroke-opacity="0.46955255" stroke-width="0.0"/>
    <path d="M 421.8052062988281 363.7926330566406 C 417.6228942871094 359.2919616699219 409.958251953125 402.8382568359375 363.2441711425781 387.0284118652344 C 368.12200927734375 385.60186767578125 394.71270751953125 384.3024597167969 367.4072570800781 377.79876708984375 C 355.431396484375 451.7876892089844 247.80303955078125 390.7751770019531 268.2638244628906 379.89666748046875 C 404.4021301269531 343.5397644042969 421.473388671875 352.18914794921875 421.8052062988281 363.7926330566406" fill="rgb(0, 50, 92)" opacity="0.8728433" stroke="rgb(224, 79, 9)" stroke-linecap="round" stroke-linejoin="round" stroke-opacity="0.8877654" stroke-width="0.0"/>
    <path d="M 426.6301574707031 360.10577392578125 C 422.265625 351.88446044921875 418.8159484863281 382.59564208984375 390.4830322265625 391.5196228027344 C 360.7813415527344 392.7682189941406 371.8601989746094 385.2244873046875 390.65966796875 369.6232604980469 C 380.3137512207031 350.5681457519531 392.4119873046875 351.23040771484375 413.23028564453125 352.6520080566406 C 420.6227111816406 350.89190673828125 421.1415710449219 352.97930908203125 426.6301574707031 360.10577392578125" fill="rgb(43, 0, 28)" opacity="0.8922344" stroke="rgb(213, 239, 89)" stroke-linecap="round" stroke-linejoin="round" stroke-opacity="0.4390413" stroke-width="0.0"/>
    <path d="M 291.9720458984375 439.6181640625 C 319.100830078125 593.7672119140625 291.8153381347656 597.4051513671875 231.73367309570312 607.2062377929688 C 151.0182647705078 562.2954711914062 136.92620849609375 565.020263671875 113.32673645019531 492.0723876953125 C 121.10243225097656 479.40496826171875 124.78302764892578 475.6036376953125 212.68414306640625 473.60467529296875 C 202.44271850585938 452.1401672363281 251.23573303222656 429.8410949707031 291.9720458984375 439.6181640625" fill="rgb(97, 148, 166)" opacity="0.983904" stroke="rgb(77, 192, 18)" stroke-linecap="round" stroke-linejoin="round" stroke-opacity="0.75667703" stroke-width="0.0"/>
  </g>
</svg>
