<?xml version="1.0" ?>
<svg height="768" version="1.1" width="768" xmlns="http://www.w3.org/2000/svg">
  <defs/>
  <g>
    <path d="M 764.36572265625 792.4375610351562 C 350.388671875 820.512939453125 214.22267150878906 848.244873046875 180.25820922851562 617.1057739257812 C 611.6890258789062 341.4407043457031 732.0181274414062 245.77874755859375 19.678550720214844 550.3577880859375 C -17.49038314819336 -99.61408233642578 -2.1491148471832275 -53.29404830932617 764.50390625 -12.559484481811523 C 764.3660278320312 260.75262451171875 764.5630493164062 319.7413024902344 764.36572265625 792.4375610351562" fill="rgb(44, 111, 137)" opacity="0.7367188" stroke="rgb(242, 217, 203)" stroke-linecap="round" stroke-linejoin="round" stroke-opacity="0.71962214" stroke-width="0.0"/>
    <path d="M 419.0157470703125 773.4053955078125 C 417.90032958984375 781.865966796875 412.3475341796875 782.13037109375 282.62567138671875 783.4593505859375 C 292.4027099609375 802.7969970703125 249.55178833007812 771.2522583007812 249.60252380371094 688.406494140625 C 250.55374145507812 625.5910034179688 294.8050842285156 559.56640625 364.87738037109375 548.917236328125 C 428.1944885253906 625.2735595703125 414.6642150878906 654.7512817382812 419.0157470703125 773.4053955078125" fill="rgb(52, 0, 46)" opacity="0.95793265" stroke="rgb(52, 80, 13)" stroke-linecap="round" stroke-linejoin="round" stroke-opacity="0.118004136" stroke-width="0.0"/>
    <path d="M 736.5689697265625 583.60107421875 C 808.9920043945312 944.5974731445312 745.396484375 855.3167724609375 639.16796875 783.4080810546875 C 383.5316467285156 780.7656860351562 386.58221435546875 774.1064453125 381.86676025390625 763.13916015625 C 365.4404296875 666.2330322265625 312.28790283203125 694.2014770507812 360.0678405761719 551.8340454101562 C 595.9174194335938 555.9459838867188 372.2994384765625 590.9920043945312 736.5689697265625 583.60107421875" fill="rgb(49, 0, 46)" opacity="0.96097475" stroke="rgb(4, 38, 250)" stroke-linecap="round" stroke-linejoin="round" stroke-opacity="0.26343647" stroke-width="0.0"/>
    <path d="M 509.72705078125 675.6900024414062 C 445.1566467285156 636.3032836914062 439.4671630859375 629.5286865234375 429.89849853515625 619.4689331054688 C 414.7210998535156 598.9879760742188 393.7942199707031 622.104736328125 357.51885986328125 551.2416381835938 C 358.79058837890625 548.4829711914062 409.1992492675781 539.1596069335938 461.9774475097656 556.8328247070312 C 510.0028381347656 573.4946899414062 544.2139892578125 584.4370727539062 509.72705078125 675.6900024414062" fill="rgb(50, 5, 48)" opacity="0.97922283" stroke="rgb(128, 50, 213)" stroke-linecap="round" stroke-linejoin="round" stroke-opacity="0.26315796" stroke-width="0.0"/>
    <path d="M 477.5944519042969 694.3773193359375 C 440.6534729003906 692.4749145507812 438.0644836425781 688.6867065429688 344.2652893066406 666.6727294921875 C 383.3645324707031 641.3225708007812 377.44146728515625 640.4510498046875 374.05615234375 578.9534301757812 C 395.83563232421875 585.5751342773438 399.8674621582031 588.8517456054688 448.9873352050781 590.1295776367188 C 441.9034118652344 601.2164916992188 461.8592529296875 590.17822265625 477.5944519042969 694.3773193359375" fill="rgb(51, 6, 51)" opacity="1.0" stroke="rgb(43, 31, 31)" stroke-linecap="round" stroke-linejoin="round" stroke-opacity="0.971857" stroke-width="0.0"/>
    <path d="M 772.6763305664062 645.5732421875 C 779.4932861328125 788.3673706054688 759.9293823242188 779.6956787109375 759.9092407226562 776.7083129882812 C 667.3804931640625 775.17529296875 664.4019165039062 775.1902465820312 631.3526000976562 798.4706420898438 C 618.013427734375 736.8582153320312 612.4954833984375 743.4302368164062 510.95654296875 662.9061889648438 C 744.8391723632812 589.8692016601562 697.7964477539062 588.0752563476562 772.6763305664062 645.5732421875" fill="rgb(51, 6, 50)" opacity="1.0" stroke="rgb(114, 58, 76)" stroke-linecap="round" stroke-linejoin="round" stroke-opacity="0.7408875" stroke-width="0.0"/>
    <path d="M 509.90057373046875 607.8712768554688 C 513.3353881835938 802.6416015625 475.8483581542969 785.5545654296875 463.1373596191406 778.73828125 C 399.4850769042969 777.9015502929688 396.3824462890625 776.291259765625 375.3444519042969 761.5152587890625 C 376.48858642578125 724.498291015625 381.1794738769531 722.0278930664062 362.0798645019531 698.727783203125 C 444.0734558105469 674.7483520507812 450.5927734375 669.9362182617188 509.90057373046875 607.8712768554688" fill="rgb(51, 6, 51)" opacity="1.0" stroke="rgb(192, 160, 53)" stroke-linecap="round" stroke-linejoin="round" stroke-opacity="0.16767655" stroke-width="0.0"/>
    <path d="M 554.212158203125 467.42340087890625 C 572.00634765625 639.9879760742188 505.2029724121094 552.8275756835938 186.6153564453125 457.8604431152344 C 280.22149658203125 374.9204406738281 268.41143798828125 403.5056457519531 271.7544860839844 343.8936767578125 C 324.7599182128906 332.601318359375 277.5436096191406 308.58154296875 349.54779052734375 268.91961669921875 C 312.0679016113281 269.7907409667969 572.7290649414062 280.04522705078125 554.212158203125 467.42340087890625" fill="rgb(217, 227, 238)" opacity="0.994349" stroke="rgb(29, 40, 109)" stroke-linecap="round" stroke-linejoin="round" stroke-opacity="0.9429024" stroke-width="0.0"/>
    <path d="M 358.7397155761719 430.75262451171875 C 384.10552978515625 436.7754211425781 378.8992614746094 451.722412109375 365.28179931640625 448.2212829589844 C 344.4248962402344 451.1758117675781 260.91534423828125 396.8407287597656 208.0963592529297 481.7212219238281 C 143.72216796875 379.00604248046875 290.63421630859375 345.537841796875 327.7713317871094 369.63275146484375 C 267.6810607910156 438.6868591308594 433.4598083496094 391.58770751953125 358.7397155761719 430.75262451171875" fill="rgb(251, 197, 28)" opacity="0.9935771" stroke="rgb(236, 230, 114)" stroke-linecap="round" stroke-linejoin="round" stroke-opacity="0.5568124" stroke-width="0.0"/>
    <path d="M 224.38717651367188 599.0913696289062 C 220.13934326171875 617.1004638671875 218.013427734375 620.4246826171875 200.78179931640625 670.1293334960938 C 95.544677734375 661.2780151367188 91.77392578125 643.1214599609375 44.860164642333984 633.9808959960938 C 26.955284118652344 509.5377502441406 33.87167739868164 496.9064636230469 62.80281448364258 487.9039611816406 C 198.05160522460938 507.5936279296875 187.3364715576172 534.589599609375 224.38717651367188 599.0913696289062" fill="rgb(98, 148, 168)" opacity="1.0" stroke="rgb(13, 101, 124)" stroke-linecap="round" stroke-linejoin="round" stroke-opacity="0.3704566" stroke-width="0.0"/>
    <path d="M 250.51168823242188 767.7998046875 C 130.63113403320312 785.9500732421875 102.27619934082031 780.6624145507812 2.3414762020111084 767.7374877929688 C 3.5189855098724365 719.3153076171875 1.0839412212371826 714.1586303710938 1.7839213609695435 262.92120361328125 C 112.4283676147461 485.462646484375 55.128761291503906 530.7925415039062 172.67587280273438 574.1969604492188 C 193.3453826904297 605.7448120117188 221.56253051757812 579.0824584960938 250.51168823242188 767.7998046875" fill="rgb(98, 149, 169)" opacity="0.604308" stroke="rgb(220, 46, 219)" stroke-linecap="round" stroke-linejoin="round" stroke-opacity="0.5888399" stroke-width="0.0"/>
    <path d="M 91.71905517578125 769.4301147460938 C 41.49909210205078 781.872314453125 34.28742218017578 779.9769287109375 0.14420132339000702 780.1595458984375 C 1.2780877351760864 774.8829345703125 0.7113466262817383 750.817626953125 0.7685001492500305 550.2418823242188 C 39.308448791503906 676.4248657226562 -6.8195648193359375 677.071044921875 35.63642120361328 686.009765625 C 62.64080047607422 701.1349487304688 77.03741455078125 694.5667724609375 91.71905517578125 769.4301147460938" fill="rgb(97, 156, 186)" opacity="0.25469688" stroke="rgb(47, 198, 143)" stroke-linecap="round" stroke-linejoin="round" stroke-opacity="0.46955255" stroke-width="0.0"/>
    <path d="M 420.9014892578125 365.38909912109375 C 417.60845947265625 361.04400634765625 409.0077209472656 401.9823913574219 365.9352111816406 387.02545166015625 C 359.5226135253906 382.6239929199219 396.44989013671875 393.5970764160156 362.0519104003906 374.7425231933594 C 363.62060546875 460.312255859375 257.8878173828125 383.5899658203125 249.6001434326172 367.6092224121094 C 393.84521484375 345.4713439941406 424.6101379394531 367.08203125 420.9014892578125 365.38909912109375" fill="rgb(20, 80, 114)" opacity="0.9819531" stroke="rgb(224, 79, 9)" stroke-linecap="round" stroke-linejoin="round" stroke-opacity="0.8877654" stroke-width="0.0"/>
    <path d="M 425.9340515136719 358.39532470703125 C 424.51605224609375 351.2510986328125 418.049072265625 383.30718994140625 390.9725646972656 391.6847839355469 C 358.97406005859375 393.8330383300781 369.62664794921875 381.8857727050781 382.6836242675781 366.9717102050781 C 360.1956787109375 351.5712890625 382.57421875 353.3430480957031 406.1445617675781 350.49664306640625 C 423.0599060058594 350.1809387207031 420.91839599609375 349.7768249511719 425.9340515136719 358.39532470703125" fill="rgb(60, 20, 71)" opacity="0.6590475" stroke="rgb(213, 239, 89)" stroke-linecap="round" stroke-linejoin="round" stroke-opacity="0.4390413" stroke-width="0.0"/>
    <path d="M 288.2560119628906 442.75384521484375 C 326.6788024902344 576.9017333984375 292.89306640625 597.5628051757812 231.9356231689453 610.1031494140625 C 151.0681610107422 562.218994140625 136.7797088623047 565.1077270507812 112.43000030517578 489.62335205078125 C 120.83396911621094 474.50469970703125 128.32183837890625 449.7978820800781 214.02023315429688 477.686767578125 C 195.01544189453125 449.4776306152344 264.6851501464844 426.2082824707031 288.2560119628906 442.75384521484375" fill="rgb(97, 148, 167)" opacity="1.0" stroke="rgb(77, 192, 18)" stroke-linecap="round" stroke-linejoin="round" stroke-opacity="0.75667703" stroke-width="0.0"/>
    <path d="M 53.792945861816406 29.4559268951416 C 52.95586013793945 41.64665222167969 52.57441711425781 45.30537796020508 31.293046951293945 49.38615036010742 C -7.160480499267578 46.18534469604492 6.954378128051758 46.42625045776367 1.6249890327453613 -12.51492977142334 C -4.259909629821777 -11.502629280090332 -0.2105046957731247 -11.74039363861084 5.109038829803467 -11.091684341430664 C 46.99081802368164 1.8849438428878784 51.23328399658203 2.1791985034942627 53.792945861816406 29.4559268951416" fill="rgb(134, 172, 191)" opacity="0.87540984" stroke="rgb(176, 108, 194)" stroke-linecap="round" stroke-linejoin="round" stroke-opacity="0.14983524" stroke-width="0.0"/>
    <path d="M 751.0247192382812 614.2114868164062 C 750.7034301757812 624.9861450195312 750.4580078125 627.0977783203125 747.3577880859375 624.6940307617188 C 724.235107421875 607.4512329101562 712.8795776367188 598.2188110351562 687.8114013671875 582.527587890625 C 697.8104858398438 578.76318359375 707.2466430664062 583.0071411132812 734.7177734375 581.275390625 C 745.6285400390625 581.8441162109375 747.0718994140625 584.155517578125 751.0247192382812 614.2114868164062" fill="rgb(103, 150, 169)" opacity="0.9762863" stroke="rgb(38, 234, 218)" stroke-linecap="round" stroke-linejoin="round" stroke-opacity="0.90811515" stroke-width="0.0"/>
    <path d="M 689.758544921875 584.1007690429688 C 629.2755737304688 614.9522705078125 620.0656127929688 611.0704345703125 548.430908203125 608.712158203125 C 553.1845703125 601.1495971679688 548.9800415039062 605.4889526367188 554.4041748046875 559.222412109375 C 555.9791870117188 529.758544921875 565.165771484375 519.1416015625 666.6026611328125 569.8258056640625 C 645.2817993164062 561.21142578125 663.2797241210938 566.7205810546875 689.758544921875 584.1007690429688" fill="rgb(50, 5, 49)" opacity="1.0" stroke="rgb(77, 26, 204)" stroke-linecap="round" stroke-linejoin="round" stroke-opacity="0.34340128" stroke-width="0.0"/>
    <path d="M 41.88945770263672 139.60317993164062 C 29.334794998168945 147.73391723632812 31.872798919677734 153.4134521484375 14.042969703674316 171.35134887695312 C -1.5370888710021973 179.62547302246094 2.3362998962402344 223.88919067382812 1.667377233505249 142.97525024414062 C 4.253319263458252 156.58477783203125 1.7281709909439087 113.8848648071289 2.889281749725342 103.05750274658203 C 23.46055793762207 118.04833984375 37.88725280761719 96.09260559082031 41.88945770263672 139.60317993164062" fill="rgb(98, 150, 170)" opacity="0.6121343" stroke="rgb(172, 190, 31)" stroke-linecap="round" stroke-linejoin="round" stroke-opacity="0.37453917" stroke-width="0.0"/>
    <path d="M 378.6684875488281 442.904052734375 C 373.1063537597656 450.3689880371094 372.41326904296875 452.446044921875 340.23358154296875 449.5107116699219 C 318.616943359375 440.763671875 316.20556640625 429.4843444824219 273.098876953125 434.6394958496094 C 259.0020446777344 418.2618408203125 286.75274658203125 428.0773620605469 350.0327453613281 430.4405212402344 C 366.0850524902344 432.5505676269531 377.3816223144531 429.2754211425781 378.6684875488281 442.904052734375" fill="rgb(31, 86, 109)" opacity="0.99044144" stroke="rgb(184, 183, 3)" stroke-linecap="round" stroke-linejoin="round" stroke-opacity="0.09350863" stroke-width="0.0"/>
    <path d="M 416.81976318359375 537.44970703125 C 382.2802429199219 525.487548828125 339.6955261230469 528.0792846679688 319.4571838378906 537.5430908203125 C 303.8202819824219 538.5226440429688 310.2568054199219 558.8348388671875 303.44085693359375 557.525390625 C 300.765380859375 434.4042663574219 275.7355651855469 398.2684326171875 317.0491943359375 500.397705078125 C 354.2224426269531 513.94775390625 373.3854675292969 519.9189453125 416.81976318359375 537.44970703125" fill="rgb(215, 228, 238)" opacity="0.9596437" stroke="rgb(211, 140, 119)" stroke-linecap="round" stroke-linejoin="round" stroke-opacity="0.80919874" stroke-width="0.0"/>
    <path d="M 44.577354431152344 47.58809280395508 C 45.187286376953125 59.40657424926758 43.18516159057617 62.01929473876953 36.53805160522461 61.35276412963867 C -5.859957218170166 58.31920623779297 4.080263137817383 64.29913330078125 1.9381991624832153 10.879226684570312 C 1.591113805770874 4.817856788635254 2.3760454654693604 -1.1603788137435913 -1.474950909614563 -6.145421504974365 C 30.087867736816406 7.209137916564941 29.730609893798828 11.344317436218262 44.577354431152344 47.58809280395508" fill="rgb(74, 124, 146)" opacity="0.5557876" stroke="rgb(27, 144, 88)" stroke-linecap="round" stroke-linejoin="round" stroke-opacity="0.4515706" stroke-width="0.0"/>
    <path d="M 54.9349250793457 70.94246673583984 C 47.5986213684082 104.68963623046875 45.754493713378906 106.09904479980469 29.295429229736328 110.46819305419922 C -9.569780349731445 106.42003631591797 6.725815773010254 102.02143859863281 2.5194993019104004 79.31893157958984 C 3.306259870529175 38.72999954223633 -3.7979018688201904 38.744754791259766 30.128883361816406 39.78896713256836 C 49.79926681518555 38.24147033691406 54.578514099121094 37.67912292480469 54.9349250793457 70.94246673583984" fill="rgb(98, 148, 166)" opacity="0.7354988" stroke="rgb(15, 37, 60)" stroke-linecap="round" stroke-linejoin="round" stroke-opacity="0.3673256" stroke-width="0.0"/>
    <path d="M 625.0980834960938 551.7265014648438 C 609.241943359375 560.794189453125 602.8493041992188 553.9129638671875 592.3529052734375 552.9224853515625 C 556.873291015625 559.5421142578125 551.9200439453125 565.9903564453125 554.4111328125 579.919677734375 C 557.4058227539062 516.2677612304688 553.0914306640625 529.3866577148438 557.6950073242188 527.1880493164062 C 582.466064453125 533.2779541015625 597.346435546875 538.2909545898438 625.0980834960938 551.7265014648438" fill="rgb(49, 3, 45)" opacity="0.96820605" stroke="rgb(118, 93, 52)" stroke-linecap="round" stroke-linejoin="round" stroke-opacity="0.1485946" stroke-width="0.0"/>
    <path d="M 531.2832641601562 600.2442016601562 C 527.27392578125 600.9961547851562 528.7158203125 599.4435424804688 531.4622192382812 606.3753051757812 C 521.531005859375 583.52734375 502.3811950683594 570.5933837890625 447.3818664550781 549.7750244140625 C 455.05780029296875 489.3068542480469 482.6291198730469 505.49603271484375 529.9346313476562 484.6156921386719 C 522.334228515625 526.3179931640625 533.2965698242188 555.8991088867188 531.2832641601562 600.2442016601562" fill="rgb(218, 228, 239)" opacity="0.9843503" stroke="rgb(5, 163, 37)" stroke-linecap="round" stroke-linejoin="round" stroke-opacity="0.3328018" stroke-width="0.0"/>
    <path d="M 31.117935180664062 166.7952880859375 C 45.570220947265625 193.1689453125 85.38471221923828 253.93429565429688 1.8118805885314941 280.42266845703125 C 1.7341114282608032 226.5643768310547 1.7734298706054688 201.4430389404297 1.8302812576293945 191.73001098632812 C 6.951326847076416 154.8836669921875 -6.115784168243408 132.65753173828125 19.013490676879883 136.99969482421875 C 26.25528335571289 150.15118408203125 23.232454299926758 157.7953338623047 31.117935180664062 166.7952880859375" fill="rgb(99, 148, 168)" opacity="0.8785251" stroke="rgb(195, 150, 131)" stroke-linecap="round" stroke-linejoin="round" stroke-opacity="0.76676005" stroke-width="0.0"/>
    <path d="M 282.39996337890625 407.2436828613281 C 254.54957580566406 446.9686279296875 310.51190185546875 436.92529296875 257.2890319824219 438.60540771484375 C 196.5876007080078 453.0758361816406 219.43685913085938 466.8412170410156 211.53883361816406 480.80413818359375 C 203.39601135253906 438.6316223144531 239.76336669921875 427.5091247558594 257.6351013183594 425.48046875 C 283.9200134277344 425.27911376953125 267.58367919921875 427.4861145019531 282.39996337890625 407.2436828613281" fill="rgb(99, 85, 2)" opacity="0.7411236" stroke="rgb(218, 230, 219)" stroke-linecap="round" stroke-linejoin="round" stroke-opacity="0.6442795" stroke-width="0.0"/>
    <path d="M 29.669919967651367 94.14176177978516 C 17.47960662841797 130.19754028320312 24.000995635986328 133.90875244140625 6.01870584487915 138.45849609375 C 0.679416835308075 148.0966033935547 1.5414968729019165 160.256103515625 1.6185728311538696 80.36243438720703 C -2.400965929031372 83.08367156982422 -9.329453468322754 79.94998168945312 31.66343879699707 79.6023941040039 C 40.11509323120117 84.0344009399414 38.33719253540039 88.2556381225586 29.669919967651367 94.14176177978516" fill="rgb(34, 97, 127)" opacity="0.39512798" stroke="rgb(80, 198, 12)" stroke-linecap="round" stroke-linejoin="round" stroke-opacity="0.5159796" stroke-width="0.0"/>
    <path d="M 37.01045608520508 61.227691650390625 C 36.45756530761719 64.20003509521484 32.777130126953125 64.86827087402344 36.472991943359375 70.47085571289062 C -4.206610679626465 80.64075469970703 1.1099891662597656 94.3272705078125 0.8289978504180908 54.72623825073242 C 0.5693691968917847 9.007169723510742 1.1564868688583374 19.413793563842773 0.052036259323358536 -9.640990257263184 C 7.2948317527771 38.50862121582031 -8.669815063476562 45.626155853271484 37.01045608520508 61.227691650390625" fill="rgb(0, 76, 119)" opacity="0.18471688" stroke="rgb(239, 110, 43)" stroke-linecap="round" stroke-linejoin="round" stroke-opacity="0.09347746" stroke-width="0.0"/>
    <path d="M 112.50958251953125 -1.6807657480239868 C 88.04517364501953 60.299991607666016 79.81657409667969 58.25542068481445 45.52513885498047 68.406494140625 C 23.354110717773438 64.39812469482422 21.878040313720703 61.913795471191406 23.79166603088379 53.710670471191406 C 32.77850341796875 7.239861011505127 34.12171173095703 5.159791946411133 74.33789825439453 -10.596145629882812 C 95.77884674072266 -11.962004661560059 102.23175811767578 -12.627001762390137 112.50958251953125 -1.6807657480239868" fill="rgb(98, 149, 169)" opacity="0.99600124" stroke="rgb(42, 99, 241)" stroke-linecap="round" stroke-linejoin="round" stroke-opacity="0.16711089" stroke-width="0.0"/>
    <path d="M 73.97946166992188 10.107464790344238 C 61.50912094116211 24.65818214416504 59.52521514892578 25.988201141357422 43.13734817504883 26.792226791381836 C 22.069686889648438 20.017810821533203 19.807106018066406 18.993846893310547 9.889127731323242 -4.955057621002197 C 11.929935455322266 -17.40320587158203 16.633716583251953 -16.455724716186523 49.400550842285156 -16.11858367919922 C 70.9525146484375 -25.97745132446289 73.6424789428711 -27.016815185546875 73.97946166992188 10.107464790344238" fill="rgb(101, 148, 168)" opacity="0.9979241" stroke="rgb(209, 125, 179)" stroke-linecap="round" stroke-linejoin="round" stroke-opacity="0.44908255" stroke-width="0.0"/>
    <path d="M 302.51947021484375 394.77294921875 C 306.4408874511719 416.57708740234375 304.1782531738281 415.1324157714844 300.76104736328125 412.2860412597656 C 266.8188781738281 401.1829528808594 267.456298828125 401.19091796875 250.7782440185547 368.91400146484375 C 254.53445434570312 368.9093933105469 259.9687805175781 366.34033203125 268.0788879394531 365.18853759765625 C 283.9727478027344 361.63427734375 299.9716491699219 368.5363464355469 302.51947021484375 394.77294921875" fill="rgb(250, 208, 28)" opacity="0.98958296" stroke="rgb(242, 163, 135)" stroke-linecap="round" stroke-linejoin="round" stroke-opacity="0.73419005" stroke-width="0.0"/>
    <path d="M 348.9521179199219 358.3091735839844 C 320.1298522949219 365.29345703125 307.66357421875 374.04669189453125 329.8591003417969 364.20269775390625 C 283.1953430175781 381.3902282714844 316.971435546875 374.864990234375 279.6884765625 361.6354064941406 C 252.81622314453125 369.4861755371094 289.3979187011719 312.95477294921875 346.1739807128906 270.2097473144531 C 459.98736572265625 296.61669921875 438.3339538574219 287.1246032714844 348.9521179199219 358.3091735839844" fill="rgb(245, 255, 249)" opacity="0.7018569" stroke="rgb(36, 247, 23)" stroke-linecap="round" stroke-linejoin="round" stroke-opacity="0.6125393" stroke-width="0.0"/>
    <path d="M 207.04005432128906 397.9209289550781 C 208.6853485107422 397.172119140625 188.0137176513672 417.8640441894531 194.8050079345703 451.366455078125 C 198.71778869628906 469.4120788574219 180.5234832763672 447.65771484375 194.974609375 409.32830810546875 C 196.00706481933594 412.9538269042969 200.1414794921875 390.9018859863281 226.53125 378.3857727050781 C 263.68096923828125 369.39605712890625 225.91970825195312 374.21392822265625 207.04005432128906 397.9209289550781" fill="rgb(255, 255, 219)" opacity="0.86266863" stroke="rgb(229, 153, 75)" stroke-linecap="round" stroke-linejoin="round" stroke-opacity="0.7333528" stroke-width="0.0"/>
    <path d="M 553.0763549804688 564.1859741210938 C 550.3092651367188 578.4213256835938 553.383056640625 585.8218994140625 547.7294921875 584.1897583007812 C 547.8063354492188 583.3054809570312 544.7614135742188 569.493896484375 527.4592895507812 548.7255249023438 C 541.1843872070312 564.1229858398438 546.990966796875 555.0704956054688 554.2979736328125 516.5888061523438 C 557.3113403320312 537.6366577148438 553.8321533203125 548.9580688476562 553.0763549804688 564.1859741210938" fill="rgb(224, 233, 244)" opacity="0.9576021" stroke="rgb(80, 216, 51)" stroke-linecap="round" stroke-linejoin="round" stroke-opacity="0.638194" stroke-width="0.0"/>
    <path d="M 545.6134033203125 580.8211669921875 C 545.47900390625 590.2667846679688 550.6071166992188 581.0089111328125 536.0753173828125 580.4603271484375 C 527.8111572265625 591.4656982421875 533.3743896484375 558.13427734375 530.7390747070312 575.4595336914062 C 530.1611328125 547.838623046875 531.0911865234375 555.3995971679688 530.8673095703125 555.0326538085938 C 534.1925048828125 557.5000610351562 544.1837768554688 574.233154296875 545.6134033203125 580.8211669921875" fill="rgb(40, 0, 34)" opacity="0.9729707" stroke="rgb(160, 59, 109)" stroke-linecap="round" stroke-linejoin="round" stroke-opacity="0.6311856" stroke-width="0.0"/>
    <path d="M 373.6419677734375 412.621337890625 C 383.5821838378906 413.27117919921875 349.4640808105469 415.5013427734375 356.8642272949219 416.2881774902344 C 349.7767028808594 411.85821533203125 331.5603942871094 416.9565734863281 325.3487854003906 409.2070617675781 C 358.62957763671875 411.7503356933594 354.577880859375 404.6127624511719 352.2411804199219 410.2322692871094 C 367.72607421875 411.22943115234375 374.33203125 409.19305419921875 373.6419677734375 412.621337890625" fill="rgb(0, 31, 50)" opacity="0.9205518" stroke="rgb(203, 177, 122)" stroke-linecap="round" stroke-linejoin="round" stroke-opacity="0.102846235" stroke-width="0.0"/>
    <path d="M 377.3218688964844 378.8467712402344 C 377.2486877441406 380.818115234375 373.32623291015625 386.39764404296875 365.2948303222656 388.09552001953125 C 367.3229675292969 384.877685546875 363.1409912109375 380.8640441894531 361.90521240234375 370.1383972167969 C 365.9281921386719 369.9276123046875 365.87017822265625 361.68798828125 373.8792419433594 366.98089599609375 C 375.0753479003906 369.0646667480469 378.714111328125 364.97735595703125 377.3218688964844 378.8467712402344" fill="rgb(252, 252, 252)" opacity="0.9991789" stroke="rgb(64, 169, 102)" stroke-linecap="round" stroke-linejoin="round" stroke-opacity="0.5910266" stroke-width="0.0"/>
    <path d="M 285.2230224609375 376.7763671875 C 296.2165832519531 386.7658386230469 290.77703857421875 386.5823669433594 267.75885009765625 386.5299072265625 C 264.1949157714844 386.9198303222656 260.475341796875 387.38970947265625 267.2336730957031 378.96142578125 C 273.3401184082031 375.1093444824219 275.4412841796875 373.6736145019531 268.59722900390625 377.7421569824219 C 266.6481018066406 376.020263671875 283.5531921386719 375.6111755371094 285.2230224609375 376.7763671875" fill="rgb(29, 32, 16)" opacity="0.97049755" stroke="rgb(65, 116, 228)" stroke-linecap="round" stroke-linejoin="round" stroke-opacity="0.8157138" stroke-width="0.0"/>
    <path d="M 365.51129150390625 430.7692565917969 C 385.7022705078125 417.1380920410156 379.15771484375 420.59088134765625 371.32586669921875 428.3089294433594 C 344.41070556640625 428.45220947265625 384.7933349609375 437.2803649902344 299.6982727050781 425.12841796875 C 361.9635009765625 429.22003173828125 380.2286682128906 425.0682067871094 375.0823974609375 413.35308837890625 C 378.09112548828125 412.52215576171875 384.193359375 421.7618713378906 365.51129150390625 430.7692565917969" fill="rgb(247, 235, 100)" opacity="0.7763132" stroke="rgb(18, 247, 131)" stroke-linecap="round" stroke-linejoin="round" stroke-opacity="0.43690374" stroke-width="0.0"/>
    <path d="M 415.3454284667969 351.3891906738281 C 431.5263671875 349.5256652832031 368.16485595703125 350.1505126953125 317.69842529296875 365.95880126953125 C 401.1548767089844 348.1011047363281 419.7305603027344 350.1527099609375 404.0341796875 352.4138488769531 C 413.1495666503906 353.8348388671875 411.6028747558594 350.12860107421875 398.8529968261719 351.6795654296875 C 408.2756042480469 347.8196716308594 405.9174499511719 353.9962158203125 415.3454284667969 351.3891906738281" fill="rgb(122, 182, 204)" opacity="0.6406902" stroke="rgb(9, 79, 30)" stroke-linecap="round" stroke-linejoin="round" stroke-opacity="0.6815823" stroke-width="0.0"/>
    <path d="M 202.0873565673828 472.56085205078125 C 208.3761749267578 479.2063293457031 219.67453002929688 485.8250732421875 203.28497314453125 470.4173889160156 C 199.57870483398438 463.8358154296875 197.00384521484375 461.75750732421875 203.25994873046875 469.5577392578125 C 193.23472595214844 460.8197937011719 189.4158477783203 418.1099548339844 191.3220672607422 448.77850341796875 C 192.99520874023438 465.1194763183594 203.88914489746094 474.3794250488281 202.0873565673828 472.56085205078125" fill="rgb(250, 253, 223)" opacity="0.9029807" stroke="rgb(224, 166, 25)" stroke-linecap="round" stroke-linejoin="round" stroke-opacity="0.24624003" stroke-width="0.0"/>
    <path d="M 304.39996337890625 551.9097900390625 C 302.3839111328125 494.34027099609375 299.98638916015625 467.5531921386719 287.5892639160156 448.6907958984375 C 286.41015625 443.9386901855469 286.612548828125 444.1532897949219 286.5049743652344 448.87353515625 C 286.49224853515625 444.3442077636719 280.3077697753906 437.12823486328125 276.19195556640625 433.63525390625 C 284.9928894042969 419.82342529296875 342.35101318359375 492.26898193359375 304.39996337890625 551.9097900390625" fill="rgb(255, 255, 252)" opacity="0.9403909" stroke="rgb(170, 12, 22)" stroke-linecap="round" stroke-linejoin="round" stroke-opacity="0.4327145" stroke-width="0.0"/>
    <path d="M 515.725341796875 346.3703918457031 C 526.240478515625 362.5720520019531 560.1537475585938 410.9193115234375 523.0296630859375 350.39117431640625 C 393.1083068847656 282.72467041015625 301.8648681640625 418.8298034667969 418.6902160644531 289.02288818359375 C 499.2392883300781 317.8727111816406 507.2763977050781 336.8599853515625 519.1332397460938 343.9084777832031 C 511.8997497558594 340.7987976074219 530.3136596679688 353.8915100097656 515.725341796875 346.3703918457031" fill="rgb(240, 245, 242)" opacity="0.6554876" stroke="rgb(56, 134, 250)" stroke-linecap="round" stroke-linejoin="round" stroke-opacity="0.4484792" stroke-width="0.0"/>
    <path d="M 370.0213317871094 386.04766845703125 C 364.4900207519531 388.09686279296875 360.855712890625 397.3775939941406 352.1437072753906 404.1094055175781 C 367.0174865722656 378.8749084472656 360.3700866699219 398.8729553222656 356.5806884765625 357.8437805175781 C 361.1012878417969 379.17144775390625 357.6878662109375 384.1170349121094 357.9556884765625 368.2615661621094 C 365.387939453125 381.5733642578125 362.7352294921875 385.7918395996094 370.0213317871094 386.04766845703125" fill="rgb(13, 67, 102)" opacity="0.9766349" stroke="rgb(21, 1, 82)" stroke-linecap="round" stroke-linejoin="round" stroke-opacity="0.022372035" stroke-width="0.0"/>
    <path d="M 303.4347229003906 406.9329528808594 C 304.5096435546875 416.39788818359375 294.4045715332031 411.5662536621094 365.41632080078125 416.21624755859375 C 368.73016357421875 414.4906005859375 330.6539306640625 413.7019958496094 322.21649169921875 408.41455078125 C 329.7871398925781 412.20458984375 340.044677734375 411.8297424316406 329.2125244140625 412.0648498535156 C 316.4371643066406 411.5095520019531 321.707275390625 414.2793273925781 303.4347229003906 406.9329528808594" fill="rgb(149, 105, 27)" opacity="0.90571594" stroke="rgb(177, 58, 139)" stroke-linecap="round" stroke-linejoin="round" stroke-opacity="0.7601197" stroke-width="0.0"/>
    <path d="M 554.7278442382812 441.05291748046875 C 555.9629516601562 445.3103332519531 557.9291381835938 478.446044921875 557.3485717773438 509.78863525390625 C 538.1398315429688 484.00958251953125 516.483154296875 488.9047546386719 537.3790283203125 459.0294494628906 C 545.7645263671875 463.1356506347656 544.0145874023438 453.54522705078125 552.8644409179688 422.00872802734375 C 557.7862548828125 451.5264892578125 557.1649780273438 468.28436279296875 554.7278442382812 441.05291748046875" fill="rgb(216, 227, 240)" opacity="0.77098465" stroke="rgb(25, 22, 243)" stroke-linecap="round" stroke-linejoin="round" stroke-opacity="0.4674198" stroke-width="0.0"/>
    <path d="M 212.60719299316406 480.55218505859375 C 212.178466796875 472.7724304199219 209.67091369628906 479.3544921875 214.1268310546875 475.602294921875 C 211.4813995361328 477.9796142578125 207.474609375 478.8499450683594 197.46530151367188 458.2604064941406 C 189.12828063964844 423.8853759765625 192.07989501953125 462.4092102050781 203.29640197753906 471.0081787109375 C 207.32260131835938 474.8257751464844 207.37994384765625 481.890380859375 212.60719299316406 480.55218505859375" fill="rgb(254, 244, 102)" opacity="0.5071292" stroke="rgb(219, 141, 59)" stroke-linecap="round" stroke-linejoin="round" stroke-opacity="0.26088318" stroke-width="0.0"/>
    <path d="M 372.9716491699219 414.39984130859375 C 288.422607421875 410.9801025390625 303.5909118652344 414.4852294921875 308.6883850097656 408.7334899902344 C 300.8395690917969 416.52874755859375 305.3396911621094 404.4958190917969 296.11688232421875 372.8731384277344 C 264.4002380371094 357.5592346191406 305.9193115234375 360.0431823730469 303.4344787597656 389.0466003417969 C 315.93231201171875 421.9713439941406 285.7662658691406 402.0293273925781 372.9716491699219 414.39984130859375" fill="rgb(6, 0, 0)" opacity="0.79374903" stroke="rgb(191, 107, 172)" stroke-linecap="round" stroke-linejoin="round" stroke-opacity="0.63342905" stroke-width="0.0"/>
    <path d="M 308.5121154785156 301.9704895019531 C 280.02459716796875 349.3397521972656 307.8916015625 330.7616271972656 280.7220458984375 337.0185852050781 C 282.93792724609375 321.87939453125 285.4795227050781 316.06396484375 277.1087341308594 327.80853271484375 C 279.7197265625 319.7821350097656 284.76434326171875 323.00146484375 284.6600646972656 322.1814880371094 C 282.2483215332031 330.8733825683594 280.0840759277344 311.2145690917969 308.5121154785156 301.9704895019531" fill="rgb(95, 146, 163)" opacity="1.0" stroke="rgb(203, 166, 148)" stroke-linecap="round" stroke-linejoin="round" stroke-opacity="0.9937587" stroke-width="0.0"/>
    <path d="M 427.847900390625 353.07928466796875 C 430.2157897949219 374.95404052734375 426.4731750488281 382.15771484375 427.577392578125 360.2070617675781 C 428.74615478515625 355.5718994140625 428.02227783203125 350.7468566894531 425.42779541015625 350.2458190917969 C 427.2810363769531 367.4247131347656 428.31390380859375 366.06561279296875 423.20867919921875 379.8330993652344 C 423.2425537109375 355.3345642089844 423.5246276855469 344.9718933105469 427.847900390625 353.07928466796875" fill="rgb(228, 234, 245)" opacity="0.7411794" stroke="rgb(24, 163, 28)" stroke-linecap="round" stroke-linejoin="round" stroke-opacity="0.42265683" stroke-width="0.0"/>
    <path d="M 287.842529296875 336.0765380859375 C 274.56402587890625 339.8640441894531 268.4715881347656 352.81500244140625 266.9839172363281 360.43035888671875 C 266.805419921875 341.1365051269531 272.23974609375 341.1863708496094 267.0026550292969 353.3194580078125 C 270.0806579589844 336.22576904296875 269.2326354980469 334.92926025390625 269.2161560058594 347.0000305175781 C 276.94818115234375 345.0101318359375 262.2007751464844 329.74853515625 287.842529296875 336.0765380859375" fill="rgb(92, 146, 161)" opacity="0.8941235" stroke="rgb(225, 131, 47)" stroke-linecap="round" stroke-linejoin="round" stroke-opacity="0.583548" stroke-width="0.0"/>
    <path d="M 363.26751708984375 385.9027404785156 C 363.987060546875 381.5563659667969 363.2718505859375 392.3912048339844 369.8372802734375 386.9587097167969 C 363.5557556152344 384.82427978515625 355.86456298828125 364.1221923828125 372.87249755859375 364.69476318359375 C 366.6913757324219 357.1018981933594 373.16888427734375 352.6724548339844 362.0630187988281 366.77349853515625 C 356.85595703125 376.66253662109375 362.1980895996094 382.3732604980469 363.26751708984375 385.9027404785156" fill="rgb(3, 0, 0)" opacity="0.8574913" stroke="rgb(95, 165, 61)" stroke-linecap="round" stroke-linejoin="round" stroke-opacity="0.39840314" stroke-width="0.0"/>
    <path d="M 548.0508422851562 398.7268371582031 C 516.9351806640625 393.2137145996094 541.5470581054688 390.77490234375 508.2321472167969 399.58489990234375 C 504.9694519042969 356.6300354003906 508.3814392089844 355.52313232421875 507.4547119140625 343.187255859375 C 515.1233520507812 349.154052734375 515.5569458007812 342.0268859863281 520.0574951171875 344.85943603515625 C 519.9130249023438 346.0514221191406 536.8477783203125 363.7770690917969 548.0508422851562 398.7268371582031" fill="rgb(218, 228, 239)" opacity="0.6193877" stroke="rgb(200, 35, 220)" stroke-linecap="round" stroke-linejoin="round" stroke-opacity="0.679127" stroke-width="0.0"/>
    <path d="M 381.3554992675781 380.0130615234375 C 371.8731384277344 361.0892639160156 370.62713623046875 368.4524230957031 361.0897521972656 366.15435791015625 C 364.86846923828125 387.68060302734375 359.33428955078125 381.08526611328125 364.8305969238281 368.476806640625 C 355.6097412109375 363.64935302734375 376.3326721191406 356.03607177734375 359.6635437011719 357.6719055175781 C 378.7320556640625 353.97760009765625 391.848388671875 351.3354187011719 381.3554992675781 380.0130615234375" fill="rgb(32, 4, 45)" opacity="0.45903176" stroke="rgb(145, 81, 28)" stroke-linecap="round" stroke-linejoin="round" stroke-opacity="0.12488374" stroke-width="0.0"/>
    <path d="M 354.9041442871094 431.171142578125 C 360.3152770996094 435.95281982421875 372.234375 423.7007751464844 380.30462646484375 444.0626525878906 C 374.62518310546875 426.113525390625 383.8491516113281 433.12750244140625 283.3823547363281 424.1255798339844 C 291.7141418457031 447.09722900390625 413.31683349609375 428.7844543457031 338.7161865234375 430.0491943359375 C 368.66961669921875 428.1961364746094 357.8388671875 432.55096435546875 354.9041442871094 431.171142578125" fill="rgb(0, 43, 37)" opacity="0.43855888" stroke="rgb(105, 176, 19)" stroke-linecap="round" stroke-linejoin="round" stroke-opacity="0.70400345" stroke-width="0.0"/>
    <path d="M 345.004638671875 450.4115905761719 C 288.7630920410156 426.66497802734375 311.48065185546875 438.8215026855469 274.75897216796875 432.2093505859375 C 282.37591552734375 432.2648620605469 273.08612060546875 439.2612609863281 270.19366455078125 432.8601379394531 C 272.5218200683594 425.45489501953125 265.80352783203125 426.1484069824219 280.40777587890625 426.5560302734375 C 234.67616271972656 417.21136474609375 373.198486328125 444.5014343261719 345.004638671875 450.4115905761719" fill="rgb(0, 0, 0)" opacity="0.6942963" stroke="rgb(9, 204, 62)" stroke-linecap="round" stroke-linejoin="round" stroke-opacity="0.9754387" stroke-width="0.0"/>
    <path d="M 200.23123168945312 477.5693664550781 C 188.9561767578125 446.1260681152344 184.76611328125 432.8939208984375 181.70350646972656 465.6849060058594 C 193.85914611816406 462.3153381347656 191.52708435058594 463.5955810546875 182.58932495117188 463.4006042480469 C 183.5984649658203 434.8119201660156 179.97593688964844 424.1522216796875 176.3833770751953 460.97418212890625 C 186.5205841064453 466.5773620605469 183.57699584960938 481.63775634765625 200.23123168945312 477.5693664550781" fill="rgb(93, 148, 164)" opacity="0.93201345" stroke="rgb(189, 105, 112)" stroke-linecap="round" stroke-linejoin="round" stroke-opacity="0.796068" stroke-width="0.0"/>
    <path d="M 423.21099853515625 357.88092041015625 C 406.5386047363281 393.010498046875 384.6038818359375 395.1566467285156 369.5224304199219 387.83599853515625 C 381.4454345703125 381.63848876953125 376.421875 376.5614318847656 377.8291320800781 371.5128173828125 C 381.6769104003906 374.0830993652344 376.8012390136719 372.8269348144531 368.30908203125 356.8983459472656 C 415.4786376953125 348.79931640625 424.2943420410156 349.6440734863281 423.21099853515625 357.88092041015625" fill="rgb(39, 0, 34)" opacity="0.99319065" stroke="rgb(163, 6, 247)" stroke-linecap="round" stroke-linejoin="round" stroke-opacity="0.3158491" stroke-width="0.0"/>
    <path d="M 359.68646240234375 390.6084289550781 C 359.59906005859375 368.2201232910156 357.7035827636719 375.7026672363281 359.7774963378906 385.0065612792969 C 360.4859924316406 376.5925598144531 356.90875244140625 377.985595703125 365.9839172363281 391.14715576171875 C 360.2345275878906 357.4712829589844 368.6439208984375 376.6099548339844 375.47137451171875 354.4465637207031 C 349.134521484375 356.4989318847656 363.169189453125 384.59619140625 359.68646240234375 390.6084289550781" fill="rgb(0, 4, 54)" opacity="0.29686123" stroke="rgb(73, 183, 156)" stroke-linecap="round" stroke-linejoin="round" stroke-opacity="0.38655186" stroke-width="0.0"/>
    <path d="M 365.1745910644531 383.727294921875 C 364.9562683105469 382.16668701171875 374.1536560058594 392.0425109863281 378.4588317871094 377.5315246582031 C 379.9653015136719 362.6343078613281 379.0809020996094 381.849365234375 369.53387451171875 388.28704833984375 C 383.3569030761719 391.500732421875 394.40606689453125 397.5190734863281 366.6536560058594 388.0420227050781 C 359.87896728515625 392.02508544921875 373.5596618652344 388.2999267578125 365.1745910644531 383.727294921875" fill="rgb(146, 121, 128)" opacity="0.551912" stroke="rgb(202, 195, 209)" stroke-linecap="round" stroke-linejoin="round" stroke-opacity="0.90098315" stroke-width="0.0"/>
    <path d="M 280.3572082519531 438.5218505859375 C 273.91766357421875 430.8455810546875 279.3359375 435.4835510253906 316.10357666015625 437.8458557128906 C 283.0209655761719 429.98077392578125 265.3835754394531 431.60772705078125 282.05401611328125 438.69451904296875 C 282.12799072265625 437.6836853027344 280.6365661621094 438.5187683105469 276.1944274902344 433.5566711425781 C 278.3269348144531 436.7607421875 280.4820861816406 433.825927734375 280.3572082519531 438.5218505859375" fill="rgb(228, 218, 108)" opacity="0.51166373" stroke="rgb(160, 94, 164)" stroke-linecap="round" stroke-linejoin="round" stroke-opacity="0.71143514" stroke-width="0.0"/>
    <path d="M 288.3110656738281 360.3244323730469 C 264.4790954589844 333.8061828613281 269.6239013671875 363.00030517578125 270.806640625 364.8565979003906 C 271.2701110839844 362.8231201171875 255.3064422607422 367.174560546875 257.0778503417969 366.3936462402344 C 256.52734375 369.07611083984375 264.4568176269531 359.2850036621094 216.08689880371094 383.0560302734375 C 227.35328674316406 378.06500244140625 250.43618774414062 371.8617248535156 288.3110656738281 360.3244323730469" fill="rgb(251, 255, 250)" opacity="0.6468802" stroke="rgb(121, 154, 199)" stroke-linecap="round" stroke-linejoin="round" stroke-opacity="0.75525033" stroke-width="0.0"/>
    <path d="M 602.7161865234375 474.4278869628906 C 604.8795166015625 466.1901550292969 601.6834106445312 471.9522705078125 595.6082153320312 472.60894775390625 C 594.8165283203125 477.2201843261719 593.6522827148438 471.5462951660156 586.2518310546875 465.25994873046875 C 587.2466430664062 458.56109619140625 588.0618896484375 460.8356628417969 598.3372192382812 460.7402038574219 C 613.3661499023438 476.172607421875 596.2171630859375 458.14910888671875 602.7161865234375 474.4278869628906" fill="rgb(91, 143, 163)" opacity="0.35502854" stroke="rgb(29, 216, 60)" stroke-linecap="round" stroke-linejoin="round" stroke-opacity="0.4142938" stroke-width="0.0"/>
    <path d="M 641.4824829101562 382.0454406738281 C 620.8861083984375 389.4293212890625 630.071533203125 394.45697021484375 611.7114868164062 400.5595703125 C 630.796875 387.4183654785156 625.9095458984375 383.1597595214844 615.5654907226562 398.89031982421875 C 612.4545288085938 388.475830078125 621.3892211914062 391.7040710449219 624.6359252929688 380.23406982421875 C 622.3912353515625 391.642333984375 622.31201171875 385.5047302246094 641.4824829101562 382.0454406738281" fill="rgb(101, 152, 174)" opacity="0.37715107" stroke="rgb(162, 43, 178)" stroke-linecap="round" stroke-linejoin="round" stroke-opacity="0.5782795" stroke-width="0.0"/>
    <path d="M 592.3989868164062 757.1185302734375 C 544.2222900390625 765.8092651367188 546.7032470703125 760.343017578125 533.7804565429688 763.9071655273438 C 542.0528564453125 766.0958862304688 535.1864624023438 764.3058471679688 517.9979248046875 757.5828857421875 C 528.1454467773438 748.1221923828125 533.9093017578125 752.2435913085938 539.4444580078125 749.095703125 C 540.9209594726562 760.5381469726562 549.8556518554688 745.5289916992188 592.3989868164062 757.1185302734375" fill="rgb(50, 6, 52)" opacity="0.93393016" stroke="rgb(1, 201, 247)" stroke-linecap="round" stroke-linejoin="round" stroke-opacity="0.44212517" stroke-width="0.0"/>
    <path d="M 591.6849365234375 314.12652587890625 C 600.5515747070312 311.7099304199219 593.226806640625 312.3772888183594 592.4945068359375 319.2616882324219 C 586.8683471679688 321.60791015625 587.3693237304688 315.380126953125 591.2824096679688 310.81329345703125 C 586.4950561523438 313.9573059082031 589.2528686523438 307.06317138671875 591.149658203125 305.2529602050781 C 595.43798828125 304.63665771484375 594.8442993164062 312.9031066894531 591.6849365234375 314.12652587890625" fill="rgb(97, 150, 170)" opacity="0.70845056" stroke="rgb(61, 181, 164)" stroke-linecap="round" stroke-linejoin="round" stroke-opacity="0.7479025" stroke-width="0.0"/>
    <path d="M 465.54986572265625 206.3484344482422 C 462.2783203125 201.51956176757812 460.1490783691406 200.1939697265625 461.494140625 207.58697509765625 C 456.3171691894531 207.7876739501953 456.0564880371094 206.2960662841797 453.706787109375 199.8431396484375 C 456.7149353027344 201.41790771484375 460.29864501953125 195.9373779296875 456.1006774902344 190.01271057128906 C 464.01129150390625 194.2237548828125 465.0438232421875 192.8099822998047 465.54986572265625 206.3484344482422" fill="rgb(97, 147, 167)" opacity="0.5947062" stroke="rgb(66, 200, 177)" stroke-linecap="round" stroke-linejoin="round" stroke-opacity="0.09595889" stroke-width="0.0"/>
    <path d="M 540.0751953125 691.513427734375 C 542.8098754882812 692.634521484375 541.3319702148438 696.0108642578125 539.5535888671875 702.7904052734375 C 531.2623901367188 698.6133422851562 536.5179443359375 694.8042602539062 532.971435546875 689.611328125 C 530.213623046875 682.9552612304688 535.1152954101562 680.3173828125 538.365966796875 688.8065795898438 C 540.9683837890625 689.4743041992188 544.1280517578125 689.515625 540.0751953125 691.513427734375" fill="rgb(50, 7, 50)" opacity="0.8989724" stroke="rgb(25, 238, 26)" stroke-linecap="round" stroke-linejoin="round" stroke-opacity="0.93469447" stroke-width="0.0"/>
    <path d="M 117.52066040039062 12.228557586669922 C 103.94816589355469 12.981269836425781 103.70721435546875 13.100658416748047 115.56053161621094 17.842388153076172 C 102.9215087890625 12.183201789855957 110.91631317138672 17.31599998474121 102.72672271728516 10.98542594909668 C 110.67682647705078 20.53748321533203 93.14334869384766 38.407955169677734 43.75962829589844 0.3244852125644684 C 135.44955444335938 -12.341041564941406 125.28701782226562 -4.327742099761963 117.52066040039062 12.228557586669922" fill="rgb(103, 147, 165)" opacity="0.482623" stroke="rgb(51, 217, 193)" stroke-linecap="round" stroke-linejoin="round" stroke-opacity="0.0946266" stroke-width="0.0"/>
    <path d="M 582.086669921875 708.1371459960938 C 578.6607055664062 706.3810424804688 573.375732421875 709.966796875 578.5287475585938 720.6215209960938 C 567.9215698242188 706.5956420898438 567.7973022460938 717.6259155273438 558.9556274414062 708.1465454101562 C 570.18505859375 694.50537109375 569.1774291992188 698.30908203125 576.8838500976562 700.7438354492188 C 570.176513671875 703.9844970703125 575.1917724609375 707.9772338867188 582.086669921875 708.1371459960938" fill="rgb(53, 6, 54)" opacity="0.75790656" stroke="rgb(244, 66, 104)" stroke-linecap="round" stroke-linejoin="round" stroke-opacity="0.82406" stroke-width="0.0"/>
    <path d="M 126.49491119384766 340.0962829589844 C 128.05743408203125 345.0067138671875 126.11779022216797 345.824462890625 122.230712890625 345.43707275390625 C 123.8590316772461 340.6032409667969 119.81902313232422 347.03228759765625 114.49038696289062 340.9681091308594 C 122.3688735961914 333.8148498535156 117.09873962402344 338.14569091796875 123.36986541748047 337.4914245605469 C 126.25023651123047 334.79461669921875 128.05116271972656 337.1522216796875 126.49491119384766 340.0962829589844" fill="rgb(98, 150, 169)" opacity="0.90395945" stroke="rgb(155, 189, 250)" stroke-linecap="round" stroke-linejoin="round" stroke-opacity="0.2523355" stroke-width="0.0"/>
    <path d="M 249.98385620117188 731.4992065429688 C 262.7998046875 784.322021484375 281.7354431152344 776.3240966796875 242.8352508544922 779.7327270507812 C 191.67294311523438 780.268310546875 172.41188049316406 797.04931640625 157.0706787109375 757.6702880859375 C 167.80096435546875 687.8505859375 189.83236694335938 677.4205322265625 195.26519775390625 686.9915161132812 C 231.0531005859375 768.0992431640625 232.67491149902344 746.376708984375 249.98385620117188 731.4992065429688" fill="rgb(95, 146, 166)" opacity="0.9537902" stroke="rgb(195, 145, 94)" stroke-linecap="round" stroke-linejoin="round" stroke-opacity="0.8039385" stroke-width="0.0"/>
    <path d="M 715.9743041992188 30.60347557067871 C 704.9650268554688 68.77684783935547 679.8507080078125 74.06243896484375 596.447509765625 116.82941436767578 C 580.6470947265625 57.541988372802734 616.326171875 53.28907775878906 627.8103637695312 33.55728530883789 C 635.8306884765625 39.75087356567383 631.93310546875 39.87586212158203 632.5359497070312 27.94550895690918 C 636.7404174804688 30.673137664794922 640.5020141601562 28.278841018676758 715.9743041992188 30.60347557067871" fill="rgb(97, 149, 169)" opacity="0.5394365" stroke="rgb(22, 90, 161)" stroke-linecap="round" stroke-linejoin="round" stroke-opacity="0.9688631" stroke-width="0.0"/>
    <path d="M 146.690673828125 149.5189971923828 C 139.2725372314453 158.82579040527344 139.135986328125 160.7431640625 127.93224334716797 164.7576904296875 C 137.5669708251953 157.78448486328125 129.76223754882812 163.67083740234375 137.08753967285156 150.82089233398438 C 123.15457153320312 154.65884399414062 127.98759460449219 154.94992065429688 146.2249755859375 148.53565979003906 C 133.6258087158203 154.32850646972656 136.5850830078125 153.7855987548828 146.690673828125 149.5189971923828" fill="rgb(99, 149, 170)" opacity="0.6207598" stroke="rgb(149, 200, 242)" stroke-linecap="round" stroke-linejoin="round" stroke-opacity="0.13011344" stroke-width="0.0"/>
    <path d="M 66.82154846191406 484.9728698730469 C 71.89341735839844 494.74359130859375 63.486549377441406 488.172119140625 68.69834899902344 494.8218688964844 C 61.65977478027344 493.466552734375 60.650634765625 488.448486328125 59.55704879760742 481.18939208984375 C 34.85895919799805 482.30792236328125 26.0582218170166 472.3554992675781 40.42433547973633 462.9927062988281 C 76.02236938476562 477.0385437011719 74.40746307373047 471.29144287109375 66.82154846191406 484.9728698730469" fill="rgb(96, 148, 167)" opacity="0.8892417" stroke="rgb(75, 91, 86)" stroke-linecap="round" stroke-linejoin="round" stroke-opacity="0.4801437" stroke-width="0.0"/>
    <path d="M 376.9857482910156 439.7169189453125 C 336.9845886230469 419.7969970703125 345.0992126464844 456.1976318359375 354.6856994628906 447.8366394042969 C 353.7434387207031 430.9107360839844 348.20977783203125 432.1665344238281 345.6522216796875 446.9817199707031 C 314.31982421875 435.3137512207031 315.6133728027344 433.2393493652344 322.766357421875 431.2570495605469 C 364.3623962402344 433.89215087890625 378.35369873046875 430.5433654785156 376.9857482910156 439.7169189453125" fill="rgb(19, 75, 101)" opacity="0.92462325" stroke="rgb(232, 66, 226)" stroke-linecap="round" stroke-linejoin="round" stroke-opacity="0.5689348" stroke-width="0.0"/>
    <path d="M 541.1177368164062 620.8143920898438 C 535.3902587890625 626.44384765625 556.1265258789062 623.754150390625 540.066650390625 637.5292358398438 C 528.239013671875 622.6024780273438 529.3234252929688 626.7412719726562 522.5294189453125 619.99365234375 C 528.4429321289062 608.3553466796875 524.7205810546875 610.2870483398438 538.548095703125 611.5458374023438 C 532.8849487304688 618.8252563476562 534.1683349609375 620.6939086914062 541.1177368164062 620.8143920898438" fill="rgb(53, 6, 53)" opacity="0.8637205" stroke="rgb(154, 208, 17)" stroke-linecap="round" stroke-linejoin="round" stroke-opacity="0.95171696" stroke-width="0.0"/>
    <path d="M 482.7478332519531 179.10968017578125 C 463.5442199707031 163.31903076171875 465.11712646484375 166.0010223388672 487.1235656738281 182.9838104248047 C 462.1300964355469 173.83106994628906 471.52154541015625 168.9387664794922 456.7587890625 158.11981201171875 C 466.597900390625 164.39830017089844 473.9555969238281 161.7105255126953 467.5972900390625 149.05758666992188 C 466.7044982910156 165.41455078125 478.48126220703125 151.38917541503906 482.7478332519531 179.10968017578125" fill="rgb(97, 150, 171)" opacity="0.6776802" stroke="rgb(6, 4, 205)" stroke-linecap="round" stroke-linejoin="round" stroke-opacity="0.6982334" stroke-width="0.0"/>
    <path d="M 119.53770446777344 234.80288696289062 C 89.37741088867188 253.6476593017578 74.04899597167969 244.19970703125 87.26375579833984 225.72671508789062 C 73.96058654785156 220.880615234375 82.51362609863281 223.05899047851562 68.04674530029297 215.88671875 C 83.11338806152344 210.37632751464844 71.34996795654297 207.4101104736328 85.06841278076172 187.37213134765625 C 95.83037567138672 204.29995727539062 94.95675659179688 203.99359130859375 119.53770446777344 234.80288696289062" fill="rgb(97, 150, 170)" opacity="0.5534378" stroke="rgb(13, 237, 205)" stroke-linecap="round" stroke-linejoin="round" stroke-opacity="0.5818342" stroke-width="0.0"/>
    <path d="M 398.7107238769531 384.7925720214844 C 375.21527099609375 384.6541748046875 384.3921203613281 384.2576599121094 385.4186706542969 387.99945068359375 C 377.5393981933594 387.9996337890625 383.9678039550781 388.0013427734375 376.0730895996094 387.99859619140625 C 375.0521240234375 382.23797607421875 383.88580322265625 388.97027587890625 381.6878967285156 370.8624572753906 C 384.8849792480469 386.5749206542969 385.8263244628906 377.0196533203125 398.7107238769531 384.7925720214844" fill="rgb(42, 0, 38)" opacity="0.91136694" stroke="rgb(70, 173, 230)" stroke-linecap="round" stroke-linejoin="round" stroke-opacity="0.8798826" stroke-width="0.0"/>
    <path d="M 122.55266571044922 157.38938903808594 C 120.49314880371094 165.96080017089844 117.1147232055664 158.24761962890625 116.48087310791016 169.80416870117188 C 110.0540771484375 160.0145721435547 115.04212188720703 163.41851806640625 108.2852783203125 155.7111358642578 C 113.45977783203125 156.94529724121094 112.93543243408203 154.3975067138672 117.83497619628906 153.39117431640625 C 120.02359008789062 153.61802673339844 122.1566162109375 155.52084350585938 122.55266571044922 157.38938903808594" fill="rgb(96, 149, 168)" opacity="0.70918643" stroke="rgb(208, 124, 83)" stroke-linecap="round" stroke-linejoin="round" stroke-opacity="0.730382" stroke-width="0.0"/>
    <path d="M 598.4612426757812 484.6383972167969 C 597.9550170898438 484.50299072265625 594.2024536132812 488.2942810058594 593.76123046875 490.831787109375 C 594.885009765625 487.63739013671875 587.5787353515625 485.4075927734375 588.1196899414062 480.75775146484375 C 598.177001953125 486.58966064453125 599.5189208984375 485.21258544921875 588.423095703125 480.6913146972656 C 598.4649658203125 475.7370300292969 592.3123779296875 482.8251953125 598.4612426757812 484.6383972167969" fill="rgb(100, 151, 174)" opacity="0.55501634" stroke="rgb(113, 96, 155)" stroke-linecap="round" stroke-linejoin="round" stroke-opacity="0.8015438" stroke-width="0.0"/>
    <path d="M 762.7373657226562 390.5583190917969 C 737.5490112304688 219.19000244140625 765.45849609375 161.30548095703125 751.6956787109375 143.32284545898438 C 738.701171875 138.9722137451172 749.1404418945312 140.06361389160156 731.2681274414062 156.2532958984375 C 779.3663330078125 111.8560791015625 730.3358764648438 68.66373443603516 762.73046875 -39.6904296875 C 762.6760864257812 57.528541564941406 762.78369140625 100.45367431640625 762.7373657226562 390.5583190917969" fill="rgb(92, 146, 166)" opacity="1.0" stroke="rgb(9, 179, 192)" stroke-linecap="round" stroke-linejoin="round" stroke-opacity="0.73051995" stroke-width="0.0"/>
    <path d="M 420.76446533203125 618.6442260742188 C 409.2997131347656 618.3663330078125 410.0838623046875 618.5745239257812 413.85040283203125 627.833984375 C 408.7292175292969 617.3034057617188 409.0205993652344 623.404052734375 400.10394287109375 623.5648803710938 C 413.009033203125 617.1114501953125 404.0325927734375 617.7747802734375 411.0604248046875 607.1480712890625 C 424.9032287597656 610.8984375 418.75811767578125 608.1088256835938 420.76446533203125 618.6442260742188" fill="rgb(50, 5, 48)" opacity="0.89701694" stroke="rgb(12, 241, 9)" stroke-linecap="round" stroke-linejoin="round" stroke-opacity="0.6951893" stroke-width="0.0"/>
    <path d="M 641.6322631835938 15.164993286132812 C 636.6178588867188 16.85635757446289 635.6990356445312 18.078500747680664 637.544921875 13.983588218688965 C 631.1323852539062 16.741676330566406 634.4334716796875 9.757217407226562 630.275146484375 8.987039566040039 C 630.29443359375 14.442152976989746 633.9949951171875 11.818925857543945 633.3096923828125 9.20285701751709 C 640.5260009765625 9.156108856201172 634.654296875 9.675219535827637 641.6322631835938 15.164993286132812" fill="rgb(98, 149, 166)" opacity="0.71984833" stroke="rgb(148, 123, 43)" stroke-linecap="round" stroke-linejoin="round" stroke-opacity="0.40124664" stroke-width="0.0"/>
    <path d="M 764.6087646484375 719.0414428710938 C 743.5870971679688 700.3104858398438 743.324951171875 694.92919921875 744.8927612304688 720.7810668945312 C 756.69775390625 709.6511840820312 741.3489990234375 705.6310424804688 731.6168823242188 699.6883544921875 C 730.1556396484375 692.6737670898438 736.4917602539062 690.9440307617188 749.0316162109375 693.3612670898438 C 750.1654052734375 698.9693603515625 756.9671020507812 687.774169921875 764.6087646484375 719.0414428710938" fill="rgb(52, 4, 52)" opacity="0.874128" stroke="rgb(213, 167, 156)" stroke-linecap="round" stroke-linejoin="round" stroke-opacity="0.7575792" stroke-width="0.0"/>
    <path d="M 744.8758544921875 499.15692138671875 C 739.9598388671875 508.8129577636719 731.6343994140625 504.67510986328125 750.7236938476562 512.1477661132812 C 723.5276489257812 513.00244140625 731.6488647460938 514.5009155273438 711.9739990234375 493.3869323730469 C 733.0343017578125 492.09832763671875 737.1956787109375 495.4438781738281 734.3289794921875 500.61346435546875 C 742.9364624023438 495.9334411621094 734.460205078125 505.2737731933594 744.8758544921875 499.15692138671875" fill="rgb(94, 145, 164)" opacity="0.43237138" stroke="rgb(235, 69, 118)" stroke-linecap="round" stroke-linejoin="round" stroke-opacity="0.17410101" stroke-width="0.0"/>
    <path d="M 204.0193634033203 656.502685546875 C 181.3870849609375 773.3462524414062 185.64686584472656 780.854736328125 24.868345260620117 788.0886840820312 C -7.819777011871338 862.214111328125 5.330478191375732 975.849853515625 2.9486336708068848 236.66441345214844 C 80.89405822753906 474.76580810546875 4.63358736038208 565.3683471679688 57.54133224487305 634.9766845703125 C 176.527587890625 685.8424072265625 200.20582580566406 659.0245971679688 204.0193634033203 656.502685546875" fill="rgb(101, 148, 167)" opacity="0.9688306" stroke="rgb(174, 106, 71)" stroke-linecap="round" stroke-linejoin="round" stroke-opacity="0.83334565" stroke-width="0.0"/>
    <path d="M 405.99407958984375 654.9785766601562 C 399.1455078125 660.41162109375 406.6177673339844 654.4454345703125 396.07904052734375 663.5025634765625 C 407.1220397949219 654.32177734375 399.6095886230469 655.5310668945312 384.2962341308594 659.0621337890625 C 392.6011962890625 651.1460571289062 395.649658203125 652.673828125 399.1423645019531 653.008544921875 C 400.28057861328125 654.6530151367188 401.5002746582031 655.1329956054688 405.99407958984375 654.9785766601562" fill="rgb(52, 6, 53)" opacity="0.9035106" stroke="rgb(215, 163, 5)" stroke-linecap="round" stroke-linejoin="round" stroke-opacity="0.4411598" stroke-width="0.0"/>
    <path d="M 363.6274108886719 378.1048278808594 C 362.1083679199219 368.1207275390625 362.9614562988281 377.2523193359375 363.6976013183594 372.8835754394531 C 364.1044921875 376.62249755859375 361.55902099609375 370.5010070800781 362.5838623046875 374.66851806640625 C 368.3445129394531 387.287353515625 368.7220764160156 388.4188232421875 364.04437255859375 382.0401611328125 C 360.5649719238281 374.99456787109375 363.3211669921875 373.78106689453125 363.6274108886719 378.1048278808594" fill="rgb(129, 151, 143)" opacity="0.55213785" stroke="rgb(201, 74, 187)" stroke-linecap="round" stroke-linejoin="round" stroke-opacity="0.48942572" stroke-width="0.0"/>
    <path d="M 529.9346923828125 599.62744140625 C 525.3755493164062 597.8966674804688 533.725341796875 595.2220458984375 501.4623718261719 572.0089721679688 C 535.7987060546875 589.4529418945312 523.9550170898438 609.6328125 527.3117065429688 563.9871826171875 C 528.6166381835938 613.3716430664062 525.2417602539062 600.04150390625 528.1422119140625 546.03076171875 C 527.3517456054688 556.3489990234375 530.9044799804688 564.7899169921875 529.9346923828125 599.62744140625" fill="rgb(247, 252, 253)" opacity="0.9033208" stroke="rgb(12, 157, 219)" stroke-linecap="round" stroke-linejoin="round" stroke-opacity="0.7558568" stroke-width="0.0"/>
    <path d="M 540.1712646484375 745.7765502929688 C 513.8925170898438 751.7448120117188 529.0078735351562 750.2068481445312 521.0020141601562 758.4263305664062 C 513.6859130859375 761.9973754882812 515.884765625 753.6514282226562 520.0043334960938 752.9072265625 C 518.8373413085938 749.8847045898438 514.597900390625 743.37158203125 519.0452270507812 730.7276611328125 C 521.482421875 750.1268920898438 520.2286376953125 742.3789672851562 540.1712646484375 745.7765502929688" fill="rgb(52, 6, 55)" opacity="0.8476602" stroke="rgb(141, 114, 231)" stroke-linecap="round" stroke-linejoin="round" stroke-opacity="0.60202366" stroke-width="0.0"/>
    <path d="M 433.00799560546875 699.8693237304688 C 431.05291748046875 697.5980224609375 426.0298767089844 699.5389404296875 428.1435546875 714.3863525390625 C 432.2813720703125 701.5325927734375 414.7987060546875 709.1608276367188 411.8608093261719 697.048583984375 C 416.9620056152344 681.2647094726562 421.61041259765625 686.6634521484375 431.60540771484375 694.4127197265625 C 423.4539794921875 694.8275756835938 427.2207946777344 694.0104370117188 433.00799560546875 699.8693237304688" fill="rgb(53, 6, 54)" opacity="0.8590047" stroke="rgb(131, 34, 206)" stroke-linecap="round" stroke-linejoin="round" stroke-opacity="0.738122" stroke-width="0.0"/>
    <path d="M 139.49510192871094 243.724853515625 C 127.68698120117188 257.3373718261719 124.73519897460938 252.81370544433594 121.93248748779297 235.95909118652344 C 120.31682586669922 249.5010986328125 122.15823364257812 244.70411682128906 111.9233169555664 238.62063598632812 C 128.86410522460938 240.0198211669922 121.03704071044922 239.73654174804688 94.27961730957031 200.53518676757812 C 140.28067016601562 211.81741333007812 116.39335632324219 233.68882751464844 139.49510192871094 243.724853515625" fill="rgb(94, 148, 170)" opacity="0.46387464" stroke="rgb(147, 86, 208)" stroke-linecap="round" stroke-linejoin="round" stroke-opacity="0.3549631" stroke-width="0.0"/>
    <path d="M 341.4114990234375 129.58596801757812 C 349.0658874511719 104.73387908935547 340.947998046875 110.81441497802734 330.6027526855469 118.33100128173828 C 335.9162292480469 111.15107727050781 329.04833984375 105.54573822021484 320.2896728515625 118.19615936279297 C 324.6492919921875 103.78314971923828 328.3572082519531 109.9858627319336 335.172119140625 94.55708312988281 C 336.4743957519531 111.61363983154297 342.7301025390625 98.1091537475586 341.4114990234375 129.58596801757812" fill="rgb(96, 146, 165)" opacity="0.543886" stroke="rgb(225, 230, 144)" stroke-linecap="round" stroke-linejoin="round" stroke-opacity="0.4895661" stroke-width="0.0"/>
    <path d="M 369.23870849609375 82.27659606933594 C 378.4190368652344 94.64661407470703 384.2153015136719 110.81562042236328 366.1634216308594 112.01138305664062 C 372.6269836425781 82.26317596435547 365.07098388671875 80.52262115478516 358.1423645019531 82.5782699584961 C 371.055419921875 79.23643493652344 356.339599609375 73.9559326171875 383.81158447265625 62.403873443603516 C 378.8853454589844 93.53555297851562 379.8034973144531 75.1070327758789 369.23870849609375 82.27659606933594" fill="rgb(98, 153, 175)" opacity="0.33660215" stroke="rgb(48, 69, 229)" stroke-linecap="round" stroke-linejoin="round" stroke-opacity="0.45647445" stroke-width="0.0"/>
    <path d="M 190.64932250976562 187.4593505859375 C 189.13735961914062 185.4805908203125 189.83558654785156 190.4263916015625 186.2724151611328 192.7819061279297 C 187.80128479003906 191.16453552246094 184.81307983398438 188.23416137695312 176.13638305664062 186.04844665527344 C 184.70797729492188 187.9418487548828 186.89503479003906 184.70184326171875 179.7071533203125 174.11825561523438 C 191.45730590820312 181.0550537109375 192.4373321533203 185.3458709716797 190.64932250976562 187.4593505859375" fill="rgb(99, 150, 171)" opacity="0.6925541" stroke="rgb(200, 124, 31)" stroke-linecap="round" stroke-linejoin="round" stroke-opacity="0.46860373" stroke-width="0.0"/>
    <path d="M 760.56005859375 135.2330322265625 C 761.6802368164062 124.24393463134766 758.5737915039062 127.36734008789062 758.3944702148438 133.4484100341797 C 758.0555419921875 133.20521545410156 755.4646606445312 130.80523681640625 759.1040649414062 129.64759826660156 C 764.1141967773438 105.10688781738281 762.8682861328125 105.27729797363281 762.784423828125 151.99636840820312 C 759.3549194335938 122.458740234375 757.3218383789062 133.3501739501953 760.56005859375 135.2330322265625" fill="rgb(84, 140, 160)" opacity="0.95334834" stroke="rgb(189, 168, 21)" stroke-linecap="round" stroke-linejoin="round" stroke-opacity="0.24374104" stroke-width="0.0"/>
    <path d="M 439.3392028808594 699.0335083007812 C 450.79522705078125 692.1353149414062 448.7332763671875 699.5584716796875 446.37841796875 702.4028930664062 C 430.8805847167969 701.1400756835938 433.2498474121094 703.9378662109375 433.3789367675781 697.4158325195312 C 438.5364990234375 691.76318359375 441.01129150390625 689.2957763671875 438.1866760253906 695.8545532226562 C 442.4735107421875 693.0947875976562 442.08056640625 694.6597290039062 439.3392028808594 699.0335083007812" fill="rgb(52, 5, 53)" opacity="0.89966214" stroke="rgb(251, 186, 83)" stroke-linecap="round" stroke-linejoin="round" stroke-opacity="0.36514845" stroke-width="0.0"/>
    <path d="M 762.78955078125 510.7686767578125 C 761.5486450195312 631.9469604492188 765.9034423828125 669.7696533203125 757.0149536132812 607.3193359375 C 742.384765625 490.35430908203125 751.300537109375 471.1278991699219 752.6538696289062 490.6316833496094 C 740.4705200195312 466.8489685058594 761.6170043945312 470.5567932128906 750.6078491210938 338.6697692871094 C 766.4923095703125 345.7179260253906 761.8335571289062 390.1041259765625 762.78955078125 510.7686767578125" fill="rgb(93, 146, 167)" opacity="1.0" stroke="rgb(47, 186, 151)" stroke-linecap="round" stroke-linejoin="round" stroke-opacity="0.7757877" stroke-width="0.0"/>
    <path d="M 423.875244140625 19.456249237060547 C 430.2398986816406 22.407854080200195 425.6045227050781 32.36882400512695 419.0464782714844 35.3676872253418 C 417.1901550292969 14.65316390991211 405.4051513671875 46.78080368041992 381.55126953125 13.493437767028809 C 397.91314697265625 -15.832785606384277 400.71826171875 -1.649308443069458 491.2389831542969 1.851022481918335 C 447.0325012207031 31.89069366455078 426.0501708984375 43.89583206176758 423.875244140625 19.456249237060547" fill="rgb(91, 145, 166)" opacity="0.24414954" stroke="rgb(79, 33, 154)" stroke-linecap="round" stroke-linejoin="round" stroke-opacity="0.22325519" stroke-width="0.0"/>
    <path d="M 446.4367980957031 440.0111999511719 C 432.07269287109375 450.2817687988281 442.702392578125 451.1441650390625 407.3210754394531 503.2541198730469 C 332.4258117675781 484.13372802734375 334.09344482421875 486.0023193359375 404.1490173339844 426.86602783203125 C 414.9227600097656 434.4338073730469 412.5567626953125 436.24908447265625 401.3202819824219 423.33001708984375 C 438.34088134765625 414.6587219238281 428.88323974609375 433.6280212402344 446.4367980957031 440.0111999511719" fill="rgb(216, 225, 237)" opacity="0.9990375" stroke="rgb(60, 236, 224)" stroke-linecap="round" stroke-linejoin="round" stroke-opacity="0.2918937" stroke-width="0.0"/>
    <path d="M 692.1292724609375 216.9835662841797 C 691.2078247070312 220.73939514160156 688.66748046875 222.1492462158203 686.4713745117188 217.7060089111328 C 687.5264282226562 223.60877990722656 682.8499755859375 219.12530517578125 680.1596069335938 215.9861297607422 C 683.0263671875 213.5471649169922 679.9019775390625 210.41172790527344 685.8426513671875 213.7366485595703 C 688.2140502929688 212.06356811523438 688.6204223632812 217.97840881347656 692.1292724609375 216.9835662841797" fill="rgb(100, 149, 168)" opacity="0.7935929" stroke="rgb(172, 135, 173)" stroke-linecap="round" stroke-linejoin="round" stroke-opacity="0.023386307" stroke-width="0.0"/>
    <path d="M 516.9134521484375 456.1007080078125 C 507.7751159667969 473.4515075683594 505.1533508300781 465.7569885253906 487.3603515625 462.22076416015625 C 490.254638671875 487.6637268066406 479.5546875 510.9279479980469 407.3955383300781 438.9120178222656 C 436.64141845703125 361.43206787109375 465.2184143066406 406.009521484375 494.00982666015625 437.9801025390625 C 499.4877014160156 445.8647766113281 500.5754699707031 437.7327880859375 516.9134521484375 456.1007080078125" fill="rgb(216, 225, 237)" opacity="1.0" stroke="rgb(120, 136, 111)" stroke-linecap="round" stroke-linejoin="round" stroke-opacity="0.010133673" stroke-width="0.0"/>
    <path d="M 212.6829071044922 81.70309448242188 C 208.90956115722656 101.32927703857422 202.61380004882812 100.34403991699219 198.45938110351562 83.03134155273438 C 195.32994079589844 89.64022827148438 198.43231201171875 84.06986999511719 177.80990600585938 79.3877182006836 C 188.80429077148438 73.5771484375 181.83285522460938 74.96286010742188 186.11871337890625 47.099647521972656 C 223.1622314453125 62.31386184692383 225.8031463623047 73.24354553222656 212.6829071044922 81.70309448242188" fill="rgb(77, 148, 173)" opacity="0.11085877" stroke="rgb(44, 135, 254)" stroke-linecap="round" stroke-linejoin="round" stroke-opacity="0.1264931" stroke-width="0.0"/>
    <path d="M 203.5618896484375 255.2021484375 C 195.79420471191406 246.32452392578125 195.90716552734375 249.06214904785156 200.10768127441406 259.5746154785156 C 197.11712646484375 251.76805114746094 192.23109436035156 249.6434326171875 190.9258270263672 254.2836456298828 C 202.35386657714844 248.5795440673828 191.89871215820312 249.5091552734375 201.5234832763672 245.0264129638672 C 192.97267150878906 244.66116333007812 199.9641571044922 247.045654296875 203.5618896484375 255.2021484375" fill="rgb(105, 157, 175)" opacity="0.4201122" stroke="rgb(146, 18, 36)" stroke-linecap="round" stroke-linejoin="round" stroke-opacity="0.22661033" stroke-width="0.0"/>
    <path d="M 672.3680419921875 268.2194519042969 C 665.7733154296875 266.8217468261719 667.7128295898438 272.5996398925781 665.4784545898438 281.8988037109375 C 664.9462890625 277.26971435546875 645.8336791992188 295.1280822753906 650.45849609375 263.17120361328125 C 657.4027709960938 245.90274047851562 672.1605224609375 256.45672607421875 661.2021484375 270.0650939941406 C 668.102294921875 265.4166259765625 670.0388793945312 267.32080078125 672.3680419921875 268.2194519042969" fill="rgb(89, 142, 165)" opacity="0.1969954" stroke="rgb(53, 73, 232)" stroke-linecap="round" stroke-linejoin="round" stroke-opacity="0.012905164" stroke-width="0.0"/>
    <path d="M 572.7901611328125 748.7998046875 C 558.7711181640625 747.0098266601562 557.182373046875 747.3369750976562 552.1234741210938 745.8641967773438 C 548.7609252929688 748.0661010742188 547.6270141601562 745.9706420898438 547.5252685546875 739.8115844726562 C 539.5769653320312 733.7913208007812 545.6202392578125 737.2986450195312 551.4393310546875 737.9146728515625 C 556.3751831054688 733.4188232421875 570.3948364257812 733.0023193359375 572.7901611328125 748.7998046875" fill="rgb(53, 5, 52)" opacity="0.89152193" stroke="rgb(132, 194, 123)" stroke-linecap="round" stroke-linejoin="round" stroke-opacity="0.13744587" stroke-width="0.0"/>
    <path d="M 258.8727722167969 636.37353515625 C 265.0052490234375 624.96630859375 234.38133239746094 670.8629150390625 257.06292724609375 750.8528442382812 C 229.1148223876953 671.447509765625 267.5149230957031 625.900390625 253.4666748046875 636.1582641601562 C 264.4785461425781 631.2608642578125 248.47860717773438 641.1047973632812 280.6291198730469 596.4636840820312 C 266.5508728027344 619.2532958984375 260.0144958496094 630.3993530273438 258.8727722167969 636.37353515625" fill="rgb(148, 172, 227)" opacity="0.26126856" stroke="rgb(10, 209, 46)" stroke-linecap="round" stroke-linejoin="round" stroke-opacity="0.14247428" stroke-width="0.0"/>
    <path d="M 186.63729858398438 342.2115478515625 C 182.314697265625 340.18927001953125 191.02557373046875 358.5802001953125 166.14801025390625 358.0372619628906 C 170.05117797851562 341.7483825683594 175.84286499023438 346.072509765625 177.63711547851562 348.4099426269531 C 173.09323120117188 342.0872802734375 176.48292541503906 338.2560729980469 183.015380859375 336.9912414550781 C 179.130615234375 344.0910339355469 180.08412170410156 341.2771301269531 186.63729858398438 342.2115478515625" fill="rgb(96, 148, 168)" opacity="0.55430317" stroke="rgb(243, 207, 86)" stroke-linecap="round" stroke-linejoin="round" stroke-opacity="0.06679997" stroke-width="0.0"/>
    <path d="M 520.521728515625 348.5555114746094 C 525.1820678710938 362.1314392089844 522.8670043945312 331.5727844238281 440.8945617675781 328.6025695800781 C 460.5329895019531 332.5918273925781 428.863037109375 318.36669921875 360.2006530761719 349.3739318847656 C 364.2279968261719 242.1498565673828 425.3255310058594 297.0350341796875 468.9725646972656 309.2135925292969 C 443.0079345703125 303.1158447265625 489.1958312988281 313.2174987792969 520.521728515625 348.5555114746094" fill="rgb(255, 255, 249)" opacity="0.9670826" stroke="rgb(206, 72, 247)" stroke-linecap="round" stroke-linejoin="round" stroke-opacity="0.08724409" stroke-width="0.0"/>
    <path d="M 714.0311279296875 247.25515747070312 C 717.2991333007812 248.18692016601562 711.9408569335938 248.534912109375 711.998046875 246.9210968017578 C 707.2404174804688 255.31333923339844 710.4924926757812 244.12608337402344 707.090087890625 245.05992126464844 C 705.9054565429688 241.20680236816406 709.0960083007812 240.76046752929688 709.5643920898438 244.49966430664062 C 712.8883666992188 240.7454833984375 714.8328857421875 244.25643920898438 714.0311279296875 247.25515747070312" fill="rgb(103, 152, 172)" opacity="0.45262438" stroke="rgb(19, 82, 158)" stroke-linecap="round" stroke-linejoin="round" stroke-opacity="0.9753281" stroke-width="0.0"/>
    <path d="M 538.289794921875 152.1966094970703 C 520.1405029296875 153.0340576171875 520.5960083007812 151.04855346679688 525.10791015625 158.2928466796875 C 520.2249755859375 159.37937927246094 517.0792236328125 155.894287109375 512.141845703125 149.36187744140625 C 518.0382080078125 150.98361206054688 520.5267944335938 152.71937561035156 519.2227172851562 141.89508056640625 C 520.8173828125 156.60682678222656 526.9066772460938 149.373046875 538.289794921875 152.1966094970703" fill="rgb(98, 149, 170)" opacity="0.68324155" stroke="rgb(42, 244, 142)" stroke-linecap="round" stroke-linejoin="round" stroke-opacity="0.7386491" stroke-width="0.0"/>
    <path d="M 682.2992553710938 348.4945373535156 C 674.8826293945312 356.0463562011719 680.6176147460938 350.73150634765625 668.6505126953125 364.4419860839844 C 674.126708984375 352.063720703125 676.0738525390625 351.6165771484375 666.5784301757812 351.74932861328125 C 665.644287109375 345.2240905761719 671.2911376953125 351.76300048828125 673.87353515625 346.09765625 C 671.5086059570312 350.35400390625 674.8193359375 349.8336181640625 682.2992553710938 348.4945373535156" fill="rgb(98, 152, 170)" opacity="0.48678377" stroke="rgb(114, 127, 109)" stroke-linecap="round" stroke-linejoin="round" stroke-opacity="0.036749758" stroke-width="0.0"/>
    <path d="M 415.6539001464844 291.7291259765625 C 353.74371337890625 367.1312561035156 350.0708312988281 351.53094482421875 300.864501953125 374.66961669921875 C 302.28887939453125 363.25067138671875 243.69039916992188 351.833251953125 294.27178955078125 335.16082763671875 C 306.0223083496094 297.3575439453125 319.5590515136719 296.9485168457031 306.9844665527344 302.9019775390625 C 326.52520751953125 293.4102783203125 329.1645812988281 249.8191680908203 415.6539001464844 291.7291259765625" fill="rgb(254, 255, 249)" opacity="0.977674" stroke="rgb(252, 31, 56)" stroke-linecap="round" stroke-linejoin="round" stroke-opacity="0.067564145" stroke-width="0.0"/>
    <path d="M 658.2018432617188 213.09312438964844 C 655.608154296875 203.93028259277344 656.8512573242188 210.45803833007812 647.7614135742188 211.775390625 C 654.6294555664062 205.31134033203125 648.3184204101562 211.564697265625 655.6317138671875 206.1269989013672 C 643.86572265625 200.9864044189453 647.57958984375 202.6030731201172 656.8165893554688 202.2559051513672 C 653.5040283203125 193.521484375 653.7891845703125 198.5821075439453 658.2018432617188 213.09312438964844" fill="rgb(100, 150, 168)" opacity="0.661373" stroke="rgb(156, 220, 12)" stroke-linecap="round" stroke-linejoin="round" stroke-opacity="0.67905605" stroke-width="0.0"/>
    <path d="M 651.864990234375 761.3713989257812 C 634.417724609375 738.2852172851562 642.727783203125 757.5933837890625 630.6350708007812 756.5233764648438 C 624.8681030273438 763.1587524414062 628.664794921875 755.2335205078125 627.161376953125 750.1842651367188 C 632.3990478515625 745.0408325195312 616.533203125 742.7495727539062 630.9130859375 737.3500366210938 C 661.655517578125 723.7673950195312 664.0676879882812 745.5181884765625 651.864990234375 761.3713989257812" fill="rgb(52, 6, 53)" opacity="0.8721123" stroke="rgb(49, 167, 107)" stroke-linecap="round" stroke-linejoin="round" stroke-opacity="0.5282748" stroke-width="0.0"/>
    <path d="M 589.9935913085938 304.8489685058594 C 586.3753662109375 303.05230712890625 579.5774536132812 309.1050109863281 584.3453979492188 309.97186279296875 C 576.347412109375 308.6498718261719 582.578125 308.3287048339844 574.7164306640625 302.84576416015625 C 575.1688232421875 305.60577392578125 580.1762084960938 299.8088684082031 581.8416748046875 294.8410949707031 C 583.9177856445312 300.657958984375 589.3544311523438 300.5802307128906 589.9935913085938 304.8489685058594" fill="rgb(97, 148, 168)" opacity="0.7372967" stroke="rgb(0, 11, 219)" stroke-linecap="round" stroke-linejoin="round" stroke-opacity="0.76776445" stroke-width="0.0"/>
    <path d="M 207.37069702148438 303.1985778808594 C 208.8532257080078 311.2741394042969 203.93411254882812 304.8257141113281 204.54466247558594 311.15570068359375 C 197.6240997314453 308.0397644042969 199.26156616210938 306.62518310546875 198.974365234375 301.9881896972656 C 201.37599182128906 306.5289611816406 198.48193359375 300.7391662597656 205.20562744140625 301.5120849609375 C 207.05812072753906 295.23419189453125 205.8539581298828 302.6251220703125 207.37069702148438 303.1985778808594" fill="rgb(98, 152, 168)" opacity="0.66255856" stroke="rgb(167, 29, 192)" stroke-linecap="round" stroke-linejoin="round" stroke-opacity="0.14579675" stroke-width="0.0"/>
    <path d="M 529.5502319335938 495.23736572265625 C 526.3394165039062 496.25726318359375 535.4306030273438 492.9620666503906 517.857666015625 559.7678833007812 C 462.99713134765625 510.7344055175781 492.90570068359375 506.3849792480469 492.8673095703125 487.1292419433594 C 514.858154296875 482.0318603515625 508.9329528808594 490.5180358886719 524.9432373046875 485.9011535644531 C 517.5955810546875 487.37567138671875 523.0990600585938 485.9440612792969 529.5502319335938 495.23736572265625" fill="rgb(216, 226, 237)" opacity="0.8187064" stroke="rgb(237, 181, 3)" stroke-linecap="round" stroke-linejoin="round" stroke-opacity="0.7560975" stroke-width="0.0"/>
    <path d="M 308.385498046875 722.6229248046875 C 347.4162902832031 619.9843139648438 405.44854736328125 601.3851318359375 429.7033386230469 766.0371704101562 C 258.60797119140625 762.9161987304688 253.72940063476562 775.2951049804688 268.106201171875 745.4217529296875 C 278.6172790527344 707.6695556640625 264.8623352050781 717.8809814453125 303.01873779296875 716.3509521484375 C 314.0329284667969 733.9048461914062 307.0469665527344 744.3942260742188 308.385498046875 722.6229248046875" fill="rgb(51, 6, 50)" opacity="1.0" stroke="rgb(91, 79, 147)" stroke-linecap="round" stroke-linejoin="round" stroke-opacity="0.3780646" stroke-width="0.0"/>
    <path d="M 216.2077178955078 187.7727508544922 C 216.98744201660156 193.86947631835938 204.49462890625 191.3697052001953 200.53121948242188 191.65682983398438 C 199.47837829589844 197.01536560058594 195.5929718017578 196.64991760253906 194.63621520996094 182.97889709472656 C 198.81134033203125 193.390380859375 203.67335510253906 185.34605407714844 213.6895294189453 187.43211364746094 C 199.56617736816406 188.88720703125 201.46231079101562 187.24526977539062 216.2077178955078 187.7727508544922" fill="rgb(102, 151, 173)" opacity="0.55300975" stroke="rgb(67, 198, 30)" stroke-linecap="round" stroke-linejoin="round" stroke-opacity="0.72867393" stroke-width="0.0"/>
    <path d="M 226.36474609375 93.5071029663086 C 228.9940948486328 96.14546203613281 223.7469482421875 95.41353607177734 224.07066345214844 97.98531341552734 C 218.31588745117188 98.59498596191406 223.16688537597656 94.78002166748047 219.35592651367188 92.41619110107422 C 225.73626708984375 92.85914611816406 219.99630737304688 89.67112731933594 221.1515350341797 82.01437377929688 C 226.63479614257812 87.9244613647461 228.08883666992188 90.6317367553711 226.36474609375 93.5071029663086" fill="rgb(98, 150, 168)" opacity="0.6622396" stroke="rgb(2, 33, 141)" stroke-linecap="round" stroke-linejoin="round" stroke-opacity="0.7966864" stroke-width="0.0"/>
    <path d="M 87.14743041992188 190.83717346191406 C 80.53307342529297 185.71165466308594 84.33136749267578 189.93577575683594 77.541748046875 190.62953186035156 C 77.98454284667969 188.0423583984375 75.952392578125 182.70570373535156 73.02264404296875 186.74525451660156 C 75.74847412109375 182.4368133544922 78.23320770263672 179.6868438720703 75.84918975830078 184.04327392578125 C 82.06749725341797 181.4318084716797 81.47538757324219 183.26409912109375 87.14743041992188 190.83717346191406" fill="rgb(100, 150, 172)" opacity="0.7334984" stroke="rgb(69, 230, 116)" stroke-linecap="round" stroke-linejoin="round" stroke-opacity="0.21785922" stroke-width="0.0"/>
    <path d="M 132.50755310058594 458.0880432128906 C 131.49412536621094 462.5325927734375 132.583740234375 465.0196533203125 127.95027923583984 462.9595031738281 C 123.11152648925781 463.1842956542969 129.00140380859375 462.5983581542969 122.31411743164062 458.5893249511719 C 123.98225402832031 452.2783508300781 121.29679870605469 451.8281555175781 129.1575469970703 454.2557373046875 C 120.23552703857422 455.3837890625 129.59999084472656 455.03692626953125 132.50755310058594 458.0880432128906" fill="rgb(98, 149, 167)" opacity="0.7597853" stroke="rgb(82, 81, 67)" stroke-linecap="round" stroke-linejoin="round" stroke-opacity="0.040256426" stroke-width="0.0"/>
    <path d="M 512.1483154296875 309.74884033203125 C 512.9850463867188 308.74163818359375 508.12481689453125 319.0826110839844 499.2269592285156 320.02862548828125 C 508.5054016113281 314.9093017578125 506.4097900390625 311.6429748535156 499.23388671875 311.5763854980469 C 503.1922607421875 303.4976501464844 505.6719665527344 307.08831787109375 508.0972900390625 305.55133056640625 C 513.0126342773438 307.1076965332031 513.2006225585938 305.03253173828125 512.1483154296875 309.74884033203125" fill="rgb(99, 148, 167)" opacity="0.71373194" stroke="rgb(187, 165, 249)" stroke-linecap="round" stroke-linejoin="round" stroke-opacity="0.5431762" stroke-width="0.0"/>
    <path d="M 229.72860717773438 703.4003295898438 C 150.6244354248047 731.1847534179688 171.87355041503906 702.6300048828125 142.2729034423828 700.4974365234375 C 176.44395446777344 708.9569091796875 220.95484924316406 725.2081298828125 124.01762390136719 830.3658447265625 C -49.25722885131836 785.0831909179688 -5.3333420753479 631.7105102539062 86.43062591552734 579.95849609375 C 145.34490966796875 674.3544921875 177.83242797851562 622.0681762695312 229.72860717773438 703.4003295898438" fill="rgb(98, 149, 168)" opacity="0.89564663" stroke="rgb(12, 135, 241)" stroke-linecap="round" stroke-linejoin="round" stroke-opacity="0.84764385" stroke-width="0.0"/>
  </g>
</svg>
