<?xml version="1.0" ?>
<svg height="768" version="1.1" width="768" xmlns="http://www.w3.org/2000/svg">
  <defs/>
  <g>
    <path d="M 764.3734741210938 792.4121704101562 C 351.26141357421875 820.29833984375 215.313232421875 847.6236572265625 179.72018432617188 609.0668334960938 C 598.2913818359375 327.96746826171875 731.9088134765625 247.39710998535156 21.684343338012695 549.3986206054688 C -16.03325653076172 -99.2318344116211 -1.1446503400802612 -53.10165786743164 764.5142211914062 -12.522013664245605 C 764.3738403320312 260.75262451171875 764.570068359375 319.7415771484375 764.3734741210938 792.4121704101562" fill="rgb(51, 103, 124)" opacity="0.7101385" stroke="rgb(242, 217, 203)" stroke-linecap="round" stroke-linejoin="round" stroke-opacity="0.71962214" stroke-width="0.0"/>
    <path d="M 418.9911193847656 773.4177856445312 C 417.90032958984375 781.865966796875 412.3475341796875 782.13037109375 282.99755859375 783.5355224609375 C 292.7841796875 802.124755859375 248.6685791015625 771.3284301757812 249.71107482910156 685.822265625 C 251.5689239501953 626.516845703125 293.376953125 559.7214965820312 365.9253234863281 548.6760864257812 C 428.1286926269531 625.2786254882812 414.5922546386719 654.7587890625 418.9911193847656 773.4177856445312" fill="rgb(50, 0, 47)" opacity="0.9547444" stroke="rgb(52, 80, 13)" stroke-linecap="round" stroke-linejoin="round" stroke-opacity="0.118004136" stroke-width="0.0"/>
    <path d="M 743.0802612304688 583.7328491210938 C 810.0530395507812 939.4070434570312 745.5087280273438 855.0822143554688 639.1676025390625 783.4080810546875 C 383.4914855957031 780.7656860351562 386.3518371582031 774.1371459960938 381.8109436035156 763.6128540039062 C 365.4210205078125 666.2643432617188 312.28363037109375 694.2014770507812 362.133056640625 551.0757446289062 C 598.4442138671875 555.5203247070312 366.10125732421875 596.2711181640625 743.0802612304688 583.7328491210938" fill="rgb(51, 6, 50)" opacity="0.9847721" stroke="rgb(4, 38, 250)" stroke-linecap="round" stroke-linejoin="round" stroke-opacity="0.26343647" stroke-width="0.0"/>
    <path d="M 491.11572265625 691.4971313476562 C 445.15985107421875 636.3003540039062 439.46661376953125 629.5286865234375 430.6388854980469 619.3780517578125 C 417.6718444824219 596.7698364257812 404.0362243652344 609.5021362304688 363.9315490722656 548.8802490234375 C 364.4000244140625 549.1990966796875 407.0867004394531 539.6321411132812 458.87158203125 555.822509765625 C 499.3426208496094 570.8880004882812 507.1361389160156 563.5517578125 491.11572265625 691.4971313476562" fill="rgb(50, 5, 49)" opacity="0.9735391" stroke="rgb(128, 50, 213)" stroke-linecap="round" stroke-linejoin="round" stroke-opacity="0.26315796" stroke-width="0.0"/>
    <path d="M 477.9043273925781 687.696533203125 C 443.5467224121094 682.6702270507812 444.2689514160156 678.13330078125 374.299560546875 663.0977783203125 C 391.4310302734375 643.6635131835938 387.3328552246094 641.9378662109375 384.9168701171875 586.2938232421875 C 396.0360412597656 585.5536499023438 400.0101013183594 588.711181640625 449.0897521972656 590.0934448242188 C 441.9034118652344 601.2164916992188 461.8592529296875 590.17822265625 477.9043273925781 687.696533203125" fill="rgb(51, 6, 51)" opacity="1.0" stroke="rgb(43, 31, 31)" stroke-linecap="round" stroke-linejoin="round" stroke-opacity="0.971857" stroke-width="0.0"/>
    <path d="M 773.3820190429688 647.0239868164062 C 776.3601684570312 786.422119140625 755.8401489257812 778.585205078125 754.9200439453125 776.6016235351562 C 667.3804931640625 775.17529296875 664.4019165039062 775.1902465820312 635.1956787109375 779.9470825195312 C 626.4848022460938 725.060302734375 621.1798706054688 732.093994140625 535.7874145507812 670.8628540039062 C 721.309326171875 636.0787353515625 713.2039794921875 590.4951171875 773.3820190429688 647.0239868164062" fill="rgb(51, 5, 50)" opacity="1.0" stroke="rgb(114, 58, 76)" stroke-linecap="round" stroke-linejoin="round" stroke-opacity="0.7408875" stroke-width="0.0"/>
    <path d="M 501.3030700683594 661.976806640625 C 497.2639465332031 795.7324829101562 467.09222412109375 783.0145874023438 455.80877685546875 778.5596923828125 C 399.2577819824219 778.0394287109375 395.2492370605469 777.53466796875 383.7457580566406 766.4143676757812 C 385.923583984375 724.57470703125 388.542236328125 721.7225952148438 391.4837951660156 702.4736938476562 C 449.6228942871094 685.4842529296875 454.6543273925781 681.6837768554688 501.3030700683594 661.976806640625" fill="rgb(51, 6, 51)" opacity="0.95281875" stroke="rgb(192, 160, 53)" stroke-linecap="round" stroke-linejoin="round" stroke-opacity="0.16767655" stroke-width="0.0"/>
  </g>
</svg>
