<?xml version="1.0" ?>
<svg height="768" version="1.1" width="768" xmlns="http://www.w3.org/2000/svg">
  <defs/>
  <g>
    <path d="M 766.5608520507812 792.3652954101562 C 352.2740478515625 820.0044555664062 216.2920379638672 846.875244140625 180.44644165039062 611.484375 C 586.1199951171875 326.04949951171875 733.996337890625 254.94744873046875 21.315885543823242 548.7521362304688 C -15.928771018981934 -98.90231323242188 -0.8633706569671631 -52.910736083984375 764.1278686523438 -12.472036361694336 C 767.3824462890625 260.88153076171875 761.31201171875 319.5959777832031 766.5608520507812 792.3652954101562" fill="rgb(65, 116, 133)" opacity="0.75396633" stroke="rgb(242, 217, 203)" stroke-linecap="round" stroke-linejoin="round" stroke-opacity="0.71962214" stroke-width="0.0"/>
    <path d="M 418.8135070800781 773.5136108398438 C 417.90032958984375 781.865966796875 412.3475341796875 782.13037109375 290.0314636230469 783.23095703125 C 291.5914306640625 798.923583984375 247.92950439453125 774.9051513671875 249.73793029785156 680.6471557617188 C 254.52114868164062 625.4026489257812 290.5349426269531 563.1839599609375 362.6669921875 548.9292602539062 C 427.1939392089844 625.4701538085938 414.1543884277344 654.8641357421875 418.8135070800781 773.5136108398438" fill="rgb(50, 0, 47)" opacity="0.9558468" stroke="rgb(52, 80, 13)" stroke-linecap="round" stroke-linejoin="round" stroke-opacity="0.118004136" stroke-width="0.0"/>
    <path d="M 758.6062622070312 536.64208984375 C 797.2469482421875 961.458984375 738.6282348632812 860.9522705078125 637.7115478515625 783.4384155273438 C 383.458984375 780.7656860351562 386.1759948730469 774.1668090820312 381.9101867675781 763.6317138671875 C 365.4207763671875 666.2453002929688 312.0339050292969 693.935791015625 364.9710388183594 546.1038818359375 C 570.9884033203125 544.6863403320312 328.4106750488281 597.110107421875 758.6062622070312 536.64208984375" fill="rgb(87, 88, 117)" opacity="0.97996473" stroke="rgb(4, 38, 250)" stroke-linecap="round" stroke-linejoin="round" stroke-opacity="0.26343647" stroke-width="0.0"/>
  </g>
</svg>
