<?xml version="1.0" ?>
<svg height="768" version="1.1" width="768" xmlns="http://www.w3.org/2000/svg">
  <defs/>
  <g>
    <path d="M 614.219482421875 -246.29705810546875 C 740.2675170898438 -112.06048583984375 807.1187744140625 -41.11310958862305 829.5009765625 525.0846557617188 C 711.0756225585938 612.8182373046875 590.2809448242188 659.4151611328125 1.0503278970718384 680.3911743164062 C -14.052000999450684 -185.5797882080078 1.0877232551574707 -97.17042541503906 58.13934326171875 -15.851325035095215 C 439.0552062988281 -16.933881759643555 446.9502258300781 -18.955097198486328 614.219482421875 -246.29705810546875" fill="rgb(90, 160, 167)" opacity="0.97056234" stroke="rgb(186, 74, 237)" stroke-linecap="round" stroke-linejoin="round" stroke-opacity="0.41390306" stroke-width="0.0"/>
    <path d="M 532.5559692382812 766.9225463867188 C 149.09449768066406 793.9080810546875 125.71403503417969 783.2385864257812 -15.816697120666504 778.1204833984375 C -17.49167251586914 750.7085571289062 -13.434205055236816 748.1095581054688 -14.636938095092773 717.9243774414062 C -22.157255172729492 530.78076171875 -60.634620666503906 486.11322021484375 171.73350524902344 408.9013671875 C 373.7116394042969 403.59869384765625 461.1490478515625 238.7881622314453 532.5559692382812 766.9225463867188" fill="rgb(66, 96, 163)" opacity="1.0" stroke="rgb(204, 228, 74)" stroke-linecap="round" stroke-linejoin="round" stroke-opacity="0.9638093" stroke-width="0.0"/>
    <path d="M 768.2908325195312 565.6558837890625 C 784.14892578125 782.39892578125 782.2929077148438 785.7186889648438 763.3697509765625 781.804931640625 C 611.4456787109375 782.26123046875 602.3466796875 782.6730346679688 505.6563720703125 838.9962768554688 C 482.3829650878906 665.0346069335938 454.27227783203125 621.0354614257812 452.1529541015625 458.031005859375 C 782.1602172851562 523.1178588867188 650.5756225585938 626.55126953125 768.2908325195312 565.6558837890625" fill="rgb(109, 122, 120)" opacity="0.9258037" stroke="rgb(57, 58, 248)" stroke-linecap="round" stroke-linejoin="round" stroke-opacity="0.37919682" stroke-width="0.0"/>
    <path d="M 272.2634582519531 353.9314270019531 C 185.2283172607422 473.4978332519531 128.54946899414062 552.2175903320312 178.28883361816406 700.3670043945312 C 205.5681610107422 785.232666015625 292.0434875488281 795.432373046875 1.7956759929656982 795.9943237304688 C -24.268821716308594 246.57327270507812 -114.56844329833984 113.79287719726562 255.949951171875 130.070556640625 C 233.89344787597656 358.262451171875 121.22261810302734 336.3577880859375 272.2634582519531 353.9314270019531" fill="rgb(116, 217, 180)" opacity="0.9527957" stroke="rgb(222, 83, 174)" stroke-linecap="round" stroke-linejoin="round" stroke-opacity="0.18938406" stroke-width="0.0"/>
    <path d="M 775.4733276367188 799.4205932617188 C 698.7109985351562 779.5236206054688 679.467529296875 807.59228515625 521.1138305664062 767.0611572265625 C 494.1777648925781 743.3903198242188 670.7659912109375 771.1463012695312 574.6038818359375 675.3939819335938 C 721.8247680664062 686.2132568359375 587.0327758789062 513.4442749023438 748.0621337890625 426.5898742675781 C 825.8427734375 599.619140625 783.5120239257812 655.662353515625 775.4733276367188 799.4205932617188" fill="rgb(127, 255, 192)" opacity="0.41782427" stroke="rgb(237, 176, 167)" stroke-linecap="round" stroke-linejoin="round" stroke-opacity="0.91552186" stroke-width="0.0"/>
  </g>
</svg>
