<?xml version="1.0" ?>
<svg height="768" version="1.1" width="768" xmlns="http://www.w3.org/2000/svg">
  <defs/>
  <g>
    <path d="M 614.2212524414062 -246.3372039794922 C 740.2979125976562 -112.12077331542969 807.1453857421875 -41.1648063659668 828.7313842773438 524.34716796875 C 709.3202514648438 612.4110107421875 589.8512573242188 659.3502807617188 1.0452815294265747 680.3884887695312 C -14.051942825317383 -185.5797882080078 1.0877232551574707 -97.17042541503906 58.13934326171875 -15.851325035095215 C 439.0552062988281 -16.933881759643555 446.9502258300781 -18.955097198486328 614.2212524414062 -246.3372039794922" fill="rgb(96, 178, 159)" opacity="0.9198428" stroke="rgb(186, 74, 237)" stroke-linecap="round" stroke-linejoin="round" stroke-opacity="0.41390306" stroke-width="0.0"/>
    <path d="M 532.1134643554688 766.8845825195312 C 149.0381622314453 793.7867431640625 125.7134017944336 783.2385864257812 -15.816697120666504 778.1204833984375 C -17.49167251586914 750.7085571289062 -13.434205055236816 748.1095581054688 -14.700140953063965 716.1070556640625 C -23.70130157470703 524.1657104492188 -66.4429702758789 480.5140075683594 221.33641052246094 436.2012634277344 C 368.3278503417969 391.2857971191406 459.306640625 230.07211303710938 532.1134643554688 766.8845825195312" fill="rgb(96, 134, 145)" opacity="1.0" stroke="rgb(204, 228, 74)" stroke-linecap="round" stroke-linejoin="round" stroke-opacity="0.9638093" stroke-width="0.0"/>
    <path d="M 781.11962890625 560.6433715820312 C 784.14892578125 782.39892578125 782.2929077148438 785.7186889648438 763.3697509765625 781.804931640625 C 611.4456787109375 782.26123046875 602.3466796875 782.6730346679688 509.35089111328125 823.929443359375 C 492.2886657714844 626.5205688476562 483.8340759277344 597.5478515625 480.5005798339844 484.7311096191406 C 757.6742553710938 543.6566162109375 742.843505859375 587.3773193359375 781.11962890625 560.6433715820312" fill="rgb(111, 114, 115)" opacity="0.5587805" stroke="rgb(57, 58, 248)" stroke-linecap="round" stroke-linejoin="round" stroke-opacity="0.37919682" stroke-width="0.0"/>
  </g>
</svg>
