<?xml version="1.0" ?>
<svg height="768" version="1.1" width="768" xmlns="http://www.w3.org/2000/svg">
  <defs/>
  <g>
    <path d="M 483.45733642578125 884.0966796875 C 271.0419616699219 785.1021118164062 230.68609619140625 783.1209716796875 -14.185747146606445 776.5763549804688 C -18.181488037109375 704.0333251953125 -16.092060089111328 669.0184936523438 -20.759056091308594 164.4043426513672 C -126.7168197631836 80.13019561767578 -51.18693923950195 61.53916549682617 765.5776977539062 80.44872283935547 C 717.0782470703125 865.3582153320312 617.8477172851562 896.4732055664062 483.45733642578125 884.0966796875" fill="rgb(90, 139, 157)" opacity="0.99980634" stroke="rgb(8, 15, 227)" stroke-linecap="round" stroke-linejoin="round" stroke-opacity="0.71848446" stroke-width="0.0"/>
    <path d="M 526.3630981445312 238.3335418701172 C 487.20172119140625 300.168212890625 538.8289794921875 357.9767150878906 437.2203674316406 355.12786865234375 C 396.891357421875 208.01010131835938 453.32373046875 212.8086700439453 445.08966064453125 215.5472412109375 C 437.4129638671875 114.53593444824219 474.56414794921875 99.12370300292969 493.69024658203125 106.760498046875 C 520.57421875 121.35009765625 531.0697021484375 140.0423583984375 526.3630981445312 238.3335418701172" fill="rgb(238, 42, 18)" opacity="0.9368395" stroke="rgb(21, 187, 213)" stroke-linecap="round" stroke-linejoin="round" stroke-opacity="0.79851526" stroke-width="0.0"/>
    <path d="M 779.8934936523438 778.97509765625 C 764.2323608398438 783.3659057617188 760.1072998046875 783.4859619140625 655.942138671875 779.8412475585938 C 648.5106201171875 748.7445068359375 662.5726318359375 735.0872192382812 665.5419921875 630.6175537109375 C 630.4371948242188 518.0563354492188 419.69451904296875 451.1068115234375 767.372314453125 351.6022644042969 C 784.8551635742188 627.5284423828125 782.60205078125 638.3251953125 779.8934936523438 778.97509765625" fill="rgb(88, 140, 157)" opacity="1.0" stroke="rgb(217, 211, 54)" stroke-linecap="round" stroke-linejoin="round" stroke-opacity="0.7799219" stroke-width="0.0"/>
    <path d="M 623.0 40.0 C 622.3301391601562 42.5 620.5 44.33012771606445 618.0 45.0 C 615.5 44.33012771606445 613.6698608398438 42.5 613.0 40.0 C 613.6698608398438 37.5 615.5 35.66987228393555 618.0 35.0 C 620.5 35.66987228393555 622.3301391601562 37.5 623.0 40.0" fill="rgb(89, 140, 157)" opacity="1.0" stroke="rgb(11, 97, 163)" stroke-linecap="round" stroke-linejoin="round" stroke-opacity="0.8905633" stroke-width="0.0"/>
  </g>
</svg>
