<?xml version="1.0" ?>
<svg height="768" version="1.1" width="768" xmlns="http://www.w3.org/2000/svg">
  <defs/>
  <g>
    <path d="M 548.358642578125 612.6475219726562 C -111.711181640625 576.4119262695312 -166.40921020507812 470.72412109375 -302.35174560546875 319.3916931152344 C -16.806474685668945 129.92138671875 -15.423881530761719 121.95367431640625 -12.012309074401855 7.0339741706848145 C -12.361435890197754 -16.83322525024414 -8.218883514404297 -16.528688430786133 534.8707885742188 -16.978317260742188 C 586.395263671875 -71.96308135986328 585.294677734375 -92.61196899414062 548.358642578125 612.6475219726562" fill="rgb(97, 103, 114)" opacity="0.9751295" stroke="rgb(238, 5, 111)" stroke-linecap="round" stroke-linejoin="round" stroke-opacity="0.63917536" stroke-width="0.0"/>
    <path d="M 645.6734619140625 882.0349731445312 C 549.4010620117188 784.7303466796875 539.025634765625 794.829345703125 -51.05398178100586 765.264892578125 C -11.10696029663086 461.4418640136719 94.5061264038086 392.99493408203125 187.7632293701172 441.0816345214844 C 497.47186279296875 777.3021240234375 359.50445556640625 485.6911315917969 795.6608276367188 472.9585266113281 C 790.53662109375 861.921630859375 727.76708984375 866.7605590820312 645.6734619140625 882.0349731445312" fill="rgb(128, 154, 169)" opacity="0.9762158" stroke="rgb(215, 225, 99)" stroke-linecap="round" stroke-linejoin="round" stroke-opacity="0.8708367" stroke-width="0.0"/>
    <path d="M 764.55810546875 -60.305946350097656 C 787.4959716796875 411.9912109375 784.974609375 427.74041748046875 777.3923950195312 562.9735107421875 C 466.1894836425781 561.1442260742188 632.4658203125 491.1364440917969 590.4234619140625 412.15643310546875 C 486.5683288574219 464.3409729003906 378.85113525390625 456.2646789550781 331.1880187988281 157.95872497558594 C 537.4274291992188 67.12628173828125 519.1121215820312 -19.27652931213379 764.55810546875 -60.305946350097656" fill="rgb(97, 106, 118)" opacity="0.9951759" stroke="rgb(212, 27, 104)" stroke-linecap="round" stroke-linejoin="round" stroke-opacity="0.10286519" stroke-width="0.0"/>
    <path d="M 295.6278076171875 581.199462890625 C 298.3447570800781 601.083251953125 404.4598083496094 666.791015625 296.19281005859375 606.1030883789062 C 232.57583618164062 575.8435668945312 220.83432006835938 555.8504638671875 188.42054748535156 499.2142639160156 C 171.95248413085938 461.33380126953125 179.03533935546875 455.6697082519531 219.4909210205078 456.6679382324219 C 274.7177429199219 532.1383056640625 282.3048400878906 477.24188232421875 295.6278076171875 581.199462890625" fill="rgb(250, 246, 227)" opacity="1.0" stroke="rgb(176, 102, 104)" stroke-linecap="round" stroke-linejoin="round" stroke-opacity="0.58385277" stroke-width="0.0"/>
    <path d="M 598.8428344726562 453.21649169921875 C 569.9715576171875 619.5040893554688 429.7712707519531 592.506103515625 395.2194519042969 673.4595336914062 C 195.85238647460938 530.3947143554688 388.087158203125 556.857666015625 382.51849365234375 644.4878540039062 C 403.7220458984375 583.5687866210938 412.2546691894531 593.4722900390625 454.6874694824219 567.7559814453125 C 517.6047973632812 627.1488037109375 403.790771484375 506.2628479003906 598.8428344726562 453.21649169921875" fill="rgb(251, 247, 228)" opacity="0.9787379" stroke="rgb(140, 163, 225)" stroke-linecap="round" stroke-linejoin="round" stroke-opacity="0.30783916" stroke-width="0.0"/>
    <path d="M 227.6097412109375 461.3135986328125 C 251.01942443847656 511.7712707519531 291.55194091796875 491.3115539550781 188.11329650878906 496.6534118652344 C 163.77230834960938 435.6302490234375 200.10621643066406 467.001220703125 137.7088165283203 434.38189697265625 C 142.56797790527344 294.245849609375 307.2302551269531 346.03509521484375 175.87835693359375 392.8433837890625 C 112.85279846191406 436.23486328125 217.0304718017578 381.9176330566406 227.6097412109375 461.3135986328125" fill="rgb(251, 247, 228)" opacity="0.9932764" stroke="rgb(88, 123, 84)" stroke-linecap="round" stroke-linejoin="round" stroke-opacity="0.9968064" stroke-width="0.0"/>
    <path d="M 350.4378967285156 343.05859375 C 342.5157470703125 346.8867492675781 338.7888488769531 323.5909118652344 318.81671142578125 316.302734375 C 311.5203857421875 309.76220703125 272.6632080078125 308.58843994140625 252.95530700683594 308.578369140625 C 255.65444946289062 307.0954284667969 271.4813232421875 289.4579162597656 298.810546875 290.74444580078125 C 299.0653076171875 290.7416076660156 340.404296875 296.6170654296875 350.4378967285156 343.05859375" fill="rgb(253, 249, 231)" opacity="0.97933215" stroke="rgb(157, 145, 192)" stroke-linecap="round" stroke-linejoin="round" stroke-opacity="0.58758956" stroke-width="0.0"/>
    <path d="M 634.7889404296875 437.66009521484375 C 635.33447265625 427.86767578125 641.7630615234375 438.8208923339844 535.1537475585938 478.71697998046875 C 550.9846801757812 364.6974792480469 654.9979248046875 447.9686279296875 594.4494018554688 390.6970520019531 C 543.458984375 390.1055908203125 493.5169982910156 270.9100341796875 611.9024047851562 365.81719970703125 C 618.4285888671875 372.5241394042969 638.5276489257812 416.7390441894531 634.7889404296875 437.66009521484375" fill="rgb(254, 249, 229)" opacity="0.9735834" stroke="rgb(133, 102, 192)" stroke-linecap="round" stroke-linejoin="round" stroke-opacity="0.6550353" stroke-width="0.0"/>
    <path d="M 496.905029296875 444.1198425292969 C 464.7959899902344 476.369873046875 494.90985107421875 509.724365234375 414.5255432128906 563.1632690429688 C 505.1800842285156 447.6444091796875 460.6919250488281 464.83392333984375 435.4712829589844 493.0254821777344 C 477.129150390625 446.42462158203125 441.84124755859375 409.2688293457031 478.0447998046875 398.46868896484375 C 513.90673828125 413.8645324707031 516.1014404296875 398.7421569824219 496.905029296875 444.1198425292969" fill="rgb(252, 249, 227)" opacity="0.9872396" stroke="rgb(38, 188, 221)" stroke-linecap="round" stroke-linejoin="round" stroke-opacity="0.7373106" stroke-width="0.0"/>
    <path d="M 335.5281982421875 354.4825744628906 C 352.4322814941406 355.2148742675781 299.94927978515625 354.553955078125 297.9302062988281 344.1939697265625 C 305.2579040527344 356.8119201660156 256.7081604003906 310.3680725097656 293.10357666015625 323.48095703125 C 304.6729736328125 358.65863037109375 333.81256103515625 336.60675048828125 318.3426513671875 326.7312316894531 C 328.8569030761719 329.4635925292969 340.1908264160156 352.79742431640625 335.5281982421875 354.4825744628906" fill="rgb(253, 249, 227)" opacity="0.983619" stroke="rgb(146, 39, 68)" stroke-linecap="round" stroke-linejoin="round" stroke-opacity="0.30690554" stroke-width="0.0"/>
    <path d="M 571.26123046875 254.03562927246094 C 479.7431945800781 307.97369384765625 613.81640625 69.16448211669922 527.3115844726562 224.59283447265625 C 519.940673828125 222.6665496826172 495.2096862792969 194.3435516357422 509.9408264160156 197.92198181152344 C 488.6346740722656 185.6027069091797 477.8381042480469 129.78160095214844 553.1112670898438 90.29800415039062 C 580.4446411132812 94.97901153564453 576.0614013671875 233.61058044433594 571.26123046875 254.03562927246094" fill="rgb(255, 238, 217)" opacity="0.86477125" stroke="rgb(107, 103, 241)" stroke-linecap="round" stroke-linejoin="round" stroke-opacity="0.36909917" stroke-width="0.0"/>
    <path d="M 408.04315185546875 321.4029235839844 C 427.6374816894531 492.77459716796875 434.1940612792969 440.404296875 364.3838195800781 495.07342529296875 C 329.7122497558594 472.7685241699219 369.3840637207031 473.226318359375 353.5516052246094 462.9934997558594 C 331.78424072265625 436.6182556152344 348.35882568359375 400.4554443359375 375.1058349609375 313.43438720703125 C 285.42547607421875 143.92276000976562 463.5445251464844 95.8490219116211 408.04315185546875 321.4029235839844" fill="rgb(38, 50, 69)" opacity="0.3443855" stroke="rgb(91, 233, 66)" stroke-linecap="round" stroke-linejoin="round" stroke-opacity="0.5954912" stroke-width="0.0"/>
    <path d="M 576.382568359375 91.21227264404297 C 563.3018798828125 200.56480407714844 611.98291015625 137.91244506835938 575.7721557617188 288.3988952636719 C 569.6902465820312 107.47059631347656 552.5152587890625 186.34066772460938 560.9591674804688 98.07244110107422 C 564.0778198242188 50.602386474609375 418.3855895996094 235.85520935058594 412.9365539550781 191.2661590576172 C 518.4999389648438 110.1431884765625 545.6325073242188 39.88697052001953 576.382568359375 91.21227264404297" fill="rgb(5, 5, 19)" opacity="0.9524479" stroke="rgb(165, 36, 30)" stroke-linecap="round" stroke-linejoin="round" stroke-opacity="0.90795535" stroke-width="0.0"/>
    <path d="M 401.4773254394531 459.1685485839844 C 427.6860656738281 471.2326354980469 428.4346923828125 486.9423522949219 397.09417724609375 507.3909912109375 C 373.6170654296875 509.9706726074219 361.1097717285156 502.8807373046875 348.2070007324219 485.2229309082031 C 349.0448913574219 441.1593017578125 390.56390380859375 476.85784912109375 404.5696105957031 431.3171081542969 C 409.13897705078125 431.9822082519531 413.6069641113281 437.85198974609375 401.4773254394531 459.1685485839844" fill="rgb(17, 16, 29)" opacity="1.0" stroke="rgb(193, 39, 18)" stroke-linecap="round" stroke-linejoin="round" stroke-opacity="0.9698205" stroke-width="0.0"/>
    <path d="M 431.4336853027344 494.91436767578125 C 483.9832458496094 420.48333740234375 468.32769775390625 553.7402954101562 342.1369934082031 510.87786865234375 C 247.89852905273438 469.1722106933594 451.2760314941406 553.9304809570312 415.47021484375 459.99462890625 C 433.4977111816406 450.21246337890625 410.2823791503906 370.7109375 419.61090087890625 382.1429138183594 C 433.6002197265625 408.02642822265625 453.3822937011719 460.754638671875 431.4336853027344 494.91436767578125" fill="rgb(255, 251, 228)" opacity="0.9673098" stroke="rgb(52, 169, 171)" stroke-linecap="round" stroke-linejoin="round" stroke-opacity="0.192621" stroke-width="0.0"/>
    <path d="M 539.236083984375 76.74921417236328 C 443.4410705566406 166.44871520996094 426.4413146972656 184.08236694335938 412.57220458984375 182.47727966308594 C 378.78753662109375 169.9356689453125 332.339599609375 224.4357452392578 268.9667663574219 0.6965921521186829 C 332.0149230957031 -15.60694408416748 376.18634033203125 -29.36037254333496 768.5590209960938 0.4924969971179962 C 599.5619506835938 274.68963623046875 597.0806884765625 40.14313507080078 539.236083984375 76.74921417236328" fill="rgb(131, 164, 183)" opacity="0.95187" stroke="rgb(123, 194, 71)" stroke-linecap="round" stroke-linejoin="round" stroke-opacity="0.36938947" stroke-width="0.0"/>
    <path d="M 341.1143493652344 127.3509292602539 C 403.8919372558594 179.2760772705078 378.8971862792969 201.85614013671875 328.27490234375 155.34317016601562 C 189.74354553222656 48.59832763671875 337.2757873535156 173.4182586669922 258.7485656738281 195.13339233398438 C 67.6646728515625 259.4263610839844 -8.786999702453613 303.81964111328125 -30.235780715942383 2.774369955062866 C 494.682861328125 -39.5033073425293 404.1954040527344 56.44111633300781 341.1143493652344 127.3509292602539" fill="rgb(216, 195, 183)" opacity="1.0" stroke="rgb(114, 52, 25)" stroke-linecap="round" stroke-linejoin="round" stroke-opacity="0.83143497" stroke-width="0.0"/>
    <path d="M 780.2732543945312 446.7800598144531 C 780.2188110351562 566.7095336914062 776.7157592773438 568.5521240234375 743.2972412109375 600.2474975585938 C 687.3814086914062 589.6593627929688 688.0430908203125 588.2671508789062 665.62841796875 591.0072021484375 C 669.7686157226562 478.27130126953125 673.7308959960938 475.3099365234375 770.2014770507812 359.1245422363281 C 834.2007446289062 380.12554931640625 791.75537109375 414.3232116699219 780.2732543945312 446.7800598144531" fill="rgb(111, 206, 248)" opacity="0.114218704" stroke="rgb(216, 106, 216)" stroke-linecap="round" stroke-linejoin="round" stroke-opacity="0.03302753" stroke-width="0.0"/>
    <path d="M 767.5726928710938 5.947555065155029 C 802.1410522460938 610.41357421875 715.266357421875 570.58447265625 688.8353881835938 560.014404296875 C 605.9834594726562 552.1370239257812 604.7422485351562 543.8325805664062 606.205078125 536.8720703125 C 626.5448608398438 496.462646484375 631.798828125 490.2983093261719 633.322998046875 372.510986328125 C 603.3120727539062 286.65869140625 488.6884460449219 47.009605407714844 767.5726928710938 5.947555065155029" fill="rgb(180, 238, 255)" opacity="0.36354408" stroke="rgb(61, 12, 226)" stroke-linecap="round" stroke-linejoin="round" stroke-opacity="0.02483352" stroke-width="0.0"/>
    <path d="M 310.42108154296875 139.888916015625 C 316.1201171875 191.24305725097656 295.82989501953125 180.63539123535156 259.3426818847656 100.54024505615234 C 138.0786590576172 65.6568832397461 315.45452880859375 136.03379821777344 201.17286682128906 312.40484619140625 C 118.47225189208984 99.04682159423828 214.2171173095703 52.60445785522461 239.05606079101562 67.87171936035156 C 268.2773742675781 90.63616180419922 270.9692687988281 94.77178192138672 310.42108154296875 139.888916015625" fill="rgb(14, 65, 103)" opacity="0.36046335" stroke="rgb(237, 51, 129)" stroke-linecap="round" stroke-linejoin="round" stroke-opacity="0.34229565" stroke-width="0.0"/>
    <path d="M 481.2084045410156 319.6103210449219 C 473.1150207519531 344.2037048339844 466.2059326171875 341.0882263183594 465.2953796386719 342.91778564453125 C 461.6842346191406 342.63543701171875 446.23095703125 347.8633117675781 455.7288818359375 304.2633361816406 C 461.8022155761719 291.7046203613281 447.1131896972656 350.6250915527344 470.51239013671875 334.51959228515625 C 467.957763671875 283.295166015625 430.5119323730469 300.17901611328125 481.2084045410156 319.6103210449219" fill="rgb(16, 8, 3)" opacity="0.96310717" stroke="rgb(89, 96, 33)" stroke-linecap="round" stroke-linejoin="round" stroke-opacity="0.01530962" stroke-width="0.0"/>
    <path d="M 137.72576904296875 384.4612121582031 C 153.85568237304688 806.8384399414062 334.8134460449219 864.53564453125 -94.61470031738281 645.2982788085938 C -12.08630084991455 554.7857666015625 -12.571045875549316 551.8613891601562 -21.044208526611328 512.6591186523438 C -42.1138916015625 510.01690673828125 -181.8060760498047 372.5249328613281 0.9915866255760193 170.75238037109375 C 316.970703125 211.23849487304688 159.28977966308594 222.7227783203125 137.72576904296875 384.4612121582031" fill="rgb(130, 164, 182)" opacity="0.8627404" stroke="rgb(66, 189, 237)" stroke-linecap="round" stroke-linejoin="round" stroke-opacity="0.66555125" stroke-width="0.0"/>
    <path d="M 354.2469787597656 462.9579162597656 C 357.5888671875 464.6728515625 328.53692626953125 480.9073181152344 369.0794677734375 505.3028564453125 C 352.9787292480469 538.731689453125 329.5116271972656 476.0909118652344 330.6175842285156 448.8347473144531 C 328.3241882324219 432.1278991699219 336.86663818359375 401.18463134765625 347.0896301269531 379.8149719238281 C 351.3538818359375 394.23394775390625 332.7812194824219 447.7072448730469 354.2469787597656 462.9579162597656" fill="rgb(254, 249, 226)" opacity="0.9803452" stroke="rgb(10, 15, 96)" stroke-linecap="round" stroke-linejoin="round" stroke-opacity="0.49195614" stroke-width="0.0"/>
    <path d="M 514.4569702148438 308.5007629394531 C 528.7198486328125 311.83807373046875 467.9073791503906 306.7375183105469 455.0224914550781 317.2021484375 C 433.7431640625 320.5476379394531 425.01922607421875 364.0895690917969 426.58148193359375 336.2144470214844 C 436.721923828125 302.3703308105469 458.15625 294.0545654296875 467.2341003417969 292.61102294921875 C 478.8747863769531 288.3603820800781 502.5812683105469 295.33367919921875 514.4569702148438 308.5007629394531" fill="rgb(249, 244, 226)" opacity="0.9998817" stroke="rgb(249, 97, 254)" stroke-linecap="round" stroke-linejoin="round" stroke-opacity="0.72148997" stroke-width="0.0"/>
    <path d="M 670.8574829101562 609.2752685546875 C 633.1368408203125 585.6798706054688 645.0943603515625 597.4671020507812 476.753173828125 607.2536010742188 C 523.0545654296875 579.5916137695312 537.0722045898438 579.3924560546875 569.5831298828125 524.615234375 C 592.3223876953125 489.4859619140625 594.9553833007812 471.9964599609375 598.32666015625 449.4989929199219 C 677.7825317382812 407.36102294921875 655.9945068359375 453.6304931640625 670.8574829101562 609.2752685546875" fill="rgb(131, 162, 180)" opacity="0.941676" stroke="rgb(252, 10, 254)" stroke-linecap="round" stroke-linejoin="round" stroke-opacity="0.037937045" stroke-width="0.0"/>
    <path d="M 439.72711181640625 168.7254180908203 C 425.22393798828125 191.28128051757812 387.5940856933594 177.04554748535156 394.9534912109375 181.44589233398438 C 394.4162292480469 179.2679901123047 365.2044677734375 184.72007751464844 325.6285400390625 173.3622589111328 C 307.0732727050781 91.55860900878906 338.9046325683594 126.15461730957031 405.66290283203125 144.88815307617188 C 422.13409423828125 145.44898986816406 434.15576171875 142.92860412597656 439.72711181640625 168.7254180908203" fill="rgb(129, 163, 182)" opacity="0.95630187" stroke="rgb(42, 51, 187)" stroke-linecap="round" stroke-linejoin="round" stroke-opacity="0.9072496" stroke-width="0.0"/>
    <path d="M 600.0512084960938 338.7572937011719 C 669.38525390625 370.2590026855469 576.5518798828125 360.35882568359375 572.4093627929688 358.5588073730469 C 513.8026123046875 324.27679443359375 540.978759765625 323.0655212402344 443.9857482910156 324.6695861816406 C 452.889892578125 320.6923522949219 456.293701171875 308.0377502441406 525.0093383789062 311.638916015625 C 579.62109375 335.68994140625 538.498046875 332.1187438964844 600.0512084960938 338.7572937011719" fill="rgb(22, 24, 38)" opacity="0.9833003" stroke="rgb(181, 252, 223)" stroke-linecap="round" stroke-linejoin="round" stroke-opacity="0.65475583" stroke-width="0.0"/>
    <path d="M 567.9110717773438 255.0433349609375 C 571.8467407226562 259.27630615234375 601.4254150390625 251.57757568359375 577.3419189453125 277.6806945800781 C 522.7617797851562 257.99859619140625 455.3966369628906 187.22067260742188 492.9782409667969 167.31198120117188 C 500.6982421875 218.68345642089844 536.1580810546875 230.88851928710938 556.8428955078125 250.8327178955078 C 530.1625366210938 227.54156494140625 546.2914428710938 243.90965270996094 567.9110717773438 255.0433349609375" fill="rgb(17, 19, 31)" opacity="1.0" stroke="rgb(35, 121, 138)" stroke-linecap="round" stroke-linejoin="round" stroke-opacity="0.7146088" stroke-width="0.0"/>
    <path d="M 425.69781494140625 181.47657775878906 C 426.704345703125 203.27491760253906 433.123779296875 196.33856201171875 358.4640808105469 196.7002410888672 C 351.5155029296875 194.68695068359375 334.1210021972656 194.02365112304688 257.25750732421875 118.83264923095703 C 253.90748596191406 84.67711639404297 269.33282470703125 113.9748306274414 326.5541687011719 157.02708435058594 C 367.8608093261719 187.44847106933594 338.5090026855469 180.51629638671875 425.69781494140625 181.47657775878906" fill="rgb(10, 11, 26)" opacity="0.985352" stroke="rgb(13, 192, 126)" stroke-linecap="round" stroke-linejoin="round" stroke-opacity="0.82795167" stroke-width="0.0"/>
    <path d="M 346.5630187988281 498.79473876953125 C 334.5069580078125 541.0343017578125 252.9610137939453 386.3876647949219 360.6487731933594 563.16845703125 C 275.50360107421875 507.559326171875 313.0213317871094 485.3547058105469 272.6284484863281 446.75067138671875 C 250.7244415283203 397.2452697753906 255.79299926757812 416.62384033203125 286.1449890136719 401.64788818359375 C 329.33990478515625 399.6026611328125 282.7137451171875 471.222412109375 346.5630187988281 498.79473876953125" fill="rgb(253, 249, 227)" opacity="0.98114145" stroke="rgb(20, 232, 179)" stroke-linecap="round" stroke-linejoin="round" stroke-opacity="0.13024494" stroke-width="0.0"/>
    <path d="M 241.27545166015625 233.17013549804688 C 227.11952209472656 242.74517822265625 223.69638061523438 248.31448364257812 202.5426025390625 255.81346130371094 C 201.28758239746094 260.05804443359375 201.5939483642578 255.80661010742188 198.89060974121094 209.1869659423828 C 202.3031005859375 176.76625061035156 206.24961853027344 187.7293243408203 221.51004028320312 145.998046875 C 202.7744140625 200.9638214111328 243.4584503173828 229.0044708251953 241.27545166015625 233.17013549804688" fill="rgb(255, 251, 226)" opacity="0.965878" stroke="rgb(239, 250, 13)" stroke-linecap="round" stroke-linejoin="round" stroke-opacity="0.3439759" stroke-width="0.0"/>
    <path d="M 256.771728515625 238.91864013671875 C 244.3245849609375 250.89886474609375 237.17015075683594 254.416015625 226.7364501953125 262.6173095703125 C 221.98214721679688 261.61376953125 220.6320343017578 258.2391052246094 213.5896759033203 252.6333465576172 C 226.35043334960938 246.67041015625 229.9813995361328 241.4603729248047 240.6433563232422 235.26022338867188 C 260.05694580078125 215.80581665039062 264.21893310546875 216.1517333984375 256.771728515625 238.91864013671875" fill="rgb(7, 6, 21)" opacity="0.8233874" stroke="rgb(10, 40, 201)" stroke-linecap="round" stroke-linejoin="round" stroke-opacity="0.4168148" stroke-width="0.0"/>
    <path d="M 235.1618194580078 255.25863647460938 C 227.88577270507812 258.886962890625 229.57315063476562 261.0395812988281 221.26622009277344 265.32000732421875 C 203.8082275390625 273.7879943847656 205.04571533203125 276.5665588378906 215.89590454101562 263.7975769042969 C 219.0299530029297 256.14349365234375 219.48985290527344 253.05421447753906 228.73709106445312 243.83827209472656 C 243.4635772705078 231.23785400390625 248.04161071777344 247.32098388671875 235.1618194580078 255.25863647460938" fill="rgb(9, 11, 27)" opacity="0.73257107" stroke="rgb(112, 149, 110)" stroke-linecap="round" stroke-linejoin="round" stroke-opacity="0.1284956" stroke-width="0.0"/>
    <path d="M 365.5810852050781 221.56304931640625 C 359.7623596191406 239.4766082763672 356.7620544433594 244.04429626464844 353.3145751953125 244.9247283935547 C 321.9608459472656 231.14610290527344 323.1809997558594 224.69436645507812 312.42022705078125 230.6378631591797 C 284.6995544433594 233.8414306640625 287.75250244140625 175.05032348632812 278.31829833984375 137.85145568847656 C 359.6644287109375 203.3897705078125 367.3323974609375 201.85386657714844 365.5810852050781 221.56304931640625" fill="rgb(72, 83, 98)" opacity="0.88829476" stroke="rgb(105, 14, 27)" stroke-linecap="round" stroke-linejoin="round" stroke-opacity="0.10163029" stroke-width="0.0"/>
    <path d="M 333.2171630859375 506.06585693359375 C 351.8382873535156 517.2266845703125 332.54119873046875 528.2684326171875 318.8226318359375 511.2967529296875 C 312.9147644042969 501.1311950683594 309.4429016113281 497.0454406738281 305.7648010253906 485.5848693847656 C 299.3497314453125 473.1447448730469 307.1856689453125 468.46795654296875 309.6064453125 474.7403564453125 C 318.3249206542969 488.6558532714844 319.061767578125 495.8113708496094 333.2171630859375 506.06585693359375" fill="rgb(48, 41, 44)" opacity="0.9528542" stroke="rgb(206, 145, 170)" stroke-linecap="round" stroke-linejoin="round" stroke-opacity="0.5173446" stroke-width="0.0"/>
    <path d="M 272.0360412597656 226.1688690185547 C 263.4102478027344 232.4842071533203 261.50274658203125 236.86631774902344 250.8749237060547 243.2412872314453 C 240.4483184814453 255.53265380859375 229.57179260253906 249.86004638671875 242.57223510742188 231.84202575683594 C 234.20037841796875 218.16714477539062 249.9712371826172 232.07797241210938 259.47088623046875 220.5174102783203 C 273.3885192871094 201.1473388671875 278.2496643066406 210.9416961669922 272.0360412597656 226.1688690185547" fill="rgb(0, 1, 22)" opacity="0.49774426" stroke="rgb(136, 34, 241)" stroke-linecap="round" stroke-linejoin="round" stroke-opacity="0.4703315" stroke-width="0.0"/>
    <path d="M 394.63812255859375 674.7569580078125 C 389.92962646484375 687.4287109375 388.8516845703125 687.7142333984375 388.0554504394531 690.0182495117188 C 384.58831787109375 683.1845703125 381.9598693847656 679.3002319335938 379.1646728515625 673.7921142578125 C 370.0254821777344 656.9092407226562 366.9380798339844 654.9636840820312 353.0919494628906 637.60888671875 C 461.8594055175781 626.605712890625 397.2843322753906 648.3392333984375 394.63812255859375 674.7569580078125" fill="rgb(254, 250, 231)" opacity="0.9631941" stroke="rgb(135, 40, 46)" stroke-linecap="round" stroke-linejoin="round" stroke-opacity="0.8975585" stroke-width="0.0"/>
    <path d="M 244.13865661621094 197.9369659423828 C 248.4416046142578 221.1173858642578 267.9515075683594 212.82461547851562 250.29852294921875 224.64942932128906 C 241.5864715576172 222.28419494628906 226.40594482421875 199.7694854736328 222.09466552734375 180.28134155273438 C 209.9913787841797 142.83206176757812 231.9950714111328 101.86819458007812 219.68675231933594 161.01829528808594 C 242.0959930419922 184.34759521484375 226.22169494628906 178.5374298095703 244.13865661621094 197.9369659423828" fill="rgb(251, 244, 219)" opacity="1.0" stroke="rgb(126, 182, 148)" stroke-linecap="round" stroke-linejoin="round" stroke-opacity="0.49002603" stroke-width="0.0"/>
    <path d="M 219.975341796875 123.46149444580078 C 216.87342834472656 184.1327362060547 208.64183044433594 154.16281127929688 194.68482971191406 213.6635284423828 C 177.5532684326172 192.8784637451172 186.58682250976562 188.724609375 205.7865753173828 139.7814178466797 C 197.16233825683594 77.21023559570312 216.0280303955078 35.72774887084961 295.66156005859375 144.6834259033203 C 239.5182647705078 118.70934295654297 215.46401977539062 56.37118911743164 219.975341796875 123.46149444580078" fill="rgb(10, 11, 23)" opacity="0.9727474" stroke="rgb(20, 156, 220)" stroke-linecap="round" stroke-linejoin="round" stroke-opacity="0.25843313" stroke-width="0.0"/>
    <path d="M 442.41668701171875 525.1531982421875 C 444.320556640625 533.2989501953125 430.58868408203125 559.639404296875 387.865966796875 575.66015625 C 371.6564636230469 570.1619873046875 345.44842529296875 558.7100219726562 338.69818115234375 533.4158325195312 C 347.3966979980469 542.4500122070312 375.00567626953125 561.9200439453125 387.7293395996094 563.5884399414062 C 383.2362060546875 562.6905517578125 388.8118591308594 571.0444946289062 442.41668701171875 525.1531982421875" fill="rgb(253, 249, 228)" opacity="0.9820117" stroke="rgb(18, 144, 105)" stroke-linecap="round" stroke-linejoin="round" stroke-opacity="0.09896711" stroke-width="0.0"/>
    <path d="M 408.5904846191406 241.90562438964844 C 392.0139465332031 252.90306091308594 392.2370300292969 227.3497314453125 377.40728759765625 250.19400024414062 C 361.2297668457031 254.91822814941406 361.3390808105469 254.7491455078125 366.0332946777344 245.46612548828125 C 370.5855407714844 227.06082153320312 385.29095458984375 219.06600952148438 384.10552978515625 221.8893585205078 C 393.5506591796875 220.81236267089844 399.30670166015625 224.30767822265625 408.5904846191406 241.90562438964844" fill="rgb(18, 20, 34)" opacity="0.9618697" stroke="rgb(237, 236, 64)" stroke-linecap="round" stroke-linejoin="round" stroke-opacity="0.36370343" stroke-width="0.0"/>
    <path d="M 441.8101501464844 525.7487182617188 C 405.6982421875 566.460693359375 376.4228515625 563.090576171875 386.1974792480469 562.8412475585938 C 371.4383239746094 557.9385986328125 366.6341247558594 552.4302368164062 355.26824951171875 547.3086547851562 C 328.28759765625 525.2265014648438 333.1427001953125 534.4669799804688 404.8211975097656 533.5977172851562 C 409.13372802734375 537.0805053710938 422.3131408691406 511.3290710449219 441.8101501464844 525.7487182617188" fill="rgb(28, 24, 30)" opacity="0.86320364" stroke="rgb(56, 204, 207)" stroke-linecap="round" stroke-linejoin="round" stroke-opacity="0.940067" stroke-width="0.0"/>
    <path d="M 336.4018249511719 345.61749267578125 C 325.4092102050781 325.3433837890625 311.1800537109375 320.0585021972656 300.0810546875 324.8573303222656 C 301.61627197265625 329.7313232421875 298.28216552734375 326.83905029296875 295.9464416503906 322.04656982421875 C 294.7264709472656 314.04443359375 293.518310546875 316.914306640625 289.5099792480469 309.4481506347656 C 306.31640625 314.7806396484375 330.99981689453125 310.8930969238281 336.4018249511719 345.61749267578125" fill="rgb(43, 44, 63)" opacity="0.73741746" stroke="rgb(21, 43, 56)" stroke-linecap="round" stroke-linejoin="round" stroke-opacity="0.11166217" stroke-width="0.0"/>
    <path d="M 270.3860168457031 194.70883178710938 C 274.2893371582031 198.08035278320312 273.4170837402344 196.79180908203125 267.6728515625 207.02479553222656 C 263.4169921875 213.13177490234375 257.49371337890625 209.41065979003906 243.30422973632812 189.84677124023438 C 239.0017547607422 171.103271484375 234.40740966796875 186.8254852294922 254.191162109375 189.27464294433594 C 269.61932373046875 195.88992309570312 266.6247253417969 189.68531799316406 270.3860168457031 194.70883178710938" fill="rgb(253, 245, 217)" opacity="1.0" stroke="rgb(11, 216, 31)" stroke-linecap="round" stroke-linejoin="round" stroke-opacity="0.71865165" stroke-width="0.0"/>
    <path d="M 284.9027099609375 314.5042419433594 C 284.14898681640625 317.4004211425781 274.2435607910156 317.21990966796875 256.0700988769531 316.7286071777344 C 265.6105651855469 321.9967346191406 259.447265625 318.51385498046875 251.0757293701172 310.8251037597656 C 258.14434814453125 305.7615051269531 271.0953674316406 309.201171875 266.08935546875 313.17510986328125 C 262.5359802246094 307.2589416503906 269.07861328125 309.8572998046875 284.9027099609375 314.5042419433594" fill="rgb(75, 74, 89)" opacity="0.7771299" stroke="rgb(227, 195, 14)" stroke-linecap="round" stroke-linejoin="round" stroke-opacity="0.39185756" stroke-width="0.0"/>
    <path d="M 272.6622009277344 216.34007263183594 C 268.3902893066406 228.0551300048828 266.67156982421875 232.93348693847656 270.0937194824219 223.58425903320312 C 256.55535888671875 219.58323669433594 252.73147583007812 222.92698669433594 263.63800048828125 226.0507049560547 C 258.9067077636719 218.35792541503906 232.9097900390625 196.85887145996094 236.66615295410156 178.18264770507812 C 265.2294006347656 223.77442932128906 264.9631042480469 214.5281219482422 272.6622009277344 216.34007263183594" fill="rgb(77, 63, 70)" opacity="0.82914495" stroke="rgb(49, 38, 210)" stroke-linecap="round" stroke-linejoin="round" stroke-opacity="0.1451765" stroke-width="0.0"/>
    <path d="M 402.66717529296875 532.4105834960938 C 404.3453063964844 564.4839477539062 387.6402282714844 561.9461669921875 379.2576904296875 559.5220336914062 C 372.5915222167969 558.2698364257812 359.967529296875 554.2828979492188 336.6634826660156 532.3794555664062 C 331.0980224609375 515.0217895507812 335.18182373046875 511.0652160644531 342.7512512207031 518.50390625 C 391.3235168457031 530.705078125 398.5329895019531 531.5292358398438 402.66717529296875 532.4105834960938" fill="rgb(4, 5, 24)" opacity="0.44722375" stroke="rgb(193, 74, 20)" stroke-linecap="round" stroke-linejoin="round" stroke-opacity="0.65987945" stroke-width="0.0"/>
    <path d="M 333.2249450683594 339.5693054199219 C 314.8501281738281 314.4387512207031 300.2115478515625 326.65283203125 297.6768493652344 323.2695007324219 C 273.70953369140625 324.19439697265625 283.1197204589844 326.281982421875 270.0945129394531 314.75628662109375 C 268.50030517578125 308.9815673828125 268.897705078125 309.89630126953125 290.7699890136719 310.5318298339844 C 296.6357727050781 320.23052978515625 313.3693542480469 303.11834716796875 333.2249450683594 339.5693054199219" fill="rgb(15, 9, 11)" opacity="0.65467495" stroke="rgb(154, 254, 53)" stroke-linecap="round" stroke-linejoin="round" stroke-opacity="0.6987827" stroke-width="0.0"/>
    <path d="M 453.574951171875 227.81231689453125 C 402.4985656738281 250.14491271972656 422.4618225097656 280.4740905761719 398.31854248046875 271.0601806640625 C 392.0067138671875 236.51248168945312 386.2991027832031 233.5350799560547 368.1063232421875 235.75900268554688 C 388.1616516113281 240.0630340576172 368.2030334472656 225.93983459472656 413.6728515625 245.59176635742188 C 394.0292053222656 243.92059326171875 464.8930969238281 183.122314453125 453.574951171875 227.81231689453125" fill="rgb(16, 18, 31)" opacity="0.9214805" stroke="rgb(108, 140, 150)" stroke-linecap="round" stroke-linejoin="round" stroke-opacity="0.40409654" stroke-width="0.0"/>
    <path d="M 377.5914001464844 250.86724853515625 C 376.314697265625 268.9801330566406 376.37493896484375 270.9588928222656 363.9875793457031 264.47265625 C 354.8731994628906 259.9697265625 354.1329650878906 249.94557189941406 339.0198059082031 237.63113403320312 C 324.7643127441406 228.3944549560547 325.156005859375 226.66021728515625 348.889892578125 224.3233642578125 C 371.1224365234375 245.5462188720703 366.4587707519531 252.9745330810547 377.5914001464844 250.86724853515625" fill="rgb(19, 21, 36)" opacity="1.0" stroke="rgb(211, 8, 221)" stroke-linecap="round" stroke-linejoin="round" stroke-opacity="0.2499952" stroke-width="0.0"/>
    <path d="M 301.044677734375 312.5321350097656 C 284.38543701171875 326.6539611816406 283.5437927246094 317.9859619140625 277.9054870605469 324.7673034667969 C 246.32789611816406 322.2611389160156 256.8527526855469 327.07965087890625 237.6182098388672 328.2400207519531 C 248.15615844726562 310.7997741699219 248.8646240234375 314.56005859375 256.5462646484375 309.16156005859375 C 279.8986511230469 310.4267578125 287.53326416015625 312.1012268066406 301.044677734375 312.5321350097656" fill="rgb(24, 32, 56)" opacity="0.763908" stroke="rgb(227, 188, 144)" stroke-linecap="round" stroke-linejoin="round" stroke-opacity="0.60087067" stroke-width="0.0"/>
    <path d="M 242.33419799804688 332.1119689941406 C 212.51312255859375 345.9300842285156 220.83570861816406 364.2848205566406 177.859130859375 359.9990234375 C 150.9335479736328 355.1231384277344 148.60720825195312 400.64111328125 139.90267944335938 398.29449462890625 C 127.12176513671875 324.687255859375 227.97381591796875 329.03228759765625 185.33436584472656 348.37384033203125 C 246.41241455078125 316.35894775390625 237.12306213378906 314.00250244140625 242.33419799804688 332.1119689941406" fill="rgb(23, 25, 37)" opacity="0.9854033" stroke="rgb(123, 33, 248)" stroke-linecap="round" stroke-linejoin="round" stroke-opacity="0.4331801" stroke-width="0.0"/>
    <path d="M 255.1842498779297 320.32659912109375 C 244.7064971923828 332.21746826171875 234.37588500976562 337.1675109863281 220.68533325195312 349.3461608886719 C 207.27130126953125 357.9920349121094 196.11929321289062 365.70068359375 192.41802978515625 335.8089599609375 C 220.7418212890625 336.85345458984375 225.91221618652344 319.90673828125 245.90899658203125 311.4855041503906 C 254.69517517089844 307.03546142578125 249.75433349609375 308.8431396484375 255.1842498779297 320.32659912109375" fill="rgb(17, 22, 38)" opacity="0.7591107" stroke="rgb(8, 135, 201)" stroke-linecap="round" stroke-linejoin="round" stroke-opacity="0.93337214" stroke-width="0.0"/>
    <path d="M 363.02801513671875 517.3943481445312 C 365.958251953125 550.5086669921875 345.102783203125 543.42626953125 327.7321472167969 522.7362060546875 C 320.8337097167969 514.7546997070312 318.4751281738281 511.133544921875 318.0303649902344 508.1188049316406 C 312.5645446777344 500.64068603515625 301.76446533203125 480.30133056640625 314.0087890625 486.195068359375 C 327.1755676269531 506.7256164550781 335.4123229980469 512.3911743164062 363.02801513671875 517.3943481445312" fill="rgb(19, 18, 29)" opacity="0.9682276" stroke="rgb(31, 224, 10)" stroke-linecap="round" stroke-linejoin="round" stroke-opacity="0.46859333" stroke-width="0.0"/>
    <path d="M 326.04510498046875 500.821533203125 C 310.15472412109375 474.4099426269531 298.8295593261719 464.36126708984375 307.5323791503906 489.4169616699219 C 310.5586853027344 488.7825622558594 303.9732360839844 492.63079833984375 310.1899719238281 491.90313720703125 C 305.7945861816406 492.96356201171875 297.1068420410156 467.7112121582031 307.16033935546875 472.06976318359375 C 310.4267272949219 468.5924987792969 314.8642272949219 491.4231262207031 326.04510498046875 500.821533203125" fill="rgb(134, 119, 98)" opacity="0.62174904" stroke="rgb(84, 178, 19)" stroke-linecap="round" stroke-linejoin="round" stroke-opacity="0.5345854" stroke-width="0.0"/>
    <path d="M 467.7795715332031 471.00531005859375 C 464.3608703613281 532.8515625 395.2043151855469 545.3388061523438 400.7250671386719 558.7094116210938 C 371.7412414550781 538.4854736328125 367.398681640625 539.534423828125 357.728515625 515.2828979492188 C 393.24945068359375 520.96337890625 420.8562316894531 513.1802368164062 376.4010925292969 520.5233154296875 C 450.1319580078125 509.4115905761719 433.8157653808594 516.4332275390625 467.7795715332031 471.00531005859375" fill="rgb(2, 1, 11)" opacity="0.8188009" stroke="rgb(15, 136, 27)" stroke-linecap="round" stroke-linejoin="round" stroke-opacity="0.91669506" stroke-width="0.0"/>
    <path d="M 224.3753662109375 263.6662902832031 C 222.59814453125 260.5307922363281 196.8905029296875 288.9495849609375 184.24082946777344 266.23590087890625 C 190.63551330566406 249.77285766601562 185.7791290283203 275.24615478515625 185.0758056640625 197.16587829589844 C 209.36380004882812 147.57044982910156 194.37237548828125 202.5970001220703 200.98541259765625 258.74774169921875 C 224.83786010742188 246.12258911132812 229.2295379638672 249.5046844482422 224.3753662109375 263.6662902832031" fill="rgb(10, 11, 21)" opacity="0.97071296" stroke="rgb(81, 51, 114)" stroke-linecap="round" stroke-linejoin="round" stroke-opacity="0.7879493" stroke-width="0.0"/>
    <path d="M 344.12261962890625 220.9668426513672 C 355.6718444824219 230.79635620117188 343.9911804199219 241.27667236328125 327.83685302734375 230.55528259277344 C 319.9154052734375 227.60614013671875 320.2932434082031 225.27603149414062 317.3111267089844 221.3136444091797 C 318.43902587890625 210.0229034423828 327.0172424316406 213.2388458251953 328.6258544921875 214.51199340820312 C 320.9029846191406 208.75221252441406 331.3013610839844 213.1527099609375 344.12261962890625 220.9668426513672" fill="rgb(17, 19, 33)" opacity="0.98647887" stroke="rgb(136, 120, 145)" stroke-linecap="round" stroke-linejoin="round" stroke-opacity="0.7097418" stroke-width="0.0"/>
    <path d="M 302.6896057128906 317.6863098144531 C 299.277099609375 333.04400634765625 311.7028503417969 343.9630432128906 300.0726318359375 337.095458984375 C 293.68011474609375 323.6120300292969 290.6525573730469 319.72113037109375 291.56744384765625 310.8017272949219 C 290.8814392089844 317.7130126953125 290.7352600097656 314.2866516113281 289.7896728515625 319.69708251953125 C 309.200439453125 320.24664306640625 304.2038269042969 318.4002380371094 302.6896057128906 317.6863098144531" fill="rgb(16, 5, 0)" opacity="0.82089806" stroke="rgb(45, 99, 86)" stroke-linecap="round" stroke-linejoin="round" stroke-opacity="0.5942614" stroke-width="0.0"/>
    <path d="M 292.5140380859375 200.16751098632812 C 279.9858703613281 222.30335998535156 267.8829345703125 227.95082092285156 266.1604309082031 229.9528045654297 C 247.5064239501953 248.71481323242188 251.86497497558594 244.30345153808594 258.9877624511719 215.94314575195312 C 251.2274932861328 222.62973022460938 277.029052734375 209.12498474121094 284.5869140625 167.97781372070312 C 289.5169677734375 166.37599182128906 302.1574401855469 167.64222717285156 292.5140380859375 200.16751098632812" fill="rgb(8, 10, 25)" opacity="0.9000449" stroke="rgb(191, 47, 179)" stroke-linecap="round" stroke-linejoin="round" stroke-opacity="0.1515939" stroke-width="0.0"/>
    <path d="M 283.74505615234375 314.425048828125 C 349.6481628417969 324.94891357421875 301.8326416015625 322.8769836425781 258.98150634765625 323.6412353515625 C 239.90673828125 330.0838623046875 238.53012084960938 333.8193054199219 229.66552734375 342.2328186035156 C 228.3662567138672 317.7217102050781 234.60128784179688 318.6732177734375 251.43194580078125 310.20355224609375 C 289.6381530761719 306.32305908203125 262.5384521484375 315.430419921875 283.74505615234375 314.425048828125" fill="rgb(15, 17, 29)" opacity="0.7802194" stroke="rgb(243, 244, 181)" stroke-linecap="round" stroke-linejoin="round" stroke-opacity="0.40238255" stroke-width="0.0"/>
    <path d="M 317.2926940917969 325.8590393066406 C 331.1831970214844 337.98858642578125 311.6130676269531 343.6487121582031 310.3265380859375 342.33447265625 C 305.1476135253906 343.47705078125 302.3364562988281 334.7857971191406 301.03350830078125 334.75762939453125 C 316.5412292480469 339.9644470214844 317.1104736328125 328.9222412109375 315.7425231933594 331.8154296875 C 319.9904479980469 326.8473205566406 304.4007568359375 313.9246520996094 317.2926940917969 325.8590393066406" fill="rgb(18, 7, 0)" opacity="0.9287867" stroke="rgb(95, 116, 198)" stroke-linecap="round" stroke-linejoin="round" stroke-opacity="0.10840876" stroke-width="0.0"/>
    <path d="M 379.3528747558594 254.64218139648438 C 375.4878845214844 271.4761657714844 374.3348083496094 275.9518127441406 373.5899353027344 274.0061950683594 C 357.62176513671875 270.70135498046875 365.5128173828125 276.3481750488281 358.55419921875 261.5262756347656 C 353.2125244140625 256.8040771484375 359.8668212890625 243.49960327148438 392.4688720703125 234.0024871826172 C 389.0660705566406 245.84097290039062 385.01898193359375 234.30152893066406 379.3528747558594 254.64218139648438" fill="rgb(18, 20, 33)" opacity="0.9235583" stroke="rgb(141, 25, 47)" stroke-linecap="round" stroke-linejoin="round" stroke-opacity="0.9692175" stroke-width="0.0"/>
    <path d="M 123.0 65.0 C 122.33012390136719 67.5 120.5 69.33012390136719 118.0 70.0 C 115.5 69.33012390136719 113.66987609863281 67.5 113.0 65.0 C 113.66987609863281 62.5 115.5 60.66987228393555 118.0 60.0 C 120.5 60.66987228393555 122.33012390136719 62.5 123.0 65.0" fill="rgb(129, 162, 180)" opacity="1.0" stroke="rgb(35, 92, 127)" stroke-linecap="round" stroke-linejoin="round" stroke-opacity="0.0057576466" stroke-width="0.0"/>
    <path d="M 133.0 81.0 C 132.3301239013672 83.5 130.5 85.33012390136719 128.0 86.0 C 125.5 85.33012390136719 123.66987609863281 83.5 123.0 81.0 C 123.66987609863281 78.5 125.5 76.66987609863281 128.0 76.0 C 130.5 76.66987609863281 132.3301239013672 78.5 133.0 81.0" fill="rgb(128, 160, 178)" opacity="1.0" stroke="rgb(76, 201, 241)" stroke-linecap="round" stroke-linejoin="round" stroke-opacity="0.029965645" stroke-width="0.0"/>
    <path d="M 138.0 44.0 C 137.3301239013672 46.5 135.5 48.33012771606445 133.0 49.0 C 130.5 48.33012771606445 128.6698760986328 46.5 128.0 44.0 C 128.6698760986328 41.5 130.5 39.66987228393555 133.0 39.0 C 135.5 39.66987228393555 137.3301239013672 41.5 138.0 44.0" fill="rgb(128, 161, 179)" opacity="1.0" stroke="rgb(44, 221, 115)" stroke-linecap="round" stroke-linejoin="round" stroke-opacity="0.82130307" stroke-width="0.0"/>
    <path d="M 34.0 72.0 C 33.33012771606445 74.5 31.5 76.33012390136719 29.0 77.0 C 26.5 76.33012390136719 24.669872283935547 74.5 24.0 72.0 C 24.669872283935547 69.5 26.5 67.66987609863281 29.0 67.0 C 31.5 67.66987609863281 33.33012771606445 69.5 34.0 72.0" fill="rgb(130, 164, 183)" opacity="1.0" stroke="rgb(170, 47, 174)" stroke-linecap="round" stroke-linejoin="round" stroke-opacity="0.3312825" stroke-width="0.0"/>
    <path d="M 63.0 54.0 C 62.33012771606445 56.5 60.5 58.33012771606445 58.0 59.0 C 55.5 58.33012771606445 53.66987228393555 56.5 53.0 54.0 C 53.66987228393555 51.5 55.5 49.66987228393555 58.0 49.0 C 60.5 49.66987228393555 62.33012771606445 51.5 63.0 54.0" fill="rgb(131, 164, 182)" opacity="1.0" stroke="rgb(107, 230, 216)" stroke-linecap="round" stroke-linejoin="round" stroke-opacity="0.9971111" stroke-width="0.0"/>
    <path d="M 100.0 61.0 C 99.33012390136719 63.5 97.5 65.33012390136719 95.0 66.0 C 92.5 65.33012390136719 90.66987609863281 63.5 90.0 61.0 C 90.66987609863281 58.5 92.5 56.66987228393555 95.0 56.0 C 97.5 56.66987228393555 99.33012390136719 58.5 100.0 61.0" fill="rgb(131, 163, 181)" opacity="1.0" stroke="rgb(173, 242, 188)" stroke-linecap="round" stroke-linejoin="round" stroke-opacity="0.301599" stroke-width="0.0"/>
    <path d="M 162.0 11.0 C 161.3301239013672 13.5 159.5 15.330126762390137 157.0 16.0 C 154.5 15.330126762390137 152.6698760986328 13.5 152.0 11.0 C 152.6698760986328 8.5 154.5 6.669872760772705 157.0 6.0 C 159.5 6.669872760772705 161.3301239013672 8.5 162.0 11.0" fill="rgb(128, 161, 178)" opacity="1.0" stroke="rgb(126, 252, 170)" stroke-linecap="round" stroke-linejoin="round" stroke-opacity="0.08763892" stroke-width="0.0"/>
    <path d="M 335.0 112.0 C 334.33013916015625 114.5 332.5 116.33012390136719 330.0 117.0 C 327.5 116.33012390136719 325.66986083984375 114.5 325.0 112.0 C 325.66986083984375 109.5 327.5 107.66987609863281 330.0 107.0 C 332.5 107.66987609863281 334.33013916015625 109.5 335.0 112.0" fill="rgb(129, 162, 180)" opacity="1.0" stroke="rgb(35, 170, 72)" stroke-linecap="round" stroke-linejoin="round" stroke-opacity="0.12342508" stroke-width="0.0"/>
    <path d="M 110.0 35.0 C 109.33012390136719 37.5 107.5 39.33012771606445 105.0 40.0 C 102.5 39.33012771606445 100.66987609863281 37.5 100.0 35.0 C 100.66987609863281 32.5 102.5 30.669872283935547 105.0 30.0 C 107.5 30.669872283935547 109.33012390136719 32.5 110.0 35.0" fill="rgb(130, 163, 181)" opacity="1.0" stroke="rgb(14, 227, 54)" stroke-linecap="round" stroke-linejoin="round" stroke-opacity="0.89765835" stroke-width="0.0"/>
    <path d="M 594.0 115.0 C 593.3301391601562 117.5 591.5 119.33012390136719 589.0 120.0 C 586.5 119.33012390136719 584.6698608398438 117.5 584.0 115.0 C 584.6698608398438 112.5 586.5 110.66987609863281 589.0 110.0 C 591.5 110.66987609863281 593.3301391601562 112.5 594.0 115.0" fill="rgb(132, 164, 182)" opacity="1.0" stroke="rgb(171, 98, 179)" stroke-linecap="round" stroke-linejoin="round" stroke-opacity="0.57269055" stroke-width="0.0"/>
    <path d="M 57.0 13.0 C 56.33012771606445 15.5 54.5 17.330127716064453 52.0 18.0 C 49.5 17.330127716064453 47.66987228393555 15.5 47.0 13.0 C 47.66987228393555 10.5 49.5 8.669873237609863 52.0 8.0 C 54.5 8.669873237609863 56.33012771606445 10.5 57.0 13.0" fill="rgb(125, 158, 174)" opacity="1.0" stroke="rgb(118, 221, 16)" stroke-linecap="round" stroke-linejoin="round" stroke-opacity="0.02642268" stroke-width="0.0"/>
    <path d="M 93.0 142.0 C 92.33012390136719 144.5 90.5 146.3301239013672 88.0 147.0 C 85.5 146.3301239013672 83.66987609863281 144.5 83.0 142.0 C 83.66987609863281 139.5 85.5 137.6698760986328 88.0 137.0 C 90.5 137.6698760986328 92.33012390136719 139.5 93.0 142.0" fill="rgb(128, 159, 177)" opacity="1.0" stroke="rgb(127, 6, 127)" stroke-linecap="round" stroke-linejoin="round" stroke-opacity="0.80258566" stroke-width="0.0"/>
    <path d="M 26.0 24.0 C 25.330127716064453 26.5 23.5 28.330127716064453 21.0 29.0 C 18.5 28.330127716064453 16.669872283935547 26.5 16.0 24.0 C 16.669872283935547 21.5 18.5 19.669872283935547 21.0 19.0 C 23.5 19.669872283935547 25.330127716064453 21.5 26.0 24.0" fill="rgb(129, 162, 179)" opacity="1.0" stroke="rgb(179, 153, 66)" stroke-linecap="round" stroke-linejoin="round" stroke-opacity="0.34446755" stroke-width="0.0"/>
    <path d="M 263.0 48.0 C 262.33013916015625 50.5 260.5 52.33012771606445 258.0 53.0 C 255.5 52.33012771606445 253.6698760986328 50.5 253.0 48.0 C 253.6698760986328 45.5 255.5 43.66987228393555 258.0 43.0 C 260.5 43.66987228393555 262.33013916015625 45.5 263.0 48.0" fill="rgb(131, 163, 180)" opacity="1.0" stroke="rgb(104, 16, 14)" stroke-linecap="round" stroke-linejoin="round" stroke-opacity="0.54599696" stroke-width="0.0"/>
    <path d="M 46.0 166.0 C 45.33012771606445 168.5 43.5 170.3301239013672 41.0 171.0 C 38.5 170.3301239013672 36.66987228393555 168.5 36.0 166.0 C 36.66987228393555 163.5 38.5 161.6698760986328 41.0 161.0 C 43.5 161.6698760986328 45.33012771606445 163.5 46.0 166.0" fill="rgb(132, 165, 184)" opacity="1.0" stroke="rgb(214, 58, 249)" stroke-linecap="round" stroke-linejoin="round" stroke-opacity="0.20857827" stroke-width="0.0"/>
    <path d="M 336.0 40.0 C 335.33013916015625 42.5 333.5 44.33012771606445 331.0 45.0 C 328.5 44.33012771606445 326.66986083984375 42.5 326.0 40.0 C 326.66986083984375 37.5 328.5 35.66987228393555 331.0 35.0 C 333.5 35.66987228393555 335.33013916015625 37.5 336.0 40.0" fill="rgb(132, 164, 182)" opacity="1.0" stroke="rgb(11, 36, 91)" stroke-linecap="round" stroke-linejoin="round" stroke-opacity="0.32522842" stroke-width="0.0"/>
    <path d="M 591.0 196.0 C 590.3301391601562 198.5 588.5 200.3301239013672 586.0 201.0 C 583.5 200.3301239013672 581.6698608398438 198.5 581.0 196.0 C 581.6698608398438 193.5 583.5 191.6698760986328 586.0 191.0 C 588.5 191.6698760986328 590.3301391601562 193.5 591.0 196.0" fill="rgb(13, 14, 25)" opacity="1.0" stroke="rgb(207, 0, 46)" stroke-linecap="round" stroke-linejoin="round" stroke-opacity="0.86578625" stroke-width="0.0"/>
    <path d="M 469.0 343.0 C 468.33013916015625 345.5 466.5 347.33013916015625 464.0 348.0 C 461.5 347.33013916015625 459.66986083984375 345.5 459.0 343.0 C 459.66986083984375 340.5 461.5 338.66986083984375 464.0 338.0 C 466.5 338.66986083984375 468.33013916015625 340.5 469.0 343.0" fill="rgb(221, 204, 186)" opacity="1.0" stroke="rgb(31, 227, 168)" stroke-linecap="round" stroke-linejoin="round" stroke-opacity="0.21405563" stroke-width="0.0"/>
    <path d="M 379.0 53.0 C 378.33013916015625 55.5 376.5 57.33012771606445 374.0 58.0 C 371.5 57.33012771606445 369.66986083984375 55.5 369.0 53.0 C 369.66986083984375 50.5 371.5 48.66987228393555 374.0 48.0 C 376.5 48.66987228393555 378.33013916015625 50.5 379.0 53.0" fill="rgb(134, 166, 184)" opacity="1.0" stroke="rgb(190, 207, 235)" stroke-linecap="round" stroke-linejoin="round" stroke-opacity="0.30967826" stroke-width="0.0"/>
    <path d="M 268.0 38.0 C 267.33013916015625 40.5 265.5 42.33012771606445 263.0 43.0 C 260.5 42.33012771606445 258.66986083984375 40.5 258.0 38.0 C 258.66986083984375 35.5 260.5 33.66987228393555 263.0 33.0 C 265.5 33.66987228393555 267.33013916015625 35.5 268.0 38.0" fill="rgb(131, 164, 182)" opacity="1.0" stroke="rgb(180, 105, 18)" stroke-linecap="round" stroke-linejoin="round" stroke-opacity="0.4002946" stroke-width="0.0"/>
    <path d="M 343.0 111.0 C 342.33013916015625 113.5 340.5 115.33012390136719 338.0 116.0 C 335.5 115.33012390136719 333.66986083984375 113.5 333.0 111.0 C 333.66986083984375 108.5 335.5 106.66987609863281 338.0 106.0 C 340.5 106.66987609863281 342.33013916015625 108.5 343.0 111.0" fill="rgb(128, 161, 179)" opacity="1.0" stroke="rgb(57, 87, 58)" stroke-linecap="round" stroke-linejoin="round" stroke-opacity="0.9082379" stroke-width="0.0"/>
    <path d="M 349.0 107.0 C 348.33013916015625 109.5 346.5 111.33012390136719 344.0 112.0 C 341.5 111.33012390136719 339.66986083984375 109.5 339.0 107.0 C 339.66986083984375 104.5 341.5 102.66987609863281 344.0 102.0 C 346.5 102.66987609863281 348.33013916015625 104.5 349.0 107.0" fill="rgb(127, 160, 177)" opacity="1.0" stroke="rgb(144, 149, 240)" stroke-linecap="round" stroke-linejoin="round" stroke-opacity="0.17585889" stroke-width="0.0"/>
    <path d="M 90.0 40.0 C 89.33012390136719 42.5 87.5 44.33012771606445 85.0 45.0 C 82.5 44.33012771606445 80.66987609863281 42.5 80.0 40.0 C 80.66987609863281 37.5 82.5 35.66987228393555 85.0 35.0 C 87.5 35.66987228393555 89.33012390136719 37.5 90.0 40.0" fill="rgb(131, 163, 181)" opacity="1.0" stroke="rgb(143, 97, 125)" stroke-linecap="round" stroke-linejoin="round" stroke-opacity="0.9354964" stroke-width="0.0"/>
    <path d="M 294.0 54.0 C 293.33013916015625 56.5 291.5 58.33012771606445 289.0 59.0 C 286.5 58.33012771606445 284.66986083984375 56.5 284.0 54.0 C 284.66986083984375 51.5 286.5 49.66987228393555 289.0 49.0 C 291.5 49.66987228393555 293.33013916015625 51.5 294.0 54.0" fill="rgb(133, 165, 181)" opacity="1.0" stroke="rgb(188, 47, 35)" stroke-linecap="round" stroke-linejoin="round" stroke-opacity="0.5279633" stroke-width="0.0"/>
    <path d="M 334.0 19.0 C 333.33013916015625 21.5 331.5 23.330127716064453 329.0 24.0 C 326.5 23.330127716064453 324.66986083984375 21.5 324.0 19.0 C 324.66986083984375 16.5 326.5 14.669873237609863 329.0 14.0 C 331.5 14.669873237609863 333.33013916015625 16.5 334.0 19.0" fill="rgb(131, 165, 183)" opacity="1.0" stroke="rgb(252, 42, 116)" stroke-linecap="round" stroke-linejoin="round" stroke-opacity="0.7646735" stroke-width="0.0"/>
    <path d="M 275.0 2.0 C 274.33013916015625 4.5 272.5 6.330127239227295 270.0 7.0 C 267.5 6.330127239227295 265.66986083984375 4.5 265.0 2.0 C 265.66986083984375 -0.5 267.5 -2.330127000808716 270.0 -3.0 C 272.5 -2.330127000808716 274.33013916015625 -0.5 275.0 2.0" fill="rgb(117, 148, 164)" opacity="1.0" stroke="rgb(233, 199, 47)" stroke-linecap="round" stroke-linejoin="round" stroke-opacity="0.50088257" stroke-width="0.0"/>
    <path d="M 183.0 56.0 C 182.3301239013672 58.5 180.5 60.33012771606445 178.0 61.0 C 175.5 60.33012771606445 173.6698760986328 58.5 173.0 56.0 C 173.6698760986328 53.5 175.5 51.66987228393555 178.0 51.0 C 180.5 51.66987228393555 182.3301239013672 53.5 183.0 56.0" fill="rgb(129, 162, 180)" opacity="1.0" stroke="rgb(139, 106, 235)" stroke-linecap="round" stroke-linejoin="round" stroke-opacity="0.15520592" stroke-width="0.0"/>
    <path d="M 42.0 14.0 C 41.33012771606445 16.5 39.5 18.330127716064453 37.0 19.0 C 34.5 18.330127716064453 32.66987228393555 16.5 32.0 14.0 C 32.66987228393555 11.5 34.5 9.669873237609863 37.0 9.0 C 39.5 9.669873237609863 41.33012771606445 11.5 42.0 14.0" fill="rgb(126, 159, 175)" opacity="1.0" stroke="rgb(50, 97, 63)" stroke-linecap="round" stroke-linejoin="round" stroke-opacity="0.2660413" stroke-width="0.0"/>
    <path d="M 450.0 331.0 C 449.33013916015625 333.5 447.5 335.33013916015625 445.0 336.0 C 442.5 335.33013916015625 440.66986083984375 333.5 440.0 331.0 C 440.66986083984375 328.5 442.5 326.66986083984375 445.0 326.0 C 447.5 326.66986083984375 449.33013916015625 328.5 450.0 331.0" fill="rgb(25, 31, 36)" opacity="1.0" stroke="rgb(43, 4, 145)" stroke-linecap="round" stroke-linejoin="round" stroke-opacity="0.6624869" stroke-width="0.0"/>
    <path d="M 240.0 44.0 C 239.3301239013672 46.5 237.5 48.33012771606445 235.0 49.0 C 232.5 48.33012771606445 230.6698760986328 46.5 230.0 44.0 C 230.6698760986328 41.5 232.5 39.66987228393555 235.0 39.0 C 237.5 39.66987228393555 239.3301239013672 41.5 240.0 44.0" fill="rgb(130, 164, 183)" opacity="1.0" stroke="rgb(113, 40, 63)" stroke-linecap="round" stroke-linejoin="round" stroke-opacity="0.9680284" stroke-width="0.0"/>
    <path d="M 90.0 155.0 C 89.33012390136719 157.5 87.5 159.3301239013672 85.0 160.0 C 82.5 159.3301239013672 80.66987609863281 157.5 80.0 155.0 C 80.66987609863281 152.5 82.5 150.6698760986328 85.0 150.0 C 87.5 150.6698760986328 89.33012390136719 152.5 90.0 155.0" fill="rgb(130, 162, 180)" opacity="1.0" stroke="rgb(115, 25, 97)" stroke-linecap="round" stroke-linejoin="round" stroke-opacity="0.020845683" stroke-width="0.0"/>
    <path d="M 34.0 19.0 C 33.33012771606445 21.5 31.5 23.330127716064453 29.0 24.0 C 26.5 23.330127716064453 24.669872283935547 21.5 24.0 19.0 C 24.669872283935547 16.5 26.5 14.669873237609863 29.0 14.0 C 31.5 14.669873237609863 33.33012771606445 16.5 34.0 19.0" fill="rgb(128, 160, 176)" opacity="1.0" stroke="rgb(131, 122, 21)" stroke-linecap="round" stroke-linejoin="round" stroke-opacity="0.47361058" stroke-width="0.0"/>
  </g>
</svg>
