<?xml version="1.0" ?>
<svg height="768" version="1.1" width="768" xmlns="http://www.w3.org/2000/svg">
  <defs/>
  <g>
    <path d="M 540.2031860351562 595.1962280273438 C -94.3952865600586 560.4852905273438 -154.8158416748047 461.468017578125 -296.9324035644531 317.2592468261719 C -16.806474685668945 129.92138671875 -15.423881530761719 121.95367431640625 -12.012309074401855 7.0339741706848145 C -12.361435890197754 -16.83322525024414 -8.218883514404297 -16.528688430786133 513.1005249023438 -17.13695526123047 C 568.3907470703125 -78.18809509277344 571.712158203125 -115.3517837524414 540.2031860351562 595.1962280273438" fill="rgb(159, 168, 171)" opacity="0.9917904" stroke="rgb(238, 5, 111)" stroke-linecap="round" stroke-linejoin="round" stroke-opacity="0.63917536" stroke-width="0.0"/>
    <path d="M 478.0 700.0 C 477.33013916015625 702.5 475.5 704.3301391601562 473.0 705.0 C 470.5 704.3301391601562 468.66986083984375 702.5 468.0 700.0 C 468.66986083984375 697.5 470.5 695.6698608398438 473.0 695.0 C 475.5 695.6698608398438 477.33013916015625 697.5 478.0 700.0" fill="rgb(131, 164, 182)" opacity="1.0" stroke="rgb(215, 225, 99)" stroke-linecap="round" stroke-linejoin="round" stroke-opacity="0.8708367" stroke-width="0.0"/>
    <path d="M 680.0 349.0 C 679.3301391601562 351.5 677.5 353.33013916015625 675.0 354.0 C 672.5 353.33013916015625 670.6698608398438 351.5 670.0 349.0 C 670.6698608398438 346.5 672.5 344.66986083984375 675.0 344.0 C 677.5 344.66986083984375 679.3301391601562 346.5 680.0 349.0" fill="rgb(131, 164, 182)" opacity="1.0" stroke="rgb(212, 27, 104)" stroke-linecap="round" stroke-linejoin="round" stroke-opacity="0.10286519" stroke-width="0.0"/>
  </g>
</svg>
