<?xml version="1.0" ?>
<svg height="768" version="1.1" width="768" xmlns="http://www.w3.org/2000/svg">
  <defs/>
  <g>
    <path d="M 548.358642578125 612.7890625 C -111.75951385498047 576.4921875 -166.41738891601562 470.7393798828125 -302.35174560546875 319.3916931152344 C -16.806474685668945 129.92138671875 -15.423881530761719 121.95367431640625 -12.012309074401855 7.0339741706848145 C -12.361435890197754 -16.83322525024414 -8.218883514404297 -16.528688430786133 534.8934936523438 -16.978925704956055 C 586.3964233398438 -71.96588134765625 585.2954711914062 -92.61286926269531 548.358642578125 612.7890625" fill="rgb(96, 103, 114)" opacity="0.9752486" stroke="rgb(238, 5, 111)" stroke-linecap="round" stroke-linejoin="round" stroke-opacity="0.63917536" stroke-width="0.0"/>
    <path d="M 645.6734619140625 882.0349731445312 C 549.4010620117188 784.7303466796875 539.025634765625 794.83154296875 -51.052513122558594 765.27685546875 C -11.103670120239258 461.4501037597656 94.50981903076172 393.01580810546875 187.52224731445312 441.4151916503906 C 498.27239990234375 777.2753295898438 361.074462890625 485.98284912109375 795.7319946289062 473.0575866699219 C 790.53662109375 861.921630859375 727.76708984375 866.7605590820312 645.6734619140625 882.0349731445312" fill="rgb(128, 153, 168)" opacity="0.97309697" stroke="rgb(215, 225, 99)" stroke-linecap="round" stroke-linejoin="round" stroke-opacity="0.8708367" stroke-width="0.0"/>
    <path d="M 764.5703735351562 -60.33369064331055 C 787.5032958984375 411.985595703125 784.974609375 427.74041748046875 777.395751953125 562.9671630859375 C 466.1728210449219 561.1362915039062 632.4977416992188 491.1243591308594 590.3822021484375 412.0924987792969 C 486.5730895996094 463.6231384277344 378.8410339355469 455.8901062011719 331.167236328125 157.95492553710938 C 537.333251953125 67.1065444946289 518.9913330078125 -19.31681251525879 764.5703735351562 -60.33369064331055" fill="rgb(91, 99, 110)" opacity="1.0" stroke="rgb(212, 27, 104)" stroke-linecap="round" stroke-linejoin="round" stroke-opacity="0.10286519" stroke-width="0.0"/>
    <path d="M 295.6714782714844 581.081298828125 C 298.49835205078125 601.69873046875 405.91558837890625 667.4153442382812 296.0176696777344 606.0189819335938 C 232.72784423828125 575.9257202148438 220.79676818847656 555.9130249023438 188.3943328857422 499.21685791015625 C 171.91049194335938 461.550048828125 179.1801300048828 455.6098327636719 219.0293731689453 456.8879089355469 C 276.2459411621094 532.4263305664062 281.9317626953125 477.7745666503906 295.6714782714844 581.081298828125" fill="rgb(250, 246, 227)" opacity="1.0" stroke="rgb(176, 102, 104)" stroke-linecap="round" stroke-linejoin="round" stroke-opacity="0.58385277" stroke-width="0.0"/>
    <path d="M 598.7098388671875 455.319580078125 C 570.3192138671875 620.6359252929688 429.5389099121094 591.9910278320312 395.3628234863281 673.3389282226562 C 195.93826293945312 531.302734375 387.76251220703125 555.9148559570312 382.6217956542969 644.8711547851562 C 402.9237060546875 583.8387451171875 413.2901916503906 592.9545288085938 454.73333740234375 567.6698608398438 C 516.8535766601562 628.17431640625 404.9229431152344 502.78369140625 598.7098388671875 455.319580078125" fill="rgb(251, 247, 228)" opacity="0.9793978" stroke="rgb(140, 163, 225)" stroke-linecap="round" stroke-linejoin="round" stroke-opacity="0.30783916" stroke-width="0.0"/>
    <path d="M 227.71018981933594 461.5704345703125 C 251.0050048828125 511.4675598144531 291.5846252441406 491.7902526855469 188.1543426513672 496.7567138671875 C 163.7509002685547 435.79522705078125 200.26446533203125 467.027587890625 137.30030822753906 434.19488525390625 C 145.02047729492188 291.3858947753906 307.6425476074219 346.5612487792969 174.83157348632812 393.3470153808594 C 115.00769805908203 435.9417724609375 216.69656372070312 382.0389709472656 227.71018981933594 461.5704345703125" fill="rgb(251, 247, 228)" opacity="0.9926523" stroke="rgb(88, 123, 84)" stroke-linecap="round" stroke-linejoin="round" stroke-opacity="0.9968064" stroke-width="0.0"/>
    <path d="M 350.4390869140625 343.0889892578125 C 342.46282958984375 346.87603759765625 338.7129821777344 323.5021057128906 318.8476867675781 316.36602783203125 C 310.9023742675781 309.4928283691406 273.02703857421875 308.7361145019531 252.86752319335938 308.89239501953125 C 255.37391662597656 307.03948974609375 271.64630126953125 289.51361083984375 298.7775573730469 290.739013671875 C 299.07843017578125 290.7449951171875 340.3934631347656 296.6051940917969 350.4390869140625 343.0889892578125" fill="rgb(253, 250, 231)" opacity="0.9798313" stroke="rgb(157, 145, 192)" stroke-linecap="round" stroke-linejoin="round" stroke-opacity="0.58758956" stroke-width="0.0"/>
    <path d="M 634.9214477539062 437.05902099609375 C 633.8612060546875 428.0942687988281 644.3621215820312 441.6933288574219 534.9558715820312 479.7982177734375 C 550.6902465820312 364.03167724609375 654.8756713867188 448.09893798828125 594.5238647460938 390.77825927734375 C 543.039306640625 389.95672607421875 493.8028259277344 270.6341552734375 612.1088256835938 366.0234069824219 C 617.9668579101562 372.03546142578125 638.7315673828125 416.955078125 634.9214477539062 437.05902099609375" fill="rgb(254, 249, 229)" opacity="0.9745114" stroke="rgb(133, 102, 192)" stroke-linecap="round" stroke-linejoin="round" stroke-opacity="0.6550353" stroke-width="0.0"/>
    <path d="M 496.41729736328125 445.0998229980469 C 465.4767150878906 475.1925964355469 494.4268493652344 510.011474609375 415.11041259765625 562.7596435546875 C 504.5502624511719 447.51629638671875 460.986083984375 465.1405944824219 435.1746826171875 492.98291015625 C 477.3796081542969 446.8576965332031 441.5603332519531 409.36126708984375 478.0729675292969 398.4241638183594 C 513.1807861328125 413.7102355957031 516.9278564453125 398.3828125 496.41729736328125 445.0998229980469" fill="rgb(252, 248, 227)" opacity="0.9921256" stroke="rgb(38, 188, 221)" stroke-linecap="round" stroke-linejoin="round" stroke-opacity="0.7373106" stroke-width="0.0"/>
    <path d="M 335.5204772949219 354.45001220703125 C 352.7044372558594 355.3698425292969 298.43896484375 354.1871337890625 298.31744384765625 344.15509033203125 C 304.5633544921875 356.7387390136719 256.8222961425781 309.802001953125 293.0521545410156 323.4389953613281 C 304.5983581542969 358.63909912109375 333.8761291503906 336.6858825683594 318.2846374511719 326.6668395996094 C 329.0246276855469 329.6374816894531 340.314453125 353.0146789550781 335.5204772949219 354.45001220703125" fill="rgb(253, 249, 227)" opacity="0.9837214" stroke="rgb(146, 39, 68)" stroke-linecap="round" stroke-linejoin="round" stroke-opacity="0.30690554" stroke-width="0.0"/>
    <path d="M 571.3958129882812 254.10438537597656 C 479.3903503417969 307.69000244140625 613.80712890625 69.30965423583984 527.3699340820312 224.61068725585938 C 520.0900268554688 223.0452880859375 494.81561279296875 193.65773010253906 510.1695251464844 197.94769287109375 C 488.8459167480469 186.58395385742188 477.6887512207031 129.8184814453125 552.4992065429688 90.44835662841797 C 582.586669921875 94.02664184570312 575.0800170898438 232.66754150390625 571.3958129882812 254.10438537597656" fill="rgb(254, 239, 218)" opacity="0.87799734" stroke="rgb(107, 103, 241)" stroke-linecap="round" stroke-linejoin="round" stroke-opacity="0.36909917" stroke-width="0.0"/>
    <path d="M 407.0292053222656 319.8518981933594 C 423.29119873046875 495.3334655761719 439.8692932128906 436.58685302734375 364.71673583984375 494.61737060546875 C 329.7106628417969 472.7713623046875 369.25299072265625 473.53759765625 353.6029052734375 462.9644470214844 C 332.305419921875 439.7301025390625 347.3799743652344 399.1858825683594 374.81536865234375 311.1851501464844 C 290.4505310058594 141.62901306152344 475.62078857421875 92.46858978271484 407.0292053222656 319.8518981933594" fill="rgb(49, 62, 82)" opacity="0.36530608" stroke="rgb(91, 233, 66)" stroke-linecap="round" stroke-linejoin="round" stroke-opacity="0.5954912" stroke-width="0.0"/>
    <path d="M 577.112548828125 90.54388427734375 C 563.1961669921875 193.6542510986328 607.8634033203125 130.4660186767578 579.55810546875 280.12567138671875 C 578.0769653320312 110.25010681152344 550.2927856445312 194.9705810546875 561.12158203125 97.42058563232422 C 565.8951416015625 49.57558822631836 417.2092590332031 236.39859008789062 413.6512145996094 190.55935668945312 C 518.3055419921875 111.10576629638672 542.7803955078125 40.715843200683594 577.112548828125 90.54388427734375" fill="rgb(6, 8, 21)" opacity="0.96445006" stroke="rgb(165, 36, 30)" stroke-linecap="round" stroke-linejoin="round" stroke-opacity="0.90795535" stroke-width="0.0"/>
    <path d="M 401.4903259277344 458.96417236328125 C 427.7877197265625 471.770263671875 428.4518127441406 486.6338806152344 397.2074890136719 507.3955078125 C 373.2761535644531 509.8393859863281 361.1224670410156 502.8763427734375 348.215087890625 485.2286376953125 C 349.0451965332031 441.1048278808594 390.6697692871094 476.72979736328125 404.5657958984375 431.3350830078125 C 409.13897705078125 431.9822082519531 413.6069641113281 437.85198974609375 401.4903259277344 458.96417236328125" fill="rgb(17, 16, 29)" opacity="1.0" stroke="rgb(193, 39, 18)" stroke-linecap="round" stroke-linejoin="round" stroke-opacity="0.9698205" stroke-width="0.0"/>
    <path d="M 431.1811218261719 494.9928283691406 C 484.6326599121094 420.6677551269531 467.6406555175781 553.6944580078125 342.4104309082031 510.9449768066406 C 244.19100952148438 475.4797668457031 453.4599304199219 551.2471923828125 415.1221618652344 460.1953430175781 C 434.0251770019531 451.2951965332031 409.58026123046875 368.3878173828125 419.9227600097656 382.7096862792969 C 433.490478515625 407.816162109375 453.6267395019531 461.6111145019531 431.1811218261719 494.9928283691406" fill="rgb(255, 251, 228)" opacity="0.9675624" stroke="rgb(52, 169, 171)" stroke-linecap="round" stroke-linejoin="round" stroke-opacity="0.192621" stroke-width="0.0"/>
    <path d="M 537.1597290039062 78.52202606201172 C 443.7008361816406 166.8348846435547 425.94219970703125 183.56387329101562 413.8985290527344 182.48768615722656 C 378.5635070800781 170.46194458007812 333.20611572265625 224.67825317382812 269.3409423828125 0.39172327518463135 C 332.0149230957031 -15.606539726257324 376.1438903808594 -29.338396072387695 770.48388671875 0.6060330867767334 C 597.7723388671875 272.1927185058594 603.61669921875 37.74814987182617 537.1597290039062 78.52202606201172" fill="rgb(134, 170, 189)" opacity="0.87403995" stroke="rgb(123, 194, 71)" stroke-linecap="round" stroke-linejoin="round" stroke-opacity="0.36938947" stroke-width="0.0"/>
    <path d="M 329.8769226074219 115.3429946899414 C 404.6500549316406 180.3661651611328 382.524169921875 201.55899047851562 328.2933654785156 157.1915283203125 C 192.8917694091797 47.34739685058594 338.0762634277344 178.94924926757812 256.95587158203125 194.93663024902344 C 65.56055450439453 253.3795623779297 -9.00391674041748 303.6634826660156 -30.402141571044922 3.19055438041687 C 479.4970397949219 -33.4127311706543 386.7259521484375 65.67411041259766 329.8769226074219 115.3429946899414" fill="rgb(213, 193, 176)" opacity="0.9979184" stroke="rgb(114, 52, 25)" stroke-linecap="round" stroke-linejoin="round" stroke-opacity="0.83143497" stroke-width="0.0"/>
    <path d="M 780.2732543945312 446.7369079589844 C 780.004150390625 566.1940307617188 775.2481079101562 567.059814453125 743.8919067382812 600.5015258789062 C 687.258056640625 589.8653564453125 688.0023803710938 588.4365234375 666.8133544921875 592.0075073242188 C 670.40625 478.43792724609375 673.8563232421875 475.3235778808594 770.2030029296875 359.1245422363281 C 834.2007446289062 380.12554931640625 791.75537109375 414.3232116699219 780.2732543945312 446.7369079589844" fill="rgb(107, 211, 255)" opacity="0.105049774" stroke="rgb(216, 106, 216)" stroke-linecap="round" stroke-linejoin="round" stroke-opacity="0.03302753" stroke-width="0.0"/>
    <path d="M 767.7592163085938 6.2271599769592285 C 802.0433959960938 610.4434814453125 715.266357421875 570.58447265625 688.918701171875 559.6075439453125 C 605.5715942382812 553.0391235351562 604.6923217773438 544.1513061523438 607.0664672851562 537.9634399414062 C 616.524169921875 501.0258483886719 641.2918090820312 485.0588073730469 631.07861328125 357.6599426269531 C 594.7974853515625 276.212890625 468.4984130859375 52.47057342529297 767.7592163085938 6.2271599769592285" fill="rgb(155, 199, 219)" opacity="0.6205172" stroke="rgb(61, 12, 226)" stroke-linecap="round" stroke-linejoin="round" stroke-opacity="0.02483352" stroke-width="0.0"/>
    <path d="M 309.06121826171875 140.58285522460938 C 316.04022216796875 191.80245971679688 294.35870361328125 181.05117797851562 259.5958251953125 100.20905303955078 C 136.81910705566406 67.90325164794922 320.3918762207031 140.9556884765625 201.85305786132812 314.0865783691406 C 116.83589172363281 99.18944549560547 212.65151977539062 52.06454086303711 238.8238525390625 67.24234771728516 C 268.1470642089844 90.73969268798828 270.6030578613281 95.05744171142578 309.06121826171875 140.58285522460938" fill="rgb(63, 44, 53)" opacity="0.35502735" stroke="rgb(237, 51, 129)" stroke-linecap="round" stroke-linejoin="round" stroke-opacity="0.34229565" stroke-width="0.0"/>
    <path d="M 481.8463134765625 319.6092224121094 C 471.41314697265625 343.0703125 470.2275695800781 342.0417785644531 469.2107238769531 340.7113952636719 C 463.2763977050781 345.42864990234375 444.5774230957031 348.0162658691406 457.51580810546875 306.2693176269531 C 466.6337890625 296.46734619140625 444.85968017578125 348.55035400390625 470.3346862792969 335.05316162109375 C 469.649658203125 284.6940612792969 428.56378173828125 300.6901550292969 481.8463134765625 319.6092224121094" fill="rgb(15, 8, 4)" opacity="0.9636297" stroke="rgb(89, 96, 33)" stroke-linecap="round" stroke-linejoin="round" stroke-opacity="0.01530962" stroke-width="0.0"/>
    <path d="M 137.72471618652344 384.2823791503906 C 149.82107543945312 789.4219360351562 364.1385498046875 873.1129760742188 -99.7496337890625 651.8596801757812 C -12.08630084991455 554.7857666015625 -12.571045875549316 551.8613891601562 -21.044208526611328 512.6591186523438 C -42.12003707885742 510.00738525390625 -182.00787353515625 372.36895751953125 12.63832950592041 169.29100036621094 C 319.1500244140625 209.27784729003906 160.9947967529297 217.72003173828125 137.72471618652344 384.2823791503906" fill="rgb(130, 163, 181)" opacity="0.91609573" stroke="rgb(66, 189, 237)" stroke-linecap="round" stroke-linejoin="round" stroke-opacity="0.66555125" stroke-width="0.0"/>
    <path d="M 354.2998352050781 463.0695495605469 C 357.092529296875 464.6960144042969 327.7034606933594 482.11669921875 371.70806884765625 506.7892150878906 C 352.9393310546875 538.2993774414062 329.6986389160156 477.00531005859375 330.67041015625 448.4358215332031 C 328.38360595703125 431.7047119140625 337.0745544433594 400.5440673828125 347.1418762207031 379.87591552734375 C 351.4128112792969 394.30401611328125 332.7664794921875 447.87371826171875 354.2998352050781 463.0695495605469" fill="rgb(253, 248, 226)" opacity="0.98655576" stroke="rgb(10, 15, 96)" stroke-linecap="round" stroke-linejoin="round" stroke-opacity="0.49195614" stroke-width="0.0"/>
    <path d="M 514.4661865234375 308.4336853027344 C 529.1336669921875 311.75177001953125 469.3786926269531 307.1363220214844 457.0310974121094 316.3070373535156 C 432.7674255371094 320.3916931152344 425.593017578125 364.4189758300781 426.517822265625 336.3630065917969 C 436.6192626953125 302.3115539550781 458.04058837890625 294.0456237792969 467.109375 292.5364685058594 C 479.36773681640625 288.2672424316406 503.200439453125 295.7366638183594 514.4661865234375 308.4336853027344" fill="rgb(248, 244, 226)" opacity="1.0" stroke="rgb(249, 97, 254)" stroke-linecap="round" stroke-linejoin="round" stroke-opacity="0.72148997" stroke-width="0.0"/>
    <path d="M 668.6510620117188 607.8002319335938 C 633.1615600585938 585.9677734375 645.596435546875 600.0472412109375 472.0853576660156 609.7083129882812 C 522.9230346679688 580.452392578125 538.890380859375 577.266357421875 569.4993286132812 524.6980590820312 C 593.3253784179688 488.0731506347656 594.6500244140625 471.5879821777344 598.3864135742188 449.4176025390625 C 680.0242309570312 406.8202209472656 658.42236328125 453.2989501953125 668.6510620117188 607.8002319335938" fill="rgb(131, 162, 180)" opacity="0.9549579" stroke="rgb(252, 10, 254)" stroke-linecap="round" stroke-linejoin="round" stroke-opacity="0.037937045" stroke-width="0.0"/>
    <path d="M 439.88525390625 168.49603271484375 C 425.54669189453125 191.37725830078125 387.8118896484375 176.97445678710938 395.505126953125 181.402099609375 C 394.1497802734375 179.13755798339844 364.18621826171875 185.1252899169922 321.5811767578125 172.23980712890625 C 299.31622314453125 83.06024169921875 332.9431457519531 118.96475219726562 404.247802734375 142.8098907470703 C 422.19842529296875 145.42559814453125 434.5711364746094 142.59730529785156 439.88525390625 168.49603271484375" fill="rgb(129, 163, 183)" opacity="0.94552183" stroke="rgb(42, 51, 187)" stroke-linecap="round" stroke-linejoin="round" stroke-opacity="0.9072496" stroke-width="0.0"/>
    <path d="M 599.1845703125 338.52288818359375 C 669.8164672851562 371.059814453125 577.0343017578125 359.3761291503906 573.9567260742188 359.2868957519531 C 511.4162902832031 323.7261962890625 545.6430053710938 324.2080383300781 445.9537658691406 323.9517517089844 C 451.3016052246094 320.8004455566406 456.48583984375 308.2417907714844 524.4031982421875 311.65362548828125 C 574.8492431640625 332.6341857910156 542.0460205078125 334.08892822265625 599.1845703125 338.52288818359375" fill="rgb(20, 22, 36)" opacity="0.9705398" stroke="rgb(181, 252, 223)" stroke-linecap="round" stroke-linejoin="round" stroke-opacity="0.65475583" stroke-width="0.0"/>
    <path d="M 568.9285888671875 255.43191528320312 C 569.5932006835938 261.2961120605469 607.0656127929688 256.56427001953125 571.8394775390625 275.6446533203125 C 522.84130859375 255.14772033691406 455.9029235839844 188.471435546875 492.8570861816406 167.3323211669922 C 501.3548278808594 220.24920654296875 536.44384765625 230.3419189453125 556.24609375 250.6951141357422 C 529.5030517578125 225.8948516845703 547.7063598632812 245.41543579101562 568.9285888671875 255.43191528320312" fill="rgb(17, 18, 31)" opacity="1.0" stroke="rgb(35, 121, 138)" stroke-linecap="round" stroke-linejoin="round" stroke-opacity="0.7146088" stroke-width="0.0"/>
    <path d="M 425.90460205078125 181.43768310546875 C 427.4230041503906 202.1424560546875 434.677734375 196.74395751953125 357.8677062988281 196.63333129882812 C 351.4660949707031 194.42027282714844 334.0481872558594 193.91055297851562 256.7730712890625 118.4870834350586 C 249.1372833251953 84.04536437988281 268.2539367675781 110.87671661376953 327.2484130859375 157.51918029785156 C 367.4468078613281 187.60789489746094 339.2382507324219 180.42138671875 425.90460205078125 181.43768310546875" fill="rgb(10, 11, 26)" opacity="0.9856744" stroke="rgb(13, 192, 126)" stroke-linecap="round" stroke-linejoin="round" stroke-opacity="0.82795167" stroke-width="0.0"/>
    <path d="M 348.7592468261719 499.7038269042969 C 334.7987976074219 543.4373168945312 252.66200256347656 386.8442687988281 359.9647521972656 562.7125244140625 C 275.9390563964844 507.8085021972656 312.31390380859375 484.5964660644531 272.8242492675781 447.0255432128906 C 250.2564239501953 396.8963928222656 256.39044189453125 416.640380859375 285.79425048828125 401.6461486816406 C 330.0339050292969 399.2741394042969 281.5620422363281 472.8560791015625 348.7592468261719 499.7038269042969" fill="rgb(252, 248, 226)" opacity="0.9897987" stroke="rgb(20, 232, 179)" stroke-linecap="round" stroke-linejoin="round" stroke-opacity="0.13024494" stroke-width="0.0"/>
    <path d="M 241.32386779785156 233.0742645263672 C 226.0059356689453 243.54092407226562 223.8031463623047 248.11929321289062 202.4552764892578 255.79925537109375 C 201.2942657470703 260.0439453125 201.56881713867188 255.78512573242188 198.96600341796875 210.1732940673828 C 201.74322509765625 178.76541137695312 204.79551696777344 189.5352783203125 221.97213745117188 145.81173706054688 C 202.00106811523438 199.41773986816406 243.52984619140625 229.3944854736328 241.32386779785156 233.0742645263672" fill="rgb(254, 252, 228)" opacity="0.9608401" stroke="rgb(239, 250, 13)" stroke-linecap="round" stroke-linejoin="round" stroke-opacity="0.3439759" stroke-width="0.0"/>
    <path d="M 256.5497741699219 239.07058715820312 C 243.7490234375 251.1221466064453 237.10897827148438 254.98915100097656 226.1687774658203 262.6888427734375 C 222.16233825683594 262.7796325683594 222.49732971191406 256.0060119628906 213.8637237548828 252.65623474121094 C 225.90347290039062 246.7489471435547 230.284423828125 241.8167724609375 241.25912475585938 235.011474609375 C 259.9922180175781 215.1663360595703 266.8523254394531 216.26905822753906 256.5497741699219 239.07058715820312" fill="rgb(10, 12, 27)" opacity="0.8365414" stroke="rgb(10, 40, 201)" stroke-linecap="round" stroke-linejoin="round" stroke-opacity="0.4168148" stroke-width="0.0"/>
    <path d="M 235.94314575195312 254.60787963867188 C 227.8562774658203 259.3486328125 229.47747802734375 260.9501953125 221.41104125976562 265.66619873046875 C 203.06410217285156 273.3982238769531 204.172119140625 276.4679260253906 217.55563354492188 266.0381774902344 C 217.953369140625 255.49618530273438 216.23463439941406 251.8569793701172 227.84535217285156 244.18319702148438 C 248.6768035888672 227.5993194580078 248.20785522460938 248.76988220214844 235.94314575195312 254.60787963867188" fill="rgb(1, 4, 22)" opacity="0.53746575" stroke="rgb(112, 149, 110)" stroke-linecap="round" stroke-linejoin="round" stroke-opacity="0.1284956" stroke-width="0.0"/>
    <path d="M 369.7073974609375 206.40789794921875 C 360.2618408203125 240.15185546875 357.77593994140625 244.52015686035156 353.00762939453125 245.6130828857422 C 323.3574523925781 230.54788208007812 320.21856689453125 224.549072265625 312.4056396484375 230.82130432128906 C 283.3968200683594 230.7658233642578 288.53521728515625 176.438232421875 278.43695068359375 137.89833068847656 C 361.4935607910156 203.70175170898438 365.2161865234375 205.6044464111328 369.7073974609375 206.40789794921875" fill="rgb(72, 83, 98)" opacity="0.88774174" stroke="rgb(105, 14, 27)" stroke-linecap="round" stroke-linejoin="round" stroke-opacity="0.10163029" stroke-width="0.0"/>
    <path d="M 333.7052001953125 506.4732666015625 C 353.40234375 517.4677124023438 335.1562194824219 537.7503051757812 318.8502197265625 511.29815673828125 C 312.72442626953125 501.10443115234375 309.967529296875 497.5711975097656 306.0053405761719 485.8174133300781 C 298.9175109863281 470.5331115722656 308.27117919921875 469.04534912109375 309.5876159667969 474.7552490234375 C 317.87353515625 488.2918395996094 319.34356689453125 496.07708740234375 333.7052001953125 506.4732666015625" fill="rgb(58, 50, 51)" opacity="0.9884618" stroke="rgb(206, 145, 170)" stroke-linecap="round" stroke-linejoin="round" stroke-opacity="0.5173446" stroke-width="0.0"/>
    <path d="M 272.10015869140625 226.1865234375 C 262.8990478515625 232.7408447265625 260.9840087890625 237.5532684326172 251.17279052734375 243.0965576171875 C 241.21827697753906 254.8530731201172 233.19720458984375 250.9792022705078 242.20655822753906 231.50352478027344 C 235.03968811035156 218.64990234375 250.6593475341797 231.80609130859375 259.3545227050781 220.3283233642578 C 276.30902099609375 202.13182067871094 277.9579162597656 208.8933563232422 272.10015869140625 226.1865234375" fill="rgb(0, 0, 20)" opacity="0.49714202" stroke="rgb(136, 34, 241)" stroke-linecap="round" stroke-linejoin="round" stroke-opacity="0.4703315" stroke-width="0.0"/>
    <path d="M 394.5293273925781 674.332275390625 C 389.3742370605469 687.7913818359375 387.7817077636719 688.1602172851562 388.173583984375 690.727294921875 C 384.9139099121094 683.7247924804688 382.1515197753906 679.7584838867188 379.2923583984375 673.9288940429688 C 369.74505615234375 656.3981323242188 367.4021911621094 654.8604125976562 351.87384033203125 636.942138671875 C 465.9502258300781 628.8521728515625 397.4714660644531 646.447265625 394.5293273925781 674.332275390625" fill="rgb(254, 249, 231)" opacity="0.961853" stroke="rgb(135, 40, 46)" stroke-linecap="round" stroke-linejoin="round" stroke-opacity="0.8975585" stroke-width="0.0"/>
    <path d="M 243.24954223632812 197.92706298828125 C 250.49595642089844 223.0941162109375 267.6981201171875 212.45556640625 250.22607421875 224.6764373779297 C 241.31777954101562 223.0252227783203 225.2325897216797 197.72833251953125 221.69854736328125 178.6605224609375 C 210.2371368408203 143.33331298828125 231.84951782226562 101.85505676269531 219.6944580078125 160.87225341796875 C 242.88601684570312 186.32127380371094 225.20925903320312 174.56402587890625 243.24954223632812 197.92706298828125" fill="rgb(250, 245, 221)" opacity="1.0" stroke="rgb(126, 182, 148)" stroke-linecap="round" stroke-linejoin="round" stroke-opacity="0.49002603" stroke-width="0.0"/>
    <path d="M 219.83599853515625 121.5783462524414 C 218.2479705810547 186.2709197998047 203.20526123046875 159.2049102783203 196.30572509765625 215.4166717529297 C 175.53665161132812 192.26576232910156 187.2602996826172 185.0518798828125 204.7130126953125 142.17579650878906 C 196.81170654296875 73.92193603515625 215.11843872070312 35.097801208496094 296.72650146484375 144.29917907714844 C 240.25564575195312 120.71287536621094 215.90992736816406 56.56235885620117 219.83599853515625 121.5783462524414" fill="rgb(9, 10, 22)" opacity="0.9859058" stroke="rgb(20, 156, 220)" stroke-linecap="round" stroke-linejoin="round" stroke-opacity="0.25843313" stroke-width="0.0"/>
    <path d="M 442.4292907714844 525.2142944335938 C 445.1518249511719 534.3737182617188 430.6602783203125 559.3864135742188 388.1282958984375 575.7479858398438 C 372.4391174316406 570.5689697265625 341.94140625 556.5467529296875 339.0693359375 533.560546875 C 347.4186706542969 542.3605346679688 375.7884521484375 562.5849609375 387.9942932128906 563.5404663085938 C 384.25274658203125 562.6961669921875 388.0295715332031 570.2376708984375 442.4292907714844 525.2142944335938" fill="rgb(253, 249, 228)" opacity="0.9845512" stroke="rgb(18, 144, 105)" stroke-linecap="round" stroke-linejoin="round" stroke-opacity="0.09896711" stroke-width="0.0"/>
    <path d="M 408.6872863769531 241.95188903808594 C 386.98980712890625 252.7144317626953 390.4774169921875 226.71820068359375 379.77362060546875 250.10073852539062 C 360.9585266113281 253.48353576660156 361.3410339355469 254.68064880371094 366.0656433105469 245.54156494140625 C 370.22283935546875 227.61199951171875 385.1014099121094 219.469970703125 384.12017822265625 221.70108032226562 C 393.7500305175781 220.67633056640625 398.7286376953125 223.23536682128906 408.6872863769531 241.95188903808594" fill="rgb(17, 20, 34)" opacity="0.9619208" stroke="rgb(237, 236, 64)" stroke-linecap="round" stroke-linejoin="round" stroke-opacity="0.36370343" stroke-width="0.0"/>
    <path d="M 441.830322265625 525.6795654296875 C 405.6886291503906 566.5120239257812 375.7751770019531 563.065673828125 387.3443603515625 563.4475708007812 C 372.2434387207031 558.5011596679688 366.7465515136719 552.5394897460938 355.4490966796875 547.2755737304688 C 328.2498474121094 524.646240234375 332.8408508300781 535.486572265625 403.91973876953125 539.5072021484375 C 409.02154541015625 536.43505859375 422.173095703125 511.7720031738281 441.830322265625 525.6795654296875" fill="rgb(39, 36, 42)" opacity="0.9371643" stroke="rgb(56, 204, 207)" stroke-linecap="round" stroke-linejoin="round" stroke-opacity="0.940067" stroke-width="0.0"/>
    <path d="M 336.3331298828125 345.9071350097656 C 326.1185607910156 324.7257080078125 310.3744201660156 319.6910095214844 300.01007080078125 324.9078369140625 C 301.73382568359375 329.21917724609375 297.7080383300781 326.9740295410156 296.0075378417969 321.239501953125 C 290.5975036621094 314.8636169433594 295.5434265136719 316.3654479980469 288.8580017089844 309.4009704589844 C 304.25518798828125 314.5832214355469 332.02734375 309.3750305175781 336.3331298828125 345.9071350097656" fill="rgb(37, 38, 58)" opacity="0.66676545" stroke="rgb(21, 43, 56)" stroke-linecap="round" stroke-linejoin="round" stroke-opacity="0.11166217" stroke-width="0.0"/>
    <path d="M 268.8666687011719 192.81344604492188 C 273.5921630859375 198.8559112548828 274.7422180175781 194.86764526367188 267.9681091308594 206.29156494140625 C 263.3352966308594 213.60580444335938 257.82183837890625 209.43710327148438 243.127685546875 189.67343139648438 C 238.59991455078125 170.8990478515625 235.01156616210938 185.77896118164062 253.17799377441406 189.06503295898438 C 278.7041320800781 197.52464294433594 268.68792724609375 187.7072296142578 268.8666687011719 192.81344604492188" fill="rgb(253, 245, 217)" opacity="1.0" stroke="rgb(11, 216, 31)" stroke-linecap="round" stroke-linejoin="round" stroke-opacity="0.71865165" stroke-width="0.0"/>
    <path d="M 284.38360595703125 314.8315124511719 C 284.0162048339844 317.21044921875 274.1724548339844 317.2259521484375 255.58181762695312 316.5313720703125 C 266.32794189453125 321.77532958984375 258.6906433105469 319.5278625488281 248.18368530273438 310.214599609375 C 257.2222595214844 306.34814453125 282.07696533203125 308.9356689453125 276.1375732421875 310.4635009765625 C 260.1410217285156 307.85992431640625 265.8184509277344 310.43475341796875 284.38360595703125 314.8315124511719" fill="rgb(126, 114, 122)" opacity="0.54414904" stroke="rgb(227, 195, 14)" stroke-linecap="round" stroke-linejoin="round" stroke-opacity="0.39185756" stroke-width="0.0"/>
    <path d="M 274.22625732421875 210.72030639648438 C 268.5102844238281 228.09095764160156 266.59576416015625 232.90493774414062 271.6622314453125 219.4024200439453 C 262.4279479980469 207.5691375732422 251.1543731689453 230.6997833251953 262.4725036621094 226.18284606933594 C 259.4304504394531 217.89817810058594 233.3326416015625 198.0085906982422 236.60037231445312 178.57577514648438 C 265.6921081542969 221.84292602539062 253.20159912109375 207.45962524414062 274.22625732421875 210.72030639648438" fill="rgb(69, 55, 65)" opacity="0.7345018" stroke="rgb(49, 38, 210)" stroke-linecap="round" stroke-linejoin="round" stroke-opacity="0.1451765" stroke-width="0.0"/>
    <path d="M 403.52789306640625 533.1245727539062 C 414.4227294921875 560.0541381835938 382.51776123046875 563.9305419921875 379.8764343261719 559.9581298828125 C 372.3626708984375 558.0006103515625 360.16552734375 554.4678344726562 336.9139099121094 532.5631713867188 C 326.9902648925781 517.1320190429688 333.68255615234375 511.38018798828125 341.95452880859375 518.6052856445312 C 391.3146057128906 530.72705078125 398.43096923828125 531.7933349609375 403.52789306640625 533.1245727539062" fill="rgb(0, 0, 17)" opacity="0.4622936" stroke="rgb(193, 74, 20)" stroke-linecap="round" stroke-linejoin="round" stroke-opacity="0.65987945" stroke-width="0.0"/>
    <path d="M 333.8159484863281 340.38330078125 C 314.71258544921875 312.6464538574219 297.85784912109375 327.6683044433594 298.76214599609375 323.3703308105469 C 272.8517150878906 324.1019287109375 286.1025390625 326.5423278808594 270.1161804199219 314.71875 C 269.585205078125 309.3680419921875 269.05169677734375 309.8221130371094 290.7422790527344 310.59576416015625 C 296.646240234375 320.9424133300781 313.5745849609375 302.13446044921875 333.8159484863281 340.38330078125" fill="rgb(10, 0, 0)" opacity="0.55733955" stroke="rgb(154, 254, 53)" stroke-linecap="round" stroke-linejoin="round" stroke-opacity="0.6987827" stroke-width="0.0"/>
    <path d="M 453.39141845703125 227.52345275878906 C 401.37255859375 251.0766143798828 422.9873352050781 280.0091857910156 398.4932861328125 271.0687561035156 C 391.9144592285156 236.71580505371094 386.9217529296875 232.8093719482422 367.1062316894531 237.47752380371094 C 394.3793029785156 236.38638305664062 369.17327880859375 221.47586059570312 412.80389404296875 245.59605407714844 C 396.0824890136719 242.73867797851562 464.37109375 184.19044494628906 453.39141845703125 227.52345275878906" fill="rgb(16, 18, 32)" opacity="0.929679" stroke="rgb(108, 140, 150)" stroke-linecap="round" stroke-linejoin="round" stroke-opacity="0.40409654" stroke-width="0.0"/>
    <path d="M 377.89642333984375 250.7883758544922 C 377.59832763671875 274.3704528808594 366.9026794433594 280.91290283203125 363.9354248046875 263.6827697753906 C 355.34051513671875 261.5826721191406 354.9245910644531 250.27122497558594 338.8028259277344 237.48214721679688 C 324.3174743652344 227.66015625 323.4584045410156 227.98092651367188 348.8880310058594 224.36761474609375 C 372.0205383300781 246.5801239013672 365.41925048828125 252.1473388671875 377.89642333984375 250.7883758544922" fill="rgb(20, 22, 36)" opacity="1.0" stroke="rgb(211, 8, 221)" stroke-linecap="round" stroke-linejoin="round" stroke-opacity="0.2499952" stroke-width="0.0"/>
    <path d="M 304.1415710449219 312.2560119628906 C 290.68218994140625 331.0385437011719 282.3379211425781 318.2915954589844 277.5370788574219 324.5950012207031 C 240.8990478515625 322.4534912109375 260.93280029296875 328.8526916503906 242.57879638671875 326.4129638671875 C 253.8238525390625 319.6437072753906 246.97848510742188 312.6891174316406 256.54180908203125 308.4726867675781 C 279.5413818359375 309.5107727050781 288.4744873046875 312.89801025390625 304.1415710449219 312.2560119628906" fill="rgb(18, 26, 52)" opacity="0.6124846" stroke="rgb(227, 188, 144)" stroke-linecap="round" stroke-linejoin="round" stroke-opacity="0.60087067" stroke-width="0.0"/>
    <path d="M 241.97035217285156 331.7798767089844 C 211.46768188476562 348.2164306640625 219.37171936035156 364.0038757324219 177.58763122558594 359.8868408203125 C 151.31320190429688 354.9994201660156 148.1964111328125 401.4124755859375 139.90670776367188 398.1658630371094 C 125.96113586425781 325.7547912597656 231.037353515625 326.2947692871094 181.1973419189453 351.7344970703125 C 241.34228515625 312.3020324707031 244.48300170898438 328.8630065917969 241.97035217285156 331.7798767089844" fill="rgb(23, 25, 36)" opacity="0.9835954" stroke="rgb(123, 33, 248)" stroke-linecap="round" stroke-linejoin="round" stroke-opacity="0.4331801" stroke-width="0.0"/>
    <path d="M 255.63697814941406 319.73956298828125 C 244.79220581054688 332.23748779296875 233.14703369140625 337.5882263183594 221.48915100097656 348.97528076171875 C 206.87600708007812 358.269287109375 193.92608642578125 367.8011779785156 192.38339233398438 335.5574035644531 C 219.4536895751953 337.14434814453125 227.44415283203125 319.115234375 245.35772705078125 311.8575744628906 C 256.0547180175781 307.3182373046875 247.41146850585938 305.85357666015625 255.63697814941406 319.73956298828125" fill="rgb(17, 22, 37)" opacity="0.7611637" stroke="rgb(8, 135, 201)" stroke-linecap="round" stroke-linejoin="round" stroke-opacity="0.93337214" stroke-width="0.0"/>
    <path d="M 357.88720703125 516.1148681640625 C 369.3255310058594 550.145263671875 345.1405029296875 543.6582641601562 327.9208984375 522.9232177734375 C 320.61444091796875 514.9293212890625 319.0860595703125 510.1724853515625 317.79217529296875 507.79931640625 C 311.9419860839844 500.30755615234375 301.6746520996094 477.5701599121094 314.2240905761719 486.3117370605469 C 325.86688232421875 506.0421447753906 337.64422607421875 512.931396484375 357.88720703125 516.1148681640625" fill="rgb(17, 17, 28)" opacity="0.93471706" stroke="rgb(31, 224, 10)" stroke-linecap="round" stroke-linejoin="round" stroke-opacity="0.46859333" stroke-width="0.0"/>
    <path d="M 326.1896667480469 500.9814758300781 C 310.0747375488281 473.7385559082031 299.04339599609375 464.6619873046875 307.12005615234375 489.2816162109375 C 310.7065124511719 489.2566833496094 303.01385498046875 492.0266418457031 310.4918212890625 491.63201904296875 C 305.55914306640625 493.2242431640625 297.3993835449219 467.5834655761719 306.7867126464844 472.0858459472656 C 310.60455322265625 468.6341247558594 314.74920654296875 491.32855224609375 326.1896667480469 500.9814758300781" fill="rgb(137, 123, 101)" opacity="0.597258" stroke="rgb(84, 178, 19)" stroke-linecap="round" stroke-linejoin="round" stroke-opacity="0.5345854" stroke-width="0.0"/>
    <path d="M 467.52783203125 470.8369445800781 C 468.2401428222656 525.7666015625 392.45880126953125 553.1688232421875 405.2494201660156 559.49755859375 C 373.7953186035156 533.5885620117188 364.40777587890625 544.2276611328125 357.7778015136719 515.2495727539062 C 390.0391845703125 520.6436767578125 424.3371276855469 514.1842041015625 373.2073669433594 519.7518920898438 C 453.82171630859375 512.073486328125 436.959228515625 510.2997741699219 467.52783203125 470.8369445800781" fill="rgb(1, 0, 9)" opacity="0.8108797" stroke="rgb(15, 136, 27)" stroke-linecap="round" stroke-linejoin="round" stroke-opacity="0.91669506" stroke-width="0.0"/>
    <path d="M 224.87417602539062 263.99273681640625 C 223.96023559570312 259.8277587890625 196.40562438964844 289.3056640625 184.17083740234375 265.9479064941406 C 190.8115692138672 254.8795928955078 184.79571533203125 257.60528564453125 185.22503662109375 196.96469116210938 C 209.6949920654297 146.9621124267578 194.56590270996094 193.53976440429688 200.85665893554688 258.69354248046875 C 225.73915100097656 246.84751892089844 223.94236755371094 247.66893005371094 224.87417602539062 263.99273681640625" fill="rgb(9, 11, 22)" opacity="0.9824078" stroke="rgb(81, 51, 114)" stroke-linecap="round" stroke-linejoin="round" stroke-opacity="0.7879493" stroke-width="0.0"/>
    <path d="M 344.2524108886719 221.2818145751953 C 355.1902770996094 229.5482635498047 344.93048095703125 241.82882690429688 327.8379821777344 230.42813110351562 C 320.3857116699219 227.5133056640625 320.49951171875 225.76829528808594 317.3311462402344 221.28665161132812 C 318.6288146972656 210.203125 327.2339172363281 213.29588317871094 328.64239501953125 214.5123748779297 C 320.9029846191406 208.75221252441406 331.31292724609375 213.14390563964844 344.2524108886719 221.2818145751953" fill="rgb(18, 19, 33)" opacity="0.98535603" stroke="rgb(136, 120, 145)" stroke-linecap="round" stroke-linejoin="round" stroke-opacity="0.7097418" stroke-width="0.0"/>
    <path d="M 302.0897216796875 317.048828125 C 300.2253112792969 336.0607604980469 311.79681396484375 343.6927795410156 299.98504638671875 337.2395324707031 C 293.8011169433594 324.22027587890625 290.97918701171875 320.6998596191406 290.3384704589844 307.8042297363281 C 291.3936767578125 321.1456604003906 291.2972106933594 315.22991943359375 289.5306396484375 319.837158203125 C 310.0508117675781 319.92578125 302.2309265136719 318.4930419921875 302.0897216796875 317.048828125" fill="rgb(16, 4, 0)" opacity="0.8236092" stroke="rgb(45, 99, 86)" stroke-linecap="round" stroke-linejoin="round" stroke-opacity="0.5942614" stroke-width="0.0"/>
    <path d="M 292.2901611328125 200.33517456054688 C 279.16204833984375 223.15823364257812 268.7223205566406 227.29786682128906 267.7330322265625 228.86734008789062 C 246.79641723632812 248.87167358398438 251.5691375732422 245.0922393798828 258.9244689941406 215.71621704101562 C 250.3519744873047 226.1387481689453 277.7521057128906 206.65321350097656 284.6668701171875 168.0093994140625 C 289.675048828125 166.30284118652344 301.9796142578125 167.5969696044922 292.2901611328125 200.33517456054688" fill="rgb(8, 10, 25)" opacity="0.90177494" stroke="rgb(191, 47, 179)" stroke-linecap="round" stroke-linejoin="round" stroke-opacity="0.1515939" stroke-width="0.0"/>
    <path d="M 285.6507263183594 314.5129699707031 C 346.9998474121094 324.7830810546875 305.4295349121094 322.96160888671875 258.2811584472656 323.6699523925781 C 240.6095733642578 329.8205261230469 237.1084442138672 334.62152099609375 230.0304412841797 341.6197814941406 C 221.7149200439453 324.36016845703125 230.08204650878906 320.7349548339844 251.1283721923828 310.2408142089844 C 292.3966369628906 307.05792236328125 259.7429504394531 315.1851501464844 285.6507263183594 314.5129699707031" fill="rgb(15, 17, 30)" opacity="0.825536" stroke="rgb(243, 244, 181)" stroke-linecap="round" stroke-linejoin="round" stroke-opacity="0.40238255" stroke-width="0.0"/>
    <path d="M 317.3802185058594 325.74407958984375 C 331.8408508300781 338.4987487792969 309.77410888671875 343.7169189453125 311.7084655761719 342.5322570800781 C 303.7346496582031 343.8547058105469 304.10150146484375 335.4252624511719 300.9712829589844 334.76556396484375 C 316.5596008300781 340.0321350097656 317.0714416503906 329.1421813964844 315.906982421875 331.7696533203125 C 320.42791748046875 326.76727294921875 303.3556823730469 313.5169982910156 317.3802185058594 325.74407958984375" fill="rgb(19, 7, 0)" opacity="0.9289308" stroke="rgb(95, 116, 198)" stroke-linecap="round" stroke-linejoin="round" stroke-opacity="0.10840876" stroke-width="0.0"/>
    <path d="M 379.43475341796875 254.35546875 C 375.3568420410156 272.0365295410156 374.55694580078125 276.0700988769531 373.2160949707031 273.96282958984375 C 357.8188171386719 269.9645080566406 365.92425537109375 277.8699951171875 358.05560302734375 260.7008056640625 C 353.8942565917969 261.3268737792969 360.58349609375 239.95217895507812 389.8619689941406 232.48211669921875 C 387.25140380859375 249.19439697265625 386.10443115234375 233.11170959472656 379.43475341796875 254.35546875" fill="rgb(18, 20, 33)" opacity="0.86488175" stroke="rgb(141, 25, 47)" stroke-linecap="round" stroke-linejoin="round" stroke-opacity="0.9692175" stroke-width="0.0"/>
    <path d="M 144.3498992919922 58.34326934814453 C 135.9994659423828 81.09718322753906 134.1549530029297 84.38938903808594 90.85134887695312 100.44287109375 C 89.58728790283203 93.87004089355469 92.81146240234375 88.35029602050781 95.56438446044922 50.87681579589844 C 96.83700561523438 43.321815490722656 97.72624969482422 40.25377655029297 118.97449493408203 39.98494338989258 C 138.69284057617188 43.88766860961914 142.34080505371094 44.95149612426758 144.3498992919922 58.34326934814453" fill="rgb(131, 168, 190)" opacity="0.97001004" stroke="rgb(35, 92, 127)" stroke-linecap="round" stroke-linejoin="round" stroke-opacity="0.0057576466" stroke-width="0.0"/>
    <path d="M 173.230224609375 25.107009887695312 C 185.05923461914062 74.4014892578125 225.43405151367188 114.38317108154297 192.53695678710938 170.67242431640625 C 87.72381591796875 165.25164794921875 93.19332885742188 129.31202697753906 89.75700378417969 105.74109649658203 C 104.53282165527344 63.89391326904297 111.57819366455078 63.455078125 148.6896209716797 55.87294006347656 C 151.5216064453125 51.05903244018555 156.51638793945312 53.29674530029297 173.230224609375 25.107009887695312" fill="rgb(106, 180, 219)" opacity="0.5174091" stroke="rgb(76, 201, 241)" stroke-linecap="round" stroke-linejoin="round" stroke-opacity="0.029965645" stroke-width="0.0"/>
    <path d="M 165.9375457763672 31.944610595703125 C 165.74253845214844 71.46085357666016 163.6512451171875 74.55319213867188 158.0735321044922 74.1515121459961 C 113.19093322753906 67.56038665771484 110.38011932373047 64.18524932861328 107.99443054199219 44.97820281982422 C 108.36410522460938 20.33069610595703 109.17267608642578 16.471752166748047 128.3398895263672 10.618922233581543 C 157.44264221191406 14.939866065979004 159.38417053222656 18.029123306274414 165.9375457763672 31.944610595703125" fill="rgb(131, 162, 178)" opacity="0.97451943" stroke="rgb(44, 221, 115)" stroke-linecap="round" stroke-linejoin="round" stroke-opacity="0.82130307" stroke-width="0.0"/>
    <path d="M 72.00653839111328 117.25872802734375 C 64.00273132324219 116.97866821289062 64.66175842285156 125.16104125976562 -6.9672627449035645 127.68730163574219 C -6.772202968597412 105.84554290771484 -9.929800987243652 102.61299133300781 -10.525212287902832 53.11783981323242 C -3.2723536491394043 40.25934600830078 0.17184120416641235 38.23435592651367 42.704811096191406 37.06824493408203 C 51.145809173583984 50.647464752197266 58.4791145324707 48.861839294433594 72.00653839111328 117.25872802734375" fill="rgb(125, 161, 180)" opacity="0.9719154" stroke="rgb(170, 47, 174)" stroke-linecap="round" stroke-linejoin="round" stroke-opacity="0.3312825" stroke-width="0.0"/>
    <path d="M 85.95503997802734 61.246578216552734 C 87.43490600585938 82.57281494140625 86.82978057861328 87.69871520996094 64.7170181274414 95.74847412109375 C 32.60928726196289 85.0921401977539 31.286657333374023 79.33521270751953 26.71122169494629 38.027618408203125 C 29.11229133605957 26.759986877441406 31.69622039794922 23.931934356689453 53.15304183959961 22.815425872802734 C 80.63906860351562 26.96938133239746 81.69622039794922 31.065183639526367 85.95503997802734 61.246578216552734" fill="rgb(127, 161, 175)" opacity="0.9958618" stroke="rgb(107, 230, 216)" stroke-linecap="round" stroke-linejoin="round" stroke-opacity="0.9971111" stroke-width="0.0"/>
    <path d="M 118.96443176269531 77.0971450805664 C 114.31150817871094 85.6393051147461 119.12594604492188 98.79425811767578 61.744293212890625 109.06016540527344 C 59.456790924072266 96.03311920166016 62.21432113647461 91.29878997802734 65.06421661376953 69.452392578125 C 74.61766815185547 42.12394714355469 76.73739624023438 40.201210021972656 111.27057647705078 38.24370574951172 C 116.57270812988281 38.5092658996582 117.96775817871094 40.527408599853516 118.96443176269531 77.0971450805664" fill="rgb(138, 173, 197)" opacity="0.9611086" stroke="rgb(173, 242, 188)" stroke-linecap="round" stroke-linejoin="round" stroke-opacity="0.301599" stroke-width="0.0"/>
    <path d="M 205.79518127441406 -12.549976348876953 C 196.81201171875 41.8357048034668 189.77476501464844 42.48047637939453 174.82119750976562 43.1334114074707 C 131.48411560058594 40.191429138183594 128.47055053710938 37.656978607177734 120.09313201904297 13.653677940368652 C 121.4677963256836 -15.709205627441406 128.2079620361328 -13.058913230895996 146.0002899169922 -11.651914596557617 C 181.9461212158203 -10.541143417358398 190.0722198486328 -12.121545791625977 205.79518127441406 -12.549976348876953" fill="rgb(126, 159, 173)" opacity="0.97955525" stroke="rgb(126, 252, 170)" stroke-linecap="round" stroke-linejoin="round" stroke-opacity="0.08763892" stroke-width="0.0"/>
    <path d="M 343.2472229003906 121.641845703125 C 342.34051513671875 124.0310287475586 332.77386474609375 121.90487670898438 320.135986328125 149.9303436279297 C 301.96783447265625 138.22900390625 285.7125549316406 122.71266174316406 266.28228759765625 106.67859649658203 C 295.4946594238281 80.76466369628906 297.7835388183594 78.97793579101562 307.733642578125 74.95964050292969 C 344.78924560546875 90.36860656738281 341.63543701171875 100.59683227539062 343.2472229003906 121.641845703125" fill="rgb(126, 162, 184)" opacity="0.92278177" stroke="rgb(35, 170, 72)" stroke-linecap="round" stroke-linejoin="round" stroke-opacity="0.12342508" stroke-width="0.0"/>
    <path d="M 132.76751708984375 37.97475051879883 C 128.74758911132812 57.683467864990234 126.99911499023438 59.828548431396484 107.40325927734375 59.874656677246094 C 86.10588836669922 56.6353645324707 85.38408660888672 53.51239013671875 78.4288558959961 3.8706536293029785 C 71.94377136230469 -4.19395112991333 72.9665756225586 -8.945952415466309 134.1215362548828 -10.043023109436035 C 138.25054931640625 4.582393169403076 137.54197692871094 8.171737670898438 132.76751708984375 37.97475051879883" fill="rgb(127, 159, 174)" opacity="0.9982606" stroke="rgb(14, 227, 54)" stroke-linecap="round" stroke-linejoin="round" stroke-opacity="0.89765835" stroke-width="0.0"/>
    <path d="M 767.1971435546875 6.263425827026367 C 731.2145385742188 247.44305419921875 698.8617553710938 224.43521118164062 588.4522094726562 164.52093505859375 C 568.1563110351562 143.2430877685547 576.1678466796875 139.0606231689453 575.326416015625 120.10066223144531 C 576.426513671875 84.1917724609375 575.9216918945312 91.907470703125 568.550048828125 76.58011627197266 C 631.10205078125 55.76066970825195 630.8322143554688 29.466033935546875 767.1971435546875 6.263425827026367" fill="rgb(129, 161, 179)" opacity="1.0" stroke="rgb(171, 98, 179)" stroke-linecap="round" stroke-linejoin="round" stroke-opacity="0.57269055" stroke-width="0.0"/>
    <path d="M 89.80313110351562 -0.7219297885894775 C 84.81910705566406 37.856109619140625 79.54730987548828 39.232200622558594 73.1758804321289 43.413795471191406 C 32.419254302978516 40.87171173095703 34.17163848876953 33.85115051269531 34.185997009277344 13.89306354522705 C 34.43712615966797 -5.418015003204346 33.374908447265625 -7.684567928314209 44.357479095458984 -11.250551223754883 C 74.6176528930664 -10.991861343383789 78.61609649658203 -10.72948932647705 89.80313110351562 -0.7219297885894775" fill="rgb(127, 159, 179)" opacity="0.9443899" stroke="rgb(118, 221, 16)" stroke-linecap="round" stroke-linejoin="round" stroke-opacity="0.02642268" stroke-width="0.0"/>
    <path d="M 191.68394470214844 171.58912658691406 C 169.84967041015625 235.8050537109375 205.7675018310547 220.05813598632812 147.03671264648438 176.7384033203125 C 71.04741668701172 155.73440551757812 58.9549674987793 161.0906982421875 39.967716217041016 104.58726501464844 C 54.3028450012207 102.06658935546875 54.08509063720703 94.91602325439453 100.1905746459961 94.13159942626953 C 120.29747009277344 106.69650268554688 130.3555450439453 103.7009048461914 191.68394470214844 171.58912658691406" fill="rgb(121, 168, 194)" opacity="0.7468211" stroke="rgb(127, 6, 127)" stroke-linecap="round" stroke-linejoin="round" stroke-opacity="0.80258566" stroke-width="0.0"/>
    <path d="M 47.56901550292969 48.344932556152344 C 48.43855285644531 54.18353271484375 46.69739532470703 57.70915222167969 -0.9917860627174377 59.3098258972168 C -7.003437042236328 55.250244140625 -7.87423038482666 51.94864273071289 -10.340729713439941 41.998111724853516 C -10.917789459228516 -2.6449975967407227 -9.637794494628906 -5.389298915863037 -6.059456825256348 -9.120723724365234 C 32.722347259521484 3.434870719909668 31.432735443115234 14.160265922546387 47.56901550292969 48.344932556152344" fill="rgb(140, 173, 187)" opacity="0.9448868" stroke="rgb(179, 153, 66)" stroke-linecap="round" stroke-linejoin="round" stroke-opacity="0.34446755" stroke-width="0.0"/>
    <path d="M 286.1988220214844 63.351318359375 C 280.20477294921875 69.34344482421875 285.4305419921875 78.450927734375 261.5700988769531 102.52906036376953 C 236.1581573486328 81.37503051757812 229.25636291503906 71.51759338378906 227.71261596679688 80.18241882324219 C 239.13418579101562 29.814619064331055 239.4803924560547 29.192033767700195 245.0490264892578 22.494962692260742 C 262.0912170410156 43.90531921386719 268.0746765136719 40.801429748535156 286.1988220214844 63.351318359375" fill="rgb(128, 168, 191)" opacity="0.8556794" stroke="rgb(104, 16, 14)" stroke-linecap="round" stroke-linejoin="round" stroke-opacity="0.54599696" stroke-width="0.0"/>
    <path d="M 74.43433380126953 136.53982543945312 C 76.34420013427734 189.1375732421875 107.04338073730469 184.78236389160156 151.42669677734375 328.1026611328125 C -42.5670280456543 299.3603515625 -8.25291919708252 239.91482543945312 -10.15634536743164 223.64215087890625 C -6.871828556060791 132.9247283935547 -4.423792362213135 131.64483642578125 -3.6019299030303955 110.13785552978516 C 74.37739562988281 114.99220275878906 72.82135009765625 125.4106674194336 74.43433380126953 136.53982543945312" fill="rgb(131, 164, 182)" opacity="0.9897082" stroke="rgb(214, 58, 249)" stroke-linecap="round" stroke-linejoin="round" stroke-opacity="0.20857827" stroke-width="0.0"/>
    <path d="M 365.2862548828125 73.99786376953125 C 358.3515625 73.40406036376953 362.0213317871094 81.99565887451172 326.8759765625 85.22846984863281 C 301.07550048828125 73.80598449707031 299.9781799316406 69.1144790649414 299.3263854980469 53.103515625 C 303.7478942871094 19.0371036529541 309.5758056640625 19.694547653198242 348.8671875 18.803464889526367 C 361.64788818359375 13.96532917022705 365.0614013671875 12.707574844360352 365.2862548828125 73.99786376953125" fill="rgb(131, 165, 184)" opacity="0.9956262" stroke="rgb(11, 36, 91)" stroke-linecap="round" stroke-linejoin="round" stroke-opacity="0.32522842" stroke-width="0.0"/>
    <path d="M 588.07958984375 218.59686279296875 C 592.251953125 186.1743927001953 588.8320922851562 201.353515625 584.5540161132812 269.5084228515625 C 560.0215454101562 293.0622253417969 580.5123901367188 229.51535034179688 574.5084838867188 188.46197509765625 C 571.6928100585938 174.69667053222656 548.0673217773438 145.15884399414062 570.9761352539062 136.28623962402344 C 590.3521118164062 185.53163146972656 589.576416015625 191.47572326660156 588.07958984375 218.59686279296875" fill="rgb(11, 11, 24)" opacity="0.9719132" stroke="rgb(207, 0, 46)" stroke-linecap="round" stroke-linejoin="round" stroke-opacity="0.86578625" stroke-width="0.0"/>
    <path d="M 497.9991455078125 325.1710205078125 C 490.102783203125 338.9515686035156 462.77093505859375 356.42706298828125 437.19769287109375 355.4915771484375 C 436.7456970214844 359.8038330078125 435.51300048828125 349.39630126953125 453.0204162597656 324.2446594238281 C 448.01947021484375 352.4876708984375 473.3975830078125 339.4158935546875 466.2127685546875 343.71185302734375 C 492.1060791015625 323.6325378417969 464.32476806640625 324.7058410644531 497.9991455078125 325.1710205078125" fill="rgb(255, 252, 232)" opacity="0.9696184" stroke="rgb(31, 227, 168)" stroke-linecap="round" stroke-linejoin="round" stroke-opacity="0.21405563" stroke-width="0.0"/>
    <path d="M 436.158203125 58.802398681640625 C 396.30615234375 84.4880142211914 402.39483642578125 97.14725494384766 345.8840637207031 96.9210205078125 C 337.5179443359375 84.71158599853516 337.8910827636719 82.01647186279297 340.2409973144531 16.07755470275879 C 345.2589416503906 21.1351318359375 344.6942138671875 15.929450988769531 358.9087829589844 24.6665096282959 C 394.1107177734375 52.46581268310547 412.4504699707031 11.606694221496582 436.158203125 58.802398681640625" fill="rgb(131, 165, 183)" opacity="1.0" stroke="rgb(190, 207, 235)" stroke-linecap="round" stroke-linejoin="round" stroke-opacity="0.30967826" stroke-width="0.0"/>
    <path d="M 295.2817077636719 20.84339714050293 C 287.203369140625 59.032100677490234 284.83251953125 60.709442138671875 272.3141174316406 62.7456169128418 C 257.7490234375 40.96424865722656 247.5111083984375 48.61442947387695 228.9069366455078 5.203137397766113 C 231.03140258789062 3.269988775253296 235.33331298828125 5.464144229888916 264.07537841796875 8.011576652526855 C 289.6391906738281 9.468937873840332 293.344482421875 10.838473320007324 295.2817077636719 20.84339714050293" fill="rgb(127, 163, 180)" opacity="0.9984636" stroke="rgb(180, 105, 18)" stroke-linecap="round" stroke-linejoin="round" stroke-opacity="0.4002946" stroke-width="0.0"/>
    <path d="M 365.697998046875 129.41944885253906 C 358.4405517578125 130.52976989746094 357.2891540527344 131.5473175048828 352.4428405761719 139.7706298828125 C 318.17120361328125 135.52145385742188 320.7403869628906 129.99856567382812 322.07330322265625 105.92153930664062 C 320.700439453125 94.19927215576172 317.5516662597656 88.7763900756836 314.3426513671875 83.89659118652344 C 345.3371276855469 100.5945816040039 346.0932312011719 104.30883026123047 365.697998046875 129.41944885253906" fill="rgb(128, 161, 178)" opacity="0.6430031" stroke="rgb(57, 87, 58)" stroke-linecap="round" stroke-linejoin="round" stroke-opacity="0.9082379" stroke-width="0.0"/>
    <path d="M 366.5152893066406 94.72492218017578 C 361.16644287109375 121.81576538085938 359.0897521972656 123.71469116210938 358.289794921875 122.49396514892578 C 341.0055847167969 112.78730773925781 340.1017150878906 110.03572845458984 306.2017822265625 72.05953979492188 C 311.3880310058594 66.95496368408203 313.73980712890625 64.73309326171875 368.4363098144531 67.00737762451172 C 371.3409423828125 78.00984191894531 369.81817626953125 82.18797302246094 366.5152893066406 94.72492218017578" fill="rgb(129, 162, 179)" opacity="0.9054462" stroke="rgb(144, 149, 240)" stroke-linecap="round" stroke-linejoin="round" stroke-opacity="0.17585889" stroke-width="0.0"/>
    <path d="M 105.9624252319336 40.30793762207031 C 106.54122161865234 59.32113265991211 104.41973876953125 60.78079605102539 69.87895965576172 65.1844253540039 C 62.70636749267578 64.48760986328125 60.93046951293945 61.51847457885742 56.953460693359375 28.414031982421875 C 57.364166259765625 15.640222549438477 59.80611801147461 12.604735374450684 72.85344696044922 6.020475387573242 C 105.8795394897461 10.642354965209961 105.06976318359375 18.186643600463867 105.9624252319336 40.30793762207031" fill="rgb(133, 162, 179)" opacity="0.9942201" stroke="rgb(143, 97, 125)" stroke-linecap="round" stroke-linejoin="round" stroke-opacity="0.9354964" stroke-width="0.0"/>
    <path d="M 323.5191650390625 47.192935943603516 C 328.16741943359375 87.52513122558594 327.7489929199219 90.5029296875 314.41619873046875 110.14984130859375 C 259.73736572265625 117.09207916259766 253.49139404296875 97.77139282226562 254.1085662841797 80.1693344116211 C 264.7373046875 32.233680725097656 266.7392883300781 29.199729919433594 295.71942138671875 17.840187072753906 C 318.1752624511719 19.114213943481445 319.58990478515625 22.895998001098633 323.5191650390625 47.192935943603516" fill="rgb(131, 168, 188)" opacity="0.9325131" stroke="rgb(188, 47, 35)" stroke-linecap="round" stroke-linejoin="round" stroke-opacity="0.5279633" stroke-width="0.0"/>
    <path d="M 375.7464904785156 0.3893090486526489 C 357.39532470703125 37.78132247924805 348.34942626953125 38.219825744628906 304.0849609375 40.618038177490234 C 297.64593505859375 44.751991271972656 291.5501708984375 45.8250732421875 289.4937438964844 -1.4087004661560059 C 298.0320739746094 -9.10062313079834 302.114501953125 -9.071575164794922 322.313720703125 -7.996006011962891 C 353.7456970214844 -4.239081859588623 358.3625183105469 -3.877304792404175 375.7464904785156 0.3893090486526489" fill="rgb(126, 160, 177)" opacity="0.85332114" stroke="rgb(252, 42, 116)" stroke-linecap="round" stroke-linejoin="round" stroke-opacity="0.7646735" stroke-width="0.0"/>
    <path d="M 309.84307861328125 33.183074951171875 C 299.446533203125 33.46038055419922 295.9661865234375 32.82259750366211 258.13201904296875 31.3701229095459 C 245.47842407226562 28.85795783996582 242.6082763671875 27.57448959350586 228.7293243408203 15.979985237121582 C 227.6272430419922 -27.27021026611328 233.39599609375 -21.908382415771484 276.4360656738281 -8.034111022949219 C 303.3157958984375 -24.00621223449707 308.0910949707031 -26.29718780517578 309.84307861328125 33.183074951171875" fill="rgb(123, 155, 174)" opacity="0.96185845" stroke="rgb(233, 199, 47)" stroke-linecap="round" stroke-linejoin="round" stroke-opacity="0.50088257" stroke-width="0.0"/>
    <path d="M 221.2171630859375 26.90454864501953 C 201.04757690429688 91.23164367675781 205.1633758544922 81.3511962890625 204.01841735839844 130.71578979492188 C 144.2849884033203 110.47615051269531 144.6058807373047 96.93696594238281 143.15284729003906 85.43678283691406 C 144.94744873046875 29.773279190063477 147.3090057373047 27.61395835876465 152.86895751953125 19.856388092041016 C 207.83245849609375 16.748891830444336 210.51730346679688 17.858684539794922 221.2171630859375 26.90454864501953" fill="rgb(124, 158, 176)" opacity="0.91549736" stroke="rgb(139, 106, 235)" stroke-linecap="round" stroke-linejoin="round" stroke-opacity="0.15520592" stroke-width="0.0"/>
    <path d="M 54.328948974609375 12.644704818725586 C 55.5030403137207 32.77825164794922 56.24589538574219 37.57962417602539 58.18208694458008 41.564456939697266 C 27.58739471435547 26.630298614501953 26.718549728393555 22.541015625 9.940041542053223 -7.41269063949585 C 12.275577545166016 -9.210115432739258 15.25918197631836 -10.285446166992188 29.766780853271484 -10.712401390075684 C 54.909969329833984 -8.61979866027832 54.513671875 -4.0909552574157715 54.328948974609375 12.644704818725586" fill="rgb(125, 165, 185)" opacity="1.0" stroke="rgb(50, 97, 63)" stroke-linecap="round" stroke-linejoin="round" stroke-opacity="0.2660413" stroke-width="0.0"/>
    <path d="M 454.63177490234375 327.9560852050781 C 450.2098693847656 326.1973876953125 446.4699401855469 334.85443115234375 438.94952392578125 345.6004943847656 C 433.2269592285156 351.9947814941406 446.290771484375 344.4065856933594 429.8814697265625 345.2604064941406 C 445.2470397949219 323.84478759765625 438.510498046875 327.4775085449219 456.75927734375 316.4423828125 C 471.70086669921875 313.6670837402344 447.3490295410156 320.5111999511719 454.63177490234375 327.9560852050781" fill="rgb(42, 46, 61)" opacity="1.0" stroke="rgb(43, 4, 145)" stroke-linecap="round" stroke-linejoin="round" stroke-opacity="0.6624869" stroke-width="0.0"/>
    <path d="M 257.3562927246094 57.39260482788086 C 256.2616882324219 108.20536041259766 229.657470703125 58.29168701171875 207.4492645263672 86.68404388427734 C 200.57846069335938 101.58174896240234 200.26522827148438 76.95196533203125 192.62030029296875 -0.0646655485033989 C 195.52182006835938 4.458662986755371 195.37937927246094 0.5140495896339417 215.43724060058594 -8.481313705444336 C 261.7670593261719 5.676455974578857 258.8370361328125 17.351715087890625 257.3562927246094 57.39260482788086" fill="rgb(125, 160, 180)" opacity="0.8907998" stroke="rgb(113, 40, 63)" stroke-linecap="round" stroke-linejoin="round" stroke-opacity="0.9680284" stroke-width="0.0"/>
    <path d="M 185.9399871826172 251.73500061035156 C 125.71757507324219 258.0585021972656 104.24821472167969 235.9587860107422 32.90892028808594 206.23135375976562 C 56.726463317871094 186.56808471679688 54.24571228027344 184.98092651367188 51.48160171508789 167.5276641845703 C 50.13333511352539 126.83973693847656 52.602413177490234 126.54568481445312 59.6776237487793 132.53076171875 C 109.69100189208984 138.0536651611328 155.769775390625 105.65504455566406 185.9399871826172 251.73500061035156" fill="rgb(128, 161, 179)" opacity="0.8705698" stroke="rgb(115, 25, 97)" stroke-linecap="round" stroke-linejoin="round" stroke-opacity="0.020845683" stroke-width="0.0"/>
    <path d="M 53.22783660888672 35.72614288330078 C 55.462886810302734 42.11499786376953 53.91377639770508 44.68685531616211 50.62742614746094 48.123294830322266 C 17.20048713684082 38.73136901855469 18.339147567749023 29.244359970092773 0.7748919725418091 -2.0487306118011475 C 0.44341957569122314 -6.757435321807861 2.7367568016052246 -8.810503005981445 8.221616744995117 -9.638466835021973 C 39.280029296875 2.6586968898773193 39.34178161621094 9.851422309875488 53.22783660888672 35.72614288330078" fill="rgb(134, 157, 171)" opacity="1.0" stroke="rgb(131, 122, 21)" stroke-linecap="round" stroke-linejoin="round" stroke-opacity="0.47361058" stroke-width="0.0"/>
    <path d="M 403.0 453.0 C 402.33013916015625 455.5 400.5 457.33013916015625 398.0 458.0 C 395.5 457.33013916015625 393.66986083984375 455.5 393.0 453.0 C 393.66986083984375 450.5 395.5 448.66986083984375 398.0 448.0 C 400.5 448.66986083984375 402.33013916015625 450.5 403.0 453.0" fill="rgb(73, 85, 99)" opacity="1.0" stroke="rgb(99, 237, 96)" stroke-linecap="round" stroke-linejoin="round" stroke-opacity="0.5104792" stroke-width="0.0"/>
    <path d="M 630.0 376.0 C 629.3301391601562 378.5 627.5 380.33013916015625 625.0 381.0 C 622.5 380.33013916015625 620.6698608398438 378.5 620.0 376.0 C 620.6698608398438 373.5 622.5 371.66986083984375 625.0 371.0 C 627.5 371.66986083984375 629.3301391601562 373.5 630.0 376.0" fill="rgb(12, 12, 25)" opacity="1.0" stroke="rgb(36, 211, 112)" stroke-linecap="round" stroke-linejoin="round" stroke-opacity="0.2889571" stroke-width="0.0"/>
    <path d="M 410.0 440.0 C 409.33013916015625 442.5 407.5 444.33013916015625 405.0 445.0 C 402.5 444.33013916015625 400.66986083984375 442.5 400.0 440.0 C 400.66986083984375 437.5 402.5 435.66986083984375 405.0 435.0 C 407.5 435.66986083984375 409.33013916015625 437.5 410.0 440.0" fill="rgb(82, 94, 107)" opacity="1.0" stroke="rgb(246, 26, 99)" stroke-linecap="round" stroke-linejoin="round" stroke-opacity="0.6435409" stroke-width="0.0"/>
    <path d="M 618.0 363.0 C 617.3301391601562 365.5 615.5 367.33013916015625 613.0 368.0 C 610.5 367.33013916015625 608.6698608398438 365.5 608.0 363.0 C 608.6698608398438 360.5 610.5 358.66986083984375 613.0 358.0 C 615.5 358.66986083984375 617.3301391601562 360.5 618.0 363.0" fill="rgb(26, 29, 38)" opacity="1.0" stroke="rgb(177, 224, 8)" stroke-linecap="round" stroke-linejoin="round" stroke-opacity="0.42296922" stroke-width="0.0"/>
    <path d="M 301.0 562.0 C 300.33013916015625 564.5 298.5 566.3301391601562 296.0 567.0 C 293.5 566.3301391601562 291.66986083984375 564.5 291.0 562.0 C 291.66986083984375 559.5 293.5 557.6698608398438 296.0 557.0 C 298.5 557.6698608398438 300.33013916015625 559.5 301.0 562.0" fill="rgb(84, 90, 99)" opacity="1.0" stroke="rgb(34, 49, 81)" stroke-linecap="round" stroke-linejoin="round" stroke-opacity="0.37522164" stroke-width="0.0"/>
    <path d="M 634.0 357.0 C 633.3301391601562 359.5 631.5 361.33013916015625 629.0 362.0 C 626.5 361.33013916015625 624.6698608398438 359.5 624.0 357.0 C 624.6698608398438 354.5 626.5 352.66986083984375 629.0 352.0 C 631.5 352.66986083984375 633.3301391601562 354.5 634.0 357.0" fill="rgb(138, 164, 179)" opacity="1.0" stroke="rgb(126, 236, 50)" stroke-linecap="round" stroke-linejoin="round" stroke-opacity="0.82953024" stroke-width="0.0"/>
    <path d="M 406.0 443.0 C 405.33013916015625 445.5 403.5 447.33013916015625 401.0 448.0 C 398.5 447.33013916015625 396.66986083984375 445.5 396.0 443.0 C 396.66986083984375 440.5 398.5 438.66986083984375 401.0 438.0 C 403.5 438.66986083984375 405.33013916015625 440.5 406.0 443.0" fill="rgb(67, 77, 92)" opacity="1.0" stroke="rgb(60, 82, 52)" stroke-linecap="round" stroke-linejoin="round" stroke-opacity="0.6700916" stroke-width="0.0"/>
    <path d="M 301.0 570.0 C 300.33013916015625 572.5 298.5 574.3301391601562 296.0 575.0 C 293.5 574.3301391601562 291.66986083984375 572.5 291.0 570.0 C 291.66986083984375 567.5 293.5 565.6698608398438 296.0 565.0 C 298.5 565.6698608398438 300.33013916015625 567.5 301.0 570.0" fill="rgb(75, 76, 85)" opacity="1.0" stroke="rgb(123, 235, 57)" stroke-linecap="round" stroke-linejoin="round" stroke-opacity="0.48806152" stroke-width="0.0"/>
    <path d="M 592.0 258.0 C 591.3301391601562 260.5 589.5 262.33013916015625 587.0 263.0 C 584.5 262.33013916015625 582.6698608398438 260.5 582.0 258.0 C 582.6698608398438 255.5 584.5 253.6698760986328 587.0 253.0 C 589.5 253.6698760986328 591.3301391601562 255.5 592.0 258.0" fill="rgb(133, 164, 174)" opacity="1.0" stroke="rgb(78, 253, 81)" stroke-linecap="round" stroke-linejoin="round" stroke-opacity="0.5309839" stroke-width="0.0"/>
    <path d="M 559.0 122.0 C 558.3301391601562 124.5 556.5 126.33012390136719 554.0 127.0 C 551.5 126.33012390136719 549.6698608398438 124.5 549.0 122.0 C 549.6698608398438 119.5 551.5 117.66987609863281 554.0 117.0 C 556.5 117.66987609863281 558.3301391601562 119.5 559.0 122.0" fill="rgb(200, 154, 142)" opacity="1.0" stroke="rgb(215, 110, 197)" stroke-linecap="round" stroke-linejoin="round" stroke-opacity="0.8425649" stroke-width="0.0"/>
    <path d="M 538.0 123.0 C 537.3301391601562 125.5 535.5 127.33012390136719 533.0 128.0 C 530.5 127.33012390136719 528.6698608398438 125.5 528.0 123.0 C 528.6698608398438 120.5 530.5 118.66987609863281 533.0 118.0 C 535.5 118.66987609863281 537.3301391601562 120.5 538.0 123.0" fill="rgb(204, 151, 144)" opacity="1.0" stroke="rgb(239, 54, 216)" stroke-linecap="round" stroke-linejoin="round" stroke-opacity="0.637288" stroke-width="0.0"/>
    <path d="M 523.0 148.0 C 522.3301391601562 150.5 520.5 152.3301239013672 518.0 153.0 C 515.5 152.3301239013672 513.6698608398438 150.5 513.0 148.0 C 513.6698608398438 145.5 515.5 143.6698760986328 518.0 143.0 C 520.5 143.6698760986328 522.3301391601562 145.5 523.0 148.0" fill="rgb(180, 146, 129)" opacity="1.0" stroke="rgb(147, 180, 74)" stroke-linecap="round" stroke-linejoin="round" stroke-opacity="0.17530707" stroke-width="0.0"/>
    <path d="M 509.0 152.0 C 508.33013916015625 154.5 506.5 156.3301239013672 504.0 157.0 C 501.5 156.3301239013672 499.66986083984375 154.5 499.0 152.0 C 499.66986083984375 149.5 501.5 147.6698760986328 504.0 147.0 C 506.5 147.6698760986328 508.33013916015625 149.5 509.0 152.0" fill="rgb(196, 149, 132)" opacity="1.0" stroke="rgb(140, 18, 15)" stroke-linecap="round" stroke-linejoin="round" stroke-opacity="0.24111556" stroke-width="0.0"/>
    <path d="M 397.0 453.0 C 396.33013916015625 455.5 394.5 457.33013916015625 392.0 458.0 C 389.5 457.33013916015625 387.66986083984375 455.5 387.0 453.0 C 387.66986083984375 450.5 389.5 448.66986083984375 392.0 448.0 C 394.5 448.66986083984375 396.33013916015625 450.5 397.0 453.0" fill="rgb(68, 77, 95)" opacity="1.0" stroke="rgb(147, 228, 8)" stroke-linecap="round" stroke-linejoin="round" stroke-opacity="0.11126726" stroke-width="0.0"/>
    <path d="M 546.0 108.0 C 545.3301391601562 110.5 543.5 112.33012390136719 541.0 113.0 C 538.5 112.33012390136719 536.6698608398438 110.5 536.0 108.0 C 536.6698608398438 105.5 538.5 103.66987609863281 541.0 103.0 C 543.5 103.66987609863281 545.3301391601562 105.5 546.0 108.0" fill="rgb(208, 157, 140)" opacity="1.0" stroke="rgb(71, 16, 115)" stroke-linecap="round" stroke-linejoin="round" stroke-opacity="0.48866823" stroke-width="0.0"/>
    <path d="M 526.0 129.0 C 525.3301391601562 131.5 523.5 133.3301239013672 521.0 134.0 C 518.5 133.3301239013672 516.6698608398438 131.5 516.0 129.0 C 516.6698608398438 126.5 518.5 124.66987609863281 521.0 124.0 C 523.5 124.66987609863281 525.3301391601562 126.5 526.0 129.0" fill="rgb(201, 146, 137)" opacity="1.0" stroke="rgb(112, 217, 81)" stroke-linecap="round" stroke-linejoin="round" stroke-opacity="0.25618333" stroke-width="0.0"/>
    <path d="M 533.0 157.0 C 532.3301391601562 159.5 530.5 161.3301239013672 528.0 162.0 C 525.5 161.3301239013672 523.6698608398438 159.5 523.0 157.0 C 523.6698608398438 154.5 525.5 152.6698760986328 528.0 152.0 C 530.5 152.6698760986328 532.3301391601562 154.5 533.0 157.0" fill="rgb(189, 148, 132)" opacity="1.0" stroke="rgb(3, 72, 60)" stroke-linecap="round" stroke-linejoin="round" stroke-opacity="0.43958035" stroke-width="0.0"/>
    <path d="M 304.0 560.0 C 303.33013916015625 562.5 301.5 564.3301391601562 299.0 565.0 C 296.5 564.3301391601562 294.66986083984375 562.5 294.0 560.0 C 294.66986083984375 557.5 296.5 555.6698608398438 299.0 555.0 C 301.5 555.6698608398438 303.33013916015625 557.5 304.0 560.0" fill="rgb(70, 76, 85)" opacity="1.0" stroke="rgb(159, 19, 118)" stroke-linecap="round" stroke-linejoin="round" stroke-opacity="0.98827285" stroke-width="0.0"/>
    <path d="M 310.0 568.0 C 309.33013916015625 570.5 307.5 572.3301391601562 305.0 573.0 C 302.5 572.3301391601562 300.66986083984375 570.5 300.0 568.0 C 300.66986083984375 565.5 302.5 563.6698608398438 305.0 563.0 C 307.5 563.6698608398438 309.33013916015625 565.5 310.0 568.0" fill="rgb(75, 83, 95)" opacity="1.0" stroke="rgb(80, 68, 177)" stroke-linecap="round" stroke-linejoin="round" stroke-opacity="0.97336996" stroke-width="0.0"/>
    <path d="M 314.0 329.0 C 313.33013916015625 331.5 311.5 333.33013916015625 309.0 334.0 C 306.5 333.33013916015625 304.66986083984375 331.5 304.0 329.0 C 304.66986083984375 326.5 306.5 324.66986083984375 309.0 324.0 C 311.5 324.66986083984375 313.33013916015625 326.5 314.0 329.0" fill="rgb(252, 200, 0)" opacity="1.0" stroke="rgb(224, 58, 17)" stroke-linecap="round" stroke-linejoin="round" stroke-opacity="0.22130553" stroke-width="0.0"/>
    <path d="M 510.0 178.0 C 509.33013916015625 180.5 507.5 182.3301239013672 505.0 183.0 C 502.5 182.3301239013672 500.66986083984375 180.5 500.0 178.0 C 500.66986083984375 175.5 502.5 173.6698760986328 505.0 173.0 C 507.5 173.6698760986328 509.33013916015625 175.5 510.0 178.0" fill="rgb(197, 161, 143)" opacity="1.0" stroke="rgb(251, 251, 188)" stroke-linecap="round" stroke-linejoin="round" stroke-opacity="0.3272676" stroke-width="0.0"/>
    <path d="M 226.0 186.0 C 225.3301239013672 188.5 223.5 190.3301239013672 221.0 191.0 C 218.5 190.3301239013672 216.6698760986328 188.5 216.0 186.0 C 216.6698760986328 183.5 218.5 181.6698760986328 221.0 181.0 C 223.5 181.6698760986328 225.3301239013672 183.5 226.0 186.0" fill="rgb(89, 86, 95)" opacity="1.0" stroke="rgb(77, 42, 174)" stroke-linecap="round" stroke-linejoin="round" stroke-opacity="0.9982881" stroke-width="0.0"/>
    <path d="M 311.0 560.0 C 310.33013916015625 562.5 308.5 564.3301391601562 306.0 565.0 C 303.5 564.3301391601562 301.66986083984375 562.5 301.0 560.0 C 301.66986083984375 557.5 303.5 555.6698608398438 306.0 555.0 C 308.5 555.6698608398438 310.33013916015625 557.5 311.0 560.0" fill="rgb(86, 96, 107)" opacity="1.0" stroke="rgb(9, 66, 140)" stroke-linecap="round" stroke-linejoin="round" stroke-opacity="0.49454793" stroke-width="0.0"/>
    <path d="M 382.0 602.0 C 381.33013916015625 604.5 379.5 606.3301391601562 377.0 607.0 C 374.5 606.3301391601562 372.66986083984375 604.5 372.0 602.0 C 372.66986083984375 599.5 374.5 597.6698608398438 377.0 597.0 C 379.5 597.6698608398438 381.33013916015625 599.5 382.0 602.0" fill="rgb(85, 92, 107)" opacity="1.0" stroke="rgb(250, 114, 203)" stroke-linecap="round" stroke-linejoin="round" stroke-opacity="0.38310388" stroke-width="0.0"/>
    <path d="M 388.0 605.0 C 387.33013916015625 607.5 385.5 609.3301391601562 383.0 610.0 C 380.5 609.3301391601562 378.66986083984375 607.5 378.0 605.0 C 378.66986083984375 602.5 380.5 600.6698608398438 383.0 600.0 C 385.5 600.6698608398438 387.33013916015625 602.5 388.0 605.0" fill="rgb(90, 99, 111)" opacity="1.0" stroke="rgb(208, 248, 249)" stroke-linecap="round" stroke-linejoin="round" stroke-opacity="0.43272856" stroke-width="0.0"/>
    <path d="M 541.0 116.0 C 540.3301391601562 118.5 538.5 120.33012390136719 536.0 121.0 C 533.5 120.33012390136719 531.6698608398438 118.5 531.0 116.0 C 531.6698608398438 113.5 533.5 111.66987609863281 536.0 111.0 C 538.5 111.66987609863281 540.3301391601562 113.5 541.0 116.0" fill="rgb(193, 138, 128)" opacity="1.0" stroke="rgb(78, 72, 114)" stroke-linecap="round" stroke-linejoin="round" stroke-opacity="0.7839405" stroke-width="0.0"/>
    <path d="M 552.0 162.0 C 551.3301391601562 164.5 549.5 166.3301239013672 547.0 167.0 C 544.5 166.3301239013672 542.6698608398438 164.5 542.0 162.0 C 542.6698608398438 159.5 544.5 157.6698760986328 547.0 157.0 C 549.5 157.6698760986328 551.3301391601562 159.5 552.0 162.0" fill="rgb(190, 154, 142)" opacity="1.0" stroke="rgb(6, 49, 53)" stroke-linecap="round" stroke-linejoin="round" stroke-opacity="0.24831946" stroke-width="0.0"/>
    <path d="M 561.0 168.0 C 560.3301391601562 170.5 558.5 172.3301239013672 556.0 173.0 C 553.5 172.3301239013672 551.6698608398438 170.5 551.0 168.0 C 551.6698608398438 165.5 553.5 163.6698760986328 556.0 163.0 C 558.5 163.6698760986328 560.3301391601562 165.5 561.0 168.0" fill="rgb(194, 159, 148)" opacity="1.0" stroke="rgb(163, 68, 78)" stroke-linecap="round" stroke-linejoin="round" stroke-opacity="0.19207609" stroke-width="0.0"/>
    <path d="M 510.0 173.0 C 509.33013916015625 175.5 507.5 177.3301239013672 505.0 178.0 C 502.5 177.3301239013672 500.66986083984375 175.5 500.0 173.0 C 500.66986083984375 170.5 502.5 168.6698760986328 505.0 168.0 C 507.5 168.6698760986328 509.33013916015625 170.5 510.0 173.0" fill="rgb(179, 142, 123)" opacity="1.0" stroke="rgb(209, 64, 53)" stroke-linecap="round" stroke-linejoin="round" stroke-opacity="0.5980995" stroke-width="0.0"/>
    <path d="M 224.0 184.0 C 223.3301239013672 186.5 221.5 188.3301239013672 219.0 189.0 C 216.5 188.3301239013672 214.6698760986328 186.5 214.0 184.0 C 214.6698760986328 181.5 216.5 179.6698760986328 219.0 179.0 C 221.5 179.6698760986328 223.3301239013672 181.5 224.0 184.0" fill="rgb(75, 73, 91)" opacity="1.0" stroke="rgb(13, 84, 34)" stroke-linecap="round" stroke-linejoin="round" stroke-opacity="0.59428614" stroke-width="0.0"/>
    <path d="M 471.0 476.0 C 470.33013916015625 478.5 468.5 480.33013916015625 466.0 481.0 C 463.5 480.33013916015625 461.66986083984375 478.5 461.0 476.0 C 461.66986083984375 473.5 463.5 471.66986083984375 466.0 471.0 C 468.5 471.66986083984375 470.33013916015625 473.5 471.0 476.0" fill="rgb(98, 94, 94)" opacity="1.0" stroke="rgb(93, 112, 224)" stroke-linecap="round" stroke-linejoin="round" stroke-opacity="0.47425488" stroke-width="0.0"/>
    <path d="M 302.0 578.0 C 301.33013916015625 580.5 299.5 582.3301391601562 297.0 583.0 C 294.5 582.3301391601562 292.66986083984375 580.5 292.0 578.0 C 292.66986083984375 575.5 294.5 573.6698608398438 297.0 573.0 C 299.5 573.6698608398438 301.33013916015625 575.5 302.0 578.0" fill="rgb(101, 97, 94)" opacity="1.0" stroke="rgb(214, 26, 98)" stroke-linecap="round" stroke-linejoin="round" stroke-opacity="0.3074711" stroke-width="0.0"/>
  </g>
</svg>
