<?xml version="1.0" ?>
<svg height="768" version="1.1" width="768" xmlns="http://www.w3.org/2000/svg">
  <defs/>
  <g>
    <path d="M 548.8330078125 607.748779296875 C -109.67505645751953 573.3851318359375 -165.7355194091797 469.93731689453125 -302.1061706542969 319.2915344238281 C -16.806474685668945 129.92138671875 -15.423881530761719 121.95367431640625 -12.012309074401855 7.0339741706848145 C -12.361435890197754 -16.83322525024414 -8.218883514404297 -16.528688430786133 535.3978881835938 -16.96657943725586 C 586.547607421875 -72.00355529785156 585.2332153320312 -93.03678131103516 548.8330078125 607.748779296875" fill="rgb(138, 150, 157)" opacity="1.0" stroke="rgb(238, 5, 111)" stroke-linecap="round" stroke-linejoin="round" stroke-opacity="0.63917536" stroke-width="0.0"/>
    <path d="M 645.3172607421875 880.9928588867188 C 549.407958984375 784.6454467773438 539.6763916015625 792.9683837890625 -44.68667984008789 765.1181640625 C -1.209434151649475 476.9706115722656 100.13436126708984 416.2527770996094 211.3616180419922 429.0343017578125 C 456.8204345703125 762.96533203125 313.15966796875 497.32867431640625 797.3571166992188 483.1798400878906 C 788.4412231445312 858.7762451171875 726.052978515625 863.856689453125 645.3172607421875 880.9928588867188" fill="rgb(177, 190, 192)" opacity="1.0" stroke="rgb(215, 225, 99)" stroke-linecap="round" stroke-linejoin="round" stroke-opacity="0.8708367" stroke-width="0.0"/>
    <path d="M 765.5795288085938 -49.24482727050781 C 786.0907592773438 412.9917297363281 784.8739624023438 427.7613830566406 757.69091796875 562.9293823242188 C 418.9960021972656 558.1048583984375 664.6221313476562 497.6639099121094 577.4263305664062 417.4798278808594 C 485.45440673828125 448.0875549316406 396.4634094238281 456.428466796875 336.2421569824219 138.3092498779297 C 496.75396728515625 61.103851318359375 530.8523559570312 -10.938570976257324 765.5795288085938 -49.24482727050781" fill="rgb(109, 120, 129)" opacity="0.5614073" stroke="rgb(212, 27, 104)" stroke-linecap="round" stroke-linejoin="round" stroke-opacity="0.10286519" stroke-width="0.0"/>
    <path d="M 239.0 512.0 C 238.3301239013672 514.5 236.5 516.3301391601562 234.0 517.0 C 231.5 516.3301391601562 229.6698760986328 514.5 229.0 512.0 C 229.6698760986328 509.5 231.5 507.66986083984375 234.0 507.0 C 236.5 507.66986083984375 238.3301239013672 509.5 239.0 512.0" fill="rgb(255, 249, 228)" opacity="1.0" stroke="rgb(176, 102, 104)" stroke-linecap="round" stroke-linejoin="round" stroke-opacity="0.58385277" stroke-width="0.0"/>
    <path d="M 429.0 605.0 C 428.33013916015625 607.5 426.5 609.3301391601562 424.0 610.0 C 421.5 609.3301391601562 419.66986083984375 607.5 419.0 605.0 C 419.66986083984375 602.5 421.5 600.6698608398438 424.0 600.0 C 426.5 600.6698608398438 428.33013916015625 602.5 429.0 605.0" fill="rgb(255, 250, 230)" opacity="1.0" stroke="rgb(140, 163, 225)" stroke-linecap="round" stroke-linejoin="round" stroke-opacity="0.30783916" stroke-width="0.0"/>
    <path d="M 199.0 445.0 C 198.3301239013672 447.5 196.5 449.33013916015625 194.0 450.0 C 191.5 449.33013916015625 189.6698760986328 447.5 189.0 445.0 C 189.6698760986328 442.5 191.5 440.66986083984375 194.0 440.0 C 196.5 440.66986083984375 198.3301239013672 442.5 199.0 445.0" fill="rgb(255, 250, 229)" opacity="1.0" stroke="rgb(88, 123, 84)" stroke-linecap="round" stroke-linejoin="round" stroke-opacity="0.9968064" stroke-width="0.0"/>
    <path d="M 306.0 302.0 C 305.33013916015625 304.5 303.5 306.33013916015625 301.0 307.0 C 298.5 306.33013916015625 296.66986083984375 304.5 296.0 302.0 C 296.66986083984375 299.5 298.5 297.66986083984375 301.0 297.0 C 303.5 297.66986083984375 305.33013916015625 299.5 306.0 302.0" fill="rgb(254, 251, 234)" opacity="1.0" stroke="rgb(157, 145, 192)" stroke-linecap="round" stroke-linejoin="round" stroke-opacity="0.58758956" stroke-width="0.0"/>
  </g>
</svg>
