<?xml version="1.0" ?>
<svg height="768" version="1.1" width="768" xmlns="http://www.w3.org/2000/svg">
  <defs/>
  <g>
    <path d="M 548.6585083007812 610.7601318359375 C -111.0486831665039 575.3076171875 -166.29217529296875 470.50311279296875 -302.35028076171875 319.385009765625 C -16.806474685668945 129.92138671875 -15.423881530761719 121.95367431640625 -12.012309074401855 7.0339741706848145 C -12.361435890197754 -16.83322525024414 -8.218883514404297 -16.528688430786133 535.0879516601562 -16.965309143066406 C 586.49365234375 -71.90196990966797 585.353271484375 -92.53838348388672 548.6585083007812 610.7601318359375" fill="rgb(118, 131, 141)" opacity="0.9931495" stroke="rgb(238, 5, 111)" stroke-linecap="round" stroke-linejoin="round" stroke-opacity="0.63917536" stroke-width="0.0"/>
    <path d="M 645.6734619140625 882.0555419921875 C 549.4010620117188 784.7251586914062 539.0948486328125 794.63037109375 -50.57509994506836 765.2291870117188 C -10.111824989318848 464.164794921875 95.33819580078125 400.23358154296875 192.40951538085938 439.84234619140625 C 492.4505310058594 774.851318359375 340.835205078125 483.17974853515625 795.218017578125 472.8572998046875 C 790.6035766601562 862.0098876953125 727.8245239257812 866.8396606445312 645.6734619140625 882.0555419921875" fill="rgb(130, 157, 173)" opacity="0.96498555" stroke="rgb(215, 225, 99)" stroke-linecap="round" stroke-linejoin="round" stroke-opacity="0.8708367" stroke-width="0.0"/>
    <path d="M 765.2504272460938 -57.4432258605957 C 787.2031860351562 412.2059631347656 784.9542846679688 427.74395751953125 773.46875 563.5505981445312 C 458.7601318359375 562.1007080078125 632.167236328125 493.4338073730469 593.8434448242188 414.6864929199219 C 487.5273132324219 443.8282165527344 380.7939453125 439.140380859375 329.0955810546875 153.59336853027344 C 529.4740600585938 66.275390625 521.773681640625 -17.165416717529297 765.2504272460938 -57.4432258605957" fill="rgb(98, 104, 111)" opacity="0.5405823" stroke="rgb(212, 27, 104)" stroke-linecap="round" stroke-linejoin="round" stroke-opacity="0.10286519" stroke-width="0.0"/>
    <path d="M 292.50518798828125 564.7188720703125 C 294.42913818359375 609.0166015625 376.6105041503906 649.08984375 301.375 608.9699096679688 C 226.05636596679688 572.904541015625 220.1351776123047 552.0887451171875 188.40203857421875 499.761962890625 C 172.49920654296875 460.6744384765625 177.62571716308594 460.4874572753906 223.95359802246094 453.4927062988281 C 252.8038330078125 521.5613403320312 285.4226989746094 480.2060852050781 292.50518798828125 564.7188720703125" fill="rgb(250, 246, 227)" opacity="1.0" stroke="rgb(176, 102, 104)" stroke-linecap="round" stroke-linejoin="round" stroke-opacity="0.58385277" stroke-width="0.0"/>
    <path d="M 608.3518676757812 417.00762939453125 C 564.5859985351562 639.9019165039062 433.4723815917969 582.5595092773438 393.2855224609375 677.3026123046875 C 228.41822814941406 559.402587890625 335.03729248046875 530.4041748046875 385.9612121582031 634.883056640625 C 403.8587341308594 585.0442504882812 417.9458923339844 589.8106689453125 456.2875671386719 567.3804931640625 C 499.428955078125 656.9252319335938 412.6741027832031 519.802978515625 608.3518676757812 417.00762939453125" fill="rgb(255, 249, 230)" opacity="0.9244" stroke="rgb(140, 163, 225)" stroke-linecap="round" stroke-linejoin="round" stroke-opacity="0.30783916" stroke-width="0.0"/>
    <path d="M 226.80799865722656 461.53314208984375 C 249.91424560546875 507.6440734863281 282.0436096191406 489.3067321777344 188.4685821533203 495.746826171875 C 163.4042510986328 435.54443359375 199.58424377441406 466.8973083496094 141.3165283203125 436.0714416503906 C 115.33077239990234 329.7839660644531 328.688232421875 343.4136047363281 148.31124877929688 405.04986572265625 C 196.41268920898438 419.5116271972656 223.94288635253906 419.6601257324219 226.80799865722656 461.53314208984375" fill="rgb(254, 249, 229)" opacity="0.92944276" stroke="rgb(88, 123, 84)" stroke-linecap="round" stroke-linejoin="round" stroke-opacity="0.9968064" stroke-width="0.0"/>
    <path d="M 350.2900695800781 342.1498107910156 C 345.3944396972656 349.98516845703125 337.3593444824219 322.34613037109375 319.7128601074219 316.6211242675781 C 311.2151184082031 309.3256530761719 272.4354248046875 308.61444091796875 253.16990661621094 308.4075622558594 C 256.90240478515625 306.076416015625 271.9803161621094 289.8976745605469 297.9523010253906 290.7735595703125 C 299.1978759765625 290.53192138671875 339.65386962890625 296.78790283203125 350.2900695800781 342.1498107910156" fill="rgb(253, 249, 230)" opacity="0.9803896" stroke="rgb(157, 145, 192)" stroke-linecap="round" stroke-linejoin="round" stroke-opacity="0.58758956" stroke-width="0.0"/>
    <path d="M 627.0 413.0 C 626.3301391601562 415.5 624.5 417.33013916015625 622.0 418.0 C 619.5 417.33013916015625 617.6698608398438 415.5 617.0 413.0 C 617.6698608398438 410.5 619.5 408.66986083984375 622.0 408.0 C 624.5 408.66986083984375 626.3301391601562 410.5 627.0 413.0" fill="rgb(255, 252, 234)" opacity="1.0" stroke="rgb(133, 102, 192)" stroke-linecap="round" stroke-linejoin="round" stroke-opacity="0.6550353" stroke-width="0.0"/>
    <path d="M 485.0 438.0 C 484.33013916015625 440.5 482.5 442.33013916015625 480.0 443.0 C 477.5 442.33013916015625 475.66986083984375 440.5 475.0 438.0 C 475.66986083984375 435.5 477.5 433.66986083984375 480.0 433.0 C 482.5 433.66986083984375 484.33013916015625 435.5 485.0 438.0" fill="rgb(255, 250, 228)" opacity="1.0" stroke="rgb(38, 188, 221)" stroke-linecap="round" stroke-linejoin="round" stroke-opacity="0.7373106" stroke-width="0.0"/>
    <path d="M 332.0 349.0 C 331.33013916015625 351.5 329.5 353.33013916015625 327.0 354.0 C 324.5 353.33013916015625 322.66986083984375 351.5 322.0 349.0 C 322.66986083984375 346.5 324.5 344.66986083984375 327.0 344.0 C 329.5 344.66986083984375 331.33013916015625 346.5 332.0 349.0" fill="rgb(255, 252, 236)" opacity="1.0" stroke="rgb(146, 39, 68)" stroke-linecap="round" stroke-linejoin="round" stroke-opacity="0.30690554" stroke-width="0.0"/>
    <path d="M 532.0 202.0 C 531.3301391601562 204.5 529.5 206.3301239013672 527.0 207.0 C 524.5 206.3301239013672 522.6698608398438 204.5 522.0 202.0 C 522.6698608398438 199.5 524.5 197.6698760986328 527.0 197.0 C 529.5 197.6698760986328 531.3301391601562 199.5 532.0 202.0" fill="rgb(255, 253, 234)" opacity="1.0" stroke="rgb(107, 103, 241)" stroke-linecap="round" stroke-linejoin="round" stroke-opacity="0.36909917" stroke-width="0.0"/>
    <path d="M 386.0 441.0 C 385.33013916015625 443.5 383.5 445.33013916015625 381.0 446.0 C 378.5 445.33013916015625 376.66986083984375 443.5 376.0 441.0 C 376.66986083984375 438.5 378.5 436.66986083984375 381.0 436.0 C 383.5 436.66986083984375 385.33013916015625 438.5 386.0 441.0" fill="rgb(65, 75, 90)" opacity="1.0" stroke="rgb(91, 233, 66)" stroke-linecap="round" stroke-linejoin="round" stroke-opacity="0.5954912" stroke-width="0.0"/>
    <path d="M 574.0 105.0 C 573.3301391601562 107.5 571.5 109.33012390136719 569.0 110.0 C 566.5 109.33012390136719 564.6698608398438 107.5 564.0 105.0 C 564.6698608398438 102.5 566.5 100.66987609863281 569.0 100.0 C 571.5 100.66987609863281 573.3301391601562 102.5 574.0 105.0" fill="rgb(5, 6, 13)" opacity="1.0" stroke="rgb(165, 36, 30)" stroke-linecap="round" stroke-linejoin="round" stroke-opacity="0.90795535" stroke-width="0.0"/>
    <path d="M 409.0 458.0 C 408.33013916015625 460.5 406.5 462.33013916015625 404.0 463.0 C 401.5 462.33013916015625 399.66986083984375 460.5 399.0 458.0 C 399.66986083984375 455.5 401.5 453.66986083984375 404.0 453.0 C 406.5 453.66986083984375 408.33013916015625 455.5 409.0 458.0" fill="rgb(62, 73, 90)" opacity="1.0" stroke="rgb(193, 39, 18)" stroke-linecap="round" stroke-linejoin="round" stroke-opacity="0.9698205" stroke-width="0.0"/>
    <path d="M 435.0 463.0 C 434.33013916015625 465.5 432.5 467.33013916015625 430.0 468.0 C 427.5 467.33013916015625 425.66986083984375 465.5 425.0 463.0 C 425.66986083984375 460.5 427.5 458.66986083984375 430.0 458.0 C 432.5 458.66986083984375 434.33013916015625 460.5 435.0 463.0" fill="rgb(255, 252, 231)" opacity="1.0" stroke="rgb(52, 169, 171)" stroke-linecap="round" stroke-linejoin="round" stroke-opacity="0.192621" stroke-width="0.0"/>
  </g>
</svg>
