<?xml version="1.0" ?>
<svg height="768" version="1.1" width="768" xmlns="http://www.w3.org/2000/svg">
  <defs/>
  <g>
    <path d="M 548.3599853515625 612.3960571289062 C -111.62419128417969 576.2671508789062 -166.39361572265625 470.6944885253906 -302.35174560546875 319.3916931152344 C -16.806474685668945 129.92138671875 -15.423881530761719 121.95367431640625 -12.012309074401855 7.0339741706848145 C -12.361435890197754 -16.83322525024414 -8.218883514404297 -16.528688430786133 534.8707885742188 -16.978260040283203 C 586.395263671875 -71.96115112304688 585.2943725585938 -92.61803436279297 548.3599853515625 612.3960571289062" fill="rgb(92, 97, 108)" opacity="1.0" stroke="rgb(238, 5, 111)" stroke-linecap="round" stroke-linejoin="round" stroke-opacity="0.63917536" stroke-width="0.0"/>
    <path d="M 645.6734619140625 882.0349731445312 C 549.4010620117188 784.7303466796875 539.0270385742188 794.819580078125 -51.056396484375 765.2098388671875 C -11.113582611083984 461.4317321777344 94.50076293945312 392.98870849609375 188.05406188964844 440.58001708984375 C 494.4853820800781 776.9571533203125 355.5573425292969 484.6994323730469 795.5094604492188 472.7063293457031 C 790.5370483398438 861.9254150390625 727.76708984375 866.7634887695312 645.6734619140625 882.0349731445312" fill="rgb(129, 158, 174)" opacity="0.9680348" stroke="rgb(215, 225, 99)" stroke-linecap="round" stroke-linejoin="round" stroke-opacity="0.8708367" stroke-width="0.0"/>
    <path d="M 764.7504272460938 -60.3071403503418 C 787.546142578125 411.9535827636719 784.979248046875 427.74041748046875 777.3601684570312 563.0100708007812 C 466.22186279296875 561.1854248046875 632.441650390625 491.17852783203125 590.451171875 412.2599792480469 C 486.54608154296875 463.9294738769531 378.8356628417969 456.2341613769531 331.0765380859375 157.96749877929688 C 537.44189453125 67.12971496582031 519.1320190429688 -19.26947784423828 764.7504272460938 -60.3071403503418" fill="rgb(95, 105, 118)" opacity="0.9311078" stroke="rgb(212, 27, 104)" stroke-linecap="round" stroke-linejoin="round" stroke-opacity="0.10286519" stroke-width="0.0"/>
    <path d="M 295.03900146484375 579.1478271484375 C 297.9059143066406 601.8427124023438 399.9294128417969 663.5860595703125 296.1992492675781 606.11376953125 C 232.126708984375 575.4280395507812 220.87796020507812 555.80126953125 188.36402893066406 499.3003845214844 C 171.95204162597656 461.1215515136719 178.79132080078125 455.7842102050781 220.22686767578125 455.7917175292969 C 271.5075378417969 530.982421875 283.1871032714844 477.1136779785156 295.03900146484375 579.1478271484375" fill="rgb(250, 246, 227)" opacity="1.0" stroke="rgb(176, 102, 104)" stroke-linecap="round" stroke-linejoin="round" stroke-opacity="0.58385277" stroke-width="0.0"/>
    <path d="M 599.4161376953125 447.4293518066406 C 569.3118286132812 625.1868896484375 427.8229675292969 587.9232788085938 392.59088134765625 679.0311889648438 C 199.90975952148438 520.3740234375 384.6882019042969 562.6983642578125 382.93035888671875 641.412353515625 C 405.6398010253906 583.5730590820312 411.0015563964844 593.6397094726562 454.73614501953125 567.736083984375 C 519.298828125 626.096923828125 400.87591552734375 513.8502807617188 599.4161376953125 447.4293518066406" fill="rgb(250, 246, 227)" opacity="0.97631884" stroke="rgb(140, 163, 225)" stroke-linecap="round" stroke-linejoin="round" stroke-opacity="0.30783916" stroke-width="0.0"/>
    <path d="M 227.6920166015625 461.3940734863281 C 251.134765625 512.2530517578125 291.4466247558594 490.7159118652344 188.4515838623047 496.4664611816406 C 163.62542724609375 436.0119323730469 199.73898315429688 466.67340087890625 139.87887573242188 435.4237060546875 C 128.3203582763672 317.80645751953125 291.05908203125 363.3360595703125 178.99586486816406 390.4677429199219 C 111.02166748046875 437.90570068359375 216.7603759765625 380.4725036621094 227.6920166015625 461.3940734863281" fill="rgb(252, 248, 228)" opacity="0.97015464" stroke="rgb(88, 123, 84)" stroke-linecap="round" stroke-linejoin="round" stroke-opacity="0.9968064" stroke-width="0.0"/>
    <path d="M 350.4825134277344 343.06634521484375 C 342.4704895019531 347.1324462890625 338.8236083984375 323.6110534667969 318.952392578125 316.44482421875 C 310.7629699707031 309.57659912109375 273.0149230957031 308.7115478515625 252.93569946289062 308.493408203125 C 255.76669311523438 306.9529113769531 271.4930114746094 289.34765625 298.80120849609375 290.6972961425781 C 299.0460205078125 290.6094665527344 340.4885559082031 296.6520690917969 350.4825134277344 343.06634521484375" fill="rgb(252, 249, 230)" opacity="0.97669923" stroke="rgb(157, 145, 192)" stroke-linecap="round" stroke-linejoin="round" stroke-opacity="0.58758956" stroke-width="0.0"/>
    <path d="M 634.8439331054688 437.9347229003906 C 636.7442016601562 429.0435791015625 638.0284423828125 435.5956726074219 535.71337890625 475.8798522949219 C 551.1656494140625 367.0300598144531 655.3021850585938 446.9154357910156 594.1359252929688 390.5711364746094 C 546.1785278320312 390.7834777832031 491.92108154296875 273.9124755859375 611.2830810546875 365.27093505859375 C 619.5559692382812 373.9212951660156 638.3932495117188 418.23236083984375 634.8439331054688 437.9347229003906" fill="rgb(255, 250, 229)" opacity="0.9698574" stroke="rgb(133, 102, 192)" stroke-linecap="round" stroke-linejoin="round" stroke-opacity="0.6550353" stroke-width="0.0"/>
    <path d="M 498.0822448730469 442.3232727050781 C 461.5498962402344 483.93707275390625 498.2807312011719 498.8981628417969 418.2924499511719 562.9627075195312 C 503.7962341308594 445.27227783203125 461.7645568847656 467.395263671875 435.93212890625 491.4088134765625 C 476.43182373046875 449.3531188964844 441.9972229003906 407.0934753417969 478.7029113769531 398.564453125 C 514.5458984375 414.3453674316406 515.299560546875 398.4818420410156 498.0822448730469 442.3232727050781" fill="rgb(252, 248, 227)" opacity="0.9889324" stroke="rgb(38, 188, 221)" stroke-linecap="round" stroke-linejoin="round" stroke-opacity="0.7373106" stroke-width="0.0"/>
    <path d="M 335.72369384765625 354.4814147949219 C 351.6446533203125 355.12127685546875 306.4418029785156 354.7434997558594 298.8560485839844 345.9446716308594 C 309.6355895996094 356.4949035644531 256.75146484375 316.79620361328125 293.5887145996094 324.7315368652344 C 305.1421813964844 358.6412048339844 333.1813049316406 336.41925048828125 318.7400817871094 326.9941711425781 C 328.47332763671875 329.5162353515625 340.2049560546875 352.08154296875 335.72369384765625 354.4814147949219" fill="rgb(253, 248, 226)" opacity="0.980458" stroke="rgb(146, 39, 68)" stroke-linecap="round" stroke-linejoin="round" stroke-opacity="0.30690554" stroke-width="0.0"/>
    <path d="M 571.2166748046875 254.3001708984375 C 479.67822265625 307.4854431152344 613.8218383789062 69.08893585205078 527.1582641601562 224.7333984375 C 519.8927612304688 221.7593994140625 497.53271484375 197.89572143554688 508.3484191894531 197.04074096679688 C 488.9076843261719 182.90476989746094 478.46673583984375 130.30044555664062 553.3442993164062 90.03865814208984 C 582.7259521484375 99.77887725830078 576.025390625 233.4316864013672 571.2166748046875 254.3001708984375" fill="rgb(255, 238, 216)" opacity="0.86392367" stroke="rgb(107, 103, 241)" stroke-linecap="round" stroke-linejoin="round" stroke-opacity="0.36909917" stroke-width="0.0"/>
    <path d="M 405.6712341308594 343.2752685546875 C 431.8932800292969 487.7100830078125 422.6427307128906 449.2499694824219 364.11944580078125 495.9607849121094 C 329.7112731933594 472.7698059082031 369.3656921386719 473.2770080566406 353.32611083984375 462.8222351074219 C 331.19287109375 429.70367431640625 356.12628173828125 409.911376953125 376.88250732421875 318.6202392578125 C 276.30877685546875 149.74453735351562 427.240966796875 108.65130615234375 405.6712341308594 343.2752685546875" fill="rgb(23, 30, 47)" opacity="0.41503772" stroke="rgb(91, 233, 66)" stroke-linecap="round" stroke-linejoin="round" stroke-opacity="0.5954912" stroke-width="0.0"/>
    <path d="M 576.4462280273438 91.89673614501953 C 563.4920654296875 201.5266571044922 611.3820190429688 132.79568481445312 575.9519653320312 294.34039306640625 C 569.8350830078125 105.53984832763672 552.3207397460938 186.98985290527344 561.1043090820312 97.55352783203125 C 561.648681640625 52.804500579833984 420.8404846191406 233.77975463867188 411.63153076171875 192.1593017578125 C 522.0848388671875 107.37796783447266 546.51025390625 39.57990264892578 576.4462280273438 91.89673614501953" fill="rgb(6, 7, 20)" opacity="0.9616855" stroke="rgb(165, 36, 30)" stroke-linecap="round" stroke-linejoin="round" stroke-opacity="0.90795535" stroke-width="0.0"/>
    <path d="M 401.4229736328125 459.41253662109375 C 427.7158508300781 471.1778564453125 428.5951232910156 487.2005920410156 397.0725402832031 507.0800476074219 C 371.4471130371094 510.18426513671875 362.22344970703125 503.0020446777344 348.2413024902344 485.54486083984375 C 348.70513916015625 441.8019104003906 391.0387268066406 476.8062744140625 404.6650390625 431.1925964355469 C 409.13897705078125 431.9822082519531 413.6069641113281 437.85198974609375 401.4229736328125 459.41253662109375" fill="rgb(17, 16, 29)" opacity="1.0" stroke="rgb(193, 39, 18)" stroke-linecap="round" stroke-linejoin="round" stroke-opacity="0.9698205" stroke-width="0.0"/>
    <path d="M 431.3959655761719 495.7284851074219 C 476.71728515625 424.3168640136719 477.92510986328125 547.60595703125 339.4344177246094 510.5386657714844 C 262.86236572265625 451.9358825683594 442.72015380859375 562.7763671875 416.8583068847656 458.8720397949219 C 431.5441589355469 447.0618896484375 412.1085510253906 377.0614318847656 418.72589111328125 380.8082580566406 C 434.0467529296875 408.156494140625 453.2801818847656 460.05682373046875 431.3959655761719 495.7284851074219" fill="rgb(255, 251, 227)" opacity="0.9648336" stroke="rgb(52, 169, 171)" stroke-linecap="round" stroke-linejoin="round" stroke-opacity="0.192621" stroke-width="0.0"/>
    <path d="M 534.6212768554688 81.09889221191406 C 442.8330993652344 165.6622772216797 428.5137634277344 184.45001220703125 410.5771484375 182.12747192382812 C 381.0558166503906 173.2021026611328 332.7862243652344 217.3362579345703 268.9851379394531 0.4800422489643097 C 332.00946044921875 -15.609371185302734 376.1773986816406 -29.357257843017578 774.4879150390625 1.1637927293777466 C 639.1222534179688 245.46449279785156 572.2693481445312 27.53945541381836 534.6212768554688 81.09889221191406" fill="rgb(131, 165, 183)" opacity="0.95962214" stroke="rgb(123, 194, 71)" stroke-linecap="round" stroke-linejoin="round" stroke-opacity="0.36938947" stroke-width="0.0"/>
    <path d="M 367.3327941894531 120.05624389648438 C 405.23297119140625 177.9833526611328 379.91650390625 201.96636962890625 328.7593994140625 157.58631896972656 C 190.6797332763672 92.6567611694336 343.1360778808594 135.1691131591797 251.69784545898438 224.49838256835938 C 72.27056121826172 273.45208740234375 -8.538843154907227 304.650634765625 -30.175710678100586 2.7178430557250977 C 494.782958984375 -39.48784637451172 407.6446228027344 58.14679718017578 367.3327941894531 120.05624389648438" fill="rgb(160, 171, 177)" opacity="1.0" stroke="rgb(114, 52, 25)" stroke-linecap="round" stroke-linejoin="round" stroke-opacity="0.83143497" stroke-width="0.0"/>
    <path d="M 780.2874755859375 446.8428039550781 C 780.5408325195312 567.4853515625 779.3113403320312 571.1793823242188 766.134765625 594.2012329101562 C 692.7724609375 579.9871826171875 689.4974975585938 579.5048217773438 669.7575073242188 579.4510498046875 C 672.053466796875 478.8794860839844 674.2152099609375 475.36181640625 770.2415161132812 359.1245422363281 C 834.2007446289062 380.12554931640625 791.75537109375 414.3232116699219 780.2874755859375 446.8428039550781" fill="rgb(109, 158, 181)" opacity="0.23470707" stroke="rgb(216, 106, 216)" stroke-linecap="round" stroke-linejoin="round" stroke-opacity="0.03302753" stroke-width="0.0"/>
    <path d="M 767.5155029296875 18.5623779296875 C 801.6124267578125 610.588623046875 715.266357421875 570.58447265625 688.8445434570312 560.0419311523438 C 606.060302734375 551.9701538085938 604.7520751953125 543.7805786132812 605.6507568359375 536.553955078125 C 616.467041015625 493.9653015136719 615.4716186523438 487.03558349609375 635.8472290039062 392.0691223144531 C 613.481689453125 267.5620422363281 476.8419494628906 87.7994613647461 767.5155029296875 18.5623779296875" fill="rgb(185, 250, 255)" opacity="0.30893737" stroke="rgb(61, 12, 226)" stroke-linecap="round" stroke-linejoin="round" stroke-opacity="0.02483352" stroke-width="0.0"/>
    <path d="M 305.03790283203125 139.35421752929688 C 318.7418518066406 168.02565002441406 294.6731262207031 168.3809051513672 269.946533203125 129.0596160888672 C 207.1977996826172 88.82440948486328 347.42022705078125 135.69810485839844 203.63946533203125 315.6837463378906 C 117.47315979003906 102.46490478515625 215.8392791748047 61.07743835449219 232.53871154785156 85.42101287841797 C 260.10986328125 97.17198944091797 261.3168029785156 102.42985534667969 305.03790283203125 139.35421752929688" fill="rgb(0, 0, 2)" opacity="0.17666642" stroke="rgb(237, 51, 129)" stroke-linecap="round" stroke-linejoin="round" stroke-opacity="0.34229565" stroke-width="0.0"/>
    <path d="M 480.66339111328125 320.62493896484375 C 473.0450134277344 343.64434814453125 466.49365234375 341.2266540527344 465.52740478515625 342.7787780761719 C 461.9773254394531 342.8015441894531 445.44964599609375 347.54718017578125 456.1656188964844 304.1157531738281 C 460.6040954589844 289.40118408203125 447.6984558105469 351.61273193359375 470.6412048339844 334.37921142578125 C 465.322265625 277.9546203613281 435.7259521484375 300.47998046875 480.66339111328125 320.62493896484375" fill="rgb(17, 9, 2)" opacity="0.9615892" stroke="rgb(89, 96, 33)" stroke-linecap="round" stroke-linejoin="round" stroke-opacity="0.01530962" stroke-width="0.0"/>
    <path d="M 137.8301239013672 382.7797546386719 C 150.34617614746094 824.14404296875 245.0232696533203 825.3331909179688 -71.44234466552734 623.132568359375 C -12.08630084991455 554.7857666015625 -12.571045875549316 551.8613891601562 -21.044208526611328 512.6591186523438 C -42.11164474487305 510.0190734863281 -181.26657104492188 372.9474182128906 1.7362629175186157 177.58883666992188 C 308.2012023925781 210.41668701171875 160.0602264404297 229.3504638671875 137.8301239013672 382.7797546386719" fill="rgb(130, 162, 180)" opacity="0.9191413" stroke="rgb(66, 189, 237)" stroke-linecap="round" stroke-linejoin="round" stroke-opacity="0.66555125" stroke-width="0.0"/>
    <path d="M 354.0572814941406 462.70684814453125 C 358.656005859375 464.3581848144531 329.8042297363281 479.2718200683594 364.92657470703125 502.7560729980469 C 348.6683654785156 531.1677856445312 330.40606689453125 476.0831604003906 330.5491943359375 448.3367919921875 C 328.5867919921875 430.8692321777344 336.2047119140625 402.5614013671875 347.0881042480469 379.60888671875 C 351.4719543457031 395.4093933105469 332.7860107421875 447.166259765625 354.0572814941406 462.70684814453125" fill="rgb(254, 250, 227)" opacity="0.972608" stroke="rgb(10, 15, 96)" stroke-linecap="round" stroke-linejoin="round" stroke-opacity="0.49195614" stroke-width="0.0"/>
    <path d="M 515.6975708007812 309.5751647949219 C 524.2158813476562 316.65423583984375 481.93280029296875 303.3337707519531 453.952880859375 317.19635009765625 C 432.49530029296875 323.2845153808594 425.57647705078125 363.1542053222656 426.474365234375 336.5226135253906 C 436.8692932128906 302.2513122558594 458.0533752441406 293.7677917480469 468.5775146484375 292.1492614746094 C 478.9687194824219 289.0855407714844 501.7265319824219 294.4494934082031 515.6975708007812 309.5751647949219" fill="rgb(248, 244, 225)" opacity="0.99960715" stroke="rgb(249, 97, 254)" stroke-linecap="round" stroke-linejoin="round" stroke-opacity="0.72148997" stroke-width="0.0"/>
    <path d="M 656.8897094726562 590.1085815429688 C 636.0431518554688 574.3833618164062 643.7017822265625 580.1781616210938 536.689697265625 581.43896484375 C 524.5625610351562 566.9556274414062 536.279296875 582.511962890625 568.6615600585938 525.9383544921875 C 591.9855346679688 491.3814392089844 595.023681640625 470.87310791015625 599.7734375 448.7585754394531 C 671.1053466796875 411.0642395019531 642.037109375 459.3382263183594 656.8897094726562 590.1085815429688" fill="rgb(132, 162, 180)" opacity="0.9388203" stroke="rgb(252, 10, 254)" stroke-linecap="round" stroke-linejoin="round" stroke-opacity="0.037937045" stroke-width="0.0"/>
    <path d="M 439.6854248046875 169.45565795898438 C 422.8062744140625 191.3962860107422 392.8960876464844 176.43402099609375 384.3951110839844 181.4280548095703 C 392.3390808105469 180.59080505371094 374.3694152832031 181.9568328857422 331.4680480957031 178.60997009277344 C 335.8659362792969 133.30441284179688 355.8616027832031 152.2537841796875 409.19744873046875 149.02346801757812 C 422.0509948730469 145.4793701171875 433.5396728515625 143.42616271972656 439.6854248046875 169.45565795898438" fill="rgb(130, 165, 185)" opacity="0.79798245" stroke="rgb(42, 51, 187)" stroke-linecap="round" stroke-linejoin="round" stroke-opacity="0.9072496" stroke-width="0.0"/>
    <path d="M 619.3154907226562 343.4683532714844 C 645.0502319335938 366.7664794921875 570.64306640625 364.7226257324219 561.133056640625 351.7912902832031 C 516.4725952148438 323.43316650390625 531.4505004882812 323.4795227050781 444.1875915527344 324.5437927246094 C 450.2746276855469 321.3919372558594 460.6107482910156 308.8208312988281 516.7920532226562 310.4628601074219 C 573.970458984375 325.2320556640625 514.0016479492188 325.39947509765625 619.3154907226562 343.4683532714844" fill="rgb(27, 29, 42)" opacity="0.9969372" stroke="rgb(181, 252, 223)" stroke-linecap="round" stroke-linejoin="round" stroke-opacity="0.65475583" stroke-width="0.0"/>
    <path d="M 562.7141723632812 251.931396484375 C 575.837890625 262.4814147949219 599.5431518554688 251.0335693359375 578.0534057617188 278.0325927734375 C 526.0032958984375 259.6965026855469 454.61126708984375 188.5672149658203 493.0100402832031 167.23443603515625 C 500.7335205078125 217.82484436035156 535.5103759765625 232.23411560058594 557.7562866210938 250.27587890625 C 532.2335815429688 229.43360900878906 544.9805297851562 242.02915954589844 562.7141723632812 251.931396484375" fill="rgb(17, 19, 32)" opacity="1.0" stroke="rgb(35, 121, 138)" stroke-linecap="round" stroke-linejoin="round" stroke-opacity="0.7146088" stroke-width="0.0"/>
    <path d="M 425.25225830078125 181.52304077148438 C 424.1602783203125 202.13636779785156 424.4296875 197.29966735839844 359.6121520996094 196.6647491455078 C 346.9496765136719 195.49159240722656 341.61712646484375 187.0979461669922 271.18017578125 132.4876708984375 C 281.1012268066406 115.09049987792969 291.5104675292969 124.2370834350586 327.5594787597656 158.26492309570312 C 368.4275207519531 186.88880920410156 336.6014709472656 180.45614624023438 425.25225830078125 181.52304077148438" fill="rgb(11, 13, 27)" opacity="1.0" stroke="rgb(13, 192, 126)" stroke-linecap="round" stroke-linejoin="round" stroke-opacity="0.82795167" stroke-width="0.0"/>
    <path d="M 339.3636779785156 495.09246826171875 C 338.3209533691406 527.8997802734375 248.81777954101562 386.7469482421875 346.690185546875 561.3323364257812 C 253.4453125 455.75994873046875 307.78118896484375 464.8480224609375 273.777099609375 452.2886047363281 C 257.13592529296875 401.0843811035156 244.78079223632812 417.174072265625 287.79541015625 401.3006286621094 C 326.65728759765625 402.1347961425781 287.3553466796875 466.2262268066406 339.3636779785156 495.09246826171875" fill="rgb(255, 250, 228)" opacity="0.8836702" stroke="rgb(20, 232, 179)" stroke-linecap="round" stroke-linejoin="round" stroke-opacity="0.13024494" stroke-width="0.0"/>
    <path d="M 241.58389282226562 233.43263244628906 C 230.96871948242188 241.64889526367188 222.2381134033203 247.13002014160156 201.53216552734375 256.79095458984375 C 201.85643005371094 260.9988098144531 201.28895568847656 256.5904541015625 197.39083862304688 213.7265167236328 C 200.07398986816406 182.61155700683594 208.9663543701172 178.57501220703125 220.56381225585938 150.02914428710938 C 202.6781768798828 196.9084930419922 244.37608337402344 229.97332763671875 241.58389282226562 233.43263244628906" fill="rgb(248, 245, 226)" opacity="0.94072056" stroke="rgb(239, 250, 13)" stroke-linecap="round" stroke-linejoin="round" stroke-opacity="0.3439759" stroke-width="0.0"/>
    <path d="M 240.0 246.0 C 239.3301239013672 248.5 237.5 250.3301239013672 235.0 251.0 C 232.5 250.3301239013672 230.6698760986328 248.5 230.0 246.0 C 230.6698760986328 243.5 232.5 241.6698760986328 235.0 241.0 C 237.5 241.6698760986328 239.3301239013672 243.5 240.0 246.0" fill="rgb(10, 12, 27)" opacity="1.0" stroke="rgb(10, 40, 201)" stroke-linecap="round" stroke-linejoin="round" stroke-opacity="0.4168148" stroke-width="0.0"/>
    <path d="M 230.0 259.0 C 229.3301239013672 261.5 227.5 263.33013916015625 225.0 264.0 C 222.5 263.33013916015625 220.6698760986328 261.5 220.0 259.0 C 220.6698760986328 256.5 222.5 254.6698760986328 225.0 254.0 C 227.5 254.6698760986328 229.3301239013672 256.5 230.0 259.0" fill="rgb(12, 16, 29)" opacity="1.0" stroke="rgb(112, 149, 110)" stroke-linecap="round" stroke-linejoin="round" stroke-opacity="0.1284956" stroke-width="0.0"/>
    <path d="M 336.0 218.0 C 335.33013916015625 220.5 333.5 222.3301239013672 331.0 223.0 C 328.5 222.3301239013672 326.66986083984375 220.5 326.0 218.0 C 326.66986083984375 215.5 328.5 213.6698760986328 331.0 213.0 C 333.5 213.6698760986328 335.33013916015625 215.5 336.0 218.0" fill="rgb(24, 23, 39)" opacity="1.0" stroke="rgb(105, 14, 27)" stroke-linecap="round" stroke-linejoin="round" stroke-opacity="0.10163029" stroke-width="0.0"/>
    <path d="M 319.0 496.0 C 318.33013916015625 498.5 316.5 500.33013916015625 314.0 501.0 C 311.5 500.33013916015625 309.66986083984375 498.5 309.0 496.0 C 309.66986083984375 493.5 311.5 491.66986083984375 314.0 491.0 C 316.5 491.66986083984375 318.33013916015625 493.5 319.0 496.0" fill="rgb(20, 19, 26)" opacity="1.0" stroke="rgb(206, 145, 170)" stroke-linecap="round" stroke-linejoin="round" stroke-opacity="0.5173446" stroke-width="0.0"/>
    <path d="M 264.0 231.0 C 263.33013916015625 233.5 261.5 235.3301239013672 259.0 236.0 C 256.5 235.3301239013672 254.6698760986328 233.5 254.0 231.0 C 254.6698760986328 228.5 256.5 226.6698760986328 259.0 226.0 C 261.5 226.6698760986328 263.33013916015625 228.5 264.0 231.0" fill="rgb(13, 14, 30)" opacity="1.0" stroke="rgb(136, 34, 241)" stroke-linecap="round" stroke-linejoin="round" stroke-opacity="0.4703315" stroke-width="0.0"/>
    <path d="M 390.0 677.0 C 389.33013916015625 679.5 387.5 681.3301391601562 385.0 682.0 C 382.5 681.3301391601562 380.66986083984375 679.5 380.0 677.0 C 380.66986083984375 674.5 382.5 672.6698608398438 385.0 672.0 C 387.5 672.6698608398438 389.33013916015625 674.5 390.0 677.0" fill="rgb(253, 250, 229)" opacity="1.0" stroke="rgb(135, 40, 46)" stroke-linecap="round" stroke-linejoin="round" stroke-opacity="0.8975585" stroke-width="0.0"/>
    <path d="M 240.0 196.0 C 239.3301239013672 198.5 237.5 200.3301239013672 235.0 201.0 C 232.5 200.3301239013672 230.6698760986328 198.5 230.0 196.0 C 230.6698760986328 193.5 232.5 191.6698760986328 235.0 191.0 C 237.5 191.6698760986328 239.3301239013672 193.5 240.0 196.0" fill="rgb(253, 252, 240)" opacity="1.0" stroke="rgb(126, 182, 148)" stroke-linecap="round" stroke-linejoin="round" stroke-opacity="0.49002603" stroke-width="0.0"/>
    <path d="M 222.0 139.0 C 221.3301239013672 141.5 219.5 143.3301239013672 217.0 144.0 C 214.5 143.3301239013672 212.6698760986328 141.5 212.0 139.0 C 212.6698760986328 136.5 214.5 134.6698760986328 217.0 134.0 C 219.5 134.6698760986328 221.3301239013672 136.5 222.0 139.0" fill="rgb(11, 10, 21)" opacity="1.0" stroke="rgb(20, 156, 220)" stroke-linecap="round" stroke-linejoin="round" stroke-opacity="0.25843313" stroke-width="0.0"/>
    <path d="M 386.0 562.0 C 385.33013916015625 564.5 383.5 566.3301391601562 381.0 567.0 C 378.5 566.3301391601562 376.66986083984375 564.5 376.0 562.0 C 376.66986083984375 559.5 378.5 557.6698608398438 381.0 557.0 C 383.5 557.6698608398438 385.33013916015625 559.5 386.0 562.0" fill="rgb(246, 241, 216)" opacity="1.0" stroke="rgb(18, 144, 105)" stroke-linecap="round" stroke-linejoin="round" stroke-opacity="0.09896711" stroke-width="0.0"/>
    <path d="M 391.0 231.0 C 390.33013916015625 233.5 388.5 235.3301239013672 386.0 236.0 C 383.5 235.3301239013672 381.66986083984375 233.5 381.0 231.0 C 381.66986083984375 228.5 383.5 226.6698760986328 386.0 226.0 C 388.5 226.6698760986328 390.33013916015625 228.5 391.0 231.0" fill="rgb(20, 21, 37)" opacity="1.0" stroke="rgb(237, 236, 64)" stroke-linecap="round" stroke-linejoin="round" stroke-opacity="0.36370343" stroke-width="0.0"/>
    <path d="M 381.0 555.0 C 380.33013916015625 557.5 378.5 559.3301391601562 376.0 560.0 C 373.5 559.3301391601562 371.66986083984375 557.5 371.0 555.0 C 371.66986083984375 552.5 373.5 550.6698608398438 376.0 550.0 C 378.5 550.6698608398438 380.33013916015625 552.5 381.0 555.0" fill="rgb(23, 22, 36)" opacity="1.0" stroke="rgb(56, 204, 207)" stroke-linecap="round" stroke-linejoin="round" stroke-opacity="0.940067" stroke-width="0.0"/>
    <path d="M 310.0 319.0 C 309.33013916015625 321.5 307.5 323.33013916015625 305.0 324.0 C 302.5 323.33013916015625 300.66986083984375 321.5 300.0 319.0 C 300.66986083984375 316.5 302.5 314.66986083984375 305.0 314.0 C 307.5 314.66986083984375 309.33013916015625 316.5 310.0 319.0" fill="rgb(20, 20, 30)" opacity="1.0" stroke="rgb(21, 43, 56)" stroke-linecap="round" stroke-linejoin="round" stroke-opacity="0.11166217" stroke-width="0.0"/>
    <path d="M 274.0 199.0 C 273.33013916015625 201.5 271.5 203.3301239013672 269.0 204.0 C 266.5 203.3301239013672 264.66986083984375 201.5 264.0 199.0 C 264.66986083984375 196.5 266.5 194.6698760986328 269.0 194.0 C 271.5 194.6698760986328 273.33013916015625 196.5 274.0 199.0" fill="rgb(255, 254, 227)" opacity="1.0" stroke="rgb(11, 216, 31)" stroke-linecap="round" stroke-linejoin="round" stroke-opacity="0.71865165" stroke-width="0.0"/>
    <path d="M 272.0 312.0 C 271.33013916015625 314.5 269.5 316.33013916015625 267.0 317.0 C 264.5 316.33013916015625 262.66986083984375 314.5 262.0 312.0 C 262.66986083984375 309.5 264.5 307.66986083984375 267.0 307.0 C 269.5 307.66986083984375 271.33013916015625 309.5 272.0 312.0" fill="rgb(18, 21, 39)" opacity="1.0" stroke="rgb(227, 195, 14)" stroke-linecap="round" stroke-linejoin="round" stroke-opacity="0.39185756" stroke-width="0.0"/>
    <path d="M 269.0 224.0 C 268.33013916015625 226.5 266.5 228.3301239013672 264.0 229.0 C 261.5 228.3301239013672 259.66986083984375 226.5 259.0 224.0 C 259.66986083984375 221.5 261.5 219.6698760986328 264.0 219.0 C 266.5 219.6698760986328 268.33013916015625 221.5 269.0 224.0" fill="rgb(11, 11, 26)" opacity="1.0" stroke="rgb(49, 38, 210)" stroke-linecap="round" stroke-linejoin="round" stroke-opacity="0.1451765" stroke-width="0.0"/>
    <path d="M 379.0 551.0 C 378.33013916015625 553.5 376.5 555.3301391601562 374.0 556.0 C 371.5 555.3301391601562 369.66986083984375 553.5 369.0 551.0 C 369.66986083984375 548.5 371.5 546.6698608398438 374.0 546.0 C 376.5 546.6698608398438 378.33013916015625 548.5 379.0 551.0" fill="rgb(18, 18, 33)" opacity="1.0" stroke="rgb(193, 74, 20)" stroke-linecap="round" stroke-linejoin="round" stroke-opacity="0.65987945" stroke-width="0.0"/>
    <path d="M 293.0 318.0 C 292.33013916015625 320.5 290.5 322.33013916015625 288.0 323.0 C 285.5 322.33013916015625 283.66986083984375 320.5 283.0 318.0 C 283.66986083984375 315.5 285.5 313.66986083984375 288.0 313.0 C 290.5 313.66986083984375 292.33013916015625 315.5 293.0 318.0" fill="rgb(20, 24, 32)" opacity="1.0" stroke="rgb(154, 254, 53)" stroke-linecap="round" stroke-linejoin="round" stroke-opacity="0.6987827" stroke-width="0.0"/>
    <path d="M 397.0 233.0 C 396.33013916015625 235.5 394.5 237.3301239013672 392.0 238.0 C 389.5 237.3301239013672 387.66986083984375 235.5 387.0 233.0 C 387.66986083984375 230.5 389.5 228.6698760986328 392.0 228.0 C 394.5 228.6698760986328 396.33013916015625 230.5 397.0 233.0" fill="rgb(13, 16, 23)" opacity="1.0" stroke="rgb(108, 140, 150)" stroke-linecap="round" stroke-linejoin="round" stroke-opacity="0.40409654" stroke-width="0.0"/>
    <path d="M 362.0 251.0 C 361.33013916015625 253.5 359.5 255.3301239013672 357.0 256.0 C 354.5 255.3301239013672 352.66986083984375 253.5 352.0 251.0 C 352.66986083984375 248.5 354.5 246.6698760986328 357.0 246.0 C 359.5 246.6698760986328 361.33013916015625 248.5 362.0 251.0" fill="rgb(12, 15, 31)" opacity="1.0" stroke="rgb(211, 8, 221)" stroke-linecap="round" stroke-linejoin="round" stroke-opacity="0.2499952" stroke-width="0.0"/>
    <path d="M 272.0 319.0 C 271.33013916015625 321.5 269.5 323.33013916015625 267.0 324.0 C 264.5 323.33013916015625 262.66986083984375 321.5 262.0 319.0 C 262.66986083984375 316.5 264.5 314.66986083984375 267.0 314.0 C 269.5 314.66986083984375 271.33013916015625 316.5 272.0 319.0" fill="rgb(17, 22, 33)" opacity="1.0" stroke="rgb(227, 188, 144)" stroke-linecap="round" stroke-linejoin="round" stroke-opacity="0.60087067" stroke-width="0.0"/>
    <path d="M 221.0 346.0 C 220.3301239013672 348.5 218.5 350.33013916015625 216.0 351.0 C 213.5 350.33013916015625 211.6698760986328 348.5 211.0 346.0 C 211.6698760986328 343.5 213.5 341.66986083984375 216.0 341.0 C 218.5 341.66986083984375 220.3301239013672 343.5 221.0 346.0" fill="rgb(23, 27, 39)" opacity="1.0" stroke="rgb(123, 33, 248)" stroke-linecap="round" stroke-linejoin="round" stroke-opacity="0.4331801" stroke-width="0.0"/>
    <path d="M 237.0 332.0 C 236.3301239013672 334.5 234.5 336.33013916015625 232.0 337.0 C 229.5 336.33013916015625 227.6698760986328 334.5 227.0 332.0 C 227.6698760986328 329.5 229.5 327.66986083984375 232.0 327.0 C 234.5 327.66986083984375 236.3301239013672 329.5 237.0 332.0" fill="rgb(18, 21, 32)" opacity="1.0" stroke="rgb(8, 135, 201)" stroke-linecap="round" stroke-linejoin="round" stroke-opacity="0.93337214" stroke-width="0.0"/>
    <path d="M 328.0 511.0 C 327.33013916015625 513.5 325.5 515.3301391601562 323.0 516.0 C 320.5 515.3301391601562 318.66986083984375 513.5 318.0 511.0 C 318.66986083984375 508.5 320.5 506.66986083984375 323.0 506.0 C 325.5 506.66986083984375 327.33013916015625 508.5 328.0 511.0" fill="rgb(14, 14, 22)" opacity="1.0" stroke="rgb(31, 224, 10)" stroke-linecap="round" stroke-linejoin="round" stroke-opacity="0.46859333" stroke-width="0.0"/>
    <path d="M 316.0 490.0 C 315.33013916015625 492.5 313.5 494.33013916015625 311.0 495.0 C 308.5 494.33013916015625 306.66986083984375 492.5 306.0 490.0 C 306.66986083984375 487.5 308.5 485.66986083984375 311.0 485.0 C 313.5 485.66986083984375 315.33013916015625 487.5 316.0 490.0" fill="rgb(27, 27, 33)" opacity="1.0" stroke="rgb(84, 178, 19)" stroke-linecap="round" stroke-linejoin="round" stroke-opacity="0.5345854" stroke-width="0.0"/>
    <path d="M 400.0 520.0 C 399.33013916015625 522.5 397.5 524.3301391601562 395.0 525.0 C 392.5 524.3301391601562 390.66986083984375 522.5 390.0 520.0 C 390.66986083984375 517.5 392.5 515.6698608398438 395.0 515.0 C 397.5 515.6698608398438 399.33013916015625 517.5 400.0 520.0" fill="rgb(15, 20, 38)" opacity="1.0" stroke="rgb(15, 136, 27)" stroke-linecap="round" stroke-linejoin="round" stroke-opacity="0.91669506" stroke-width="0.0"/>
    <path d="M 213.0 263.0 C 212.3301239013672 265.5 210.5 267.33013916015625 208.0 268.0 C 205.5 267.33013916015625 203.6698760986328 265.5 203.0 263.0 C 203.6698760986328 260.5 205.5 258.66986083984375 208.0 258.0 C 210.5 258.66986083984375 212.3301239013672 260.5 213.0 263.0" fill="rgb(11, 13, 31)" opacity="1.0" stroke="rgb(81, 51, 114)" stroke-linecap="round" stroke-linejoin="round" stroke-opacity="0.7879493" stroke-width="0.0"/>
    <path d="M 330.0 216.0 C 329.33013916015625 218.5 327.5 220.3301239013672 325.0 221.0 C 322.5 220.3301239013672 320.66986083984375 218.5 320.0 216.0 C 320.66986083984375 213.5 322.5 211.6698760986328 325.0 211.0 C 327.5 211.6698760986328 329.33013916015625 213.5 330.0 216.0" fill="rgb(25, 24, 39)" opacity="1.0" stroke="rgb(136, 120, 145)" stroke-linecap="round" stroke-linejoin="round" stroke-opacity="0.7097418" stroke-width="0.0"/>
    <path d="M 302.0 319.0 C 301.33013916015625 321.5 299.5 323.33013916015625 297.0 324.0 C 294.5 323.33013916015625 292.66986083984375 321.5 292.0 319.0 C 292.66986083984375 316.5 294.5 314.66986083984375 297.0 314.0 C 299.5 314.66986083984375 301.33013916015625 316.5 302.0 319.0" fill="rgb(18, 17, 34)" opacity="1.0" stroke="rgb(45, 99, 86)" stroke-linecap="round" stroke-linejoin="round" stroke-opacity="0.5942614" stroke-width="0.0"/>
    <path d="M 275.0 219.0 C 274.33013916015625 221.5 272.5 223.3301239013672 270.0 224.0 C 267.5 223.3301239013672 265.66986083984375 221.5 265.0 219.0 C 265.66986083984375 216.5 267.5 214.6698760986328 270.0 214.0 C 272.5 214.6698760986328 274.33013916015625 216.5 275.0 219.0" fill="rgb(12, 11, 27)" opacity="1.0" stroke="rgb(191, 47, 179)" stroke-linecap="round" stroke-linejoin="round" stroke-opacity="0.1515939" stroke-width="0.0"/>
    <path d="M 267.0 319.0 C 266.33013916015625 321.5 264.5 323.33013916015625 262.0 324.0 C 259.5 323.33013916015625 257.66986083984375 321.5 257.0 319.0 C 257.66986083984375 316.5 259.5 314.66986083984375 262.0 314.0 C 264.5 314.66986083984375 266.33013916015625 316.5 267.0 319.0" fill="rgb(19, 22, 35)" opacity="1.0" stroke="rgb(243, 244, 181)" stroke-linecap="round" stroke-linejoin="round" stroke-opacity="0.40238255" stroke-width="0.0"/>
    <path d="M 317.0 336.0 C 316.33013916015625 338.5 314.5 340.33013916015625 312.0 341.0 C 309.5 340.33013916015625 307.66986083984375 338.5 307.0 336.0 C 307.66986083984375 333.5 309.5 331.66986083984375 312.0 331.0 C 314.5 331.66986083984375 316.33013916015625 333.5 317.0 336.0" fill="rgb(24, 8, 2)" opacity="1.0" stroke="rgb(95, 116, 198)" stroke-linecap="round" stroke-linejoin="round" stroke-opacity="0.10840876" stroke-width="0.0"/>
    <path d="M 375.0 261.0 C 374.33013916015625 263.5 372.5 265.33013916015625 370.0 266.0 C 367.5 265.33013916015625 365.66986083984375 263.5 365.0 261.0 C 365.66986083984375 258.5 367.5 256.66986083984375 370.0 256.0 C 372.5 256.66986083984375 374.33013916015625 258.5 375.0 261.0" fill="rgb(18, 19, 32)" opacity="1.0" stroke="rgb(141, 25, 47)" stroke-linecap="round" stroke-linejoin="round" stroke-opacity="0.9692175" stroke-width="0.0"/>
  </g>
</svg>
