<?xml version="1.0" ?>
<svg height="768" version="1.1" width="768" xmlns="http://www.w3.org/2000/svg">
  <defs/>
  <g>
    <path d="M 787.0762939453125 164.0964813232422 C 782.97998046875 590.6270751953125 783.4695434570312 601.7503662109375 853.8750610351562 714.6768188476562 C 804.8497924804688 764.680419921875 757.451171875 791.0785522460938 366.609619140625 831.9426879882812 C 219.3494110107422 905.7182006835938 124.79810333251953 916.3930053710938 82.36259460449219 -1.4223297834396362 C 1035.9071044921875 12.554067611694336 1022.568115234375 69.99017333984375 787.0762939453125 164.0964813232422" fill="rgb(115, 123, 130)" opacity="0.975641" stroke="rgb(181, 238, 204)" stroke-linecap="round" stroke-linejoin="round" stroke-opacity="0.15835409" stroke-width="0.0"/>
    <path d="M 200.2799835205078 744.1158447265625 C 206.8221893310547 784.6080322265625 205.34292602539062 788.301513671875 -27.53822898864746 771.5458984375 C -17.78138542175293 647.6002807617188 -15.926898002624512 628.43994140625 -12.050934791564941 429.8381652832031 C 3.418642044067383 439.2851257324219 -15.048837661743164 444.79058837890625 0.5667492151260376 104.73059844970703 C 478.1210021972656 158.59738159179688 192.62025451660156 241.0748748779297 200.2799835205078 744.1158447265625" fill="rgb(103, 122, 138)" opacity="0.99850863" stroke="rgb(8, 141, 246)" stroke-linecap="round" stroke-linejoin="round" stroke-opacity="0.18297888" stroke-width="0.0"/>
    <path d="M 103.35823059082031 67.3741683959961 C 106.97756958007812 126.50717163085938 105.6219482421875 129.62106323242188 70.90123748779297 124.74436950683594 C -21.24098777770996 120.8411865234375 -16.524166107177734 113.72677612304688 -12.736320495605469 67.07972717285156 C -17.71573829650879 -6.11528205871582 -24.283220291137695 -13.79688835144043 60.284454345703125 -13.257614135742188 C 102.21224975585938 -14.936241149902344 103.82537841796875 -13.036271095275879 103.35823059082031 67.3741683959961" fill="rgb(104, 123, 139)" opacity="1.0" stroke="rgb(40, 148, 29)" stroke-linecap="round" stroke-linejoin="round" stroke-opacity="0.3244066" stroke-width="0.0"/>
    <path d="M 484.128173828125 454.3866271972656 C 369.95159912109375 604.423095703125 449.4391784667969 471.077880859375 376.49688720703125 554.8560180664062 C 408.7547302246094 516.9662475585938 293.99542236328125 533.901123046875 213.8491973876953 489.3817443847656 C 321.7519836425781 516.009521484375 506.3175048828125 469.4527282714844 464.2656555175781 347.2682800292969 C 413.84490966796875 210.0067596435547 509.2794189453125 291.1889343261719 484.128173828125 454.3866271972656" fill="rgb(74, 33, 13)" opacity="0.9060663" stroke="rgb(58, 118, 111)" stroke-linecap="round" stroke-linejoin="round" stroke-opacity="0.100202225" stroke-width="0.0"/>
    <path d="M 436.0 192.0 C 435.33013916015625 194.5 433.5 196.3301239013672 431.0 197.0 C 428.5 196.3301239013672 426.66986083984375 194.5 426.0 192.0 C 426.66986083984375 189.5 428.5 187.6698760986328 431.0 187.0 C 433.5 187.6698760986328 435.33013916015625 189.5 436.0 192.0" fill="rgb(28, 20, 14)" opacity="1.0" stroke="rgb(231, 177, 68)" stroke-linecap="round" stroke-linejoin="round" stroke-opacity="0.41394943" stroke-width="0.0"/>
  </g>
</svg>
