<?xml version="1.0" ?>
<svg height="768" version="1.1" width="768" xmlns="http://www.w3.org/2000/svg">
  <defs/>
  <g>
    <path d="M 787.0762939453125 164.0964813232422 C 782.97998046875 590.6270751953125 783.4695434570312 601.7503662109375 853.8750610351562 714.6768188476562 C 804.8497924804688 764.680419921875 757.451171875 791.0785522460938 366.609619140625 831.9426879882812 C 219.3494110107422 905.7182006835938 124.79810333251953 916.3930053710938 82.36259460449219 -1.422056794166565 C 1035.9071044921875 12.554618835449219 1022.568115234375 69.99017333984375 787.0762939453125 164.0964813232422" fill="rgb(102, 121, 138)" opacity="1.0" stroke="rgb(181, 238, 204)" stroke-linecap="round" stroke-linejoin="round" stroke-opacity="0.15835409" stroke-width="0.0"/>
    <path d="M 179.30528259277344 744.9025268554688 C 203.78933715820312 784.635986328125 205.11636352539062 788.301513671875 -27.540220260620117 771.5458984375 C -17.78138542175293 647.6002807617188 -15.926898002624512 628.43994140625 -12.050934791564941 429.8381652832031 C 3.4186437129974365 439.2851257324219 -15.049155235290527 444.79058837890625 0.1425236016511917 104.74839782714844 C 473.9350280761719 158.59463500976562 174.25460815429688 240.84271240234375 179.30528259277344 744.9025268554688" fill="rgb(104, 124, 140)" opacity="1.0" stroke="rgb(8, 141, 246)" stroke-linecap="round" stroke-linejoin="round" stroke-opacity="0.18297888" stroke-width="0.0"/>
    <path d="M 98.60836029052734 77.94547271728516 C 103.547119140625 126.51014709472656 103.89115905761719 129.55857849121094 69.8304214477539 124.74092864990234 C -21.216808319091797 120.79926300048828 -16.517473220825195 113.69081115722656 -12.736600875854492 67.02477264404297 C -17.71417999267578 -6.115435600280762 -24.28322982788086 -13.796013832092285 55.148746490478516 -13.24085521697998 C 99.11296844482422 -14.656476020812988 99.37429809570312 -12.149273872375488 98.60836029052734 77.94547271728516" fill="rgb(104, 123, 139)" opacity="1.0" stroke="rgb(40, 148, 29)" stroke-linecap="round" stroke-linejoin="round" stroke-opacity="0.3244066" stroke-width="0.0"/>
    <path d="M 403.0 505.0 C 402.33013916015625 507.5 400.5 509.33013916015625 398.0 510.0 C 395.5 509.33013916015625 393.66986083984375 507.5 393.0 505.0 C 393.66986083984375 502.5 395.5 500.66986083984375 398.0 500.0 C 400.5 500.66986083984375 402.33013916015625 502.5 403.0 505.0" fill="rgb(65, 29, 20)" opacity="1.0" stroke="rgb(58, 118, 111)" stroke-linecap="round" stroke-linejoin="round" stroke-opacity="0.100202225" stroke-width="0.0"/>
  </g>
</svg>
