<?xml version="1.0" ?>
<svg height="768" version="1.1" width="768" xmlns="http://www.w3.org/2000/svg">
  <defs/>
  <g>
    <path d="M 549.280029296875 -242.652099609375 C 685.9398803710938 -188.7487335205078 785.0037841796875 -182.62655639648438 830.8919067382812 447.9537048339844 C 729.8096923828125 537.1000366210938 652.4459838867188 596.043212890625 0.40414363145828247 632.3097534179688 C -14.668400764465332 59.29917907714844 -18.53179359436035 -2.5071280002593994 -18.867517471313477 -11.868517875671387 C 404.8160705566406 -13.422484397888184 410.7288818359375 -14.274645805358887 549.280029296875 -242.652099609375" fill="rgb(126, 135, 140)" opacity="0.99971765" stroke="rgb(146, 216, 58)" stroke-linecap="round" stroke-linejoin="round" stroke-opacity="0.22812356" stroke-width="0.0"/>
    <path d="M 779.7066040039062 634.0447387695312 C 770.984619140625 623.813720703125 778.0451049804688 623.5301513671875 896.0477905273438 757.2130126953125 C 623.8811645507812 786.4544067382812 535.6448974609375 792.9808349609375 195.20677185058594 767.2239379882812 C 210.7996826171875 241.32431030273438 294.70928955078125 592.4788818359375 676.812255859375 520.62939453125 C 781.3928833007812 453.0943908691406 783.5888061523438 461.7261047363281 779.7066040039062 634.0447387695312" fill="rgb(129, 138, 143)" opacity="0.9910873" stroke="rgb(44, 34, 236)" stroke-linecap="round" stroke-linejoin="round" stroke-opacity="0.982076" stroke-width="0.0"/>
    <path d="M 56.0 709.0 C 55.33012771606445 711.5 53.5 713.3301391601562 51.0 714.0 C 48.5 713.3301391601562 46.66987228393555 711.5 46.0 709.0 C 46.66987228393555 706.5 48.5 704.6698608398438 51.0 704.0 C 53.5 704.6698608398438 55.33012771606445 706.5 56.0 709.0" fill="rgb(132, 142, 147)" opacity="1.0" stroke="rgb(119, 130, 108)" stroke-linecap="round" stroke-linejoin="round" stroke-opacity="0.7096804" stroke-width="0.0"/>
  </g>
</svg>
