<?xml version="1.0" ?>
<svg height="768" version="1.1" width="768" xmlns="http://www.w3.org/2000/svg">
  <defs/>
  <g>
    <path d="M 454.3665771484375 482.6027526855469 C 482.9443359375 568.2394409179688 314.4501037597656 555.7178955078125 448.3661804199219 603.5531005859375 C 104.40652465820312 602.2808227539062 514.3416748046875 617.9087524414062 310.64605712890625 531.1566162109375 C 308.3619689941406 478.2054748535156 317.56463623046875 470.47119140625 344.4622497558594 481.1197814941406 C 427.5950622558594 496.8397216796875 438.6186218261719 462.70947265625 454.3665771484375 482.6027526855469" fill="rgb(22, 23, 26)" opacity="0.9067816" stroke="rgb(96, 55, 31)" stroke-linecap="round" stroke-linejoin="round" stroke-opacity="0.22151136" stroke-width="0.0"/>
    <path d="M 532.6781616210938 592.2405395507812 C 603.6056518554688 226.42457580566406 596.4837036132812 149.75332641601562 536.6175537109375 281.3592529296875 C 630.9310913085938 389.06622314453125 671.9170532226562 449.2814025878906 10.920005798339844 541.164794921875 C -3.5779500007629395 -182.8703155517578 11.428035736083984 -77.03524780273438 766.2887573242188 -8.511295318603516 C 831.6790161132812 393.6650085449219 918.3175048828125 522.1316528320312 532.6781616210938 592.2405395507812" fill="rgb(89, 51, 0)" opacity="0.5041397" stroke="rgb(252, 103, 113)" stroke-linecap="round" stroke-linejoin="round" stroke-opacity="0.17671677" stroke-width="0.0"/>
    <path d="M 324.829833984375 358.7669982910156 C 339.3609313964844 414.5766296386719 290.10137939453125 486.5108947753906 319.85345458984375 395.9640197753906 C 258.1971435546875 390.96783447265625 238.98216247558594 393.6399230957031 231.3380584716797 353.11614990234375 C 232.03982543945312 329.7718200683594 223.39666748046875 336.88201904296875 253.82568359375 329.3866882324219 C 272.3124084472656 325.9079284667969 323.3585510253906 347.7269287109375 324.829833984375 358.7669982910156" fill="rgb(8, 4, 3)" opacity="0.99972844" stroke="rgb(86, 247, 142)" stroke-linecap="round" stroke-linejoin="round" stroke-opacity="0.17833921" stroke-width="0.0"/>
    <path d="M 506.0 357.0 C 505.33013916015625 359.5 503.5 361.33013916015625 501.0 362.0 C 498.5 361.33013916015625 496.66986083984375 359.5 496.0 357.0 C 496.66986083984375 354.5 498.5 352.66986083984375 501.0 352.0 C 503.5 352.66986083984375 505.33013916015625 354.5 506.0 357.0" fill="rgb(0, 0, 0)" opacity="1.0" stroke="rgb(207, 200, 10)" stroke-linecap="round" stroke-linejoin="round" stroke-opacity="0.28491223" stroke-width="0.0"/>
  </g>
</svg>
