<?xml version="1.0" ?>
<svg height="768" version="1.1" width="768" xmlns="http://www.w3.org/2000/svg">
  <defs/>
  <g>
    <path d="M 454.319580078125 482.4772033691406 C 483.3546142578125 568.290771484375 313.1700134277344 556.3897705078125 449.2203369140625 603.5731811523438 C 99.8380126953125 602.1458740234375 515.6179809570312 618.575439453125 310.6571960449219 531.1270141601562 C 308.37591552734375 478.0943603515625 317.50897216796875 470.45465087890625 344.6299133300781 481.1438293457031 C 427.5052185058594 496.72308349609375 438.43939208984375 462.8734130859375 454.319580078125 482.4772033691406" fill="rgb(20, 21, 25)" opacity="0.90355974" stroke="rgb(96, 55, 31)" stroke-linecap="round" stroke-linejoin="round" stroke-opacity="0.22151136" stroke-width="0.0"/>
    <path d="M 529.1737670898438 592.7899780273438 C 611.3583984375 231.2228546142578 586.9658813476562 139.0679473876953 541.40185546875 285.92303466796875 C 628.2237548828125 391.741455078125 670.2449951171875 445.21307373046875 10.959217071533203 543.8733520507812 C -3.9195570945739746 -183.50025939941406 10.854317665100098 -77.34771728515625 766.3471069335938 -8.551361083984375 C 831.9364624023438 394.6134948730469 919.041259765625 523.1895751953125 529.1737670898438 592.7899780273438" fill="rgb(94, 54, 0)" opacity="0.49049854" stroke="rgb(252, 103, 113)" stroke-linecap="round" stroke-linejoin="round" stroke-opacity="0.17671677" stroke-width="0.0"/>
    <path d="M 324.2752380371094 357.4236755371094 C 341.634765625 420.1416931152344 283.3338317871094 485.97857666015625 318.648193359375 405.4258117675781 C 310.8582458496094 377.4573669433594 241.73048400878906 415.9771423339844 231.46273803710938 353.98504638671875 C 232.34423828125 330.4327087402344 222.53021240234375 336.7671813964844 253.6620635986328 329.56158447265625 C 272.64154052734375 325.6467590332031 321.6734619140625 347.8899230957031 324.2752380371094 357.4236755371094" fill="rgb(7, 4, 3)" opacity="0.9999577" stroke="rgb(86, 247, 142)" stroke-linecap="round" stroke-linejoin="round" stroke-opacity="0.17833921" stroke-width="0.0"/>
    <path d="M 536.5828247070312 335.09454345703125 C 538.3880004882812 374.1086120605469 522.3958129882812 389.9695739746094 486.7787170410156 393.27972412109375 C 419.0495910644531 386.9790954589844 466.38446044921875 428.5384521484375 455.135009765625 443.8232116699219 C 413.3296203613281 347.64349365234375 462.7511901855469 342.5550537109375 456.1775817871094 346.22760009765625 C 502.2618713378906 318.010498046875 528.5230712890625 333.70355224609375 536.5828247070312 335.09454345703125" fill="rgb(7, 4, 3)" opacity="1.0" stroke="rgb(207, 200, 10)" stroke-linecap="round" stroke-linejoin="round" stroke-opacity="0.28491223" stroke-width="0.0"/>
    <path d="M 559.0 189.0 C 558.3301391601562 191.5 556.5 193.3301239013672 554.0 194.0 C 551.5 193.3301239013672 549.6698608398438 191.5 549.0 189.0 C 549.6698608398438 186.5 551.5 184.6698760986328 554.0 184.0 C 556.5 184.6698760986328 558.3301391601562 186.5 559.0 189.0" fill="rgb(0, 0, 0)" opacity="1.0" stroke="rgb(46, 118, 85)" stroke-linecap="round" stroke-linejoin="round" stroke-opacity="0.8824958" stroke-width="0.0"/>
  </g>
</svg>
