<?xml version="1.0" ?>
<svg height="768" version="1.1" width="768" xmlns="http://www.w3.org/2000/svg">
  <defs/>
  <g>
    <path d="M 784.7955932617188 579.2120971679688 C 797.5472412109375 629.9478759765625 643.091552734375 614.9668579101562 80.20317077636719 550.8034057617188 C 50.63746643066406 287.4562072753906 96.40486907958984 7.625157356262207 228.9089813232422 -270.0981140136719 C 483.6202087402344 -28.22979736328125 494.6453552246094 -21.558963775634766 739.261474609375 -13.137572288513184 C 787.3477172851562 -14.588802337646484 787.4075317382812 -12.308146476745605 784.7955932617188 579.2120971679688" fill="rgb(103, 141, 159)" opacity="1.0" stroke="rgb(104, 43, 149)" stroke-linecap="round" stroke-linejoin="round" stroke-opacity="0.9905801" stroke-width="0.0"/>
    <path d="M 460.8392028808594 394.0372009277344 C 461.2549133300781 410.1125183105469 474.43243408203125 406.3352966308594 349.60687255859375 422.6343688964844 C 223.9434051513672 427.8365783691406 151.93283081054688 424.36041259765625 168.83331298828125 409.1754150390625 C 321.1684265136719 414.3776550292969 326.6141052246094 410.6062316894531 278.1998596191406 411.8553466796875 C 293.8003845214844 410.1626892089844 348.673828125 413.82806396484375 460.8392028808594 394.0372009277344" fill="rgb(252, 251, 251)" opacity="0.984092" stroke="rgb(18, 123, 58)" stroke-linecap="round" stroke-linejoin="round" stroke-opacity="0.11030113" stroke-width="0.0"/>
    <path d="M 330.0 438.0 C 329.33013916015625 440.5 327.5 442.33013916015625 325.0 443.0 C 322.5 442.33013916015625 320.66986083984375 440.5 320.0 438.0 C 320.66986083984375 435.5 322.5 433.66986083984375 325.0 433.0 C 327.5 433.66986083984375 329.33013916015625 435.5 330.0 438.0" fill="rgb(255, 255, 255)" opacity="1.0" stroke="rgb(124, 182, 1)" stroke-linecap="round" stroke-linejoin="round" stroke-opacity="0.660186" stroke-width="0.0"/>
  </g>
</svg>
