<?xml version="1.0" ?>
<svg height="768" version="1.1" width="768" xmlns="http://www.w3.org/2000/svg">
  <defs/>
  <g>
    <path d="M 784.7955932617188 579.2120971679688 C 797.5472412109375 629.9478759765625 643.091552734375 614.9668579101562 80.20317077636719 550.8034057617188 C 50.63746643066406 287.4562072753906 96.40486907958984 7.622577667236328 228.9089813232422 -270.0981140136719 C 483.6202087402344 -28.22979736328125 494.6453552246094 -21.558963775634766 739.261474609375 -13.137572288513184 C 787.3477172851562 -14.588802337646484 787.4075317382812 -12.308146476745605 784.7955932617188 579.2120971679688" fill="rgb(102, 140, 158)" opacity="1.0" stroke="rgb(104, 43, 149)" stroke-linecap="round" stroke-linejoin="round" stroke-opacity="0.9905801" stroke-width="0.0"/>
    <path d="M 461.7636413574219 393.8402404785156 C 457.2508239746094 409.05511474609375 485.30389404296875 405.5513610839844 347.42547607421875 422.7803649902344 C 226.01649475097656 427.5218505859375 151.56260681152344 424.68487548828125 168.82554626464844 409.14666748046875 C 321.6829833984375 414.3335876464844 328.09649658203125 410.786865234375 273.85186767578125 411.7720031738281 C 292.073486328125 410.2557373046875 348.4159240722656 413.990478515625 461.7636413574219 393.8402404785156" fill="rgb(253, 251, 251)" opacity="0.98417217" stroke="rgb(18, 123, 58)" stroke-linecap="round" stroke-linejoin="round" stroke-opacity="0.11030113" stroke-width="0.0"/>
    <path d="M 459.36639404296875 420.7067565917969 C 413.4518737792969 467.94622802734375 354.76959228515625 469.1881408691406 329.7591247558594 474.3777160644531 C 305.534912109375 473.7830810546875 260.49847412109375 482.7560119628906 194.53506469726562 437.58990478515625 C 173.45188903808594 423.0877990722656 203.13558959960938 440.15093994140625 327.60308837890625 432.70184326171875 C 441.1013488769531 429.9739685058594 467.3916320800781 399.62298583984375 459.36639404296875 420.7067565917969" fill="rgb(250, 251, 249)" opacity="0.97822845" stroke="rgb(124, 182, 1)" stroke-linecap="round" stroke-linejoin="round" stroke-opacity="0.660186" stroke-width="0.0"/>
    <path d="M 471.0 329.0 C 470.33013916015625 331.5 468.5 333.33013916015625 466.0 334.0 C 463.5 333.33013916015625 461.66986083984375 331.5 461.0 329.0 C 461.66986083984375 326.5 463.5 324.66986083984375 466.0 324.0 C 468.5 324.66986083984375 470.33013916015625 326.5 471.0 329.0" fill="rgb(39, 74, 103)" opacity="1.0" stroke="rgb(101, 68, 203)" stroke-linecap="round" stroke-linejoin="round" stroke-opacity="0.3888095" stroke-width="0.0"/>
  </g>
</svg>
