<?xml version="1.0" ?>
<svg height="768" version="1.1" width="768" xmlns="http://www.w3.org/2000/svg">
  <defs/>
  <g>
    <path d="M 797.241943359375 71.24693298339844 C 784.4473266601562 672.9853515625 785.5181884765625 710.2080078125 782.1043701171875 777.9226684570312 C 526.1796264648438 782.2083129882812 498.4876708984375 784.6633911132812 246.9859161376953 947.1939697265625 C 159.39271545410156 769.4844360351562 90.08368682861328 688.0164184570312 54.44900894165039 133.93894958496094 C 324.9314270019531 73.172607421875 698.178466796875 39.239803314208984 797.241943359375 71.24693298339844" fill="rgb(132, 151, 156)" opacity="0.9537434" stroke="rgb(11, 123, 192)" stroke-linecap="round" stroke-linejoin="round" stroke-opacity="0.8507443" stroke-width="0.0"/>
    <path d="M 384.2421569824219 -24.414016723632812 C 301.7827453613281 557.00146484375 128.97743225097656 387.3132629394531 212.34303283691406 785.19091796875 C -303.9347839355469 756.4893798828125 -106.0763931274414 665.828369140625 -15.817825317382812 577.01123046875 C -11.988444328308105 339.8542175292969 -13.7717866897583 332.8703918457031 -212.72808837890625 200.32655334472656 C -191.03102111816406 79.98421478271484 -175.30921936035156 -32.0203742980957 384.2421569824219 -24.414016723632812" fill="rgb(134, 169, 180)" opacity="0.9648208" stroke="rgb(113, 95, 191)" stroke-linecap="round" stroke-linejoin="round" stroke-opacity="0.9931798" stroke-width="0.0"/>
    <path d="M 562.6234741210938 322.5909729003906 C 565.8118286132812 378.21826171875 611.5155639648438 408.17822265625 498.8564453125 627.253173828125 C 482.7781066894531 494.477294921875 454.2679748535156 494.9044189453125 201.77618408203125 342.1978759765625 C 120.5704116821289 -53.350921630859375 158.728759765625 279.39508056640625 489.9841003417969 238.34112548828125 C 602.6069946289062 107.0955810546875 676.0830688476562 116.17285919189453 562.6234741210938 322.5909729003906" fill="rgb(97, 24, 0)" opacity="0.4635532" stroke="rgb(62, 207, 221)" stroke-linecap="round" stroke-linejoin="round" stroke-opacity="0.6890213" stroke-width="0.0"/>
    <path d="M 231.85736083984375 287.62841796875 C 221.2933349609375 283.9800720214844 206.99606323242188 261.9585266113281 180.92532348632812 236.9711456298828 C 151.85572814941406 228.57081604003906 137.0659637451172 199.0323944091797 146.33245849609375 177.5121307373047 C 147.61485290527344 172.151123046875 170.53089904785156 136.37278747558594 172.5572052001953 175.82530212402344 C 234.6894073486328 188.6848602294922 166.20562744140625 124.77742767333984 231.85736083984375 287.62841796875" fill="rgb(7, 0, 2)" opacity="0.8886394" stroke="rgb(79, 207, 9)" stroke-linecap="round" stroke-linejoin="round" stroke-opacity="0.40038434" stroke-width="0.0"/>
    <path d="M 623.0 28.0 C 622.3301391601562 30.5 620.5 32.33012771606445 618.0 33.0 C 615.5 32.33012771606445 613.6698608398438 30.5 613.0 28.0 C 613.6698608398438 25.5 615.5 23.669872283935547 618.0 23.0 C 620.5 23.669872283935547 622.3301391601562 25.5 623.0 28.0" fill="rgb(135, 174, 184)" opacity="1.0" stroke="rgb(134, 147, 196)" stroke-linecap="round" stroke-linejoin="round" stroke-opacity="0.23631054" stroke-width="0.0"/>
  </g>
</svg>
