<?xml version="1.0" ?>
<svg height="768" version="1.1" width="768" xmlns="http://www.w3.org/2000/svg">
  <defs/>
  <g>
    <path d="M 797.241943359375 71.24645233154297 C 784.4473266601562 672.9853515625 785.5181884765625 710.2080078125 782.1043701171875 777.9226684570312 C 526.1796264648438 782.2083129882812 498.4876708984375 784.6633911132812 246.98504638671875 947.1963500976562 C 159.39169311523438 769.4873657226562 90.08319854736328 688.0164184570312 54.44881057739258 133.938232421875 C 324.9278564453125 73.16827392578125 698.1740112304688 39.2369499206543 797.241943359375 71.24645233154297" fill="rgb(134, 149, 152)" opacity="0.9570172" stroke="rgb(11, 123, 192)" stroke-linecap="round" stroke-linejoin="round" stroke-opacity="0.8507443" stroke-width="0.0"/>
    <path d="M 382.1615905761719 -25.123226165771484 C 297.4611511230469 552.3544311523438 132.3463134765625 394.65924072265625 212.93125915527344 785.2822875976562 C -303.9347839355469 756.4893798828125 -106.0763931274414 665.828369140625 -15.817825317382812 577.01123046875 C -11.988444328308105 339.8542175292969 -13.7717866897583 332.8703918457031 -212.39361572265625 200.39585876464844 C -190.3593292236328 80.36579132080078 -174.81700134277344 -31.506750106811523 382.1615905761719 -25.123226165771484" fill="rgb(131, 166, 177)" opacity="0.93470144" stroke="rgb(113, 95, 191)" stroke-linecap="round" stroke-linejoin="round" stroke-opacity="0.9931798" stroke-width="0.0"/>
    <path d="M 563.0972900390625 321.3204345703125 C 571.4595336914062 428.4170227050781 603.1146240234375 379.3235778808594 509.4432067871094 609.8268432617188 C 463.0557556152344 473.8659362792969 421.035400390625 486.002197265625 175.27273559570312 315.4764709472656 C 106.32186889648438 6.4193644523620605 144.71812438964844 237.50308227539062 482.6611633300781 246.0311737060547 C 601.2782592773438 107.84015655517578 677.3453979492188 113.60067749023438 563.0972900390625 321.3204345703125" fill="rgb(85, 42, 30)" opacity="0.5198588" stroke="rgb(62, 207, 221)" stroke-linecap="round" stroke-linejoin="round" stroke-opacity="0.6890213" stroke-width="0.0"/>
    <path d="M 171.0 197.0 C 170.3301239013672 199.5 168.5 201.3301239013672 166.0 202.0 C 163.5 201.3301239013672 161.6698760986328 199.5 161.0 197.0 C 161.6698760986328 194.5 163.5 192.6698760986328 166.0 192.0 C 168.5 192.6698760986328 170.3301239013672 194.5 171.0 197.0" fill="rgb(11, 10, 11)" opacity="1.0" stroke="rgb(79, 207, 9)" stroke-linecap="round" stroke-linejoin="round" stroke-opacity="0.40038434" stroke-width="0.0"/>
  </g>
</svg>
