<?xml version="1.0" ?>
<svg height="768" version="1.1" width="768" xmlns="http://www.w3.org/2000/svg">
  <defs/>
  <g>
    <path d="M 767.6598510742188 661.510009765625 C 67.86920928955078 620.6483764648438 41.01822280883789 544.239990234375 -57.306182861328125 447.3109436035156 C -24.735015869140625 -105.05168151855469 34.74175262451172 -111.34031677246094 142.79226684570312 -98.01367950439453 C 273.5696716308594 -15.596017837524414 296.35430908203125 -14.830979347229004 690.0509033203125 -18.588720321655273 C 761.7685546875 -157.71958923339844 789.6687622070312 -139.59841918945312 767.6598510742188 661.510009765625" fill="rgb(112, 146, 155)" opacity="0.9738961" stroke="rgb(238, 56, 237)" stroke-linecap="round" stroke-linejoin="round" stroke-opacity="0.94926226" stroke-width="0.0"/>
    <path d="M 538.158447265625 288.9522705078125 C 516.9472045898438 555.295166015625 622.8898315429688 627.2872924804688 436.0002136230469 387.2865295410156 C 342.4858093261719 422.72662353515625 387.3481750488281 339.2199401855469 286.6826477050781 508.53399658203125 C 286.60565185546875 138.9599151611328 44.5189094543457 179.1095733642578 329.02935791015625 208.88294982910156 C 419.809326171875 353.8009033203125 394.1073913574219 261.2171325683594 538.158447265625 288.9522705078125" fill="rgb(40, 41, 64)" opacity="0.86651623" stroke="rgb(169, 13, 150)" stroke-linecap="round" stroke-linejoin="round" stroke-opacity="0.0069718678" stroke-width="0.0"/>
    <path d="M 780.5955810546875 766.8724365234375 C 478.8450012207031 786.9385375976562 457.21746826171875 786.2457275390625 -42.95153045654297 765.9722290039062 C -30.544523239135742 449.8332824707031 41.56450653076172 404.768798828125 167.1884002685547 266.592529296875 C 366.5948181152344 594.6090087890625 105.68108367919922 607.6444702148438 555.709228515625 492.5377502441406 C 701.306884765625 323.08489990234375 754.0765380859375 299.9452819824219 780.5955810546875 766.8724365234375" fill="rgb(121, 163, 170)" opacity="1.0" stroke="rgb(234, 26, 143)" stroke-linecap="round" stroke-linejoin="round" stroke-opacity="0.91724706" stroke-width="0.0"/>
    <path d="M 339.5368957519531 427.8722229003906 C 197.1075439453125 179.4374542236328 272.7412414550781 260.80224609375 180.96774291992188 283.8498229980469 C 166.60580444335938 315.8370361328125 146.05018615722656 295.56378173828125 149.70779418945312 279.52349853515625 C 171.97010803222656 243.82305908203125 178.03155517578125 230.52125549316406 192.3860321044922 204.7370147705078 C 351.0007019042969 152.1826171875 411.4761657714844 273.9066162109375 339.5368957519531 427.8722229003906" fill="rgb(22, 19, 45)" opacity="0.958086" stroke="rgb(30, 1, 102)" stroke-linecap="round" stroke-linejoin="round" stroke-opacity="0.031401128" stroke-width="0.0"/>
    <path d="M 642.2079467773438 345.6771240234375 C 630.983154296875 397.5845947265625 727.748291015625 392.5308532714844 637.3284912109375 390.2395324707031 C 543.0352783203125 340.5929260253906 652.3438110351562 295.45751953125 525.8843383789062 294.4505615234375 C 498.93878173828125 300.39471435546875 559.570556640625 253.30148315429688 613.3915405273438 274.716552734375 C 700.1283569335938 323.2508850097656 656.2942504882812 260.1236877441406 642.2079467773438 345.6771240234375" fill="rgb(26, 23, 49)" opacity="0.9879138" stroke="rgb(126, 34, 212)" stroke-linecap="round" stroke-linejoin="round" stroke-opacity="0.85109365" stroke-width="0.0"/>
  </g>
</svg>
