<?xml version="1.0" ?>
<svg height="768" version="1.1" width="768" xmlns="http://www.w3.org/2000/svg">
  <defs/>
  <g>
    <path d="M 767.6598510742188 661.510009765625 C 67.86920928955078 620.6483764648438 41.01822280883789 544.239990234375 -57.306182861328125 447.3109436035156 C -24.735015869140625 -105.05168151855469 34.74175262451172 -111.34031677246094 142.79226684570312 -98.01367950439453 C 273.5696716308594 -15.596017837524414 296.35430908203125 -14.830979347229004 690.041015625 -18.587841033935547 C 761.7537841796875 -157.69285583496094 789.666259765625 -139.57041931152344 767.6598510742188 661.510009765625" fill="rgb(111, 144, 153)" opacity="0.98777086" stroke="rgb(238, 56, 237)" stroke-linecap="round" stroke-linejoin="round" stroke-opacity="0.94926226" stroke-width="0.0"/>
    <path d="M 539.5777587890625 285.0614013671875 C 514.1251220703125 558.0914306640625 618.0617065429688 617.4535522460938 436.5376281738281 387.1209716796875 C 340.9520263671875 422.849853515625 388.7704162597656 339.23681640625 286.7579650878906 507.2187194824219 C 287.7634582519531 145.44064331054688 45.69147491455078 177.7999725341797 328.4897766113281 209.0147247314453 C 419.24346923828125 345.9259033203125 382.3759460449219 270.44598388671875 539.5777587890625 285.0614013671875" fill="rgb(39, 39, 63)" opacity="0.87226677" stroke="rgb(169, 13, 150)" stroke-linecap="round" stroke-linejoin="round" stroke-opacity="0.0069718678" stroke-width="0.0"/>
    <path d="M 780.3082885742188 766.89306640625 C 478.84246826171875 786.932373046875 457.2229919433594 786.238037109375 -42.82099151611328 765.9660034179688 C -30.1508731842041 450.605224609375 42.08653259277344 406.0124816894531 166.95761108398438 270.2053527832031 C 361.09271240234375 603.8092041015625 114.70960998535156 601.5916137695312 555.1658325195312 492.9426574707031 C 703.219970703125 333.7228088378906 753.0013427734375 300.771728515625 780.3082885742188 766.89306640625" fill="rgb(121, 163, 169)" opacity="1.0" stroke="rgb(234, 26, 143)" stroke-linecap="round" stroke-linejoin="round" stroke-opacity="0.91724706" stroke-width="0.0"/>
    <path d="M 339.8910217285156 427.56512451171875 C 195.90013122558594 178.66481018066406 273.74298095703125 260.408935546875 180.9280548095703 283.81878662109375 C 169.25157165527344 311.7496032714844 148.56585693359375 301.2376403808594 149.22006225585938 280.18206787109375 C 171.278564453125 245.26426696777344 177.8408966064453 231.00331115722656 192.5701904296875 204.42794799804688 C 334.03369140625 158.6243438720703 412.9288635253906 245.37388610839844 339.8910217285156 427.56512451171875" fill="rgb(22, 19, 45)" opacity="0.9604142" stroke="rgb(30, 1, 102)" stroke-linecap="round" stroke-linejoin="round" stroke-opacity="0.031401128" stroke-width="0.0"/>
  </g>
</svg>
