<?xml version="1.0" ?>
<svg height="768" version="1.1" width="768" xmlns="http://www.w3.org/2000/svg">
  <defs/>
  <g>
    <path d="M 760.7359008789062 814.4535522460938 C 293.2130432128906 768.7161254882812 381.19952392578125 775.981689453125 -16.751829147338867 774.3300170898438 C -42.87491226196289 410.09368896484375 -65.72604370117188 306.4297790527344 9.017136573791504 -39.63167953491211 C 202.8601531982422 -17.315845489501953 581.0956420898438 -13.088744163513184 791.0155029296875 1.6354831457138062 C 789.492919921875 573.2635498046875 781.4103393554688 638.955322265625 760.7359008789062 814.4535522460938" fill="rgb(83, 107, 125)" opacity="1.0" stroke="rgb(23, 48, 16)" stroke-linecap="round" stroke-linejoin="round" stroke-opacity="0.0751464" stroke-width="0.0"/>
    <path d="M 513.137451171875 604.0701293945312 C 120.48158264160156 647.6311645507812 704.4136962890625 480.0272216796875 234.20606994628906 532.7180786132812 C -4.062973976135254 35.36613464355469 341.20428466796875 87.6043472290039 219.9877166748047 352.2393493652344 C 307.8924865722656 429.8283996582031 305.39166259765625 272.13409423828125 514.9610595703125 348.5802917480469 C 619.6632690429688 471.1864318847656 567.7274780273438 542.0814819335938 513.137451171875 604.0701293945312" fill="rgb(175, 187, 194)" opacity="0.796677" stroke="rgb(250, 109, 144)" stroke-linecap="round" stroke-linejoin="round" stroke-opacity="0.84716046" stroke-width="0.0"/>
    <path d="M 183.69882202148438 206.42237854003906 C 272.970947265625 429.4855041503906 184.54730224609375 427.3920593261719 149.55101013183594 420.818603515625 C 121.28260803222656 419.3526611328125 77.93081665039062 384.82769775390625 139.2777862548828 327.1517333984375 C 238.56285095214844 269.693603515625 96.10332489013672 365.03564453125 164.68991088867188 358.2430725097656 C 169.6368408203125 424.5437316894531 152.6102752685547 413.2053527832031 183.69882202148438 206.42237854003906" fill="rgb(222, 220, 215)" opacity="1.0" stroke="rgb(245, 246, 189)" stroke-linecap="round" stroke-linejoin="round" stroke-opacity="0.3132749" stroke-width="0.0"/>
    <path d="M 241.0 580.0 C 240.3301239013672 582.5 238.5 584.3301391601562 236.0 585.0 C 233.5 584.3301391601562 231.6698760986328 582.5 231.0 580.0 C 231.6698760986328 577.5 233.5 575.6698608398438 236.0 575.0 C 238.5 575.6698608398438 240.3301239013672 577.5 241.0 580.0" fill="rgb(241, 242, 226)" opacity="1.0" stroke="rgb(116, 22, 35)" stroke-linecap="round" stroke-linejoin="round" stroke-opacity="0.585089" stroke-width="0.0"/>
  </g>
</svg>
