<?xml version="1.0" ?>
<svg height="768" version="1.1" width="768" xmlns="http://www.w3.org/2000/svg">
  <defs/>
  <g>
    <path d="M 761.3868408203125 814.5247192382812 C 293.2130432128906 768.7161254882812 381.19952392578125 775.981689453125 -16.751829147338867 774.3300170898438 C -42.87202835083008 410.09539794921875 -65.66758728027344 306.480224609375 9.32661247253418 -39.53553771972656 C 202.8601531982422 -17.315845489501953 581.0956420898438 -13.088744163513184 791.0155029296875 1.6355851888656616 C 789.5332641601562 573.33349609375 781.6917114257812 639.2886962890625 761.3868408203125 814.5247192382812" fill="rgb(96, 118, 135)" opacity="0.97743154" stroke="rgb(23, 48, 16)" stroke-linecap="round" stroke-linejoin="round" stroke-opacity="0.0751464" stroke-width="0.0"/>
    <path d="M 512.4265747070312 604.3029174804688 C 116.88188934326172 645.211181640625 713.5316162109375 485.5218200683594 231.21401977539062 529.1738891601562 C 6.571047782897949 66.35221099853516 318.8472900390625 123.29839324951172 235.2161102294922 389.4619445800781 C 392.337646484375 314.5488586425781 438.8883972167969 309.8708190917969 523.7003784179688 358.9205322265625 C 615.72119140625 473.3413391113281 565.7802124023438 545.1421508789062 512.4265747070312 604.3029174804688" fill="rgb(166, 184, 190)" opacity="0.78000635" stroke="rgb(250, 109, 144)" stroke-linecap="round" stroke-linejoin="round" stroke-opacity="0.84716046" stroke-width="0.0"/>
    <path d="M 158.0 398.0 C 157.3301239013672 400.5 155.5 402.33013916015625 153.0 403.0 C 150.5 402.33013916015625 148.6698760986328 400.5 148.0 398.0 C 148.6698760986328 395.5 150.5 393.66986083984375 153.0 393.0 C 155.5 393.66986083984375 157.3301239013672 395.5 158.0 398.0" fill="rgb(255, 247, 232)" opacity="1.0" stroke="rgb(245, 246, 189)" stroke-linecap="round" stroke-linejoin="round" stroke-opacity="0.3132749" stroke-width="0.0"/>
  </g>
</svg>
