<?xml version="1.0" ?>
<svg height="768" version="1.1" width="768" xmlns="http://www.w3.org/2000/svg">
  <defs/>
  <g>
    <path d="M 767.9918823242188 815.4517211914062 C 654.185791015625 784.9880981445312 643.1788330078125 786.4727172851562 -30.551462173461914 767.1111450195312 C 7.575143814086914 380.70361328125 53.286190032958984 255.54188537597656 123.64330291748047 33.90038299560547 C 820.7369384765625 91.92090606689453 893.3115234375 192.5438995361328 863.86669921875 319.3174743652344 C 789.00244140625 532.7655029296875 784.6632690429688 594.298828125 767.9918823242188 815.4517211914062" fill="rgb(114, 118, 105)" opacity="0.9972173" stroke="rgb(196, 8, 111)" stroke-linecap="round" stroke-linejoin="round" stroke-opacity="0.7578672" stroke-width="0.0"/>
    <path d="M 780.740478515625 10.613191604614258 C 780.58447265625 138.2410125732422 780.4802856445312 143.66990661621094 782.0034790039062 164.83151245117188 C 708.5891723632812 164.5081787109375 712.0831909179688 170.41539001464844 612.61865234375 236.31478881835938 C 538.202392578125 202.089111328125 420.2552795410156 286.47320556640625 236.74844360351562 1.9666495323181152 C 799.2716064453125 -31.3563175201416 793.626708984375 -9.879945755004883 780.740478515625 10.613191604614258" fill="rgb(98, 104, 114)" opacity="0.9786127" stroke="rgb(87, 197, 245)" stroke-linecap="round" stroke-linejoin="round" stroke-opacity="0.62311494" stroke-width="0.0"/>
    <path d="M 33.07631301879883 365.85589599609375 C 77.0008316040039 429.66455078125 121.65186309814453 459.4835510253906 17.34085464477539 537.5355834960938 C -109.33660125732422 483.1874084472656 -51.401817321777344 457.13714599609375 -160.6667022705078 148.83236694335938 C -370.3630065917969 68.13456726074219 -430.17962646484375 10.364072799682617 289.1940612792969 -14.425275802612305 C 204.44534301757812 403.7054138183594 13.991170883178711 269.2780456542969 33.07631301879883 365.85589599609375" fill="rgb(94, 100, 114)" opacity="0.8998362" stroke="rgb(7, 16, 49)" stroke-linecap="round" stroke-linejoin="round" stroke-opacity="0.8007389" stroke-width="0.0"/>
    <path d="M 463.2416076660156 549.0862426757812 C 464.7521667480469 551.656494140625 459.5544128417969 555.4832153320312 435.8923645019531 557.8123779296875 C 418.0361633300781 558.6941528320312 407.2618103027344 553.319091796875 407.8353576660156 552.8447875976562 C 413.8197326660156 523.9883422851562 430.6267395019531 510.2734069824219 415.3238220214844 524.3458251953125 C 459.4178466796875 525.772216796875 447.4057312011719 518.0339965820312 463.2416076660156 549.0862426757812" fill="rgb(203, 134, 75)" opacity="0.90311706" stroke="rgb(129, 104, 58)" stroke-linecap="round" stroke-linejoin="round" stroke-opacity="0.5020814" stroke-width="0.0"/>
    <path d="M 330.9967346191406 439.7213134765625 C 289.6505126953125 495.5047912597656 151.26429748535156 528.9539184570312 305.7212829589844 451.2379455566406 C 260.245849609375 434.3356018066406 266.6800537109375 424.2191162109375 205.7265167236328 391.0190734863281 C 300.2608337402344 426.8550109863281 224.7694091796875 422.053466796875 292.4874267578125 405.8788146972656 C 289.3781433105469 355.96783447265625 309.0634460449219 441.0874938964844 330.9967346191406 439.7213134765625" fill="rgb(200, 159, 113)" opacity="0.91445166" stroke="rgb(77, 254, 133)" stroke-linecap="round" stroke-linejoin="round" stroke-opacity="0.23932783" stroke-width="0.0"/>
  </g>
</svg>
