<?xml version="1.0" ?>
<svg height="768" version="1.1" width="768" xmlns="http://www.w3.org/2000/svg">
  <defs/>
  <g>
    <path d="M 790.4853515625 762.0482177734375 C 656.7283325195312 796.0460205078125 502.4166564941406 828.6788940429688 -29.575008392333984 762.6160278320312 C 86.41411590576172 183.19412231445312 454.6087646484375 674.1008911132812 290.3055114746094 436.4651184082031 C 354.10589599609375 353.3802795410156 220.73130798339844 271.4273681640625 515.0228881835938 263.57769775390625 C 764.6753540039062 143.5038299560547 832.3770751953125 137.0750732421875 790.4853515625 762.0482177734375" fill="rgb(90, 80, 78)" opacity="0.9997892" stroke="rgb(225, 106, 48)" stroke-linecap="round" stroke-linejoin="round" stroke-opacity="0.7659692" stroke-width="0.0"/>
    <path d="M 521.6869506835938 472.7597961425781 C 478.3765563964844 526.3358154296875 514.8228759765625 646.8973999023438 407.6260986328125 563.0501098632812 C 389.9993591308594 521.5592041015625 433.6626281738281 680.7957153320312 93.15880584716797 405.0618896484375 C 112.63633728027344 106.5777359008789 414.57818603515625 286.6179504394531 392.5712890625 549.4327392578125 C 562.6958618164062 563.2218627929688 338.99200439453125 327.2770080566406 521.6869506835938 472.7597961425781" fill="rgb(153, 104, 50)" opacity="0.84537894" stroke="rgb(244, 174, 20)" stroke-linecap="round" stroke-linejoin="round" stroke-opacity="0.6830181" stroke-width="0.0"/>
    <path d="M 454.0450744628906 509.751953125 C 489.2970886230469 358.60919189453125 550.2402954101562 687.2350463867188 401.8221435546875 560.7315673828125 C 279.4516906738281 636.3638916015625 358.96075439453125 550.1712036132812 317.11810302734375 571.8710327148438 C 190.6336669921875 525.338623046875 347.8242492675781 437.97271728515625 344.5236511230469 506.5894775390625 C 416.4695129394531 568.3331909179688 384.2394104003906 560.3287963867188 454.0450744628906 509.751953125" fill="rgb(227, 217, 202)" opacity="1.0" stroke="rgb(144, 140, 207)" stroke-linecap="round" stroke-linejoin="round" stroke-opacity="0.0724076" stroke-width="0.0"/>
    <path d="M 608.2523803710938 447.02935791015625 C 582.908447265625 456.3284912109375 634.6519775390625 367.080078125 556.4306030273438 456.5740661621094 C 515.085693359375 459.169677734375 531.014892578125 481.8061218261719 528.240966796875 438.6636657714844 C 544.5673828125 427.0889892578125 558.5201416015625 420.3004150390625 595.9010620117188 392.1302185058594 C 579.0982666015625 246.57142639160156 634.1028442382812 248.54310607910156 608.2523803710938 447.02935791015625" fill="rgb(254, 241, 232)" opacity="0.951486" stroke="rgb(224, 67, 36)" stroke-linecap="round" stroke-linejoin="round" stroke-opacity="0.098153554" stroke-width="0.0"/>
    <path d="M 649.75439453125 349.7303161621094 C 645.8045654296875 406.79571533203125 649.4891357421875 387.01214599609375 625.9660034179688 437.2122802734375 C 583.8054809570312 472.66839599609375 594.0239868164062 354.62841796875 627.0894775390625 397.4696044921875 C 633.0270385742188 319.00762939453125 657.1033325195312 281.4006652832031 568.488037109375 210.70986938476562 C 632.8389282226562 203.48226928710938 655.3805541992188 300.0123596191406 649.75439453125 349.7303161621094" fill="rgb(250, 243, 236)" opacity="1.0" stroke="rgb(179, 159, 12)" stroke-linecap="round" stroke-linejoin="round" stroke-opacity="0.5189452" stroke-width="0.0"/>
  </g>
</svg>
