<?xml version="1.0" ?>
<svg height="768" version="1.1" width="768" xmlns="http://www.w3.org/2000/svg">
  <defs/>
  <g>
    <path d="M 790.4849243164062 762.1946411132812 C 656.7708740234375 796.0325317382812 503.7168884277344 828.12890625 -29.087154388427734 762.2078857421875 C 88.20747375488281 191.4309539794922 458.80902099609375 682.7021484375 290.0441589355469 438.267822265625 C 353.2901611328125 353.006103515625 219.59274291992188 271.2642517089844 515.9284057617188 264.276611328125 C 766.0411376953125 144.52342224121094 832.4004516601562 137.38673400878906 790.4849243164062 762.1946411132812" fill="rgb(105, 96, 90)" opacity="0.99864477" stroke="rgb(225, 106, 48)" stroke-linecap="round" stroke-linejoin="round" stroke-opacity="0.7659692" stroke-width="0.0"/>
    <path d="M 522.5360107421875 478.02813720703125 C 478.2936096191406 526.4074096679688 518.0770263671875 643.2474975585938 405.4615173339844 564.3916015625 C 385.73016357421875 525.9874877929688 415.27349853515625 694.6853637695312 94.69490051269531 401.8663635253906 C 115.15589904785156 106.70307922363281 409.19830322265625 285.89031982421875 395.0970458984375 549.642333984375 C 543.286865234375 552.2819213867188 359.43194580078125 325.8594665527344 522.5360107421875 478.02813720703125" fill="rgb(153, 110, 63)" opacity="0.8674855" stroke="rgb(244, 174, 20)" stroke-linecap="round" stroke-linejoin="round" stroke-opacity="0.6830181" stroke-width="0.0"/>
    <path d="M 449.1025390625 514.6224365234375 C 503.2844543457031 391.1258850097656 537.1149291992188 678.2698974609375 402.2248229980469 560.7593383789062 C 274.6279602050781 635.2940673828125 373.3098449707031 554.2208862304688 298.3437194824219 569.2211303710938 C 301.45098876953125 480.8347473144531 338.8450012207031 454.6505126953125 345.5516662597656 507.5968933105469 C 417.4508056640625 570.40771484375 386.0413513183594 556.701904296875 449.1025390625 514.6224365234375" fill="rgb(249, 245, 237)" opacity="0.83472914" stroke="rgb(144, 140, 207)" stroke-linecap="round" stroke-linejoin="round" stroke-opacity="0.0724076" stroke-width="0.0"/>
  </g>
</svg>
