<?xml version="1.0" ?>
<svg height="768" version="1.1" width="768" xmlns="http://www.w3.org/2000/svg">
  <defs/>
  <g>
    <path d="M 790.4853515625 762.159423828125 C 656.7496337890625 796.0470581054688 502.74334716796875 828.5409545898438 -29.45171356201172 762.1142578125 C 86.82212829589844 184.61854553222656 455.34490966796875 675.587890625 290.1053161621094 436.8979797363281 C 353.7591857910156 353.2218933105469 220.24774169921875 271.35943603515625 516.0519409179688 264.2823486328125 C 766.1160888671875 144.51226806640625 832.4298095703125 137.3639678955078 790.4853515625 762.159423828125" fill="rgb(100, 89, 85)" opacity="1.0" stroke="rgb(225, 106, 48)" stroke-linecap="round" stroke-linejoin="round" stroke-opacity="0.7659692" stroke-width="0.0"/>
    <path d="M 520.5050659179688 472.7815246582031 C 481.1791687011719 525.1740112304688 518.9060668945312 644.0517578125 404.24700927734375 564.0845336914062 C 385.8192443847656 525.6760864257812 426.6831359863281 688.0339965820312 94.27037811279297 402.56231689453125 C 113.42618560791016 107.11524963378906 412.8274230957031 286.6982116699219 393.5954284667969 549.3555908203125 C 555.5805053710938 559.8873291015625 345.0596008300781 326.59173583984375 520.5050659179688 472.7815246582031" fill="rgb(152, 104, 51)" opacity="0.8525893" stroke="rgb(244, 174, 20)" stroke-linecap="round" stroke-linejoin="round" stroke-opacity="0.6830181" stroke-width="0.0"/>
    <path d="M 449.7893371582031 514.1235961914062 C 499.67742919921875 385.7616882324219 541.0525512695312 680.3494873046875 402.0646667480469 560.8513793945312 C 277.510986328125 635.2930297851562 365.45196533203125 553.23388671875 310.0665588378906 570.7166748046875 C 199.26280212402344 515.17529296875 346.3413391113281 442.0146484375 344.6524353027344 506.1748046875 C 417.7689514160156 572.1732788085938 387.1136474609375 555.1564331054688 449.7893371582031 514.1235961914062" fill="rgb(231, 222, 211)" opacity="0.9629018" stroke="rgb(144, 140, 207)" stroke-linecap="round" stroke-linejoin="round" stroke-opacity="0.0724076" stroke-width="0.0"/>
    <path d="M 629.9231567382812 433.2254638671875 C 564.7173461914062 486.0801696777344 638.6378784179688 359.3074035644531 557.0632934570312 456.35833740234375 C 514.9163208007812 459.32720947265625 531.3211669921875 481.4743957519531 528.25439453125 438.5607604980469 C 544.3080444335938 427.3670959472656 559.5579833984375 419.4480285644531 594.71630859375 392.9985046386719 C 588.229736328125 239.2337188720703 602.7431030273438 274.4805908203125 629.9231567382812 433.2254638671875" fill="rgb(246, 237, 235)" opacity="0.93388104" stroke="rgb(224, 67, 36)" stroke-linecap="round" stroke-linejoin="round" stroke-opacity="0.098153554" stroke-width="0.0"/>
  </g>
</svg>
