<?xml version="1.0" ?>
<svg height="768" version="1.1" width="768" xmlns="http://www.w3.org/2000/svg">
  <defs/>
  <g>
    <path d="M 483.4593811035156 884.0966796875 C 271.0419616699219 785.1021118164062 230.68609619140625 783.1209716796875 -14.185747146606445 776.5763549804688 C -18.181488037109375 704.0333251953125 -16.092060089111328 669.0184936523438 -20.78838539123535 163.23509216308594 C -127.94398498535156 77.84719848632812 -54.7310676574707 59.21424102783203 766.237060546875 78.86272430419922 C 717.326171875 865.4966430664062 617.8960571289062 896.4957885742188 483.4593811035156 884.0966796875" fill="rgb(92, 139, 157)" opacity="1.0" stroke="rgb(8, 15, 227)" stroke-linecap="round" stroke-linejoin="round" stroke-opacity="0.71848446" stroke-width="0.0"/>
    <path d="M 526.456298828125 238.2151641845703 C 487.1457214355469 299.9200744628906 538.5116577148438 357.8778991699219 437.3700866699219 355.1269836425781 C 397.0353088378906 211.4973907470703 452.24700927734375 211.29798889160156 445.2250061035156 216.1367645263672 C 436.8323059082031 113.93338775634766 475.51812744140625 99.5557861328125 493.008544921875 105.89015197753906 C 521.303466796875 122.69548034667969 530.8306884765625 139.9605255126953 526.456298828125 238.2151641845703" fill="rgb(239, 43, 18)" opacity="0.93779653" stroke="rgb(21, 187, 213)" stroke-linecap="round" stroke-linejoin="round" stroke-opacity="0.79851526" stroke-width="0.0"/>
    <path d="M 779.8934936523438 778.97509765625 C 764.2323608398438 783.3659057617188 760.1072998046875 783.4859619140625 650.8756103515625 779.8412475585938 C 644.1076049804688 748.60107421875 658.31884765625 734.68359375 657.435302734375 638.3223876953125 C 622.4465942382812 518.1383666992188 402.9809875488281 448.37908935546875 767.9050903320312 338.3877258300781 C 785.210205078125 627.401611328125 782.60205078125 638.3251953125 779.8934936523438 778.97509765625" fill="rgb(88, 140, 157)" opacity="1.0" stroke="rgb(217, 211, 54)" stroke-linecap="round" stroke-linejoin="round" stroke-opacity="0.7799219" stroke-width="0.0"/>
    <path d="M 766.2099609375 375.7530517578125 C 585.6024780273438 108.56785583496094 698.438232421875 103.22772979736328 57.314823150634766 72.41654205322266 C 225.2508544921875 -217.33306884765625 378.11602783203125 -110.89805603027344 453.0296936035156 -147.19137573242188 C 558.9925537109375 -17.54596519470215 565.5708618164062 -15.121785163879395 734.5546875 -13.053281784057617 C 765.83984375 -36.66411590576172 784.209228515625 -69.16798400878906 766.2099609375 375.7530517578125" fill="rgb(88, 140, 158)" opacity="1.0" stroke="rgb(11, 97, 163)" stroke-linecap="round" stroke-linejoin="round" stroke-opacity="0.8905633" stroke-width="0.0"/>
  </g>
</svg>
