<?xml version="1.0" ?>
<svg height="768" version="1.1" width="768" xmlns="http://www.w3.org/2000/svg">
  <defs/>
  <g>
    <path d="M 483.4593811035156 884.0966796875 C 271.0419616699219 785.1021118164062 230.68609619140625 783.1209716796875 -14.185747146606445 776.5763549804688 C -18.181488037109375 704.0333251953125 -16.092060089111328 669.0184936523438 -20.79915428161621 163.0126190185547 C -128.2996826171875 77.54370880126953 -55.5343132019043 59.018455505371094 766.2406005859375 78.80558776855469 C 717.3312377929688 865.499267578125 617.8973388671875 896.4957885742188 483.4593811035156 884.0966796875" fill="rgb(112, 124, 139)" opacity="0.9929383" stroke="rgb(8, 15, 227)" stroke-linecap="round" stroke-linejoin="round" stroke-opacity="0.71848446" stroke-width="0.0"/>
    <path d="M 526.3131713867188 238.0816192626953 C 486.2523193359375 300.2574462890625 537.5944213867188 358.8442077636719 436.347900390625 355.1742858886719 C 399.9706726074219 207.79751586914062 451.74560546875 208.1893768310547 445.80084228515625 221.81036376953125 C 435.720458984375 113.43205261230469 475.4761962890625 100.90530395507812 491.80743408203125 105.50432586669922 C 521.1820678710938 122.15352630615234 530.6400146484375 139.68162536621094 526.3131713867188 238.0816192626953" fill="rgb(242, 40, 15)" opacity="0.9509162" stroke="rgb(21, 187, 213)" stroke-linecap="round" stroke-linejoin="round" stroke-opacity="0.79851526" stroke-width="0.0"/>
    <path d="M 779.8934936523438 778.97509765625 C 764.2323608398438 783.3659057617188 760.1072998046875 783.4859619140625 642.22607421875 779.8378295898438 C 637.39794921875 748.4009399414062 652.530517578125 734.09619140625 653.2310180664062 638.755126953125 C 620.7897338867188 518.234130859375 401.4974365234375 448.1851806640625 767.9005126953125 337.98980712890625 C 785.210205078125 627.401611328125 782.60205078125 638.3251953125 779.8934936523438 778.97509765625" fill="rgb(88, 140, 157)" opacity="1.0" stroke="rgb(217, 211, 54)" stroke-linecap="round" stroke-linejoin="round" stroke-opacity="0.7799219" stroke-width="0.0"/>
    <path d="M 765.8923950195312 383.0641174316406 C 544.2659912109375 90.9095458984375 700.8407592773438 97.17101287841797 38.13156509399414 88.35218048095703 C 215.03585815429688 -233.49301147460938 377.37744140625 -114.83258056640625 453.01324462890625 -147.4024200439453 C 558.9925537109375 -17.54596519470215 565.5708618164062 -15.121785163879395 734.5885620117188 -13.047576904296875 C 765.9178466796875 -36.678672790527344 785.0442504882812 -68.7573013305664 765.8923950195312 383.0641174316406" fill="rgb(88, 140, 158)" opacity="0.99630547" stroke="rgb(11, 97, 163)" stroke-linecap="round" stroke-linejoin="round" stroke-opacity="0.8905633" stroke-width="0.0"/>
    <path d="M 499.6844177246094 402.9375305175781 C 301.85784912109375 545.7294921875 364.5293884277344 406.9096374511719 263.8348693847656 331.53228759765625 C 257.7763366699219 221.52191162109375 230.4855194091797 273.96697998046875 241.9835968017578 158.30520629882812 C 248.80026245117188 103.38545989990234 297.39239501953125 79.3084945678711 318.3742370605469 144.68614196777344 C 332.319580078125 288.44744873046875 274.8055725097656 115.5239028930664 499.6844177246094 402.9375305175781" fill="rgb(193, 69, 62)" opacity="0.96724355" stroke="rgb(238, 186, 231)" stroke-linecap="round" stroke-linejoin="round" stroke-opacity="0.66658974" stroke-width="0.0"/>
  </g>
</svg>
