<?xml version="1.0" ?>
<svg height="768" version="1.1" width="768" xmlns="http://www.w3.org/2000/svg">
  <defs/>
  <g>
    <path d="M 766.691650390625 807.8265991210938 C 306.3517761230469 772.4310302734375 161.99667358398438 713.04296875 -42.38344192504883 664.346923828125 C -3.8209846019744873 270.2069091796875 8.557304382324219 339.4293212890625 -2.906109094619751 -18.849109649658203 C 538.4714965820312 -23.474950790405273 612.673095703125 -16.914928436279297 794.1691284179688 2.3782613277435303 C 788.5914306640625 284.9244079589844 779.7723999023438 338.8677062988281 766.691650390625 807.8265991210938" fill="rgb(123, 158, 162)" opacity="0.99418235" stroke="rgb(12, 77, 72)" stroke-linecap="round" stroke-linejoin="round" stroke-opacity="0.61874783" stroke-width="0.0"/>
    <path d="M 475.2666931152344 354.7198486328125 C 532.9285888671875 404.9752197265625 604.2374267578125 355.2373962402344 788.1632690429688 606.1669921875 C 636.4630126953125 647.9696655273438 487.1521301269531 428.7836608886719 157.75978088378906 576.1820068359375 C 351.711669921875 283.8738708496094 131.16099548339844 467.2366943359375 93.56519317626953 233.82659912109375 C 289.5426940917969 106.20777130126953 239.69630432128906 293.0722961425781 475.2666931152344 354.7198486328125" fill="rgb(37, 101, 60)" opacity="0.6358655" stroke="rgb(142, 239, 62)" stroke-linecap="round" stroke-linejoin="round" stroke-opacity="0.6742211" stroke-width="0.0"/>
    <path d="M 188.0 230.0 C 187.3301239013672 232.5 185.5 234.3301239013672 183.0 235.0 C 180.5 234.3301239013672 178.6698760986328 232.5 178.0 230.0 C 178.6698760986328 227.5 180.5 225.6698760986328 183.0 225.0 C 185.5 225.6698760986328 187.3301239013672 227.5 188.0 230.0" fill="rgb(0, 0, 0)" opacity="1.0" stroke="rgb(108, 227, 103)" stroke-linecap="round" stroke-linejoin="round" stroke-opacity="0.5134671" stroke-width="0.0"/>
  </g>
</svg>
