<?xml version="1.0" ?>
<svg height="768" version="1.1" width="768" xmlns="http://www.w3.org/2000/svg">
  <defs/>
  <g>
    <path d="M 766.820068359375 808.0113525390625 C 305.8843078613281 772.7876586914062 161.3442840576172 713.4049072265625 -42.621829986572266 664.7394409179688 C -3.981785535812378 270.17303466796875 8.310309410095215 339.2752685546875 -3.0756165981292725 -18.85575294494629 C 538.4714965820312 -23.474950790405273 612.673095703125 -16.914928436279297 794.1691284179688 2.3782613277435303 C 788.5914306640625 284.9244079589844 779.7975463867188 338.8821105957031 766.820068359375 808.0113525390625" fill="rgb(127, 163, 171)" opacity="0.98927623" stroke="rgb(12, 77, 72)" stroke-linecap="round" stroke-linejoin="round" stroke-opacity="0.61874783" stroke-width="0.0"/>
    <path d="M 407.32635498046875 326.2816162109375 C 543.647705078125 405.4034423828125 629.6909790039062 370.1390380859375 830.9578857421875 644.125732421875 C 764.0958251953125 665.345458984375 425.9038391113281 432.7342834472656 169.0679473876953 554.9150390625 C 444.1147155761719 222.63478088378906 47.7592887878418 479.3665466308594 124.70603942871094 215.15542602539062 C 263.97857666015625 121.3915023803711 313.4967956542969 325.2541809082031 407.32635498046875 326.2816162109375" fill="rgb(11, 97, 46)" opacity="0.75643194" stroke="rgb(142, 239, 62)" stroke-linecap="round" stroke-linejoin="round" stroke-opacity="0.6742211" stroke-width="0.0"/>
    <path d="M 189.07473754882812 226.88197326660156 C 187.8761749267578 234.11741638183594 185.3885955810547 233.64810180664062 182.73965454101562 234.79261779785156 C 178.94769287109375 235.6402130126953 178.238525390625 232.816650390625 178.5874786376953 230.93226623535156 C 178.32952880859375 228.8753204345703 184.03732299804688 225.94920349121094 185.34442138671875 226.6840362548828 C 180.7284698486328 226.23101806640625 188.91299438476562 224.96331787109375 189.07473754882812 226.88197326660156" fill="rgb(0, 0, 1)" opacity="1.0" stroke="rgb(108, 227, 103)" stroke-linecap="round" stroke-linejoin="round" stroke-opacity="0.5134671" stroke-width="0.0"/>
    <path d="M 310.3861083984375 536.7865600585938 C 279.3584289550781 561.146484375 348.9846496582031 497.02874755859375 211.90322875976562 535.3514404296875 C 208.51890563964844 555.8810424804688 122.01182556152344 649.2744750976562 158.84889221191406 568.3006591796875 C 261.89697265625 453.16400146484375 149.69781494140625 548.768310546875 188.9355010986328 499.0687561035156 C 194.86314392089844 494.4444580078125 332.8982849121094 481.8880920410156 310.3861083984375 536.7865600585938" fill="rgb(17, 14, 16)" opacity="1.0" stroke="rgb(4, 45, 250)" stroke-linecap="round" stroke-linejoin="round" stroke-opacity="0.9083855" stroke-width="0.0"/>
    <path d="M 696.8695678710938 485.3351135253906 C 763.2003784179688 567.7083740234375 801.0209350585938 520.7557983398438 474.0980529785156 496.25408935546875 C 264.99908447265625 478.7929382324219 346.8204650878906 500.4705505371094 350.83514404296875 456.8238830566406 C 406.0968017578125 475.61767578125 381.1777648925781 470.1259460449219 446.5647277832031 478.7427673339844 C 528.5439453125 484.9672546386719 513.22216796875 485.9933776855469 696.8695678710938 485.3351135253906" fill="rgb(145, 172, 179)" opacity="0.90098333" stroke="rgb(18, 228, 169)" stroke-linecap="round" stroke-linejoin="round" stroke-opacity="0.1384647" stroke-width="0.0"/>
    <path d="M 367.9647521972656 767.4453125 C 128.74644470214844 795.0968627929688 118.65943908691406 783.0560302734375 11.796472549438477 777.82763671875 C -11.87857723236084 786.9454345703125 -15.19631576538086 788.1581420898438 -11.842219352722168 658.1759643554688 C -2.454967975616455 644.1665649414062 7.418959617614746 644.8037719726562 59.21235275268555 650.5400390625 C 178.89984130859375 621.166259765625 261.7273254394531 516.9124755859375 367.9647521972656 767.4453125" fill="rgb(133, 167, 178)" opacity="1.0" stroke="rgb(159, 206, 116)" stroke-linecap="round" stroke-linejoin="round" stroke-opacity="0.08451085" stroke-width="0.0"/>
    <path d="M 253.4158477783203 347.6142272949219 C 337.9524230957031 432.6307373046875 312.6591491699219 326.7533874511719 318.43603515625 508.2720642089844 C 122.62680053710938 470.7256774902344 314.864990234375 491.6664733886719 214.7450714111328 417.5065612792969 C 128.30555725097656 282.0050048828125 247.51780700683594 340.1822509765625 145.98963928222656 217.58250427246094 C 270.8995666503906 198.29595947265625 189.92306518554688 284.16015625 253.4158477783203 347.6142272949219" fill="rgb(230, 138, 71)" opacity="1.0" stroke="rgb(0, 105, 147)" stroke-linecap="round" stroke-linejoin="round" stroke-opacity="0.3611284" stroke-width="0.0"/>
    <path d="M 176.07424926757812 256.9512939453125 C 165.39315795898438 246.40798950195312 102.98126983642578 310.79010009765625 164.20310974121094 344.3170166015625 C 125.2528305053711 344.33795166015625 109.31757354736328 309.0191345214844 112.56554412841797 274.187744140625 C 116.37977600097656 242.41232299804688 135.333251953125 219.19679260253906 157.22901916503906 215.90304565429688 C 169.1692657470703 230.1077880859375 159.5287322998047 243.91481018066406 176.07424926757812 256.9512939453125" fill="rgb(10, 11, 12)" opacity="1.0" stroke="rgb(123, 164, 252)" stroke-linecap="round" stroke-linejoin="round" stroke-opacity="0.8283837" stroke-width="0.0"/>
    <path d="M 601.2656860351562 485.3403015136719 C 543.72509765625 492.4733581542969 518.8369140625 498.5299987792969 483.70831298828125 493.64776611328125 C 465.6712646484375 494.4876708984375 411.0504150390625 488.90228271484375 383.8995361328125 469.4547119140625 C 389.55010986328125 468.60040283203125 408.7835998535156 475.3503112792969 479.9091491699219 480.48443603515625 C 477.5933837890625 479.6165466308594 541.575927734375 486.5879821777344 601.2656860351562 485.3403015136719" fill="rgb(224, 80, 19)" opacity="0.83308" stroke="rgb(129, 124, 169)" stroke-linecap="round" stroke-linejoin="round" stroke-opacity="0.75878716" stroke-width="0.0"/>
    <path d="M 192.73013305664062 278.73345947265625 C 189.5909423828125 323.8946838378906 192.64089965820312 310.5773620605469 181.44955444335938 312.7625732421875 C 143.90805053710938 316.2774963378906 158.17694091796875 307.62841796875 129.64093017578125 305.21112060546875 C 164.4130859375 274.9473571777344 135.11656188964844 294.23651123046875 162.97421264648438 263.2681884765625 C 170.2913055419922 261.9862976074219 192.8119354248047 273.0011901855469 192.73013305664062 278.73345947265625" fill="rgb(6, 0, 5)" opacity="0.9363778" stroke="rgb(90, 232, 236)" stroke-linecap="round" stroke-linejoin="round" stroke-opacity="0.40865332" stroke-width="0.0"/>
    <path d="M 188.49009704589844 344.64276123046875 C 187.23875427246094 381.4668273925781 207.48333740234375 392.85992431640625 176.30772399902344 364.34002685546875 C 158.5318145751953 340.24676513671875 157.5089111328125 347.3754577636719 137.68826293945312 315.13189697265625 C 131.74220275878906 297.22467041015625 136.00181579589844 309.0730895996094 160.16651916503906 313.1805114746094 C 201.43931579589844 317.5098876953125 187.38209533691406 297.3646545410156 188.49009704589844 344.64276123046875" fill="rgb(134, 168, 178)" opacity="0.9903906" stroke="rgb(120, 37, 112)" stroke-linecap="round" stroke-linejoin="round" stroke-opacity="0.62810665" stroke-width="0.0"/>
    <path d="M 677.9598999023438 459.41021728515625 C 661.9338989257812 464.9209289550781 648.4901123046875 459.2989807128906 608.4291381835938 455.3151550292969 C 580.7903442382812 451.6206359863281 555.6903686523438 448.9339294433594 521.2241821289062 446.9122314453125 C 585.727294921875 438.66455078125 620.9112548828125 438.5753173828125 619.4149780273438 427.1486511230469 C 645.041748046875 389.71942138671875 673.96826171875 381.5226135253906 677.9598999023438 459.41021728515625" fill="rgb(133, 169, 177)" opacity="0.93897104" stroke="rgb(114, 52, 147)" stroke-linecap="round" stroke-linejoin="round" stroke-opacity="0.060832683" stroke-width="0.0"/>
    <path d="M 253.40907287597656 492.4862976074219 C 255.87547302246094 492.7977600097656 256.5696105957031 494.5598449707031 236.18235778808594 494.2429504394531 C 205.54469299316406 494.4858093261719 201.94827270507812 499.3496398925781 197.55882263183594 469.1822814941406 C 218.384521484375 467.4637451171875 175.38673400878906 442.626220703125 237.7964630126953 437.3437805175781 C 253.5950927734375 450.7671813964844 246.06187438964844 427.7112731933594 253.40907287597656 492.4862976074219" fill="rgb(131, 167, 178)" opacity="0.98809314" stroke="rgb(236, 81, 72)" stroke-linecap="round" stroke-linejoin="round" stroke-opacity="0.22636518" stroke-width="0.0"/>
    <path d="M 764.0 546.0 C 763.3301391601562 548.5 761.5 550.3301391601562 759.0 551.0 C 756.5 550.3301391601562 754.6698608398438 548.5 754.0 546.0 C 754.6698608398438 543.5 756.5 541.6698608398438 759.0 541.0 C 761.5 541.6698608398438 763.3301391601562 543.5 764.0 546.0" fill="rgb(18, 110, 76)" opacity="1.0" stroke="rgb(203, 237, 151)" stroke-linecap="round" stroke-linejoin="round" stroke-opacity="0.023405533" stroke-width="0.0"/>
  </g>
</svg>
