<?xml version="1.0" ?>
<svg height="768" version="1.1" width="768" xmlns="http://www.w3.org/2000/svg">
  <defs/>
  <g>
    <path d="M 766.820068359375 808.0113525390625 C 305.8843078613281 772.7876586914062 161.3442840576172 713.4049072265625 -42.621829986572266 664.7394409179688 C -3.9817862510681152 270.17303466796875 8.310309410095215 339.2752685546875 -3.075618028640747 -18.85575294494629 C 538.4714965820312 -23.474950790405273 612.673095703125 -16.914928436279297 794.1691284179688 2.3782613277435303 C 788.5914306640625 284.9244079589844 779.7975463867188 338.8821105957031 766.820068359375 808.0113525390625" fill="rgb(127, 163, 171)" opacity="0.9892887" stroke="rgb(12, 77, 72)" stroke-linecap="round" stroke-linejoin="round" stroke-opacity="0.61874783" stroke-width="0.0"/>
    <path d="M 407.3262634277344 326.2816162109375 C 543.647705078125 405.3998107910156 629.6909790039062 370.1343994140625 830.9578857421875 644.1178588867188 C 764.10791015625 665.3330688476562 425.91644287109375 432.7247314453125 169.0586395263672 554.9150390625 C 444.1147155761719 222.63351440429688 47.76529312133789 479.3665466308594 124.71452331542969 215.15106201171875 C 263.97857666015625 121.40001678466797 313.496826171875 325.2541809082031 407.3262634277344 326.2816162109375" fill="rgb(11, 97, 46)" opacity="0.75651467" stroke="rgb(142, 239, 62)" stroke-linecap="round" stroke-linejoin="round" stroke-opacity="0.6742211" stroke-width="0.0"/>
    <path d="M 189.08042907714844 226.8799591064453 C 187.87722778320312 234.1179656982422 185.38894653320312 233.64810180664062 182.73965454101562 234.79261779785156 C 178.94769287109375 235.6402130126953 178.238525390625 232.816650390625 178.5872344970703 230.93153381347656 C 178.3285369873047 228.87416076660156 184.03623962402344 225.94752502441406 185.34214782714844 226.67935180664062 C 180.7220001220703 226.22409057617188 188.91236877441406 224.9595947265625 189.08042907714844 226.8799591064453" fill="rgb(0, 0, 1)" opacity="1.0" stroke="rgb(108, 227, 103)" stroke-linecap="round" stroke-linejoin="round" stroke-opacity="0.5134671" stroke-width="0.0"/>
    <path d="M 310.3851013183594 536.7870483398438 C 279.35955810546875 561.1463012695312 348.9859924316406 497.02874755859375 211.90623474121094 535.3511352539062 C 208.51657104492188 555.8795776367188 122.01146697998047 649.2735595703125 158.84991455078125 568.3005981445312 C 261.89312744140625 453.16375732421875 149.69000244140625 548.767578125 188.9399871826172 499.0765380859375 C 194.87701416015625 494.404052734375 332.8883056640625 481.83905029296875 310.3851013183594 536.7870483398438" fill="rgb(17, 14, 16)" opacity="1.0" stroke="rgb(4, 45, 250)" stroke-linecap="round" stroke-linejoin="round" stroke-opacity="0.9083855" stroke-width="0.0"/>
    <path d="M 696.891845703125 485.3363342285156 C 763.1847534179688 567.7500610351562 801.016845703125 520.7758178710938 474.0917663574219 496.2537841796875 C 265.0005187988281 478.7931823730469 346.81976318359375 500.46923828125 350.8360595703125 456.8243103027344 C 406.09912109375 475.6183776855469 381.1624450683594 470.1274108886719 446.564208984375 478.7445373535156 C 528.5867309570312 484.9695739746094 513.2191772460938 485.9885559082031 696.891845703125 485.3363342285156" fill="rgb(145, 172, 179)" opacity="0.90179694" stroke="rgb(18, 228, 169)" stroke-linecap="round" stroke-linejoin="round" stroke-opacity="0.1384647" stroke-width="0.0"/>
    <path d="M 367.9647521972656 767.4453125 C 128.74644470214844 795.0968627929688 118.65943908691406 783.0560302734375 11.796472549438477 777.82763671875 C -11.87857723236084 786.9454345703125 -15.19631576538086 788.1581420898438 -11.842219352722168 658.1759643554688 C -2.4567434787750244 644.1454467773438 7.418712139129639 644.7808837890625 59.211971282958984 650.5400390625 C 178.89984130859375 621.166259765625 261.7273254394531 516.9124755859375 367.9647521972656 767.4453125" fill="rgb(133, 167, 178)" opacity="1.0" stroke="rgb(159, 206, 116)" stroke-linecap="round" stroke-linejoin="round" stroke-opacity="0.08451085" stroke-width="0.0"/>
    <path d="M 253.5773162841797 347.66900634765625 C 337.92498779296875 432.64935302734375 312.67425537109375 326.7381896972656 318.4477844238281 508.3457946777344 C 122.54898071289062 470.42242431640625 314.21343994140625 492.5787658691406 214.86952209472656 417.4200134277344 C 127.92072296142578 282.7132568359375 247.86135864257812 339.9825134277344 146.0619354248047 218.2209014892578 C 270.3432922363281 199.0229034423828 189.734619140625 284.4412536621094 253.5773162841797 347.66900634765625" fill="rgb(229, 136, 68)" opacity="0.99749166" stroke="rgb(0, 105, 147)" stroke-linecap="round" stroke-linejoin="round" stroke-opacity="0.3611284" stroke-width="0.0"/>
    <path d="M 176.3302001953125 257.174560546875 C 165.093994140625 246.36004638671875 103.20292663574219 311.59442138671875 164.49375915527344 344.314453125 C 125.24249267578125 344.46209716796875 109.32649230957031 309.0142517089844 112.5666732788086 274.2662353515625 C 116.41888427734375 242.0276641845703 135.1985626220703 219.4324493408203 157.40548706054688 216.3827362060547 C 169.2032012939453 230.13375854492188 159.3864288330078 243.82699584960938 176.3302001953125 257.174560546875" fill="rgb(10, 10, 11)" opacity="1.0" stroke="rgb(123, 164, 252)" stroke-linecap="round" stroke-linejoin="round" stroke-opacity="0.8283837" stroke-width="0.0"/>
    <path d="M 601.2666625976562 485.3370361328125 C 543.11083984375 492.5623779296875 518.9183959960938 498.48236083984375 483.59808349609375 493.6384582519531 C 465.5721740722656 494.4525146484375 411.0462341308594 488.875 383.9079895019531 469.4479675292969 C 389.4056701660156 468.6142272949219 408.43426513671875 475.3244934082031 479.92132568359375 480.50555419921875 C 477.4422912597656 479.59466552734375 541.7840576171875 486.6119384765625 601.2666625976562 485.3370361328125" fill="rgb(225, 80, 19)" opacity="0.834883" stroke="rgb(129, 124, 169)" stroke-linecap="round" stroke-linejoin="round" stroke-opacity="0.75878716" stroke-width="0.0"/>
    <path d="M 192.71849060058594 278.8132019042969 C 189.50970458984375 323.87786865234375 192.63333129882812 310.53900146484375 181.3741455078125 312.7602233886719 C 143.88941955566406 316.2590026855469 158.2211456298828 307.7616882324219 129.365234375 305.0388488769531 C 164.33900451660156 274.72088623046875 134.88092041015625 293.99029541015625 162.69143676757812 263.1750793457031 C 170.45562744140625 261.8287048339844 192.98715209960938 272.9129943847656 192.71849060058594 278.8132019042969" fill="rgb(6, 0, 5)" opacity="0.93483484" stroke="rgb(90, 232, 236)" stroke-linecap="round" stroke-linejoin="round" stroke-opacity="0.40865332" stroke-width="0.0"/>
    <path d="M 188.47976684570312 344.6761169433594 C 187.13995361328125 381.2532958984375 207.8867645263672 393.8321533203125 175.74655151367188 364.099853515625 C 158.18978881835938 339.7454833984375 157.92657470703125 348.0413818359375 137.68182373046875 315.10931396484375 C 131.8413848876953 297.38433837890625 135.84780883789062 309.01470947265625 159.88816833496094 313.1668395996094 C 201.4630126953125 317.61566162109375 187.30960083007812 297.1408386230469 188.47976684570312 344.6761169433594" fill="rgb(134, 168, 178)" opacity="0.990362" stroke="rgb(120, 37, 112)" stroke-linecap="round" stroke-linejoin="round" stroke-opacity="0.62810665" stroke-width="0.0"/>
    <path d="M 678.94677734375 459.11767578125 C 662.4072265625 465.1617736816406 649.7489624023438 459.2742614746094 608.2398071289062 455.3582763671875 C 581.6011352539062 451.9127502441406 554.7252807617188 448.6788330078125 520.3667602539062 446.9261474609375 C 588.9344482421875 438.6017761230469 618.3225708007812 438.0784912109375 619.3585205078125 428.3751220703125 C 638.4246215820312 384.2217712402344 676.9450073242188 377.84271240234375 678.94677734375 459.11767578125" fill="rgb(133, 169, 177)" opacity="0.9414079" stroke="rgb(114, 52, 147)" stroke-linecap="round" stroke-linejoin="round" stroke-opacity="0.060832683" stroke-width="0.0"/>
    <path d="M 253.4259796142578 492.69781494140625 C 256.0423278808594 492.4945983886719 256.22314453125 494.6593933105469 239.41026306152344 494.2890625 C 197.4752197265625 494.0708312988281 196.94471740722656 500.9257507324219 187.59376525878906 471.58770751953125 C 202.80911254882812 459.178955078125 162.4119110107422 420.1993713378906 238.08641052246094 437.46917724609375 C 254.06199645996094 450.4858093261719 246.20022583007812 429.22955322265625 253.4259796142578 492.69781494140625" fill="rgb(131, 167, 178)" opacity="0.9874148" stroke="rgb(236, 81, 72)" stroke-linecap="round" stroke-linejoin="round" stroke-opacity="0.22636518" stroke-width="0.0"/>
    <path d="M 778.2579345703125 543.6522216796875 C 788.0613403320312 561.7599487304688 784.4290161132812 565.6912231445312 771.94091796875 618.9713745117188 C 697.4815673828125 632.7700805664062 608.944580078125 555.6505126953125 409.98797607421875 492.82373046875 C 690.850830078125 511.2910461425781 769.9401245117188 542.4513549804688 755.1091918945312 535.8640747070312 C 769.779296875 542.3441162109375 771.3685913085938 537.6922607421875 778.2579345703125 543.6522216796875" fill="rgb(17, 110, 78)" opacity="0.9083201" stroke="rgb(203, 237, 151)" stroke-linecap="round" stroke-linejoin="round" stroke-opacity="0.023405533" stroke-width="0.0"/>
    <path d="M 206.55441284179688 255.6848907470703 C 187.8565216064453 216.00804138183594 220.37554931640625 238.7133331298828 193.22723388671875 269.64056396484375 C 151.3966064453125 237.39016723632812 166.6433868408203 210.0871124267578 186.1981964111328 247.7566680908203 C 199.53749084472656 195.150146484375 168.9558563232422 256.2237854003906 163.1292266845703 215.9437255859375 C 219.35829162597656 201.5791778564453 242.90635681152344 268.5094299316406 206.55441284179688 255.6848907470703" fill="rgb(246, 255, 233)" opacity="0.9239392" stroke="rgb(169, 187, 192)" stroke-linecap="round" stroke-linejoin="round" stroke-opacity="0.68430656" stroke-width="0.0"/>
    <path d="M 210.34066772460938 247.75831604003906 C 177.88107299804688 253.27093505859375 226.96142578125 246.6895294189453 210.11004638671875 256.03857421875 C 194.2091522216797 255.8384246826172 203.91921997070312 260.0753173828125 198.33714294433594 244.9922332763672 C 182.91934204101562 237.09242248535156 223.65774536132812 231.5387725830078 200.13760375976562 243.12091064453125 C 202.3928680419922 245.46127319335938 215.26718139648438 239.7637481689453 210.34066772460938 247.75831604003906" fill="rgb(1, 3, 4)" opacity="0.9319406" stroke="rgb(156, 238, 232)" stroke-linecap="round" stroke-linejoin="round" stroke-opacity="0.48303482" stroke-width="0.0"/>
    <path d="M 698.574951171875 481.4729919433594 C 699.23681640625 471.00958251953125 699.302978515625 486.97808837890625 690.8434448242188 483.2870788574219 C 434.3027648925781 486.7416076660156 289.4042053222656 473.553955078125 321.9239501953125 395.99652099609375 C 511.7386779785156 473.03741455078125 594.321533203125 437.5924987792969 635.173828125 467.4769287109375 C 687.6676025390625 456.76654052734375 703.4903564453125 468.9789123535156 698.574951171875 481.4729919433594" fill="rgb(15, 85, 45)" opacity="0.8338447" stroke="rgb(225, 215, 138)" stroke-linecap="round" stroke-linejoin="round" stroke-opacity="0.46836582" stroke-width="0.0"/>
    <path d="M 157.35800170898438 266.3320617675781 C 136.58551025390625 288.4892883300781 159.4084930419922 277.253173828125 132.3800811767578 298.4500732421875 C 145.24578857421875 299.018798828125 151.29071044921875 274.82598876953125 151.74667358398438 274.75457763671875 C 163.29554748535156 268.7904357910156 153.9433135986328 249.37551879882812 195.00265502929688 276.8227233886719 C 182.21282958984375 259.2799377441406 156.5870819091797 255.00982666015625 157.35800170898438 266.3320617675781" fill="rgb(218, 221, 232)" opacity="0.9509696" stroke="rgb(241, 24, 224)" stroke-linecap="round" stroke-linejoin="round" stroke-opacity="0.9624787" stroke-width="0.0"/>
    <path d="M 546.5108032226562 547.2295532226562 C 397.58551025390625 519.5645141601562 352.7890319824219 525.0303344726562 392.1737365722656 523.8003540039062 C 367.1193542480469 524.0374145507812 382.77301025390625 522.5696411132812 320.2248229980469 520.5335693359375 C 317.48553466796875 469.9782409667969 330.6095275878906 491.5056457519531 435.89892578125 494.3027038574219 C 460.5125427246094 502.06134033203125 557.18701171875 485.5390625 546.5108032226562 547.2295532226562" fill="rgb(16, 106, 74)" opacity="0.86878246" stroke="rgb(91, 46, 159)" stroke-linecap="round" stroke-linejoin="round" stroke-opacity="0.64249396" stroke-width="0.0"/>
    <path d="M 655.3385009765625 31.93288803100586 C 582.6272583007812 512.8909912109375 438.51123046875 197.33631896972656 137.5462646484375 189.2274627685547 C 66.52347564697266 457.9451904296875 -64.46747589111328 456.3567199707031 -33.14115524291992 -8.470232009887695 C 222.6123504638672 25.81853675842285 239.6333465576172 40.050567626953125 26.82499122619629 -0.4965018928050995 C 171.35903930664062 -34.14146041870117 339.0083923339844 -99.37079620361328 655.3385009765625 31.93288803100586" fill="rgb(133, 167, 178)" opacity="0.85748327" stroke="rgb(97, 216, 91)" stroke-linecap="round" stroke-linejoin="round" stroke-opacity="0.16990633" stroke-width="0.0"/>
    <path d="M 461.921630859375 352.2819519042969 C 694.6857299804688 445.6124572753906 495.3824768066406 495.696533203125 277.36376953125 370.03448486328125 C 253.63771057128906 352.2477111816406 256.0404968261719 352.7665710449219 232.03855895996094 313.7606201171875 C 206.65939331054688 254.65919494628906 255.86439514160156 234.50106811523438 164.70626831054688 203.68199157714844 C 333.488525390625 242.0098876953125 188.65220642089844 246.97659301757812 461.921630859375 352.2819519042969" fill="rgb(6, 132, 45)" opacity="0.472252" stroke="rgb(133, 2, 66)" stroke-linecap="round" stroke-linejoin="round" stroke-opacity="0.031605467" stroke-width="0.0"/>
    <path d="M 533.5606079101562 11.882744789123535 C 521.3106689453125 -3.7145609855651855 516.646240234375 -2.3122189044952393 525.8873901367188 20.479408264160156 C 531.53515625 0.6010031700134277 525.5911865234375 -3.796811103820801 514.217041015625 6.031280040740967 C 518.3114013671875 -2.8185958862304688 521.7811279296875 -3.5417356491088867 524.8761596679688 -3.900886297225952 C 528.5838012695312 -3.733037233352661 534.32568359375 -2.8472890853881836 533.5606079101562 11.882744789123535" fill="rgb(134, 167, 177)" opacity="0.89508444" stroke="rgb(195, 229, 134)" stroke-linecap="round" stroke-linejoin="round" stroke-opacity="0.19052486" stroke-width="0.0"/>
    <path d="M 419.46923828125 371.25347900390625 C 213.8720245361328 406.269287109375 220.79591369628906 283.7596435546875 225.46142578125 231.16946411132812 C 231.64161682128906 289.71331787109375 224.7417449951172 270.3686218261719 227.97293090820312 228.00674438476562 C 255.39852905273438 189.00228881835938 137.22048950195312 240.57554626464844 175.77418518066406 191.6998291015625 C 281.3755798339844 191.60159301757812 271.6419372558594 244.25807189941406 419.46923828125 371.25347900390625" fill="rgb(21, 120, 54)" opacity="0.8668355" stroke="rgb(220, 171, 170)" stroke-linecap="round" stroke-linejoin="round" stroke-opacity="0.5647737" stroke-width="0.0"/>
    <path d="M 169.2969970703125 544.5237426757812 C 116.88241577148438 598.8060302734375 210.7049560546875 658.6950073242188 62.1102180480957 671.9228515625 C -72.07292938232422 545.7481689453125 -15.963752746582031 506.3912658691406 -17.908876419067383 470.4441223144531 C 4.893157958984375 467.74310302734375 -28.725181579589844 452.5140380859375 -5.488061428070068 316.1128845214844 C 172.96701049804688 330.70703125 247.49095153808594 344.5749206542969 169.2969970703125 544.5237426757812" fill="rgb(133, 168, 180)" opacity="0.5676655" stroke="rgb(253, 60, 97)" stroke-linecap="round" stroke-linejoin="round" stroke-opacity="0.5251322" stroke-width="0.0"/>
    <path d="M 634.4059448242188 131.4983673095703 C 578.2090454101562 142.49658203125 563.5206298828125 151.17466735839844 581.4049682617188 141.40109252929688 C 577.5517578125 126.00514221191406 577.7310791015625 126.38201141357422 567.0584716796875 164.84657287597656 C 559.8403930664062 121.37438201904297 568.567138671875 110.37259674072266 585.1951293945312 120.07210540771484 C 584.3306274414062 127.75659942626953 599.8104248046875 93.68698120117188 634.4059448242188 131.4983673095703" fill="rgb(134, 169, 179)" opacity="0.8805986" stroke="rgb(77, 35, 218)" stroke-linecap="round" stroke-linejoin="round" stroke-opacity="0.98377246" stroke-width="0.0"/>
    <path d="M 758.8214721679688 804.716064453125 C 273.4385681152344 715.9049072265625 272.582763671875 711.0914306640625 557.595458984375 767.8318481445312 C 381.986328125 792.4586791992188 113.39557647705078 674.7583618164062 168.374755859375 586.95068359375 C 241.20870971679688 534.5177612304688 273.5467529296875 557.5311889648438 374.7221984863281 523.45751953125 C 638.0133056640625 544.5324096679688 773.4711303710938 627.3952026367188 758.8214721679688 804.716064453125" fill="rgb(133, 167, 177)" opacity="0.9711475" stroke="rgb(254, 119, 95)" stroke-linecap="round" stroke-linejoin="round" stroke-opacity="0.6296265" stroke-width="0.0"/>
    <path d="M 206.62986755371094 797.7308349609375 C 107.4439468383789 764.8642578125 106.11406707763672 766.3013916015625 104.44097137451172 783.5800170898438 C 113.0741195678711 766.5908813476562 109.20641326904297 769.3731689453125 89.79610443115234 767.755126953125 C 96.00782775878906 770.0677490234375 74.90119171142578 761.1944580078125 120.51676940917969 730.7744750976562 C 261.390380859375 715.95947265625 306.0749206542969 780.7202758789062 206.62986755371094 797.7308349609375" fill="rgb(132, 166, 176)" opacity="0.90583205" stroke="rgb(56, 95, 224)" stroke-linecap="round" stroke-linejoin="round" stroke-opacity="0.6731263" stroke-width="0.0"/>
    <path d="M 920.5302734375 285.71124267578125 C 736.5377197265625 555.6633911132812 742.8381958007812 532.8595581054688 714.8013305664062 524.8436279296875 C 683.2344970703125 521.1279907226562 698.9890747070312 521.6973266601562 630.4641723632812 510.6985168457031 C 581.7286376953125 486.5688171386719 723.5408325195312 499.9090881347656 697.8905029296875 470.237548828125 C 382.0548095703125 163.74838256835938 666.2461547851562 87.3487777709961 920.5302734375 285.71124267578125" fill="rgb(133, 167, 177)" opacity="0.97375846" stroke="rgb(90, 198, 180)" stroke-linecap="round" stroke-linejoin="round" stroke-opacity="0.02875976" stroke-width="0.0"/>
    <path d="M 346.4962158203125 454.5183410644531 C 352.540771484375 454.2952575683594 350.8581237792969 473.5809020996094 320.3734436035156 491.6383056640625 C 313.4018859863281 491.7449645996094 317.6222229003906 483.8857421875 317.5939025878906 464.6896667480469 C 317.3031921386719 430.5343322753906 318.162109375 402.92974853515625 318.0032043457031 423.3050537109375 C 322.36865234375 443.7786865234375 344.2400817871094 452.4630126953125 346.4962158203125 454.5183410644531" fill="rgb(10, 116, 11)" opacity="0.41663387" stroke="rgb(105, 226, 47)" stroke-linecap="round" stroke-linejoin="round" stroke-opacity="0.5291555" stroke-width="0.0"/>
    <path d="M 715.2084350585938 457.09063720703125 C 730.9053344726562 465.044921875 737.3779296875 461.5417785644531 726.2694702148438 453.98638916015625 C 712.9481811523438 443.30889892578125 728.575439453125 458.9581604003906 710.6001586914062 446.6829528808594 C 717.3302001953125 452.044921875 725.3654174804688 452.2808837890625 736.302734375 439.2536926269531 C 712.593505859375 454.8195495605469 732.5673828125 442.309814453125 715.2084350585938 457.09063720703125" fill="rgb(132, 167, 179)" opacity="0.8656919" stroke="rgb(145, 241, 184)" stroke-linecap="round" stroke-linejoin="round" stroke-opacity="0.038196556" stroke-width="0.0"/>
    <path d="M 525.0256958007812 106.81800079345703 C 524.3558349609375 109.31800079345703 522.5256958007812 111.14812469482422 520.0256958007812 111.81800079345703 C 517.5256958007812 111.14812469482422 515.695556640625 109.31800079345703 515.0256958007812 106.81800079345703 C 515.695556640625 104.31800079345703 517.5256958007812 102.48787689208984 520.0256958007812 101.81800079345703 C 522.5256958007812 102.48787689208984 524.3558349609375 104.31800079345703 525.0256958007812 106.81800079345703" fill="rgb(135, 169, 181)" opacity="1.0" stroke="rgb(181, 50, 94)" stroke-linecap="round" stroke-linejoin="round" stroke-opacity="0.14883813" stroke-width="0.0"/>
  </g>
</svg>
