<?xml version="1.0" ?>
<svg height="768" version="1.1" width="768" xmlns="http://www.w3.org/2000/svg">
  <defs/>
  <g>
    <path d="M 766.820068359375 808.0113525390625 C 305.8843078613281 772.7876586914062 161.3442840576172 713.4049072265625 -42.621829986572266 664.7394409179688 C -3.978804588317871 270.17303466796875 8.31457805633545 339.2752685546875 -3.0726826190948486 -18.85575294494629 C 538.4714965820312 -23.474950790405273 612.673095703125 -16.914928436279297 794.1691284179688 2.3782613277435303 C 788.5914306640625 284.9244079589844 779.7975463867188 338.8821105957031 766.820068359375 808.0113525390625" fill="rgb(127, 163, 170)" opacity="0.9921141" stroke="rgb(12, 77, 72)" stroke-linecap="round" stroke-linejoin="round" stroke-opacity="0.61874783" stroke-width="0.0"/>
    <path d="M 408.502197265625 326.69952392578125 C 543.1336059570312 405.7863464355469 628.03662109375 369.5447692871094 829.6011352539062 643.4293212890625 C 762.3582153320312 665.0350341796875 423.6904602050781 430.4736022949219 167.744873046875 556.9351806640625 C 440.674560546875 220.49075317382812 45.1545524597168 481.75054931640625 120.61348724365234 217.60044860839844 C 264.7764892578125 118.74269104003906 311.6211853027344 325.1463317871094 408.502197265625 326.69952392578125" fill="rgb(12, 92, 42)" opacity="0.76454383" stroke="rgb(142, 239, 62)" stroke-linecap="round" stroke-linejoin="round" stroke-opacity="0.6742211" stroke-width="0.0"/>
    <path d="M 189.07473754882812 226.88197326660156 C 187.8761749267578 234.11741638183594 185.3885955810547 233.64810180664062 182.73965454101562 234.79261779785156 C 178.94769287109375 235.6402130126953 178.238525390625 232.816650390625 178.5874786376953 230.93226623535156 C 178.32952880859375 228.8753204345703 184.03732299804688 225.94920349121094 185.34442138671875 226.6840362548828 C 180.7284698486328 226.23101806640625 188.91299438476562 224.96331787109375 189.07473754882812 226.88197326660156" fill="rgb(0, 0, 1)" opacity="1.0" stroke="rgb(108, 227, 103)" stroke-linecap="round" stroke-linejoin="round" stroke-opacity="0.5134671" stroke-width="0.0"/>
    <path d="M 310.20684814453125 536.9913940429688 C 279.7872009277344 560.9400634765625 348.6189880371094 496.6344909667969 210.99497985839844 535.6708374023438 C 209.34405517578125 556.3897705078125 122.0925521850586 648.679931640625 158.71240234375 568.7962036132812 C 260.9278564453125 451.5827941894531 149.09671020507812 550.6264038085938 188.777099609375 499.32122802734375 C 194.80813598632812 494.1377258300781 333.4019775390625 482.2325439453125 310.20684814453125 536.9913940429688" fill="rgb(18, 15, 16)" opacity="1.0" stroke="rgb(4, 45, 250)" stroke-linecap="round" stroke-linejoin="round" stroke-opacity="0.9083855" stroke-width="0.0"/>
    <path d="M 695.5652465820312 485.2198181152344 C 762.6058959960938 567.3929443359375 796.6423950195312 520.2474365234375 474.9971618652344 496.4071350097656 C 264.403564453125 478.6477966308594 346.8796081542969 500.653564453125 350.817626953125 456.6447448730469 C 405.8202209472656 476.5204772949219 385.9330139160156 469.3724365234375 446.955322265625 478.24859619140625 C 521.2085571289062 482.7626037597656 510.6156311035156 486.7403259277344 695.5652465820312 485.2198181152344" fill="rgb(174, 155, 150)" opacity="0.8316585" stroke="rgb(18, 228, 169)" stroke-linecap="round" stroke-linejoin="round" stroke-opacity="0.1384647" stroke-width="0.0"/>
    <path d="M 367.5786437988281 767.3767700195312 C 128.74618530273438 795.0739135742188 118.65943908691406 783.0560302734375 11.796472549438477 777.82763671875 C -11.87857723236084 786.9454345703125 -15.19631576538086 788.1581420898438 -11.83383560180664 659.4680786132812 C -2.3488070964813232 645.9661865234375 7.438900947570801 646.7280883789062 59.30335235595703 651.8082275390625 C 178.7662811279297 621.3594360351562 261.5278015136719 517.8181762695312 367.5786437988281 767.3767700195312" fill="rgb(133, 167, 178)" opacity="1.0" stroke="rgb(159, 206, 116)" stroke-linecap="round" stroke-linejoin="round" stroke-opacity="0.08451085" stroke-width="0.0"/>
    <path d="M 254.45420837402344 348.6708679199219 C 338.22735595703125 431.40679931640625 312.4002990722656 328.1414794921875 318.5045166015625 507.84063720703125 C 120.23265838623047 472.90814208984375 316.78192138671875 488.3143005371094 207.03587341308594 410.8458557128906 C 140.79681396484375 254.40618896484375 242.63699340820312 367.9365539550781 154.74786376953125 214.86827087402344 C 270.01129150390625 206.9263153076172 188.9539337158203 281.5262451171875 254.45420837402344 348.6708679199219" fill="rgb(214, 140, 82)" opacity="1.0" stroke="rgb(0, 105, 147)" stroke-linecap="round" stroke-linejoin="round" stroke-opacity="0.3611284" stroke-width="0.0"/>
    <path d="M 144.0 266.0 C 143.3301239013672 268.5 141.5 270.33013916015625 139.0 271.0 C 136.5 270.33013916015625 134.6698760986328 268.5 134.0 266.0 C 134.6698760986328 263.5 136.5 261.66986083984375 139.0 261.0 C 141.5 261.66986083984375 143.3301239013672 263.5 144.0 266.0" fill="rgb(10, 8, 11)" opacity="1.0" stroke="rgb(123, 164, 252)" stroke-linecap="round" stroke-linejoin="round" stroke-opacity="0.8283837" stroke-width="0.0"/>
  </g>
</svg>
