<?xml version="1.0" ?>
<svg height="768" version="1.1" width="768" xmlns="http://www.w3.org/2000/svg">
  <defs/>
  <g>
    <path d="M 766.820068359375 808.0113525390625 C 305.8843078613281 772.7876586914062 161.3442840576172 713.4049072265625 -42.621829986572266 664.7394409179688 C -3.9817862510681152 270.17303466796875 8.310309410095215 339.2752685546875 -3.075618028640747 -18.85575294494629 C 538.4714965820312 -23.474950790405273 612.673095703125 -16.914928436279297 794.1691284179688 2.3782613277435303 C 788.5914306640625 284.9244079589844 779.7975463867188 338.8821105957031 766.820068359375 808.0113525390625" fill="rgb(127, 163, 171)" opacity="0.9892887" stroke="rgb(12, 77, 72)" stroke-linecap="round" stroke-linejoin="round" stroke-opacity="0.61874783" stroke-width="0.0"/>
    <path d="M 407.3262634277344 326.2816162109375 C 543.647705078125 405.3998107910156 629.6909790039062 370.1343994140625 830.9578857421875 644.1178588867188 C 764.10791015625 665.3330688476562 425.91644287109375 432.7247314453125 169.0586395263672 554.9150390625 C 444.1147155761719 222.63351440429688 47.76529312133789 479.3665466308594 124.71452331542969 215.15106201171875 C 263.97857666015625 121.40001678466797 313.496826171875 325.2541809082031 407.3262634277344 326.2816162109375" fill="rgb(11, 97, 46)" opacity="0.75651467" stroke="rgb(142, 239, 62)" stroke-linecap="round" stroke-linejoin="round" stroke-opacity="0.6742211" stroke-width="0.0"/>
    <path d="M 189.08042907714844 226.8799591064453 C 187.87722778320312 234.1179656982422 185.38894653320312 233.64810180664062 182.73965454101562 234.79261779785156 C 178.94769287109375 235.6402130126953 178.238525390625 232.816650390625 178.5872344970703 230.93153381347656 C 178.3285369873047 228.87416076660156 184.03623962402344 225.94752502441406 185.34214782714844 226.67935180664062 C 180.7220001220703 226.22409057617188 188.91236877441406 224.9595947265625 189.08042907714844 226.8799591064453" fill="rgb(0, 0, 1)" opacity="1.0" stroke="rgb(108, 227, 103)" stroke-linecap="round" stroke-linejoin="round" stroke-opacity="0.5134671" stroke-width="0.0"/>
    <path d="M 310.3851013183594 536.7870483398438 C 279.35955810546875 561.1463012695312 348.9859924316406 497.02874755859375 211.90623474121094 535.3511352539062 C 208.51657104492188 555.8795776367188 122.01146697998047 649.2735595703125 158.84991455078125 568.3005981445312 C 261.89312744140625 453.16375732421875 149.69000244140625 548.767578125 188.9399871826172 499.0765380859375 C 194.87701416015625 494.404052734375 332.8883056640625 481.83905029296875 310.3851013183594 536.7870483398438" fill="rgb(17, 14, 16)" opacity="1.0" stroke="rgb(4, 45, 250)" stroke-linecap="round" stroke-linejoin="round" stroke-opacity="0.9083855" stroke-width="0.0"/>
    <path d="M 696.891845703125 485.3363342285156 C 763.1847534179688 567.7500610351562 801.016845703125 520.7758178710938 474.0917663574219 496.2537841796875 C 265.0005187988281 478.7931823730469 346.81976318359375 500.46923828125 350.8360595703125 456.8243103027344 C 406.09912109375 475.6183776855469 381.1624450683594 470.1274108886719 446.564208984375 478.7445373535156 C 528.5867309570312 484.9695739746094 513.2191772460938 485.9885559082031 696.891845703125 485.3363342285156" fill="rgb(145, 172, 179)" opacity="0.90179694" stroke="rgb(18, 228, 169)" stroke-linecap="round" stroke-linejoin="round" stroke-opacity="0.1384647" stroke-width="0.0"/>
    <path d="M 367.9647521972656 767.4453125 C 128.74644470214844 795.0968627929688 118.65943908691406 783.0560302734375 11.796472549438477 777.82763671875 C -11.87857723236084 786.9454345703125 -15.19631576538086 788.1581420898438 -11.842219352722168 658.1759643554688 C -2.4567434787750244 644.1454467773438 7.418712139129639 644.7808837890625 59.211971282958984 650.5400390625 C 178.89984130859375 621.166259765625 261.7273254394531 516.9124755859375 367.9647521972656 767.4453125" fill="rgb(133, 167, 178)" opacity="1.0" stroke="rgb(159, 206, 116)" stroke-linecap="round" stroke-linejoin="round" stroke-opacity="0.08451085" stroke-width="0.0"/>
    <path d="M 253.5773162841797 347.66900634765625 C 337.92498779296875 432.64935302734375 312.67425537109375 326.7381896972656 318.4477844238281 508.3457946777344 C 122.54898071289062 470.42242431640625 314.21343994140625 492.5787658691406 214.86952209472656 417.4200134277344 C 127.92072296142578 282.7132568359375 247.86135864257812 339.9825134277344 146.0619354248047 218.2209014892578 C 270.3432922363281 199.0229034423828 189.734619140625 284.4412536621094 253.5773162841797 347.66900634765625" fill="rgb(229, 136, 68)" opacity="0.99749166" stroke="rgb(0, 105, 147)" stroke-linecap="round" stroke-linejoin="round" stroke-opacity="0.3611284" stroke-width="0.0"/>
    <path d="M 176.3302001953125 257.174560546875 C 165.093994140625 246.36004638671875 103.20292663574219 311.59442138671875 164.49375915527344 344.314453125 C 125.24249267578125 344.46209716796875 109.32649230957031 309.0142517089844 112.5666732788086 274.2662353515625 C 116.41888427734375 242.0276641845703 135.1985626220703 219.4324493408203 157.40548706054688 216.3827362060547 C 169.2032012939453 230.13375854492188 159.3864288330078 243.82699584960938 176.3302001953125 257.174560546875" fill="rgb(10, 10, 11)" opacity="1.0" stroke="rgb(123, 164, 252)" stroke-linecap="round" stroke-linejoin="round" stroke-opacity="0.8283837" stroke-width="0.0"/>
    <path d="M 601.2666625976562 485.3370361328125 C 543.11083984375 492.5623779296875 518.9183959960938 498.48236083984375 483.59808349609375 493.6384582519531 C 465.5721740722656 494.4525146484375 411.0462341308594 488.875 383.9079895019531 469.4479675292969 C 389.4056701660156 468.6142272949219 408.43426513671875 475.3244934082031 479.92132568359375 480.50555419921875 C 477.4422912597656 479.59466552734375 541.7840576171875 486.6119384765625 601.2666625976562 485.3370361328125" fill="rgb(225, 80, 19)" opacity="0.834883" stroke="rgb(129, 124, 169)" stroke-linecap="round" stroke-linejoin="round" stroke-opacity="0.75878716" stroke-width="0.0"/>
    <path d="M 192.71849060058594 278.8132019042969 C 189.50970458984375 323.87786865234375 192.63333129882812 310.53900146484375 181.3741455078125 312.7602233886719 C 143.88941955566406 316.2590026855469 158.2211456298828 307.7616882324219 129.365234375 305.0388488769531 C 164.33900451660156 274.72088623046875 134.88092041015625 293.99029541015625 162.69143676757812 263.1750793457031 C 170.45562744140625 261.8287048339844 192.98715209960938 272.9129943847656 192.71849060058594 278.8132019042969" fill="rgb(6, 0, 5)" opacity="0.93484133" stroke="rgb(90, 232, 236)" stroke-linecap="round" stroke-linejoin="round" stroke-opacity="0.40865332" stroke-width="0.0"/>
    <path d="M 188.4795379638672 344.6761169433594 C 187.13990783691406 381.2532958984375 207.88648986816406 393.8321533203125 175.74639892578125 364.099853515625 C 158.18960571289062 339.7454833984375 157.92654418945312 348.0413818359375 137.6818084716797 315.10931396484375 C 131.8413543701172 297.38433837890625 135.84805297851562 309.01470947265625 159.8882598876953 313.1668395996094 C 201.46315002441406 317.61566162109375 187.3096923828125 297.1408386230469 188.4795379638672 344.6761169433594" fill="rgb(134, 168, 178)" opacity="0.9903636" stroke="rgb(120, 37, 112)" stroke-linecap="round" stroke-linejoin="round" stroke-opacity="0.62810665" stroke-width="0.0"/>
    <path d="M 678.94677734375 459.1177062988281 C 662.4072265625 465.1615905761719 649.7489624023438 459.2740783691406 608.2398071289062 455.35870361328125 C 581.6011352539062 451.91339111328125 554.7252807617188 448.678466796875 520.3667602539062 446.9263000488281 C 588.9344482421875 438.6016540527344 618.3225708007812 438.07855224609375 619.3585205078125 428.3752136230469 C 638.4246215820312 384.2217712402344 676.9450073242188 377.84271240234375 678.94677734375 459.1177062988281" fill="rgb(133, 169, 177)" opacity="0.9414126" stroke="rgb(114, 52, 147)" stroke-linecap="round" stroke-linejoin="round" stroke-opacity="0.060832683" stroke-width="0.0"/>
    <path d="M 253.425537109375 492.6977233886719 C 256.0423583984375 492.4945983886719 256.22308349609375 494.6595764160156 239.4098358154297 494.2884826660156 C 197.49148559570312 494.07061767578125 196.9545135498047 500.924072265625 187.60003662109375 471.5784606933594 C 202.8161163330078 459.178955078125 162.41140747070312 420.22540283203125 238.08702087402344 437.46868896484375 C 254.06248474121094 450.48492431640625 246.20065307617188 429.22894287109375 253.425537109375 492.6977233886719" fill="rgb(131, 167, 178)" opacity="0.9874172" stroke="rgb(236, 81, 72)" stroke-linecap="round" stroke-linejoin="round" stroke-opacity="0.22636518" stroke-width="0.0"/>
    <path d="M 778.2579345703125 543.6473388671875 C 788.0613403320312 561.7599487304688 784.4290161132812 565.6912231445312 771.9329223632812 618.9736328125 C 697.4940185546875 632.7680053710938 608.9412841796875 555.6536254882812 409.9693908691406 492.8205261230469 C 690.8710327148438 511.2947692871094 769.927978515625 542.4501342773438 755.114013671875 535.8646240234375 C 769.7807006835938 542.343505859375 771.36572265625 537.6902465820312 778.2579345703125 543.6473388671875" fill="rgb(17, 110, 78)" opacity="0.90815324" stroke="rgb(203, 237, 151)" stroke-linecap="round" stroke-linejoin="round" stroke-opacity="0.023405533" stroke-width="0.0"/>
    <path d="M 206.5783233642578 255.69378662109375 C 187.84486389160156 215.98023986816406 220.36570739746094 238.71424865722656 193.2222137451172 269.65155029296875 C 151.39710998535156 237.3995361328125 166.6406707763672 210.10023498535156 186.19979858398438 247.75538635253906 C 199.53526306152344 195.16259765625 168.9713897705078 256.22344970703125 163.0797119140625 215.9441680908203 C 219.1263885498047 201.70343017578125 242.74053955078125 268.7129211425781 206.5783233642578 255.69378662109375" fill="rgb(245, 255, 233)" opacity="0.92330015" stroke="rgb(169, 187, 192)" stroke-linecap="round" stroke-linejoin="round" stroke-opacity="0.68430656" stroke-width="0.0"/>
    <path d="M 210.34938049316406 247.74684143066406 C 177.8662872314453 253.2764434814453 226.97291564941406 246.69944763183594 210.09375 256.0589904785156 C 194.2198028564453 255.81549072265625 203.91513061523438 260.11041259765625 198.32432556152344 244.99681091308594 C 182.9180908203125 237.0888671875 223.65110778808594 231.53843688964844 200.14443969726562 243.10592651367188 C 202.41702270507812 245.4588623046875 215.28472900390625 239.76959228515625 210.34938049316406 247.74684143066406" fill="rgb(1, 3, 4)" opacity="0.9319335" stroke="rgb(156, 238, 232)" stroke-linecap="round" stroke-linejoin="round" stroke-opacity="0.48303482" stroke-width="0.0"/>
    <path d="M 698.5477294921875 481.52362060546875 C 699.2380981445312 471.0604248046875 699.2599487304688 486.9501037597656 690.84619140625 483.2868957519531 C 434.5783386230469 486.7665710449219 289.41387939453125 473.5289611816406 321.9230651855469 396.1712646484375 C 513.9317016601562 473.6517639160156 596.2159423828125 437.69769287109375 635.4308471679688 467.33819580078125 C 687.82080078125 456.9031677246094 703.3948974609375 468.9372253417969 698.5477294921875 481.52362060546875" fill="rgb(15, 85, 46)" opacity="0.8343893" stroke="rgb(225, 215, 138)" stroke-linecap="round" stroke-linejoin="round" stroke-opacity="0.46836582" stroke-width="0.0"/>
    <path d="M 157.42575073242188 266.3630065917969 C 136.5498504638672 288.5115966796875 159.43634033203125 277.2595520019531 132.3968963623047 298.3966064453125 C 145.27249145507812 299.018798828125 151.284912109375 274.8310241699219 151.76004028320312 274.7380676269531 C 163.35113525390625 268.76409912109375 153.92713928222656 249.35618591308594 195.0096435546875 276.83245849609375 C 181.9534454345703 259.07757568359375 156.56747436523438 255.16390991210938 157.42575073242188 266.3630065917969" fill="rgb(218, 221, 232)" opacity="0.950388" stroke="rgb(241, 24, 224)" stroke-linecap="round" stroke-linejoin="round" stroke-opacity="0.9624787" stroke-width="0.0"/>
    <path d="M 545.2896118164062 547.0208740234375 C 397.1734313964844 519.5657958984375 353.70001220703125 524.8584594726562 392.5445556640625 523.7609252929688 C 367.52801513671875 524.0465698242188 382.4936218261719 522.5852661132812 320.1867370605469 520.5339965820312 C 317.4893798828125 469.97808837890625 330.60150146484375 491.5282287597656 436.0323791503906 494.31878662109375 C 457.8578796386719 502.2532043457031 555.3019409179688 484.85882568359375 545.2896118164062 547.0208740234375" fill="rgb(16, 106, 74)" opacity="0.86951154" stroke="rgb(91, 46, 159)" stroke-linecap="round" stroke-linejoin="round" stroke-opacity="0.64249396" stroke-width="0.0"/>
    <path d="M 652.2537231445312 31.089046478271484 C 587.5550537109375 500.0489196777344 451.7564697265625 193.66102600097656 137.77017211914062 188.43209838867188 C 65.59347534179688 459.1615905761719 -59.04853439331055 458.1326904296875 -32.898067474365234 -8.0546236038208 C 222.48052978515625 26.666473388671875 239.4545440673828 40.78706359863281 26.786968231201172 0.0483955554664135 C 171.3258056640625 -34.10199737548828 338.20623779296875 -98.35095977783203 652.2537231445312 31.089046478271484" fill="rgb(133, 167, 178)" opacity="0.8616801" stroke="rgb(97, 216, 91)" stroke-linecap="round" stroke-linejoin="round" stroke-opacity="0.16990633" stroke-width="0.0"/>
    <path d="M 477.8359680175781 358.3390808105469 C 673.3292846679688 442.6986083984375 504.67962646484375 496.6741943359375 277.8634033203125 370.5834655761719 C 255.03704833984375 353.7183532714844 255.13795471191406 352.0223083496094 232.77542114257812 315.9273986816406 C 206.77308654785156 253.9204559326172 250.811767578125 264.1332092285156 186.0723419189453 189.109619140625 C 351.30438232421875 221.8932342529297 204.65762329101562 262.7773132324219 477.8359680175781 358.3390808105469" fill="rgb(0, 133, 33)" opacity="0.38841137" stroke="rgb(133, 2, 66)" stroke-linecap="round" stroke-linejoin="round" stroke-opacity="0.031605467" stroke-width="0.0"/>
    <path d="M 531.9459228515625 12.905680656433105 C 521.421630859375 -4.842863082885742 519.1404418945312 -3.3601369857788086 523.2915649414062 16.504867553710938 C 529.7391967773438 -0.7435749173164368 526.84130859375 -3.3176703453063965 514.04931640625 6.022290229797363 C 518.2919311523438 -2.8803536891937256 521.7160034179688 -3.605900526046753 525.0715942382812 -3.985013723373413 C 529.6680908203125 -4.143503189086914 535.530029296875 -3.6792168617248535 531.9459228515625 12.905680656433105" fill="rgb(134, 167, 177)" opacity="0.89878714" stroke="rgb(195, 229, 134)" stroke-linecap="round" stroke-linejoin="round" stroke-opacity="0.19052486" stroke-width="0.0"/>
    <path d="M 236.97979736328125 256.6687927246094 C 236.30992126464844 259.1687927246094 234.47979736328125 260.9989318847656 231.97979736328125 261.6687927246094 C 229.47979736328125 260.9989318847656 227.64967346191406 259.1687927246094 226.97979736328125 256.6687927246094 C 227.64967346191406 254.16879272460938 229.47979736328125 252.3386688232422 231.97979736328125 251.66879272460938 C 234.47979736328125 252.3386688232422 236.30992126464844 254.16879272460938 236.97979736328125 256.6687927246094" fill="rgb(24, 119, 54)" opacity="1.0" stroke="rgb(220, 171, 170)" stroke-linecap="round" stroke-linejoin="round" stroke-opacity="0.5647737" stroke-width="0.0"/>
  </g>
</svg>
