<?xml version="1.0" ?>
<svg height="768" version="1.1" width="768" xmlns="http://www.w3.org/2000/svg">
  <defs/>
  <g>
    <path d="M 766.820068359375 808.0113525390625 C 305.8843078613281 772.7876586914062 161.3442840576172 713.4049072265625 -42.621829986572266 664.7394409179688 C -3.981743335723877 270.17303466796875 8.310309410095215 339.2752685546875 -3.075580596923828 -18.85575294494629 C 538.4714965820312 -23.474950790405273 612.673095703125 -16.914928436279297 794.1691284179688 2.3782613277435303 C 788.5914306640625 284.9244079589844 779.7975463867188 338.8821105957031 766.820068359375 808.0113525390625" fill="rgb(127, 163, 171)" opacity="0.98917556" stroke="rgb(12, 77, 72)" stroke-linecap="round" stroke-linejoin="round" stroke-opacity="0.61874783" stroke-width="0.0"/>
    <path d="M 407.33648681640625 326.2803649902344 C 543.6257934570312 405.4226989746094 629.66845703125 370.1598815917969 830.9358520507812 644.1476440429688 C 764.0889892578125 665.345458984375 425.8880920410156 432.7207336425781 169.10446166992188 554.9520874023438 C 444.1141662597656 222.6412353515625 47.75091552734375 479.36004638671875 124.69214630126953 215.16566467285156 C 263.9783935546875 121.37682342529297 313.4862365722656 325.2530517578125 407.33648681640625 326.2803649902344" fill="rgb(11, 97, 46)" opacity="0.75619495" stroke="rgb(142, 239, 62)" stroke-linecap="round" stroke-linejoin="round" stroke-opacity="0.6742211" stroke-width="0.0"/>
    <path d="M 189.07473754882812 226.88197326660156 C 187.8761749267578 234.11741638183594 185.3885955810547 233.64810180664062 182.73965454101562 234.79261779785156 C 178.94769287109375 235.6402130126953 178.238525390625 232.816650390625 178.5874786376953 230.93226623535156 C 178.32952880859375 228.8753204345703 184.03732299804688 225.94920349121094 185.34442138671875 226.6840362548828 C 180.7284698486328 226.23101806640625 188.91299438476562 224.96331787109375 189.07473754882812 226.88197326660156" fill="rgb(0, 0, 1)" opacity="1.0" stroke="rgb(108, 227, 103)" stroke-linecap="round" stroke-linejoin="round" stroke-opacity="0.5134671" stroke-width="0.0"/>
    <path d="M 310.3883361816406 536.794921875 C 279.3568115234375 561.1439208984375 348.98126220703125 497.02880859375 211.90016174316406 535.3536376953125 C 208.52418518066406 555.885009765625 122.01318359375 649.2748413085938 158.8473358154297 568.3016967773438 C 261.900634765625 453.1638488769531 149.70281982421875 548.76806640625 188.92239379882812 499.0867614746094 C 194.87283325195312 494.5644226074219 332.90380859375 482.01495361328125 310.3883361816406 536.794921875" fill="rgb(17, 14, 16)" opacity="1.0" stroke="rgb(4, 45, 250)" stroke-linecap="round" stroke-linejoin="round" stroke-opacity="0.9083855" stroke-width="0.0"/>
    <path d="M 696.8099975585938 485.3381042480469 C 763.1652221679688 567.69921875 800.9808349609375 520.7469482421875 474.107421875 496.25335693359375 C 264.99737548828125 478.7909240722656 346.8216857910156 500.4726867675781 350.8348083496094 456.8238830566406 C 406.0904846191406 475.618896484375 381.2019958496094 470.1244201660156 446.5643615722656 478.7406005859375 C 528.4712524414062 484.9673156738281 513.2327270507812 486.0001220703125 696.8099975585938 485.3381042480469" fill="rgb(145, 172, 179)" opacity="0.90052867" stroke="rgb(18, 228, 169)" stroke-linecap="round" stroke-linejoin="round" stroke-opacity="0.1384647" stroke-width="0.0"/>
    <path d="M 367.9647521972656 767.44482421875 C 128.74644470214844 795.0968627929688 118.65943908691406 783.0560302734375 11.796472549438477 777.82763671875 C -11.87857723236084 786.9454345703125 -15.19631576538086 788.1581420898438 -11.842219352722168 658.2060546875 C -2.4531989097595215 644.1970825195312 7.419394016265869 644.8342895507812 59.21357345581055 650.567626953125 C 178.89984130859375 621.166259765625 261.7273254394531 516.9124755859375 367.9647521972656 767.44482421875" fill="rgb(133, 167, 178)" opacity="1.0" stroke="rgb(159, 206, 116)" stroke-linecap="round" stroke-linejoin="round" stroke-opacity="0.08451085" stroke-width="0.0"/>
    <path d="M 253.4110565185547 347.5881042480469 C 337.9742431640625 432.5984802246094 312.6601867675781 326.7394104003906 318.4472351074219 508.25543212890625 C 122.68733978271484 471.1058349609375 315.7395324707031 490.0940856933594 214.40626525878906 417.2994689941406 C 128.67628479003906 281.1488037109375 247.482177734375 339.94293212890625 145.8461456298828 217.5899200439453 C 271.02117919921875 198.0878448486328 189.9111785888672 284.1920166015625 253.4110565185547 347.5881042480469" fill="rgb(225, 141, 77)" opacity="1.0" stroke="rgb(0, 105, 147)" stroke-linecap="round" stroke-linejoin="round" stroke-opacity="0.3611284" stroke-width="0.0"/>
    <path d="M 175.9872283935547 256.8348388671875 C 165.85231018066406 246.60777282714844 102.92559051513672 309.83905029296875 163.84542846679688 344.32647705078125 C 125.26110076904297 344.1385803222656 109.28846740722656 309.03216552734375 112.57841491699219 274.1231384277344 C 116.3348159790039 242.6573028564453 135.24075317382812 219.1317596435547 157.21517944335938 215.9568634033203 C 169.0775604248047 229.9931182861328 159.60675048828125 243.98402404785156 175.9872283935547 256.8348388671875" fill="rgb(10, 11, 12)" opacity="1.0" stroke="rgb(123, 164, 252)" stroke-linecap="round" stroke-linejoin="round" stroke-opacity="0.8283837" stroke-width="0.0"/>
    <path d="M 601.2677001953125 485.3004455566406 C 544.517578125 492.3656005859375 518.8132934570312 498.56292724609375 483.85955810546875 493.63714599609375 C 465.8745422363281 494.4969787597656 411.0756530761719 488.890625 383.8397521972656 469.4432678222656 C 389.69293212890625 468.6012878417969 409.2441101074219 475.4085998535156 479.8775634765625 480.4756774902344 C 477.8079833984375 479.6383972167969 541.3165893554688 486.5501403808594 601.2677001953125 485.3004455566406" fill="rgb(224, 80, 19)" opacity="0.8323002" stroke="rgb(129, 124, 169)" stroke-linecap="round" stroke-linejoin="round" stroke-opacity="0.75878716" stroke-width="0.0"/>
    <path d="M 192.6830291748047 278.6235656738281 C 189.5012969970703 323.73553466796875 192.68621826171875 310.52130126953125 181.5240478515625 312.7449035644531 C 143.9027862548828 316.3041076660156 157.9937744140625 307.57470703125 129.626220703125 305.23504638671875 C 164.38099670410156 275.002197265625 135.0828857421875 294.21221923828125 162.93426513671875 263.2790222167969 C 170.33177185058594 262.0022277832031 192.5096893310547 273.0007629394531 192.6830291748047 278.6235656738281" fill="rgb(6, 0, 5)" opacity="0.93562317" stroke="rgb(90, 232, 236)" stroke-linecap="round" stroke-linejoin="round" stroke-opacity="0.40865332" stroke-width="0.0"/>
    <path d="M 188.41146850585938 344.5344543457031 C 187.20164489746094 379.6474609375 205.93988037109375 390.0169982910156 176.0186767578125 364.2577819824219 C 158.87376403808594 340.9342041015625 156.81094360351562 346.60687255859375 137.71871948242188 315.0857849121094 C 131.59722900390625 296.9698181152344 136.29869079589844 309.35211181640625 160.5572052001953 313.2752685546875 C 201.50732421875 317.2087707519531 187.22463989257812 297.5895690917969 188.41146850585938 344.5344543457031" fill="rgb(134, 168, 178)" opacity="0.9913686" stroke="rgb(120, 37, 112)" stroke-linecap="round" stroke-linejoin="round" stroke-opacity="0.62810665" stroke-width="0.0"/>
    <path d="M 674.3494873046875 460.2257385253906 C 661.1874389648438 464.2992248535156 647.348876953125 459.1915588378906 608.3508911132812 455.2288818359375 C 579.62060546875 451.5608215332031 556.6179809570312 448.894775390625 521.4640502929688 446.8830261230469 C 581.132568359375 439.0477294921875 624.9846801757812 438.9805908203125 619.2648315429688 425.5950012207031 C 648.7481079101562 403.2887268066406 664.4168701171875 396.0545349121094 674.3494873046875 460.2257385253906" fill="rgb(132, 168, 176)" opacity="0.94525206" stroke="rgb(114, 52, 147)" stroke-linecap="round" stroke-linejoin="round" stroke-opacity="0.060832683" stroke-width="0.0"/>
    <path d="M 245.0 476.0 C 244.3301239013672 478.5 242.5 480.33013916015625 240.0 481.0 C 237.5 480.33013916015625 235.6698760986328 478.5 235.0 476.0 C 235.6698760986328 473.5 237.5 471.66986083984375 240.0 471.0 C 242.5 471.66986083984375 244.3301239013672 473.5 245.0 476.0" fill="rgb(134, 168, 179)" opacity="1.0" stroke="rgb(236, 81, 72)" stroke-linecap="round" stroke-linejoin="round" stroke-opacity="0.22636518" stroke-width="0.0"/>
  </g>
</svg>
