<?xml version="1.0" ?>
<svg height="768" version="1.1" width="768" xmlns="http://www.w3.org/2000/svg">
  <defs/>
  <g>
    <path d="M 766.820068359375 808.0113525390625 C 305.8843078613281 772.7876586914062 161.3442840576172 713.4049072265625 -42.621829986572266 664.7394409179688 C -3.981785535812378 270.17303466796875 8.310309410095215 339.2752685546875 -3.0756165981292725 -18.85575294494629 C 538.4714965820312 -23.474950790405273 612.673095703125 -16.914928436279297 794.1691284179688 2.3782613277435303 C 788.5914306640625 284.9244079589844 779.7975463867188 338.8821105957031 766.820068359375 808.0113525390625" fill="rgb(127, 163, 171)" opacity="0.9892887" stroke="rgb(12, 77, 72)" stroke-linecap="round" stroke-linejoin="round" stroke-opacity="0.61874783" stroke-width="0.0"/>
    <path d="M 407.3262634277344 326.2816162109375 C 543.647705078125 405.3998107910156 629.6909790039062 370.1343994140625 830.9578857421875 644.1178588867188 C 764.10791015625 665.3330688476562 425.91644287109375 432.7247314453125 169.05934143066406 554.9150390625 C 444.1147155761719 222.63351440429688 47.763065338134766 479.3665466308594 124.71173858642578 215.15106201171875 C 263.97857666015625 121.39728546142578 313.496826171875 325.2541809082031 407.3262634277344 326.2816162109375" fill="rgb(11, 97, 46)" opacity="0.7564909" stroke="rgb(142, 239, 62)" stroke-linecap="round" stroke-linejoin="round" stroke-opacity="0.6742211" stroke-width="0.0"/>
    <path d="M 189.07473754882812 226.88197326660156 C 187.8761749267578 234.11741638183594 185.3885955810547 233.64810180664062 182.73965454101562 234.79261779785156 C 178.94769287109375 235.6402130126953 178.238525390625 232.816650390625 178.5874786376953 230.93226623535156 C 178.32952880859375 228.8753204345703 184.03732299804688 225.94920349121094 185.34442138671875 226.6840362548828 C 180.7284698486328 226.23101806640625 188.91299438476562 224.96331787109375 189.07473754882812 226.88197326660156" fill="rgb(0, 0, 1)" opacity="1.0" stroke="rgb(108, 227, 103)" stroke-linecap="round" stroke-linejoin="round" stroke-opacity="0.5134671" stroke-width="0.0"/>
    <path d="M 310.3851318359375 536.7870483398438 C 279.35894775390625 561.1463012695312 348.9852600097656 497.0284423828125 211.90565490722656 535.3511352539062 C 208.51727294921875 555.8795776367188 122.01161193847656 649.2735595703125 158.84967041015625 568.3005981445312 C 261.8940124511719 453.1639404296875 149.69252014160156 548.767578125 188.93936157226562 499.0751037597656 C 194.8717498779297 494.41571044921875 332.8912048339844 481.8539123535156 310.3851318359375 536.7870483398438" fill="rgb(17, 14, 16)" opacity="1.0" stroke="rgb(4, 45, 250)" stroke-linecap="round" stroke-linejoin="round" stroke-opacity="0.9083855" stroke-width="0.0"/>
    <path d="M 696.8876342773438 485.3367919921875 C 763.1908569335938 567.737060546875 801.0193481445312 520.7704467773438 474.0908508300781 496.2561340332031 C 265.00006103515625 478.7926940917969 346.82037353515625 500.4693908691406 350.8354797363281 456.8238525390625 C 406.098876953125 475.61761474609375 381.1672668457031 470.126953125 446.564208984375 478.7445068359375 C 528.5751953125 484.96905517578125 513.2191772460938 485.9904479980469 696.8876342773438 485.3367919921875" fill="rgb(145, 172, 179)" opacity="0.90152514" stroke="rgb(18, 228, 169)" stroke-linecap="round" stroke-linejoin="round" stroke-opacity="0.1384647" stroke-width="0.0"/>
    <path d="M 367.9647521972656 767.4453125 C 128.74644470214844 795.0968627929688 118.65943908691406 783.0560302734375 11.796472549438477 777.82763671875 C -11.87857723236084 786.9454345703125 -15.19631576538086 788.1581420898438 -11.842219352722168 658.1759643554688 C -2.4558708667755127 644.1454467773438 7.418745040893555 644.7808837890625 59.211971282958984 650.5400390625 C 178.89984130859375 621.166259765625 261.7273254394531 516.9124755859375 367.9647521972656 767.4453125" fill="rgb(133, 167, 178)" opacity="1.0" stroke="rgb(159, 206, 116)" stroke-linecap="round" stroke-linejoin="round" stroke-opacity="0.08451085" stroke-width="0.0"/>
    <path d="M 253.4166717529297 347.6181640625 C 337.9430236816406 432.6368408203125 312.6581115722656 326.7640380859375 318.4350891113281 508.29827880859375 C 122.58533477783203 470.5484313964844 314.478515625 492.23077392578125 214.8262939453125 417.4581604003906 C 128.07005310058594 282.4667053222656 247.5421142578125 340.2894287109375 146.0259246826172 217.569091796875 C 270.87860107421875 198.34613037109375 189.92776489257812 284.1255187988281 253.4166717529297 347.6181640625" fill="rgb(231, 138, 70)" opacity="1.0" stroke="rgb(0, 105, 147)" stroke-linecap="round" stroke-linejoin="round" stroke-opacity="0.3611284" stroke-width="0.0"/>
    <path d="M 176.1306915283203 257.0228576660156 C 165.16453552246094 246.2906951904297 103.04978942871094 311.2081298828125 164.3427734375 344.3085021972656 C 125.23870086669922 344.415771484375 109.31783294677734 309.0259094238281 112.56034088134766 274.22064208984375 C 116.39366149902344 242.28948974609375 135.35643005371094 219.23663330078125 157.2258758544922 215.87188720703125 C 169.21485900878906 230.15603637695312 159.49908447265625 243.8606414794922 176.1306915283203 257.0228576660156" fill="rgb(10, 11, 12)" opacity="1.0" stroke="rgb(123, 164, 252)" stroke-linecap="round" stroke-linejoin="round" stroke-opacity="0.8283837" stroke-width="0.0"/>
    <path d="M 601.2685546875 485.3394470214844 C 543.3782348632812 492.5328674316406 518.8883056640625 498.5078430175781 483.6365966796875 493.6490173339844 C 465.6098937988281 494.46533203125 411.04510498046875 488.8900146484375 383.9140319824219 469.4541931152344 C 389.4693603515625 468.603759765625 408.59259033203125 475.3169250488281 479.92633056640625 480.48748779296875 C 477.48895263671875 479.61383056640625 541.69921875 486.59136962890625 601.2685546875 485.3394470214844" fill="rgb(224, 80, 19)" opacity="0.83359104" stroke="rgb(129, 124, 169)" stroke-linecap="round" stroke-linejoin="round" stroke-opacity="0.75878716" stroke-width="0.0"/>
    <path d="M 192.71429443359375 278.76507568359375 C 189.58180236816406 323.8747863769531 192.65370178222656 310.5482482910156 181.3856658935547 312.76129150390625 C 143.87673950195312 316.27227783203125 158.21759033203125 307.67950439453125 129.6464080810547 305.25274658203125 C 164.41549682617188 274.9318542480469 135.08990478515625 294.2347412109375 162.9607391357422 263.2853088378906 C 170.2738800048828 261.9721984863281 192.8804473876953 273.0332336425781 192.71429443359375 278.76507568359375" fill="rgb(6, 0, 5)" opacity="0.9362967" stroke="rgb(90, 232, 236)" stroke-linecap="round" stroke-linejoin="round" stroke-opacity="0.40865332" stroke-width="0.0"/>
    <path d="M 188.47662353515625 344.60137939453125 C 187.19552612304688 381.3489685058594 207.73629760742188 393.4034729003906 176.05238342285156 364.1883239746094 C 158.3767547607422 339.92193603515625 157.7818603515625 347.7218933105469 137.67945861816406 315.1005554199219 C 131.77996826171875 297.31536865234375 135.9109649658203 309.0172119140625 159.9854736328125 313.1550598144531 C 201.44680786132812 317.576416015625 187.3473358154297 297.2322998046875 188.47662353515625 344.60137939453125" fill="rgb(134, 168, 178)" opacity="0.9908463" stroke="rgb(120, 37, 112)" stroke-linecap="round" stroke-linejoin="round" stroke-opacity="0.62810665" stroke-width="0.0"/>
    <path d="M 678.7783203125 459.35040283203125 C 662.2369384765625 465.1049499511719 649.2295532226562 459.2754821777344 608.3527221679688 455.3345947265625 C 581.2769775390625 451.75994873046875 555.1896362304688 448.8490905761719 521.0695190429688 446.8828430175781 C 587.392578125 438.61907958984375 618.9600830078125 438.2630615234375 619.2847900390625 428.0868225097656 C 641.4468994140625 386.38433837890625 675.7684936523438 379.1616516113281 678.7783203125 459.35040283203125" fill="rgb(133, 168, 177)" opacity="0.9387275" stroke="rgb(114, 52, 147)" stroke-linecap="round" stroke-linejoin="round" stroke-opacity="0.060832683" stroke-width="0.0"/>
    <path d="M 253.404541015625 492.63470458984375 C 255.71229553222656 492.4539489746094 256.7442932128906 494.644775390625 238.47549438476562 494.2642822265625 C 201.97299194335938 494.2831726074219 199.51011657714844 500.13470458984375 190.5052032470703 468.576416015625 C 204.55953979492188 461.8626403808594 160.58502197265625 429.65863037109375 237.83258056640625 437.46783447265625 C 254.03041076660156 450.45220947265625 246.1811981201172 428.83636474609375 253.404541015625 492.63470458984375" fill="rgb(131, 167, 178)" opacity="0.9875633" stroke="rgb(236, 81, 72)" stroke-linecap="round" stroke-linejoin="round" stroke-opacity="0.22636518" stroke-width="0.0"/>
    <path d="M 778.2658081054688 540.7940673828125 C 788.0613403320312 561.7599487304688 784.4290161132812 565.6912231445312 785.4647216796875 624.3187866210938 C 704.2192993164062 628.8295288085938 591.2918090820312 563.8474731445312 476.142333984375 497.9367370605469 C 724.29296875 519.9140014648438 743.7192993164062 535.9279174804688 757.4657592773438 536.700927734375 C 770.4276123046875 541.7761840820312 768.0883178710938 538.3546142578125 778.2658081054688 540.7940673828125" fill="rgb(17, 110, 78)" opacity="0.9048314" stroke="rgb(203, 237, 151)" stroke-linecap="round" stroke-linejoin="round" stroke-opacity="0.023405533" stroke-width="0.0"/>
    <path d="M 197.0 237.0 C 196.3301239013672 239.5 194.5 241.3301239013672 192.0 242.0 C 189.5 241.3301239013672 187.6698760986328 239.5 187.0 237.0 C 187.6698760986328 234.5 189.5 232.6698760986328 192.0 232.0 C 194.5 232.6698760986328 196.3301239013672 234.5 197.0 237.0" fill="rgb(255, 255, 253)" opacity="1.0" stroke="rgb(169, 187, 192)" stroke-linecap="round" stroke-linejoin="round" stroke-opacity="0.68430656" stroke-width="0.0"/>
  </g>
</svg>
