<?xml version="1.0" ?>
<svg height="768" version="1.1" width="768" xmlns="http://www.w3.org/2000/svg">
  <defs/>
  <g>
    <path d="M 766.8245239257812 807.9249877929688 C 306.1797790527344 772.5792846679688 161.71270751953125 713.2005004882812 -42.5672492980957 664.6395874023438 C -3.9692583084106445 270.17303466796875 8.329045295715332 339.2801513671875 -3.0629982948303223 -18.85575294494629 C 538.4714965820312 -23.474950790405273 612.673095703125 -16.914928436279297 794.1691284179688 2.3782613277435303 C 788.5914306640625 284.9244079589844 779.7975463867188 338.8821105957031 766.8245239257812 807.9249877929688" fill="rgb(132, 161, 166)" opacity="0.98415774" stroke="rgb(12, 77, 72)" stroke-linecap="round" stroke-linejoin="round" stroke-opacity="0.61874783" stroke-width="0.0"/>
    <path d="M 414.9698486328125 328.8616943359375 C 541.6651611328125 406.7262268066406 622.5974731445312 364.2626037597656 826.2216186523438 639.9603881835938 C 754.619140625 664.506103515625 412.0740966796875 423.35870361328125 160.60647583007812 565.3421020507812 C 436.6070861816406 224.97415161132812 53.64311599731445 481.03106689453125 117.50020599365234 220.1304473876953 C 264.13629150390625 114.82311248779297 307.1982116699219 324.02166748046875 414.9698486328125 328.8616943359375" fill="rgb(15, 97, 50)" opacity="0.7424324" stroke="rgb(142, 239, 62)" stroke-linecap="round" stroke-linejoin="round" stroke-opacity="0.6742211" stroke-width="0.0"/>
    <path d="M 188.96499633789062 226.77369689941406 C 187.92332458496094 233.5904083251953 185.2353515625 233.4897003173828 182.54074096679688 234.84420776367188 C 178.95323181152344 235.55201721191406 178.32467651367188 232.8317108154297 178.58592224121094 231.1302490234375 C 178.298583984375 228.89620971679688 184.19781494140625 226.04864501953125 185.55520629882812 226.6400604248047 C 180.88577270507812 226.46826171875 188.9711456298828 225.24818420410156 188.96499633789062 226.77369689941406" fill="rgb(4, 0, 2)" opacity="1.0" stroke="rgb(108, 227, 103)" stroke-linecap="round" stroke-linejoin="round" stroke-opacity="0.5134671" stroke-width="0.0"/>
    <path d="M 309.9950256347656 537.0281982421875 C 280.43377685546875 561.2313232421875 348.1353759765625 495.7583312988281 210.58580017089844 536.1905517578125 C 207.88339233398438 558.5123901367188 123.39667510986328 646.3897094726562 158.10287475585938 570.1465454101562 C 260.7713317871094 450.4749755859375 149.12339782714844 551.0975341796875 188.61849975585938 499.4849853515625 C 193.54359436035156 493.7358093261719 335.3003234863281 484.0465087890625 309.9950256347656 537.0281982421875" fill="rgb(18, 15, 16)" opacity="1.0" stroke="rgb(4, 45, 250)" stroke-linecap="round" stroke-linejoin="round" stroke-opacity="0.9083855" stroke-width="0.0"/>
    <path d="M 713.5740966796875 485.1141052246094 C 759.944091796875 564.2822265625 750.5841674804688 514.1270141601562 474.086181640625 496.4176330566406 C 267.9590759277344 478.0772705078125 344.1336975097656 501.61456298828125 351.4862976074219 456.63812255859375 C 405.7784729003906 478.53631591796875 410.4081115722656 471.08154296875 444.7787170410156 478.2442626953125 C 487.6033630371094 479.15057373046875 486.3850402832031 487.772216796875 713.5740966796875 485.1141052246094" fill="rgb(169, 154, 149)" opacity="0.84450936" stroke="rgb(18, 228, 169)" stroke-linecap="round" stroke-linejoin="round" stroke-opacity="0.1384647" stroke-width="0.0"/>
    <path d="M 67.0 727.0 C 66.33012390136719 729.5 64.5 731.3301391601562 62.0 732.0 C 59.5 731.3301391601562 57.66987228393555 729.5 57.0 727.0 C 57.66987228393555 724.5 59.5 722.6698608398438 62.0 722.0 C 64.5 722.6698608398438 66.33012390136719 724.5 67.0 727.0" fill="rgb(132, 167, 178)" opacity="1.0" stroke="rgb(159, 206, 116)" stroke-linecap="round" stroke-linejoin="round" stroke-opacity="0.08451085" stroke-width="0.0"/>
  </g>
</svg>
