<?xml version="1.0" ?>
<svg height="768" version="1.1" width="768" xmlns="http://www.w3.org/2000/svg">
  <defs/>
  <g>
    <path d="M 766.820068359375 808.0113525390625 C 305.8843078613281 772.7876586914062 161.3442840576172 713.4049072265625 -42.621829986572266 664.7394409179688 C -3.9817862510681152 270.17303466796875 8.310309410095215 339.2752685546875 -3.075618028640747 -18.85575294494629 C 538.4714965820312 -23.474950790405273 612.673095703125 -16.914928436279297 794.1691284179688 2.3782613277435303 C 788.5914306640625 284.9244079589844 779.7975463867188 338.8821105957031 766.820068359375 808.0113525390625" fill="rgb(127, 163, 171)" opacity="0.9892887" stroke="rgb(12, 77, 72)" stroke-linecap="round" stroke-linejoin="round" stroke-opacity="0.61874783" stroke-width="0.0"/>
    <path d="M 407.3262634277344 326.2816162109375 C 543.647705078125 405.3998107910156 629.6909790039062 370.1343994140625 830.9578857421875 644.1178588867188 C 764.10791015625 665.3330688476562 425.91644287109375 432.7247314453125 169.0586395263672 554.9150390625 C 444.1147155761719 222.63351440429688 47.76529312133789 479.3665466308594 124.71452331542969 215.15106201171875 C 263.97857666015625 121.40001678466797 313.496826171875 325.2541809082031 407.3262634277344 326.2816162109375" fill="rgb(11, 97, 46)" opacity="0.75651467" stroke="rgb(142, 239, 62)" stroke-linecap="round" stroke-linejoin="round" stroke-opacity="0.6742211" stroke-width="0.0"/>
    <path d="M 189.08042907714844 226.8799591064453 C 187.87722778320312 234.1179656982422 185.38894653320312 233.64810180664062 182.73965454101562 234.79261779785156 C 178.94769287109375 235.6402130126953 178.238525390625 232.816650390625 178.5872344970703 230.93153381347656 C 178.3285369873047 228.87416076660156 184.03623962402344 225.94752502441406 185.34214782714844 226.67935180664062 C 180.7220001220703 226.22409057617188 188.91236877441406 224.9595947265625 189.08042907714844 226.8799591064453" fill="rgb(0, 0, 1)" opacity="1.0" stroke="rgb(108, 227, 103)" stroke-linecap="round" stroke-linejoin="round" stroke-opacity="0.5134671" stroke-width="0.0"/>
    <path d="M 310.3851013183594 536.7870483398438 C 279.35955810546875 561.1463012695312 348.9859924316406 497.02874755859375 211.90623474121094 535.3511352539062 C 208.51657104492188 555.8795776367188 122.01146697998047 649.2735595703125 158.84991455078125 568.3005981445312 C 261.89312744140625 453.16375732421875 149.69000244140625 548.767578125 188.9399871826172 499.0765380859375 C 194.87701416015625 494.404052734375 332.8883056640625 481.83905029296875 310.3851013183594 536.7870483398438" fill="rgb(17, 14, 16)" opacity="1.0" stroke="rgb(4, 45, 250)" stroke-linecap="round" stroke-linejoin="round" stroke-opacity="0.9083855" stroke-width="0.0"/>
    <path d="M 696.891845703125 485.3363342285156 C 763.1847534179688 567.7500610351562 801.016845703125 520.7758178710938 474.0917663574219 496.2537841796875 C 265.0005187988281 478.7931823730469 346.81976318359375 500.46923828125 350.8360595703125 456.8243103027344 C 406.09912109375 475.6183776855469 381.1624450683594 470.1274108886719 446.564208984375 478.7445373535156 C 528.5867309570312 484.9695739746094 513.2191772460938 485.9885559082031 696.891845703125 485.3363342285156" fill="rgb(145, 172, 179)" opacity="0.90179694" stroke="rgb(18, 228, 169)" stroke-linecap="round" stroke-linejoin="round" stroke-opacity="0.1384647" stroke-width="0.0"/>
    <path d="M 367.9647521972656 767.4453125 C 128.74644470214844 795.0968627929688 118.65943908691406 783.0560302734375 11.796472549438477 777.82763671875 C -11.87857723236084 786.9454345703125 -15.19631576538086 788.1581420898438 -11.842219352722168 658.1759643554688 C -2.4567434787750244 644.1454467773438 7.418712139129639 644.7808837890625 59.211971282958984 650.5400390625 C 178.89984130859375 621.166259765625 261.7273254394531 516.9124755859375 367.9647521972656 767.4453125" fill="rgb(133, 167, 178)" opacity="1.0" stroke="rgb(159, 206, 116)" stroke-linecap="round" stroke-linejoin="round" stroke-opacity="0.08451085" stroke-width="0.0"/>
    <path d="M 253.5773162841797 347.66900634765625 C 337.92498779296875 432.64935302734375 312.67425537109375 326.7381896972656 318.4477844238281 508.3457946777344 C 122.54898071289062 470.42242431640625 314.21343994140625 492.5787658691406 214.86952209472656 417.4200134277344 C 127.92072296142578 282.7132568359375 247.86135864257812 339.9825134277344 146.0619354248047 218.2209014892578 C 270.3432922363281 199.0229034423828 189.734619140625 284.4412536621094 253.5773162841797 347.66900634765625" fill="rgb(229, 136, 68)" opacity="0.99749166" stroke="rgb(0, 105, 147)" stroke-linecap="round" stroke-linejoin="round" stroke-opacity="0.3611284" stroke-width="0.0"/>
    <path d="M 176.3302001953125 257.174560546875 C 165.093994140625 246.36004638671875 103.20292663574219 311.59442138671875 164.49375915527344 344.314453125 C 125.24249267578125 344.46209716796875 109.32649230957031 309.0142517089844 112.5666732788086 274.2662353515625 C 116.41888427734375 242.0276641845703 135.1985626220703 219.4324493408203 157.40548706054688 216.3827362060547 C 169.2032012939453 230.13375854492188 159.3864288330078 243.82699584960938 176.3302001953125 257.174560546875" fill="rgb(10, 10, 11)" opacity="1.0" stroke="rgb(123, 164, 252)" stroke-linecap="round" stroke-linejoin="round" stroke-opacity="0.8283837" stroke-width="0.0"/>
    <path d="M 601.2666625976562 485.3370361328125 C 543.11083984375 492.5623779296875 518.9183959960938 498.48236083984375 483.59808349609375 493.6384582519531 C 465.5721740722656 494.4525146484375 411.0462341308594 488.875 383.9079895019531 469.4479675292969 C 389.4056701660156 468.6142272949219 408.43426513671875 475.3244934082031 479.92132568359375 480.50555419921875 C 477.4422912597656 479.59466552734375 541.7840576171875 486.6119384765625 601.2666625976562 485.3370361328125" fill="rgb(225, 80, 19)" opacity="0.834883" stroke="rgb(129, 124, 169)" stroke-linecap="round" stroke-linejoin="round" stroke-opacity="0.75878716" stroke-width="0.0"/>
    <path d="M 192.71849060058594 278.8132019042969 C 189.50970458984375 323.87786865234375 192.63333129882812 310.53900146484375 181.3741455078125 312.7602233886719 C 143.88941955566406 316.2590026855469 158.2211456298828 307.7616882324219 129.365234375 305.0388488769531 C 164.33900451660156 274.72088623046875 134.88092041015625 293.99029541015625 162.69143676757812 263.1750793457031 C 170.45562744140625 261.8287048339844 192.98715209960938 272.9129943847656 192.71849060058594 278.8132019042969" fill="rgb(6, 0, 5)" opacity="0.93483484" stroke="rgb(90, 232, 236)" stroke-linecap="round" stroke-linejoin="round" stroke-opacity="0.40865332" stroke-width="0.0"/>
    <path d="M 188.47976684570312 344.6761169433594 C 187.13995361328125 381.2532958984375 207.8867645263672 393.8321533203125 175.74655151367188 364.099853515625 C 158.18978881835938 339.7454833984375 157.92657470703125 348.0413818359375 137.68182373046875 315.10931396484375 C 131.8413848876953 297.38433837890625 135.84780883789062 309.01470947265625 159.88816833496094 313.1668395996094 C 201.4630126953125 317.61566162109375 187.30960083007812 297.1408386230469 188.47976684570312 344.6761169433594" fill="rgb(134, 168, 178)" opacity="0.990362" stroke="rgb(120, 37, 112)" stroke-linecap="round" stroke-linejoin="round" stroke-opacity="0.62810665" stroke-width="0.0"/>
    <path d="M 678.94677734375 459.11767578125 C 662.4072265625 465.1617736816406 649.7489624023438 459.2742614746094 608.2398071289062 455.3582763671875 C 581.6011352539062 451.9127502441406 554.7252807617188 448.6788330078125 520.3667602539062 446.9261474609375 C 588.9344482421875 438.6017761230469 618.3225708007812 438.0784912109375 619.3585205078125 428.3751220703125 C 638.4246215820312 384.2217712402344 676.9450073242188 377.84271240234375 678.94677734375 459.11767578125" fill="rgb(133, 169, 177)" opacity="0.9414084" stroke="rgb(114, 52, 147)" stroke-linecap="round" stroke-linejoin="round" stroke-opacity="0.060832683" stroke-width="0.0"/>
    <path d="M 253.42588806152344 492.69781494140625 C 256.0423278808594 492.4945983886719 256.22314453125 494.6593933105469 239.41026306152344 494.2890625 C 197.47531127929688 494.0708312988281 196.94471740722656 500.9257507324219 187.59376525878906 471.58770751953125 C 202.80911254882812 459.178955078125 162.4119110107422 420.1993713378906 238.08642578125 437.46917724609375 C 254.06195068359375 450.4858093261719 246.2001190185547 429.22955322265625 253.42588806152344 492.69781494140625" fill="rgb(131, 167, 178)" opacity="0.98741615" stroke="rgb(236, 81, 72)" stroke-linecap="round" stroke-linejoin="round" stroke-opacity="0.22636518" stroke-width="0.0"/>
    <path d="M 778.2579345703125 543.6522216796875 C 788.0613403320312 561.7599487304688 784.4290161132812 565.6912231445312 771.94091796875 618.9713745117188 C 697.4815673828125 632.7700805664062 608.944580078125 555.6505126953125 409.98724365234375 492.823974609375 C 690.850830078125 511.29150390625 769.9401245117188 542.4513549804688 755.1091918945312 535.8640747070312 C 769.779296875 542.3441162109375 771.3685913085938 537.6922607421875 778.2579345703125 543.6522216796875" fill="rgb(17, 110, 78)" opacity="0.908296" stroke="rgb(203, 237, 151)" stroke-linecap="round" stroke-linejoin="round" stroke-opacity="0.023405533" stroke-width="0.0"/>
    <path d="M 206.54591369628906 255.677490234375 C 187.8549346923828 216.00469970703125 220.37551879882812 238.71487426757812 193.22637939453125 269.6432800292969 C 151.3957061767578 237.39292907714844 166.64341735839844 210.089111328125 186.19827270507812 247.75479125976562 C 199.5355224609375 195.1510009765625 168.9619903564453 256.22296142578125 163.11962890625 215.94677734375 C 219.29898071289062 201.6215362548828 242.8618621826172 268.5533447265625 206.54591369628906 255.677490234375" fill="rgb(246, 255, 233)" opacity="0.92388636" stroke="rgb(169, 187, 192)" stroke-linecap="round" stroke-linejoin="round" stroke-opacity="0.68430656" stroke-width="0.0"/>
    <path d="M 210.33773803710938 247.7508087158203 C 177.87554931640625 253.26974487304688 226.96148681640625 246.68984985351562 210.10626220703125 256.04022216796875 C 194.2106475830078 255.8319091796875 203.91810607910156 260.0786437988281 198.3359375 244.995849609375 C 182.92213439941406 237.09561157226562 223.65692138671875 231.5409393310547 200.1371307373047 243.11863708496094 C 202.39862060546875 245.46109008789062 215.26962280273438 239.76402282714844 210.33773803710938 247.7508087158203" fill="rgb(1, 3, 4)" opacity="0.9319068" stroke="rgb(156, 238, 232)" stroke-linecap="round" stroke-linejoin="round" stroke-opacity="0.48303482" stroke-width="0.0"/>
    <path d="M 698.568115234375 481.4783020019531 C 699.240478515625 471.0184326171875 699.2986450195312 486.97076416015625 690.8430786132812 483.2855529785156 C 434.3531494140625 486.746826171875 289.4040222167969 473.5469665527344 321.9251708984375 396.0357666015625 C 512.0581665039062 473.2205505371094 594.5966186523438 437.5423889160156 635.17041015625 467.4659729003906 C 687.6902465820312 456.77520751953125 703.4742431640625 468.9678039550781 698.568115234375 481.4783020019531" fill="rgb(15, 85, 45)" opacity="0.8338147" stroke="rgb(225, 215, 138)" stroke-linecap="round" stroke-linejoin="round" stroke-opacity="0.46836582" stroke-width="0.0"/>
    <path d="M 157.3655242919922 266.3357849121094 C 136.57461547851562 288.4867858886719 159.4011688232422 277.244384765625 132.37353515625 298.4356689453125 C 145.24395751953125 299.01739501953125 151.289306640625 274.8233337402344 151.7546844482422 274.75201416015625 C 163.3206787109375 268.7990417480469 153.96014404296875 249.37538146972656 195.00799560546875 276.8238525390625 C 182.16561889648438 259.24542236328125 156.57662963867188 255.0358123779297 157.3655242919922 266.3357849121094" fill="rgb(218, 221, 232)" opacity="0.9509162" stroke="rgb(241, 24, 224)" stroke-linecap="round" stroke-linejoin="round" stroke-opacity="0.9624787" stroke-width="0.0"/>
    <path d="M 546.1766967773438 547.1929931640625 C 397.4967956542969 519.5121459960938 353.1000061035156 524.8238525390625 392.43194580078125 523.7579345703125 C 367.1595764160156 524.0170288085938 382.710205078125 522.5702514648438 320.2277526855469 520.529296875 C 317.493408203125 469.97210693359375 330.6217956542969 491.5035705566406 435.91827392578125 494.30694580078125 C 459.9727478027344 502.08380126953125 556.7627563476562 485.4241943359375 546.1766967773438 547.1929931640625" fill="rgb(16, 106, 74)" opacity="0.86963433" stroke="rgb(91, 46, 159)" stroke-linecap="round" stroke-linejoin="round" stroke-opacity="0.64249396" stroke-width="0.0"/>
    <path d="M 653.9276123046875 31.12899398803711 C 582.6329956054688 511.5772399902344 439.55712890625 197.382080078125 137.5074920654297 189.31593322753906 C 66.14942932128906 458.3726806640625 -63.07149887084961 458.2856140136719 -33.03824996948242 -8.039937973022461 C 222.6183624267578 25.800491333007812 239.6074981689453 40.17388916015625 26.755416870117188 -0.14575275778770447 C 171.35903930664062 -34.13859558105469 338.93145751953125 -99.24235534667969 653.9276123046875 31.12899398803711" fill="rgb(133, 167, 178)" opacity="0.85935056" stroke="rgb(97, 216, 91)" stroke-linecap="round" stroke-linejoin="round" stroke-opacity="0.16990633" stroke-width="0.0"/>
    <path d="M 463.1628723144531 352.6866760253906 C 690.3428344726562 444.281982421875 499.6575927734375 496.7314147949219 277.34222412109375 370.04962158203125 C 254.2109375 352.80694580078125 255.95616149902344 352.5234069824219 231.9728240966797 314.3986511230469 C 206.45733642578125 250.57296752929688 255.7556915283203 238.30703735351562 165.8663787841797 202.31497192382812 C 337.74456787109375 238.07806396484375 192.20640563964844 249.88861083984375 463.1628723144531 352.6866760253906" fill="rgb(4, 132, 43)" opacity="0.44469273" stroke="rgb(133, 2, 66)" stroke-linecap="round" stroke-linejoin="round" stroke-opacity="0.031605467" stroke-width="0.0"/>
    <path d="M 533.3063354492188 11.850446701049805 C 521.4111938476562 -3.8013463020324707 516.9985961914062 -2.426903009414673 525.9572143554688 19.217763900756836 C 531.201904296875 0.45904049277305603 525.7749633789062 -3.593946695327759 514.1763916015625 5.984950542449951 C 518.3585815429688 -2.8059213161468506 521.7702026367188 -3.5582423210144043 524.8887939453125 -3.9157209396362305 C 528.7478637695312 -3.7933974266052246 534.6131591796875 -2.97833514213562 533.3063354492188 11.850446701049805" fill="rgb(134, 167, 177)" opacity="0.8953168" stroke="rgb(195, 229, 134)" stroke-linecap="round" stroke-linejoin="round" stroke-opacity="0.19052486" stroke-width="0.0"/>
    <path d="M 418.0480651855469 371.5256042480469 C 214.13194274902344 405.9859619140625 220.8551483154297 283.7617492675781 225.39083862304688 231.2557830810547 C 230.53416442871094 285.40020751953125 225.99285888671875 266.7084045410156 227.6614227294922 228.0421600341797 C 267.23095703125 212.39649963378906 206.0572052001953 248.42221069335938 175.1388702392578 191.7375946044922 C 279.69122314453125 191.3260498046875 271.36419677734375 241.90377807617188 418.0480651855469 371.5256042480469" fill="rgb(21, 120, 55)" opacity="0.8745911" stroke="rgb(220, 171, 170)" stroke-linecap="round" stroke-linejoin="round" stroke-opacity="0.5647737" stroke-width="0.0"/>
    <path d="M 173.54615783691406 537.8007202148438 C 127.08533477783203 604.927001953125 169.88938903808594 662.4794311523438 18.66783905029297 686.90234375 C -57.24723815917969 537.6541748046875 -14.503536224365234 505.5404357910156 -17.879554748535156 470.42498779296875 C 4.893157958984375 467.74310302734375 -28.725460052490234 452.5140380859375 -0.0025666290894150734 332.2373962402344 C 177.61740112304688 329.40472412109375 236.76820373535156 334.7462463378906 173.54615783691406 537.8007202148438" fill="rgb(133, 168, 179)" opacity="0.72501343" stroke="rgb(253, 60, 97)" stroke-linecap="round" stroke-linejoin="round" stroke-opacity="0.5251322" stroke-width="0.0"/>
    <path d="M 582.2974853515625 132.4635772705078 C 581.6276245117188 134.9635772705078 579.7974853515625 136.793701171875 577.2974853515625 137.4635772705078 C 574.7974853515625 136.793701171875 572.9673461914062 134.9635772705078 572.2974853515625 132.4635772705078 C 572.9673461914062 129.9635772705078 574.7974853515625 128.13345336914062 577.2974853515625 127.46357727050781 C 579.7974853515625 128.13345336914062 581.6276245117188 129.9635772705078 582.2974853515625 132.4635772705078" fill="rgb(135, 168, 178)" opacity="1.0" stroke="rgb(77, 35, 218)" stroke-linecap="round" stroke-linejoin="round" stroke-opacity="0.98377246" stroke-width="0.0"/>
  </g>
</svg>
