<?xml version="1.0" ?>
<svg height="768" version="1.1" width="768" xmlns="http://www.w3.org/2000/svg">
  <defs/>
  <g>
    <path d="M 766.820068359375 808.0113525390625 C 305.8843078613281 772.7876586914062 161.3442840576172 713.4049072265625 -42.621829986572266 664.7394409179688 C -3.9817862510681152 270.17303466796875 8.310309410095215 339.2752685546875 -3.075618028640747 -18.85575294494629 C 538.4714965820312 -23.474950790405273 612.673095703125 -16.914928436279297 794.1691284179688 2.3782613277435303 C 788.5914306640625 284.9244079589844 779.7975463867188 338.8821105957031 766.820068359375 808.0113525390625" fill="rgb(127, 163, 171)" opacity="0.9892887" stroke="rgb(12, 77, 72)" stroke-linecap="round" stroke-linejoin="round" stroke-opacity="0.61874783" stroke-width="0.0"/>
    <path d="M 407.3262634277344 326.2816162109375 C 543.647705078125 405.3998107910156 629.6909790039062 370.1343994140625 830.9578857421875 644.1178588867188 C 764.10791015625 665.3330688476562 425.91644287109375 432.7247314453125 169.0586395263672 554.9150390625 C 444.1147155761719 222.63351440429688 47.76529312133789 479.3665466308594 124.71452331542969 215.15106201171875 C 263.97857666015625 121.40001678466797 313.496826171875 325.2541809082031 407.3262634277344 326.2816162109375" fill="rgb(11, 97, 46)" opacity="0.75651467" stroke="rgb(142, 239, 62)" stroke-linecap="round" stroke-linejoin="round" stroke-opacity="0.6742211" stroke-width="0.0"/>
    <path d="M 189.08042907714844 226.8799591064453 C 187.87722778320312 234.1179656982422 185.38894653320312 233.64810180664062 182.73965454101562 234.79261779785156 C 178.94769287109375 235.6402130126953 178.238525390625 232.816650390625 178.5872344970703 230.93153381347656 C 178.3285369873047 228.87416076660156 184.03623962402344 225.94752502441406 185.34214782714844 226.67935180664062 C 180.7220001220703 226.22409057617188 188.91236877441406 224.9595947265625 189.08042907714844 226.8799591064453" fill="rgb(0, 0, 1)" opacity="1.0" stroke="rgb(108, 227, 103)" stroke-linecap="round" stroke-linejoin="round" stroke-opacity="0.5134671" stroke-width="0.0"/>
    <path d="M 310.3851013183594 536.7870483398438 C 279.35955810546875 561.1463012695312 348.9859924316406 497.02874755859375 211.90623474121094 535.3511352539062 C 208.51657104492188 555.8795776367188 122.01146697998047 649.2735595703125 158.84991455078125 568.3005981445312 C 261.89312744140625 453.16375732421875 149.69000244140625 548.767578125 188.9399871826172 499.0765380859375 C 194.87701416015625 494.404052734375 332.8883056640625 481.83905029296875 310.3851013183594 536.7870483398438" fill="rgb(17, 14, 16)" opacity="1.0" stroke="rgb(4, 45, 250)" stroke-linecap="round" stroke-linejoin="round" stroke-opacity="0.9083855" stroke-width="0.0"/>
    <path d="M 696.891845703125 485.3363342285156 C 763.1847534179688 567.7500610351562 801.016845703125 520.7758178710938 474.0917663574219 496.2537841796875 C 265.0005187988281 478.7931823730469 346.81976318359375 500.46923828125 350.8360595703125 456.8243103027344 C 406.09912109375 475.6183776855469 381.1624450683594 470.1274108886719 446.564208984375 478.7445373535156 C 528.5867309570312 484.9695739746094 513.2191772460938 485.9885559082031 696.891845703125 485.3363342285156" fill="rgb(145, 172, 179)" opacity="0.90179694" stroke="rgb(18, 228, 169)" stroke-linecap="round" stroke-linejoin="round" stroke-opacity="0.1384647" stroke-width="0.0"/>
    <path d="M 367.9647521972656 767.4453125 C 128.74644470214844 795.0968627929688 118.65943908691406 783.0560302734375 11.796472549438477 777.82763671875 C -11.87857723236084 786.9454345703125 -15.19631576538086 788.1581420898438 -11.842219352722168 658.1759643554688 C -2.4567434787750244 644.1454467773438 7.418712139129639 644.7808837890625 59.211971282958984 650.5400390625 C 178.89984130859375 621.166259765625 261.7273254394531 516.9124755859375 367.9647521972656 767.4453125" fill="rgb(133, 167, 178)" opacity="1.0" stroke="rgb(159, 206, 116)" stroke-linecap="round" stroke-linejoin="round" stroke-opacity="0.08451085" stroke-width="0.0"/>
    <path d="M 253.5773162841797 347.66900634765625 C 337.92498779296875 432.64935302734375 312.67425537109375 326.7381896972656 318.4477844238281 508.3457946777344 C 122.54898071289062 470.42242431640625 314.21343994140625 492.5787658691406 214.86952209472656 417.4200134277344 C 127.92072296142578 282.7132568359375 247.86135864257812 339.9825134277344 146.0619354248047 218.2209014892578 C 270.3432922363281 199.0229034423828 189.734619140625 284.4412536621094 253.5773162841797 347.66900634765625" fill="rgb(229, 136, 68)" opacity="0.99749166" stroke="rgb(0, 105, 147)" stroke-linecap="round" stroke-linejoin="round" stroke-opacity="0.3611284" stroke-width="0.0"/>
    <path d="M 176.3302001953125 257.174560546875 C 165.093994140625 246.36004638671875 103.20292663574219 311.59442138671875 164.49375915527344 344.314453125 C 125.24249267578125 344.46209716796875 109.32649230957031 309.0142517089844 112.5666732788086 274.2662353515625 C 116.41888427734375 242.0276641845703 135.1985626220703 219.4324493408203 157.40548706054688 216.3827362060547 C 169.2032012939453 230.13375854492188 159.3864288330078 243.82699584960938 176.3302001953125 257.174560546875" fill="rgb(10, 10, 11)" opacity="1.0" stroke="rgb(123, 164, 252)" stroke-linecap="round" stroke-linejoin="round" stroke-opacity="0.8283837" stroke-width="0.0"/>
    <path d="M 601.2666625976562 485.3370361328125 C 543.11083984375 492.5623779296875 518.9183959960938 498.48236083984375 483.59808349609375 493.6384582519531 C 465.5721740722656 494.4525146484375 411.0462341308594 488.875 383.9079895019531 469.4479675292969 C 389.4056701660156 468.6142272949219 408.43426513671875 475.3244934082031 479.92132568359375 480.50555419921875 C 477.4422912597656 479.59466552734375 541.7840576171875 486.6119384765625 601.2666625976562 485.3370361328125" fill="rgb(225, 80, 19)" opacity="0.834883" stroke="rgb(129, 124, 169)" stroke-linecap="round" stroke-linejoin="round" stroke-opacity="0.75878716" stroke-width="0.0"/>
    <path d="M 192.71849060058594 278.8132019042969 C 189.50970458984375 323.87786865234375 192.63333129882812 310.53900146484375 181.3741455078125 312.7602233886719 C 143.88941955566406 316.2590026855469 158.2211456298828 307.7616882324219 129.365234375 305.0388488769531 C 164.33900451660156 274.72088623046875 134.88092041015625 293.99029541015625 162.69143676757812 263.1750793457031 C 170.45562744140625 261.8287048339844 192.98715209960938 272.9129943847656 192.71849060058594 278.8132019042969" fill="rgb(6, 0, 5)" opacity="0.93483484" stroke="rgb(90, 232, 236)" stroke-linecap="round" stroke-linejoin="round" stroke-opacity="0.40865332" stroke-width="0.0"/>
    <path d="M 188.47976684570312 344.6761169433594 C 187.13995361328125 381.2532958984375 207.8867645263672 393.8321533203125 175.74655151367188 364.099853515625 C 158.18978881835938 339.7454833984375 157.92657470703125 348.0413818359375 137.68182373046875 315.10931396484375 C 131.8413848876953 297.38433837890625 135.84780883789062 309.01470947265625 159.88816833496094 313.1668395996094 C 201.4630126953125 317.61566162109375 187.30960083007812 297.1408386230469 188.47976684570312 344.6761169433594" fill="rgb(134, 168, 178)" opacity="0.990362" stroke="rgb(120, 37, 112)" stroke-linecap="round" stroke-linejoin="round" stroke-opacity="0.62810665" stroke-width="0.0"/>
    <path d="M 678.94677734375 459.11767578125 C 662.4072265625 465.1617736816406 649.7489624023438 459.2742614746094 608.2398071289062 455.3582763671875 C 581.6011352539062 451.9127502441406 554.7252807617188 448.6788330078125 520.3667602539062 446.9261474609375 C 588.9344482421875 438.6017761230469 618.3225708007812 438.0784912109375 619.3585205078125 428.3751220703125 C 638.4246215820312 384.2217712402344 676.9450073242188 377.84271240234375 678.94677734375 459.11767578125" fill="rgb(133, 169, 177)" opacity="0.9414079" stroke="rgb(114, 52, 147)" stroke-linecap="round" stroke-linejoin="round" stroke-opacity="0.060832683" stroke-width="0.0"/>
    <path d="M 253.4259796142578 492.69781494140625 C 256.0423278808594 492.4945983886719 256.22314453125 494.6593933105469 239.41026306152344 494.2890625 C 197.4752197265625 494.0708312988281 196.94471740722656 500.9257507324219 187.59376525878906 471.58770751953125 C 202.80911254882812 459.178955078125 162.4119110107422 420.1993713378906 238.08641052246094 437.46917724609375 C 254.06199645996094 450.4858093261719 246.20022583007812 429.22955322265625 253.4259796142578 492.69781494140625" fill="rgb(131, 167, 178)" opacity="0.9874148" stroke="rgb(236, 81, 72)" stroke-linecap="round" stroke-linejoin="round" stroke-opacity="0.22636518" stroke-width="0.0"/>
    <path d="M 778.2579345703125 543.6522216796875 C 788.0613403320312 561.7599487304688 784.4290161132812 565.6912231445312 771.94091796875 618.9713745117188 C 697.4815673828125 632.7700805664062 608.944580078125 555.6505126953125 409.98797607421875 492.82373046875 C 690.850830078125 511.2910461425781 769.9401245117188 542.4513549804688 755.1091918945312 535.8640747070312 C 769.779296875 542.3441162109375 771.3685913085938 537.6922607421875 778.2579345703125 543.6522216796875" fill="rgb(17, 110, 78)" opacity="0.9083193" stroke="rgb(203, 237, 151)" stroke-linecap="round" stroke-linejoin="round" stroke-opacity="0.023405533" stroke-width="0.0"/>
    <path d="M 206.55397033691406 255.68458557128906 C 187.8565216064453 216.00791931152344 220.3755645751953 238.71339416503906 193.22727966308594 269.64056396484375 C 151.39657592773438 237.3902587890625 166.6433563232422 210.0872344970703 186.19815063476562 247.75674438476562 C 199.53750610351562 195.15023803710938 168.95602416992188 256.2237854003906 163.12860107421875 215.94908142089844 C 219.35165405273438 201.58714294433594 242.90211486816406 268.5103759765625 206.55397033691406 255.68458557128906" fill="rgb(246, 255, 233)" opacity="0.9238815" stroke="rgb(169, 187, 192)" stroke-linecap="round" stroke-linejoin="round" stroke-opacity="0.68430656" stroke-width="0.0"/>
    <path d="M 210.34059143066406 247.75767517089844 C 177.88052368164062 253.2709503173828 226.96160888671875 246.6893310546875 210.10983276367188 256.0382995605469 C 194.20997619628906 255.83734130859375 203.91908264160156 260.0748291015625 198.33709716796875 244.9927978515625 C 182.91952514648438 237.0928497314453 223.65771484375 231.5394744873047 200.13723754882812 243.12062072753906 C 202.3936767578125 245.4613494873047 215.2672882080078 239.76368713378906 210.34059143066406 247.75767517089844" fill="rgb(1, 3, 4)" opacity="0.9319331" stroke="rgb(156, 238, 232)" stroke-linecap="round" stroke-linejoin="round" stroke-opacity="0.48303482" stroke-width="0.0"/>
    <path d="M 698.5740966796875 481.47344970703125 C 699.2380981445312 471.0107116699219 699.3037719726562 486.9768371582031 690.8433837890625 483.28668212890625 C 434.3074035644531 486.7431945800781 289.40277099609375 473.5544738769531 321.9249572753906 396.003662109375 C 511.78753662109375 473.06317138671875 594.3568115234375 437.5846252441406 635.173583984375 467.4755859375 C 687.6693115234375 456.766357421875 703.4893798828125 468.97723388671875 698.5740966796875 481.47344970703125" fill="rgb(15, 85, 45)" opacity="0.83368784" stroke="rgb(225, 215, 138)" stroke-linecap="round" stroke-linejoin="round" stroke-opacity="0.46836582" stroke-width="0.0"/>
    <path d="M 157.35665893554688 266.32977294921875 C 136.5810089111328 288.48577880859375 159.40652465820312 277.2521057128906 132.38043212890625 298.4500427246094 C 145.245361328125 299.018310546875 151.2887725830078 274.8248596191406 151.74603271484375 274.7528076171875 C 163.2993621826172 268.793701171875 153.94467163085938 249.37876892089844 195.00440979003906 276.8238525390625 C 182.20559692382812 259.2740478515625 156.58450317382812 255.0125732421875 157.35665893554688 266.32977294921875" fill="rgb(218, 221, 232)" opacity="0.95097333" stroke="rgb(241, 24, 224)" stroke-linecap="round" stroke-linejoin="round" stroke-opacity="0.9624787" stroke-width="0.0"/>
    <path d="M 546.4006958007812 547.2658081054688 C 397.5498046875 519.5278930664062 352.9454650878906 524.8873291015625 392.3771057128906 523.83251953125 C 367.1024475097656 524.0117797851562 382.7405090332031 522.5833740234375 320.2203674316406 520.5313720703125 C 317.47320556640625 469.98077392578125 330.6029052734375 491.5104675292969 435.8961181640625 494.3073425292969 C 460.4181213378906 502.0594482421875 557.1002197265625 485.517578125 546.4006958007812 547.2658081054688" fill="rgb(16, 106, 74)" opacity="0.87002665" stroke="rgb(91, 46, 159)" stroke-linecap="round" stroke-linejoin="round" stroke-opacity="0.64249396" stroke-width="0.0"/>
    <path d="M 654.9700317382812 31.819927215576172 C 582.5947265625 512.6351318359375 438.6759338378906 197.38623046875 137.53501892089844 189.24154663085938 C 66.44097900390625 458.00091552734375 -64.19496154785156 456.6983947753906 -33.11709213256836 -8.364995002746582 C 222.6123046875 25.82762336730957 239.63265991210938 40.07186508178711 26.80621910095215 -0.4033752679824829 C 171.35903930664062 -34.141361236572266 338.994140625 -99.33631134033203 654.9700317382812 31.819927215576172" fill="rgb(133, 167, 178)" opacity="0.8572788" stroke="rgb(97, 216, 91)" stroke-linecap="round" stroke-linejoin="round" stroke-opacity="0.16990633" stroke-width="0.0"/>
    <path d="M 462.1069030761719 352.35174560546875 C 693.7849731445312 445.3033752441406 496.2983703613281 495.9345397949219 277.3651123046875 370.0428771972656 C 253.72518920898438 352.3375549316406 256.048583984375 352.71929931640625 232.0480194091797 313.9748840332031 C 206.6352081298828 254.2090606689453 255.79168701171875 234.5655975341797 164.75244140625 203.72169494628906 C 334.0857849121094 241.952880859375 189.34825134277344 247.42599487304688 462.1069030761719 352.35174560546875" fill="rgb(6, 132, 44)" opacity="0.46939778" stroke="rgb(133, 2, 66)" stroke-linecap="round" stroke-linejoin="round" stroke-opacity="0.031605467" stroke-width="0.0"/>
    <path d="M 533.5437622070312 11.882150650024414 C 521.3109741210938 -3.7135567665100098 516.6567993164062 -2.3218133449554443 525.8653564453125 20.229246139526367 C 531.4697265625 0.5805580019950867 525.6094360351562 -3.75809645652771 514.2161254882812 6.017123222351074 C 518.3154296875 -2.8136770725250244 521.7811279296875 -3.5441160202026367 524.8761596679688 -3.9034111499786377 C 528.5905151367188 -3.7417924404144287 534.3436279296875 -2.862907648086548 533.5437622070312 11.882150650024414" fill="rgb(134, 167, 177)" opacity="0.89509743" stroke="rgb(195, 229, 134)" stroke-linecap="round" stroke-linejoin="round" stroke-opacity="0.19052486" stroke-width="0.0"/>
    <path d="M 419.22314453125 371.3572692871094 C 214.00563049316406 406.35577392578125 220.8108673095703 283.6472473144531 225.43467712402344 231.44358825683594 C 231.2550506591797 288.5893249511719 225.02078247070312 269.2923278808594 227.9744873046875 226.42173767089844 C 265.4712829589844 190.55661010742188 153.98887634277344 241.17333984375 175.5876007080078 191.69029235839844 C 281.1072692871094 191.61009216308594 271.4625549316406 243.8181915283203 419.22314453125 371.3572692871094" fill="rgb(21, 120, 54)" opacity="0.87499094" stroke="rgb(220, 171, 170)" stroke-linecap="round" stroke-linejoin="round" stroke-opacity="0.5647737" stroke-width="0.0"/>
    <path d="M 169.79066467285156 543.0401000976562 C 117.23127746582031 595.2140502929688 209.68692016601562 659.9031372070312 58.86882400512695 679.7516479492188 C -71.67864227294922 545.4437866210938 -15.89925479888916 506.3408203125 -17.907344818115234 470.4441223144531 C 4.893157958984375 467.74310302734375 -28.725181579589844 452.5140380859375 -5.100680828094482 317.37908935546875 C 172.93875122070312 330.3217468261719 247.75645446777344 344.08074951171875 169.79066467285156 543.0401000976562" fill="rgb(133, 168, 180)" opacity="0.5632184" stroke="rgb(253, 60, 97)" stroke-linecap="round" stroke-linejoin="round" stroke-opacity="0.5251322" stroke-width="0.0"/>
    <path d="M 634.3939208984375 131.50193786621094 C 578.213134765625 143.08541870117188 563.9222412109375 150.08705139160156 581.41259765625 141.5087127685547 C 577.7388916015625 126.66024780273438 578.6455688476562 126.87850952148438 566.7135009765625 160.93553161621094 C 560.849853515625 120.91332244873047 567.6439819335938 110.91047668457031 585.3218383789062 120.01226043701172 C 584.2572021484375 128.14572143554688 599.488037109375 93.48540496826172 634.3939208984375 131.50193786621094" fill="rgb(134, 169, 179)" opacity="0.881709" stroke="rgb(77, 35, 218)" stroke-linecap="round" stroke-linejoin="round" stroke-opacity="0.98377246" stroke-width="0.0"/>
    <path d="M 719.5958862304688 810.5166015625 C 281.2439880371094 691.5289916992188 279.45855712890625 690.3709716796875 552.135986328125 765.29541015625 C 355.2291564941406 776.1932373046875 105.99235534667969 705.2430419921875 167.90122985839844 587.4199829101562 C 236.11009216308594 536.7691650390625 281.4717712402344 555.0636596679688 377.8597412109375 523.4043579101562 C 643.8965454101562 549.2293090820312 759.8152465820312 614.6483154296875 719.5958862304688 810.5166015625" fill="rgb(133, 167, 177)" opacity="0.9666254" stroke="rgb(254, 119, 95)" stroke-linecap="round" stroke-linejoin="round" stroke-opacity="0.6296265" stroke-width="0.0"/>
    <path d="M 113.5572509765625 767.9357299804688 C 112.88737487792969 770.4357299804688 111.0572509765625 772.265869140625 108.5572509765625 772.9357299804688 C 106.0572509765625 772.265869140625 104.22712707519531 770.4357299804688 103.5572509765625 767.9357299804688 C 104.22712707519531 765.4357299804688 106.0572509765625 763.6055908203125 108.5572509765625 762.9357299804688 C 111.0572509765625 763.6055908203125 112.88737487792969 765.4357299804688 113.5572509765625 767.9357299804688" fill="rgb(134, 166, 174)" opacity="1.0" stroke="rgb(56, 95, 224)" stroke-linecap="round" stroke-linejoin="round" stroke-opacity="0.6731263" stroke-width="0.0"/>
  </g>
</svg>
