<?xml version="1.0" ?>
<svg height="768" version="1.1" width="768" xmlns="http://www.w3.org/2000/svg">
  <defs/>
  <g>
    <path d="M 766.820068359375 808.0113525390625 C 305.8843078613281 772.7876586914062 161.3442840576172 713.4049072265625 -42.621829986572266 664.7394409179688 C -3.9814233779907227 270.17303466796875 8.310688972473145 339.2752685546875 -3.0752627849578857 -18.85575294494629 C 538.4714965820312 -23.474950790405273 612.673095703125 -16.914928436279297 794.1691284179688 2.3782613277435303 C 788.5914306640625 284.9244079589844 779.7975463867188 338.8821105957031 766.820068359375 808.0113525390625" fill="rgb(127, 164, 171)" opacity="0.98841727" stroke="rgb(12, 77, 72)" stroke-linecap="round" stroke-linejoin="round" stroke-opacity="0.61874783" stroke-width="0.0"/>
    <path d="M 407.4054260253906 326.31158447265625 C 543.5172119140625 405.49188232421875 629.494384765625 370.2413024902344 830.7911376953125 644.1715698242188 C 763.9778442382812 665.3372192382812 425.7545471191406 432.6121826171875 169.004638671875 555.0096435546875 C 443.9779052734375 222.42782592773438 47.65717315673828 479.2769470214844 124.57421875 215.24288940429688 C 263.9749755859375 121.2458724975586 313.3979187011719 325.23870849609375 407.4054260253906 326.31158447265625" fill="rgb(12, 97, 46)" opacity="0.75472975" stroke="rgb(142, 239, 62)" stroke-linecap="round" stroke-linejoin="round" stroke-opacity="0.6742211" stroke-width="0.0"/>
    <path d="M 189.07473754882812 226.88197326660156 C 187.8761749267578 234.11741638183594 185.3885955810547 233.64810180664062 182.73965454101562 234.79261779785156 C 178.94769287109375 235.6402130126953 178.238525390625 232.816650390625 178.5874786376953 230.93226623535156 C 178.32952880859375 228.8753204345703 184.03732299804688 225.94920349121094 185.34442138671875 226.6840362548828 C 180.7284698486328 226.23101806640625 188.91299438476562 224.96331787109375 189.07473754882812 226.88197326660156" fill="rgb(0, 0, 1)" opacity="1.0" stroke="rgb(108, 227, 103)" stroke-linecap="round" stroke-linejoin="round" stroke-opacity="0.5134671" stroke-width="0.0"/>
    <path d="M 310.37750244140625 536.8102416992188 C 279.3647155761719 561.1432495117188 348.96612548828125 497.02410888671875 211.8815155029297 535.350341796875 C 208.55279541015625 555.8941650390625 122.00700378417969 649.2664184570312 158.8339080810547 568.3217163085938 C 261.8818664550781 453.148681640625 149.68182373046875 548.7733764648438 188.9172821044922 499.106201171875 C 195.05740356445312 494.54058837890625 332.8458557128906 481.8388366699219 310.37750244140625 536.8102416992188" fill="rgb(17, 14, 16)" opacity="1.0" stroke="rgb(4, 45, 250)" stroke-linecap="round" stroke-linejoin="round" stroke-opacity="0.9083855" stroke-width="0.0"/>
    <path d="M 696.6123046875 485.3436584472656 C 763.0255126953125 567.6719360351562 800.622314453125 520.7092895507812 474.1678161621094 496.25909423828125 C 264.9680480957031 478.76800537109375 346.8309631347656 500.4620666503906 350.83953857421875 456.8217468261719 C 406.03167724609375 475.63604736328125 381.3731689453125 470.1170349121094 446.5616455078125 478.7255554199219 C 528.00927734375 484.9159851074219 513.3137817382812 486.0265808105469 696.6123046875 485.3436584472656" fill="rgb(145, 172, 180)" opacity="0.8975624" stroke="rgb(18, 228, 169)" stroke-linecap="round" stroke-linejoin="round" stroke-opacity="0.1384647" stroke-width="0.0"/>
    <path d="M 367.9396667480469 767.4423828125 C 128.74644470214844 795.0968627929688 118.65943908691406 783.0560302734375 11.796472549438477 777.82763671875 C -11.87857723236084 786.9454345703125 -15.19631576538086 788.1581420898438 -11.841387748718262 658.3338623046875 C -2.4429848194122314 644.3836059570312 7.422842502593994 645.0265502929688 59.22354507446289 650.6771240234375 C 178.8916473388672 621.166259765625 261.71435546875 516.9788818359375 367.9396667480469 767.4423828125" fill="rgb(133, 167, 178)" opacity="1.0" stroke="rgb(159, 206, 116)" stroke-linecap="round" stroke-linejoin="round" stroke-opacity="0.08451085" stroke-width="0.0"/>
    <path d="M 253.4468536376953 347.5446472167969 C 337.9200744628906 432.6146240234375 312.6899108886719 326.69952392578125 318.4390563964844 507.8941345214844 C 121.624267578125 472.43115234375 315.34918212890625 488.67218017578125 212.68238830566406 416.1409912109375 C 132.21141052246094 271.7496032714844 249.05685424804688 336.9211730957031 144.25575256347656 217.96812438964844 C 271.6620788574219 196.78109741210938 189.79940795898438 284.4845886230469 253.4468536376953 347.5446472167969" fill="rgb(220, 143, 84)" opacity="1.0" stroke="rgb(0, 105, 147)" stroke-linecap="round" stroke-linejoin="round" stroke-opacity="0.3611284" stroke-width="0.0"/>
    <path d="M 174.5599822998047 255.3688507080078 C 169.1551513671875 252.26051330566406 100.49928283691406 297.7803649902344 159.74395751953125 343.9459533691406 C 125.62699127197266 342.42889404296875 108.85711669921875 308.85699462890625 112.65481567382812 273.4478759765625 C 116.17395782470703 244.72085571289062 134.4201202392578 218.4292755126953 157.35862731933594 216.09857177734375 C 168.54518127441406 229.43624877929688 160.52273559570312 244.11500549316406 174.5599822998047 255.3688507080078" fill="rgb(10, 10, 11)" opacity="0.99669856" stroke="rgb(123, 164, 252)" stroke-linecap="round" stroke-linejoin="round" stroke-opacity="0.8283837" stroke-width="0.0"/>
    <path d="M 601.237548828125 485.3835144042969 C 549.8023071289062 491.7364807128906 518.3679809570312 498.7867126464844 484.58526611328125 493.6141662597656 C 466.89306640625 494.4833679199219 411.21551513671875 489.1344299316406 383.6389465332031 469.40887451171875 C 390.0972595214844 468.80755615234375 412.86981201171875 475.80181884765625 479.685302734375 480.5044250488281 C 479.8828430175781 479.7823791503906 538.9075927734375 486.3693542480469 601.237548828125 485.3835144042969" fill="rgb(225, 80, 18)" opacity="0.8291665" stroke="rgb(129, 124, 169)" stroke-linecap="round" stroke-linejoin="round" stroke-opacity="0.75878716" stroke-width="0.0"/>
    <path d="M 192.6880645751953 277.74462890625 C 189.40191650390625 322.4150390625 193.2326202392578 310.74407958984375 181.5545654296875 312.661865234375 C 149.46583557128906 315.6763916015625 150.33746337890625 306.8897399902344 130.45176696777344 304.1873779296875 C 163.44992065429688 276.4186096191406 135.6977996826172 293.4163513183594 163.159423828125 263.1246643066406 C 171.72532653808594 262.77899169921875 190.2518310546875 272.2295227050781 192.6880645751953 277.74462890625" fill="rgb(7, 0, 5)" opacity="0.93475467" stroke="rgb(90, 232, 236)" stroke-linecap="round" stroke-linejoin="round" stroke-opacity="0.40865332" stroke-width="0.0"/>
    <path d="M 169.0 329.0 C 168.3301239013672 331.5 166.5 333.33013916015625 164.0 334.0 C 161.5 333.33013916015625 159.6698760986328 331.5 159.0 329.0 C 159.6698760986328 326.5 161.5 324.66986083984375 164.0 324.0 C 166.5 324.66986083984375 168.3301239013672 326.5 169.0 329.0" fill="rgb(131, 165, 178)" opacity="1.0" stroke="rgb(120, 37, 112)" stroke-linecap="round" stroke-linejoin="round" stroke-opacity="0.62810665" stroke-width="0.0"/>
  </g>
</svg>
