<?xml version="1.0" ?>
<svg height="768" version="1.1" width="768" xmlns="http://www.w3.org/2000/svg">
  <defs/>
  <g>
    <path d="M 766.8245239257812 807.923828125 C 306.1968078613281 772.5636596679688 161.74002075195312 713.186279296875 -42.54951477050781 664.6090698242188 C -3.955002546310425 270.17303466796875 8.350981712341309 339.29541015625 -3.048074722290039 -18.854930877685547 C 538.4714965820312 -23.474950790405273 612.673095703125 -16.914928436279297 794.1691284179688 2.3782613277435303 C 788.5914306640625 284.9244079589844 779.7975463867188 338.8821105957031 766.8245239257812 807.923828125" fill="rgb(133, 161, 166)" opacity="0.9809553" stroke="rgb(12, 77, 72)" stroke-linecap="round" stroke-linejoin="round" stroke-opacity="0.61874783" stroke-width="0.0"/>
    <path d="M 423.819091796875 331.8522644042969 C 539.8934326171875 406.4378967285156 618.590576171875 361.8331298828125 822.9874877929688 635.8329467773438 C 742.5186157226562 664.3602905273438 400.1474304199219 414.7684020996094 152.4974365234375 575.6775512695312 C 432.5405578613281 229.39675903320312 62.8522834777832 479.5019226074219 113.6263427734375 223.0814666748047 C 263.90435791015625 109.3988037109375 301.37017822265625 323.05029296875 423.819091796875 331.8522644042969" fill="rgb(28, 106, 62)" opacity="0.6792184" stroke="rgb(142, 239, 62)" stroke-linecap="round" stroke-linejoin="round" stroke-opacity="0.6742211" stroke-width="0.0"/>
    <path d="M 188.8497772216797 226.5088653564453 C 188.33831787109375 233.0661163330078 185.28225708007812 233.79034423828125 182.6099090576172 234.96490478515625 C 178.7788848876953 235.26687622070312 178.34866333007812 233.04974365234375 178.49766540527344 231.2758026123047 C 178.3166046142578 228.81381225585938 184.1419677734375 225.9346160888672 185.64051818847656 226.57003784179688 C 181.0771942138672 226.2882537841797 189.23487854003906 225.45570373535156 188.8497772216797 226.5088653564453" fill="rgb(4, 0, 2)" opacity="1.0" stroke="rgb(108, 227, 103)" stroke-linecap="round" stroke-linejoin="round" stroke-opacity="0.5134671" stroke-width="0.0"/>
    <path d="M 310.1089782714844 537.0090942382812 C 280.45831298828125 561.2953491210938 347.6050720214844 495.8353576660156 211.8667449951172 535.89599609375 C 203.00656127929688 563.4459838867188 126.14164733886719 643.2898559570312 157.208740234375 571.833984375 C 260.93646240234375 447.45941162109375 148.6996612548828 553.5489501953125 188.67010498046875 499.45159912109375 C 194.082763671875 493.4779052734375 335.5621032714844 484.3603820800781 310.1089782714844 537.0090942382812" fill="rgb(18, 15, 16)" opacity="1.0" stroke="rgb(4, 45, 250)" stroke-linecap="round" stroke-linejoin="round" stroke-opacity="0.9083855" stroke-width="0.0"/>
    <path d="M 461.0 486.0 C 460.33013916015625 488.5 458.5 490.33013916015625 456.0 491.0 C 453.5 490.33013916015625 451.66986083984375 488.5 451.0 486.0 C 451.66986083984375 483.5 453.5 481.66986083984375 456.0 481.0 C 458.5 481.66986083984375 460.33013916015625 483.5 461.0 486.0" fill="rgb(214, 88, 35)" opacity="1.0" stroke="rgb(18, 228, 169)" stroke-linecap="round" stroke-linejoin="round" stroke-opacity="0.1384647" stroke-width="0.0"/>
  </g>
</svg>
