<?xml version="1.0" ?>
<svg height="768" version="1.1" width="768" xmlns="http://www.w3.org/2000/svg">
  <defs/>
  <g>
    <path d="M 766.820068359375 808.0113525390625 C 305.8843078613281 772.7876586914062 161.3442840576172 713.4049072265625 -42.621829986572266 664.7394409179688 C -3.981624126434326 270.17303466796875 8.310309410095215 339.2752685546875 -3.0754613876342773 -18.85575294494629 C 538.4714965820312 -23.474950790405273 612.673095703125 -16.914928436279297 794.1691284179688 2.3782613277435303 C 788.5914306640625 284.9244079589844 779.7975463867188 338.8821105957031 766.820068359375 808.0113525390625" fill="rgb(127, 163, 171)" opacity="0.98890996" stroke="rgb(12, 77, 72)" stroke-linecap="round" stroke-linejoin="round" stroke-opacity="0.61874783" stroke-width="0.0"/>
    <path d="M 407.34844970703125 326.2942810058594 C 543.5369873046875 405.5089111328125 629.5762329101562 370.25885009765625 830.863037109375 644.21435546875 C 764.0540161132812 665.3468627929688 425.8503112792969 432.6930236816406 169.07858276367188 554.9774169921875 C 444.0761413574219 222.59288024902344 47.722373962402344 479.3336181640625 124.65788269042969 215.18902587890625 C 263.97869873046875 121.33951568603516 313.4630126953125 325.2456359863281 407.34844970703125 326.2942810058594" fill="rgb(12, 97, 46)" opacity="0.7555262" stroke="rgb(142, 239, 62)" stroke-linecap="round" stroke-linejoin="round" stroke-opacity="0.6742211" stroke-width="0.0"/>
    <path d="M 189.07473754882812 226.88197326660156 C 187.8761749267578 234.11741638183594 185.3885955810547 233.64810180664062 182.73965454101562 234.79261779785156 C 178.94769287109375 235.6402130126953 178.238525390625 232.816650390625 178.5874786376953 230.93226623535156 C 178.32952880859375 228.8753204345703 184.03732299804688 225.94920349121094 185.34442138671875 226.6840362548828 C 180.7284698486328 226.23101806640625 188.91299438476562 224.96331787109375 189.07473754882812 226.88197326660156" fill="rgb(0, 0, 1)" opacity="1.0" stroke="rgb(108, 227, 103)" stroke-linecap="round" stroke-linejoin="round" stroke-opacity="0.5134671" stroke-width="0.0"/>
    <path d="M 310.38916015625 536.8021240234375 C 279.3561096191406 561.141845703125 348.9747314453125 497.0269775390625 211.89524841308594 535.3524169921875 C 208.5347442626953 555.8892211914062 122.01488494873047 649.2725830078125 158.84335327148438 568.3056640625 C 261.89117431640625 453.1607360839844 149.7040252685547 548.772705078125 188.918212890625 499.09417724609375 C 194.9390106201172 494.5652770996094 332.87957763671875 481.95697021484375 310.38916015625 536.8021240234375" fill="rgb(17, 14, 16)" opacity="1.0" stroke="rgb(4, 45, 250)" stroke-linecap="round" stroke-linejoin="round" stroke-opacity="0.9083855" stroke-width="0.0"/>
    <path d="M 696.664794921875 485.3444519042969 C 763.0665893554688 567.7044677734375 800.8748168945312 520.7302856445312 474.1251220703125 496.2558898925781 C 264.9894714355469 478.7827453613281 346.8251037597656 500.47076416015625 350.8388977050781 456.8236999511719 C 406.0738830566406 475.623291015625 381.25537109375 470.1225280761719 446.5614318847656 478.7370300292969 C 528.3209838867188 484.94873046875 513.2597045898438 485.9960632324219 696.664794921875 485.3444519042969" fill="rgb(145, 172, 179)" opacity="0.8995739" stroke="rgb(18, 228, 169)" stroke-linecap="round" stroke-linejoin="round" stroke-opacity="0.1384647" stroke-width="0.0"/>
    <path d="M 367.9554443359375 767.44482421875 C 128.74644470214844 795.0968627929688 118.65943908691406 783.0560302734375 11.796472549438477 777.82763671875 C -11.87857723236084 786.9454345703125 -15.19631576538086 788.1581420898438 -11.841864585876465 658.2518920898438 C -2.4497270584106445 644.261962890625 7.420482635498047 644.9025268554688 59.21696090698242 650.6032104492188 C 178.89927673339844 621.166259765625 261.7273254394531 516.9409790039062 367.9554443359375 767.44482421875" fill="rgb(133, 167, 178)" opacity="1.0" stroke="rgb(159, 206, 116)" stroke-linecap="round" stroke-linejoin="round" stroke-opacity="0.08451085" stroke-width="0.0"/>
    <path d="M 253.40899658203125 347.5816955566406 C 337.94024658203125 432.5829162597656 312.6739196777344 326.7554931640625 318.4288330078125 508.1378479003906 C 122.32946014404297 471.38629150390625 316.5194091796875 489.7132263183594 213.71791076660156 416.82763671875 C 129.58139038085938 278.95361328125 247.84719848632812 338.9019775390625 145.44915771484375 217.71409606933594 C 271.1469421386719 197.75637817382812 189.8802947998047 284.270751953125 253.40899658203125 347.5816955566406" fill="rgb(225, 141, 77)" opacity="1.0" stroke="rgb(0, 105, 147)" stroke-linecap="round" stroke-linejoin="round" stroke-opacity="0.3611284" stroke-width="0.0"/>
    <path d="M 175.68760681152344 256.60150146484375 C 166.9180908203125 247.0055694580078 103.01531219482422 307.51788330078125 162.931640625 344.3197326660156 C 125.28236389160156 343.56878662109375 109.19819641113281 309.08319091796875 112.6001968383789 273.95257568359375 C 116.3277359008789 243.19381713867188 134.9137725830078 218.97056579589844 157.23583984375 216.0326385498047 C 168.84088134765625 229.64761352539062 159.81610107421875 243.97056579589844 175.68760681152344 256.60150146484375" fill="rgb(10, 11, 12)" opacity="1.0" stroke="rgb(123, 164, 252)" stroke-linecap="round" stroke-linejoin="round" stroke-opacity="0.8283837" stroke-width="0.0"/>
    <path d="M 601.2695922851562 485.3631896972656 C 546.2039184570312 492.1258850097656 518.6781005859375 498.6170654296875 484.14117431640625 493.64959716796875 C 466.18939208984375 494.4683532714844 411.12908935546875 488.96112060546875 383.7533874511719 469.4640808105469 C 389.8664245605469 468.73004150390625 410.2633361816406 475.5530700683594 479.8099060058594 480.5110778808594 C 478.3827819824219 479.69317626953125 540.6776733398438 486.5180969238281 601.2695922851562 485.3631896972656" fill="rgb(224, 80, 19)" opacity="0.8307665" stroke="rgb(129, 124, 169)" stroke-linecap="round" stroke-linejoin="round" stroke-opacity="0.75878716" stroke-width="0.0"/>
    <path d="M 192.7409210205078 278.45318603515625 C 189.54580688476562 323.66748046875 192.70599365234375 310.771484375 181.27215576171875 312.7023010253906 C 144.2717742919922 316.4756774902344 157.2571563720703 307.3946533203125 129.5451202392578 305.26605224609375 C 164.3948974609375 275.07989501953125 135.19044494628906 294.19384765625 162.98138427734375 263.25164794921875 C 170.56822204589844 262.2435302734375 191.78231811523438 272.6065673828125 192.7409210205078 278.45318603515625" fill="rgb(6, 0, 5)" opacity="0.93515956" stroke="rgb(90, 232, 236)" stroke-linecap="round" stroke-linejoin="round" stroke-opacity="0.40865332" stroke-width="0.0"/>
    <path d="M 188.3848114013672 347.4937744140625 C 188.05975341796875 380.8687438964844 204.80886840820312 387.282470703125 174.74380493164062 365.3901062011719 C 159.56776428222656 341.3504943847656 154.8740997314453 344.22222900390625 137.76712036132812 315.1525573730469 C 131.3504180908203 296.25067138671875 137.47071838378906 310.55303955078125 162.1438446044922 313.46795654296875 C 201.5281982421875 316.93280029296875 186.96847534179688 297.4892578125 188.3848114013672 347.4937744140625" fill="rgb(134, 168, 178)" opacity="0.9908907" stroke="rgb(120, 37, 112)" stroke-linecap="round" stroke-linejoin="round" stroke-opacity="0.62810665" stroke-width="0.0"/>
    <path d="M 621.0 446.0 C 620.3301391601562 448.5 618.5 450.33013916015625 616.0 451.0 C 613.5 450.33013916015625 611.6698608398438 448.5 611.0 446.0 C 611.6698608398438 443.5 613.5 441.66986083984375 616.0 441.0 C 618.5 441.66986083984375 620.3301391601562 443.5 621.0 446.0" fill="rgb(133, 168, 176)" opacity="1.0" stroke="rgb(114, 52, 147)" stroke-linecap="round" stroke-linejoin="round" stroke-opacity="0.060832683" stroke-width="0.0"/>
  </g>
</svg>
