<?xml version="1.0" ?>
<svg height="768" version="1.1" width="768" xmlns="http://www.w3.org/2000/svg">
  <defs/>
  <g>
    <path d="M 766.7076416015625 807.483154296875 C 332.3126220703125 773.7799682617188 181.0820770263672 717.759033203125 -43.11393737792969 670.2605590820312 C -9.438307762145996 270.20513916015625 6.755002498626709 230.67694091796875 8.871360778808594 -31.132789611816406 C 533.9674072265625 -22.708723068237305 608.6956787109375 -16.816614151000977 792.8291015625 1.9192397594451904 C 790.08544921875 292.87158203125 780.8176879882812 350.9581298828125 766.7076416015625 807.483154296875" fill="rgb(123, 160, 162)" opacity="0.99734807" stroke="rgb(252, 228, 50)" stroke-linecap="round" stroke-linejoin="round" stroke-opacity="0.33959597" stroke-width="0.0"/>
    <path d="M 364.7724914550781 311.02532958984375 C 544.2579345703125 396.77978515625 606.0443115234375 374.5136413574219 738.5117797851562 600.205810546875 C 255.33534240722656 481.701416015625 292.39715576171875 497.22845458984375 81.53362274169922 169.3480987548828 C 270.5099182128906 389.59844970703125 266.0104675292969 144.79385375976562 104.84031677246094 233.6160888671875 C 235.78662109375 101.41067504882812 336.1409606933594 320.5198059082031 364.7724914550781 311.02532958984375" fill="rgb(25, 107, 59)" opacity="0.95283633" stroke="rgb(124, 191, 78)" stroke-linecap="round" stroke-linejoin="round" stroke-opacity="0.3477447" stroke-width="0.0"/>
    <path d="M 319.6331787109375 517.8356323242188 C 279.0244140625 556.2518920898438 292.1232604980469 453.5978698730469 171.3094940185547 577.0889892578125 C 371.75848388671875 379.59674072265625 132.8496856689453 505.7189025878906 199.9408721923828 251.7952423095703 C 253.67433166503906 249.17039489746094 188.74710083007812 290.54962158203125 270.3545227050781 364.33740234375 C 340.3483581542969 417.0181579589844 309.9455261230469 345.92755126953125 319.6331787109375 517.8356323242188" fill="rgb(234, 118, 40)" opacity="0.97376966" stroke="rgb(230, 217, 3)" stroke-linecap="round" stroke-linejoin="round" stroke-opacity="0.10966712" stroke-width="0.0"/>
    <path d="M 184.53756713867188 957.1085815429688 C 52.62885284423828 797.4444580078125 34.20676040649414 784.7798461914062 -24.208200454711914 767.1190795898438 C -210.06752014160156 692.665771484375 -2.6235828399658203 777.7783203125 208.36865234375 403.1650085449219 C -373.3988342285156 513.7685546875 -62.70600509643555 591.268798828125 453.217041015625 638.8685302734375 C 355.7563171386719 912.1099243164062 266.2367858886719 892.296630859375 184.53756713867188 957.1085815429688" fill="rgb(133, 167, 178)" opacity="1.0" stroke="rgb(209, 25, 12)" stroke-linecap="round" stroke-linejoin="round" stroke-opacity="0.15282945" stroke-width="0.0"/>
    <path d="M 313.2829284667969 532.8316650390625 C 279.4842834472656 567.6678466796875 348.583251953125 494.2401123046875 213.83409118652344 536.1122436523438 C 157.21290588378906 624.1235961914062 114.96348571777344 618.8489990234375 188.75619506835938 530.9872436523438 C 162.19049072265625 491.8471374511719 209.36721801757812 494.0830078125 257.1402587890625 494.529296875 C 245.09841918945312 509.45623779296875 313.2539367675781 480.81414794921875 313.2829284667969 532.8316650390625" fill="rgb(10, 9, 13)" opacity="0.9359499" stroke="rgb(26, 171, 60)" stroke-linecap="round" stroke-linejoin="round" stroke-opacity="0.8130454" stroke-width="0.0"/>
  </g>
</svg>
