<?xml version="1.0" ?>
<svg height="768" version="1.1" width="768" xmlns="http://www.w3.org/2000/svg">
  <defs/>
  <g>
    <path d="M 766.703125 807.2481689453125 C 333.0738220214844 773.216796875 182.12974548339844 717.1844482421875 -42.93661880493164 669.9202270507812 C -9.403203964233398 270.2387390136719 6.814029216766357 230.78147888183594 8.924821853637695 -31.12196159362793 C 533.9674072265625 -22.708723068237305 608.6956787109375 -16.816614151000977 792.8291015625 1.9192397594451904 C 790.08544921875 292.87158203125 780.8176879882812 350.9581298828125 766.703125 807.2481689453125" fill="rgb(121, 157, 160)" opacity="0.9995855" stroke="rgb(252, 228, 50)" stroke-linecap="round" stroke-linejoin="round" stroke-opacity="0.33959597" stroke-width="0.0"/>
    <path d="M 373.74871826171875 314.74798583984375 C 523.9424438476562 388.1077880859375 616.73828125 380.3752746582031 732.773681640625 594.9282836914062 C 250.6212158203125 491.0215148925781 301.12493896484375 485.9668273925781 86.13885498046875 179.72280883789062 C 270.0157470703125 377.08203125 265.0184326171875 150.7890625 105.30074310302734 231.47988891601562 C 243.57974243164062 104.11486053466797 328.5072021484375 320.2080383300781 373.74871826171875 314.74798583984375" fill="rgb(25, 107, 59)" opacity="0.95385927" stroke="rgb(124, 191, 78)" stroke-linecap="round" stroke-linejoin="round" stroke-opacity="0.3477447" stroke-width="0.0"/>
    <path d="M 320.6697692871094 511.3848876953125 C 311.8697509765625 542.3511352539062 318.2490539550781 501.4301452636719 172.54246520996094 545.5375366210938 C 368.4057922363281 390.00634765625 135.2054901123047 504.36041259765625 199.1562042236328 251.6163330078125 C 254.69287109375 247.4449462890625 186.8026885986328 296.0402526855469 276.97052001953125 369.2233581542969 C 339.75640869140625 411.74053955078125 309.19683837890625 353.814208984375 320.6697692871094 511.3848876953125" fill="rgb(186, 100, 39)" opacity="1.0" stroke="rgb(230, 217, 3)" stroke-linecap="round" stroke-linejoin="round" stroke-opacity="0.10966712" stroke-width="0.0"/>
  </g>
</svg>
