<?xml version="1.0" ?>
<svg height="240" version="1.1" width="240" xmlns="http://www.w3.org/2000/svg">
  <defs/>
  <g>
    <path d="M 238.44859313964844 177.60777282714844 C 231.9683380126953 216.89767456054688 116.95191955566406 236.88075256347656 38.72571563720703 209.57281494140625 C -2.105574607849121 191.0948028564453 -3.719069242477417 186.92678833007812 6.775594711303711 120.845703125 C 28.194778442382812 21.144901275634766 98.93002319335938 9.242765426635742 153.8974609375 22.010786056518555 C 220.17947387695312 40.765281677246094 238.88107299804688 114.80972290039062 238.44859313964844 177.60777282714844" fill="rgb(252, 186, 0)" opacity="0.8865469" stroke="rgb(68, 54, 93)" stroke-linecap="round" stroke-linejoin="round" stroke-opacity="0.58672726" stroke-width="0.0"/>
    <path d="M 181.09617614746094 132.66371154785156 C 207.68161010742188 122.2009048461914 178.78866577148438 189.19219970703125 113.29393768310547 184.10926818847656 C 57.290016174316406 180.51023864746094 34.79821014404297 121.03792572021484 59.04457473754883 132.9584503173828 C 73.84186553955078 175.68408203125 123.29642486572266 173.27633666992188 117.84038543701172 172.79005432128906 C 133.3312225341797 174.30184936523438 169.33238220214844 167.36489868164062 181.09617614746094 132.66371154785156" fill="rgb(35, 38, 48)" opacity="0.94250506" stroke="rgb(180, 59, 29)" stroke-linecap="round" stroke-linejoin="round" stroke-opacity="0.48410302" stroke-width="0.0"/>
    <path d="M 215.4950408935547 171.4265594482422 C 215.9716339111328 184.68045043945312 202.8553466796875 198.28872680664062 189.5950164794922 194.61013793945312 C 177.34930419921875 191.49261474609375 169.6197509765625 177.36451721191406 156.0691375732422 176.3381805419922 C 177.6158905029297 165.7390594482422 187.0592041015625 149.27154541015625 190.7224578857422 138.66087341308594 C 202.30812072753906 141.55433654785156 215.8341827392578 157.45921325683594 215.4950408935547 171.4265594482422" fill="rgb(210, 77, 150)" opacity="0.90208185" stroke="rgb(2, 56, 65)" stroke-linecap="round" stroke-linejoin="round" stroke-opacity="0.0010101862" stroke-width="0.0"/>
    <path d="M 80.0 94.0 C 79.33012390136719 96.5 77.5 98.33012390136719 75.0 99.0 C 72.5 98.33012390136719 70.66987609863281 96.5 70.0 94.0 C 70.66987609863281 91.5 72.5 89.66987609863281 75.0 89.0 C 77.5 89.66987609863281 79.33012390136719 91.5 80.0 94.0" fill="rgb(47, 47, 47)" opacity="1.0" stroke="rgb(54, 183, 130)" stroke-linecap="round" stroke-linejoin="round" stroke-opacity="0.40241364" stroke-width="0.0"/>
  </g>
</svg>
