<?xml version="1.0" ?>
<svg height="240" version="1.1" width="240" xmlns="http://www.w3.org/2000/svg">
  <defs/>
  <g>
    <path d="M 238.4470977783203 177.4443817138672 C 232.40760803222656 216.9076385498047 116.1953125 237.1529083251953 37.81633758544922 209.2161102294922 C -2.521306037902832 190.66915893554688 -3.1597352027893066 186.07870483398438 6.405890464782715 122.63848114013672 C 27.46973419189453 20.895233154296875 98.85131072998047 9.514558792114258 153.12693786621094 21.815805435180664 C 220.22845458984375 40.277320861816406 238.84860229492188 115.0005874633789 238.4470977783203 177.4443817138672" fill="rgb(252, 186, 0)" opacity="0.88743657" stroke="rgb(68, 54, 93)" stroke-linecap="round" stroke-linejoin="round" stroke-opacity="0.58672726" stroke-width="0.0"/>
    <path d="M 181.1184539794922 132.54776000976562 C 207.7052001953125 122.18370056152344 178.52159118652344 189.37136840820312 112.90941619873047 184.15541076660156 C 57.29688262939453 180.32907104492188 34.762901306152344 121.09078216552734 59.00127029418945 132.99720764160156 C 73.8070068359375 175.7249298095703 123.27823638916016 173.36044311523438 117.83687591552734 172.869140625 C 133.37722778320312 174.35519409179688 169.38844299316406 167.44512939453125 181.1184539794922 132.54776000976562" fill="rgb(34, 38, 48)" opacity="0.9395795" stroke="rgb(180, 59, 29)" stroke-linecap="round" stroke-linejoin="round" stroke-opacity="0.48410302" stroke-width="0.0"/>
    <path d="M 215.40673828125 171.86239624023438 C 215.73130798339844 184.7495880126953 202.91888427734375 198.31353759765625 189.61468505859375 194.64183044433594 C 177.65682983398438 191.57440185546875 169.2681121826172 176.9242401123047 155.9962921142578 176.39918518066406 C 177.59585571289062 165.8479766845703 187.04385375976562 149.12660217285156 190.6263885498047 138.82379150390625 C 201.715576171875 141.362060546875 216.10552978515625 157.245361328125 215.40673828125 171.86239624023438" fill="rgb(211, 78, 149)" opacity="0.9074891" stroke="rgb(2, 56, 65)" stroke-linecap="round" stroke-linejoin="round" stroke-opacity="0.0010101862" stroke-width="0.0"/>
    <path d="M 96.70597076416016 106.85603332519531 C 81.56271362304688 90.48077392578125 78.86707305908203 87.66688537597656 90.30731201171875 99.8940200805664 C 75.58753967285156 89.44943237304688 61.012855529785156 97.39845275878906 56.28495788574219 106.47518157958984 C 36.69425582885742 108.48528289794922 57.07504653930664 79.9095458984375 82.72479248046875 85.57962799072266 C 96.61084747314453 87.5934066772461 113.52099609375 105.8936538696289 96.70597076416016 106.85603332519531" fill="rgb(45, 45, 47)" opacity="0.9837271" stroke="rgb(54, 183, 130)" stroke-linecap="round" stroke-linejoin="round" stroke-opacity="0.40241364" stroke-width="0.0"/>
    <path d="M 169.0 94.0 C 168.3301239013672 96.5 166.5 98.33012390136719 164.0 99.0 C 161.5 98.33012390136719 159.6698760986328 96.5 159.0 94.0 C 159.6698760986328 91.5 161.5 89.66987609863281 164.0 89.0 C 166.5 89.66987609863281 168.3301239013672 91.5 169.0 94.0" fill="rgb(47, 47, 47)" opacity="1.0" stroke="rgb(17, 16, 217)" stroke-linecap="round" stroke-linejoin="round" stroke-opacity="0.33979937" stroke-width="0.0"/>
  </g>
</svg>
