<?xml version="1.0" ?>
<svg height="768" version="1.1" width="768" xmlns="http://www.w3.org/2000/svg">
  <defs/>
  <g>
    <path d="M 767.6598510742188 661.510009765625 C 67.88339233398438 620.6461791992188 41.06919860839844 544.2285766601562 -57.28605270385742 447.29443359375 C -24.735015869140625 -105.05168151855469 34.74175262451172 -111.34031677246094 142.79226684570312 -98.01367950439453 C 273.5696716308594 -15.596017837524414 296.35430908203125 -14.830979347229004 690.016357421875 -18.58629035949707 C 761.7245483398438 -157.6446533203125 789.6514282226562 -139.51976013183594 767.6598510742188 661.510009765625" fill="rgb(110, 144, 153)" opacity="1.0" stroke="rgb(238, 56, 237)" stroke-linecap="round" stroke-linejoin="round" stroke-opacity="0.94926226" stroke-width="0.0"/>
    <path d="M 538.0297241210938 283.6708679199219 C 520.2828369140625 561.1690063476562 602.0333251953125 597.3489990234375 436.9346618652344 387.773681640625 C 345.98876953125 417.6982421875 384.22406005859375 350.9148864746094 292.7926330566406 494.6658020019531 C 275.997802734375 188.9986114501953 30.853857040405273 191.83981323242188 319.2627258300781 194.6970977783203 C 424.6033020019531 347.0902099609375 367.0697021484375 274.140625 538.0297241210938 283.6708679199219" fill="rgb(40, 42, 65)" opacity="0.86582065" stroke="rgb(169, 13, 150)" stroke-linecap="round" stroke-linejoin="round" stroke-opacity="0.0069718678" stroke-width="0.0"/>
    <path d="M 778.544189453125 766.8195190429688 C 478.81201171875 786.8358154296875 457.27923583984375 786.156005859375 -42.12299728393555 765.9063110351562 C -27.86032485961914 455.7723388671875 46.00767135620117 418.05462646484375 165.50914001464844 293.0169677734375 C 330.4044494628906 644.01123046875 180.8817138671875 577.4141235351562 554.4734497070312 493.3926696777344 C 686.6495361328125 331.862548828125 745.247314453125 312.403076171875 778.544189453125 766.8195190429688" fill="rgb(120, 163, 169)" opacity="1.0" stroke="rgb(234, 26, 143)" stroke-linecap="round" stroke-linejoin="round" stroke-opacity="0.91724706" stroke-width="0.0"/>
    <path d="M 204.0 254.0 C 203.3301239013672 256.5 201.5 258.33013916015625 199.0 259.0 C 196.5 258.33013916015625 194.6698760986328 256.5 194.0 254.0 C 194.6698760986328 251.5 196.5 249.6698760986328 199.0 249.0 C 201.5 249.6698760986328 203.3301239013672 251.5 204.0 254.0" fill="rgb(23, 20, 46)" opacity="1.0" stroke="rgb(30, 1, 102)" stroke-linecap="round" stroke-linejoin="round" stroke-opacity="0.031401128" stroke-width="0.0"/>
  </g>
</svg>
