<?xml version="1.0" ?>
<svg height="768" version="1.1" width="768" xmlns="http://www.w3.org/2000/svg">
  <defs/>
  <g>
    <path d="M 766.3933715820312 804.49951171875 C 440.6493835449219 822.6638793945312 321.99456787109375 814.131591796875 64.85980987548828 731.6004638671875 C 128.8890838623047 330.14361572265625 159.93289184570312 354.5104675292969 188.63296508789062 -33.17749786376953 C 691.6119995117188 -35.55978012084961 859.1473388671875 -5.492208003997803 883.9638671875 76.48468780517578 C 785.3821411132812 300.7633361816406 783.822509765625 321.9046630859375 766.3933715820312 804.49951171875" fill="rgb(101, 110, 129)" opacity="0.9481614" stroke="rgb(191, 180, 93)" stroke-linecap="round" stroke-linejoin="round" stroke-opacity="0.43015158" stroke-width="0.0"/>
    <path d="M 205.41702270507812 -18.826547622680664 C 197.24900817871094 245.6939239501953 187.4444122314453 274.9371643066406 188.7439727783203 618.2224731445312 C -193.56716918945312 640.2554321289062 -92.22451782226562 568.0237426757812 -14.636629104614258 463.4734191894531 C -13.50350284576416 152.1530303955078 -13.443854331970215 148.49197387695312 -102.714599609375 38.8411865234375 C -27.58142852783203 1.2891079187393188 3.8869595527648926 -18.60991096496582 205.41702270507812 -18.826547622680664" fill="rgb(126, 145, 168)" opacity="0.9999483" stroke="rgb(178, 187, 93)" stroke-linecap="round" stroke-linejoin="round" stroke-opacity="0.27192965" stroke-width="0.0"/>
    <path d="M 581.7250366210938 424.29168701171875 C 508.2225036621094 493.3287048339844 407.8913269042969 435.2598571777344 422.8878173828125 563.5448608398438 C 286.693115234375 563.0589599609375 424.7265625 569.5700073242188 358.9321594238281 493.783935546875 C 490.0539245605469 481.560302734375 379.67938232421875 456.4380187988281 408.8258972167969 392.12628173828125 C 561.3032836914062 501.39105224609375 562.9522705078125 349.0010681152344 581.7250366210938 424.29168701171875" fill="rgb(250, 248, 245)" opacity="0.97099584" stroke="rgb(95, 211, 37)" stroke-linecap="round" stroke-linejoin="round" stroke-opacity="0.6531062" stroke-width="0.0"/>
    <path d="M 590.8485717773438 464.9803771972656 C 586.8204345703125 539.2794799804688 605.6390991210938 506.91156005859375 555.5297241210938 557.3540649414062 C 440.4669494628906 558.9578247070312 485.20281982421875 553.6339721679688 470.9418029785156 562.5369873046875 C 401.54803466796875 492.986083984375 444.8686218261719 452.38983154296875 492.4886169433594 466.0602111816406 C 596.1157836914062 449.56939697265625 574.0402221679688 390.2193908691406 590.8485717773438 464.9803771972656" fill="rgb(12, 0, 15)" opacity="0.7248402" stroke="rgb(120, 249, 11)" stroke-linecap="round" stroke-linejoin="round" stroke-opacity="0.75945926" stroke-width="0.0"/>
    <path d="M 552.0 389.0 C 551.3301391601562 391.5 549.5 393.33013916015625 547.0 394.0 C 544.5 393.33013916015625 542.6698608398438 391.5 542.0 389.0 C 542.6698608398438 386.5 544.5 384.66986083984375 547.0 384.0 C 549.5 384.66986083984375 551.3301391601562 386.5 552.0 389.0" fill="rgb(14, 8, 25)" opacity="1.0" stroke="rgb(142, 190, 229)" stroke-linecap="round" stroke-linejoin="round" stroke-opacity="0.4989664" stroke-width="0.0"/>
  </g>
</svg>
