<?xml version="1.0" ?>
<svg height="768" version="1.1" width="768" xmlns="http://www.w3.org/2000/svg">
  <defs/>
  <g>
    <path d="M 292.80352783203125 -260.59039306640625 C 501.18096923828125 -172.4067840576172 615.2704467773438 -165.31341552734375 636.3218383789062 548.7210693359375 C -319.2978210449219 554.8092651367188 -155.95228576660156 529.4137573242188 -20.627885818481445 464.8707275390625 C -14.196369171142578 -27.16664695739746 -12.289041519165039 -21.1759090423584 36.96824264526367 -13.417956352233887 C 129.75143432617188 -22.807964324951172 156.078369140625 -55.87980270385742 292.80352783203125 -260.59039306640625" fill="rgb(75, 84, 101)" opacity="0.9834963" stroke="rgb(4, 162, 113)" stroke-linecap="round" stroke-linejoin="round" stroke-opacity="0.15738411" stroke-width="0.0"/>
    <path d="M 438.9421691894531 448.754638671875 C 427.3441467285156 576.5601196289062 376.22064208984375 562.9449462890625 354.895751953125 553.8340454101562 C 337.75323486328125 504.6455383300781 346.6453857421875 437.668701171875 344.64581298828125 460.0792541503906 C 404.5491027832031 464.2815856933594 352.4922790527344 343.5027160644531 426.1625061035156 328.98895263671875 C 434.9283142089844 376.0550842285156 429.89373779296875 387.2380065917969 438.9421691894531 448.754638671875" fill="rgb(248, 248, 248)" opacity="1.0" stroke="rgb(0, 105, 14)" stroke-linecap="round" stroke-linejoin="round" stroke-opacity="0.703737" stroke-width="0.0"/>
    <path d="M 767.1742553710938 686.82861328125 C 642.9628295898438 665.9861450195312 582.4547119140625 637.9425659179688 414.8584289550781 586.9594116210938 C 509.60137939453125 73.82928466796875 517.5435180664062 -29.237438201904297 552.4967651367188 -34.64375686645508 C 724.7301635742188 -16.882572174072266 745.5869140625 -14.677336692810059 843.770751953125 8.693227767944336 C 781.6405639648438 89.89127349853516 782.7884521484375 95.84017181396484 767.1742553710938 686.82861328125" fill="rgb(132, 149, 170)" opacity="0.96222264" stroke="rgb(12, 19, 111)" stroke-linecap="round" stroke-linejoin="round" stroke-opacity="0.39392042" stroke-width="0.0"/>
    <path d="M 387.04083251953125 561.7550048828125 C 458.4766845703125 508.2626647949219 614.98779296875 404.3881530761719 749.7432250976562 766.1792602539062 C 217.32518005371094 788.1159057617188 151.51710510253906 786.6390991210938 -6.3322434425354 785.8280029296875 C -11.067484855651855 521.7435913085938 -47.14896011352539 408.130126953125 13.961451530456543 65.36225128173828 C 709.9324340820312 99.26905822753906 4.679841041564941 482.8976745605469 387.04083251953125 561.7550048828125" fill="rgb(129, 146, 166)" opacity="1.0" stroke="rgb(31, 196, 96)" stroke-linecap="round" stroke-linejoin="round" stroke-opacity="0.1806251" stroke-width="0.0"/>
    <path d="M 322.0 344.0 C 321.33013916015625 346.5 319.5 348.33013916015625 317.0 349.0 C 314.5 348.33013916015625 312.66986083984375 346.5 312.0 344.0 C 312.66986083984375 341.5 314.5 339.66986083984375 317.0 339.0 C 319.5 339.66986083984375 321.33013916015625 341.5 322.0 344.0" fill="rgb(4, 3, 15)" opacity="1.0" stroke="rgb(59, 211, 80)" stroke-linecap="round" stroke-linejoin="round" stroke-opacity="0.067595124" stroke-width="0.0"/>
  </g>
</svg>
