<?xml version="1.0" ?>
<svg height="768" version="1.1" width="768" xmlns="http://www.w3.org/2000/svg">
  <defs/>
  <g>
    <path d="M 292.80352783203125 -260.59039306640625 C 501.18096923828125 -172.4067840576172 615.2704467773438 -165.31341552734375 636.3446044921875 541.8761596679688 C -318.5014343261719 547.961669921875 -155.56871032714844 525.3186645507812 -20.61349105834961 462.94219970703125 C -14.196369171142578 -27.16664695739746 -12.289041519165039 -21.1759090423584 36.96824264526367 -13.417956352233887 C 129.75143432617188 -22.807964324951172 156.078369140625 -55.87980270385742 292.80352783203125 -260.59039306640625" fill="rgb(104, 117, 134)" opacity="1.0" stroke="rgb(4, 162, 113)" stroke-linecap="round" stroke-linejoin="round" stroke-opacity="0.15738411" stroke-width="0.0"/>
    <path d="M 438.88690185546875 452.8491516113281 C 425.86181640625 570.3568115234375 388.5106506347656 550.5368041992188 350.9315185546875 551.5255126953125 C 340.3047180175781 471.9995422363281 344.6748352050781 450.08465576171875 345.505615234375 460.2990417480469 C 404.15594482421875 462.89471435546875 353.33953857421875 344.1884460449219 425.59222412109375 329.2924499511719 C 433.56097412109375 367.3191223144531 431.1047668457031 395.0369567871094 438.88690185546875 452.8491516113281" fill="rgb(249, 250, 249)" opacity="1.0" stroke="rgb(0, 105, 14)" stroke-linecap="round" stroke-linejoin="round" stroke-opacity="0.703737" stroke-width="0.0"/>
    <path d="M 767.1571655273438 664.7892456054688 C 669.3839721679688 648.1403198242188 604.4171142578125 625.4525146484375 423.92901611328125 574.4771118164062 C 512.0592041015625 86.77069854736328 529.9484252929688 20.293941497802734 555.413818359375 -32.034156799316406 C 724.7301635742188 -16.882572174072266 745.5869140625 -14.677336692810059 843.770751953125 8.693227767944336 C 781.6231079101562 89.89102172851562 781.5281372070312 95.72140502929688 767.1571655273438 664.7892456054688" fill="rgb(133, 150, 171)" opacity="0.9794278" stroke="rgb(12, 19, 111)" stroke-linecap="round" stroke-linejoin="round" stroke-opacity="0.39392042" stroke-width="0.0"/>
    <path d="M 248.0 572.0 C 247.3301239013672 574.5 245.5 576.3301391601562 243.0 577.0 C 240.5 576.3301391601562 238.6698760986328 574.5 238.0 572.0 C 238.6698760986328 569.5 240.5 567.6698608398438 243.0 567.0 C 245.5 567.6698608398438 247.3301239013672 569.5 248.0 572.0" fill="rgb(137, 155, 177)" opacity="1.0" stroke="rgb(31, 196, 96)" stroke-linecap="round" stroke-linejoin="round" stroke-opacity="0.1806251" stroke-width="0.0"/>
  </g>
</svg>
