<?xml version="1.0" ?>
<svg height="768" version="1.1" width="768" xmlns="http://www.w3.org/2000/svg">
  <defs/>
  <g>
    <path d="M 292.5063781738281 -259.9087829589844 C 499.8885498046875 -170.9349365234375 613.6724243164062 -163.47918701171875 634.68505859375 540.8280639648438 C -318.5079650878906 547.3218994140625 -155.56753540039062 525.0274658203125 -20.61349105834961 462.8383483886719 C -14.196369171142578 -27.16664695739746 -12.289041519165039 -21.1759090423584 36.96824264526367 -13.417956352233887 C 129.75143432617188 -22.807964324951172 156.078369140625 -55.87980270385742 292.5063781738281 -259.9087829589844" fill="rgb(118, 132, 151)" opacity="1.0" stroke="rgb(4, 162, 113)" stroke-linecap="round" stroke-linejoin="round" stroke-opacity="0.15738411" stroke-width="0.0"/>
    <path d="M 438.7484130859375 453.94622802734375 C 425.5741271972656 559.8885498046875 397.6195983886719 553.2080688476562 350.8284912109375 551.365234375 C 340.0557861328125 464.5242919921875 345.1868591308594 452.60198974609375 345.86212158203125 460.432373046875 C 404.12664794921875 462.4068603515625 353.5126037597656 343.5756530761719 425.9875793457031 329.37506103515625 C 433.08306884765625 372.2668762207031 433.51959228515625 419.2383117675781 438.7484130859375 453.94622802734375" fill="rgb(250, 250, 249)" opacity="1.0" stroke="rgb(0, 105, 14)" stroke-linecap="round" stroke-linejoin="round" stroke-opacity="0.703737" stroke-width="0.0"/>
    <path d="M 753.0 128.0 C 752.3301391601562 130.5 750.5 132.3301239013672 748.0 133.0 C 745.5 132.3301239013672 743.6698608398438 130.5 743.0 128.0 C 743.6698608398438 125.5 745.5 123.66987609863281 748.0 123.0 C 750.5 123.66987609863281 752.3301391601562 125.5 753.0 128.0" fill="rgb(136, 155, 174)" opacity="1.0" stroke="rgb(12, 19, 111)" stroke-linecap="round" stroke-linejoin="round" stroke-opacity="0.39392042" stroke-width="0.0"/>
  </g>
</svg>
