<?xml version="1.0" ?>
<svg height="768" version="1.1" width="768" xmlns="http://www.w3.org/2000/svg">
  <defs/>
  <g>
    <path d="M 776.4884033203125 777.3528442382812 C 682.0428466796875 789.3181762695312 588.0997924804688 784.130859375 -11.850157737731934 767.5941162109375 C 10.874582290649414 422.094482421875 55.54352569580078 365.2272033691406 99.6747817993164 -34.83002471923828 C 603.4666137695312 -11.107769012451172 836.0550537109375 46.05998229980469 871.8416748046875 125.40579986572266 C 791.0031127929688 320.9058837890625 786.414794921875 367.1382141113281 776.4884033203125 777.3528442382812" fill="rgb(127, 162, 182)" opacity="1.0" stroke="rgb(203, 172, 194)" stroke-linecap="round" stroke-linejoin="round" stroke-opacity="0.48010886" stroke-width="0.0"/>
    <path d="M 433.0220642089844 404.7005920410156 C 320.12615966796875 495.5677490234375 415.0871276855469 351.1234130859375 212.52334594726562 332.5385437011719 C 64.12462615966797 323.19183349609375 56.451637268066406 411.4284362792969 54.27323913574219 370.9243469238281 C 150.32733154296875 237.69085693359375 193.89854431152344 296.9395751953125 306.77349853515625 218.95152282714844 C 513.6336669921875 257.2698974609375 589.4388427734375 182.69825744628906 433.0220642089844 404.7005920410156" fill="rgb(39, 76, 103)" opacity="0.90419686" stroke="rgb(119, 247, 150)" stroke-linecap="round" stroke-linejoin="round" stroke-opacity="0.7426354" stroke-width="0.0"/>
    <path d="M 693.0 354.0 C 692.3301391601562 356.5 690.5 358.33013916015625 688.0 359.0 C 685.5 358.33013916015625 683.6698608398438 356.5 683.0 354.0 C 683.6698608398438 351.5 685.5 349.66986083984375 688.0 349.0 C 690.5 349.66986083984375 692.3301391601562 351.5 693.0 354.0" fill="rgb(26, 69, 101)" opacity="1.0" stroke="rgb(213, 129, 0)" stroke-linecap="round" stroke-linejoin="round" stroke-opacity="0.39107174" stroke-width="0.0"/>
  </g>
</svg>
