<?xml version="1.0" ?>
<svg height="768" version="1.1" width="768" xmlns="http://www.w3.org/2000/svg">
  <defs/>
  <g>
    <path d="M 776.4884033203125 777.3528442382812 C 682.0428466796875 789.3181762695312 588.0997924804688 784.130859375 -11.849810600280762 767.5718994140625 C 10.869673728942871 422.0902404785156 55.48646545410156 365.132568359375 99.48021697998047 -34.94903564453125 C 603.6145629882812 -11.222210884094238 836.1431274414062 45.993125915527344 871.8524169921875 125.39217376708984 C 791.0031127929688 320.9058837890625 786.414794921875 367.1382141113281 776.4884033203125 777.3528442382812" fill="rgb(129, 164, 184)" opacity="0.9913594" stroke="rgb(203, 172, 194)" stroke-linecap="round" stroke-linejoin="round" stroke-opacity="0.48010886" stroke-width="0.0"/>
    <path d="M 425.1657409667969 389.4184265136719 C 342.0451354980469 534.3646850585938 413.818359375 353.3515930175781 227.8903350830078 334.36669921875 C 69.24749755859375 314.814208984375 53.26079559326172 414.3653869628906 54.754722595214844 370.15673828125 C 146.52484130859375 244.40391540527344 193.49085998535156 288.8458557128906 277.7009582519531 235.9625701904297 C 524.4937744140625 227.8421630859375 609.11474609375 219.18814086914062 425.1657409667969 389.4184265136719" fill="rgb(29, 67, 95)" opacity="0.9385851" stroke="rgb(119, 247, 150)" stroke-linecap="round" stroke-linejoin="round" stroke-opacity="0.7426354" stroke-width="0.0"/>
    <path d="M 711.1947631835938 368.07537841796875 C 715.4769897460938 379.2790832519531 710.8825073242188 384.6976623535156 702.6572875976562 377.4326477050781 C 699.8610229492188 368.9054870605469 618.5272216796875 294.2799987792969 461.8913879394531 354.5068664550781 C 491.91204833984375 205.10691833496094 494.8384094238281 253.5927734375 591.8089599609375 273.314208984375 C 670.391357421875 301.5579528808594 703.009765625 362.1382141113281 711.1947631835938 368.07537841796875" fill="rgb(25, 64, 93)" opacity="0.97818285" stroke="rgb(213, 129, 0)" stroke-linecap="round" stroke-linejoin="round" stroke-opacity="0.39107174" stroke-width="0.0"/>
    <path d="M 19.0 230.0 C 18.330127716064453 232.5 16.5 234.3301239013672 14.0 235.0 C 11.5 234.3301239013672 9.669873237609863 232.5 9.0 230.0 C 9.669873237609863 227.5 11.5 225.6698760986328 14.0 225.0 C 16.5 225.6698760986328 18.330127716064453 227.5 19.0 230.0" fill="rgb(135, 169, 190)" opacity="1.0" stroke="rgb(168, 233, 103)" stroke-linecap="round" stroke-linejoin="round" stroke-opacity="0.508775" stroke-width="0.0"/>
  </g>
</svg>
