<?xml version="1.0" ?>
<svg height="768" version="1.1" width="768" xmlns="http://www.w3.org/2000/svg">
  <defs/>
  <g>
    <path d="M 776.4884033203125 777.3528442382812 C 682.0428466796875 789.3181762695312 588.0997924804688 784.130859375 -12.901339530944824 767.3934936523438 C 9.33092212677002 419.7220458984375 54.625885009765625 363.2625732421875 99.1081314086914 -35.0949592590332 C 603.6658325195312 -11.263375282287598 836.1742553710938 45.969268798828125 871.8524169921875 125.38723754882812 C 791.0031127929688 320.9058837890625 786.414794921875 367.1382141113281 776.4884033203125 777.3528442382812" fill="rgb(129, 163, 183)" opacity="0.99207866" stroke="rgb(203, 172, 194)" stroke-linecap="round" stroke-linejoin="round" stroke-opacity="0.48010886" stroke-width="0.0"/>
    <path d="M 418.4715576171875 394.35784912109375 C 348.7896728515625 533.772705078125 409.4686279296875 351.76568603515625 227.91326904296875 334.46826171875 C 69.54674530029297 314.7670593261719 53.22418212890625 414.2350769042969 54.73768997192383 370.2581787109375 C 146.68475341796875 244.24024963378906 193.69703674316406 288.9994812011719 278.2782897949219 235.5955810546875 C 510.955810546875 234.08673095703125 602.7791748046875 199.9639434814453 418.4715576171875 394.35784912109375" fill="rgb(29, 67, 95)" opacity="0.9398792" stroke="rgb(119, 247, 150)" stroke-linecap="round" stroke-linejoin="round" stroke-opacity="0.7426354" stroke-width="0.0"/>
    <path d="M 711.317138671875 368.3233642578125 C 714.9013061523438 377.82550048828125 712.3717041015625 383.7689208984375 703.90234375 379.07244873046875 C 698.2330322265625 364.21710205078125 607.4641723632812 293.1654357910156 454.7384338378906 358.05609130859375 C 487.8027648925781 197.47998046875 482.0558776855469 250.07139587402344 583.7191162109375 271.2086486816406 C 665.3312377929688 294.7301940917969 704.89453125 364.1795959472656 711.317138671875 368.3233642578125" fill="rgb(26, 65, 93)" opacity="0.98105603" stroke="rgb(213, 129, 0)" stroke-linecap="round" stroke-linejoin="round" stroke-opacity="0.39107174" stroke-width="0.0"/>
    <path d="M 78.03641510009766 261.73779296875 C 23.90435028076172 312.8913269042969 94.25017547607422 400.880615234375 4.153385639190674 561.3721923828125 C -148.08978271484375 329.3157653808594 -15.550249099731445 263.4123229980469 -8.154427528381348 23.665647506713867 C -31.22191619873047 -9.253307342529297 -50.22591781616211 -30.422870635986328 191.7253875732422 6.964643478393555 C 116.90802764892578 135.5153045654297 95.67469787597656 152.99267578125 78.03641510009766 261.73779296875" fill="rgb(134, 169, 189)" opacity="1.0" stroke="rgb(168, 233, 103)" stroke-linecap="round" stroke-linejoin="round" stroke-opacity="0.508775" stroke-width="0.0"/>
    <path d="M 397.0 459.0 C 396.33013916015625 461.5 394.5 463.33013916015625 392.0 464.0 C 389.5 463.33013916015625 387.66986083984375 461.5 387.0 459.0 C 387.66986083984375 456.5 389.5 454.66986083984375 392.0 454.0 C 394.5 454.66986083984375 396.33013916015625 456.5 397.0 459.0" fill="rgb(23, 73, 105)" opacity="1.0" stroke="rgb(78, 59, 184)" stroke-linecap="round" stroke-linejoin="round" stroke-opacity="0.4381291" stroke-width="0.0"/>
  </g>
</svg>
