<?xml version="1.0" ?>
<svg height="768" version="1.1" width="768" xmlns="http://www.w3.org/2000/svg">
  <defs/>
  <g>
    <path d="M 769.1246948242188 792.6038208007812 C 346.8457946777344 821.2179565429688 212.6281280517578 849.0278930664062 178.03306579589844 596.2979736328125 C 587.09716796875 318.9481201171875 747.0570678710938 270.7191162109375 24.19552993774414 551.1990356445312 C -16.18474578857422 -98.71952056884766 -2.862041473388672 -52.76802444458008 763.9822998046875 -13.449690818786621 C 768.0147094726562 270.8011169433594 759.3639526367188 354.4047546386719 769.1246948242188 792.6038208007812" fill="rgb(52, 101, 112)" opacity="0.72968364" stroke="rgb(87, 69, 106)" stroke-linecap="round" stroke-linejoin="round" stroke-opacity="0.7519394" stroke-width="0.0"/>
    <path d="M 542.3392944335938 608.3198852539062 C 482.3725891113281 564.5531005859375 661.0623168945312 432.1657409667969 837.1005859375 762.8960571289062 C 234.13674926757812 803.6495361328125 272.7315673828125 784.768798828125 257.48468017578125 745.3107299804688 C 227.51734924316406 642.4883422851562 290.4311218261719 576.25 329.7403259277344 560.2921752929688 C 337.5521545410156 551.1583251953125 454.0596618652344 516.4755859375 542.3392944335938 608.3198852539062" fill="rgb(50, 2, 47)" opacity="0.9665301" stroke="rgb(203, 243, 18)" stroke-linecap="round" stroke-linejoin="round" stroke-opacity="0.55055386" stroke-width="0.0"/>
    <path d="M 552.1032104492188 579.2394409179688 C 541.4008178710938 629.0614013671875 631.7962646484375 469.0858154296875 11.454202651977539 597.8021850585938 C 100.94522094726562 451.8171081542969 704.5653076171875 360.3974914550781 260.697265625 315.66156005859375 C 311.3976745605469 342.3382873535156 335.3196105957031 271.82220458984375 346.8414611816406 268.9017028808594 C 502.5562438964844 322.4102478027344 580.5369873046875 312.6901550292969 552.1032104492188 579.2394409179688" fill="rgb(155, 185, 200)" opacity="1.0" stroke="rgb(84, 25, 157)" stroke-linecap="round" stroke-linejoin="round" stroke-opacity="0.4581576" stroke-width="0.0"/>
    <path d="M 519.8414306640625 583.3876342773438 C 282.336181640625 363.83233642578125 558.8533935546875 315.86474609375 299.47625732421875 370.09661865234375 C 296.3252258300781 358.339599609375 234.21923828125 370.02716064453125 294.48583984375 331.2277526855469 C 303.53533935546875 301.5242004394531 335.1390075683594 265.8822326660156 362.796875 271.74822998046875 C 457.912841796875 299.759521484375 623.6910400390625 332.3320007324219 519.8414306640625 583.3876342773438" fill="rgb(226, 234, 240)" opacity="1.0" stroke="rgb(60, 25, 23)" stroke-linecap="round" stroke-linejoin="round" stroke-opacity="0.48301178" stroke-width="0.0"/>
  </g>
</svg>
