<?xml version="1.0" ?>
<svg height="768" version="1.1" width="768" xmlns="http://www.w3.org/2000/svg">
  <defs/>
  <g>
    <path d="M 766.8601684570312 792.640625 C 346.40728759765625 821.3460083007812 212.22010803222656 849.3386840820312 177.81103515625 596.0081787109375 C 586.7420654296875 318.4834899902344 747.3046264648438 271.0187683105469 24.17094612121582 552.04052734375 C -16.381717681884766 -99.16378784179688 -3.2811801433563232 -53.01832580566406 764.1715698242188 -13.528051376342773 C 765.7379760742188 271.0293884277344 762.134521484375 356.7376403808594 766.8601684570312 792.640625" fill="rgb(47, 97, 109)" opacity="0.7373753" stroke="rgb(87, 69, 106)" stroke-linecap="round" stroke-linejoin="round" stroke-opacity="0.7519394" stroke-width="0.0"/>
    <path d="M 543.9178466796875 610.0455322265625 C 479.205322265625 555.9807739257812 660.68408203125 438.68353271484375 842.2586059570312 762.365234375 C 237.33201599121094 805.5897216796875 272.7253112792969 785.3231201171875 257.53955078125 745.3809204101562 C 227.58816528320312 641.9020385742188 290.6127014160156 576.3849487304688 329.8496398925781 560.1639404296875 C 338.29998779296875 551.5305786132812 456.16046142578125 516.1307373046875 543.9178466796875 610.0455322265625" fill="rgb(51, 7, 51)" opacity="1.0" stroke="rgb(203, 243, 18)" stroke-linecap="round" stroke-linejoin="round" stroke-opacity="0.55055386" stroke-width="0.0"/>
    <path d="M 552.0839233398438 580.19384765625 C 530.4005737304688 617.508056640625 639.279541015625 467.7137145996094 9.299602508544922 603.0928955078125 C 91.44520568847656 445.08251953125 713.1516723632812 362.90753173828125 262.3227844238281 313.88677978515625 C 311.9139404296875 339.8877258300781 335.68792724609375 272.74542236328125 346.8104248046875 268.6286315917969 C 501.1194763183594 320.50946044921875 580.9976806640625 311.9272766113281 552.0839233398438 580.19384765625" fill="rgb(132, 170, 186)" opacity="1.0" stroke="rgb(84, 25, 157)" stroke-linecap="round" stroke-linejoin="round" stroke-opacity="0.4581576" stroke-width="0.0"/>
    <path d="M 528.8722534179688 584.2461547851562 C 153.1175079345703 445.34716796875 632.5031127929688 293.2059326171875 297.56494140625 371.0445251464844 C 298.52569580078125 356.90643310546875 232.8607940673828 371.4535827636719 295.0213623046875 330.522216796875 C 302.45074462890625 300.196533203125 339.6175231933594 267.23876953125 355.3442687988281 270.6585693359375 C 458.03656005859375 295.58123779296875 621.5067138671875 336.7771911621094 528.8722534179688 584.2461547851562" fill="rgb(223, 231, 239)" opacity="1.0" stroke="rgb(60, 25, 23)" stroke-linecap="round" stroke-linejoin="round" stroke-opacity="0.48301178" stroke-width="0.0"/>
    <path d="M 377.41302490234375 374.7550354003906 C 377.9119873046875 380.36920166015625 373.7710876464844 384.08154296875 371.6707763671875 385.5660400390625 C 365.6628723144531 388.00250244140625 362.3735656738281 375.6483459472656 363.718994140625 371.1781005859375 C 364.83837890625 373.8270263671875 362.7669677734375 366.5802307128906 370.56170654296875 366.4791259765625 C 374.8506774902344 367.95660400390625 377.3399658203125 371.5503845214844 377.41302490234375 374.7550354003906" fill="rgb(255, 252, 253)" opacity="0.9800335" stroke="rgb(247, 7, 24)" stroke-linecap="round" stroke-linejoin="round" stroke-opacity="0.87470365" stroke-width="0.0"/>
  </g>
</svg>
