<?xml version="1.0" ?>
<svg height="768" version="1.1" width="768" xmlns="http://www.w3.org/2000/svg">
  <defs/>
  <g>
    <path d="M 770.91259765625 792.54931640625 C 348.07525634765625 820.8695678710938 213.8033447265625 848.1574096679688 179.03724670410156 599.4193725585938 C 589.2723999023438 321.5721435546875 743.8532104492188 266.8198547363281 22.460723876953125 543.1744384765625 C -15.755027770996094 -97.61444091796875 -1.8310472965240479 -52.15242385864258 763.9411010742188 -13.274928092956543 C 768.5652465820312 270.04937744140625 758.0637817382812 347.64910888671875 770.91259765625 792.54931640625" fill="rgb(59, 106, 119)" opacity="0.74604213" stroke="rgb(87, 69, 106)" stroke-linecap="round" stroke-linejoin="round" stroke-opacity="0.7519394" stroke-width="0.0"/>
    <path d="M 537.2474975585938 603.9682006835938 C 490.6511535644531 586.4431762695312 663.6807250976562 416.6611328125 827.0693969726562 763.9841918945312 C 228.90158081054688 800.9071655273438 272.8918151855469 783.8148193359375 257.4342041015625 745.2940673828125 C 227.65176391601562 643.1834106445312 289.7779235839844 577.2493286132812 327.76849365234375 561.2867431640625 C 332.4754638671875 552.6151733398438 451.7373352050781 516.3233032226562 537.2474975585938 603.9682006835938" fill="rgb(50, 0, 46)" opacity="0.90793115" stroke="rgb(203, 243, 18)" stroke-linecap="round" stroke-linejoin="round" stroke-opacity="0.55055386" stroke-width="0.0"/>
    <path d="M 556.9672241210938 519.8269653320312 C 534.9119262695312 611.9321899414062 661.6650390625 504.56854248046875 53.46112823486328 572.2670288085938 C 187.88941955566406 420.11065673828125 709.4837036132812 317.8289794921875 260.1830139160156 366.8869934082031 C 302.6678466796875 307.1541748046875 335.7917175292969 265.13934326171875 356.6220703125 268.71514892578125 C 466.00921630859375 305.504638671875 572.327392578125 313.0375061035156 556.9672241210938 519.8269653320312" fill="rgb(177, 198, 206)" opacity="1.0" stroke="rgb(84, 25, 157)" stroke-linecap="round" stroke-linejoin="round" stroke-opacity="0.4581576" stroke-width="0.0"/>
  </g>
</svg>
