<?xml version="1.0" ?>
<svg height="768" version="1.1" width="768" xmlns="http://www.w3.org/2000/svg">
  <defs/>
  <g>
    <path d="M 730.3887939453125 853.1696166992188 C 612.1659545898438 783.2713012695312 597.5985107421875 786.6298828125 -34.75040054321289 766.70166015625 C 7.556427478790283 385.73516845703125 45.293888092041016 249.5262451171875 115.97775268554688 102.20284271240234 C 881.4306030273438 149.42176818847656 890.6741943359375 242.33169555664062 841.8452758789062 370.4902648925781 C 791.429443359375 718.9743041992188 772.3067626953125 781.5838623046875 730.3887939453125 853.1696166992188" fill="rgb(134, 140, 138)" opacity="1.0" stroke="rgb(105, 21, 241)" stroke-linecap="round" stroke-linejoin="round" stroke-opacity="0.7887756" stroke-width="0.0"/>
    <path d="M 780.9192504882812 184.6312255859375 C 791.3616943359375 207.5802001953125 800.6580810546875 207.1310272216797 586.9822387695312 193.39474487304688 C 498.8910827636719 233.61131286621094 405.35870361328125 489.8133850097656 301.6944885253906 3.422262191772461 C 659.4633178710938 -27.7345027923584 696.1890869140625 -14.961880683898926 816.9228515625 -4.276611328125 C 781.7683715820312 53.22857666015625 781.8759155273438 58.05949783325195 780.9192504882812 184.6312255859375" fill="rgb(134, 141, 139)" opacity="1.0" stroke="rgb(243, 126, 113)" stroke-linecap="round" stroke-linejoin="round" stroke-opacity="0.5440716" stroke-width="0.0"/>
    <path d="M 209.643798828125 418.43658447265625 C -36.87737274169922 410.2583923339844 -116.1802978515625 338.3614196777344 -260.583984375 234.30487060546875 C -18.958724975585938 88.63959503173828 -15.073166847229004 79.91089630126953 -12.82005786895752 11.43237018585205 C -13.766987800598145 -12.037446975708008 -12.49730396270752 -21.07464027404785 357.6640319824219 0.9967690706253052 C 347.019775390625 135.46182250976562 294.01141357421875 156.31838989257812 209.643798828125 418.43658447265625" fill="rgb(134, 141, 139)" opacity="1.0" stroke="rgb(82, 42, 227)" stroke-linecap="round" stroke-linejoin="round" stroke-opacity="0.29242852" stroke-width="0.0"/>
  </g>
</svg>
