<?xml version="1.0" ?>
<svg height="768" version="1.1" width="768" xmlns="http://www.w3.org/2000/svg">
  <defs/>
  <g>
    <path d="M 730.3887939453125 853.1696166992188 C 612.1659545898438 783.2713012695312 597.5917358398438 786.6431884765625 -34.77958679199219 766.8107299804688 C 7.496063709259033 385.6607666015625 45.25105285644531 249.47686767578125 115.96624755859375 102.20196533203125 C 881.4306030273438 149.42176818847656 890.6741943359375 242.33169555664062 841.8452758789062 370.4902648925781 C 791.429443359375 718.9743041992188 772.3067626953125 781.5838623046875 730.3887939453125 853.1696166992188" fill="rgb(124, 124, 119)" opacity="1.0" stroke="rgb(105, 21, 241)" stroke-linecap="round" stroke-linejoin="round" stroke-opacity="0.7887756" stroke-width="0.0"/>
    <path d="M 780.9153442382812 192.669677734375 C 790.919921875 215.5585174560547 798.0098876953125 215.06399536132812 594.6470336914062 201.69219970703125 C 500.3360595703125 243.26788330078125 405.3514099121094 492.40155029296875 301.5548400878906 4.252220630645752 C 659.453125 -27.75700569152832 696.1890869140625 -14.962445259094238 816.9228515625 -4.276611328125 C 781.7683715820312 53.22857666015625 781.8759155273438 58.05949783325195 780.9153442382812 192.669677734375" fill="rgb(134, 141, 138)" opacity="1.0" stroke="rgb(243, 126, 113)" stroke-linecap="round" stroke-linejoin="round" stroke-opacity="0.5440716" stroke-width="0.0"/>
    <path d="M 213.16146850585938 438.6716003417969 C -47.78289031982422 418.5479736328125 -123.47157287597656 341.26336669921875 -263.3338317871094 234.83001708984375 C -18.958724975585938 88.63959503173828 -15.073166847229004 79.91089630126953 -12.82005786895752 11.432256698608398 C -13.766668319702148 -12.043603897094727 -12.448545455932617 -21.31880760192871 360.142822265625 0.7843730449676514 C 351.603271484375 142.6460418701172 299.1788024902344 168.98147583007812 213.16146850585938 438.6716003417969" fill="rgb(134, 141, 139)" opacity="1.0" stroke="rgb(82, 42, 227)" stroke-linecap="round" stroke-linejoin="round" stroke-opacity="0.29242852" stroke-width="0.0"/>
    <path d="M 422.6518859863281 423.6372985839844 C 445.12554931640625 405.6930236816406 468.1202392578125 507.7149353027344 408.4073486328125 467.1691589355469 C 378.81982421875 353.66766357421875 387.6521301269531 590.8449096679688 309.6124267578125 345.4895324707031 C 332.7581481933594 341.8045349121094 374.554443359375 327.4998474121094 421.62371826171875 336.7026062011719 C 472.8330383300781 349.04632568359375 479.4421691894531 395.5771789550781 422.6518859863281 423.6372985839844" fill="rgb(254, 135, 28)" opacity="0.8689707" stroke="rgb(180, 9, 35)" stroke-linecap="round" stroke-linejoin="round" stroke-opacity="0.56529266" stroke-width="0.0"/>
    <path d="M 420.0325012207031 510.73681640625 C 423.8467102050781 399.5828552246094 400.7835998535156 504.0810241699219 556.3911743164062 501.8866271972656 C 262.02984619140625 508.5857238769531 288.7366943359375 496.03594970703125 408.361328125 496.3291320800781 C 408.3646545410156 464.9033203125 408.6326904296875 460.4863586425781 408.7641296386719 464.7715759277344 C 419.3814697265625 494.8871154785156 433.9989929199219 408.8977966308594 420.0325012207031 510.73681640625" fill="rgb(1, 0, 0)" opacity="0.7804707" stroke="rgb(244, 130, 15)" stroke-linecap="round" stroke-linejoin="round" stroke-opacity="0.6051226" stroke-width="0.0"/>
  </g>
</svg>
