<?xml version="1.0" ?>
<svg height="768" version="1.1" width="768" xmlns="http://www.w3.org/2000/svg">
  <defs/>
  <g>
    <path d="M 772.8782958984375 -12.439444541931152 C 776.6760864257812 627.07568359375 761.890625 599.1620483398438 793.34130859375 660.7333984375 C 704.0814208984375 754.9010620117188 650.8890380859375 794.8118286132812 2.297365427017212 794.439208984375 C -25.275352478027344 468.7098083496094 -21.752573013305664 407.5020446777344 -29.5273380279541 3.709960699081421 C 100.36468505859375 -14.151392936706543 155.3973846435547 -19.428203582763672 772.8782958984375 -12.439444541931152" fill="rgb(114, 140, 160)" opacity="0.9740404" stroke="rgb(237, 149, 28)" stroke-linecap="round" stroke-linejoin="round" stroke-opacity="0.13499744" stroke-width="0.0"/>
    <path d="M 780.167724609375 722.4066162109375 C 779.7445068359375 798.4580078125 775.8046875 812.3483276367188 514.5812377929688 767.01123046875 C 574.583984375 705.535400390625 614.8208618164062 737.3090209960938 640.1454467773438 673.4185180664062 C 690.0148315429688 701.0861206054688 679.6674194335938 681.9448852539062 766.4785766601562 667.3240356445312 C 796.4755859375 701.4299926757812 783.990234375 712.6339111328125 780.167724609375 722.4066162109375" fill="rgb(86, 134, 175)" opacity="1.0" stroke="rgb(53, 125, 5)" stroke-linecap="round" stroke-linejoin="round" stroke-opacity="0.28670865" stroke-width="0.0"/>
    <path d="M 527.4832763671875 357.2420654296875 C 492.5932312011719 405.78216552734375 459.3879699707031 411.05035400390625 428.3945617675781 416.7633972167969 C 278.19500732421875 539.7942504882812 242.6393280029297 617.93017578125 370.0794982910156 345.3710632324219 C 372.1473388671875 137.80059814453125 432.53289794921875 357.7291564941406 402.12860107421875 370.1550598144531 C 485.8703918457031 382.0982666015625 508.4548034667969 313.45220947265625 527.4832763671875 357.2420654296875" fill="rgb(240, 182, 128)" opacity="0.9190836" stroke="rgb(0, 15, 169)" stroke-linecap="round" stroke-linejoin="round" stroke-opacity="0.92267126" stroke-width="0.0"/>
    <path d="M 316.0 372.0 C 315.33013916015625 374.5 313.5 376.33013916015625 311.0 377.0 C 308.5 376.33013916015625 306.66986083984375 374.5 306.0 372.0 C 306.66986083984375 369.5 308.5 367.66986083984375 311.0 367.0 C 313.5 367.66986083984375 315.33013916015625 369.5 316.0 372.0" fill="rgb(255, 193, 137)" opacity="1.0" stroke="rgb(94, 248, 128)" stroke-linecap="round" stroke-linejoin="round" stroke-opacity="0.89538705" stroke-width="0.0"/>
  </g>
</svg>
