<?xml version="1.0" ?>
<svg height="768" version="1.1" width="768" xmlns="http://www.w3.org/2000/svg">
  <defs/>
  <g>
    <path d="M 764.5797119140625 813.8974609375 C 225.68214416503906 791.0885620117188 147.92694091796875 753.8286743164062 -8.704326629638672 703.0272827148438 C -1.1226074695587158 -20.290836334228516 38.777008056640625 -48.795597076416016 139.19058227539062 -56.54776382446289 C 762.89013671875 -46.6270637512207 738.7219848632812 -3.8717129230499268 842.5579833984375 30.562963485717773 C 794.366943359375 353.412109375 790.0117797851562 450.3546142578125 764.5797119140625 813.8974609375" fill="rgb(139, 152, 158)" opacity="0.99359876" stroke="rgb(204, 119, 121)" stroke-linecap="round" stroke-linejoin="round" stroke-opacity="0.07687159" stroke-width="0.0"/>
    <path d="M 583.0863037109375 479.70184326171875 C 265.7627258300781 625.6272583007812 530.7335205078125 429.3731994628906 318.208740234375 516.98193359375 C 277.2701110839844 304.9602966308594 218.7718963623047 648.5368041992188 215.14434814453125 326.25201416015625 C 331.758056640625 389.4193420410156 441.8421325683594 426.0968017578125 501.4291076660156 286.0584411621094 C 526.072509765625 331.45184326171875 591.9033203125 200.13059997558594 583.0863037109375 479.70184326171875" fill="rgb(75, 71, 71)" opacity="0.9075087" stroke="rgb(209, 157, 137)" stroke-linecap="round" stroke-linejoin="round" stroke-opacity="0.95414954" stroke-width="0.0"/>
    <path d="M 310.1982421875 580.18359375 C 301.001708984375 643.458740234375 366.7936096191406 695.0592041015625 300.3455810546875 681.59033203125 C 277.5313415527344 637.8773193359375 277.2586975097656 605.7245483398438 270.0283203125 564.1586303710938 C 321.4615783691406 517.00732421875 286.8586120605469 445.2589416503906 362.7347717285156 440.42724609375 C 349.54083251953125 548.8010864257812 333.80615234375 540.9043579101562 310.1982421875 580.18359375" fill="rgb(55, 51, 50)" opacity="1.0" stroke="rgb(242, 65, 192)" stroke-linecap="round" stroke-linejoin="round" stroke-opacity="0.19239433" stroke-width="0.0"/>
  </g>
</svg>
