<?xml version="1.0" ?>
<svg height="768" version="1.1" width="768" xmlns="http://www.w3.org/2000/svg">
  <defs/>
  <g>
    <path d="M 764.5718383789062 813.9219360351562 C 225.6026611328125 791.1572875976562 147.8507537841797 753.8969116210938 -8.708640098571777 703.0545654296875 C -1.1275091171264648 -20.29640007019043 38.772403717041016 -48.798675537109375 139.1904754638672 -56.548736572265625 C 762.8967895507812 -46.636470794677734 738.7529907226562 -3.8993031978607178 842.5713500976562 30.53818702697754 C 794.366943359375 353.412109375 790.0128784179688 450.3547058105469 764.5718383789062 813.9219360351562" fill="rgb(140, 154, 159)" opacity="0.9933879" stroke="rgb(204, 119, 121)" stroke-linecap="round" stroke-linejoin="round" stroke-opacity="0.07687159" stroke-width="0.0"/>
    <path d="M 583.3740234375 481.195068359375 C 265.9713439941406 621.4276123046875 529.9750366210938 436.6725158691406 319.69085693359375 514.4166259765625 C 272.886474609375 309.21929931640625 219.1785125732422 646.7554321289062 215.0643768310547 326.11663818359375 C 336.1777648925781 391.2488098144531 445.6532287597656 426.7005615234375 504.886962890625 277.9178466796875 C 516.6996459960938 350.5626525878906 590.984619140625 174.33657836914062 583.3740234375 481.195068359375" fill="rgb(76, 73, 73)" opacity="0.8990755" stroke="rgb(209, 157, 137)" stroke-linecap="round" stroke-linejoin="round" stroke-opacity="0.95414954" stroke-width="0.0"/>
    <path d="M 310.6434326171875 579.17578125 C 299.5013122558594 640.9049682617188 367.85345458984375 696.0208740234375 300.0863037109375 681.4208374023438 C 280.99200439453125 636.4139404296875 284.20416259765625 652.9410400390625 269.90570068359375 564.551513671875 C 325.2966003417969 512.2945556640625 287.474853515625 426.04193115234375 369.6479797363281 428.6539001464844 C 342.29034423828125 557.277099609375 340.6616516113281 532.637451171875 310.6434326171875 579.17578125" fill="rgb(56, 51, 51)" opacity="1.0" stroke="rgb(242, 65, 192)" stroke-linecap="round" stroke-linejoin="round" stroke-opacity="0.19239433" stroke-width="0.0"/>
    <path d="M 222.14166259765625 579.50341796875 C 202.19985961914062 613.7724609375 254.92184448242188 693.55078125 198.2382354736328 680.8076782226562 C 169.1820526123047 661.4379272460938 223.79331970214844 665.3726806640625 184.72894287109375 651.0722045898438 C 181.81149291992188 533.27783203125 190.86322021484375 570.6300659179688 235.32931518554688 516.3318481445312 C 289.57159423828125 516.99560546875 268.50347900390625 541.512939453125 222.14166259765625 579.50341796875" fill="rgb(36, 31, 28)" opacity="0.9234397" stroke="rgb(92, 28, 206)" stroke-linecap="round" stroke-linejoin="round" stroke-opacity="0.923513" stroke-width="0.0"/>
  </g>
</svg>
