<?xml version="1.0" ?>
<svg height="768" version="1.1" width="768" xmlns="http://www.w3.org/2000/svg">
  <defs/>
  <g>
    <path d="M 764.5645141601562 813.9219360351562 C 225.56727600097656 791.1878051757812 147.81724548339844 753.9274291992188 -8.710221290588379 703.0545654296875 C -1.1291521787643433 -20.29841423034668 38.77053451538086 -48.79963684082031 139.1904754638672 -56.54875183105469 C 762.8967895507812 -46.64010238647461 738.7625732421875 -3.909991979598999 842.5715942382812 30.528575897216797 C 794.366943359375 353.412109375 790.0128784179688 450.354736328125 764.5645141601562 813.9219360351562" fill="rgb(141, 154, 159)" opacity="0.9946735" stroke="rgb(204, 119, 121)" stroke-linecap="round" stroke-linejoin="round" stroke-opacity="0.07687159" stroke-width="0.0"/>
    <path d="M 583.3988037109375 481.0235900878906 C 266.476806640625 621.015869140625 529.5717163085938 437.7539367675781 319.84442138671875 513.8132934570312 C 274.17962646484375 310.9315490722656 209.55821228027344 644.3258056640625 221.00819396972656 328.8131103515625 C 336.5627136230469 392.1187744140625 449.38165283203125 426.0897216796875 506.1958312988281 273.82318115234375 C 512.4229736328125 358.0330505371094 590.5972900390625 167.30325317382812 583.3988037109375 481.0235900878906" fill="rgb(74, 71, 71)" opacity="0.90882206" stroke="rgb(209, 157, 137)" stroke-linecap="round" stroke-linejoin="round" stroke-opacity="0.95414954" stroke-width="0.0"/>
    <path d="M 310.6947326660156 579.0285034179688 C 299.30419921875 640.7492065429688 369.5061340332031 698.2283325195312 297.4522705078125 680.5608520507812 C 296.8384094238281 625.2864990234375 290.9208984375 720.227783203125 270.4227600097656 563.9292602539062 C 325.72418212890625 511.9730224609375 287.6458435058594 421.44287109375 370.0354919433594 428.0863952636719 C 340.5345764160156 558.3218383789062 344.3847351074219 527.7427978515625 310.6947326660156 579.0285034179688" fill="rgb(55, 50, 50)" opacity="1.0" stroke="rgb(242, 65, 192)" stroke-linecap="round" stroke-linejoin="round" stroke-opacity="0.19239433" stroke-width="0.0"/>
    <path d="M 222.18113708496094 579.4584350585938 C 201.96258544921875 613.3943481445312 255.8700408935547 694.8707275390625 196.8057861328125 680.24072265625 C 170.65921020507812 658.5458984375 223.412109375 668.5587768554688 184.72314453125 650.0818481445312 C 181.81593322753906 533.6029663085938 190.94061279296875 570.4740600585938 235.18804931640625 516.2811279296875 C 290.568603515625 517.0685424804688 266.9233703613281 542.815185546875 222.18113708496094 579.4584350585938" fill="rgb(36, 31, 28)" opacity="0.92268693" stroke="rgb(92, 28, 206)" stroke-linecap="round" stroke-linejoin="round" stroke-opacity="0.923513" stroke-width="0.0"/>
    <path d="M 261.5968017578125 352.42523193359375 C 334.89080810546875 485.26776123046875 267.8896789550781 424.5240173339844 231.9276123046875 369.487548828125 C 155.25465393066406 366.6584167480469 163.9641876220703 388.05084228515625 169.90634155273438 364.55352783203125 C 196.0455322265625 345.1603088378906 133.91250610351562 364.01129150390625 163.68125915527344 344.6446838378906 C 193.23838806152344 327.1257629394531 200.77049255371094 345.24615478515625 261.5968017578125 352.42523193359375" fill="rgb(58, 54, 54)" opacity="1.0" stroke="rgb(147, 147, 72)" stroke-linecap="round" stroke-linejoin="round" stroke-opacity="0.099398464" stroke-width="0.0"/>
  </g>
</svg>
