<?xml version="1.0" ?>
<svg height="768" version="1.1" width="768" xmlns="http://www.w3.org/2000/svg">
  <defs/>
  <g>
    <path d="M 731.5277099609375 853.476806640625 C 612.2156372070312 783.1707763671875 597.8906860351562 785.859130859375 -28.023542404174805 766.3796997070312 C 17.59328269958496 408.751220703125 54.552452087402344 268.3504638671875 120.27947998046875 116.32025909423828 C 866.4205932617188 161.4698486328125 880.7426147460938 249.50953674316406 841.0489501953125 371.4659118652344 C 791.308837890625 713.9173583984375 773.265625 778.7623901367188 731.5277099609375 853.476806640625" fill="rgb(133, 140, 138)" opacity="1.0" stroke="rgb(186, 99, 151)" stroke-linecap="round" stroke-linejoin="round" stroke-opacity="0.8459669" stroke-width="0.0"/>
    <path d="M 739.0 102.0 C 738.3301391601562 104.5 736.5 106.33012390136719 734.0 107.0 C 731.5 106.33012390136719 729.6698608398438 104.5 729.0 102.0 C 729.6698608398438 99.5 731.5 97.66987609863281 734.0 97.0 C 736.5 97.66987609863281 738.3301391601562 99.5 739.0 102.0" fill="rgb(134, 141, 139)" opacity="1.0" stroke="rgb(215, 12, 65)" stroke-linecap="round" stroke-linejoin="round" stroke-opacity="0.3312705" stroke-width="0.0"/>
    <path d="M 644.0 134.0 C 643.3301391601562 136.5 641.5 138.3301239013672 639.0 139.0 C 636.5 138.3301239013672 634.6698608398438 136.5 634.0 134.0 C 634.6698608398438 131.5 636.5 129.6698760986328 639.0 129.0 C 641.5 129.6698760986328 643.3301391601562 131.5 644.0 134.0" fill="rgb(134, 141, 139)" opacity="1.0" stroke="rgb(56, 154, 202)" stroke-linecap="round" stroke-linejoin="round" stroke-opacity="0.784891" stroke-width="0.0"/>
  </g>
</svg>
