<?xml version="1.0" ?>
<svg height="768" version="1.1" width="768" xmlns="http://www.w3.org/2000/svg">
  <defs/>
  <g>
    <path d="M 731.5277099609375 853.476806640625 C 612.2119750976562 783.1897583007812 597.47802734375 786.5706787109375 -34.55317306518555 766.8514404296875 C 6.704207420349121 394.2216796875 44.13496017456055 252.08770751953125 113.93177032470703 102.11003875732422 C 880.3829345703125 149.05966186523438 890.44091796875 241.4701690673828 842.1983642578125 369.5521545410156 C 791.308837890625 713.9173583984375 773.265625 778.7623901367188 731.5277099609375 853.476806640625" fill="rgb(123, 121, 119)" opacity="0.97322935" stroke="rgb(186, 99, 151)" stroke-linecap="round" stroke-linejoin="round" stroke-opacity="0.8459669" stroke-width="0.0"/>
    <path d="M 780.9959106445312 190.75636291503906 C 788.2894287109375 217.4112091064453 787.1378784179688 220.7205352783203 665.1748046875 201.64356994628906 C 671.7325439453125 162.0108642578125 652.2832641601562 164.1605987548828 618.391845703125 -5.539572238922119 C 665.167236328125 -15.053257942199707 696.4833984375 -14.540163040161133 816.2282104492188 -4.690789699554443 C 780.4672241210938 55.8378791809082 781.3885498046875 59.891090393066406 780.9959106445312 190.75636291503906" fill="rgb(132, 139, 136)" opacity="0.9933561" stroke="rgb(215, 12, 65)" stroke-linecap="round" stroke-linejoin="round" stroke-opacity="0.3312705" stroke-width="0.0"/>
    <path d="M 710.766845703125 193.1320037841797 C 707.7241821289062 202.10877990722656 696.777587890625 196.91661071777344 281.3729248046875 191.01852416992188 C 201.37603759765625 183.4357147216797 188.952392578125 127.77091979980469 238.62960815429688 -90.11906433105469 C 536.8340454101562 -22.091903686523438 570.0555419921875 -16.12021827697754 736.01123046875 13.736454963684082 C 703.368896484375 64.33708953857422 703.0158081054688 70.94999694824219 710.766845703125 193.1320037841797" fill="rgb(134, 141, 139)" opacity="1.0" stroke="rgb(56, 154, 202)" stroke-linecap="round" stroke-linejoin="round" stroke-opacity="0.784891" stroke-width="0.0"/>
    <path d="M 104.60406494140625 144.23219299316406 C 109.36865234375 141.3528289794922 143.14707946777344 126.03206634521484 323.8591003417969 280.9845275878906 C 187.37815856933594 357.3175964355469 282.908935546875 458.55291748046875 0.9987789988517761 530.4155883789062 C -42.740264892578125 57.03570556640625 -41.47966384887695 52.29427719116211 71.81029510498047 51.993560791015625 C 85.44357299804688 57.12447738647461 96.71077728271484 55.60520935058594 104.60406494140625 144.23219299316406" fill="rgb(134, 141, 139)" opacity="0.99727094" stroke="rgb(181, 14, 178)" stroke-linecap="round" stroke-linejoin="round" stroke-opacity="0.5950336" stroke-width="0.0"/>
    <path d="M 330.0726013183594 396.43389892578125 C 313.1682434082031 416.0127868652344 320.9024963378906 402.1430969238281 289.0235900878906 414.8580322265625 C 230.31802368164062 432.542236328125 248.17286682128906 400.4502258300781 263.24615478515625 415.0209045410156 C 283.0970153808594 383.803466796875 308.60498046875 393.0485534667969 329.7886657714844 337.744873046875 C 333.9488220214844 344.7705078125 327.89263916015625 352.7154541015625 330.0726013183594 396.43389892578125" fill="rgb(255, 251, 242)" opacity="0.9998627" stroke="rgb(67, 161, 14)" stroke-linecap="round" stroke-linejoin="round" stroke-opacity="0.92941856" stroke-width="0.0"/>
    <path d="M 100.63481903076172 79.21331024169922 C 101.64839172363281 90.38228607177734 96.92044830322266 88.2166976928711 -6.303906440734863 79.36372375488281 C -12.52544116973877 71.89083099365234 -13.002153396606445 67.0443115234375 -10.88454532623291 -3.572329521179199 C 9.054769515991211 -11.599822044372559 12.908974647521973 -12.005744934082031 90.61632537841797 -11.160877227783203 C 99.97949981689453 -19.839183807373047 104.92044067382812 -24.20177459716797 100.63481903076172 79.21331024169922" fill="rgb(134, 140, 138)" opacity="0.9994516" stroke="rgb(251, 1, 146)" stroke-linecap="round" stroke-linejoin="round" stroke-opacity="0.20096508" stroke-width="0.0"/>
    <path d="M 228.01168823242188 -9.639788627624512 C 228.56439208984375 125.84072875976562 225.95718383789062 124.4312973022461 262.23040771484375 151.46543884277344 C 87.08940887451172 186.6454620361328 66.37222290039062 167.27371215820312 64.22935485839844 132.0455322265625 C 74.00588989257812 -2.8838703632354736 76.94646453857422 -7.672595977783203 87.46788787841797 -11.369909286499023 C 211.08152770996094 -15.672914505004883 217.64730834960938 -16.75246238708496 228.01168823242188 -9.639788627624512" fill="rgb(133, 140, 138)" opacity="1.0" stroke="rgb(157, 138, 48)" stroke-linecap="round" stroke-linejoin="round" stroke-opacity="0.43572703" stroke-width="0.0"/>
    <path d="M 428.34130859375 365.6888732910156 C 418.6993103027344 456.4318542480469 459.38055419921875 406.2993469238281 442.7446594238281 478.0446472167969 C 362.16619873046875 456.7413635253906 354.3238220214844 471.4660949707031 353.4375915527344 445.206298828125 C 371.1952209472656 373.89752197265625 388.80169677734375 379.943115234375 433.15802001953125 377.2198181152344 C 444.9691467285156 376.34014892578125 450.0515441894531 377.0207824707031 428.34130859375 365.6888732910156" fill="rgb(254, 122, 15)" opacity="0.95517355" stroke="rgb(167, 154, 141)" stroke-linecap="round" stroke-linejoin="round" stroke-opacity="0.21166478" stroke-width="0.0"/>
    <path d="M 432.5105285644531 384.4556579589844 C 431.3634338378906 400.24151611328125 431.4165954589844 404.58184814453125 357.82086181640625 467.81597900390625 C 346.6232604980469 425.96868896484375 326.55120849609375 401.37249755859375 350.5941162109375 341.47625732421875 C 365.87548828125 335.8272705078125 361.1042785644531 334.3725280761719 387.5024108886719 333.15185546875 C 430.9698486328125 349.09564208984375 430.1696472167969 355.18914794921875 432.5105285644531 384.4556579589844" fill="rgb(247, 126, 14)" opacity="0.6601812" stroke="rgb(105, 180, 23)" stroke-linecap="round" stroke-linejoin="round" stroke-opacity="0.47024345" stroke-width="0.0"/>
    <path d="M 437.51849365234375 402.9610595703125 C 503.33941650390625 476.2098693847656 574.5162963867188 509.9744567871094 357.3168640136719 503.3829345703125 C 347.6587219238281 435.2715759277344 392.93743896484375 459.3548278808594 381.9673156738281 498.90478515625 C 375.8514099121094 483.49267578125 382.3485107421875 422.60076904296875 380.4443054199219 418.133056640625 C 405.1444396972656 407.44256591796875 385.1197814941406 422.6227111816406 437.51849365234375 402.9610595703125" fill="rgb(95, 89, 87)" opacity="0.62991893" stroke="rgb(225, 154, 132)" stroke-linecap="round" stroke-linejoin="round" stroke-opacity="0.22701062" stroke-width="0.0"/>
    <path d="M 391.59490966796875 330.94024658203125 C 388.1636962890625 406.9194030761719 389.07550048828125 412.3338623046875 359.74993896484375 427.9725036621094 C 291.7698059082031 397.60211181640625 319.3829650878906 417.1025085449219 329.51776123046875 395.9851989746094 C 331.66119384765625 306.6248474121094 328.2340087890625 343.5455322265625 336.7513732910156 341.3183898925781 C 367.153076171875 329.9429626464844 390.4263916015625 338.8343505859375 391.59490966796875 330.94024658203125" fill="rgb(255, 121, 9)" opacity="0.9603967" stroke="rgb(236, 159, 132)" stroke-linecap="round" stroke-linejoin="round" stroke-opacity="0.9205877" stroke-width="0.0"/>
    <path d="M 517.7044677734375 445.0889587402344 C 509.4156494140625 474.4876708984375 505.6346130371094 476.97076416015625 505.3032531738281 482.9388732910156 C 465.0516052246094 465.9746398925781 465.8208923339844 451.8327331542969 457.9153747558594 436.71282958984375 C 454.0301513671875 418.95404052734375 449.84490966796875 434.61151123046875 481.92095947265625 416.2268981933594 C 496.0294494628906 430.8343505859375 512.1119384765625 428.68658447265625 517.7044677734375 445.0889587402344" fill="rgb(242, 122, 22)" opacity="0.98645" stroke="rgb(1, 8, 70)" stroke-linecap="round" stroke-linejoin="round" stroke-opacity="0.22047542" stroke-width="0.0"/>
    <path d="M 416.4000549316406 496.7626953125 C 488.3713684082031 497.9156799316406 546.4492797851562 493.1584777832031 528.4868774414062 503.4230651855469 C 294.8544921875 503.92962646484375 274.7391357421875 503.21551513671875 404.9477844238281 492.6705322265625 C 412.8092346191406 485.1509094238281 404.9596252441406 466.12847900390625 411.2668762207031 469.4823913574219 C 421.3519592285156 475.96600341796875 423.5343933105469 463.8772888183594 416.4000549316406 496.7626953125" fill="rgb(0, 0, 0)" opacity="0.946164" stroke="rgb(69, 177, 133)" stroke-linecap="round" stroke-linejoin="round" stroke-opacity="0.599034" stroke-width="0.0"/>
    <path d="M 583.6447143554688 473.9919738769531 C 560.029296875 481.63604736328125 537.2431640625 494.50775146484375 515.0476684570312 485.7358093261719 C 496.6798400878906 481.4704284667969 481.016357421875 465.87908935546875 476.7062072753906 417.999267578125 C 481.4638977050781 427.8768310546875 491.40069580078125 421.1600341796875 510.8419494628906 433.2514343261719 C 540.6946411132812 447.9596862792969 573.1740112304688 466.0322570800781 583.6447143554688 473.9919738769531" fill="rgb(252, 125, 13)" opacity="0.96855474" stroke="rgb(145, 14, 132)" stroke-linecap="round" stroke-linejoin="round" stroke-opacity="0.33592916" stroke-width="0.0"/>
    <path d="M 462.1673278808594 364.4791259765625 C 464.52252197265625 384.7958068847656 456.3505554199219 409.7203369140625 424.1758117675781 420.5152893066406 C 395.6568603515625 411.0993347167969 407.2138671875 397.1057434082031 397.4871826171875 360.6534423828125 C 386.1976013183594 336.49896240234375 389.9078063964844 329.8928527832031 389.3680419921875 333.761474609375 C 439.81195068359375 331.60400390625 455.15838623046875 353.9562072753906 462.1673278808594 364.4791259765625" fill="rgb(250, 124, 10)" opacity="0.978791" stroke="rgb(93, 64, 49)" stroke-linecap="round" stroke-linejoin="round" stroke-opacity="0.045321107" stroke-width="0.0"/>
    <path d="M 316.5684509277344 354.168701171875 C 311.87890625 382.9896240234375 301.34869384765625 389.914306640625 268.17724609375 393.46856689453125 C 267.8293151855469 403.6154479980469 266.1941223144531 395.3725280761719 269.9045715332031 353.2806701660156 C 270.2688903808594 362.91217041015625 261.73443603515625 317.5611572265625 271.8425598144531 333.53668212890625 C 295.93646240234375 367.381103515625 294.1205749511719 372.5285339355469 316.5684509277344 354.168701171875" fill="rgb(253, 242, 202)" opacity="1.0" stroke="rgb(158, 235, 61)" stroke-linecap="round" stroke-linejoin="round" stroke-opacity="0.14556226" stroke-width="0.0"/>
    <path d="M 430.487060546875 435.7901916503906 C 421.8955993652344 462.9589538574219 424.98541259765625 475.71246337890625 424.306884765625 467.0137634277344 C 410.17584228515625 482.9661865234375 404.81671142578125 453.4045715332031 404.51922607421875 450.780517578125 C 391.9510192871094 419.05804443359375 393.58343505859375 415.5925598144531 387.9625244140625 407.5343933105469 C 421.1385803222656 415.6513977050781 438.07470703125 414.3630065917969 430.487060546875 435.7901916503906" fill="rgb(252, 131, 10)" opacity="0.9782044" stroke="rgb(186, 213, 222)" stroke-linecap="round" stroke-linejoin="round" stroke-opacity="0.78087103" stroke-width="0.0"/>
    <path d="M 381.2060852050781 414.84381103515625 C 380.56292724609375 428.17425537109375 381.197265625 447.96136474609375 378.9599609375 451.9551086425781 C 351.13946533203125 438.2362976074219 364.2044372558594 484.01556396484375 343.9184875488281 419.8119812011719 C 291.8247985839844 403.4252014160156 370.3399963378906 378.2259216308594 379.6956481933594 403.0264587402344 C 379.18572998046875 433.0630187988281 381.62701416015625 452.47186279296875 381.2060852050781 414.84381103515625" fill="rgb(250, 124, 5)" opacity="1.0" stroke="rgb(110, 84, 250)" stroke-linecap="round" stroke-linejoin="round" stroke-opacity="0.19039516" stroke-width="0.0"/>
    <path d="M 264.463134765625 411.50848388671875 C 267.3504943847656 413.9646301269531 267.8155822753906 417.6350402832031 262.6598815917969 413.6613464355469 C 260.91912841796875 414.6817626953125 256.947021484375 410.1300964355469 252.47088623046875 409.0220947265625 C 264.03570556640625 409.3184814453125 256.4097595214844 398.9584045410156 280.4649963378906 387.62152099609375 C 279.5943298339844 397.3783264160156 279.4811706542969 399.0735778808594 264.463134765625 411.50848388671875" fill="rgb(13, 0, 0)" opacity="0.8754618" stroke="rgb(134, 245, 181)" stroke-linecap="round" stroke-linejoin="round" stroke-opacity="0.7360547" stroke-width="0.0"/>
    <path d="M 378.4145812988281 455.4166259765625 C 379.6528625488281 475.4355773925781 382.52581787109375 464.3807678222656 375.19805908203125 467.0401306152344 C 375.4804992675781 461.18670654296875 367.7144775390625 464.8477783203125 369.7594299316406 451.94390869140625 C 376.87884521484375 464.700927734375 369.3561096191406 447.6124267578125 374.9913330078125 460.2231750488281 C 377.2702941894531 450.30255126953125 375.05621337890625 464.58905029296875 378.4145812988281 455.4166259765625" fill="rgb(246, 147, 43)" opacity="0.65756416" stroke="rgb(142, 213, 34)" stroke-linecap="round" stroke-linejoin="round" stroke-opacity="0.6861953" stroke-width="0.0"/>
    <path d="M 377.3992614746094 467.0879821777344 C 385.37060546875 509.4771728515625 392.02880859375 502.736328125 358.0040283203125 503.45263671875 C 355.6000671386719 469.8695068359375 357.2120056152344 467.6583251953125 353.2328796386719 453.74334716796875 C 356.01177978515625 470.84869384765625 354.2733459472656 459.2536926269531 353.90838623046875 455.00537109375 C 358.4322814941406 463.6026916503906 368.7055358886719 459.05267333984375 377.3992614746094 467.0879821777344" fill="rgb(1, 0, 1)" opacity="0.9848507" stroke="rgb(38, 36, 231)" stroke-linecap="round" stroke-linejoin="round" stroke-opacity="0.41107637" stroke-width="0.0"/>
    <path d="M 366.62554931640625 489.6932067871094 C 364.1078186035156 496.3390197753906 358.3724365234375 497.8866882324219 359.2546081542969 496.61309814453125 C 360.371826171875 499.7950439453125 355.086669921875 494.4399719238281 358.6283874511719 500.5210266113281 C 365.7095642089844 497.222412109375 366.38067626953125 497.3106689453125 367.3922424316406 493.2836608886719 C 367.42852783203125 479.9933776855469 366.5047912597656 475.50201416015625 366.62554931640625 489.6932067871094" fill="rgb(206, 154, 86)" opacity="0.93274164" stroke="rgb(241, 193, 12)" stroke-linecap="round" stroke-linejoin="round" stroke-opacity="0.13479766" stroke-width="0.0"/>
    <path d="M 366.8667297363281 459.8996887207031 C 365.5415344238281 460.8446044921875 358.0811462402344 458.03424072265625 361.0071716308594 457.9919738769531 C 367.577392578125 455.4081115722656 363.7935791015625 457.0632019042969 360.3878173828125 458.0971374511719 C 352.5218811035156 458.9560852050781 353.6806945800781 441.35540771484375 363.53704833984375 442.3322448730469 C 365.7403869628906 453.78662109375 367.15325927734375 456.6090393066406 366.8667297363281 459.8996887207031" fill="rgb(255, 167, 15)" opacity="0.63098425" stroke="rgb(55, 11, 233)" stroke-linecap="round" stroke-linejoin="round" stroke-opacity="0.7047128" stroke-width="0.0"/>
    <path d="M 364.73468017578125 445.81494140625 C 368.9147033691406 461.62420654296875 389.98291015625 482.3900451660156 365.4366760253906 472.564453125 C 367.777587890625 458.10595703125 365.574951171875 436.23187255859375 366.61004638671875 450.1307678222656 C 373.994873046875 468.09844970703125 374.09820556640625 467.0492858886719 369.35302734375 457.9289245605469 C 371.9009704589844 460.6726379394531 369.2244567871094 458.1064453125 364.73468017578125 445.81494140625" fill="rgb(1, 0, 0)" opacity="0.87572193" stroke="rgb(74, 0, 75)" stroke-linecap="round" stroke-linejoin="round" stroke-opacity="0.77200115" stroke-width="0.0"/>
    <path d="M 289.90399169921875 390.5365905761719 C 270.0166320800781 408.1216735839844 261.96942138671875 415.652587890625 264.8841247558594 409.4762878417969 C 254.9421844482422 408.6980895996094 262.04864501953125 404.3880615234375 265.0406494140625 400.49530029296875 C 259.42291259765625 406.0765380859375 263.8924560546875 400.3177490234375 266.51275634765625 394.9355773925781 C 274.260498046875 370.0521240234375 283.13983154296875 373.2391662597656 289.90399169921875 390.5365905761719" fill="rgb(255, 99, 26)" opacity="0.6853465" stroke="rgb(237, 231, 140)" stroke-linecap="round" stroke-linejoin="round" stroke-opacity="0.65921414" stroke-width="0.0"/>
    <path d="M 408.251708984375 497.66937255859375 C 392.1477355957031 497.3496398925781 362.7289733886719 498.1072082519531 388.84161376953125 498.3234558105469 C 374.8690490722656 498.99285888671875 378.8464660644531 499.1537170410156 383.0614013671875 492.4677429199219 C 374.6565246582031 504.9417419433594 379.4583435058594 494.1085205078125 382.6209411621094 419.9097595214844 C 391.82421875 399.9320373535156 412.4441833496094 466.0611572265625 408.251708984375 497.66937255859375" fill="rgb(92, 89, 87)" opacity="1.0" stroke="rgb(63, 60, 109)" stroke-linecap="round" stroke-linejoin="round" stroke-opacity="0.03931712" stroke-width="0.0"/>
    <path d="M 307.49395751953125 376.6625061035156 C 298.4142761230469 377.17901611328125 310.28094482421875 369.9918518066406 307.545166015625 378.6885070800781 C 296.3616027832031 386.9423828125 279.11090087890625 396.22991943359375 278.1771545410156 390.27490234375 C 278.83642578125 358.6744384765625 288.73699951171875 366.1233215332031 291.34405517578125 354.9392395019531 C 326.0659484863281 350.8460998535156 310.5384521484375 384.48236083984375 307.49395751953125 376.6625061035156" fill="rgb(255, 124, 17)" opacity="0.9318606" stroke="rgb(180, 75, 209)" stroke-linecap="round" stroke-linejoin="round" stroke-opacity="0.43087858" stroke-width="0.0"/>
    <path d="M 292.56292724609375 386.6625061035156 C 297.93695068359375 385.6343994140625 291.53057861328125 390.9050598144531 287.57171630859375 394.31207275390625 C 266.36199951171875 409.54119873046875 251.3414306640625 417.44305419921875 268.7995910644531 393.1556396484375 C 261.8460693359375 346.7166442871094 273.9186706542969 366.5025634765625 278.55096435546875 360.1064453125 C 303.9217834472656 373.7037658691406 310.1123352050781 378.9690856933594 292.56292724609375 386.6625061035156" fill="rgb(253, 129, 17)" opacity="0.9670829" stroke="rgb(1, 56, 121)" stroke-linecap="round" stroke-linejoin="round" stroke-opacity="0.42367226" stroke-width="0.0"/>
    <path d="M 440.09136962890625 477.1905822753906 C 442.5995788574219 481.2373046875 442.5848693847656 466.8832092285156 442.3259582519531 501.9446716308594 C 419.71307373046875 500.7193298339844 422.5208740234375 515.7430419921875 426.75592041015625 452.8008728027344 C 438.0932922363281 473.4338684082031 437.0355529785156 475.11651611328125 438.9363098144531 477.2492370605469 C 438.0518798828125 476.62127685546875 449.102783203125 481.973388671875 440.09136962890625 477.1905822753906" fill="rgb(0, 0, 0)" opacity="0.9797469" stroke="rgb(189, 231, 16)" stroke-linecap="round" stroke-linejoin="round" stroke-opacity="0.9765613" stroke-width="0.0"/>
    <path d="M 351.3005676269531 496.8232116699219 C 355.967529296875 501.2498474121094 324.0599060058594 496.6399841308594 343.3008728027344 497.0396423339844 C 325.5020446777344 498.5370788574219 327.6070251464844 495.83709716796875 327.416748046875 503.843994140625 C 324.24749755859375 501.81939697265625 360.43603515625 505.8720703125 394.7974548339844 500.074951171875 C 319.5952453613281 496.5050964355469 323.46466064453125 499.2366638183594 351.3005676269531 496.8232116699219" fill="rgb(0, 0, 1)" opacity="0.73748714" stroke="rgb(92, 146, 213)" stroke-linecap="round" stroke-linejoin="round" stroke-opacity="0.69483376" stroke-width="0.0"/>
    <path d="M 310.43218994140625 372.3704833984375 C 308.7175598144531 378.8294677734375 304.0344543457031 377.48260498046875 309.53729248046875 378.4507751464844 C 306.3566589355469 374.6746826171875 278.8971862792969 381.065673828125 267.72601318359375 329.9990234375 C 307.2264404296875 351.6633605957031 282.60137939453125 395.9404296875 315.3819274902344 349.88763427734375 C 341.5227966308594 321.6128845214844 323.3869934082031 358.8395690917969 310.43218994140625 372.3704833984375" fill="rgb(252, 105, 6)" opacity="0.9099724" stroke="rgb(116, 235, 94)" stroke-linecap="round" stroke-linejoin="round" stroke-opacity="0.990951" stroke-width="0.0"/>
    <path d="M 508.11688232421875 251.6665496826172 C 527.4833374023438 280.1463623046875 532.4402465820312 291.6328430175781 482.6846923828125 289.08099365234375 C 423.66827392578125 281.7176818847656 417.7016296386719 277.5325622558594 381.35205078125 193.23475646972656 C 395.1746826171875 166.47984313964844 417.76019287109375 177.44973754882812 447.6383361816406 180.98812866210938 C 496.35858154296875 194.3644256591797 494.54345703125 205.26190185546875 508.11688232421875 251.6665496826172" fill="rgb(134, 140, 138)" opacity="1.0" stroke="rgb(161, 155, 181)" stroke-linecap="round" stroke-linejoin="round" stroke-opacity="0.91961896" stroke-width="0.0"/>
    <path d="M 386.31817626953125 109.48115539550781 C 375.62738037109375 104.63430786132812 376.82635498046875 106.46076965332031 386.0945739746094 118.97640991210938 C 374.31494140625 108.37361145019531 376.1885986328125 107.82083129882812 363.20843505859375 105.46475219726562 C 374.76934814453125 109.15997314453125 377.2345886230469 104.59547424316406 373.5586242675781 98.35353088378906 C 378.0621643066406 103.61656951904297 380.02154541015625 104.64374542236328 386.31817626953125 109.48115539550781" fill="rgb(133, 139, 137)" opacity="0.9076311" stroke="rgb(223, 54, 42)" stroke-linecap="round" stroke-linejoin="round" stroke-opacity="0.97345334" stroke-width="0.0"/>
    <path d="M 774.5368041992188 288.1274719238281 C 778.9547729492188 358.7696228027344 781.5418701171875 379.35626220703125 760.2171020507812 378.5291748046875 C 634.4254760742188 321.6566162109375 627.859375 316.4652099609375 607.9949951171875 248.70387268066406 C 585.4841918945312 196.85787963867188 584.927978515625 190.82135009765625 628.8482055664062 179.17236328125 C 761.6006469726562 177.25570678710938 779.9295043945312 192.2089385986328 774.5368041992188 288.1274719238281" fill="rgb(134, 140, 138)" opacity="0.93748367" stroke="rgb(245, 131, 4)" stroke-linecap="round" stroke-linejoin="round" stroke-opacity="0.5054409" stroke-width="0.0"/>
    <path d="M 209.9125213623047 767.6827392578125 C 151.6962127685547 790.1852416992188 121.85203552246094 758.4737548828125 91.48280334472656 773.7371826171875 C 63.95793151855469 767.8284301757812 23.88649559020996 772.6458740234375 -17.54000473022461 766.3510131835938 C -20.964820861816406 619.2918701171875 -32.69693374633789 581.5271606445312 21.493982315063477 584.9619140625 C 143.7615203857422 677.8584594726562 152.90919494628906 682.6913452148438 209.9125213623047 767.6827392578125" fill="rgb(130, 135, 133)" opacity="0.99994814" stroke="rgb(228, 225, 64)" stroke-linecap="round" stroke-linejoin="round" stroke-opacity="0.46373597" stroke-width="0.0"/>
    <path d="M 741.303466796875 378.7469177246094 C 670.917236328125 404.04254150390625 672.6773681640625 448.9801330566406 582.3729248046875 473.95355224609375 C 524.6935424804688 435.6139221191406 520.4034423828125 458.5028076171875 539.4042358398438 386.601318359375 C 541.5089721679688 303.0959167480469 583.70947265625 315.8230895996094 651.573974609375 292.2334289550781 C 659.4067993164062 308.5545654296875 689.6522827148438 289.4493103027344 741.303466796875 378.7469177246094" fill="rgb(141, 156, 155)" opacity="0.51884335" stroke="rgb(94, 113, 88)" stroke-linecap="round" stroke-linejoin="round" stroke-opacity="0.22765088" stroke-width="0.0"/>
    <path d="M 380.52069091796875 466.3594665527344 C 378.1496276855469 459.181640625 381.03363037109375 503.18115234375 377.8321533203125 497.9501037597656 C 377.99005126953125 472.1656188964844 376.6544189453125 463.1907653808594 378.3289489746094 466.6108093261719 C 386.23712158203125 465.9298400878906 389.118896484375 465.5870666503906 381.61212158203125 466.39776611328125 C 388.258544921875 466.6699523925781 389.98638916015625 466.74652099609375 380.52069091796875 466.3594665527344" fill="rgb(52, 42, 40)" opacity="0.86025697" stroke="rgb(44, 207, 3)" stroke-linecap="round" stroke-linejoin="round" stroke-opacity="0.068362795" stroke-width="0.0"/>
    <path d="M 298.0044250488281 612.4797973632812 C 256.1535339355469 706.5795288085938 251.77139282226562 715.1456909179688 226.86802673339844 771.6312866210938 C 126.20700073242188 743.472900390625 127.72215270996094 719.5869750976562 34.548004150390625 697.4623413085938 C -24.238868713378906 551.1528930664062 -21.693275451660156 508.4742126464844 30.53643226623535 494.70245361328125 C 290.1484375 538.8465576171875 313.1908874511719 547.2066040039062 298.0044250488281 612.4797973632812" fill="rgb(134, 140, 138)" opacity="0.9578477" stroke="rgb(246, 171, 28)" stroke-linecap="round" stroke-linejoin="round" stroke-opacity="0.95242816" stroke-width="0.0"/>
    <path d="M 396.7960205078125 433.83624267578125 C 396.5574035644531 432.8078308105469 396.2193603515625 430.97991943359375 397.520263671875 435.086669921875 C 384.5665588378906 403.9261779785156 392.9609375 395.8902893066406 396.7793273925781 433.19671630859375 C 415.4830627441406 485.70166015625 410.4381103515625 460.49920654296875 397.6869201660156 429.0360107421875 C 394.81585693359375 420.2176818847656 395.7200012207031 421.99237060546875 396.7960205078125 433.83624267578125" fill="rgb(254, 137, 45)" opacity="0.61761665" stroke="rgb(226, 92, 103)" stroke-linecap="round" stroke-linejoin="round" stroke-opacity="0.593339" stroke-width="0.0"/>
    <path d="M 716.1984252929688 87.90716552734375 C 688.9207153320312 74.49038696289062 688.5087280273438 83.24967193603516 686.6963500976562 91.99602508544922 C 686.292236328125 80.31060028076172 683.204833984375 83.50341033935547 664.6856079101562 82.52377319335938 C 670.4241943359375 68.41490936279297 649.9489135742188 58.04476547241211 687.6646118164062 -24.662269592285156 C 738.4105834960938 31.089115142822266 716.7842407226562 59.73584747314453 716.1984252929688 87.90716552734375" fill="rgb(129, 134, 130)" opacity="0.18207322" stroke="rgb(209, 193, 139)" stroke-linecap="round" stroke-linejoin="round" stroke-opacity="0.65949374" stroke-width="0.0"/>
    <path d="M 727.0990600585938 648.1808471679688 C 671.2932739257812 708.5178833007812 661.2779541015625 708.3532104492188 617.9070434570312 717.6123657226562 C 571.9991455078125 716.597412109375 569.815673828125 707.3644409179688 524.3818969726562 557.7332763671875 C 517.6610717773438 525.6596069335938 537.5228881835938 533.0182495117188 657.4223022460938 565.5428466796875 C 693.7374877929688 590.0945434570312 713.4176635742188 591.6647338867188 727.0990600585938 648.1808471679688" fill="rgb(128, 129, 126)" opacity="0.7511122" stroke="rgb(86, 217, 124)" stroke-linecap="round" stroke-linejoin="round" stroke-opacity="0.9775749" stroke-width="0.0"/>
    <path d="M 609.2490234375 180.10276794433594 C 607.2510986328125 184.09732055664062 605.3988647460938 184.35182189941406 598.2372436523438 189.770263671875 C 595.82373046875 187.9872283935547 594.811767578125 182.97396850585938 599.6610717773438 174.8284912109375 C 589.4854736328125 180.51226806640625 592.1571655273438 179.9762420654297 603.7763061523438 176.16525268554688 C 608.9783325195312 183.5068359375 601.6472778320312 173.9420928955078 609.2490234375 180.10276794433594" fill="rgb(134, 140, 137)" opacity="0.887507" stroke="rgb(245, 14, 88)" stroke-linecap="round" stroke-linejoin="round" stroke-opacity="0.843367" stroke-width="0.0"/>
    <path d="M 601.8184814453125 698.3037109375 C 605.7342529296875 745.8372192382812 606.4227294921875 759.7203979492188 574.5199584960938 770.642333984375 C 474.6798095703125 770.807861328125 449.98101806640625 772.1738891601562 473.7540283203125 764.9163818359375 C 483.9281921386719 634.4957275390625 482.1943664550781 626.04541015625 516.65771484375 565.1072998046875 C 607.55126953125 597.8001708984375 593.377197265625 634.9879150390625 601.8184814453125 698.3037109375" fill="rgb(136, 145, 143)" opacity="0.77890193" stroke="rgb(59, 94, 190)" stroke-linecap="round" stroke-linejoin="round" stroke-opacity="0.3782327" stroke-width="0.0"/>
    <path d="M 318.4151611328125 409.2949523925781 C 336.7138366699219 599.9614868164062 343.974853515625 606.9852905273438 281.1171569824219 577.5396728515625 C 141.84783935546875 559.1466674804688 121.60237884521484 563.56982421875 81.13761138916016 508.59637451171875 C 172.44056701660156 430.3267517089844 172.35243225097656 297.27813720703125 266.68328857421875 358.4353332519531 C 230.2884063720703 450.251708984375 262.3448486328125 415.1976623535156 318.4151611328125 409.2949523925781" fill="rgb(135, 142, 139)" opacity="0.9318639" stroke="rgb(18, 59, 164)" stroke-linecap="round" stroke-linejoin="round" stroke-opacity="0.41907847" stroke-width="0.0"/>
    <path d="M 638.1705932617188 298.7686462402344 C 616.4376831054688 338.3420104980469 612.1574096679688 341.5613098144531 556.1123046875 385.11749267578125 C 543.1229248046875 379.4781494140625 524.2918090820312 362.2419738769531 506.7421569824219 265.7655944824219 C 533.9337158203125 250.15585327148438 531.0762329101562 227.6016845703125 597.9898071289062 212.49778747558594 C 641.2091674804688 261.1538391113281 641.545654296875 270.62506103515625 638.1705932617188 298.7686462402344" fill="rgb(131, 138, 136)" opacity="0.52719444" stroke="rgb(163, 70, 35)" stroke-linecap="round" stroke-linejoin="round" stroke-opacity="0.5162285" stroke-width="0.0"/>
    <path d="M 35.71076202392578 457.68896484375 C 33.76032257080078 459.59576416015625 31.10869598388672 461.6003112792969 29.757972717285156 463.28424072265625 C 27.766551971435547 460.301513671875 26.283172607421875 458.3953857421875 30.581859588623047 461.5762023925781 C 24.983922958374023 452.14520263671875 19.663177490234375 453.3499755859375 26.255647659301758 457.6703186035156 C 32.7217903137207 447.7244567871094 29.721851348876953 456.72900390625 35.71076202392578 457.68896484375" fill="rgb(137, 142, 140)" opacity="0.889965" stroke="rgb(130, 202, 35)" stroke-linecap="round" stroke-linejoin="round" stroke-opacity="0.58166426" stroke-width="0.0"/>
    <path d="M 198.7737274169922 75.64781188964844 C 187.33236694335938 71.76039123535156 190.70632934570312 74.31334686279297 188.45657348632812 81.42578125 C 188.24014282226562 70.98666381835938 188.805908203125 79.982666015625 180.89942932128906 70.81918334960938 C 182.0926055908203 70.08348846435547 182.899169921875 70.53412628173828 188.0067138671875 75.75320434570312 C 193.8721923828125 66.96586608886719 189.5642852783203 76.03414154052734 198.7737274169922 75.64781188964844" fill="rgb(137, 143, 140)" opacity="0.91123915" stroke="rgb(110, 187, 56)" stroke-linecap="round" stroke-linejoin="round" stroke-opacity="0.10865478" stroke-width="0.0"/>
    <path d="M 736.9970703125 9.165878295898438 C 737.0684814453125 13.025566101074219 735.2351684570312 6.3700270652771 733.852783203125 19.740861892700195 C 731.3045043945312 6.821951866149902 730.5858764648438 16.462718963623047 726.0836181640625 6.92625093460083 C 728.03662109375 2.594208240509033 724.0738525390625 -0.22447356581687927 731.6511840820312 1.531624436378479 C 735.9129028320312 -1.073280930519104 739.5789794921875 4.471771717071533 736.9970703125 9.165878295898438" fill="rgb(132, 137, 134)" opacity="0.88680327" stroke="rgb(34, 135, 215)" stroke-linecap="round" stroke-linejoin="round" stroke-opacity="0.6037126" stroke-width="0.0"/>
    <path d="M 787.5870971679688 712.4497680664062 C 771.9312744140625 821.9488525390625 726.1362915039062 750.0202026367188 661.6135864257812 774.7393188476562 C 618.8870849609375 771.4732055664062 610.4533081054688 770.6318969726562 580.8171997070312 767.886962890625 C 594.1175537109375 690.6151123046875 605.4877319335938 690.4845581054688 660.5425415039062 674.17578125 C 733.872314453125 635.370849609375 765.1163330078125 612.9049072265625 787.5870971679688 712.4497680664062" fill="rgb(136, 144, 142)" opacity="0.7489305" stroke="rgb(106, 208, 182)" stroke-linecap="round" stroke-linejoin="round" stroke-opacity="0.85499585" stroke-width="0.0"/>
    <path d="M 538.2999877929688 396.64935302734375 C 529.5253295898438 464.03778076171875 556.2405395507812 450.8711242675781 484.442138671875 422.372802734375 C 471.1811828613281 365.1879577636719 458.315185546875 357.8857116699219 461.0727233886719 373.572021484375 C 465.69476318359375 353.13641357421875 427.0137939453125 343.37261962890625 395.4709777832031 295.10137939453125 C 533.9356079101562 278.91070556640625 548.584228515625 285.0522155761719 538.2999877929688 396.64935302734375" fill="rgb(142, 156, 155)" opacity="0.49567702" stroke="rgb(207, 41, 173)" stroke-linecap="round" stroke-linejoin="round" stroke-opacity="0.37672117" stroke-width="0.0"/>
    <path d="M 721.0517578125 540.8428955078125 C 700.2777709960938 565.095703125 707.3604125976562 582.7271118164062 597.7166137695312 596.0100708007812 C 536.4946899414062 579.5529174804688 494.5411682128906 532.4236450195312 571.298095703125 502.27105712890625 C 580.318603515625 424.4713439941406 577.0624389648438 419.7040100097656 779.2300415039062 369.9147644042969 C 783.0973510742188 429.9248962402344 763.262939453125 457.8948059082031 721.0517578125 540.8428955078125" fill="rgb(145, 167, 166)" opacity="0.3436246" stroke="rgb(118, 195, 241)" stroke-linecap="round" stroke-linejoin="round" stroke-opacity="0.34138134" stroke-width="0.0"/>
    <path d="M 463.295654296875 309.7751770019531 C 447.8236389160156 374.737060546875 460.2766418457031 339.1344909667969 404.99981689453125 334.9047546386719 C 268.1604309082031 326.77020263671875 337.4821472167969 390.7271423339844 268.9088439941406 331.37255859375 C 176.95042419433594 167.4542694091797 144.7486572265625 144.86019897460938 196.52462768554688 159.65155029296875 C 471.3395690917969 202.13670349121094 452.98052978515625 228.369384765625 463.295654296875 309.7751770019531" fill="rgb(150, 154, 141)" opacity="0.49887952" stroke="rgb(176, 5, 136)" stroke-linecap="round" stroke-linejoin="round" stroke-opacity="0.7367725" stroke-width="0.0"/>
    <path d="M 600.8840942382812 153.17733764648438 C 584.5715942382812 277.6307373046875 562.072509765625 274.5836181640625 529.0073852539062 277.9148864746094 C 472.0585021972656 253.9852294921875 477.5412902832031 237.06944274902344 474.7439880371094 208.12986755371094 C 471.5080261230469 185.11419677734375 467.8622741699219 175.359619140625 497.6706237792969 175.23509216308594 C 536.5546264648438 222.69322204589844 548.7149047851562 173.6589813232422 600.8840942382812 153.17733764648438" fill="rgb(133, 140, 137)" opacity="1.0" stroke="rgb(53, 19, 243)" stroke-linecap="round" stroke-linejoin="round" stroke-opacity="0.2601909" stroke-width="0.0"/>
    <path d="M 532.104736328125 174.56729125976562 C 537.5208129882812 177.14312744140625 534.4325561523438 181.5474853515625 529.3843994140625 178.9723358154297 C 530.39501953125 180.30677795410156 520.5146484375 175.5283203125 513.5969848632812 153.8707733154297 C 530.5397338867188 180.681640625 527.9759521484375 183.7488250732422 529.82763671875 165.8321075439453 C 536.0477905273438 171.95809936523438 531.2403564453125 169.34445190429688 532.104736328125 174.56729125976562" fill="rgb(136, 142, 140)" opacity="0.8927217" stroke="rgb(227, 207, 184)" stroke-linecap="round" stroke-linejoin="round" stroke-opacity="0.49323773" stroke-width="0.0"/>
    <path d="M 360.44647216796875 97.24038696289062 C 342.2040100097656 95.85202026367188 341.669921875 96.04956817626953 342.30267333984375 107.0445556640625 C 337.7168273925781 95.42393493652344 339.2043762207031 99.22186279296875 331.4790954589844 86.07532501220703 C 339.3203430175781 96.33094787597656 337.9222106933594 93.31461334228516 338.2790222167969 81.52855682373047 C 347.01458740234375 82.25817108154297 349.9730224609375 84.5803451538086 360.44647216796875 97.24038696289062" fill="rgb(133, 141, 139)" opacity="0.8902503" stroke="rgb(88, 123, 87)" stroke-linecap="round" stroke-linejoin="round" stroke-opacity="0.76970804" stroke-width="0.0"/>
    <path d="M 388.7611999511719 744.68603515625 C 395.590576171875 781.187744140625 383.88311767578125 770.0579223632812 310.9145812988281 767.1796875 C 238.89279174804688 774.9686279296875 217.07957458496094 779.2267456054688 226.64320373535156 749.8004760742188 C 243.28329467773438 624.9910888671875 234.57615661621094 592.6569213867188 328.4615783691406 564.0891723632812 C 378.206787109375 622.939453125 378.6972351074219 639.9927368164062 388.7611999511719 744.68603515625" fill="rgb(133, 140, 138)" opacity="0.9606079" stroke="rgb(74, 55, 104)" stroke-linecap="round" stroke-linejoin="round" stroke-opacity="0.9322177" stroke-width="0.0"/>
    <path d="M 778.6951293945312 551.9852905273438 C 771.968994140625 575.5208129882812 784.75244140625 590.91455078125 769.6873779296875 657.8785400390625 C 668.57861328125 641.66357421875 667.9212036132812 614.9326171875 672.0798950195312 575.6475219726562 C 688.486083984375 492.9910888671875 688.5363159179688 483.3398742675781 765.2144775390625 439.2550354003906 C 776.0949096679688 476.60504150390625 768.5086059570312 504.02740478515625 778.6951293945312 551.9852905273438" fill="rgb(134, 141, 138)" opacity="0.96168405" stroke="rgb(54, 61, 132)" stroke-linecap="round" stroke-linejoin="round" stroke-opacity="0.3255722" stroke-width="0.0"/>
    <path d="M 341.6575012207031 430.610107421875 C 344.129638671875 415.7361755371094 348.8528137207031 427.65142822265625 356.7955322265625 498.33819580078125 C 293.2463073730469 499.2693786621094 364.61602783203125 496.0569763183594 281.63201904296875 435.6802062988281 C 315.3111572265625 403.90386962890625 310.03350830078125 413.79193115234375 342.27203369140625 417.8600769042969 C 347.4059753417969 425.2162780761719 342.3707580566406 435.0751953125 341.6575012207031 430.610107421875" fill="rgb(123, 131, 130)" opacity="0.6489432" stroke="rgb(108, 134, 196)" stroke-linecap="round" stroke-linejoin="round" stroke-opacity="0.52081335" stroke-width="0.0"/>
    <path d="M 599.1912231445312 48.34512710571289 C 596.8228759765625 54.95950698852539 589.9666748046875 47.25979232788086 578.9909057617188 40.3436279296875 C 595.81005859375 58.20957946777344 590.2114868164062 52.14533615112305 577.77392578125 44.29258346557617 C 587.4175415039062 48.83126449584961 585.2548217773438 45.04924774169922 583.6541137695312 28.73581886291504 C 592.3209838867188 46.179359436035156 596.6806030273438 41.48869323730469 599.1912231445312 48.34512710571289" fill="rgb(135, 142, 140)" opacity="0.9029001" stroke="rgb(81, 143, 75)" stroke-linecap="round" stroke-linejoin="round" stroke-opacity="0.257725" stroke-width="0.0"/>
    <path d="M 498.09942626953125 687.1521606445312 C 493.4832763671875 741.9620361328125 502.13092041015625 761.3370361328125 439.114990234375 775.5245971679688 C 350.2253723144531 774.892822265625 343.5673828125 756.51123046875 317.710205078125 500.4959716796875 C 277.2625732421875 505.3459777832031 264.2425231933594 503.72247314453125 544.94970703125 503.6507873535156 C 569.8436889648438 578.7810668945312 517.5072021484375 604.3639526367188 498.09942626953125 687.1521606445312" fill="rgb(134, 141, 139)" opacity="0.89783233" stroke="rgb(241, 234, 229)" stroke-linecap="round" stroke-linejoin="round" stroke-opacity="0.34116906" stroke-width="0.0"/>
    <path d="M 427.733642578125 453.925048828125 C 438.1002197265625 468.4143981933594 442.0978088378906 492.7167053222656 443.8262634277344 462.9034118652344 C 445.3359375 455.003662109375 443.9858703613281 451.1418762207031 444.70013427734375 449.8147888183594 C 445.1184387207031 463.500732421875 445.12945556640625 459.31378173828125 445.7271423339844 435.7413330078125 C 446.83172607421875 453.7533264160156 421.8956298828125 388.0861511230469 427.733642578125 453.925048828125" fill="rgb(254, 123, 7)" opacity="0.984981" stroke="rgb(68, 131, 10)" stroke-linecap="round" stroke-linejoin="round" stroke-opacity="0.0097710695" stroke-width="0.0"/>
    <path d="M 329.4808654785156 23.869300842285156 C 319.8425598144531 16.805997848510742 320.9382629394531 18.807666778564453 320.22894287109375 26.950986862182617 C 318.2861328125 27.451562881469727 316.6494140625 23.778213500976562 322.84393310546875 22.622888565063477 C 318.060302734375 16.83837890625 315.2288513183594 14.731648445129395 317.25250244140625 10.362678527832031 C 323.4839172363281 25.312549591064453 324.3425598144531 13.32211685180664 329.4808654785156 23.869300842285156" fill="rgb(132, 138, 136)" opacity="0.90728647" stroke="rgb(2, 87, 183)" stroke-linecap="round" stroke-linejoin="round" stroke-opacity="0.19604808" stroke-width="0.0"/>
    <path d="M 302.81646728515625 297.28045654296875 C 289.6619567871094 281.4568786621094 291.7387390136719 280.4963073730469 286.3339538574219 303.3742980957031 C 293.9375305175781 290.0837707519531 289.4975280761719 286.19805908203125 286.20831298828125 284.781005859375 C 287.5133972167969 281.2792663574219 287.5079345703125 279.6981506347656 289.1405944824219 285.8791198730469 C 290.7490539550781 280.2115783691406 297.1753234863281 283.697265625 302.81646728515625 297.28045654296875" fill="rgb(124, 130, 125)" opacity="0.93885624" stroke="rgb(46, 61, 52)" stroke-linecap="round" stroke-linejoin="round" stroke-opacity="0.09060615" stroke-width="0.0"/>
    <path d="M 434.369384765625 309.6138000488281 C 429.97662353515625 310.7904052734375 494.67059326171875 302.8900146484375 454.3970642089844 348.66455078125 C 408.10699462890625 328.4415283203125 399.5133361816406 325.9173583984375 411.1480712890625 331.9685974121094 C 406.39984130859375 315.525634765625 412.495849609375 318.77618408203125 418.2007141113281 313.9756774902344 C 414.0106506347656 318.01123046875 415.6981201171875 321.05419921875 434.369384765625 309.6138000488281" fill="rgb(134, 141, 140)" opacity="1.0" stroke="rgb(200, 101, 31)" stroke-linecap="round" stroke-linejoin="round" stroke-opacity="0.514932" stroke-width="0.0"/>
    <path d="M 40.685523986816406 36.19727325439453 C 32.49100875854492 39.36112976074219 31.38151741027832 41.244441986083984 25.39529037475586 46.56513977050781 C 30.217838287353516 39.824623107910156 29.058984756469727 36.88164520263672 18.216176986694336 38.32831573486328 C 29.16094398498535 34.575199127197266 21.388996124267578 40.473411560058594 42.41795349121094 33.62112808227539 C 27.504220962524414 31.355567932128906 30.21278190612793 34.408573150634766 40.685523986816406 36.19727325439453" fill="rgb(133, 140, 138)" opacity="0.9045354" stroke="rgb(13, 119, 84)" stroke-linecap="round" stroke-linejoin="round" stroke-opacity="0.7009471" stroke-width="0.0"/>
    <path d="M 183.03274536132812 390.760986328125 C 170.49949645996094 394.21124267578125 190.8031463623047 404.24505615234375 161.51934814453125 414.060302734375 C 151.52386474609375 406.7425537109375 154.05364990234375 404.82470703125 150.7890167236328 393.4847717285156 C 166.66334533691406 379.3879699707031 166.46987915039062 385.09552001953125 172.31480407714844 382.28033447265625 C 187.91114807128906 388.5776062011719 172.7718505859375 384.0679626464844 183.03274536132812 390.760986328125" fill="rgb(133, 140, 138)" opacity="0.79179716" stroke="rgb(184, 151, 94)" stroke-linecap="round" stroke-linejoin="round" stroke-opacity="0.3022428" stroke-width="0.0"/>
    <path d="M 770.91064453125 716.10546875 C 772.9677124023438 727.3810424804688 771.1460571289062 729.4053344726562 762.16455078125 736.3318481445312 C 768.852294921875 727.8534545898438 766.9586181640625 725.8660278320312 757.1185302734375 720.3187255859375 C 767.5746459960938 715.469970703125 750.69580078125 708.0474243164062 767.56982421875 676.22998046875 C 775.8716430664062 719.8718872070312 774.0172119140625 729.3331909179688 770.91064453125 716.10546875" fill="rgb(131, 137, 135)" opacity="0.9254498" stroke="rgb(28, 254, 13)" stroke-linecap="round" stroke-linejoin="round" stroke-opacity="0.6328933" stroke-width="0.0"/>
    <path d="M 602.1935424804688 127.126220703125 C 588.7833251953125 152.81443786621094 581.905517578125 140.1693115234375 574.8463745117188 147.58641052246094 C 580.5799560546875 142.42636108398438 573.8756713867188 148.39907836914062 571.9492797851562 139.38528442382812 C 576.7001953125 144.346923828125 574.4641723632812 139.80923461914062 574.4472045898438 135.9455108642578 C 579.6332397460938 142.04225158691406 576.8260498046875 137.16629028320312 602.1935424804688 127.126220703125" fill="rgb(135, 142, 140)" opacity="0.8829389" stroke="rgb(30, 251, 25)" stroke-linecap="round" stroke-linejoin="round" stroke-opacity="0.60641605" stroke-width="0.0"/>
    <path d="M 528.8560791015625 675.2875366210938 C 521.3046264648438 687.31787109375 516.5265502929688 686.9176635742188 512.3612670898438 692.5643310546875 C 508.7920227050781 681.2459716796875 503.3898620605469 691.7161865234375 472.4700012207031 685.8233642578125 C 498.97943115234375 661.3265380859375 498.66900634765625 668.9666748046875 512.3157958984375 660.5556640625 C 520.0762939453125 670.5589599609375 522.6142578125 667.3012084960938 528.8560791015625 675.2875366210938" fill="rgb(134, 140, 139)" opacity="1.0" stroke="rgb(146, 164, 11)" stroke-linecap="round" stroke-linejoin="round" stroke-opacity="0.8295321" stroke-width="0.0"/>
    <path d="M 335.3115539550781 1.7141718864440918 C 197.02093505859375 30.280000686645508 195.36859130859375 37.405181884765625 175.5865478515625 11.728889465332031 C 169.00799560546875 14.797845840454102 174.17051696777344 11.590520858764648 170.29966735839844 9.674886703491211 C 182.30819702148438 11.624857902526855 168.299560546875 6.104686737060547 172.36544799804688 0.9461067318916321 C 176.02398681640625 2.051074266433716 184.7119140625 -0.22197088599205017 335.3115539550781 1.7141718864440918" fill="rgb(132, 138, 135)" opacity="1.0" stroke="rgb(244, 166, 31)" stroke-linecap="round" stroke-linejoin="round" stroke-opacity="0.2520861" stroke-width="0.0"/>
    <path d="M 19.965087890625 360.7869873046875 C 19.647541046142578 359.69744873046875 16.305179595947266 361.2865295410156 6.618861675262451 367.7312316894531 C 21.79023551940918 366.20648193359375 13.000202178955078 364.68707275390625 -1.7267870903015137 355.9029541015625 C 14.833394050598145 357.0266418457031 12.204048156738281 355.60137939453125 15.713595390319824 345.01336669921875 C 16.685409545898438 356.3145751953125 16.751893997192383 354.4983215332031 19.965087890625 360.7869873046875" fill="rgb(136, 143, 140)" opacity="0.92086947" stroke="rgb(2, 148, 198)" stroke-linecap="round" stroke-linejoin="round" stroke-opacity="0.68574953" stroke-width="0.0"/>
    <path d="M 172.1960906982422 119.65894317626953 C 172.0123748779297 126.13640594482422 163.77239990234375 121.3735580444336 163.07582092285156 125.35136413574219 C 160.1756134033203 121.47069549560547 157.27883911132812 116.99579620361328 168.72349548339844 126.9017105102539 C 160.33792114257812 112.79518127441406 158.5057830810547 109.7319564819336 161.67623901367188 115.57088470458984 C 165.1326446533203 113.12966918945312 161.43592834472656 124.62621307373047 172.1960906982422 119.65894317626953" fill="rgb(136, 143, 142)" opacity="0.8840043" stroke="rgb(95, 190, 100)" stroke-linecap="round" stroke-linejoin="round" stroke-opacity="0.60271734" stroke-width="0.0"/>
    <path d="M 496.8500671386719 391.7490234375 C 487.08050537109375 403.1739501953125 494.1499328613281 391.6911926269531 482.6934814453125 401.8191223144531 C 482.638671875 389.0760192871094 483.3865051269531 405.40472412109375 483.49224853515625 417.5157470703125 C 467.4017639160156 373.6011657714844 469.39898681640625 333.6498107910156 485.1823425292969 387.8732604980469 C 492.5146484375 394.0883483886719 502.4685363769531 396.7181396484375 496.8500671386719 391.7490234375" fill="rgb(136, 143, 141)" opacity="1.0" stroke="rgb(121, 5, 197)" stroke-linecap="round" stroke-linejoin="round" stroke-opacity="0.14652617" stroke-width="0.0"/>
    <path d="M 477.4764404296875 46.5791130065918 C 483.8233337402344 64.73918151855469 476.0956726074219 65.7777328491211 459.2669677734375 67.06761169433594 C 471.51019287109375 58.265445709228516 466.1380615234375 62.054134368896484 461.55755615234375 60.25791549682617 C 461.65771484375 53.749576568603516 465.5615539550781 54.3785514831543 468.4524230957031 55.037841796875 C 470.3393249511719 51.45072937011719 468.55621337890625 59.41206741333008 477.4764404296875 46.5791130065918" fill="rgb(135, 142, 140)" opacity="0.91815233" stroke="rgb(106, 251, 130)" stroke-linecap="round" stroke-linejoin="round" stroke-opacity="0.30992338" stroke-width="0.0"/>
    <path d="M 703.6572265625 514.7364501953125 C 655.9630126953125 541.930419921875 654.5680541992188 548.977783203125 655.6119384765625 573.457763671875 C 610.1240844726562 535.6947631835938 610.8221435546875 533.9385986328125 603.2210083007812 527.16162109375 C 621.7120971679688 512.1746215820312 622.8763427734375 511.04248046875 630.60888671875 500.7870178222656 C 643.2891235351562 514.1588134765625 655.854736328125 483.9197998046875 703.6572265625 514.7364501953125" fill="rgb(134, 141, 139)" opacity="0.8329531" stroke="rgb(189, 42, 183)" stroke-linecap="round" stroke-linejoin="round" stroke-opacity="0.6556049" stroke-width="0.0"/>
    <path d="M 447.37286376953125 207.41184997558594 C 443.6925964355469 210.43955993652344 493.41680908203125 238.64407348632812 397.5982360839844 327.7134704589844 C 254.0687713623047 353.8153991699219 242.82728576660156 347.8028259277344 163.15725708007812 140.20799255371094 C 378.5596923828125 149.03538513183594 375.3290710449219 177.08436584472656 388.58917236328125 189.7825927734375 C 385.4122009277344 199.14129638671875 387.6408996582031 201.02708435058594 447.37286376953125 207.41184997558594" fill="rgb(134, 141, 139)" opacity="0.90132505" stroke="rgb(75, 144, 132)" stroke-linecap="round" stroke-linejoin="round" stroke-opacity="0.43541658" stroke-width="0.0"/>
    <path d="M 643.2161865234375 502.903564453125 C 625.8099365234375 510.67681884765625 623.9291381835938 511.9930419921875 609.2576904296875 527.9761962890625 C 611.6741943359375 558.855712890625 592.5107421875 571.0829467773438 575.6234741210938 544.5974731445312 C 604.4658813476562 488.2005310058594 592.6721801757812 487.556396484375 597.8231811523438 470.8108825683594 C 638.2744140625 492.46923828125 638.95458984375 492.8577575683594 643.2161865234375 502.903564453125" fill="rgb(135, 142, 140)" opacity="0.60089254" stroke="rgb(30, 6, 167)" stroke-linecap="round" stroke-linejoin="round" stroke-opacity="0.64185387" stroke-width="0.0"/>
    <path d="M 750.176025390625 622.8569946289062 C 747.1441650390625 624.631103515625 746.2535400390625 628.9628295898438 745.4237060546875 633.4258422851562 C 735.6109008789062 629.9909057617188 733.9639282226562 628.59619140625 726.7284545898438 620.2278442382812 C 737.5330200195312 617.5175170898438 734.4915771484375 615.30908203125 737.3681030273438 605.2042236328125 C 747.9623413085938 613.794189453125 746.6527709960938 617.9828491210938 750.176025390625 622.8569946289062" fill="rgb(134, 140, 138)" opacity="0.90751326" stroke="rgb(129, 24, 12)" stroke-linecap="round" stroke-linejoin="round" stroke-opacity="0.35751978" stroke-width="0.0"/>
    <path d="M 247.42813110351562 534.9320068359375 C 236.59524536132812 535.1458129882812 241.9369659423828 552.6843872070312 192.50108337402344 554.9718627929688 C 198.62686157226562 510.9638671875 209.6817626953125 503.8122863769531 210.9836883544922 521.829833984375 C 208.94764709472656 513.2376708984375 217.8829345703125 515.7174682617188 226.15419006347656 504.7274169921875 C 230.1329345703125 508.451416015625 228.7540283203125 515.1342163085938 247.42813110351562 534.9320068359375" fill="rgb(134, 141, 140)" opacity="1.0" stroke="rgb(4, 99, 131)" stroke-linecap="round" stroke-linejoin="round" stroke-opacity="0.6426549" stroke-width="0.0"/>
    <path d="M 153.83799743652344 461.1130065917969 C 156.75369262695312 446.5179443359375 153.84800720214844 452.85205078125 153.41879272460938 448.28662109375 C 154.0074920654297 453.93927001953125 141.28233337402344 453.1626892089844 138.21353149414062 434.81427001953125 C 150.07640075683594 457.0531311035156 142.82533264160156 446.88232421875 156.8697052001953 408.5040588378906 C 178.64051818847656 449.5954284667969 152.63575744628906 442.56353759765625 153.83799743652344 461.1130065917969" fill="rgb(133, 140, 138)" opacity="0.8781536" stroke="rgb(220, 27, 50)" stroke-linecap="round" stroke-linejoin="round" stroke-opacity="0.0027143639" stroke-width="0.0"/>
    <path d="M 304.7046813964844 278.12542724609375 C 296.8777770996094 275.2903137207031 295.76690673828125 276.81658935546875 303.6701965332031 291.578857421875 C 292.27874755859375 283.318359375 293.6639404296875 278.3677062988281 297.7720947265625 276.781005859375 C 295.14105224609375 273.03875732421875 295.2582702636719 273.0682373046875 300.0738220214844 276.6507568359375 C 299.5920104980469 272.62451171875 301.2224426269531 273.72332763671875 304.7046813964844 278.12542724609375" fill="rgb(133, 140, 138)" opacity="0.9013196" stroke="rgb(163, 227, 162)" stroke-linecap="round" stroke-linejoin="round" stroke-opacity="0.7377697" stroke-width="0.0"/>
    <path d="M 420.8890075683594 333.9543151855469 C 433.787353515625 338.652587890625 416.37445068359375 335.2705078125 402.5263671875 333.45611572265625 C 374.66461181640625 334.3407287597656 372.9892272949219 330.326416015625 336.2520751953125 339.5661926269531 C 324.0950622558594 275.25836181640625 355.4241943359375 267.0802001953125 471.94940185546875 255.07151794433594 C 490.33892822265625 318.37408447265625 449.04559326171875 315.42352294921875 420.8890075683594 333.9543151855469" fill="rgb(132, 140, 139)" opacity="0.85424966" stroke="rgb(182, 127, 221)" stroke-linecap="round" stroke-linejoin="round" stroke-opacity="0.7839721" stroke-width="0.0"/>
    <path d="M 149.70164489746094 22.882604598999023 C 142.30616760253906 14.03085994720459 142.34019470214844 14.555946350097656 143.73692321777344 24.197153091430664 C 141.59190368652344 16.37474822998047 140.96922302246094 14.957350730895996 136.93218994140625 20.14147186279297 C 136.1306915283203 13.545377731323242 141.80946350097656 19.09527587890625 142.4510040283203 10.87785816192627 C 143.4296417236328 16.769332885742188 147.9808349609375 13.127748489379883 149.70164489746094 22.882604598999023" fill="rgb(131, 138, 136)" opacity="0.91213596" stroke="rgb(206, 149, 232)" stroke-linecap="round" stroke-linejoin="round" stroke-opacity="0.98390394" stroke-width="0.0"/>
    <path d="M 746.575439453125 450.4653625488281 C 738.3268432617188 450.24688720703125 740.9290161132812 457.42352294921875 714.72412109375 479.29034423828125 C 707.40283203125 458.8493957519531 685.5499267578125 486.7198791503906 665.7498168945312 432.08172607421875 C 710.3927001953125 399.7375183105469 718.292724609375 413.9565124511719 729.3560180664062 433.6319885253906 C 737.8386840820312 438.8163146972656 735.9240112304688 443.88525390625 746.575439453125 450.4653625488281" fill="rgb(134, 141, 139)" opacity="0.8326235" stroke="rgb(81, 228, 88)" stroke-linecap="round" stroke-linejoin="round" stroke-opacity="0.88914365" stroke-width="0.0"/>
    <path d="M 713.3064575195312 524.9488525390625 C 710.3607788085938 538.2828979492188 708.2130126953125 539.5126953125 699.7462768554688 550.1317138671875 C 699.70556640625 536.6004638671875 697.6475830078125 540.6466674804688 686.000244140625 531.8934936523438 C 692.901123046875 526.2637939453125 697.6943359375 526.4290771484375 709.291748046875 517.3800048828125 C 707.9437255859375 527.9181518554688 708.0596923828125 528.1864624023438 713.3064575195312 524.9488525390625" fill="rgb(135, 141, 139)" opacity="0.91265494" stroke="rgb(195, 33, 233)" stroke-linecap="round" stroke-linejoin="round" stroke-opacity="0.55951387" stroke-width="0.0"/>
    <path d="M 732.1578369140625 382.7286376953125 C 684.6513671875 515.05712890625 645.05859375 482.04547119140625 585.7026977539062 486.7330322265625 C 592.17724609375 451.7571716308594 578.8798217773438 475.3304443359375 573.1904907226562 462.418212890625 C 585.9099731445312 448.8951416015625 579.3015747070312 430.6435241699219 632.65478515625 370.94671630859375 C 663.83349609375 351.07470703125 688.34912109375 345.0791015625 732.1578369140625 382.7286376953125" fill="rgb(134, 141, 138)" opacity="0.9142325" stroke="rgb(183, 239, 99)" stroke-linecap="round" stroke-linejoin="round" stroke-opacity="0.8941045" stroke-width="0.0"/>
    <path d="M 41.88102722167969 241.19552612304688 C 39.7061882019043 247.86708068847656 39.02969741821289 243.5338592529297 36.240089416503906 247.0667266845703 C 32.058231353759766 240.6843719482422 31.785593032836914 241.68516540527344 26.258420944213867 245.9461212158203 C 28.494199752807617 238.2293701171875 33.61137771606445 235.45655822753906 33.48971939086914 236.79342651367188 C 37.33385467529297 233.9879913330078 35.435115814208984 240.6647491455078 41.88102722167969 241.19552612304688" fill="rgb(132, 139, 137)" opacity="0.9246114" stroke="rgb(158, 247, 148)" stroke-linecap="round" stroke-linejoin="round" stroke-opacity="0.5069658" stroke-width="0.0"/>
    <path d="M 735.3253784179688 194.7948760986328 C 726.9723510742188 194.356201171875 740.9200439453125 204.1252899169922 726.719970703125 208.9116668701172 C 733.1112060546875 197.177490234375 727.7243041992188 204.0220947265625 724.0595092773438 191.11801147460938 C 730.8146362304688 199.77488708496094 727.9691772460938 196.1203155517578 730.12548828125 192.8341827392578 C 735.5828857421875 197.47406005859375 730.4129028320312 191.61386108398438 735.3253784179688 194.7948760986328" fill="rgb(135, 142, 140)" opacity="0.8977173" stroke="rgb(148, 198, 86)" stroke-linecap="round" stroke-linejoin="round" stroke-opacity="0.67370874" stroke-width="0.0"/>
    <path d="M 372.1051940917969 538.989013671875 C 377.59564208984375 531.3768920898438 400.7347412109375 539.7846069335938 374.1179504394531 591.6871948242188 C 287.5949401855469 638.8694458007812 291.4333801269531 598.8565063476562 334.0223083496094 515.3528442382812 C 369.52789306640625 512.4793090820312 370.73089599609375 526.1874389648438 361.803955078125 527.3112182617188 C 374.62530517578125 521.5956420898438 376.5537109375 527.3547973632812 372.1051940917969 538.989013671875" fill="rgb(133, 143, 142)" opacity="0.2992573" stroke="rgb(192, 69, 224)" stroke-linecap="round" stroke-linejoin="round" stroke-opacity="0.63840723" stroke-width="0.0"/>
    <path d="M 581.1705932617188 473.99835205078125 C 505.48406982421875 494.8652648925781 588.3291015625 462.21923828125 520.4674682617188 463.6075439453125 C 526.8663330078125 432.98065185546875 484.13934326171875 455.2901306152344 481.02191162109375 417.47137451171875 C 505.1135559082031 437.0625305175781 505.94354248046875 429.72576904296875 523.365478515625 442.9239807128906 C 515.6303100585938 438.5962829589844 520.9337158203125 438.9053955078125 581.1705932617188 473.99835205078125" fill="rgb(253, 126, 6)" opacity="0.8889131" stroke="rgb(201, 125, 120)" stroke-linecap="round" stroke-linejoin="round" stroke-opacity="0.21566471" stroke-width="0.0"/>
    <path d="M 704.3195190429688 272.4299621582031 C 697.0390625 266.59625244140625 698.2510375976562 269.84124755859375 697.5213012695312 279.8111572265625 C 695.3339233398438 269.5261535644531 690.9898681640625 272.042724609375 688.1756591796875 265.80413818359375 C 699.0327758789062 274.5089416503906 697.8242797851562 273.3321838378906 690.9991455078125 259.87078857421875 C 700.4340209960938 269.1243591308594 695.603271484375 264.0146789550781 704.3195190429688 272.4299621582031" fill="rgb(133, 141, 139)" opacity="0.88152033" stroke="rgb(56, 179, 223)" stroke-linecap="round" stroke-linejoin="round" stroke-opacity="0.40568048" stroke-width="0.0"/>
    <path d="M 545.9942626953125 138.8743133544922 C 539.0621337890625 131.92527770996094 540.3515014648438 133.22573852539062 536.07470703125 143.8539276123047 C 524.88916015625 135.78094482421875 531.1357421875 139.08462524414062 523.3763427734375 132.3838653564453 C 524.9800415039062 123.32968139648438 531.3602905273438 132.36105346679688 537.5844116210938 122.94308471679688 C 532.3629760742188 131.49688720703125 540.6537475585938 125.17223358154297 545.9942626953125 138.8743133544922" fill="rgb(135, 142, 140)" opacity="0.88800204" stroke="rgb(202, 239, 141)" stroke-linecap="round" stroke-linejoin="round" stroke-opacity="0.13236012" stroke-width="0.0"/>
    <path d="M 329.2168273925781 759.850341796875 C 289.6723327636719 788.9630126953125 281.255859375 773.5335083007812 267.9447021484375 768.36376953125 C 268.5050048828125 780.814208984375 251.155029296875 792.6966552734375 215.97035217285156 758.7762451171875 C 274.28173828125 753.6885986328125 275.09197998046875 763.1141967773438 265.8592529296875 764.8429565429688 C 276.7295837402344 766.7985229492188 275.3182067871094 753.2354736328125 329.2168273925781 759.850341796875" fill="rgb(131, 137, 134)" opacity="0.88099426" stroke="rgb(63, 67, 234)" stroke-linecap="round" stroke-linejoin="round" stroke-opacity="0.52257156" stroke-width="0.0"/>
    <path d="M 730.18017578125 162.81600952148438 C 736.9156494140625 165.37205505371094 731.732666015625 167.70680236816406 721.18798828125 166.5398712158203 C 731.1537475585938 165.8708953857422 726.6739501953125 184.82411193847656 691.0184936523438 188.03219604492188 C 721.0633544921875 128.03269958496094 727.6563720703125 124.14958190917969 725.4353637695312 159.6422119140625 C 738.3239135742188 162.1181182861328 737.5619506835938 162.8575439453125 730.18017578125 162.81600952148438" fill="rgb(136, 143, 141)" opacity="0.5313524" stroke="rgb(118, 92, 186)" stroke-linecap="round" stroke-linejoin="round" stroke-opacity="0.6005968" stroke-width="0.0"/>
    <path d="M 541.6456298828125 59.95756530761719 C 535.5477294921875 48.36264419555664 533.9608154296875 48.42938995361328 530.9400024414062 58.623538970947266 C 537.14208984375 54.48452377319336 537.3576049804688 54.167510986328125 524.877197265625 51.3438720703125 C 532.2476806640625 55.431697845458984 536.1324462890625 50.10223388671875 532.0665893554688 44.01121139526367 C 537.5630493164062 57.78712844848633 533.9904174804688 48.67563247680664 541.6456298828125 59.95756530761719" fill="rgb(132, 139, 137)" opacity="0.904977" stroke="rgb(96, 49, 245)" stroke-linecap="round" stroke-linejoin="round" stroke-opacity="0.32342568" stroke-width="0.0"/>
    <path d="M 672.7550659179688 425.9881286621094 C 672.085205078125 428.4881286621094 670.2550659179688 430.3182678222656 667.7550659179688 430.9881286621094 C 665.2550659179688 430.3182678222656 663.4249267578125 428.4881286621094 662.7550659179688 425.9881286621094 C 663.4249267578125 423.4881286621094 665.2550659179688 421.6579895019531 667.7550659179688 420.9881286621094 C 670.2550659179688 421.6579895019531 672.085205078125 423.4881286621094 672.7550659179688 425.9881286621094" fill="rgb(135, 141, 139)" opacity="1.0" stroke="rgb(199, 249, 105)" stroke-linecap="round" stroke-linejoin="round" stroke-opacity="0.57349396" stroke-width="0.0"/>
    <path d="M 708.8939208984375 303.28955078125 C 708.2240600585938 305.78955078125 706.3939208984375 307.61968994140625 703.8939208984375 308.28955078125 C 701.3939208984375 307.61968994140625 699.5637817382812 305.78955078125 698.8939208984375 303.28955078125 C 699.5637817382812 300.78955078125 701.3939208984375 298.95941162109375 703.8939208984375 298.28955078125 C 706.3939208984375 298.95941162109375 708.2240600585938 300.78955078125 708.8939208984375 303.28955078125" fill="rgb(136, 143, 141)" opacity="1.0" stroke="rgb(26, 242, 80)" stroke-linecap="round" stroke-linejoin="round" stroke-opacity="0.42053086" stroke-width="0.0"/>
    <path d="M 365.66656494140625 87.79548645019531 C 364.9967041015625 90.29548645019531 363.16656494140625 92.1256103515625 360.66656494140625 92.79548645019531 C 358.16656494140625 92.1256103515625 356.33642578125 90.29548645019531 355.66656494140625 87.79548645019531 C 356.33642578125 85.29548645019531 358.16656494140625 83.46536254882812 360.66656494140625 82.79548645019531 C 363.16656494140625 83.46536254882812 364.9967041015625 85.29548645019531 365.66656494140625 87.79548645019531" fill="rgb(134, 140, 139)" opacity="1.0" stroke="rgb(111, 192, 192)" stroke-linecap="round" stroke-linejoin="round" stroke-opacity="0.5968782" stroke-width="0.0"/>
    <path d="M 278.493896484375 191.1884307861328 C 277.82403564453125 193.6884307861328 275.993896484375 195.5185546875 273.493896484375 196.1884307861328 C 270.993896484375 195.5185546875 269.16375732421875 193.6884307861328 268.493896484375 191.1884307861328 C 269.16375732421875 188.6884307861328 270.993896484375 186.85830688476562 273.493896484375 186.1884307861328 C 275.993896484375 186.85830688476562 277.82403564453125 188.6884307861328 278.493896484375 191.1884307861328" fill="rgb(135, 141, 139)" opacity="1.0" stroke="rgb(159, 120, 223)" stroke-linecap="round" stroke-linejoin="round" stroke-opacity="0.27131793" stroke-width="0.0"/>
    <path d="M 262.5545349121094 605.7794799804688 C 261.8846740722656 608.2794799804688 260.0545349121094 610.109619140625 257.5545349121094 610.7794799804688 C 255.05453491210938 610.109619140625 253.2244110107422 608.2794799804688 252.55453491210938 605.7794799804688 C 253.2244110107422 603.2794799804688 255.05453491210938 601.4493408203125 257.5545349121094 600.7794799804688 C 260.0545349121094 601.4493408203125 261.8846740722656 603.2794799804688 262.5545349121094 605.7794799804688" fill="rgb(134, 142, 140)" opacity="1.0" stroke="rgb(72, 30, 116)" stroke-linecap="round" stroke-linejoin="round" stroke-opacity="0.9492959" stroke-width="0.0"/>
    <path d="M 195.84097290039062 254.3797607421875 C 195.1710968017578 256.8797607421875 193.34097290039062 258.70989990234375 190.84097290039062 259.3797607421875 C 188.34097290039062 258.70989990234375 186.51084899902344 256.8797607421875 185.84097290039062 254.3797607421875 C 186.51084899902344 251.8797607421875 188.34097290039062 250.0496368408203 190.84097290039062 249.3797607421875 C 193.34097290039062 250.0496368408203 195.1710968017578 251.8797607421875 195.84097290039062 254.3797607421875" fill="rgb(137, 144, 142)" opacity="1.0" stroke="rgb(236, 245, 38)" stroke-linecap="round" stroke-linejoin="round" stroke-opacity="0.060792323" stroke-width="0.0"/>
    <path d="M 228.6367645263672 61.057289123535156 C 227.96688842773438 63.557289123535156 226.1367645263672 65.38741302490234 223.6367645263672 66.05728912353516 C 221.1367645263672 65.38741302490234 219.306640625 63.557289123535156 218.6367645263672 61.057289123535156 C 219.306640625 58.557289123535156 221.1367645263672 56.7271614074707 223.6367645263672 56.057289123535156 C 226.1367645263672 56.7271614074707 227.96688842773438 58.557289123535156 228.6367645263672 61.057289123535156" fill="rgb(135, 141, 139)" opacity="1.0" stroke="rgb(7, 249, 99)" stroke-linecap="round" stroke-linejoin="round" stroke-opacity="0.97461855" stroke-width="0.0"/>
    <path d="M 167.99014282226562 267.8927001953125 C 167.3202667236328 270.3927001953125 165.49014282226562 272.22283935546875 162.99014282226562 272.8927001953125 C 160.49014282226562 272.22283935546875 158.66001892089844 270.3927001953125 157.99014282226562 267.8927001953125 C 158.66001892089844 265.3927001953125 160.49014282226562 263.56256103515625 162.99014282226562 262.8927001953125 C 165.49014282226562 263.56256103515625 167.3202667236328 265.3927001953125 167.99014282226562 267.8927001953125" fill="rgb(134, 141, 139)" opacity="1.0" stroke="rgb(170, 238, 21)" stroke-linecap="round" stroke-linejoin="round" stroke-opacity="0.09042018" stroke-width="0.0"/>
    <path d="M 595.3045654296875 59.828765869140625 C 594.6347045898438 62.328765869140625 592.8045654296875 64.15888977050781 590.3045654296875 64.82876586914062 C 587.8045654296875 64.15888977050781 585.9744262695312 62.328765869140625 585.3045654296875 59.828765869140625 C 585.9744262695312 57.328765869140625 587.8045654296875 55.49863815307617 590.3045654296875 54.828765869140625 C 592.8045654296875 55.49863815307617 594.6347045898438 57.328765869140625 595.3045654296875 59.828765869140625" fill="rgb(135, 141, 139)" opacity="1.0" stroke="rgb(94, 24, 180)" stroke-linecap="round" stroke-linejoin="round" stroke-opacity="0.4363136" stroke-width="0.0"/>
    <path d="M 284.1869201660156 544.1426391601562 C 283.5170593261719 546.6426391601562 281.6869201660156 548.4727783203125 279.1869201660156 549.1426391601562 C 276.6869201660156 548.4727783203125 274.8567810058594 546.6426391601562 274.1869201660156 544.1426391601562 C 274.8567810058594 541.6426391601562 276.6869201660156 539.8125 279.1869201660156 539.1426391601562 C 281.6869201660156 539.8125 283.5170593261719 541.6426391601562 284.1869201660156 544.1426391601562" fill="rgb(135, 143, 140)" opacity="1.0" stroke="rgb(254, 229, 189)" stroke-linecap="round" stroke-linejoin="round" stroke-opacity="0.8130539" stroke-width="0.0"/>
    <path d="M 699.201904296875 308.6900329589844 C 698.5320434570312 311.1900329589844 696.701904296875 313.0201721191406 694.201904296875 313.6900329589844 C 691.701904296875 313.0201721191406 689.8717651367188 311.1900329589844 689.201904296875 308.6900329589844 C 689.8717651367188 306.1900329589844 691.701904296875 304.3598937988281 694.201904296875 303.6900329589844 C 696.701904296875 304.3598937988281 698.5320434570312 306.1900329589844 699.201904296875 308.6900329589844" fill="rgb(135, 141, 139)" opacity="1.0" stroke="rgb(171, 241, 116)" stroke-linecap="round" stroke-linejoin="round" stroke-opacity="0.8704861" stroke-width="0.0"/>
    <path d="M 44.22055435180664 542.9279174804688 C 43.550682067871094 545.4279174804688 41.72055435180664 547.258056640625 39.22055435180664 547.9279174804688 C 36.72055435180664 547.258056640625 34.89042663574219 545.4279174804688 34.22055435180664 542.9279174804688 C 34.89042663574219 540.4279174804688 36.72055435180664 538.5977783203125 39.22055435180664 537.9279174804688 C 41.72055435180664 538.5977783203125 43.550682067871094 540.4279174804688 44.22055435180664 542.9279174804688" fill="rgb(134, 141, 139)" opacity="1.0" stroke="rgb(88, 47, 216)" stroke-linecap="round" stroke-linejoin="round" stroke-opacity="0.55816734" stroke-width="0.0"/>
    <path d="M 304.68798828125 716.60302734375 C 304.01812744140625 719.10302734375 302.18798828125 720.9331665039062 299.68798828125 721.60302734375 C 297.18798828125 720.9331665039062 295.35784912109375 719.10302734375 294.68798828125 716.60302734375 C 295.35784912109375 714.10302734375 297.18798828125 712.2728881835938 299.68798828125 711.60302734375 C 302.18798828125 712.2728881835938 304.01812744140625 714.10302734375 304.68798828125 716.60302734375" fill="rgb(132, 139, 138)" opacity="1.0" stroke="rgb(95, 113, 26)" stroke-linecap="round" stroke-linejoin="round" stroke-opacity="0.037109375" stroke-width="0.0"/>
    <path d="M 172.89642333984375 608.9306030273438 C 172.22654724121094 611.4306030273438 170.39642333984375 613.2607421875 167.89642333984375 613.9306030273438 C 165.39642333984375 613.2607421875 163.56629943847656 611.4306030273438 162.89642333984375 608.9306030273438 C 163.56629943847656 606.4306030273438 165.39642333984375 604.6004638671875 167.89642333984375 603.9306030273438 C 170.39642333984375 604.6004638671875 172.22654724121094 606.4306030273438 172.89642333984375 608.9306030273438" fill="rgb(135, 142, 140)" opacity="1.0" stroke="rgb(189, 223, 74)" stroke-linecap="round" stroke-linejoin="round" stroke-opacity="0.38406703" stroke-width="0.0"/>
    <path d="M 368.13800048828125 294.6971435546875 C 367.4681396484375 297.1971435546875 365.63800048828125 299.02728271484375 363.13800048828125 299.6971435546875 C 360.63800048828125 299.02728271484375 358.807861328125 297.1971435546875 358.13800048828125 294.6971435546875 C 358.807861328125 292.1971435546875 360.63800048828125 290.36700439453125 363.13800048828125 289.6971435546875 C 365.63800048828125 290.36700439453125 367.4681396484375 292.1971435546875 368.13800048828125 294.6971435546875" fill="rgb(134, 141, 139)" opacity="1.0" stroke="rgb(175, 181, 64)" stroke-linecap="round" stroke-linejoin="round" stroke-opacity="0.9834421" stroke-width="0.0"/>
    <path d="M 641.2169189453125 252.08375549316406 C 640.5470581054688 254.58375549316406 638.7169189453125 256.41387939453125 636.2169189453125 257.083740234375 C 633.7169189453125 256.41387939453125 631.8867797851562 254.58375549316406 631.2169189453125 252.08375549316406 C 631.8867797851562 249.58375549316406 633.7169189453125 247.75363159179688 636.2169189453125 247.08375549316406 C 638.7169189453125 247.75363159179688 640.5470581054688 249.58375549316406 641.2169189453125 252.08375549316406" fill="rgb(133, 140, 138)" opacity="1.0" stroke="rgb(51, 106, 200)" stroke-linecap="round" stroke-linejoin="round" stroke-opacity="0.22770219" stroke-width="0.0"/>
    <path d="M 241.2502899169922 43.96515655517578 C 240.58041381835938 46.46515655517578 238.7502899169922 48.295284271240234 236.2502899169922 48.96515655517578 C 233.7502899169922 48.295284271240234 231.920166015625 46.46515655517578 231.2502899169922 43.96515655517578 C 231.920166015625 41.46515655517578 233.7502899169922 39.63502883911133 236.2502899169922 38.96515655517578 C 238.7502899169922 39.63502883911133 240.58041381835938 41.46515655517578 241.2502899169922 43.96515655517578" fill="rgb(135, 142, 139)" opacity="1.0" stroke="rgb(246, 144, 212)" stroke-linecap="round" stroke-linejoin="round" stroke-opacity="0.26347625" stroke-width="0.0"/>
    <path d="M 731.694091796875 111.0141830444336 C 731.0242309570312 113.5141830444336 729.194091796875 115.34430694580078 726.694091796875 116.0141830444336 C 724.194091796875 115.34430694580078 722.3639526367188 113.5141830444336 721.694091796875 111.0141830444336 C 722.3639526367188 108.5141830444336 724.194091796875 106.6840591430664 726.694091796875 106.0141830444336 C 729.194091796875 106.6840591430664 731.0242309570312 108.5141830444336 731.694091796875 111.0141830444336" fill="rgb(135, 142, 140)" opacity="1.0" stroke="rgb(119, 212, 141)" stroke-linecap="round" stroke-linejoin="round" stroke-opacity="0.99181414" stroke-width="0.0"/>
    <path d="M 572.1285400390625 446.4571228027344 C 571.4586791992188 448.9571228027344 569.6285400390625 450.7872619628906 567.1285400390625 451.4571228027344 C 564.6285400390625 450.7872619628906 562.7984008789062 448.9571228027344 562.1285400390625 446.4571228027344 C 562.7984008789062 443.9571228027344 564.6285400390625 442.1269836425781 567.1285400390625 441.4571228027344 C 569.6285400390625 442.1269836425781 571.4586791992188 443.9571228027344 572.1285400390625 446.4571228027344" fill="rgb(135, 142, 143)" opacity="1.0" stroke="rgb(186, 4, 36)" stroke-linecap="round" stroke-linejoin="round" stroke-opacity="0.36556396" stroke-width="0.0"/>
    <path d="M 338.5238037109375 603.825439453125 C 337.85394287109375 606.325439453125 336.0238037109375 608.1555786132812 333.5238037109375 608.825439453125 C 331.0238037109375 608.1555786132812 329.19366455078125 606.325439453125 328.5238037109375 603.825439453125 C 329.19366455078125 601.325439453125 331.0238037109375 599.4953002929688 333.5238037109375 598.825439453125 C 336.0238037109375 599.4953002929688 337.85394287109375 601.325439453125 338.5238037109375 603.825439453125" fill="rgb(139, 145, 144)" opacity="1.0" stroke="rgb(132, 207, 115)" stroke-linecap="round" stroke-linejoin="round" stroke-opacity="0.951246" stroke-width="0.0"/>
    <path d="M 760.58935546875 38.738739013671875 C 759.9194946289062 41.238739013671875 758.08935546875 43.06886672973633 755.58935546875 43.738739013671875 C 753.08935546875 43.06886672973633 751.2592163085938 41.238739013671875 750.58935546875 38.738739013671875 C 751.2592163085938 36.238739013671875 753.08935546875 34.40861129760742 755.58935546875 33.738739013671875 C 758.08935546875 34.40861129760742 759.9194946289062 36.238739013671875 760.58935546875 38.738739013671875" fill="rgb(132, 138, 134)" opacity="1.0" stroke="rgb(44, 147, 248)" stroke-linecap="round" stroke-linejoin="round" stroke-opacity="0.82150173" stroke-width="0.0"/>
    <path d="M 424.44586181640625 490.6368103027344 C 423.7760009765625 493.1368103027344 421.94586181640625 494.9669494628906 419.44586181640625 495.6368103027344 C 416.94586181640625 494.9669494628906 415.11572265625 493.1368103027344 414.44586181640625 490.6368103027344 C 415.11572265625 488.1368103027344 416.94586181640625 486.3066711425781 419.44586181640625 485.6368103027344 C 421.94586181640625 486.3066711425781 423.7760009765625 488.1368103027344 424.44586181640625 490.6368103027344" fill="rgb(137, 142, 139)" opacity="1.0" stroke="rgb(95, 229, 5)" stroke-linecap="round" stroke-linejoin="round" stroke-opacity="0.9968822" stroke-width="0.0"/>
    <path d="M 488.197265625 367.1427001953125 C 487.52740478515625 369.6427001953125 485.697265625 371.47283935546875 483.197265625 372.1427001953125 C 480.697265625 371.47283935546875 478.86712646484375 369.6427001953125 478.197265625 367.1427001953125 C 478.86712646484375 364.6427001953125 480.697265625 362.81256103515625 483.197265625 362.1427001953125 C 485.697265625 362.81256103515625 487.52740478515625 364.6427001953125 488.197265625 367.1427001953125" fill="rgb(136, 143, 141)" opacity="1.0" stroke="rgb(138, 218, 248)" stroke-linecap="round" stroke-linejoin="round" stroke-opacity="0.9109905" stroke-width="0.0"/>
    <path d="M 635.9155883789062 206.35496520996094 C 635.2457275390625 208.85496520996094 633.4155883789062 210.68508911132812 630.9155883789062 211.35496520996094 C 628.4155883789062 210.68508911132812 626.58544921875 208.85496520996094 625.9155883789062 206.35496520996094 C 626.58544921875 203.85496520996094 628.4155883789062 202.02484130859375 630.9155883789062 201.35496520996094 C 633.4155883789062 202.02484130859375 635.2457275390625 203.85496520996094 635.9155883789062 206.35496520996094" fill="rgb(135, 142, 141)" opacity="1.0" stroke="rgb(238, 85, 209)" stroke-linecap="round" stroke-linejoin="round" stroke-opacity="0.49537614" stroke-width="0.0"/>
    <path d="M 729.9075317382812 124.81330108642578 C 729.2376708984375 127.31330108642578 727.4075317382812 129.1434326171875 724.9075317382812 129.81329345703125 C 722.4075317382812 129.1434326171875 720.577392578125 127.31330108642578 719.9075317382812 124.81330108642578 C 720.577392578125 122.31330108642578 722.4075317382812 120.4831771850586 724.9075317382812 119.81330108642578 C 727.4075317382812 120.4831771850586 729.2376708984375 122.31330108642578 729.9075317382812 124.81330108642578" fill="rgb(133, 140, 139)" opacity="1.0" stroke="rgb(119, 86, 108)" stroke-linecap="round" stroke-linejoin="round" stroke-opacity="0.18082233" stroke-width="0.0"/>
    <path d="M 124.41136169433594 244.676513671875 C 123.74148559570312 247.176513671875 121.91136169433594 249.0066375732422 119.41136169433594 249.676513671875 C 116.91136169433594 249.0066375732422 115.08123779296875 247.176513671875 114.41136169433594 244.676513671875 C 115.08123779296875 242.176513671875 116.91136169433594 240.3463897705078 119.41136169433594 239.676513671875 C 121.91136169433594 240.3463897705078 123.74148559570312 242.176513671875 124.41136169433594 244.676513671875" fill="rgb(135, 142, 139)" opacity="1.0" stroke="rgb(18, 242, 192)" stroke-linecap="round" stroke-linejoin="round" stroke-opacity="0.6159457" stroke-width="0.0"/>
    <path d="M 442.7203369140625 354.7138671875 C 442.05047607421875 357.2138671875 440.2203369140625 359.04400634765625 437.7203369140625 359.7138671875 C 435.2203369140625 359.04400634765625 433.39019775390625 357.2138671875 432.7203369140625 354.7138671875 C 433.39019775390625 352.2138671875 435.2203369140625 350.38372802734375 437.7203369140625 349.7138671875 C 440.2203369140625 350.38372802734375 442.05047607421875 352.2138671875 442.7203369140625 354.7138671875" fill="rgb(252, 126, 10)" opacity="1.0" stroke="rgb(218, 0, 45)" stroke-linecap="round" stroke-linejoin="round" stroke-opacity="0.78995997" stroke-width="0.0"/>
    <path d="M 224.96054077148438 94.9395980834961 C 224.29066467285156 97.4395980834961 222.46054077148438 99.26972198486328 219.96054077148438 99.9395980834961 C 217.46054077148438 99.26972198486328 215.6304168701172 97.4395980834961 214.96054077148438 94.9395980834961 C 215.6304168701172 92.4395980834961 217.46054077148438 90.6094741821289 219.96054077148438 89.9395980834961 C 222.46054077148438 90.6094741821289 224.29066467285156 92.4395980834961 224.96054077148438 94.9395980834961" fill="rgb(134, 141, 137)" opacity="1.0" stroke="rgb(127, 70, 202)" stroke-linecap="round" stroke-linejoin="round" stroke-opacity="0.18263677" stroke-width="0.0"/>
    <path d="M 224.546630859375 34.05698013305664 C 223.8767547607422 36.55698013305664 222.046630859375 38.387107849121094 219.546630859375 39.05698013305664 C 217.046630859375 38.387107849121094 215.2165069580078 36.55698013305664 214.546630859375 34.05698013305664 C 215.2165069580078 31.55698013305664 217.046630859375 29.726852416992188 219.546630859375 29.05698013305664 C 222.046630859375 29.726852416992188 223.8767547607422 31.55698013305664 224.546630859375 34.05698013305664" fill="rgb(133, 140, 137)" opacity="1.0" stroke="rgb(144, 120, 7)" stroke-linecap="round" stroke-linejoin="round" stroke-opacity="0.07124513" stroke-width="0.0"/>
    <path d="M 651.0592651367188 485.4118347167969 C 650.389404296875 487.9118347167969 648.5592651367188 489.7419738769531 646.0592651367188 490.4118347167969 C 643.5592651367188 489.7419738769531 641.7291259765625 487.9118347167969 641.0592651367188 485.4118347167969 C 641.7291259765625 482.9118347167969 643.5592651367188 481.0816955566406 646.0592651367188 480.4118347167969 C 648.5592651367188 481.0816955566406 650.389404296875 482.9118347167969 651.0592651367188 485.4118347167969" fill="rgb(136, 143, 138)" opacity="1.0" stroke="rgb(104, 128, 220)" stroke-linecap="round" stroke-linejoin="round" stroke-opacity="0.07835113" stroke-width="0.0"/>
    <path d="M 353.8795166015625 401.89105224609375 C 353.20965576171875 404.39105224609375 351.3795166015625 406.22119140625 348.8795166015625 406.89105224609375 C 346.3795166015625 406.22119140625 344.54937744140625 404.39105224609375 343.8795166015625 401.89105224609375 C 344.54937744140625 399.39105224609375 346.3795166015625 397.5609130859375 348.8795166015625 396.89105224609375 C 351.3795166015625 397.5609130859375 353.20965576171875 399.39105224609375 353.8795166015625 401.89105224609375" fill="rgb(250, 125, 9)" opacity="1.0" stroke="rgb(234, 105, 217)" stroke-linecap="round" stroke-linejoin="round" stroke-opacity="0.5343008" stroke-width="0.0"/>
    <path d="M 333.28564453125 517.67236328125 C 332.61578369140625 520.17236328125 330.78564453125 522.0025024414062 328.28564453125 522.67236328125 C 325.78564453125 522.0025024414062 323.95550537109375 520.17236328125 323.28564453125 517.67236328125 C 323.95550537109375 515.17236328125 325.78564453125 513.3422241210938 328.28564453125 512.67236328125 C 330.78564453125 513.3422241210938 332.61578369140625 515.17236328125 333.28564453125 517.67236328125" fill="rgb(129, 136, 134)" opacity="1.0" stroke="rgb(249, 0, 98)" stroke-linecap="round" stroke-linejoin="round" stroke-opacity="0.19556859" stroke-width="0.0"/>
  </g>
</svg>
