<?xml version="1.0" ?>
<svg height="768" version="1.1" width="768" xmlns="http://www.w3.org/2000/svg">
  <defs/>
  <g>
    <path d="M 731.5277099609375 853.476806640625 C 612.2119750976562 783.1897583007812 597.47802734375 786.5706787109375 -34.55317306518555 766.8514404296875 C 6.704207420349121 394.2216796875 44.13496017456055 252.08770751953125 113.93177032470703 102.11003875732422 C 880.3829345703125 149.05966186523438 890.44091796875 241.4701690673828 842.1983642578125 369.5521545410156 C 791.308837890625 713.9173583984375 773.265625 778.7623901367188 731.5277099609375 853.476806640625" fill="rgb(123, 121, 118)" opacity="0.9763151" stroke="rgb(186, 99, 151)" stroke-linecap="round" stroke-linejoin="round" stroke-opacity="0.8459669" stroke-width="0.0"/>
    <path d="M 780.9959106445312 190.76231384277344 C 788.2894287109375 217.41342163085938 787.1378784179688 220.7205352783203 665.1748046875 201.64356994628906 C 671.7325439453125 162.0108642578125 652.2832641601562 164.1605987548828 618.391845703125 -5.539572238922119 C 665.167236328125 -15.053257942199707 696.4833984375 -14.540163040161133 816.2282104492188 -4.690789699554443 C 780.4672241210938 55.8378791809082 781.3885498046875 59.891090393066406 780.9959106445312 190.76231384277344" fill="rgb(132, 139, 136)" opacity="0.9937005" stroke="rgb(215, 12, 65)" stroke-linecap="round" stroke-linejoin="round" stroke-opacity="0.3312705" stroke-width="0.0"/>
    <path d="M 710.766845703125 193.13204956054688 C 707.7241821289062 202.11514282226562 696.777587890625 196.92434692382812 281.3729248046875 191.02566528320312 C 201.37603759765625 183.4357147216797 188.952392578125 127.77091979980469 238.62960815429688 -90.11906433105469 C 536.8340454101562 -22.091903686523438 570.0555419921875 -16.119264602661133 735.9945068359375 13.738022804260254 C 703.368896484375 64.33708953857422 703.0158081054688 70.94999694824219 710.766845703125 193.13204956054688" fill="rgb(134, 141, 139)" opacity="1.0" stroke="rgb(56, 154, 202)" stroke-linecap="round" stroke-linejoin="round" stroke-opacity="0.784891" stroke-width="0.0"/>
    <path d="M 104.60406494140625 144.2307586669922 C 109.36932373046875 141.34573364257812 143.14927673339844 126.02552032470703 324.1496276855469 281.00445556640625 C 187.8366241455078 357.3521423339844 283.08245849609375 458.5686340332031 1.0254995822906494 530.4163208007812 C -42.740291595458984 57.03570556640625 -41.47966384887695 52.29427719116211 71.81029510498047 51.993560791015625 C 85.44357299804688 57.12447738647461 96.71077728271484 55.60520935058594 104.60406494140625 144.2307586669922" fill="rgb(134, 141, 139)" opacity="0.99700993" stroke="rgb(181, 14, 178)" stroke-linecap="round" stroke-linejoin="round" stroke-opacity="0.5950336" stroke-width="0.0"/>
    <path d="M 330.1462097167969 396.3818359375 C 312.92034912109375 416.45733642578125 320.8251037597656 401.92352294921875 289.3437805175781 414.86627197265625 C 229.59466552734375 432.52960205078125 248.41275024414062 400.4123229980469 263.28070068359375 415.0423889160156 C 283.0820617675781 383.7947082519531 308.603759765625 392.9895935058594 329.7674255371094 337.85882568359375 C 333.8310546875 344.8067626953125 327.7436218261719 352.2223205566406 330.1462097167969 396.3818359375" fill="rgb(254, 251, 242)" opacity="0.9998442" stroke="rgb(67, 161, 14)" stroke-linecap="round" stroke-linejoin="round" stroke-opacity="0.92941856" stroke-width="0.0"/>
    <path d="M 100.63481903076172 79.21331024169922 C 101.64839172363281 90.38228607177734 96.92044830322266 88.2166976928711 -6.303906440734863 79.36372375488281 C -12.52544116973877 71.89083099365234 -13.002153396606445 67.0443115234375 -10.88454532623291 -3.572329521179199 C 9.054769515991211 -11.599822044372559 12.908974647521973 -12.005744934082031 90.61632537841797 -11.160877227783203 C 99.97949981689453 -19.839183807373047 104.92044067382812 -24.20177459716797 100.63481903076172 79.21331024169922" fill="rgb(134, 140, 138)" opacity="0.9990885" stroke="rgb(251, 1, 146)" stroke-linecap="round" stroke-linejoin="round" stroke-opacity="0.20096508" stroke-width="0.0"/>
    <path d="M 228.01168823242188 -9.63858699798584 C 228.56439208984375 125.84072875976562 225.95217895507812 124.4312973022461 262.23040771484375 151.46543884277344 C 87.08940887451172 186.6454620361328 66.37222290039062 167.27371215820312 64.22935485839844 132.0455322265625 C 74.00588989257812 -2.8838703632354736 76.94646453857422 -7.672595977783203 87.46788787841797 -11.369909286499023 C 211.08152770996094 -15.672914505004883 217.64730834960938 -16.75246238708496 228.01168823242188 -9.63858699798584" fill="rgb(133, 140, 138)" opacity="1.0" stroke="rgb(157, 138, 48)" stroke-linecap="round" stroke-linejoin="round" stroke-opacity="0.43572703" stroke-width="0.0"/>
    <path d="M 428.3672180175781 366.0118103027344 C 418.999755859375 456.96527099609375 459.3316650390625 406.0266418457031 442.6579895019531 478.31744384765625 C 361.873046875 457.01715087890625 354.3599548339844 471.2842712402344 353.250244140625 445.1423645019531 C 371.07940673828125 373.09918212890625 388.403076171875 378.8884582519531 432.6144104003906 376.8664855957031 C 444.9740905761719 376.343505859375 450.05731201171875 377.0110778808594 428.3672180175781 366.0118103027344" fill="rgb(251, 112, 6)" opacity="0.95709795" stroke="rgb(167, 154, 141)" stroke-linecap="round" stroke-linejoin="round" stroke-opacity="0.21166478" stroke-width="0.0"/>
    <path d="M 432.54852294921875 384.4245910644531 C 431.3456115722656 400.1936950683594 431.1827392578125 404.3685607910156 357.8242492675781 467.8293762207031 C 346.65869140625 425.8921813964844 326.3819274902344 401.4482116699219 350.45562744140625 339.36614990234375 C 365.8207092285156 335.5736999511719 361.0521240234375 334.4834899902344 387.79302978515625 333.28759765625 C 430.9805908203125 349.1377258300781 430.212646484375 355.1447448730469 432.54852294921875 384.4245910644531" fill="rgb(246, 128, 22)" opacity="0.67397904" stroke="rgb(105, 180, 23)" stroke-linecap="round" stroke-linejoin="round" stroke-opacity="0.47024345" stroke-width="0.0"/>
    <path d="M 439.9735107421875 400.671630859375 C 505.2286376953125 476.9747314453125 577.6608276367188 510.49652099609375 357.2263488769531 503.3324279785156 C 347.88726806640625 435.157470703125 393.19580078125 459.0499267578125 381.5251159667969 499.0571594238281 C 376.1899719238281 483.7408142089844 382.16064453125 422.65765380859375 380.5286865234375 418.0919189453125 C 405.4185485839844 407.6030578613281 385.09246826171875 422.2842102050781 439.9735107421875 400.671630859375" fill="rgb(91, 84, 82)" opacity="0.6226968" stroke="rgb(225, 154, 132)" stroke-linecap="round" stroke-linejoin="round" stroke-opacity="0.22701062" stroke-width="0.0"/>
    <path d="M 391.9014892578125 330.956298828125 C 388.6448974609375 407.01385498046875 389.3165283203125 412.3559265136719 359.26287841796875 428.1791687011719 C 291.6533508300781 397.3977966308594 319.14105224609375 417.07147216796875 329.4390563964844 395.89654541015625 C 331.37127685546875 305.12640380859375 328.4771728515625 343.16668701171875 336.6351013183594 341.1726379394531 C 366.78369140625 329.86309814453125 390.49639892578125 338.8041076660156 391.9014892578125 330.956298828125" fill="rgb(255, 126, 21)" opacity="0.8772035" stroke="rgb(236, 159, 132)" stroke-linecap="round" stroke-linejoin="round" stroke-opacity="0.9205877" stroke-width="0.0"/>
    <path d="M 517.9182739257812 445.6076965332031 C 509.76861572265625 474.7095031738281 505.70208740234375 477.0569152832031 505.3264465332031 482.93182373046875 C 465.00640869140625 465.9451599121094 465.7706604003906 451.7322692871094 457.9051208496094 436.8008117675781 C 453.9727478027344 418.9122619628906 449.7764587402344 434.6092529296875 481.9436950683594 416.2525634765625 C 495.9976806640625 430.92266845703125 512.0924682617188 428.53631591796875 517.9182739257812 445.6076965332031" fill="rgb(240, 122, 23)" opacity="1.0" stroke="rgb(1, 8, 70)" stroke-linecap="round" stroke-linejoin="round" stroke-opacity="0.22047542" stroke-width="0.0"/>
    <path d="M 416.680908203125 495.9703369140625 C 489.80291748046875 499.0414123535156 545.4851684570312 492.3546447753906 528.6617431640625 503.4520568847656 C 294.1060485839844 504.0531005859375 273.3769836425781 503.0697021484375 404.5207824707031 492.8074645996094 C 412.96075439453125 484.7516174316406 404.895751953125 466.17156982421875 411.4416809082031 469.49664306640625 C 421.3630065917969 476.0519104003906 423.27392578125 464.0190124511719 416.680908203125 495.9703369140625" fill="rgb(0, 0, 0)" opacity="0.9476865" stroke="rgb(69, 177, 133)" stroke-linecap="round" stroke-linejoin="round" stroke-opacity="0.599034" stroke-width="0.0"/>
    <path d="M 583.8164672851562 474.0287780761719 C 560.1561279296875 481.51751708984375 537.6212768554688 494.5502014160156 514.9982299804688 485.7455139160156 C 496.755859375 481.4058837890625 480.1709899902344 465.9019470214844 476.7323303222656 418.02178955078125 C 481.8715515136719 427.78912353515625 491.3930358886719 421.2210693359375 510.716552734375 433.2139892578125 C 540.669189453125 447.89959716796875 573.2387084960938 466.1156005859375 583.8164672851562 474.0287780761719" fill="rgb(252, 125, 13)" opacity="0.9597268" stroke="rgb(145, 14, 132)" stroke-linecap="round" stroke-linejoin="round" stroke-opacity="0.33592916" stroke-width="0.0"/>
    <path d="M 462.21087646484375 364.3009948730469 C 465.439208984375 385.44476318359375 456.893310546875 409.8751525878906 424.45037841796875 420.8867492675781 C 395.360595703125 411.14434814453125 406.283203125 397.2951354980469 395.7863464355469 362.55340576171875 C 385.48394775390625 336.7121887207031 389.26715087890625 329.882080078125 389.173828125 333.5995178222656 C 440.0356750488281 331.6838684082031 455.3311767578125 353.72509765625 462.21087646484375 364.3009948730469" fill="rgb(219, 101, 30)" opacity="0.8541041" stroke="rgb(93, 64, 49)" stroke-linecap="round" stroke-linejoin="round" stroke-opacity="0.045321107" stroke-width="0.0"/>
    <path d="M 316.5216979980469 353.8363952636719 C 311.9692077636719 382.71697998046875 301.2186584472656 390.02850341796875 268.13226318359375 393.4447021484375 C 267.81573486328125 403.8161926269531 266.18121337890625 395.466796875 269.9164123535156 353.3321228027344 C 270.240966796875 363.0193786621094 261.80853271484375 317.6354675292969 271.8474426269531 333.5572204589844 C 296.48095703125 367.4568176269531 293.89849853515625 373.3338317871094 316.5216979980469 353.8363952636719" fill="rgb(253, 243, 201)" opacity="1.0" stroke="rgb(158, 235, 61)" stroke-linecap="round" stroke-linejoin="round" stroke-opacity="0.14556226" stroke-width="0.0"/>
    <path d="M 429.89990234375 434.455810546875 C 423.0067443847656 463.3155212402344 424.7984313964844 475.8154602050781 424.6593322753906 467.5767517089844 C 409.11114501953125 482.1207580566406 405.2668762207031 453.1661071777344 404.6861267089844 451.4432373046875 C 391.9957580566406 418.9816589355469 393.58258056640625 415.6389465332031 387.10833740234375 406.81610107421875 C 420.9779357910156 415.5093994140625 438.42962646484375 415.1567687988281 429.89990234375 434.455810546875" fill="rgb(251, 132, 8)" opacity="0.98535013" stroke="rgb(186, 213, 222)" stroke-linecap="round" stroke-linejoin="round" stroke-opacity="0.78087103" stroke-width="0.0"/>
    <path d="M 381.224609375 415.1856689453125 C 380.6197814941406 429.0235595703125 381.3228454589844 448.2630615234375 378.771484375 452.049560546875 C 351.8482666015625 438.4035949707031 364.0906066894531 484.39276123046875 343.71331787109375 418.9613952636719 C 284.3291320800781 406.04339599609375 370.3782043457031 380.7439880371094 379.8282165527344 402.0044250488281 C 378.94696044921875 432.9515380859375 381.7081298828125 452.6423645019531 381.224609375 415.1856689453125" fill="rgb(250, 124, 6)" opacity="0.9973645" stroke="rgb(110, 84, 250)" stroke-linecap="round" stroke-linejoin="round" stroke-opacity="0.19039516" stroke-width="0.0"/>
    <path d="M 264.4364013671875 411.5718688964844 C 267.296142578125 413.81658935546875 267.8343505859375 417.7796936035156 262.8039855957031 413.6761779785156 C 260.9822998046875 414.6781921386719 257.06341552734375 410.13873291015625 252.5299072265625 409.00677490234375 C 264.09283447265625 409.2783203125 255.98606872558594 399.6396179199219 280.68890380859375 387.31085205078125 C 280.0636901855469 397.16796875 279.4855041503906 399.0136413574219 264.4364013671875 411.5718688964844" fill="rgb(13, 0, 0)" opacity="0.8759053" stroke="rgb(134, 245, 181)" stroke-linecap="round" stroke-linejoin="round" stroke-opacity="0.7360547" stroke-width="0.0"/>
    <path d="M 378.5024719238281 454.03643798828125 C 379.62481689453125 475.40155029296875 381.7847595214844 464.6858215332031 374.8486633300781 466.97418212890625 C 375.8515319824219 460.5914306640625 367.8302001953125 465.60577392578125 369.8650207519531 451.99578857421875 C 377.0943298339844 464.6574401855469 371.0132751464844 446.0521240234375 375.0604248046875 458.51971435546875 C 377.19622802734375 449.3678283691406 375.02520751953125 463.9235534667969 378.5024719238281 454.03643798828125" fill="rgb(250, 152, 46)" opacity="0.64822185" stroke="rgb(142, 213, 34)" stroke-linecap="round" stroke-linejoin="round" stroke-opacity="0.6861953" stroke-width="0.0"/>
    <path d="M 377.5368957519531 467.0970458984375 C 383.15704345703125 509.51513671875 394.10382080078125 502.8506164550781 358.0030212402344 503.4565734863281 C 355.5592346191406 470.5848083496094 357.3185119628906 467.91546630859375 353.1982116699219 453.9067077636719 C 355.9057312011719 470.9742431640625 354.28704833984375 459.20989990234375 353.955078125 454.92974853515625 C 358.3349304199219 463.6885986328125 368.9862976074219 459.0486755371094 377.5368957519531 467.0970458984375" fill="rgb(1, 0, 1)" opacity="0.9822848" stroke="rgb(38, 36, 231)" stroke-linecap="round" stroke-linejoin="round" stroke-opacity="0.41107637" stroke-width="0.0"/>
    <path d="M 366.7232971191406 489.7362976074219 C 363.9435119628906 496.3996276855469 358.6772155761719 497.869873046875 359.3355407714844 496.5204772949219 C 360.3545837402344 499.92333984375 355.10174560546875 494.3892822265625 358.66986083984375 500.49615478515625 C 365.80181884765625 497.23284912109375 366.3645324707031 497.2831726074219 367.3034362792969 493.3106994628906 C 367.4187927246094 479.2774963378906 366.4591064453125 474.4787292480469 366.7232971191406 489.7362976074219" fill="rgb(206, 154, 86)" opacity="0.9330802" stroke="rgb(241, 193, 12)" stroke-linecap="round" stroke-linejoin="round" stroke-opacity="0.13479766" stroke-width="0.0"/>
    <path d="M 366.9479064941406 460.0050354003906 C 365.51861572265625 460.95526123046875 358.0562438964844 457.82806396484375 359.832763671875 457.80426025390625 C 367.5933532714844 455.4541931152344 363.7605285644531 456.9673767089844 359.5983581542969 457.718017578125 C 353.0410461425781 459.5301513671875 353.61871337890625 439.88006591796875 363.4824523925781 442.62725830078125 C 365.83880615234375 453.6880187988281 367.0914001464844 456.717041015625 366.9479064941406 460.0050354003906" fill="rgb(255, 170, 14)" opacity="0.59292376" stroke="rgb(55, 11, 233)" stroke-linecap="round" stroke-linejoin="round" stroke-opacity="0.7047128" stroke-width="0.0"/>
    <path d="M 364.8611755371094 445.0553283691406 C 368.8174743652344 461.5791931152344 389.90020751953125 482.57666015625 365.384521484375 473.0560302734375 C 367.8933410644531 458.21502685546875 365.4039001464844 436.3257751464844 366.3665466308594 450.3944396972656 C 374.0973815917969 468.1229553222656 374.5954895019531 466.9790954589844 369.7762145996094 457.5013122558594 C 372.3564453125 460.2438049316406 369.4539794921875 457.93377685546875 364.8611755371094 445.0553283691406" fill="rgb(1, 0, 0)" opacity="0.8777383" stroke="rgb(74, 0, 75)" stroke-linecap="round" stroke-linejoin="round" stroke-opacity="0.77200115" stroke-width="0.0"/>
    <path d="M 289.8964538574219 390.5428771972656 C 269.9947509765625 408.1382751464844 262.0644836425781 415.6659851074219 264.9064025878906 409.4472961425781 C 254.9532012939453 408.685302734375 262.10791015625 404.4852294921875 265.0542907714844 400.3335266113281 C 259.28167724609375 406.0655212402344 263.85345458984375 400.2843017578125 266.55291748046875 394.9012451171875 C 274.20452880859375 369.8285827636719 282.9678649902344 373.0190734863281 289.8964538574219 390.5428771972656" fill="rgb(255, 99, 26)" opacity="0.688402" stroke="rgb(237, 231, 140)" stroke-linecap="round" stroke-linejoin="round" stroke-opacity="0.65921414" stroke-width="0.0"/>
    <path d="M 408.25677490234375 497.6523742675781 C 391.607177734375 497.359130859375 362.0533752441406 498.0600280761719 389.4487609863281 498.571533203125 C 374.1697692871094 499.00323486328125 378.8491516113281 499.2303161621094 383.3074645996094 492.7173156738281 C 374.50433349609375 504.86529541015625 379.6479187011719 493.3540954589844 382.6709899902344 419.9931335449219 C 391.73382568359375 400.1706237792969 412.45599365234375 465.9543762207031 408.25677490234375 497.6523742675781" fill="rgb(92, 89, 87)" opacity="1.0" stroke="rgb(63, 60, 109)" stroke-linecap="round" stroke-linejoin="round" stroke-opacity="0.03931712" stroke-width="0.0"/>
    <path d="M 307.5723571777344 376.6510925292969 C 298.3368225097656 377.755859375 311.37542724609375 369.0412902832031 307.6468200683594 378.6611328125 C 296.4510192871094 387.0486145019531 279.1861877441406 396.16107177734375 278.0582580566406 389.3904724121094 C 278.4920959472656 358.0650634765625 289.3733215332031 365.2773132324219 291.3460998535156 354.9258117675781 C 326.1282043457031 350.90655517578125 310.541748046875 384.32855224609375 307.5723571777344 376.6510925292969" fill="rgb(255, 124, 17)" opacity="0.93036836" stroke="rgb(180, 75, 209)" stroke-linecap="round" stroke-linejoin="round" stroke-opacity="0.43087858" stroke-width="0.0"/>
    <path d="M 292.54107666015625 386.7713623046875 C 298.025634765625 385.48223876953125 291.5097961425781 390.7638854980469 287.708984375 394.1914367675781 C 266.4195556640625 409.62652587890625 251.3352508544922 417.5289306640625 268.87908935546875 393.16845703125 C 261.8828125 346.76763916015625 274.0372619628906 366.4532775878906 278.1980285644531 360.13250732421875 C 304.1377258300781 373.6108093261719 310.2013854980469 378.96728515625 292.54107666015625 386.7713623046875" fill="rgb(253, 129, 17)" opacity="0.9671318" stroke="rgb(1, 56, 121)" stroke-linecap="round" stroke-linejoin="round" stroke-opacity="0.42367226" stroke-width="0.0"/>
    <path d="M 440.21722412109375 477.1981201171875 C 442.5136413574219 481.0177001953125 442.670166015625 467.2080383300781 442.23114013671875 502.05389404296875 C 421.8583679199219 500.59527587890625 421.9926452636719 513.8043212890625 426.7632751464844 452.9051818847656 C 438.135009765625 473.58477783203125 436.83740234375 474.7169189453125 438.86566162109375 477.2908020019531 C 438.24169921875 476.58099365234375 449.137939453125 482.0365295410156 440.21722412109375 477.1981201171875" fill="rgb(0, 0, 0)" opacity="0.98166156" stroke="rgb(189, 231, 16)" stroke-linecap="round" stroke-linejoin="round" stroke-opacity="0.9765613" stroke-width="0.0"/>
    <path d="M 351.458740234375 496.8183898925781 C 356.2796630859375 501.5102844238281 323.29791259765625 496.32843017578125 342.4435729980469 497.08984375 C 324.7419128417969 498.0081481933594 327.8327941894531 496.49652099609375 327.3735046386719 503.88995361328125 C 323.3507995605469 501.91552734375 361.53094482421875 505.8153991699219 398.10809326171875 500.2722473144531 C 319.8824768066406 496.42303466796875 324.0014343261719 498.9458923339844 351.458740234375 496.8183898925781" fill="rgb(0, 0, 1)" opacity="0.72801447" stroke="rgb(92, 146, 213)" stroke-linecap="round" stroke-linejoin="round" stroke-opacity="0.69483376" stroke-width="0.0"/>
    <path d="M 310.699951171875 372.06329345703125 C 309.42242431640625 378.62127685546875 303.50164794921875 377.494384765625 309.58013916015625 378.47137451171875 C 305.8233642578125 374.4971618652344 279.01971435546875 381.31524658203125 267.7375793457031 330.0726013183594 C 307.8785705566406 352.1776428222656 282.23846435546875 396.4289245605469 315.38238525390625 349.8104553222656 C 341.4992980957031 321.8126525878906 323.26617431640625 358.8240051269531 310.699951171875 372.06329345703125" fill="rgb(253, 105, 5)" opacity="0.9092257" stroke="rgb(116, 235, 94)" stroke-linecap="round" stroke-linejoin="round" stroke-opacity="0.990951" stroke-width="0.0"/>
    <path d="M 508.11688232421875 251.675048828125 C 527.4833374023438 280.1422424316406 532.4541015625 291.4196472167969 481.2950439453125 287.9676208496094 C 422.91217041015625 287.5323486328125 417.6280822753906 278.1444091796875 381.3883972167969 192.96531677246094 C 395.0345764160156 166.51597595214844 417.76739501953125 177.2913055419922 447.479248046875 180.9238739013672 C 496.2645568847656 194.4887237548828 494.5077819824219 205.3342742919922 508.11688232421875 251.675048828125" fill="rgb(134, 140, 138)" opacity="1.0" stroke="rgb(161, 155, 181)" stroke-linecap="round" stroke-linejoin="round" stroke-opacity="0.91961896" stroke-width="0.0"/>
    <path d="M 386.6857604980469 109.5763931274414 C 375.3214416503906 104.61679077148438 376.65264892578125 106.48869323730469 386.7922668457031 119.58255767822266 C 374.064697265625 108.64889526367188 376.78009033203125 107.48529052734375 362.9644470214844 105.78702545166016 C 374.7590026855469 109.0052719116211 377.3263244628906 104.52701568603516 373.4793701171875 98.32708740234375 C 378.1400451660156 103.54254150390625 379.9431457519531 104.8126449584961 386.6857604980469 109.5763931274414" fill="rgb(132, 139, 137)" opacity="0.90729046" stroke="rgb(223, 54, 42)" stroke-linecap="round" stroke-linejoin="round" stroke-opacity="0.97345334" stroke-width="0.0"/>
    <path d="M 775.5453491210938 288.53173828125 C 778.9547729492188 358.7696228027344 781.5418701171875 379.35626220703125 761.5297241210938 377.9315185546875 C 635.0697631835938 320.55645751953125 627.973876953125 316.16827392578125 607.9004516601562 248.5552520751953 C 584.9443969726562 196.6271514892578 584.1552124023438 190.2238006591797 626.722412109375 177.55296325683594 C 760.5491943359375 176.83486938476562 781.03955078125 193.92543029785156 775.5453491210938 288.53173828125" fill="rgb(134, 140, 138)" opacity="0.9939397" stroke="rgb(245, 131, 4)" stroke-linecap="round" stroke-linejoin="round" stroke-opacity="0.5054409" stroke-width="0.0"/>
    <path d="M 210.47021484375 767.76611328125 C 151.697509765625 790.189697265625 121.85203552246094 758.4737548828125 91.48280334472656 773.7371826171875 C 63.95793151855469 767.8284301757812 23.88649559020996 772.6458740234375 -17.54000473022461 766.3510131835938 C -20.964820861816406 619.2918701171875 -32.69693374633789 581.5271606445312 21.493982315063477 584.9619140625 C 143.7615203857422 677.8584594726562 152.91551208496094 682.6913452148438 210.47021484375 767.76611328125" fill="rgb(130, 136, 133)" opacity="1.0" stroke="rgb(228, 225, 64)" stroke-linecap="round" stroke-linejoin="round" stroke-opacity="0.46373597" stroke-width="0.0"/>
    <path d="M 741.9692993164062 378.76776123046875 C 669.5015258789062 400.88812255859375 671.8399658203125 447.7455749511719 582.6312866210938 473.9847717285156 C 524.0189208984375 435.5864562988281 521.4815673828125 458.31201171875 539.2028198242188 388.9750061035156 C 541.5596313476562 303.0572814941406 583.6758422851562 315.81500244140625 648.4486694335938 294.21148681640625 C 650.2566528320312 322.2859802246094 680.0723876953125 309.9395751953125 741.9692993164062 378.76776123046875" fill="rgb(141, 158, 157)" opacity="0.52066344" stroke="rgb(94, 113, 88)" stroke-linecap="round" stroke-linejoin="round" stroke-opacity="0.22765088" stroke-width="0.0"/>
    <path d="M 380.46661376953125 466.5776672363281 C 378.30755615234375 457.84521484375 380.858642578125 508.2606506347656 377.7789306640625 496.770751953125 C 378.0395812988281 470.67584228515625 376.84112548828125 463.5796813964844 378.322265625 466.56878662109375 C 386.8292541503906 466.56610107421875 390.0089111328125 467.1294250488281 381.79632568359375 467.41314697265625 C 387.2572021484375 467.21826171875 388.7118225097656 466.63397216796875 380.46661376953125 466.5776672363281" fill="rgb(52, 42, 40)" opacity="0.84055364" stroke="rgb(44, 207, 3)" stroke-linecap="round" stroke-linejoin="round" stroke-opacity="0.068362795" stroke-width="0.0"/>
    <path d="M 299.14898681640625 614.7240600585938 C 256.15924072265625 706.5795288085938 251.86509704589844 715.1820678710938 227.12460327148438 772.3070678710938 C 128.01210021972656 740.7548828125 127.99087524414062 718.8759155273438 34.55277633666992 697.4119873046875 C -24.224550247192383 551.2156372070312 -21.602659225463867 508.65045166015625 30.597644805908203 494.4187316894531 C 289.236572265625 540.1826782226562 313.0294494628906 549.5985107421875 299.14898681640625 614.7240600585938" fill="rgb(134, 140, 138)" opacity="1.0" stroke="rgb(246, 171, 28)" stroke-linecap="round" stroke-linejoin="round" stroke-opacity="0.95242816" stroke-width="0.0"/>
    <path d="M 396.8655700683594 433.8958740234375 C 396.24658203125 433.142822265625 396.0700988769531 431.241455078125 397.5119934082031 434.86663818359375 C 384.2413330078125 403.8904113769531 393.5622863769531 391.3192443847656 396.82672119140625 433.2108154296875 C 415.48162841796875 486.050048828125 410.7280578613281 460.7041015625 397.7224426269531 428.91485595703125 C 394.8904113769531 419.91522216796875 396.0159606933594 421.71429443359375 396.8655700683594 433.8958740234375" fill="rgb(254, 137, 46)" opacity="0.6215213" stroke="rgb(226, 92, 103)" stroke-linecap="round" stroke-linejoin="round" stroke-opacity="0.593339" stroke-width="0.0"/>
    <path d="M 716.2098388671875 87.90656280517578 C 688.9080200195312 74.43730926513672 688.5016479492188 83.29512023925781 686.7075805664062 92.02361297607422 C 686.1851806640625 80.17015838623047 683.2532348632812 83.59890747070312 664.6438598632812 82.52786254882812 C 670.251220703125 69.13490295410156 650.7709350585938 58.4703254699707 686.3282470703125 -25.616323471069336 C 738.95947265625 30.086240768432617 716.53515625 59.383628845214844 716.2098388671875 87.90656280517578" fill="rgb(129, 132, 128)" opacity="0.14943092" stroke="rgb(209, 193, 139)" stroke-linecap="round" stroke-linejoin="round" stroke-opacity="0.65949374" stroke-width="0.0"/>
    <path d="M 727.1353149414062 648.120849609375 C 671.2932739257812 708.5178833007812 661.2779541015625 708.3532104492188 617.9070434570312 717.6123657226562 C 571.9991455078125 716.597412109375 569.815673828125 707.3644409179688 524.4078979492188 557.4155883789062 C 517.9605712890625 524.4227294921875 537.9885864257812 531.6868286132812 659.9337158203125 564.236572265625 C 693.8334350585938 589.9842529296875 713.4632568359375 591.6297607421875 727.1353149414062 648.120849609375" fill="rgb(128, 128, 125)" opacity="0.745062" stroke="rgb(86, 217, 124)" stroke-linecap="round" stroke-linejoin="round" stroke-opacity="0.9775749" stroke-width="0.0"/>
    <path d="M 609.2120971679688 180.0297088623047 C 607.1692504882812 184.24728393554688 605.3985595703125 184.255126953125 598.3153686523438 189.60284423828125 C 595.7115478515625 188.28578186035156 594.9761962890625 182.9738311767578 599.8818969726562 175.5242919921875 C 589.6947631835938 180.9175262451172 592.1597290039062 179.98875427246094 603.9827270507812 176.43829345703125 C 609.0569458007812 183.49578857421875 601.6602783203125 174.07334899902344 609.2120971679688 180.0297088623047" fill="rgb(134, 140, 137)" opacity="0.88735634" stroke="rgb(245, 14, 88)" stroke-linecap="round" stroke-linejoin="round" stroke-opacity="0.843367" stroke-width="0.0"/>
    <path d="M 601.8184814453125 698.3037109375 C 605.7342529296875 745.8372192382812 606.4227294921875 759.7203979492188 574.50341796875 770.639404296875 C 474.56427001953125 770.7640991210938 449.7105407714844 772.2252807617188 473.90020751953125 764.9425048828125 C 484.2345275878906 634.5203857421875 482.1969299316406 626.0354614257812 516.6213989257812 565.1072998046875 C 607.55126953125 597.8001708984375 593.377197265625 634.9879150390625 601.8184814453125 698.3037109375" fill="rgb(136, 145, 143)" opacity="0.77974385" stroke="rgb(59, 94, 190)" stroke-linecap="round" stroke-linejoin="round" stroke-opacity="0.3782327" stroke-width="0.0"/>
    <path d="M 318.1921081542969 409.2879943847656 C 337.4478454589844 598.8656616210938 341.4477844238281 608.4495239257812 277.68389892578125 578.076171875 C 141.84783935546875 559.1466674804688 121.57889556884766 563.5995483398438 81.14592742919922 508.6701354980469 C 173.33401489257812 429.5708312988281 179.0989990234375 285.321044921875 266.9953308105469 360.5262145996094 C 228.70480346679688 451.0784912109375 266.1891174316406 413.78515625 318.1921081542969 409.2879943847656" fill="rgb(135, 142, 139)" opacity="0.93810344" stroke="rgb(18, 59, 164)" stroke-linecap="round" stroke-linejoin="round" stroke-opacity="0.41907847" stroke-width="0.0"/>
    <path d="M 638.2523193359375 298.6748352050781 C 616.4376831054688 338.3420104980469 612.1574096679688 341.5613098144531 554.7452392578125 386.0537414550781 C 543.7422485351562 379.8377380371094 525.1249389648438 361.6665344238281 506.860107421875 265.4739074707031 C 533.9337158203125 250.15585327148438 531.0762329101562 227.6016845703125 599.2478637695312 212.32945251464844 C 642.3341674804688 260.46533203125 642.0567626953125 270.235107421875 638.2523193359375 298.6748352050781" fill="rgb(132, 139, 137)" opacity="0.49835828" stroke="rgb(163, 70, 35)" stroke-linecap="round" stroke-linejoin="round" stroke-opacity="0.5162285" stroke-width="0.0"/>
    <path d="M 35.81824493408203 457.5232849121094 C 33.83369827270508 459.6453857421875 31.10245132446289 461.5375061035156 29.749380111694336 463.3203125 C 27.81387710571289 460.27020263671875 26.268678665161133 458.4227294921875 30.395301818847656 461.4908142089844 C 25.047521591186523 451.2670593261719 18.365325927734375 454.15753173828125 26.357044219970703 457.4432067871094 C 33.10985565185547 447.53179931640625 29.623403549194336 457.334228515625 35.81824493408203 457.5232849121094" fill="rgb(136, 142, 140)" opacity="0.88954926" stroke="rgb(130, 202, 35)" stroke-linecap="round" stroke-linejoin="round" stroke-opacity="0.58166426" stroke-width="0.0"/>
    <path d="M 198.85342407226562 75.52405548095703 C 186.50588989257812 71.7429428100586 191.2506561279297 74.65419006347656 188.31259155273438 81.40311431884766 C 188.36688232421875 70.69112396240234 189.06121826171875 80.34612274169922 180.92117309570312 70.79048919677734 C 181.9182586669922 69.96858215332031 182.91554260253906 70.50079345703125 187.9929962158203 75.70225524902344 C 193.98191833496094 66.7620849609375 189.62026977539062 76.4541015625 198.85342407226562 75.52405548095703" fill="rgb(136, 143, 140)" opacity="0.9105152" stroke="rgb(110, 187, 56)" stroke-linecap="round" stroke-linejoin="round" stroke-opacity="0.10865478" stroke-width="0.0"/>
    <path d="M 737.0056762695312 9.27188777923584 C 736.6317749023438 13.701009750366211 735.3804931640625 5.846497535705566 733.8455810546875 19.751161575317383 C 731.2167358398438 6.490777969360352 730.7068481445312 16.824787139892578 725.99560546875 6.728776454925537 C 728.6809692382812 3.454071044921875 723.1542358398438 -0.2844610810279846 731.6524047851562 1.4541015625 C 736.1702880859375 -0.876352071762085 739.4569091796875 4.260793209075928 737.0056762695312 9.27188777923584" fill="rgb(132, 137, 134)" opacity="0.879634" stroke="rgb(34, 135, 215)" stroke-linecap="round" stroke-linejoin="round" stroke-opacity="0.6037126" stroke-width="0.0"/>
    <path d="M 787.5870971679688 712.403564453125 C 771.9312744140625 821.9488525390625 726.1362915039062 750.0202026367188 661.6135864257812 774.7393188476562 C 618.8870849609375 771.4732055664062 610.4533081054688 770.6318969726562 580.8171997070312 767.886962890625 C 594.1175537109375 690.6151123046875 605.4877319335938 690.4845581054688 660.5425415039062 674.1611938476562 C 733.872314453125 635.2936401367188 765.1163330078125 612.8242797851562 787.5870971679688 712.403564453125" fill="rgb(136, 144, 142)" opacity="0.75080746" stroke="rgb(106, 208, 182)" stroke-linecap="round" stroke-linejoin="round" stroke-opacity="0.85499585" stroke-width="0.0"/>
    <path d="M 537.9694213867188 397.45849609375 C 528.8623046875 463.4831848144531 556.51220703125 451.062255859375 484.30072021484375 422.3118896484375 C 474.46484375 373.6307067871094 459.61907958984375 360.1837463378906 461.7575988769531 368.4444885253906 C 462.36810302734375 354.7479553222656 427.8923034667969 341.93365478515625 398.4575500488281 291.65826416015625 C 533.2614135742188 280.5339050292969 549.6043090820312 286.8662109375 537.9694213867188 397.45849609375" fill="rgb(144, 159, 158)" opacity="0.47594768" stroke="rgb(207, 41, 173)" stroke-linecap="round" stroke-linejoin="round" stroke-opacity="0.37672117" stroke-width="0.0"/>
    <path d="M 721.0517578125 540.8428955078125 C 700.2777709960938 565.095703125 707.3604125976562 582.7271118164062 597.7384643554688 596.012451171875 C 536.587890625 579.56396484375 494.405029296875 531.471923828125 569.7869262695312 500.9903259277344 C 578.6357421875 427.26837158203125 581.1557006835938 420.9648132324219 779.2520751953125 369.1730651855469 C 783.0973510742188 429.9248962402344 763.262939453125 457.8948059082031 721.0517578125 540.8428955078125" fill="rgb(144, 164, 164)" opacity="0.37098354" stroke="rgb(118, 195, 241)" stroke-linecap="round" stroke-linejoin="round" stroke-opacity="0.34138134" stroke-width="0.0"/>
    <path d="M 463.6352233886719 308.71942138671875 C 445.4024963378906 373.8319091796875 460.5319519042969 338.8277282714844 404.5244140625 334.8897705078125 C 268.7032470703125 326.38055419921875 337.7687072753906 390.7172546386719 268.90155029296875 331.4330139160156 C 178.4703826904297 166.56625366210938 145.48252868652344 145.9539031982422 195.01129150390625 164.56878662109375 C 469.1657409667969 207.8850860595703 452.6319580078125 230.82115173339844 463.6352233886719 308.71942138671875" fill="rgb(154, 158, 141)" opacity="0.47198877" stroke="rgb(176, 5, 136)" stroke-linecap="round" stroke-linejoin="round" stroke-opacity="0.7367725" stroke-width="0.0"/>
    <path d="M 600.2472534179688 148.78504943847656 C 585.090576171875 277.7900390625 562.2050170898438 274.61029052734375 529.0147094726562 277.9148864746094 C 472.05938720703125 253.9847869873047 477.54205322265625 237.06893920898438 476.0155944824219 207.62620544433594 C 472.1614685058594 184.052978515625 467.0287780761719 174.73118591308594 497.5320129394531 175.83370971679688 C 539.6813354492188 222.6130828857422 550.4495239257812 173.6186981201172 600.2472534179688 148.78504943847656" fill="rgb(133, 139, 137)" opacity="1.0" stroke="rgb(53, 19, 243)" stroke-linecap="round" stroke-linejoin="round" stroke-opacity="0.2601909" stroke-width="0.0"/>
    <path d="M 532.1036376953125 174.5692596435547 C 537.5589599609375 177.07579040527344 534.5133056640625 181.6476593017578 528.9083862304688 178.84902954101562 C 530.9102172851562 180.89756774902344 520.43310546875 174.79095458984375 512.33837890625 152.49072265625 C 530.9664916992188 180.4142608642578 527.8602294921875 184.2884063720703 529.8088989257812 165.81312561035156 C 536.1187133789062 172.20741271972656 531.2265625 169.00650024414062 532.1036376953125 174.5692596435547" fill="rgb(136, 142, 140)" opacity="0.8920481" stroke="rgb(227, 207, 184)" stroke-linecap="round" stroke-linejoin="round" stroke-opacity="0.49323773" stroke-width="0.0"/>
    <path d="M 361.9882507324219 99.06917572021484 C 342.01507568359375 96.26470947265625 341.82464599609375 95.76646423339844 342.3511657714844 107.39656066894531 C 337.8660583496094 95.37884521484375 339.10107421875 99.3182601928711 331.4191589355469 85.86308288574219 C 339.3243408203125 96.34012603759766 337.8893737792969 93.37381744384766 338.36517333984375 81.35252380371094 C 347.09588623046875 81.76290893554688 349.8240966796875 84.57195281982422 361.9882507324219 99.06917572021484" fill="rgb(133, 141, 140)" opacity="0.8892645" stroke="rgb(88, 123, 87)" stroke-linecap="round" stroke-linejoin="round" stroke-opacity="0.76970804" stroke-width="0.0"/>
    <path d="M 388.7272033691406 744.7966918945312 C 395.59625244140625 781.0835571289062 384.0120544433594 768.6932373046875 311.6732482910156 761.9232788085938 C 238.91941833496094 774.880859375 217.20654296875 779.2269287109375 226.64817810058594 749.6006469726562 C 243.06173706054688 624.7928466796875 233.93429565429688 592.0118408203125 323.7352294921875 563.2272338867188 C 376.01513671875 624.0452270507812 378.0465087890625 640.5820922851562 388.7272033691406 744.7966918945312" fill="rgb(133, 140, 139)" opacity="0.95951116" stroke="rgb(74, 55, 104)" stroke-linecap="round" stroke-linejoin="round" stroke-opacity="0.9322177" stroke-width="0.0"/>
    <path d="M 778.6951293945312 551.9852905273438 C 771.968994140625 575.5208129882812 784.75244140625 590.91455078125 769.6873779296875 657.8785400390625 C 668.57861328125 641.66357421875 667.9212036132812 614.9326171875 670.2526245117188 574.5214233398438 C 687.0972290039062 492.7828674316406 688.7543334960938 483.51019287109375 766.157958984375 439.71258544921875 C 776.0949096679688 476.60504150390625 768.5086059570312 504.02740478515625 778.6951293945312 551.9852905273438" fill="rgb(133, 140, 138)" opacity="0.976297" stroke="rgb(54, 61, 132)" stroke-linecap="round" stroke-linejoin="round" stroke-opacity="0.3255722" stroke-width="0.0"/>
    <path d="M 337.4061279296875 429.0548400878906 C 344.5745849609375 413.4366760253906 348.6022644042969 426.7742919921875 356.87127685546875 498.27587890625 C 291.15081787109375 499.0672912597656 367.59716796875 497.3216857910156 279.83282470703125 436.4560546875 C 316.3818664550781 403.34423828125 309.5940246582031 414.09014892578125 342.07489013671875 417.93896484375 C 347.4227294921875 424.6663513183594 342.5831298828125 440.6024475097656 337.4061279296875 429.0548400878906" fill="rgb(124, 132, 130)" opacity="0.66306376" stroke="rgb(108, 134, 196)" stroke-linecap="round" stroke-linejoin="round" stroke-opacity="0.52081335" stroke-width="0.0"/>
    <path d="M 599.1444091796875 48.248779296875 C 596.7827758789062 55.32010269165039 590.0015869140625 46.7580451965332 578.0293579101562 39.87992477416992 C 596.7548828125 58.4435920715332 590.62646484375 52.685516357421875 577.7447509765625 44.23107147216797 C 587.3245849609375 48.937339782714844 585.35986328125 44.95830535888672 583.6083374023438 28.575002670288086 C 592.6533203125 46.99738693237305 596.9231567382812 41.046653747558594 599.1444091796875 48.248779296875" fill="rgb(135, 142, 140)" opacity="0.90214866" stroke="rgb(81, 143, 75)" stroke-linecap="round" stroke-linejoin="round" stroke-opacity="0.257725" stroke-width="0.0"/>
    <path d="M 498.7544250488281 689.3702392578125 C 493.57080078125 742.2256469726562 502.50994873046875 761.5523071289062 439.0989074707031 775.3073120117188 C 349.9944152832031 774.9180908203125 343.0440979003906 756.6176147460938 317.9999694824219 498.63153076171875 C 277.5335998535156 506.1312561035156 264.74542236328125 503.2301025390625 545.6539306640625 503.51361083984375 C 565.603759765625 579.4762573242188 518.606689453125 605.1509399414062 498.7544250488281 689.3702392578125" fill="rgb(135, 142, 139)" opacity="0.8626283" stroke="rgb(241, 234, 229)" stroke-linecap="round" stroke-linejoin="round" stroke-opacity="0.34116906" stroke-width="0.0"/>
    <path d="M 427.7543640136719 454.1138916015625 C 437.1842346191406 466.10064697265625 442.3131408691406 494.1138610839844 443.8125305175781 462.670166015625 C 445.4537048339844 457.1868591308594 444.24761962890625 451.3616638183594 444.64141845703125 449.853271484375 C 445.3873596191406 463.8979797363281 444.8197326660156 459.4771728515625 445.88714599609375 436.35028076171875 C 447.20611572265625 453.6119384765625 421.4068908691406 387.7920227050781 427.7543640136719 454.1138916015625" fill="rgb(254, 124, 7)" opacity="0.98525083" stroke="rgb(68, 131, 10)" stroke-linecap="round" stroke-linejoin="round" stroke-opacity="0.0097710695" stroke-width="0.0"/>
    <path d="M 329.4549255371094 23.79984474182129 C 319.4964599609375 16.97073745727539 321.5032958984375 18.162010192871094 320.07244873046875 26.933982849121094 C 318.36468505859375 27.551830291748047 316.83770751953125 23.672983169555664 322.6470642089844 22.682701110839844 C 318.29833984375 16.074094772338867 314.3978271484375 14.041607856750488 317.5292053222656 11.116809844970703 C 323.7369384765625 25.15875244140625 324.40509033203125 13.442009925842285 329.4549255371094 23.79984474182129" fill="rgb(132, 138, 136)" opacity="0.90696806" stroke="rgb(2, 87, 183)" stroke-linecap="round" stroke-linejoin="round" stroke-opacity="0.19604808" stroke-width="0.0"/>
    <path d="M 303.04119873046875 297.30218505859375 C 289.3147277832031 281.4498596191406 291.9832458496094 280.33966064453125 286.2484130859375 303.5280456542969 C 294.0645751953125 290.27423095703125 289.3623046875 286.2340087890625 286.3373718261719 284.5716857910156 C 287.50665283203125 281.332275390625 287.2867126464844 279.7686462402344 289.23016357421875 285.8432312011719 C 290.9404602050781 280.1357116699219 296.9059143066406 283.82080078125 303.04119873046875 297.30218505859375" fill="rgb(120, 127, 122)" opacity="0.96232575" stroke="rgb(46, 61, 52)" stroke-linecap="round" stroke-linejoin="round" stroke-opacity="0.09060615" stroke-width="0.0"/>
    <path d="M 434.46636962890625 310.597900390625 C 431.84368896484375 313.3067626953125 501.3493347167969 304.1588134765625 452.8013916015625 349.85418701171875 C 413.666015625 325.56390380859375 395.77764892578125 334.4207458496094 410.0053405761719 333.641845703125 C 405.40045166015625 315.67431640625 412.2975158691406 318.80511474609375 418.191650390625 313.9756774902344 C 414.0106506347656 318.01123046875 415.6981201171875 321.05419921875 434.46636962890625 310.597900390625" fill="rgb(134, 142, 140)" opacity="1.0" stroke="rgb(200, 101, 31)" stroke-linecap="round" stroke-linejoin="round" stroke-opacity="0.514932" stroke-width="0.0"/>
    <path d="M 40.861019134521484 37.08900451660156 C 31.94960594177246 38.457054138183594 31.846633911132812 41.61597442626953 25.25892448425293 46.46779251098633 C 30.284772872924805 39.964317321777344 29.047740936279297 37.1192741394043 18.815885543823242 38.1966552734375 C 28.229473114013672 33.95572280883789 21.060548782348633 41.01004409790039 45.51340103149414 33.161094665527344 C 26.831073760986328 30.578004837036133 29.728525161743164 33.76564025878906 40.861019134521484 37.08900451660156" fill="rgb(133, 140, 138)" opacity="0.90130544" stroke="rgb(13, 119, 84)" stroke-linecap="round" stroke-linejoin="round" stroke-opacity="0.7009471" stroke-width="0.0"/>
    <path d="M 183.20530700683594 390.46295166015625 C 168.79490661621094 395.6510314941406 193.3422393798828 407.17657470703125 161.11550903320312 413.8481750488281 C 152.9780731201172 406.19549560546875 154.62493896484375 404.50421142578125 150.70335388183594 393.7506408691406 C 166.65724182128906 378.852783203125 166.9696807861328 385.38824462890625 172.2483673095703 382.2265319824219 C 190.04110717773438 389.17462158203125 171.34613037109375 384.7413024902344 183.20530700683594 390.46295166015625" fill="rgb(133, 140, 137)" opacity="0.7633705" stroke="rgb(184, 151, 94)" stroke-linecap="round" stroke-linejoin="round" stroke-opacity="0.3022428" stroke-width="0.0"/>
    <path d="M 770.929443359375 716.1248779296875 C 773.1156616210938 727.5301513671875 772.0988159179688 730.8568725585938 761.497314453125 735.550048828125 C 769.6614379882812 729.1740112304688 767.4156494140625 726.828125 757.3486328125 720.2488403320312 C 767.276123046875 715.5094604492188 750.9035034179688 706.946533203125 767.5736694335938 676.2925415039062 C 776.0223388671875 719.841552734375 774.0172119140625 729.3331909179688 770.929443359375 716.1248779296875" fill="rgb(131, 137, 135)" opacity="0.92204225" stroke="rgb(28, 254, 13)" stroke-linecap="round" stroke-linejoin="round" stroke-opacity="0.6328933" stroke-width="0.0"/>
    <path d="M 599.706298828125 127.60652160644531 C 596.8248291015625 162.39883422851562 584.42822265625 143.55514526367188 575.7738647460938 145.064208984375 C 581.4089965820312 144.44589233398438 574.6571044921875 148.15594482421875 571.4697875976562 139.0766143798828 C 579.263671875 147.22293090820312 575.4472045898438 141.71115112304688 574.0288696289062 136.0397186279297 C 581.7186279296875 142.6820526123047 577.2423706054688 136.14727783203125 599.706298828125 127.60652160644531" fill="rgb(135, 142, 140)" opacity="0.87898314" stroke="rgb(30, 251, 25)" stroke-linecap="round" stroke-linejoin="round" stroke-opacity="0.60641605" stroke-width="0.0"/>
    <path d="M 528.6967163085938 675.4192504882812 C 521.4854736328125 687.4662475585938 516.51904296875 686.64404296875 512.3432006835938 692.7359619140625 C 508.2544250488281 679.9791259765625 503.3138122558594 692.754638671875 472.3736267089844 685.7984008789062 C 498.07666015625 660.3104858398438 498.8252868652344 670.022705078125 512.1318969726562 660.6787719726562 C 520.3496704101562 670.1312866210938 522.8359985351562 666.765380859375 528.6967163085938 675.4192504882812" fill="rgb(134, 140, 139)" opacity="1.0" stroke="rgb(146, 164, 11)" stroke-linecap="round" stroke-linejoin="round" stroke-opacity="0.8295321" stroke-width="0.0"/>
    <path d="M 358.8026123046875 1.7099533081054688 C 194.1794891357422 26.547317504882812 198.0276336669922 40.10952377319336 175.40213012695312 11.531420707702637 C 168.15646362304688 15.149944305419922 174.64076232910156 11.3485746383667 171.2078094482422 10.203741073608398 C 182.22271728515625 10.362157821655273 166.71324157714844 5.29171895980835 173.03231811523438 0.882860004901886 C 175.8948516845703 1.8555594682693481 184.89028930664062 -0.04507822543382645 358.8026123046875 1.7099533081054688" fill="rgb(132, 138, 136)" opacity="0.99672145" stroke="rgb(244, 166, 31)" stroke-linecap="round" stroke-linejoin="round" stroke-opacity="0.2520861" stroke-width="0.0"/>
    <path d="M 25.98938751220703 364.4521484375 C 16.65321159362793 356.5130310058594 17.13924217224121 362.19683837890625 5.893163681030273 368.1445617675781 C 23.15874671936035 365.3323059082031 13.043947219848633 365.83404541015625 -1.3009284734725952 355.8885803222656 C 15.109258651733398 357.0429992675781 11.703923225402832 355.45556640625 16.773744583129883 344.9496765136719 C 14.738444328308105 360.10693359375 16.396509170532227 353.5956726074219 25.98938751220703 364.4521484375" fill="rgb(136, 143, 140)" opacity="0.9161892" stroke="rgb(2, 148, 198)" stroke-linecap="round" stroke-linejoin="round" stroke-opacity="0.68574953" stroke-width="0.0"/>
    <path d="M 172.7402801513672 119.07343292236328 C 171.1537322998047 126.39371490478516 163.64166259765625 121.89202117919922 163.23843383789062 125.21240997314453 C 159.4044952392578 121.31068420410156 157.9818572998047 115.67308044433594 171.04776000976562 130.51321411132812 C 160.71522521972656 112.78548431396484 158.51007080078125 110.20536041259766 161.55845642089844 115.46725463867188 C 163.90220642089844 112.65174865722656 163.24948120117188 125.7927017211914 172.7402801513672 119.07343292236328" fill="rgb(136, 143, 142)" opacity="0.87991136" stroke="rgb(95, 190, 100)" stroke-linecap="round" stroke-linejoin="round" stroke-opacity="0.60271734" stroke-width="0.0"/>
    <path d="M 496.98199462890625 391.9207458496094 C 485.5931701660156 403.813720703125 494.7337951660156 388.93365478515625 482.9564514160156 401.94390869140625 C 481.982421875 389.1177673339844 484.0208435058594 405.5160827636719 483.2188415527344 416.7886962890625 C 467.625732421875 373.92913818359375 466.6387939453125 322.66778564453125 485.0061950683594 388.8590087890625 C 493.0721740722656 393.1636657714844 502.4534606933594 397.21392822265625 496.98199462890625 391.9207458496094" fill="rgb(136, 143, 141)" opacity="1.0" stroke="rgb(121, 5, 197)" stroke-linecap="round" stroke-linejoin="round" stroke-opacity="0.14652617" stroke-width="0.0"/>
    <path d="M 481.9894104003906 39.421051025390625 C 491.137939453125 64.61839294433594 478.2789306640625 64.3935775756836 455.41571044921875 67.6938247680664 C 473.5218505859375 60.85354232788086 467.4486389160156 63.113101959228516 463.1883544921875 58.4979248046875 C 460.9950866699219 53.2084846496582 464.36602783203125 56.626102447509766 467.8781433105469 54.98686599731445 C 472.0110778808594 52.52842330932617 467.6646728515625 60.32848358154297 481.9894104003906 39.421051025390625" fill="rgb(135, 142, 140)" opacity="0.9133968" stroke="rgb(106, 251, 130)" stroke-linecap="round" stroke-linejoin="round" stroke-opacity="0.30992338" stroke-width="0.0"/>
    <path d="M 708.37548828125 520.7673950195312 C 653.1724243164062 545.40625 651.2091674804688 543.5717163085938 661.4755249023438 573.7166137695312 C 607.4635009765625 539.6456909179688 612.3557739257812 532.7213745117188 603.4453125 526.6842651367188 C 621.7109985351562 512.1690673828125 622.8763427734375 511.04248046875 631.02880859375 500.31793212890625 C 645.2930908203125 515.1863403320312 659.4024658203125 479.63330078125 708.37548828125 520.7673950195312" fill="rgb(134, 142, 140)" opacity="0.5525919" stroke="rgb(189, 42, 183)" stroke-linecap="round" stroke-linejoin="round" stroke-opacity="0.6556049" stroke-width="0.0"/>
    <path d="M 444.1421813964844 203.21533203125 C 440.9356994628906 218.25595092773438 499.64044189453125 245.65072631835938 385.928466796875 323.9643249511719 C 257.31182861328125 359.0636901855469 263.5905456542969 355.411376953125 158.01568603515625 134.9787139892578 C 378.48583984375 157.86033630371094 377.5429382324219 175.3553009033203 388.8652648925781 190.7626953125 C 384.34783935546875 206.86111450195312 385.4615173339844 211.8718719482422 444.1421813964844 203.21533203125" fill="rgb(134, 141, 139)" opacity="0.9135882" stroke="rgb(75, 144, 132)" stroke-linecap="round" stroke-linejoin="round" stroke-opacity="0.43541658" stroke-width="0.0"/>
    <path d="M 642.9558715820312 502.4333190917969 C 627.229736328125 513.1697387695312 624.7088623046875 513.032470703125 608.8539428710938 529.32177734375 C 614.0989379882812 556.7623291015625 588.482666015625 572.1355590820312 574.2457275390625 546.095703125 C 605.5132446289062 488.45806884765625 592.0308227539062 488.14111328125 594.6588745117188 473.7218017578125 C 638.8759765625 493.2955627441406 637.2499389648438 489.1494140625 642.9558715820312 502.4333190917969" fill="rgb(135, 142, 140)" opacity="0.57850105" stroke="rgb(30, 6, 167)" stroke-linecap="round" stroke-linejoin="round" stroke-opacity="0.64185387" stroke-width="0.0"/>
    <path d="M 750.242919921875 622.782470703125 C 747.2742309570312 624.3493041992188 746.52978515625 629.0400390625 745.06591796875 633.135009765625 C 735.5308837890625 629.5557250976562 734.1166381835938 628.9068603515625 726.7174682617188 620.1978149414062 C 738.1416015625 617.47021484375 733.97900390625 615.1812133789062 737.4020385742188 605.2935791015625 C 748.2164916992188 613.7479248046875 746.4180297851562 618.2086791992188 750.242919921875 622.782470703125" fill="rgb(134, 140, 138)" opacity="0.9056543" stroke="rgb(129, 24, 12)" stroke-linecap="round" stroke-linejoin="round" stroke-opacity="0.35751978" stroke-width="0.0"/>
    <path d="M 247.177001953125 534.38671875 C 238.7484893798828 538.9459838867188 245.180908203125 561.4613037109375 190.54092407226562 558.366943359375 C 189.48385620117188 503.96356201171875 205.02134704589844 494.9759826660156 213.0328369140625 516.248291015625 C 208.8789520263672 513.3041381835938 217.21884155273438 514.593017578125 226.31427001953125 504.8068542480469 C 230.0734405517578 508.5238037109375 229.64447021484375 514.2185668945312 247.177001953125 534.38671875" fill="rgb(134, 141, 140)" opacity="1.0" stroke="rgb(4, 99, 131)" stroke-linecap="round" stroke-linejoin="round" stroke-opacity="0.6426549" stroke-width="0.0"/>
    <path d="M 154.63453674316406 463.2176818847656 C 157.33343505859375 445.1840515136719 155.31968688964844 450.3699035644531 151.5066375732422 448.4220886230469 C 155.37550354003906 454.7891845703125 141.9048614501953 452.00531005859375 136.7478790283203 435.00189208984375 C 156.32244873046875 457.94775390625 139.5744171142578 444.98028564453125 153.6537322998047 405.846435546875 C 185.37574768066406 445.0794677734375 153.9476318359375 438.759765625 154.63453674316406 463.2176818847656" fill="rgb(133, 140, 138)" opacity="0.9640325" stroke="rgb(220, 27, 50)" stroke-linecap="round" stroke-linejoin="round" stroke-opacity="0.0027143639" stroke-width="0.0"/>
    <path d="M 304.82025146484375 278.2802429199219 C 297.10302734375 275.0453796386719 295.3697204589844 277.1586608886719 304.1746826171875 291.947509765625 C 292.1461486816406 283.53778076171875 293.6103820800781 278.16943359375 297.8836364746094 276.7687683105469 C 294.8155212402344 273.323486328125 295.46234130859375 272.8443298339844 300.03619384765625 276.7266845703125 C 299.7406921386719 272.27203369140625 300.9344482421875 273.6213684082031 304.82025146484375 278.2802429199219" fill="rgb(133, 140, 139)" opacity="0.90058106" stroke="rgb(163, 227, 162)" stroke-linecap="round" stroke-linejoin="round" stroke-opacity="0.7377697" stroke-width="0.0"/>
    <path d="M 415.2004699707031 332.87982177734375 C 432.20977783203125 339.01055908203125 416.8422546386719 335.0400085449219 403.6698303222656 333.5537109375 C 370.52978515625 333.6488342285156 378.5236511230469 330.5055847167969 335.5146179199219 339.7893981933594 C 318.1951904296875 276.66314697265625 355.4051208496094 268.2610778808594 454.37335205078125 256.4104309082031 C 486.0972595214844 325.8812561035156 450.3128662109375 318.19537353515625 415.2004699707031 332.87982177734375" fill="rgb(132, 140, 138)" opacity="1.0" stroke="rgb(182, 127, 221)" stroke-linecap="round" stroke-linejoin="round" stroke-opacity="0.7839721" stroke-width="0.0"/>
    <path d="M 149.72601318359375 22.87392807006836 C 142.38421630859375 14.018107414245605 142.1641082763672 14.668678283691406 143.9139404296875 23.81881332397461 C 141.22459411621094 16.397926330566406 141.24197387695312 15.299674034118652 137.43341064453125 19.387449264526367 C 134.6297607421875 11.865055084228516 140.33358764648438 20.967010498046875 142.55386352539062 11.486939430236816 C 144.47503662109375 17.330238342285156 147.47349548339844 12.80495834350586 149.72601318359375 22.87392807006836" fill="rgb(131, 138, 136)" opacity="0.9103334" stroke="rgb(206, 149, 232)" stroke-linecap="round" stroke-linejoin="round" stroke-opacity="0.98390394" stroke-width="0.0"/>
    <path d="M 748.7793579101562 450.66680908203125 C 736.455322265625 449.89874267578125 741.1427001953125 457.9995422363281 714.8568725585938 479.2338562011719 C 705.0380249023438 457.6412353515625 682.6002807617188 486.8645935058594 664.3838500976562 433.8036804199219 C 710.7591552734375 399.1363830566406 717.4946899414062 413.6693420410156 729.121337890625 432.8011169433594 C 738.8721313476562 440.50640869140625 736.5306396484375 445.8798828125 748.7793579101562 450.66680908203125" fill="rgb(134, 141, 139)" opacity="0.8688774" stroke="rgb(81, 228, 88)" stroke-linecap="round" stroke-linejoin="round" stroke-opacity="0.88914365" stroke-width="0.0"/>
    <path d="M 713.9963989257812 523.0835571289062 C 710.081298828125 537.9678344726562 708.6696166992188 540.7755737304688 699.263427734375 549.1348876953125 C 700.3046264648438 536.4519653320312 697.9170532226562 541.8515625 683.6574096679688 530.11083984375 C 690.171142578125 522.948974609375 694.061279296875 522.2440185546875 708.4608764648438 513.0653076171875 C 709.9523315429688 529.3118896484375 707.0401611328125 529.8214721679688 713.9963989257812 523.0835571289062" fill="rgb(135, 141, 139)" opacity="0.81228364" stroke="rgb(195, 33, 233)" stroke-linecap="round" stroke-linejoin="round" stroke-opacity="0.55951387" stroke-width="0.0"/>
    <path d="M 732.4424438476562 384.58953857421875 C 690.627685546875 516.0966186523438 646.9363403320312 481.8288269042969 585.7330322265625 486.6899108886719 C 592.5396118164062 451.5018005371094 578.7529907226562 475.6528625488281 572.573486328125 461.9447326660156 C 585.636474609375 449.223388671875 584.8209838867188 434.28955078125 635.314453125 362.7016906738281 C 663.7772216796875 340.6220703125 694.8720703125 330.0735168457031 732.4424438476562 384.58953857421875" fill="rgb(134, 140, 138)" opacity="0.94838506" stroke="rgb(183, 239, 99)" stroke-linecap="round" stroke-linejoin="round" stroke-opacity="0.8941045" stroke-width="0.0"/>
    <path d="M 41.89534378051758 241.1885986328125 C 39.09188461303711 249.0321502685547 38.61985397338867 242.6058807373047 36.390865325927734 247.30235290527344 C 31.69338607788086 240.2213592529297 31.794628143310547 242.0306854248047 26.234235763549805 245.8699493408203 C 28.264705657958984 238.56605529785156 33.99103546142578 235.08009338378906 33.31111145019531 236.9080352783203 C 37.37886047363281 233.79542541503906 35.3880729675293 240.7445068359375 41.89534378051758 241.1885986328125" fill="rgb(132, 139, 137)" opacity="0.9223996" stroke="rgb(158, 247, 148)" stroke-linecap="round" stroke-linejoin="round" stroke-opacity="0.5069658" stroke-width="0.0"/>
    <path d="M 735.1690673828125 194.9956512451172 C 726.6593627929688 194.08822631835938 741.4720458984375 204.3795166015625 726.1176147460938 209.00389099121094 C 733.57958984375 198.19374084472656 728.2584838867188 203.93296813964844 724.281982421875 192.06307983398438 C 732.2314453125 199.7476806640625 726.8558349609375 196.76699829101562 730.3402099609375 192.9418487548828 C 735.4417724609375 197.554443359375 730.7168579101562 190.99099731445312 735.1690673828125 194.9956512451172" fill="rgb(135, 142, 140)" opacity="0.8970341" stroke="rgb(148, 198, 86)" stroke-linecap="round" stroke-linejoin="round" stroke-opacity="0.67370874" stroke-width="0.0"/>
    <path d="M 372.49560546875 538.1785278320312 C 377.0733947753906 531.65869140625 403.7645568847656 541.6467895507812 370.1890563964844 599.4937133789062 C 281.3061218261719 653.401611328125 288.9611511230469 609.0524291992188 330.85748291015625 516.7613525390625 C 371.0166320800781 508.2286682128906 369.93109130859375 524.7540283203125 362.09857177734375 527.1821899414062 C 373.559814453125 521.0018920898438 376.5374755859375 527.9891967773438 372.49560546875 538.1785278320312" fill="rgb(133, 142, 141)" opacity="0.43073314" stroke="rgb(192, 69, 224)" stroke-linecap="round" stroke-linejoin="round" stroke-opacity="0.63840723" stroke-width="0.0"/>
    <path d="M 581.3531494140625 473.8985595703125 C 476.4157409667969 502.6537780761719 607.2333984375 459.8975524902344 512.922607421875 464.9345397949219 C 534.9332275390625 432.1187438964844 483.9452209472656 459.3018493652344 481.0318908691406 417.5497741699219 C 503.890380859375 436.1818542480469 500.8628845214844 428.14068603515625 522.6718139648438 441.66876220703125 C 514.4380493164062 439.0454406738281 521.651611328125 438.70513916015625 581.3531494140625 473.8985595703125" fill="rgb(253, 126, 7)" opacity="0.90737337" stroke="rgb(201, 125, 120)" stroke-linecap="round" stroke-linejoin="round" stroke-opacity="0.21566471" stroke-width="0.0"/>
    <path d="M 704.755126953125 271.0052490234375 C 694.8910522460938 263.8323669433594 697.6494140625 268.7031555175781 694.265625 286.4008483886719 C 689.339111328125 272.46923828125 687.9246215820312 273.9216613769531 686.5947265625 263.2401428222656 C 701.9529418945312 272.2049865722656 700.4495849609375 271.23809814453125 684.97216796875 258.34320068359375 C 701.5359497070312 266.8372497558594 694.0715942382812 266.0347900390625 704.755126953125 271.0052490234375" fill="rgb(132, 139, 137)" opacity="0.87992936" stroke="rgb(56, 179, 223)" stroke-linecap="round" stroke-linejoin="round" stroke-opacity="0.40568048" stroke-width="0.0"/>
    <path d="M 546.0055541992188 138.7889862060547 C 538.74609375 131.911376953125 540.5960693359375 133.20193481445312 536.0780029296875 143.7266082763672 C 523.8602294921875 135.94662475585938 532.0171508789062 138.5975799560547 523.2349853515625 132.59451293945312 C 525.3440551757812 122.51295471191406 532.375244140625 133.23272705078125 536.497802734375 122.84955596923828 C 533.8383178710938 132.007568359375 540.4503173828125 125.27947235107422 546.0055541992188 138.7889862060547" fill="rgb(135, 142, 140)" opacity="0.88423765" stroke="rgb(202, 239, 141)" stroke-linecap="round" stroke-linejoin="round" stroke-opacity="0.13236012" stroke-width="0.0"/>
    <path d="M 349.2638854980469 758.2862548828125 C 295.0494689941406 797.1051025390625 281.7463073730469 774.2944946289062 267.9449462890625 768.402099609375 C 268.0266418457031 781.32373046875 247.73377990722656 796.7274169921875 216.4818572998047 758.4816284179688 C 274.7281188964844 754.085693359375 272.73480224609375 762.1422729492188 268.0106201171875 764.2915649414062 C 278.2157897949219 765.9252319335938 278.5195007324219 750.5586547851562 349.2638854980469 758.2862548828125" fill="rgb(131, 137, 135)" opacity="0.893156" stroke="rgb(63, 67, 234)" stroke-linecap="round" stroke-linejoin="round" stroke-opacity="0.52257156" stroke-width="0.0"/>
    <path d="M 729.6596069335938 162.77615356445312 C 737.5418701171875 165.68121337890625 731.9922485351562 166.56658935546875 722.0538330078125 167.4272918701172 C 730.6356811523438 165.3066864013672 726.7108154296875 185.14564514160156 691.0533447265625 187.9315643310547 C 721.2525634765625 128.14413452148438 727.8040771484375 123.74201202392578 725.4334106445312 159.64889526367188 C 738.4654541015625 162.165771484375 737.7596435546875 162.848876953125 729.6596069335938 162.77615356445312" fill="rgb(136, 143, 141)" opacity="0.49637187" stroke="rgb(118, 92, 186)" stroke-linecap="round" stroke-linejoin="round" stroke-opacity="0.6005968" stroke-width="0.0"/>
    <path d="M 541.8394165039062 58.98700714111328 C 534.434814453125 48.61849594116211 534.5435180664062 48.37773132324219 530.9495849609375 58.720062255859375 C 537.3930053710938 53.81534194946289 537.4547119140625 55.14917755126953 523.64013671875 50.39842987060547 C 531.6367797851562 56.26356506347656 536.8605346679688 50.02080154418945 531.8222045898438 43.87075424194336 C 538.4672241210938 57.15874481201172 532.7843627929688 49.75682067871094 541.8394165039062 58.98700714111328" fill="rgb(132, 139, 137)" opacity="0.9020632" stroke="rgb(96, 49, 245)" stroke-linecap="round" stroke-linejoin="round" stroke-opacity="0.32342568" stroke-width="0.0"/>
    <path d="M 675.9239501953125 433.2081298828125 C 670.0887451171875 427.907470703125 669.9389038085938 428.0821228027344 669.8626098632812 430.6689758300781 C 659.0574340820312 437.00213623046875 658.585205078125 437.2738342285156 659.6746826171875 418.1337585449219 C 667.3930053710938 432.033447265625 668.6578979492188 429.3987121582031 662.36083984375 417.5337829589844 C 672.184814453125 426.65966796875 667.27099609375 422.605712890625 675.9239501953125 433.2081298828125" fill="rgb(132, 140, 137)" opacity="1.0" stroke="rgb(199, 249, 105)" stroke-linecap="round" stroke-linejoin="round" stroke-opacity="0.57349396" stroke-width="0.0"/>
    <path d="M 716.220703125 301.7554626464844 C 714.6793823242188 309.00628662109375 712.8217163085938 308.1264343261719 700.46728515625 315.90008544921875 C 692.0859375 307.9409484863281 702.58349609375 309.79852294921875 686.9326171875 294.7342834472656 C 697.1219482421875 285.7489318847656 692.6742553710938 295.2078857421875 705.5879516601562 286.61395263671875 C 701.2876586914062 303.60784912109375 704.9057006835938 296.7123718261719 716.220703125 301.7554626464844" fill="rgb(135, 142, 140)" opacity="0.907098" stroke="rgb(26, 242, 80)" stroke-linecap="round" stroke-linejoin="round" stroke-opacity="0.42053086" stroke-width="0.0"/>
    <path d="M 359.22869873046875 87.18719482421875 C 368.0609130859375 88.20333099365234 363.77252197265625 90.18363952636719 360.6858825683594 92.98126220703125 C 357.82568359375 93.3464126586914 357.40545654296875 89.11601257324219 356.32635498046875 88.076416015625 C 359.32257080078125 86.12258911132812 362.59710693359375 83.63237762451172 351.3543395996094 80.71371459960938 C 362.865966796875 80.6690673828125 362.5555419921875 86.40788269042969 359.22869873046875 87.18719482421875" fill="rgb(135, 142, 141)" opacity="0.90586406" stroke="rgb(111, 192, 192)" stroke-linecap="round" stroke-linejoin="round" stroke-opacity="0.5968782" stroke-width="0.0"/>
    <path d="M 275.55181884765625 190.21400451660156 C 276.67840576171875 194.01016235351562 276.2889404296875 196.1168975830078 273.9937744140625 194.89894104003906 C 273.0556335449219 191.17051696777344 271.6282958984375 189.989013671875 269.319091796875 192.0427703857422 C 266.80755615234375 188.9222412109375 270.7977294921875 187.64761352539062 272.9885559082031 185.6859130859375 C 276.3439025878906 187.45277404785156 278.91510009765625 189.3818359375 275.55181884765625 190.21400451660156" fill="rgb(134, 140, 138)" opacity="1.0" stroke="rgb(159, 120, 223)" stroke-linecap="round" stroke-linejoin="round" stroke-opacity="0.27131793" stroke-width="0.0"/>
    <path d="M 263.0458679199219 608.6467895507812 C 258.4289245605469 598.8561401367188 257.36077880859375 602.2279052734375 262.0494079589844 613.0355224609375 C 251.57241821289062 612.4717407226562 248.12777709960938 608.4181518554688 257.2365417480469 606.5772094726562 C 247.2112274169922 602.4661254882812 255.05076599121094 605.183349609375 257.7195129394531 599.004150390625 C 261.5486145019531 598.7423706054688 262.7420959472656 601.130859375 263.0458679199219 608.6467895507812" fill="rgb(132, 140, 137)" opacity="0.9351129" stroke="rgb(72, 30, 116)" stroke-linecap="round" stroke-linejoin="round" stroke-opacity="0.9492959" stroke-width="0.0"/>
    <path d="M 202.20594787597656 252.97662353515625 C 200.00833129882812 260.97930908203125 195.51339721679688 258.7901916503906 187.82923889160156 261.236328125 C 186.14752197265625 266.17578125 184.62045288085938 262.21148681640625 179.05810546875 252.9640655517578 C 188.28219604492188 253.84719848632812 186.5991973876953 252.1827850341797 188.65927124023438 248.04049682617188 C 194.93658447265625 247.57347106933594 185.09393310546875 253.8575439453125 202.20594787597656 252.97662353515625" fill="rgb(135, 142, 141)" opacity="0.9038379" stroke="rgb(236, 245, 38)" stroke-linecap="round" stroke-linejoin="round" stroke-opacity="0.060792323" stroke-width="0.0"/>
    <path d="M 222.1582489013672 62.26679611206055 C 232.51815795898438 60.95566177368164 229.52590942382812 61.32160186767578 222.6982879638672 65.85545349121094 C 218.63714599609375 62.86661148071289 218.5270233154297 62.45048904418945 227.36514282226562 63.81391143798828 C 219.7743377685547 60.19609069824219 221.6319580078125 59.62760543823242 223.22308349609375 59.250244140625 C 227.49917602539062 56.79979705810547 227.88714599609375 57.99224853515625 222.1582489013672 62.26679611206055" fill="rgb(136, 142, 140)" opacity="0.8985959" stroke="rgb(7, 249, 99)" stroke-linecap="round" stroke-linejoin="round" stroke-opacity="0.97461855" stroke-width="0.0"/>
    <path d="M 169.29824829101562 275.06060791015625 C 164.9267578125 266.8962097167969 165.09323120117188 267.588623046875 164.68533325195312 273.907470703125 C 155.55294799804688 284.56500244140625 153.8293914794922 282.17852783203125 148.51914978027344 265.1660461425781 C 162.75592041015625 262.52069091796875 150.5059051513672 257.8711242675781 158.0752410888672 218.57647705078125 C 175.4484100341797 264.755615234375 163.74766540527344 258.59515380859375 169.29824829101562 275.06060791015625" fill="rgb(132, 139, 138)" opacity="0.9142775" stroke="rgb(170, 238, 21)" stroke-linecap="round" stroke-linejoin="round" stroke-opacity="0.09042018" stroke-width="0.0"/>
    <path d="M 595.0536499023438 60.0760498046875 C 594.9195556640625 61.830318450927734 592.861572265625 61.818206787109375 592.017822265625 57.39746856689453 C 588.254150390625 62.731510162353516 586.9012451171875 62.17171096801758 587.7591552734375 58.4964485168457 C 594.3961791992188 59.14493942260742 592.751708984375 58.90046691894531 580.8604736328125 49.9338264465332 C 590.7300415039062 53.839900970458984 592.5958862304688 58.70132827758789 595.0536499023438 60.0760498046875" fill="rgb(136, 143, 141)" opacity="0.90511006" stroke="rgb(94, 24, 180)" stroke-linecap="round" stroke-linejoin="round" stroke-opacity="0.4363136" stroke-width="0.0"/>
    <path d="M 285.2720947265625 547.4404296875 C 281.50286865234375 540.1571655273438 280.81634521484375 544.5283203125 278.1598205566406 559.3966674804688 C 270.9209289550781 546.4732055664062 273.0011291503906 549.612548828125 266.2673645019531 535.4004516601562 C 277.378662109375 545.3115234375 276.5726623535156 544.5751342773438 266.70208740234375 532.443603515625 C 288.2763366699219 534.6681518554688 277.67498779296875 537.0202026367188 285.2720947265625 547.4404296875" fill="rgb(133, 140, 138)" opacity="0.96198165" stroke="rgb(254, 229, 189)" stroke-linecap="round" stroke-linejoin="round" stroke-opacity="0.8130539" stroke-width="0.0"/>
    <path d="M 702.2951049804688 308.0212097167969 C 696.1417236328125 309.3923645019531 697.6972045898438 314.5376281738281 689.4676513671875 322.3717346191406 C 694.9072265625 310.91741943359375 694.3413696289062 311.8746337890625 684.0731201171875 313.55999755859375 C 687.8585205078125 304.3984375 692.7928466796875 299.6023864746094 694.9147338867188 307.1456298828125 C 697.3680419921875 301.3008728027344 699.77392578125 304.7581481933594 702.2951049804688 308.0212097167969" fill="rgb(136, 142, 140)" opacity="0.7917911" stroke="rgb(171, 241, 116)" stroke-linecap="round" stroke-linejoin="round" stroke-opacity="0.8704861" stroke-width="0.0"/>
    <path d="M 58.893699645996094 548.9153442382812 C 48.564186096191406 550.5513916015625 44.00306701660156 549.050048828125 38.02944564819336 546.9664916992188 C 35.09104537963867 550.5598754882812 38.41941452026367 544.3375854492188 22.685449600219727 538.8616943359375 C 32.11885452270508 538.9423217773438 24.547813415527344 533.15283203125 40.165000915527344 527.033203125 C 54.58195495605469 539.7754516601562 47.87562561035156 533.8546142578125 58.893699645996094 548.9153442382812" fill="rgb(135, 142, 140)" opacity="0.9277323" stroke="rgb(88, 47, 216)" stroke-linecap="round" stroke-linejoin="round" stroke-opacity="0.55816734" stroke-width="0.0"/>
    <path d="M 310.866943359375 717.9557495117188 C 299.2100830078125 714.643798828125 299.461669921875 717.6559448242188 300.1266784667969 722.7123413085938 C 295.20458984375 724.422607421875 300.11474609375 720.4628295898438 303.6037902832031 709.0654907226562 C 294.8074951171875 723.7726440429688 297.5129699707031 720.0435791015625 302.31207275390625 714.1436767578125 C 306.9681091308594 716.9374389648438 300.3407897949219 712.8851928710938 310.866943359375 717.9557495117188" fill="rgb(131, 137, 135)" opacity="0.9064176" stroke="rgb(95, 113, 26)" stroke-linecap="round" stroke-linejoin="round" stroke-opacity="0.037109375" stroke-width="0.0"/>
    <path d="M 174.72598266601562 609.0577392578125 C 167.95950317382812 608.1802368164062 170.7638702392578 614.6279907226562 164.4800567626953 617.397705078125 C 172.1291961669922 607.0433959960938 171.03421020507812 608.527099609375 154.74156188964844 614.8223266601562 C 162.65769958496094 603.3666381835938 162.37469482421875 611.798583984375 172.05960083007812 598.3858032226562 C 168.25767517089844 603.9638061523438 169.86557006835938 607.4786987304688 174.72598266601562 609.0577392578125" fill="rgb(134, 141, 140)" opacity="0.9087682" stroke="rgb(189, 223, 74)" stroke-linecap="round" stroke-linejoin="round" stroke-opacity="0.38406703" stroke-width="0.0"/>
    <path d="M 380.5259094238281 297.5176086425781 C 372.8263244628906 297.6884765625 383.8144226074219 315.5752868652344 344.4062805175781 316.67401123046875 C 353.48785400390625 294.2696838378906 357.3050537109375 289.7333984375 355.1701965332031 298.5419006347656 C 354.9010009765625 289.73004150390625 360.0580749511719 291.60791015625 363.841796875 290.6813659667969 C 363.88262939453125 295.32537841796875 366.2909851074219 293.671630859375 380.5259094238281 297.5176086425781" fill="rgb(134, 141, 139)" opacity="0.8899066" stroke="rgb(175, 181, 64)" stroke-linecap="round" stroke-linejoin="round" stroke-opacity="0.9834421" stroke-width="0.0"/>
    <path d="M 639.3362426757812 245.6964874267578 C 636.2815551757812 254.49078369140625 637.0599365234375 253.74826049804688 639.5559692382812 264.8856506347656 C 630.6043701171875 259.1935119628906 636.3004150390625 255.65408325195312 636.6306762695312 243.4728240966797 C 632.9034423828125 254.449951171875 632.2261962890625 248.01806640625 634.74951171875 226.9220733642578 C 642.9055786132812 249.13636779785156 643.603515625 255.0972137451172 639.3362426757812 245.6964874267578" fill="rgb(132, 139, 137)" opacity="0.9069857" stroke="rgb(51, 106, 200)" stroke-linecap="round" stroke-linejoin="round" stroke-opacity="0.22770219" stroke-width="0.0"/>
    <path d="M 241.15931701660156 52.536354064941406 C 239.6932373046875 43.61256408691406 239.49957275390625 48.90361404418945 237.7443084716797 46.046382904052734 C 235.2772216796875 51.158363342285156 236.71499633789062 46.381568908691406 224.26109313964844 43.25609588623047 C 237.75399780273438 43.878395080566406 231.74522399902344 39.03769302368164 234.6067657470703 26.500717163085938 C 241.4773712158203 41.86431884765625 236.5088653564453 36.96259689331055 241.15931701660156 52.536354064941406" fill="rgb(133, 139, 137)" opacity="0.8973157" stroke="rgb(246, 144, 212)" stroke-linecap="round" stroke-linejoin="round" stroke-opacity="0.26347625" stroke-width="0.0"/>
    <path d="M 738.8155517578125 114.28816986083984 C 730.3717041015625 110.59323120117188 727.7861938476562 115.35112762451172 732.1924438476562 122.22126007080078 C 722.5565185546875 112.40412902832031 727.775634765625 116.89676666259766 718.0761108398438 106.72526550292969 C 724.266845703125 115.70653533935547 727.9091796875 110.32363891601562 724.364501953125 103.65359497070312 C 731.7738037109375 109.6280746459961 727.2297973632812 105.42862701416016 738.8155517578125 114.28816986083984" fill="rgb(133, 141, 139)" opacity="0.908265" stroke="rgb(119, 212, 141)" stroke-linecap="round" stroke-linejoin="round" stroke-opacity="0.99181414" stroke-width="0.0"/>
    <path d="M 580.6949462890625 446.5966796875 C 566.5592651367188 444.6328125 562.1652221679688 445.3345031738281 569.4049682617188 455.1571960449219 C 562.460693359375 455.4093322753906 570.0509643554688 445.289306640625 553.4053344726562 445.1195373535156 C 553.3792114257812 438.2488098144531 561.9728393554688 438.44354248046875 567.7185668945312 441.51385498046875 C 568.5775146484375 451.2243957519531 570.2002563476562 440.2530212402344 580.6949462890625 446.5966796875" fill="rgb(134, 142, 143)" opacity="0.8950564" stroke="rgb(186, 4, 36)" stroke-linecap="round" stroke-linejoin="round" stroke-opacity="0.36556396" stroke-width="0.0"/>
    <path d="M 344.9076232910156 604.7092895507812 C 333.2176818847656 602.91455078125 328.1845703125 610.35546875 344.6649169921875 613.1273193359375 C 332.722900390625 600.1817626953125 333.9725646972656 608.1144409179688 326.6054382324219 601.5932006835938 C 332.16595458984375 609.2381591796875 332.71282958984375 604.3388671875 331.50396728515625 600.9647216796875 C 336.82373046875 589.3338012695312 340.8874206542969 589.6398315429688 344.9076232910156 604.7092895507812" fill="rgb(136, 143, 142)" opacity="0.8871177" stroke="rgb(132, 207, 115)" stroke-linecap="round" stroke-linejoin="round" stroke-opacity="0.951246" stroke-width="0.0"/>
    <path d="M 762.9376831054688 38.52169418334961 C 756.6303100585938 45.13551330566406 764.0640869140625 40.51430892944336 757.455078125 47.62019729614258 C 750.4869995117188 42.62187194824219 746.4552612304688 39.60219192504883 751.073486328125 42.9332275390625 C 758.740234375 36.757835388183594 750.8287963867188 43.01543426513672 764.2902221679688 32.20415496826172 C 751.388427734375 37.73277282714844 757.93017578125 36.498939514160156 762.9376831054688 38.52169418334961" fill="rgb(133, 138, 136)" opacity="0.8906283" stroke="rgb(44, 147, 248)" stroke-linecap="round" stroke-linejoin="round" stroke-opacity="0.82150173" stroke-width="0.0"/>
    <path d="M 425.0993347167969 472.19573974609375 C 421.0798645019531 492.6268005371094 424.0601501464844 498.6002197265625 421.5995788574219 497.5431213378906 C 418.42291259765625 470.06744384765625 422.36834716796875 496.7994079589844 415.0569763183594 497.0613098144531 C 426.30963134765625 497.722412109375 418.60430908203125 499.40985107421875 420.59857177734375 482.5996398925781 C 426.0602111816406 444.4874572753906 426.20953369140625 439.46539306640625 425.0993347167969 472.19573974609375" fill="rgb(223, 255, 248)" opacity="0.4723186" stroke="rgb(95, 229, 5)" stroke-linecap="round" stroke-linejoin="round" stroke-opacity="0.9968822" stroke-width="0.0"/>
    <path d="M 484.11083984375 365.9366760253906 C 492.21856689453125 371.79534912109375 482.3945007324219 367.89984130859375 485.3291931152344 380.0248107910156 C 478.2981262207031 373.5821838378906 477.4668884277344 370.0593566894531 477.2876281738281 363.73822021484375 C 471.3504638671875 352.5975036621094 474.0372009277344 351.6568603515625 481.3798522949219 364.4624328613281 C 493.9773254394531 358.57684326171875 493.5671691894531 360.8885803222656 484.11083984375 365.9366760253906" fill="rgb(136, 143, 141)" opacity="0.87278074" stroke="rgb(138, 218, 248)" stroke-linecap="round" stroke-linejoin="round" stroke-opacity="0.9109905" stroke-width="0.0"/>
    <path d="M 634.1213989257812 205.89329528808594 C 640.1846923828125 211.61981201171875 638.5717163085938 211.16297912597656 629.97998046875 206.66212463378906 C 625.9692993164062 212.86959838867188 626.39990234375 211.99887084960938 630.2603759765625 206.05235290527344 C 626.9718627929688 202.653076171875 631.0902099609375 206.6632080078125 627.3587036132812 199.74288940429688 C 633.7542724609375 202.31333923339844 639.1854248046875 204.77462768554688 634.1213989257812 205.89329528808594" fill="rgb(135, 142, 140)" opacity="0.90469223" stroke="rgb(238, 85, 209)" stroke-linecap="round" stroke-linejoin="round" stroke-opacity="0.49537614" stroke-width="0.0"/>
    <path d="M 735.8811645507812 122.91776275634766 C 729.6139526367188 134.16714477539062 723.7410888671875 143.54473876953125 727.5060424804688 129.98663330078125 C 718.7028198242188 127.48096466064453 723.53466796875 128.8520965576172 719.26171875 122.32008361816406 C 712.8270874023438 124.40438079833984 719.033203125 118.71141052246094 723.8243408203125 116.98419189453125 C 733.7014770507812 117.4344253540039 734.5768432617188 118.06602478027344 735.8811645507812 122.91776275634766" fill="rgb(134, 141, 140)" opacity="0.9707431" stroke="rgb(119, 86, 108)" stroke-linecap="round" stroke-linejoin="round" stroke-opacity="0.18082233" stroke-width="0.0"/>
    <path d="M 131.25340270996094 237.60545349121094 C 121.352294921875 247.95188903808594 124.13785552978516 243.08279418945312 115.57247161865234 251.20809936523438 C 121.804931640625 244.1011505126953 117.51260375976562 244.79541015625 113.14762115478516 248.76939392089844 C 118.48101043701172 239.0925750732422 116.22208404541016 243.61874389648438 124.75677490234375 234.47691345214844 C 117.64557647705078 240.95912170410156 120.19657897949219 243.81741333007812 131.25340270996094 237.60545349121094" fill="rgb(135, 141, 139)" opacity="0.9084463" stroke="rgb(18, 242, 192)" stroke-linecap="round" stroke-linejoin="round" stroke-opacity="0.6159457" stroke-width="0.0"/>
    <path d="M 460.2869567871094 364.9591369628906 C 463.1021728515625 390.417724609375 454.03009033203125 416.6310119628906 397.4719543457031 426.999755859375 C 374.3922424316406 352.2154846191406 374.18963623046875 356.49896240234375 378.4097900390625 388.8329162597656 C 361.83258056640625 347.9981994628906 364.4572448730469 323.99078369140625 427.34954833984375 338.56964111328125 C 425.99365234375 338.82574462890625 448.14398193359375 342.99664306640625 460.2869567871094 364.9591369628906" fill="rgb(252, 127, 9)" opacity="0.9890008" stroke="rgb(218, 0, 45)" stroke-linecap="round" stroke-linejoin="round" stroke-opacity="0.78995997" stroke-width="0.0"/>
    <path d="M 228.51666259765625 91.88653564453125 C 224.44984436035156 98.56946563720703 223.6963653564453 98.4113540649414 220.8991241455078 97.66969299316406 C 216.5156707763672 99.94770812988281 214.6125946044922 98.47581481933594 216.921142578125 94.27095031738281 C 212.6333770751953 93.41224670410156 215.68356323242188 88.27174377441406 230.18702697753906 81.87594604492188 C 214.9333038330078 94.62610626220703 216.63644409179688 93.98429107666016 228.51666259765625 91.88653564453125" fill="rgb(134, 141, 139)" opacity="0.89093703" stroke="rgb(127, 70, 202)" stroke-linecap="round" stroke-linejoin="round" stroke-opacity="0.18263677" stroke-width="0.0"/>
    <path d="M 221.7632598876953 33.413883209228516 C 225.25135803222656 35.176666259765625 220.6824493408203 36.020076751708984 219.55117797851562 40.26939010620117 C 217.15496826171875 38.92185592651367 216.05462646484375 35.96849822998047 215.99923706054688 34.275997161865234 C 216.43212890625 30.970083236694336 216.9706573486328 29.49728775024414 219.3467559814453 32.86566925048828 C 222.50413513183594 29.698589324951172 224.13528442382812 30.644268035888672 221.7632598876953 33.413883209228516" fill="rgb(135, 141, 138)" opacity="0.90066063" stroke="rgb(144, 120, 7)" stroke-linecap="round" stroke-linejoin="round" stroke-opacity="0.07124513" stroke-width="0.0"/>
    <path d="M 645.0110473632812 483.447998046875 C 650.7765502929688 489.0938720703125 645.9583740234375 485.928955078125 645.7628173828125 494.13092041015625 C 638.6854858398438 488.89495849609375 647.558349609375 487.8804626464844 641.0388793945312 482.2738037109375 C 644.200439453125 477.3775634765625 637.8857421875 483.7802429199219 641.2783813476562 476.1247253417969 C 648.8475952148438 483.001708984375 650.844970703125 484.9396057128906 645.0110473632812 483.447998046875" fill="rgb(133, 140, 137)" opacity="0.96910346" stroke="rgb(104, 128, 220)" stroke-linecap="round" stroke-linejoin="round" stroke-opacity="0.07835113" stroke-width="0.0"/>
    <path d="M 394.8831787109375 383.655029296875 C 371.90594482421875 450.614990234375 391.03515625 390.73779296875 354.8116760253906 393.7953796386719 C 355.85821533203125 395.6649169921875 332.6322937011719 389.1263122558594 330.21490478515625 414.9260559082031 C 333.1112976074219 326.8102111816406 325.8673095703125 347.5934143066406 352.6560363769531 338.398193359375 C 410.479248046875 332.0309753417969 398.0262451171875 353.8412170410156 394.8831787109375 383.655029296875" fill="rgb(252, 120, 7)" opacity="1.0" stroke="rgb(234, 105, 217)" stroke-linecap="round" stroke-linejoin="round" stroke-opacity="0.5343008" stroke-width="0.0"/>
    <path d="M 343.0879821777344 516.0316162109375 C 335.0755310058594 529.2318725585938 341.0148620605469 517.4495849609375 315.7803955078125 524.7509155273438 C 332.5908508300781 523.2926025390625 324.1123962402344 523.6395874023438 297.2890625 508.7646484375 C 323.4739685058594 515.3172607421875 310.9187316894531 500.2613830566406 335.9961242675781 506.4846496582031 C 335.6000671386719 517.0308227539062 336.08526611328125 510.3531188964844 343.0879821777344 516.0316162109375" fill="rgb(131, 138, 137)" opacity="0.7878701" stroke="rgb(249, 0, 98)" stroke-linecap="round" stroke-linejoin="round" stroke-opacity="0.19556859" stroke-width="0.0"/>
    <path d="M 714.09912109375 285.61077880859375 C 713.4292602539062 288.11077880859375 711.59912109375 289.94091796875 709.09912109375 290.61077880859375 C 706.59912109375 289.94091796875 704.7689819335938 288.11077880859375 704.09912109375 285.61077880859375 C 704.7689819335938 283.11077880859375 706.59912109375 281.2806396484375 709.09912109375 280.61077880859375 C 711.59912109375 281.2806396484375 713.4292602539062 283.11077880859375 714.09912109375 285.61077880859375" fill="rgb(134, 140, 139)" opacity="1.0" stroke="rgb(173, 20, 222)" stroke-linecap="round" stroke-linejoin="round" stroke-opacity="0.36143002" stroke-width="0.0"/>
  </g>
</svg>
