<?xml version="1.0" ?>
<svg height="768" version="1.1" width="768" xmlns="http://www.w3.org/2000/svg">
  <defs/>
  <g>
    <path d="M 772.8782958984375 -12.439444541931152 C 776.6760864257812 627.07568359375 761.890625 599.1620483398438 793.34130859375 660.7333984375 C 704.0814208984375 754.9010620117188 650.8890380859375 794.8118286132812 2.3091282844543457 794.439208984375 C -25.274328231811523 468.7098083496094 -21.752573013305664 407.5020446777344 -29.5273380279541 3.709960699081421 C 100.36468505859375 -14.151392936706543 155.3973846435547 -19.428203582763672 772.8782958984375 -12.439444541931152" fill="rgb(90, 135, 172)" opacity="1.0" stroke="rgb(237, 149, 28)" stroke-linecap="round" stroke-linejoin="round" stroke-opacity="0.13499744" stroke-width="0.0"/>
    <path d="M 780.167724609375 722.4066162109375 C 779.7445068359375 798.4580078125 775.8042602539062 812.3882446289062 514.4495849609375 766.9374389648438 C 574.5761108398438 705.4656372070312 614.8208618164062 737.3085327148438 640.1454467773438 673.4185180664062 C 690.0108032226562 701.0735473632812 679.4947509765625 681.735107421875 766.2174072265625 666.5801391601562 C 796.5328369140625 701.4230346679688 783.990234375 712.6339111328125 780.167724609375 722.4066162109375" fill="rgb(86, 134, 175)" opacity="1.0" stroke="rgb(53, 125, 5)" stroke-linecap="round" stroke-linejoin="round" stroke-opacity="0.28670865" stroke-width="0.0"/>
    <path d="M 526.8441772460938 358.9667053222656 C 489.9972229003906 407.0947265625 459.928466796875 410.6935119628906 430.6261901855469 416.5343933105469 C 347.2485046386719 574.3739624023438 205.0608673095703 593.6396484375 370.5865783691406 381.9826965332031 C 361.55889892578125 136.7952117919922 433.2023010253906 320.72265625 401.3446960449219 368.5778503417969 C 473.54791259765625 387.4989013671875 516.576904296875 309.89031982421875 526.8441772460938 358.9667053222656" fill="rgb(238, 185, 134)" opacity="0.90158325" stroke="rgb(0, 15, 169)" stroke-linecap="round" stroke-linejoin="round" stroke-opacity="0.92267126" stroke-width="0.0"/>
    <path d="M 409.5202331542969 367.50982666015625 C 485.6357727050781 437.4919128417969 388.75732421875 424.6109313964844 313.7078857421875 405.92742919921875 C 273.750732421875 395.6322021484375 251.91119384765625 375.70318603515625 247.14488220214844 360.8505554199219 C 249.3009033203125 329.7286071777344 306.5057373046875 370.6930236816406 359.9824523925781 368.4485778808594 C 372.3909912109375 368.6300964355469 412.142822265625 212.04611206054688 409.5202331542969 367.50982666015625" fill="rgb(252, 180, 121)" opacity="0.9860778" stroke="rgb(94, 248, 128)" stroke-linecap="round" stroke-linejoin="round" stroke-opacity="0.89538705" stroke-width="0.0"/>
  </g>
</svg>
