<?xml version="1.0" ?>
<svg height="768" version="1.1" width="768" xmlns="http://www.w3.org/2000/svg">
  <defs/>
  <g>
    <path d="M 772.8782958984375 -12.439444541931152 C 776.6760864257812 627.07568359375 761.890625 599.1620483398438 793.34130859375 660.7333984375 C 704.0814208984375 754.9010620117188 650.8890380859375 794.8118286132812 2.320202589035034 794.439208984375 C -25.273351669311523 468.7098083496094 -21.752573013305664 407.5020446777344 -29.5273380279541 3.709960699081421 C 100.36468505859375 -14.151392936706543 155.3973846435547 -19.428203582763672 772.8782958984375 -12.439444541931152" fill="rgb(89, 135, 172)" opacity="0.9998779" stroke="rgb(237, 149, 28)" stroke-linecap="round" stroke-linejoin="round" stroke-opacity="0.13499744" stroke-width="0.0"/>
    <path d="M 780.167724609375 722.4066162109375 C 779.7445068359375 798.4580078125 775.8042602539062 812.3636474609375 514.4495849609375 766.8470458984375 C 574.5761108398438 705.4656372070312 614.8208618164062 737.3085327148438 640.1454467773438 673.4185180664062 C 690.0108032226562 701.0735473632812 679.4947509765625 681.735107421875 766.0716552734375 666.5801391601562 C 796.5328369140625 701.4230346679688 783.990234375 712.6339111328125 780.167724609375 722.4066162109375" fill="rgb(86, 134, 175)" opacity="1.0" stroke="rgb(53, 125, 5)" stroke-linecap="round" stroke-linejoin="round" stroke-opacity="0.28670865" stroke-width="0.0"/>
    <path d="M 527.02099609375 358.5876770019531 C 489.6924743652344 407.84429931640625 460.2172546386719 409.9635009765625 429.303466796875 416.79937744140625 C 359.8111267089844 588.8990478515625 197.11920166015625 590.2326049804688 374.0230407714844 381.19696044921875 C 352.0711669921875 143.0974884033203 445.42816162109375 315.802978515625 389.12896728515625 366.93560791015625 C 474.0873107910156 392.36328125 514.4356079101562 308.4735412597656 527.02099609375 358.5876770019531" fill="rgb(237, 188, 140)" opacity="0.8978994" stroke="rgb(0, 15, 169)" stroke-linecap="round" stroke-linejoin="round" stroke-opacity="0.92267126" stroke-width="0.0"/>
    <path d="M 409.7707824707031 369.5221252441406 C 568.786865234375 405.5776672363281 400.37921142578125 432.3120422363281 319.2015686035156 406.9524841308594 C 272.626708984375 397.2345886230469 250.91796875 373.203857421875 247.58749389648438 362.0464172363281 C 243.93479919433594 324.10650634765625 337.3785705566406 385.0486755371094 367.59661865234375 363.8774719238281 C 362.30694580078125 357.9023742675781 411.0267639160156 183.68214416503906 409.7707824707031 369.5221252441406" fill="rgb(253, 178, 118)" opacity="0.9831938" stroke="rgb(94, 248, 128)" stroke-linecap="round" stroke-linejoin="round" stroke-opacity="0.89538705" stroke-width="0.0"/>
    <path d="M 387.1255187988281 394.205810546875 C 396.485107421875 392.6980895996094 417.67254638671875 389.1830139160156 366.66290283203125 421.5175476074219 C 387.4716796875 407.22845458984375 386.6612854003906 369.9621276855469 387.5696105957031 332.9768981933594 C 385.17352294921875 377.5278015136719 392.08148193359375 357.9920959472656 382.32733154296875 261.3169860839844 C 384.2386779785156 250.1410675048828 397.3311767578125 335.3946533203125 387.1255187988281 394.205810546875" fill="rgb(251, 233, 204)" opacity="1.0" stroke="rgb(124, 21, 124)" stroke-linecap="round" stroke-linejoin="round" stroke-opacity="0.7316655" stroke-width="0.0"/>
  </g>
</svg>
