<?xml version="1.0" ?>
<svg height="768" version="1.1" width="768" xmlns="http://www.w3.org/2000/svg">
  <defs/>
  <g>
    <path d="M 766.697021484375 807.4590454101562 C 332.3607482910156 773.7360229492188 181.10984802246094 717.7428588867188 -43.11111831665039 670.2586059570312 C -9.427192687988281 270.2173156738281 6.773829460144043 230.70994567871094 8.888606071472168 -31.129335403442383 C 533.9674072265625 -22.708723068237305 608.6956787109375 -16.816614151000977 792.8291015625 1.9192397594451904 C 790.08544921875 292.87158203125 780.8176879882812 350.9581298828125 766.697021484375 807.4590454101562" fill="rgb(123, 160, 163)" opacity="1.0" stroke="rgb(252, 228, 50)" stroke-linecap="round" stroke-linejoin="round" stroke-opacity="0.33959597" stroke-width="0.0"/>
    <path d="M 365.6741943359375 311.21514892578125 C 536.803466796875 393.9239196777344 609.4957275390625 375.27313232421875 736.9692993164062 598.9780883789062 C 255.4877471923828 484.2923583984375 294.91754150390625 492.4541931152344 82.73844909667969 172.4973907470703 C 270.9481506347656 385.5202331542969 265.19573974609375 146.1534881591797 104.7378921508789 233.3084259033203 C 237.08688354492188 101.85038757324219 335.0152587890625 320.3672790527344 365.6741943359375 311.21514892578125" fill="rgb(25, 107, 59)" opacity="0.95437425" stroke="rgb(124, 191, 78)" stroke-linecap="round" stroke-linejoin="round" stroke-opacity="0.3477447" stroke-width="0.0"/>
    <path d="M 321.74169921875 514.8429565429688 C 285.08856201171875 568.5970458984375 340.44903564453125 471.96905517578125 148.57371520996094 566.2054443359375 C 381.72967529296875 366.99859619140625 136.16299438476562 523.4452514648438 198.63064575195312 251.15652465820312 C 254.5082550048828 249.802490234375 188.74468994140625 293.46856689453125 273.1058654785156 366.2575988769531 C 343.0509948730469 416.1147155761719 307.1614990234375 348.75604248046875 321.74169921875 514.8429565429688" fill="rgb(174, 97, 41)" opacity="1.0" stroke="rgb(230, 217, 3)" stroke-linecap="round" stroke-linejoin="round" stroke-opacity="0.10966712" stroke-width="0.0"/>
    <path d="M 184.48269653320312 956.330322265625 C 52.62885284423828 797.4444580078125 34.20676040649414 784.7798461914062 2.337144613265991 772.2867431640625 C -119.909912109375 748.514892578125 -69.19477081298828 804.8096923828125 208.58261108398438 401.84765625 C -291.68084716796875 533.9881591796875 11.96780776977539 583.3114013671875 435.3692932128906 652.7808837890625 C 350.2239990234375 898.7373657226562 265.4284362792969 887.4759521484375 184.48269653320312 956.330322265625" fill="rgb(133, 167, 178)" opacity="0.9929188" stroke="rgb(209, 25, 12)" stroke-linecap="round" stroke-linejoin="round" stroke-opacity="0.15282945" stroke-width="0.0"/>
    <path d="M 249.0 516.0 C 248.3301239013672 518.5 246.5 520.3301391601562 244.0 521.0 C 241.5 520.3301391601562 239.6698760986328 518.5 239.0 516.0 C 239.6698760986328 513.5 241.5 511.66986083984375 244.0 511.0 C 246.5 511.66986083984375 248.3301239013672 513.5 249.0 516.0" fill="rgb(10, 8, 10)" opacity="1.0" stroke="rgb(26, 171, 60)" stroke-linecap="round" stroke-linejoin="round" stroke-opacity="0.8130454" stroke-width="0.0"/>
  </g>
</svg>
