<?xml version="1.0" ?>
<svg height="768" version="1.1" width="768" xmlns="http://www.w3.org/2000/svg">
  <defs/>
  <g>
    <path d="M 766.6139526367188 807.1973876953125 C 333.1628112792969 773.1408081054688 182.30242919921875 717.08642578125 -42.82292556762695 669.7151489257812 C -9.338817596435547 270.29718017578125 6.9199724197387695 230.97225952148438 9.017448425292969 -31.102596282958984 C 533.9674072265625 -22.708723068237305 608.6956787109375 -16.816614151000977 792.8291015625 1.9192397594451904 C 790.08544921875 292.87158203125 780.7954711914062 350.94512939453125 766.6139526367188 807.1973876953125" fill="rgb(126, 158, 157)" opacity="0.9967618" stroke="rgb(252, 228, 50)" stroke-linecap="round" stroke-linejoin="round" stroke-opacity="0.33959597" stroke-width="0.0"/>
    <path d="M 417.6497497558594 327.6716613769531 C 499.19451904296875 396.97454833984375 619.478271484375 349.9715881347656 711.2743530273438 572.761962890625 C 216.1473846435547 537.0022583007812 305.81048583984375 493.8239440917969 74.24742126464844 222.25340270996094 C 273.07830810546875 295.0206604003906 263.44183349609375 208.68333435058594 125.70099639892578 210.51797485351562 C 281.29656982421875 131.2552032470703 303.96923828125 326.2005615234375 417.6497497558594 327.6716613769531" fill="rgb(67, 116, 70)" opacity="0.73330075" stroke="rgb(124, 191, 78)" stroke-linecap="round" stroke-linejoin="round" stroke-opacity="0.3477447" stroke-width="0.0"/>
    <path d="M 300.0 432.0 C 299.33013916015625 434.5 297.5 436.33013916015625 295.0 437.0 C 292.5 436.33013916015625 290.66986083984375 434.5 290.0 432.0 C 290.66986083984375 429.5 292.5 427.66986083984375 295.0 427.0 C 297.5 427.66986083984375 299.33013916015625 429.5 300.0 432.0" fill="rgb(243, 109, 34)" opacity="1.0" stroke="rgb(230, 217, 3)" stroke-linecap="round" stroke-linejoin="round" stroke-opacity="0.10966712" stroke-width="0.0"/>
  </g>
</svg>
