<?xml version="1.0" ?>
<svg height="768" version="1.1" width="768" xmlns="http://www.w3.org/2000/svg">
  <defs/>
  <g>
    <path d="M 787.0762939453125 164.0964813232422 C 782.97998046875 590.6270751953125 783.4695434570312 601.7503662109375 853.8750610351562 714.6768188476562 C 804.8497924804688 764.680419921875 757.451171875 791.0785522460938 366.609619140625 831.9426879882812 C 219.3494110107422 905.7182006835938 124.79810333251953 916.3930053710938 82.36259460449219 -1.4225029945373535 C 1035.9071044921875 12.55367660522461 1022.568115234375 69.99017333984375 787.0762939453125 164.0964813232422" fill="rgb(120, 124, 128)" opacity="0.9735834" stroke="rgb(181, 238, 204)" stroke-linecap="round" stroke-linejoin="round" stroke-opacity="0.15835409" stroke-width="0.0"/>
    <path d="M 217.56236267089844 745.7377319335938 C 206.82589721679688 784.6080322265625 205.34335327148438 788.301513671875 -27.53822898864746 771.5458984375 C -17.78138542175293 647.6002807617188 -15.926898002624512 628.43994140625 -12.050934791564941 429.8381652832031 C 3.4186103343963623 439.2851257324219 -15.051796913146973 444.79058837890625 0.5653753280639648 104.71583557128906 C 479.2888488769531 158.58706665039062 210.2270050048828 241.55364990234375 217.56236267089844 745.7377319335938" fill="rgb(103, 122, 138)" opacity="0.9949658" stroke="rgb(8, 141, 246)" stroke-linecap="round" stroke-linejoin="round" stroke-opacity="0.18297888" stroke-width="0.0"/>
    <path d="M 107.27493286132812 61.90849304199219 C 110.75276947021484 126.9174575805664 107.9986801147461 129.75242614746094 72.85453796386719 124.64946746826172 C -21.24561309814453 120.83756256103516 -16.524885177612305 113.7404556274414 -12.736289024353027 67.09244537353516 C -17.71573829650879 -6.11528205871582 -24.283220291137695 -13.79688835144043 63.78602981567383 -13.268705368041992 C 104.56277465820312 -15.146683692932129 107.3380126953125 -13.807912826538086 107.27493286132812 61.90849304199219" fill="rgb(104, 123, 140)" opacity="1.0" stroke="rgb(40, 148, 29)" stroke-linecap="round" stroke-linejoin="round" stroke-opacity="0.3244066" stroke-width="0.0"/>
    <path d="M 477.0378723144531 465.757568359375 C 388.0108947753906 575.8387451171875 430.3742370605469 483.66998291015625 373.27130126953125 558.3278198242188 C 420.3465270996094 515.0687255859375 277.4998474121094 532.7249145507812 216.73638916015625 489.1238098144531 C 312.6251525878906 516.3550415039062 509.21234130859375 471.850341796875 463.64697265625 346.3594055175781 C 410.8044738769531 187.0250701904297 524.437744140625 337.1910095214844 477.0378723144531 465.757568359375" fill="rgb(66, 24, 8)" opacity="0.8800286" stroke="rgb(58, 118, 111)" stroke-linecap="round" stroke-linejoin="round" stroke-opacity="0.100202225" stroke-width="0.0"/>
    <path d="M 524.4874877929688 306.418212890625 C 552.7953491210938 216.71121215820312 449.2558288574219 172.71170043945312 395.274169921875 206.67901611328125 C 345.7725830078125 239.03732299804688 376.23126220703125 261.65985107421875 350.8649597167969 309.4869384765625 C 340.7898254394531 172.39730834960938 439.10015869140625 183.0628204345703 461.0204772949219 187.13389587402344 C 488.02227783203125 187.65550231933594 569.5394897460938 239.77662658691406 524.4874877929688 306.418212890625" fill="rgb(29, 19, 16)" opacity="0.9693513" stroke="rgb(231, 177, 68)" stroke-linecap="round" stroke-linejoin="round" stroke-opacity="0.41394943" stroke-width="0.0"/>
  </g>
</svg>
