<?xml version="1.0" ?>
<svg height="768" version="1.1" width="768" xmlns="http://www.w3.org/2000/svg">
  <defs/>
  <g>
    <path d="M 781.8795776367188 9.553422927856445 C 781.5901489257812 238.32537841796875 783.8214721679688 246.92596435546875 926.8677978515625 371.196044921875 C 983.6903076171875 531.6046752929688 1021.5404663085938 683.8881225585938 335.6108703613281 745.6097412109375 C 270.08935546875 546.3295288085938 196.07237243652344 504.6294860839844 116.2585678100586 0.010520705953240395 C 788.6254272460938 -23.43828010559082 800.4483642578125 -10.90937328338623 781.8795776367188 9.553422927856445" fill="rgb(175, 150, 132)" opacity="0.9508578" stroke="rgb(180, 221, 221)" stroke-linecap="round" stroke-linejoin="round" stroke-opacity="0.6513702" stroke-width="0.0"/>
    <path d="M 453.7959289550781 577.89599609375 C 451.8701477050781 635.5455932617188 393.0837097167969 628.8438720703125 377.793701171875 707.6400756835938 C 377.4327087402344 621.8114624023438 359.0322570800781 677.6077270507812 311.9246826171875 586.6292114257812 C 407.20245361328125 527.9363403320312 361.9989929199219 690.7299194335938 385.4173278808594 168.82086181640625 C 428.8533935546875 561.3112182617188 354.7769775390625 570.01025390625 453.7959289550781 577.89599609375" fill="rgb(8, 4, 7)" opacity="0.9463778" stroke="rgb(244, 4, 62)" stroke-linecap="round" stroke-linejoin="round" stroke-opacity="0.9026404" stroke-width="0.0"/>
    <path d="M 265.53173828125 136.84666442871094 C 135.89077758789062 133.26783752441406 111.12776947021484 165.30422973632812 309.107421875 625.722412109375 C -402.0462341308594 565.8214721679688 -169.16268920898438 461.1351623535156 -14.32261848449707 340.0005798339844 C -14.999022483825684 87.25175476074219 -15.208141326904297 80.36566925048828 34.816429138183594 -11.050371170043945 C 202.13482666015625 -22.51413917541504 9.7547607421875 -3.4353394508361816 265.53173828125 136.84666442871094" fill="rgb(0, 18, 29)" opacity="0.61685205" stroke="rgb(110, 0, 231)" stroke-linecap="round" stroke-linejoin="round" stroke-opacity="0.6070661" stroke-width="0.0"/>
    <path d="M 767.4882202148438 238.70584106445312 C 795.8831787109375 719.9744873046875 789.2506713867188 775.912353515625 775.3897094726562 780.9876708984375 C 509.1630554199219 783.6204833984375 431.6094665527344 891.9560546875 302.3818054199219 732.0429077148438 C 557.4268188476562 813.3941040039062 357.2170104980469 624.3218994140625 484.88214111328125 635.2294311523438 C 528.7161254882812 475.5621643066406 295.73138427734375 390.5851745605469 767.4882202148438 238.70584106445312" fill="rgb(109, 124, 130)" opacity="0.91034263" stroke="rgb(53, 248, 227)" stroke-linecap="round" stroke-linejoin="round" stroke-opacity="0.69207186" stroke-width="0.0"/>
    <path d="M 326.2222900390625 728.3126220703125 C 369.5488586425781 778.8539428710938 326.2369689941406 788.514892578125 130.8444061279297 777.9324340820312 C 168.49766540527344 745.96923828125 167.89230346679688 760.2823486328125 24.725324630737305 832.4974975585938 C -14.3749418258667 729.1973266601562 -35.91435241699219 706.9707641601562 -16.493377685546875 332.2372131347656 C 246.47409057617188 500.4300231933594 329.0738830566406 568.6629028320312 326.2222900390625 728.3126220703125" fill="rgb(118, 132, 138)" opacity="1.0" stroke="rgb(137, 186, 244)" stroke-linecap="round" stroke-linejoin="round" stroke-opacity="0.69298315" stroke-width="0.0"/>
  </g>
</svg>
