<?xml version="1.0" ?>
<svg height="768" version="1.1" width="768" xmlns="http://www.w3.org/2000/svg">
  <defs/>
  <g>
    <path d="M 584.5402221679688 242.77169799804688 C 692.0813598632812 195.73382568359375 734.6895141601562 145.4494171142578 780.7852172851562 502.8751525878906 C 311.1160888671875 655.19921875 473.28656005859375 780.4352416992188 501.9308776855469 488.39752197265625 C 520.5669555664062 133.15399169921875 482.1827087402344 411.40350341796875 447.44219970703125 194.6729736328125 C 742.6033935546875 150.778076171875 667.355712890625 220.1190643310547 584.5402221679688 242.77169799804688" fill="rgb(29, 57, 71)" opacity="0.66619414" stroke="rgb(83, 108, 54)" stroke-linecap="round" stroke-linejoin="round" stroke-opacity="0.45222306" stroke-width="0.0"/>
    <path d="M 490.5809631347656 400.5368347167969 C 489.9739990234375 431.34906005859375 502.078369140625 484.5204772949219 475.61248779296875 596.3739624023438 C 451.1504821777344 609.19970703125 489.5039367675781 522.6187744140625 471.6344909667969 409.7950134277344 C 473.6736755371094 257.0653076171875 388.27081298828125 245.62344360351562 484.15423583984375 286.06524658203125 C 504.37628173828125 318.2556457519531 485.7762451171875 365.96832275390625 490.5809631347656 400.5368347167969" fill="rgb(0, 0, 0)" opacity="0.9328692" stroke="rgb(182, 176, 214)" stroke-linecap="round" stroke-linejoin="round" stroke-opacity="0.8801464" stroke-width="0.0"/>
    <path d="M 378.0 262.0 C 377.33013916015625 264.5 375.5 266.33013916015625 373.0 267.0 C 370.5 266.33013916015625 368.66986083984375 264.5 368.0 262.0 C 368.66986083984375 259.5 370.5 257.66986083984375 373.0 257.0 C 375.5 257.66986083984375 377.33013916015625 259.5 378.0 262.0" fill="rgb(0, 0, 0)" opacity="1.0" stroke="rgb(77, 39, 44)" stroke-linecap="round" stroke-linejoin="round" stroke-opacity="0.27604228" stroke-width="0.0"/>
  </g>
</svg>
