<?xml version="1.0" ?>
<svg height="768" version="1.1" width="768" xmlns="http://www.w3.org/2000/svg">
  <defs/>
  <g>
    <path d="M 575.16064453125 -75.31019592285156 C 674.1957397460938 -51.52994918823242 755.7962646484375 1.2588796615600586 799.650634765625 757.0448608398438 C 497.38775634765625 790.1486206054688 332.37603759765625 796.4175415039062 -0.14290401339530945 786.0590209960938 C -16.160472869873047 227.95408630371094 -19.40802001953125 175.13958740234375 -38.71428680419922 3.456037998199463 C 170.30859375 -17.45102882385254 290.0360107421875 -22.49768829345703 575.16064453125 -75.31019592285156" fill="rgb(139, 142, 144)" opacity="0.9961956" stroke="rgb(218, 134, 39)" stroke-linecap="round" stroke-linejoin="round" stroke-opacity="0.7291134" stroke-width="0.0"/>
    <path d="M 564.6954345703125 310.8886413574219 C 583.6868896484375 328.6262512207031 615.5742797851562 378.67266845703125 607.5776977539062 426.7228088378906 C 435.6218566894531 409.4969482421875 356.5683288574219 363.90863037109375 335.04656982421875 352.3887023925781 C 358.5879821777344 283.7308349609375 222.83363342285156 382.2923583984375 309.2435607910156 294.4271240234375 C 385.9864807128906 234.1337432861328 501.2294006347656 238.15089416503906 564.6954345703125 310.8886413574219" fill="rgb(63, 38, 32)" opacity="0.9474123" stroke="rgb(230, 24, 204)" stroke-linecap="round" stroke-linejoin="round" stroke-opacity="0.04079249" stroke-width="0.0"/>
    <path d="M 457.6465759277344 467.48797607421875 C 488.7124938964844 475.6248779296875 493.58770751953125 435.4224853515625 503.8529968261719 501.4492492675781 C 366.90545654296875 500.33160400390625 379.73516845703125 510.8599853515625 397.973876953125 483.3502197265625 C 405.1461486816406 465.4640808105469 406.31451416015625 463.8279724121094 409.66253662109375 467.65325927734375 C 425.1142272949219 465.3786315917969 426.53759765625 467.8652648925781 457.6465759277344 467.48797607421875" fill="rgb(41, 51, 67)" opacity="0.7956641" stroke="rgb(126, 250, 151)" stroke-linecap="round" stroke-linejoin="round" stroke-opacity="0.6182124" stroke-width="0.0"/>
  </g>
</svg>
