<?xml version="1.0" ?>
<svg height="768" version="1.1" width="768" xmlns="http://www.w3.org/2000/svg">
  <defs/>
  <g>
    <path d="M 575.3351440429688 -75.45301055908203 C 674.6958618164062 -52.254783630371094 756.39892578125 0.4333396255970001 799.973876953125 757.0448608398438 C 497.431884765625 790.1849975585938 332.3763122558594 796.4175415039062 -0.14285506308078766 786.0590209960938 C -16.160472869873047 227.95408630371094 -19.40802001953125 175.13958740234375 -38.71428680419922 3.456037998199463 C 170.30859375 -17.45102882385254 290.0360107421875 -22.49768829345703 575.3351440429688 -75.45301055908203" fill="rgb(149, 144, 140)" opacity="0.99345237" stroke="rgb(218, 134, 39)" stroke-linecap="round" stroke-linejoin="round" stroke-opacity="0.7291134" stroke-width="0.0"/>
    <path d="M 564.4864501953125 310.59527587890625 C 583.6365966796875 328.57122802734375 615.593017578125 378.34576416015625 607.5881958007812 426.70281982421875 C 436.37396240234375 409.5041809082031 357.107421875 364.31658935546875 335.06964111328125 352.3705749511719 C 358.6275329589844 283.6807861328125 222.89999389648438 382.24139404296875 309.0385437011719 294.5500793457031 C 382.6358642578125 236.05978393554688 498.62554931640625 235.91944885253906 564.4864501953125 310.59527587890625" fill="rgb(62, 38, 33)" opacity="0.9473046" stroke="rgb(230, 24, 204)" stroke-linecap="round" stroke-linejoin="round" stroke-opacity="0.04079249" stroke-width="0.0"/>
    <path d="M 456.50958251953125 467.4514465332031 C 490.2368469238281 475.46575927734375 492.8181457519531 435.76251220703125 503.9917297363281 501.44940185546875 C 367.7633361816406 500.6830749511719 377.69842529296875 510.6158447265625 398.58056640625 482.61358642578125 C 403.284423828125 462.90374755859375 407.5605773925781 465.0561828613281 409.7298583984375 467.6915588378906 C 426.2177429199219 465.0575256347656 426.875244140625 467.8275451660156 456.50958251953125 467.4514465332031" fill="rgb(38, 50, 68)" opacity="0.8045454" stroke="rgb(126, 250, 151)" stroke-linecap="round" stroke-linejoin="round" stroke-opacity="0.6182124" stroke-width="0.0"/>
    <path d="M 766.3535766601562 402.3925476074219 C 554.1077880859375 307.3392639160156 595.5326538085938 240.44708251953125 498.2538146972656 194.47666931152344 C 645.2090454101562 64.15374755859375 646.2833251953125 76.06438446044922 651.6465454101562 -12.639296531677246 C 692.046142578125 -15.221860885620117 702.083740234375 -15.00931167602539 794.2066650390625 -10.995002746582031 C 789.38720703125 23.468854904174805 819.4705200195312 48.478729248046875 766.3535766601562 402.3925476074219" fill="rgb(122, 139, 153)" opacity="1.0" stroke="rgb(160, 18, 163)" stroke-linecap="round" stroke-linejoin="round" stroke-opacity="0.99923205" stroke-width="0.0"/>
    <path d="M 405.1230163574219 467.754638671875 C 393.00054931640625 493.63031005859375 378.7282409667969 509.5723876953125 375.4669494628906 508.44256591796875 C 358.66668701171875 506.88232421875 362.17889404296875 499.80694580078125 363.912353515625 482.7265319824219 C 365.28094482421875 459.2945861816406 382.7712097167969 450.9794616699219 305.9088439941406 459.9447937011719 C 409.20159912109375 453.676513671875 412.6357421875 454.8788757324219 405.1230163574219 467.754638671875" fill="rgb(255, 168, 74)" opacity="0.7690073" stroke="rgb(253, 245, 138)" stroke-linecap="round" stroke-linejoin="round" stroke-opacity="0.7347993" stroke-width="0.0"/>
  </g>
</svg>
