<?xml version="1.0" ?>
<svg height="768" version="1.1" width="768" xmlns="http://www.w3.org/2000/svg">
  <defs/>
  <g>
    <path d="M 767.7278442382812 622.5228271484375 C 201.1832275390625 571.878173828125 139.03684997558594 506.062744140625 -46.170745849609375 446.7374572753906 C 4.064042091369629 -283.21466064453125 146.22792053222656 -244.68016052246094 330.0135803222656 -229.06678771972656 C 455.46026611328125 -14.014605522155762 460.96343994140625 -13.517539024353027 746.6368408203125 -13.573888778686523 C 774.6422729492188 -68.17278289794922 783.3473510742188 -123.46163177490234 767.7278442382812 622.5228271484375" fill="rgb(113, 150, 170)" opacity="0.9999559" stroke="rgb(29, 213, 137)" stroke-linecap="round" stroke-linejoin="round" stroke-opacity="0.2991919" stroke-width="0.0"/>
    <path d="M 686.6795043945312 469.22772216796875 C 745.8347778320312 566.01708984375 782.9461059570312 596.4348754882812 791.4645385742188 773.4373168945312 C 474.3040466308594 782.9032592773438 453.6722106933594 785.0831298828125 97.02911376953125 767.1370239257812 C 122.73631286621094 264.7499084472656 164.1898193359375 435.35150146484375 241.60751342773438 544.580078125 C 600.2806396484375 583.2772216796875 604.7748413085938 583.758544921875 686.6795043945312 469.22772216796875" fill="rgb(112, 150, 170)" opacity="1.0" stroke="rgb(89, 133, 228)" stroke-linecap="round" stroke-linejoin="round" stroke-opacity="0.8862243" stroke-width="0.0"/>
    <path d="M 18.0 695.0 C 17.330127716064453 697.5 15.5 699.3301391601562 13.0 700.0 C 10.5 699.3301391601562 8.669873237609863 697.5 8.0 695.0 C 8.669873237609863 692.5 10.5 690.6698608398438 13.0 690.0 C 15.5 690.6698608398438 17.330127716064453 692.5 18.0 695.0" fill="rgb(108, 148, 167)" opacity="1.0" stroke="rgb(210, 119, 91)" stroke-linecap="round" stroke-linejoin="round" stroke-opacity="0.99414617" stroke-width="0.0"/>
  </g>
</svg>
