<?xml version="1.0" ?>
<svg height="768" version="1.1" width="768" xmlns="http://www.w3.org/2000/svg">
  <defs/>
  <g>
    <path d="M 605.1055297851562 949.375732421875 C 488.50396728515625 781.007568359375 483.6084289550781 781.6597290039062 82.57379150390625 784.5719604492188 C 12.315220832824707 947.4505004882812 -11.797356605529785 1097.234619140625 -1.7753357887268066 130.42984008789062 C 748.8673706054688 177.09115600585938 816.5468139648438 244.54989624023438 829.7515869140625 338.24615478515625 C 785.6730346679688 908.88623046875 707.8917846679688 917.7047119140625 605.1055297851562 949.375732421875" fill="rgb(126, 117, 138)" opacity="0.99982315" stroke="rgb(43, 251, 206)" stroke-linecap="round" stroke-linejoin="round" stroke-opacity="0.480906" stroke-width="0.0"/>
    <path d="M 380.2189025878906 -200.52557373046875 C 510.43896484375 -192.6946258544922 685.4048461914062 -277.3748779296875 783.8341064453125 238.57366943359375 C 113.66641998291016 197.91856384277344 129.2089080810547 175.5553741455078 -1.655422568321228 187.7389373779297 C -21.029197692871094 -51.44052505493164 -8.244616508483887 -39.12990951538086 29.06340980529785 -14.39211654663086 C 271.8716735839844 -14.073543548583984 278.2620544433594 -15.344450950622559 380.2189025878906 -200.52557373046875" fill="rgb(112, 116, 133)" opacity="1.0" stroke="rgb(104, 28, 205)" stroke-linecap="round" stroke-linejoin="round" stroke-opacity="0.8674633" stroke-width="0.0"/>
    <path d="M 567.8434448242188 359.3647766113281 C 552.6405639648438 375.17535400390625 535.015625 319.9443664550781 443.3204345703125 390.8364562988281 C 324.08978271484375 430.7222900390625 501.8916320800781 429.402587890625 201.0905303955078 429.45013427734375 C 269.3334045410156 338.7872619628906 327.4889831542969 344.5565490722656 343.73626708984375 303.9791564941406 C 422.5633850097656 243.7017364501953 477.9879455566406 301.97784423828125 567.8434448242188 359.3647766113281" fill="rgb(238, 154, 191)" opacity="0.90627754" stroke="rgb(89, 58, 96)" stroke-linecap="round" stroke-linejoin="round" stroke-opacity="0.25161108" stroke-width="0.0"/>
    <path d="M 782.9712524414062 7.807191848754883 C 778.1229248046875 72.28788757324219 782.0294189453125 77.96305084228516 768.0670166015625 161.89993286132812 C 700.0799560546875 121.97709655761719 721.79345703125 90.2702865600586 716.326904296875 40.56271743774414 C 712.0283813476562 4.162095546722412 709.8895874023438 -1.8920464515686035 706.641845703125 -10.140604972839355 C 791.51416015625 -12.686135292053223 785.9130249023438 -7.930627822875977 782.9712524414062 7.807191848754883" fill="rgb(112, 116, 133)" opacity="1.0" stroke="rgb(227, 119, 187)" stroke-linecap="round" stroke-linejoin="round" stroke-opacity="0.51960444" stroke-width="0.0"/>
    <path d="M 228.0 359.0 C 227.3301239013672 361.5 225.5 363.33013916015625 223.0 364.0 C 220.5 363.33013916015625 218.6698760986328 361.5 218.0 359.0 C 218.6698760986328 356.5 220.5 354.66986083984375 223.0 354.0 C 225.5 354.66986083984375 227.3301239013672 356.5 228.0 359.0" fill="rgb(255, 192, 209)" opacity="1.0" stroke="rgb(42, 29, 80)" stroke-linecap="round" stroke-linejoin="round" stroke-opacity="0.18458217" stroke-width="0.0"/>
  </g>
</svg>
