<?xml version="1.0" ?>
<svg height="768" version="1.1" width="768" xmlns="http://www.w3.org/2000/svg">
  <defs/>
  <g>
    <path d="M 605.1055297851562 949.375732421875 C 488.50396728515625 781.007568359375 483.6084289550781 781.6597290039062 82.87125396728516 784.5719604492188 C 12.518014907836914 947.2605590820312 -11.695127487182617 1097.05517578125 -1.7651418447494507 130.47813415527344 C 748.1966552734375 177.35012817382812 815.6515502929688 244.9498748779297 829.6585083007812 338.43963623046875 C 785.6730346679688 908.88623046875 707.8917846679688 917.7047119140625 605.1055297851562 949.375732421875" fill="rgb(112, 116, 133)" opacity="1.0" stroke="rgb(43, 251, 206)" stroke-linecap="round" stroke-linejoin="round" stroke-opacity="0.480906" stroke-width="0.0"/>
    <path d="M 379.910400390625 -199.05197143554688 C 506.3261413574219 -185.11053466796875 673.1450805664062 -262.95465087890625 769.4296264648438 226.37547302246094 C 130.23773193359375 188.96910095214844 133.07237243652344 167.65786743164062 -1.6290690898895264 176.05538940429688 C -21.029197692871094 -51.44052505493164 -8.244616508483887 -39.12990951538086 29.06340980529785 -14.39211654663086 C 271.8716735839844 -14.073543548583984 278.2620544433594 -15.344450950622559 379.910400390625 -199.05197143554688" fill="rgb(112, 115, 133)" opacity="1.0" stroke="rgb(104, 28, 205)" stroke-linecap="round" stroke-linejoin="round" stroke-opacity="0.8674633" stroke-width="0.0"/>
    <path d="M 423.0 310.0 C 422.33013916015625 312.5 420.5 314.33013916015625 418.0 315.0 C 415.5 314.33013916015625 413.66986083984375 312.5 413.0 310.0 C 413.66986083984375 307.5 415.5 305.66986083984375 418.0 305.0 C 420.5 305.66986083984375 422.33013916015625 307.5 423.0 310.0" fill="rgb(252, 183, 212)" opacity="1.0" stroke="rgb(89, 58, 96)" stroke-linecap="round" stroke-linejoin="round" stroke-opacity="0.25161108" stroke-width="0.0"/>
  </g>
</svg>
