<?xml version="1.0" ?>
<svg height="768" version="1.1" width="768" xmlns="http://www.w3.org/2000/svg">
  <defs/>
  <g>
    <path d="M 512.4275512695312 832.469970703125 C -23.49201011657715 800.9909057617188 -61.41216278076172 713.3788452148438 254.19808959960938 572.776123046875 C -13.245586395263672 628.15673828125 -43.10207748413086 899.3095703125 2.4437389373779297 -58.78535079956055 C 561.9396362304688 -13.072090148925781 625.5175170898438 39.19002151489258 819.4768676757812 86.83805847167969 C 788.925537109375 823.2839965820312 727.5263671875 833.8181762695312 512.4275512695312 832.469970703125" fill="rgb(106, 108, 126)" opacity="0.93579024" stroke="rgb(72, 183, 9)" stroke-linecap="round" stroke-linejoin="round" stroke-opacity="0.6965117" stroke-width="0.0"/>
    <path d="M 418.9183044433594 167.61048889160156 C 340.9012756347656 179.87130737304688 493.632080078125 255.63821411132812 375.93096923828125 236.86961364746094 C 261.98626708984375 250.0240936279297 416.9514465332031 177.00588989257812 330.9867858886719 166.01199340820312 C 264.2987976074219 266.86376953125 243.45040893554688 148.5271759033203 366.3798828125 107.76702117919922 C 485.54779052734375 104.79637908935547 506.2054443359375 288.5172424316406 418.9183044433594 167.61048889160156" fill="rgb(254, 254, 254)" opacity="0.973761" stroke="rgb(176, 151, 54)" stroke-linecap="round" stroke-linejoin="round" stroke-opacity="0.37101653" stroke-width="0.0"/>
    <path d="M 342.91064453125 504.4143371582031 C 173.0057373046875 587.4214477539062 253.80296325683594 657.8274536132812 219.65261840820312 535.6226196289062 C 117.72927856445312 512.6063842773438 135.7887420654297 561.4734497070312 155.62521362304688 459.3498840332031 C 154.5760955810547 467.03546142578125 139.02877807617188 456.7049865722656 272.0325622558594 467.0596618652344 C 280.20477294921875 480.82891845703125 309.05224609375 474.792724609375 342.91064453125 504.4143371582031" fill="rgb(252, 252, 252)" opacity="0.99978906" stroke="rgb(64, 103, 177)" stroke-linecap="round" stroke-linejoin="round" stroke-opacity="0.66076964" stroke-width="0.0"/>
    <path d="M 329.90032958984375 444.6784362792969 C 330.5106506347656 466.8577575683594 311.8168640136719 485.597412109375 286.4985046386719 477.71588134765625 C 217.1125030517578 434.2164306640625 131.8173065185547 502.670654296875 172.8278350830078 411.8168029785156 C 222.58444213867188 266.39666748046875 224.4263916015625 246.29879760742188 402.94775390625 272.40325927734375 C 334.90478515625 330.2603759765625 350.0920104980469 357.8932800292969 329.90032958984375 444.6784362792969" fill="rgb(0, 0, 5)" opacity="0.73194736" stroke="rgb(247, 137, 227)" stroke-linecap="round" stroke-linejoin="round" stroke-opacity="0.751733" stroke-width="0.0"/>
    <path d="M 309.0 658.0 C 308.33013916015625 660.5 306.5 662.3301391601562 304.0 663.0 C 301.5 662.3301391601562 299.66986083984375 660.5 299.0 658.0 C 299.66986083984375 655.5 301.5 653.6698608398438 304.0 653.0 C 306.5 653.6698608398438 308.33013916015625 655.5 309.0 658.0" fill="rgb(0, 0, 0)" opacity="1.0" stroke="rgb(181, 40, 85)" stroke-linecap="round" stroke-linejoin="round" stroke-opacity="0.90462416" stroke-width="0.0"/>
  </g>
</svg>
