<?xml version="1.0" ?>
<svg height="768" version="1.1" width="768" xmlns="http://www.w3.org/2000/svg">
  <defs/>
  <g>
    <path d="M 512.4999389648438 832.5123901367188 C -22.79743766784668 801.8744506835938 -60.645084381103516 711.4947509765625 257.0175476074219 572.177001953125 C -14.38680362701416 628.4669189453125 -43.49772644042969 897.6768798828125 2.4140784740448 -58.815521240234375 C 561.886474609375 -13.013816833496094 625.4671020507812 39.23329162597656 819.4463500976562 86.85375213623047 C 788.862548828125 823.2315063476562 727.4693603515625 833.7876586914062 512.4999389648438 832.5123901367188" fill="rgb(103, 105, 122)" opacity="0.95243704" stroke="rgb(72, 183, 9)" stroke-linecap="round" stroke-linejoin="round" stroke-opacity="0.6965117" stroke-width="0.0"/>
    <path d="M 418.8173522949219 167.6295623779297 C 340.9009094238281 180.04598999023438 493.8430480957031 255.56597900390625 375.9821472167969 236.87750244140625 C 262.0333557128906 249.9836883544922 416.8288269042969 177.0602264404297 331.04248046875 165.97280883789062 C 263.8904724121094 267.14898681640625 243.53182983398438 148.1298065185547 366.7453308105469 107.66676330566406 C 485.8748474121094 105.31925201416016 505.97760009765625 288.43817138671875 418.8173522949219 167.6295623779297" fill="rgb(253, 253, 253)" opacity="0.9775513" stroke="rgb(176, 151, 54)" stroke-linecap="round" stroke-linejoin="round" stroke-opacity="0.37101653" stroke-width="0.0"/>
    <path d="M 341.9915466308594 504.8870544433594 C 173.64598083496094 587.505126953125 253.6411590576172 658.1893310546875 219.6192169189453 535.753173828125 C 117.47598266601562 512.384033203125 135.8583526611328 562.0322265625 155.93511962890625 457.57708740234375 C 153.62745666503906 468.32257080078125 142.13580322265625 456.4490966796875 268.2995300292969 467.1496276855469 C 288.41705322265625 484.7586364746094 319.8721008300781 478.3892822265625 341.9915466308594 504.8870544433594" fill="rgb(252, 252, 252)" opacity="0.99155056" stroke="rgb(64, 103, 177)" stroke-linecap="round" stroke-linejoin="round" stroke-opacity="0.66076964" stroke-width="0.0"/>
    <path d="M 307.0 442.0 C 306.33013916015625 444.5 304.5 446.33013916015625 302.0 447.0 C 299.5 446.33013916015625 297.66986083984375 444.5 297.0 442.0 C 297.66986083984375 439.5 299.5 437.66986083984375 302.0 437.0 C 304.5 437.66986083984375 306.33013916015625 439.5 307.0 442.0" fill="rgb(0, 0, 0)" opacity="1.0" stroke="rgb(247, 137, 227)" stroke-linecap="round" stroke-linejoin="round" stroke-opacity="0.751733" stroke-width="0.0"/>
  </g>
</svg>
