<?xml version="1.0" ?>
<svg height="768" version="1.1" width="768" xmlns="http://www.w3.org/2000/svg">
  <defs/>
  <g>
    <path d="M 775.4524536132812 782.1663818359375 C 661.3577270507812 787.1797485351562 585.0208129882812 784.271484375 15.874221801757812 767.6141357421875 C 49.1331787109375 276.0773620605469 105.1086196899414 209.6412353515625 194.57630920410156 -27.32389259338379 C 949.0083618164062 41.919105529785156 963.5067749023438 155.1270751953125 841.6290283203125 274.9876708984375 C 785.1692504882812 493.8497009277344 782.0428466796875 539.2059936523438 775.4524536132812 782.1663818359375" fill="rgb(135, 128, 143)" opacity="0.9930554" stroke="rgb(94, 206, 157)" stroke-linecap="round" stroke-linejoin="round" stroke-opacity="0.21264395" stroke-width="0.0"/>
    <path d="M 436.9393310546875 357.6056213378906 C 596.009765625 402.4756164550781 505.5874328613281 79.0848617553711 653.4057006835938 367.5431823730469 C 495.3136901855469 483.999755859375 222.35653686523438 518.6636962890625 103.06190490722656 404.7076110839844 C 339.18109130859375 271.21044921875 404.5860900878906 315.7207946777344 422.7288818359375 230.7870635986328 C 457.6650695800781 257.860107421875 483.91986083984375 305.7082824707031 436.9393310546875 357.6056213378906" fill="rgb(99, 44, 54)" opacity="0.72358555" stroke="rgb(37, 1, 185)" stroke-linecap="round" stroke-linejoin="round" stroke-opacity="0.71929365" stroke-width="0.0"/>
    <path d="M 476.833251953125 428.3905334472656 C 431.15960693359375 515.5682983398438 490.0158996582031 538.0153198242188 492.9573974609375 540.1738891601562 C 480.07244873046875 550.4622192382812 434.44677734375 527.278564453125 455.22003173828125 461.114990234375 C 407.6016540527344 320.05242919921875 544.6732177734375 596.6471557617188 685.0746459960938 305.7488098144531 C 645.7752685546875 523.0311279296875 438.8083801269531 469.5789489746094 476.833251953125 428.3905334472656" fill="rgb(26, 17, 33)" opacity="0.9886205" stroke="rgb(57, 161, 133)" stroke-linecap="round" stroke-linejoin="round" stroke-opacity="0.23768018" stroke-width="0.0"/>
    <path d="M 252.32395935058594 2.3753738403320312 C 289.7620849609375 196.8143768310547 219.7764434814453 153.54031372070312 163.95985412597656 254.3480682373047 C 67.65641784667969 322.3175354003906 220.14697265625 427.1237487792969 2.6187875270843506 594.5941162109375 C -21.33818817138672 81.02041625976562 -14.882827758789062 46.54443359375 -14.494914054870605 -10.781749725341797 C 215.33880615234375 -13.099202156066895 210.4878387451172 -13.25666332244873 252.32395935058594 2.3753738403320312" fill="rgb(119, 135, 152)" opacity="0.99417436" stroke="rgb(30, 139, 121)" stroke-linecap="round" stroke-linejoin="round" stroke-opacity="0.57334864" stroke-width="0.0"/>
    <path d="M 229.68911743164062 468.19805908203125 C 382.8490295410156 844.2476196289062 330.92230224609375 807.959716796875 10.36378002166748 778.8460083007812 C -68.43606567382812 693.7938232421875 -18.026174545288086 656.9552612304688 -11.55333423614502 630.5095825195312 C -11.9704008102417 570.2864990234375 -12.090985298156738 569.700439453125 -13.795680046081543 551.525146484375 C 15.508389472961426 536.4923095703125 -38.80118942260742 376.85931396484375 229.68911743164062 468.19805908203125" fill="rgb(110, 137, 156)" opacity="0.9054703" stroke="rgb(221, 19, 104)" stroke-linecap="round" stroke-linejoin="round" stroke-opacity="0.58538973" stroke-width="0.0"/>
  </g>
</svg>
