<?xml version="1.0" ?>
<svg height="768" version="1.1" width="768" xmlns="http://www.w3.org/2000/svg">
  <defs/>
  <g>
    <path d="M 495.1275939941406 821.6204223632812 C -217.83221435546875 790.421630859375 -187.62281799316406 692.3646850585938 -83.44745635986328 545.5653686523438 C -17.46942710876465 356.9765625 -17.233564376831055 339.7520446777344 1.874158501625061 -30.42830467224121 C 298.5614318847656 -22.803682327270508 366.6011657714844 -20.81182861328125 692.3017578125 0.5715837478637695 C 652.9534301757812 748.2476196289062 592.6546630859375 765.6228637695312 495.1275939941406 821.6204223632812" fill="rgb(122, 124, 126)" opacity="0.9774508" stroke="rgb(198, 224, 184)" stroke-linecap="round" stroke-linejoin="round" stroke-opacity="0.14948957" stroke-width="0.0"/>
    <path d="M 781.76123046875 728.1859130859375 C 810.510986328125 769.0067749023438 838.9573364257812 780.40673828125 545.7623901367188 777.763671875 C 602.7008666992188 629.1720581054688 610.6923217773438 620.3441772460938 619.0933837890625 453.1923828125 C 572.507080078125 368.27984619140625 312.225341796875 265.5519104003906 765.4688720703125 139.7974395751953 C 807.9755249023438 484.7503662109375 783.6878051757812 500.1434631347656 781.76123046875 728.1859130859375" fill="rgb(118, 129, 133)" opacity="1.0" stroke="rgb(96, 231, 251)" stroke-linecap="round" stroke-linejoin="round" stroke-opacity="0.45682022" stroke-width="0.0"/>
    <path d="M 435.38385009765625 566.1296997070312 C 374.3460388183594 475.81158447265625 485.6634216308594 621.422119140625 297.154541015625 555.6683959960938 C 328.41815185546875 639.3396606445312 211.9185791015625 369.7718811035156 341.3481750488281 286.8857727050781 C 576.7254028320312 221.80274963378906 243.48158264160156 540.5881958007812 386.4819641113281 531.124755859375 C 377.5126953125 490.23260498046875 523.8134765625 517.5009155273438 435.38385009765625 566.1296997070312" fill="rgb(79, 66, 65)" opacity="0.88559437" stroke="rgb(200, 42, 196)" stroke-linecap="round" stroke-linejoin="round" stroke-opacity="0.46455768" stroke-width="0.0"/>
    <path d="M 780.7122802734375 130.17649841308594 C 791.4417114257812 153.110595703125 801.5506591796875 166.97122192382812 648.002685546875 167.8238525390625 C 657.5450439453125 123.31217956542969 661.7493286132812 114.82585144042969 669.0460205078125 3.451019763946533 C 676.1014404296875 -12.13542652130127 675.404541015625 -14.847886085510254 771.357177734375 -13.256572723388672 C 786.67578125 -2.0111191272735596 783.1064453125 7.71599006652832 780.7122802734375 130.17649841308594" fill="rgb(117, 128, 133)" opacity="1.0" stroke="rgb(119, 222, 116)" stroke-linecap="round" stroke-linejoin="round" stroke-opacity="0.22681169" stroke-width="0.0"/>
    <path d="M 503.7205505371094 437.7322082519531 C 518.9139404296875 494.6478576660156 544.5748291015625 514.3953857421875 456.7994689941406 535.4180297851562 C 490.9115905761719 424.26654052734375 447.2168884277344 529.10498046875 437.3353576660156 369.4946594238281 C 336.61444091796875 297.96502685546875 404.4894104003906 291.7361145019531 432.8114318847656 352.9063415527344 C 508.2995910644531 367.1588134765625 448.4358825683594 324.52978515625 503.7205505371094 437.7322082519531" fill="rgb(68, 54, 52)" opacity="0.9805685" stroke="rgb(164, 212, 18)" stroke-linecap="round" stroke-linejoin="round" stroke-opacity="0.35817334" stroke-width="0.0"/>
  </g>
</svg>
