<?xml version="1.0" ?>
<svg height="768" version="1.1" width="768" xmlns="http://www.w3.org/2000/svg">
  <defs/>
  <g>
    <path d="M 495.1275939941406 821.6204223632812 C -217.79652404785156 790.3916625976562 -187.5865478515625 692.3345336914062 -83.4406509399414 545.5653686523438 C -17.46942710876465 356.9765625 -17.233564376831055 339.7520446777344 1.874158501625061 -30.42830467224121 C 298.5614318847656 -22.803682327270508 366.6011657714844 -20.81182861328125 692.3017578125 0.5715837478637695 C 652.9534301757812 748.2476196289062 592.6546630859375 765.6228637695312 495.1275939941406 821.6204223632812" fill="rgb(119, 122, 125)" opacity="0.9871899" stroke="rgb(198, 224, 184)" stroke-linecap="round" stroke-linejoin="round" stroke-opacity="0.14948957" stroke-width="0.0"/>
    <path d="M 781.76123046875 728.1859130859375 C 810.510986328125 769.0067749023438 838.9573364257812 780.40673828125 546.3975219726562 777.771484375 C 602.9560546875 629.3262329101562 611.0560302734375 620.69189453125 619.5015258789062 453.30047607421875 C 572.6019897460938 368.27203369140625 312.3025817871094 265.57342529296875 765.4296264648438 139.81796264648438 C 807.9661865234375 484.75335693359375 783.6878051757812 500.1434631347656 781.76123046875 728.1859130859375" fill="rgb(118, 129, 133)" opacity="1.0" stroke="rgb(96, 231, 251)" stroke-linecap="round" stroke-linejoin="round" stroke-opacity="0.45682022" stroke-width="0.0"/>
    <path d="M 435.2624816894531 565.7978515625 C 374.55926513671875 476.03521728515625 485.1737060546875 621.296630859375 297.5667419433594 555.6326293945312 C 328.5452575683594 639.12841796875 212.66151428222656 368.5587463378906 341.25189208984375 287.0527038574219 C 575.1941528320312 231.46844482421875 248.40411376953125 526.5035400390625 385.5804748535156 532.472412109375 C 378.2179260253906 489.686767578125 525.037353515625 517.5419921875 435.2624816894531 565.7978515625" fill="rgb(79, 66, 64)" opacity="0.88641465" stroke="rgb(200, 42, 196)" stroke-linecap="round" stroke-linejoin="round" stroke-opacity="0.46455768" stroke-width="0.0"/>
    <path d="M 780.7205200195312 130.03953552246094 C 791.38818359375 153.0518035888672 801.48876953125 166.85321044921875 658.4971923828125 167.49461364746094 C 662.431640625 123.93257141113281 666.3765869140625 116.2154312133789 672.359619140625 8.821154594421387 C 676.2015380859375 -12.10489559173584 675.4107055664062 -14.847851753234863 771.357177734375 -13.25617504119873 C 786.67578125 -2.0111191272735596 783.1064453125 7.71599006652832 780.7205200195312 130.03953552246094" fill="rgb(117, 128, 133)" opacity="1.0" stroke="rgb(119, 222, 116)" stroke-linecap="round" stroke-linejoin="round" stroke-opacity="0.22681169" stroke-width="0.0"/>
  </g>
</svg>
