<?xml version="1.0" ?>
<svg height="768" version="1.1" width="768" xmlns="http://www.w3.org/2000/svg">
  <defs/>
  <g>
    <path d="M 292.8122253417969 894.05517578125 C 145.0909423828125 783.5782470703125 133.60562133789062 780.5917358398438 -12.36651611328125 779.4637451171875 C -14.921255111694336 749.3291625976562 -14.139986991882324 741.1248168945312 -16.771352767944336 360.80474853515625 C -248.70730590820312 250.48977661132812 -364.2480163574219 194.94468688964844 652.9228515625 195.47523498535156 C 592.1258544921875 1010.073486328125 456.8231201171875 974.2005004882812 292.8122253417969 894.05517578125" fill="rgb(108, 153, 168)" opacity="0.9995147" stroke="rgb(234, 185, 59)" stroke-linecap="round" stroke-linejoin="round" stroke-opacity="0.45887268" stroke-width="0.0"/>
    <path d="M 785.2551879882812 31.763423919677734 C 782.7216796875 403.0257873535156 782.760009765625 411.19061279296875 927.7754516601562 586.6112670898438 C 933.097900390625 669.9503784179688 849.2854614257812 764.7792358398438 573.4879760742188 822.6107177734375 C 527.8001098632812 424.393798828125 299.7911071777344 555.6512451171875 157.21224975585938 2.7857954502105713 C 731.2094116210938 -22.979537963867188 855.2169799804688 -11.924453735351562 785.2551879882812 31.763423919677734" fill="rgb(109, 152, 166)" opacity="1.0" stroke="rgb(73, 138, 205)" stroke-linecap="round" stroke-linejoin="round" stroke-opacity="0.46606448" stroke-width="0.0"/>
    <path d="M 153.0 68.0 C 152.3301239013672 70.5 150.5 72.33012390136719 148.0 73.0 C 145.5 72.33012390136719 143.6698760986328 70.5 143.0 68.0 C 143.6698760986328 65.5 145.5 63.66987228393555 148.0 63.0 C 150.5 63.66987228393555 152.3301239013672 65.5 153.0 68.0" fill="rgb(114, 133, 144)" opacity="1.0" stroke="rgb(106, 200, 45)" stroke-linecap="round" stroke-linejoin="round" stroke-opacity="0.3756914" stroke-width="0.0"/>
  </g>
</svg>
