<?xml version="1.0" ?>
<svg height="768" version="1.1" width="768" xmlns="http://www.w3.org/2000/svg">
  <defs/>
  <g>
    <path d="M 601.85693359375 -26.69391441345215 C 689.1288452148438 131.7578125 756.3464965820312 154.82534790039062 786.840576171875 767.2069702148438 C 273.177001953125 785.4556884765625 201.83680725097656 786.8983764648438 -3.595470905303955 789.919677734375 C -12.993823051452637 600.067626953125 -17.679079055786133 551.5076293945312 -52.07390594482422 259.45098876953125 C -169.04803466796875 121.03992462158203 -200.36509704589844 23.010848999023438 601.85693359375 -26.69391441345215" fill="rgb(141, 132, 120)" opacity="0.997951" stroke="rgb(196, 67, 204)" stroke-linecap="round" stroke-linejoin="round" stroke-opacity="0.24684127" stroke-width="0.0"/>
    <path d="M 783.0747680664062 7.454165458679199 C 778.8667602539062 232.95799255371094 826.327880859375 248.9290771484375 767.3770141601562 479.6141662597656 C 605.0665283203125 342.7904968261719 695.4005126953125 286.48388671875 697.1599731445312 235.6761016845703 C 683.5416870117188 143.9501190185547 672.1157836914062 135.42417907714844 600.4459838867188 -7.557814598083496 C 806.0176391601562 -17.957279205322266 802.0494995117188 -11.69682788848877 783.0747680664062 7.454165458679199" fill="rgb(137, 134, 126)" opacity="1.0" stroke="rgb(71, 27, 228)" stroke-linecap="round" stroke-linejoin="round" stroke-opacity="0.16774984" stroke-width="0.0"/>
    <path d="M 558.0961303710938 270.6829528808594 C 521.9921264648438 484.2789306640625 302.93310546875 64.02702331542969 283.58087158203125 514.8328247070312 C 202.01991271972656 449.1256408691406 252.6155548095703 309.38232421875 248.2267608642578 333.1890563964844 C 166.5695343017578 303.9178771972656 237.5820770263672 215.32464599609375 286.75848388671875 271.5592956542969 C 298.51763916015625 298.8182067871094 268.6435241699219 218.5166778564453 558.0961303710938 270.6829528808594" fill="rgb(84, 75, 70)" opacity="0.8977287" stroke="rgb(170, 143, 113)" stroke-linecap="round" stroke-linejoin="round" stroke-opacity="0.87812567" stroke-width="0.0"/>
    <path d="M 394.0 445.0 C 393.33013916015625 447.5 391.5 449.33013916015625 389.0 450.0 C 386.5 449.33013916015625 384.66986083984375 447.5 384.0 445.0 C 384.66986083984375 442.5 386.5 440.66986083984375 389.0 440.0 C 391.5 440.66986083984375 393.33013916015625 442.5 394.0 445.0" fill="rgb(5, 5, 5)" opacity="1.0" stroke="rgb(105, 69, 108)" stroke-linecap="round" stroke-linejoin="round" stroke-opacity="0.010191235" stroke-width="0.0"/>
  </g>
</svg>
