<?xml version="1.0" ?>
<svg height="768" version="1.1" width="768" xmlns="http://www.w3.org/2000/svg">
  <defs/>
  <g>
    <path d="M 601.8526000976562 -26.723608016967773 C 689.1288452148438 131.7578125 756.3464965820312 154.82534790039062 786.840576171875 767.2012329101562 C 273.177001953125 785.4556884765625 201.83680725097656 786.8983764648438 -3.595470905303955 789.919677734375 C -12.993823051452637 600.067626953125 -17.679079055786133 551.5076293945312 -52.07390594482422 259.45098876953125 C -169.06031799316406 121.02249908447266 -200.39617919921875 22.97289276123047 601.8526000976562 -26.723608016967773" fill="rgb(146, 132, 116)" opacity="0.9734469" stroke="rgb(196, 67, 204)" stroke-linecap="round" stroke-linejoin="round" stroke-opacity="0.24684127" stroke-width="0.0"/>
    <path d="M 783.0747680664062 7.454165458679199 C 778.8667602539062 232.95799255371094 826.4815673828125 248.95199584960938 767.18896484375 480.4592590332031 C 598.6643676757812 343.1761169433594 690.1803588867188 285.7148132324219 693.723388671875 238.52743530273438 C 680.1724853515625 148.03515625 666.8889770507812 138.61801147460938 591.5074462890625 -7.362451553344727 C 806.0176391601562 -17.957279205322266 802.0494995117188 -11.69682788848877 783.0747680664062 7.454165458679199" fill="rgb(137, 134, 126)" opacity="1.0" stroke="rgb(71, 27, 228)" stroke-linecap="round" stroke-linejoin="round" stroke-opacity="0.16774984" stroke-width="0.0"/>
    <path d="M 552.6629028320312 262.6712341308594 C 552.8248291015625 503.3612060546875 290.6423645019531 54.12055587768555 285.2770080566406 516.0179443359375 C 204.49282836914062 455.0524597167969 248.72511291503906 315.8447265625 248.48788452148438 333.9193115234375 C 160.0443115234375 298.2681579589844 248.7974090576172 212.14306640625 289.0525817871094 275.9491882324219 C 354.5658264160156 250.6387481689453 283.47003173828125 247.06234741210938 552.6629028320312 262.6712341308594" fill="rgb(82, 74, 71)" opacity="0.8981471" stroke="rgb(170, 143, 113)" stroke-linecap="round" stroke-linejoin="round" stroke-opacity="0.87812567" stroke-width="0.0"/>
    <path d="M 425.91705322265625 429.9039306640625 C 405.0101013183594 494.1440124511719 376.3071594238281 444.74151611328125 388.7422790527344 489.3605041503906 C 381.0824890136719 499.716796875 322.9083251953125 498.28375244140625 321.43731689453125 453.2775573730469 C 324.3951110839844 429.54150390625 344.4679260253906 416.9132385253906 366.9741516113281 409.5868225097656 C 409.9229736328125 402.614013671875 412.4361267089844 421.0259704589844 425.91705322265625 429.9039306640625" fill="rgb(30, 25, 25)" opacity="0.8741127" stroke="rgb(105, 69, 108)" stroke-linecap="round" stroke-linejoin="round" stroke-opacity="0.010191235" stroke-width="0.0"/>
    <path d="M 48.0 29.0 C 47.33012771606445 31.5 45.5 33.33012771606445 43.0 34.0 C 40.5 33.33012771606445 38.66987228393555 31.5 38.0 29.0 C 38.66987228393555 26.5 40.5 24.669872283935547 43.0 24.0 C 45.5 24.669872283935547 47.33012771606445 26.5 48.0 29.0" fill="rgb(137, 134, 126)" opacity="1.0" stroke="rgb(51, 181, 190)" stroke-linecap="round" stroke-linejoin="round" stroke-opacity="0.09266931" stroke-width="0.0"/>
  </g>
</svg>
