<?xml version="1.0" ?>
<svg height="768" version="1.1" width="768" xmlns="http://www.w3.org/2000/svg">
  <defs/>
  <g>
    <path d="M 549.2868041992188 -242.68910217285156 C 685.9760131835938 -188.80905151367188 785.0372314453125 -182.67935180664062 830.9005737304688 447.9529724121094 C 729.816650390625 537.1185302734375 652.5379028320312 596.2099609375 0.4703277349472046 633.046630859375 C -14.669157981872559 59.30009841918945 -18.53179359436035 -2.50712251663208 -18.867517471313477 -11.868517875671387 C 404.8160705566406 -13.422484397888184 410.7288818359375 -14.274645805358887 549.2868041992188 -242.68910217285156" fill="rgb(112, 118, 124)" opacity="0.9865133" stroke="rgb(146, 216, 58)" stroke-linecap="round" stroke-linejoin="round" stroke-opacity="0.22812356" stroke-width="0.0"/>
    <path d="M 779.851806640625 632.717529296875 C 770.984619140625 623.813720703125 778.0451049804688 623.5301513671875 896.0477905273438 757.2130126953125 C 623.8811645507812 786.4544067382812 535.623046875 793.03564453125 182.90679931640625 766.9274291992188 C 197.85031127929688 216.2890625 266.8522644042969 642.283447265625 575.318603515625 472.2638854980469 C 783.3055419921875 424.36456298828125 784.439208984375 445.55670166015625 779.851806640625 632.717529296875" fill="rgb(133, 142, 147)" opacity="1.0" stroke="rgb(44, 34, 236)" stroke-linecap="round" stroke-linejoin="round" stroke-opacity="0.982076" stroke-width="0.0"/>
    <path d="M 205.06971740722656 500.81146240234375 C 198.5485382080078 792.302001953125 196.96942138671875 792.34375 180.6071014404297 779.8822631835938 C -9.66055679321289 782.0196533203125 -12.814376831054688 780.9057006835938 -12.296034812927246 774.765625 C -14.25485610961914 655.5130004882812 -14.94655990600586 648.7457275390625 -43.390907287597656 601.4013061523438 C -3.362178325653076 584.8228759765625 38.09615707397461 557.5532836914062 205.06971740722656 500.81146240234375" fill="rgb(133, 142, 146)" opacity="1.0" stroke="rgb(119, 130, 108)" stroke-linecap="round" stroke-linejoin="round" stroke-opacity="0.7096804" stroke-width="0.0"/>
    <path d="M 469.6517639160156 423.32281494140625 C 475.0014953613281 413.2530822753906 458.53118896484375 478.4132080078125 473.9425964355469 528.3322143554688 C 381.3385925292969 535.2600708007812 450.2650146484375 529.1461791992188 419.3237609863281 442.96142578125 C 174.62770080566406 559.9282836914062 170.61383056640625 229.57781982421875 434.9263000488281 300.5994567871094 C 407.23712158203125 399.0232238769531 509.127685546875 390.0990295410156 469.6517639160156 423.32281494140625" fill="rgb(83, 91, 101)" opacity="1.0" stroke="rgb(78, 54, 186)" stroke-linecap="round" stroke-linejoin="round" stroke-opacity="0.33300027" stroke-width="0.0"/>
    <path d="M 436.642578125 591.4937744140625 C 435.1432800292969 594.3881225585938 432.2431945800781 594.6923828125 415.1789855957031 593.8209228515625 C 428.6414794921875 582.3121337890625 425.94476318359375 582.1572875976562 413.01739501953125 583.3182373046875 C 430.3887023925781 591.1685791015625 431.4951171875 586.990966796875 411.3701477050781 566.0928344726562 C 433.9701232910156 589.8676147460938 417.80816650390625 571.9164428710938 436.642578125 591.4937744140625" fill="rgb(132, 142, 145)" opacity="0.8656793" stroke="rgb(128, 18, 106)" stroke-linecap="round" stroke-linejoin="round" stroke-opacity="0.25460923" stroke-width="0.0"/>
  </g>
</svg>
