<?xml version="1.0" ?>
<svg height="768" version="1.1" width="768" xmlns="http://www.w3.org/2000/svg">
  <defs/>
  <g>
    <path d="M 549.2868041992188 -242.68402099609375 C 685.973388671875 -188.80091857910156 785.0349731445312 -182.67205810546875 830.9005737304688 447.9529724121094 C 729.816650390625 537.1185302734375 652.5379028320312 596.2099609375 0.4703277349472046 633.046630859375 C -14.669157981872559 59.30009841918945 -18.53179359436035 -2.50712251663208 -18.867517471313477 -11.868517875671387 C 404.8160705566406 -13.422484397888184 410.7288818359375 -14.274645805358887 549.2868041992188 -242.68402099609375" fill="rgb(111, 118, 124)" opacity="0.98708355" stroke="rgb(146, 216, 58)" stroke-linecap="round" stroke-linejoin="round" stroke-opacity="0.22812356" stroke-width="0.0"/>
    <path d="M 779.8433227539062 632.805419921875 C 770.984619140625 623.813720703125 778.0451049804688 623.5301513671875 896.0477905273438 757.2130126953125 C 623.8811645507812 786.4544067382812 535.623046875 793.03564453125 182.94198608398438 766.9231567382812 C 198.0833740234375 217.93560791015625 268.6087951660156 640.3291625976562 581.2591552734375 473.7541198730469 C 783.1370239257812 425.1833801269531 784.3675537109375 446.36334228515625 779.8433227539062 632.805419921875" fill="rgb(133, 142, 147)" opacity="1.0" stroke="rgb(44, 34, 236)" stroke-linecap="round" stroke-linejoin="round" stroke-opacity="0.982076" stroke-width="0.0"/>
    <path d="M 204.19703674316406 500.9063415527344 C 198.47991943359375 792.2671508789062 196.9771728515625 792.3710327148438 180.62867736816406 779.8822631835938 C -9.66055679321289 782.0196533203125 -12.814376831054688 780.9057006835938 -12.296034812927246 774.765625 C -14.25485610961914 655.5130004882812 -14.94655990600586 648.7457275390625 -43.16990280151367 601.4395751953125 C -2.7049906253814697 584.9093017578125 38.35321807861328 557.6511840820312 204.19703674316406 500.9063415527344" fill="rgb(133, 142, 146)" opacity="1.0" stroke="rgb(119, 130, 108)" stroke-linecap="round" stroke-linejoin="round" stroke-opacity="0.7096804" stroke-width="0.0"/>
    <path d="M 467.8030700683594 428.02587890625 C 476.43792724609375 413.1634521484375 457.7995910644531 474.7190856933594 473.9100646972656 528.5057983398438 C 382.72552490234375 533.599853515625 448.3492736816406 534.0542602539062 420.28448486328125 442.5462341308594 C 183.5795135498047 558.7177124023438 162.2935791015625 239.87840270996094 430.43194580078125 297.5194091796875 C 419.2551574707031 423.02996826171875 510.4066467285156 376.1761779785156 467.8030700683594 428.02587890625" fill="rgb(83, 91, 100)" opacity="1.0" stroke="rgb(78, 54, 186)" stroke-linecap="round" stroke-linejoin="round" stroke-opacity="0.33300027" stroke-width="0.0"/>
  </g>
</svg>
