<?xml version="1.0" ?>
<svg height="768" version="1.1" width="768" xmlns="http://www.w3.org/2000/svg">
  <defs/>
  <g>
    <path d="M 549.2864379882812 -242.68487548828125 C 685.9737548828125 -188.80218505859375 785.035888671875 -182.6732635498047 830.9000244140625 447.9529724121094 C 729.816650390625 537.1185302734375 652.5379028320312 596.2099609375 0.4703277349472046 633.046630859375 C -14.669157981872559 59.30009841918945 -18.53179359436035 -2.50712251663208 -18.867517471313477 -11.868517875671387 C 404.8160705566406 -13.422484397888184 410.7288818359375 -14.274645805358887 549.2864379882812 -242.68487548828125" fill="rgb(113, 121, 128)" opacity="1.0" stroke="rgb(146, 216, 58)" stroke-linecap="round" stroke-linejoin="round" stroke-opacity="0.22812356" stroke-width="0.0"/>
    <path d="M 779.7846069335938 633.212890625 C 770.984619140625 623.813720703125 778.0451049804688 623.5301513671875 896.0477905273438 757.2130126953125 C 623.8811645507812 786.4544067382812 535.6265258789062 793.022705078125 183.17605590820312 766.8780517578125 C 199.32540893554688 222.7040557861328 275.5719909667969 637.2992553710938 605.3138427734375 494.1637268066406 C 782.3505249023438 429.49151611328125 784.058349609375 450.32403564453125 779.7846069335938 633.212890625" fill="rgb(133, 142, 147)" opacity="1.0" stroke="rgb(44, 34, 236)" stroke-linecap="round" stroke-linejoin="round" stroke-opacity="0.982076" stroke-width="0.0"/>
    <path d="M 199.56640625 512.7030029296875 C 197.80735778808594 791.8618774414062 196.8818359375 792.29443359375 180.5535430908203 779.8816528320312 C -9.66055679321289 782.0196533203125 -12.814376831054688 780.9057006835938 -12.296034812927246 774.765625 C -14.25485610961914 655.5130004882812 -14.94655990600586 648.7457275390625 -37.67595291137695 602.4278564453125 C 20.00664710998535 588.0741577148438 54.707244873046875 564.2337036132812 199.56640625 512.7030029296875" fill="rgb(133, 142, 146)" opacity="1.0" stroke="rgb(119, 130, 108)" stroke-linecap="round" stroke-linejoin="round" stroke-opacity="0.7096804" stroke-width="0.0"/>
  </g>
</svg>
