<?xml version="1.0" ?>
<svg height="768" version="1.1" width="768" xmlns="http://www.w3.org/2000/svg">
  <defs/>
  <g>
    <path d="M 770.193603515625 -25.618144989013672 C 780.9546508789062 112.82803344726562 785.1964111328125 160.96241760253906 854.4859619140625 432.081787109375 C 910.882568359375 572.3665161132812 888.5970458984375 673.797607421875 145.42095947265625 708.122314453125 C 82.6123046875 523.6746215820312 45.0611572265625 378.3707275390625 19.128713607788086 0.6205649971961975 C 618.9260864257812 -15.48603630065918 655.8056030273438 -15.90864086151123 770.193603515625 -25.618144989013672" fill="rgb(142, 139, 130)" opacity="0.97268564" stroke="rgb(181, 244, 162)" stroke-linecap="round" stroke-linejoin="round" stroke-opacity="0.45435742" stroke-width="0.0"/>
    <path d="M 93.86173248291016 162.33570861816406 C 85.91087341308594 206.11138916015625 389.39910888671875 510.9126281738281 -1.0093339681625366 489.9623107910156 C -116.1048355102539 160.9043426513672 -20.032058715820312 86.76559448242188 -12.824087142944336 45.95161056518555 C -10.833711624145508 -15.615108489990234 -2.7870566844940186 -12.53679370880127 19.865686416625977 -12.469135284423828 C 65.75568389892578 -16.538166046142578 65.9556655883789 -15.393726348876953 93.86173248291016 162.33570861816406" fill="rgb(136, 133, 125)" opacity="0.99901575" stroke="rgb(182, 43, 220)" stroke-linecap="round" stroke-linejoin="round" stroke-opacity="0.8066639" stroke-width="0.0"/>
    <path d="M 462.70697021484375 619.7385864257812 C 527.6339111328125 831.4391479492188 492.2309265136719 805.7285766601562 -9.703375816345215 767.1668090820312 C -16.37306022644043 592.388671875 -15.596244812011719 584.788330078125 -11.311840057373047 480.452392578125 C 15.0330810546875 475.5272216796875 20.257108688354492 475.6112976074219 77.29463195800781 475.2455139160156 C 102.46347045898438 473.1258544921875 104.00340270996094 468.24859619140625 462.70697021484375 619.7385864257812" fill="rgb(136, 133, 124)" opacity="1.0" stroke="rgb(240, 4, 1)" stroke-linecap="round" stroke-linejoin="round" stroke-opacity="0.7274807" stroke-width="0.0"/>
    <path d="M 358.89141845703125 263.999755859375 C 355.91748046875 278.7679748535156 346.3454895019531 285.05462646484375 340.6434020996094 285.4971618652344 C 334.3973083496094 282.7108459472656 333.1329345703125 285.0171813964844 326.9150085449219 267.4410400390625 C 325.36322021484375 262.1363220214844 330.33258056640625 248.0984344482422 334.6503601074219 245.39163208007812 C 352.807861328125 247.46914672851562 359.2491455078125 259.97015380859375 358.89141845703125 263.999755859375" fill="rgb(10, 5, 6)" opacity="0.96521413" stroke="rgb(138, 213, 253)" stroke-linecap="round" stroke-linejoin="round" stroke-opacity="0.98968536" stroke-width="0.0"/>
  </g>
</svg>
