<?xml version="1.0" ?>
<svg height="768" version="1.1" width="768" xmlns="http://www.w3.org/2000/svg">
  <defs/>
  <g>
    <path d="M 770.193603515625 -25.618144989013672 C 780.9546508789062 112.82803344726562 785.1964111328125 160.96241760253906 854.53564453125 432.14013671875 C 911.1868286132812 572.6090087890625 888.975830078125 674.0693359375 145.46714782714844 708.2431640625 C 82.6123046875 523.6746215820312 45.0611572265625 378.3707275390625 19.128713607788086 0.6204401254653931 C 618.9260864257812 -15.48603630065918 655.8056030273438 -15.90864086151123 770.193603515625 -25.618144989013672" fill="rgb(146, 143, 134)" opacity="0.962626" stroke="rgb(181, 244, 162)" stroke-linecap="round" stroke-linejoin="round" stroke-opacity="0.45435742" stroke-width="0.0"/>
    <path d="M 94.5061264038086 162.03524780273438 C 86.07245635986328 206.09402465820312 389.4418029785156 510.9126281738281 -0.9990153312683105 489.9623107910156 C -116.1048355102539 160.9043426513672 -20.032058715820312 86.76559448242188 -12.824087142944336 45.95161056518555 C -10.833711624145508 -15.615108489990234 -2.7870566844940186 -12.53679370880127 21.343475341796875 -12.66720199584961 C 70.0020980834961 -18.299509048461914 69.54501342773438 -17.705673217773438 94.5061264038086 162.03524780273438" fill="rgb(136, 133, 125)" opacity="0.9989656" stroke="rgb(182, 43, 220)" stroke-linecap="round" stroke-linejoin="round" stroke-opacity="0.8066639" stroke-width="0.0"/>
    <path d="M 464.7272644042969 618.5447387695312 C 529.564453125 831.6766967773438 494.0364074707031 805.81103515625 -8.888914108276367 767.229248046875 C -16.37306022644043 592.388671875 -15.596244812011719 584.788330078125 -11.311840057373047 480.39910888671875 C 15.030435562133789 475.511962890625 20.255083084106445 475.6488342285156 77.81137084960938 475.2366638183594 C 102.69373321533203 472.69757080078125 104.12116241455078 467.666259765625 464.7272644042969 618.5447387695312" fill="rgb(136, 133, 124)" opacity="0.99990517" stroke="rgb(240, 4, 1)" stroke-linecap="round" stroke-linejoin="round" stroke-opacity="0.7274807" stroke-width="0.0"/>
    <path d="M 358.7859802246094 263.9414978027344 C 356.2270812988281 279.3765563964844 345.6082763671875 285.3641052246094 340.8868103027344 285.400634765625 C 335.48162841796875 282.8628234863281 332.9704895019531 285.7741394042969 326.8860778808594 267.36517333984375 C 325.1671142578125 262.1947326660156 330.5304260253906 247.97988891601562 334.7530822753906 245.4305419921875 C 353.1067199707031 247.5272216796875 359.35101318359375 260.16632080078125 358.7859802246094 263.9414978027344" fill="rgb(10, 5, 6)" opacity="0.96521854" stroke="rgb(138, 213, 253)" stroke-linecap="round" stroke-linejoin="round" stroke-opacity="0.98968536" stroke-width="0.0"/>
    <path d="M 791.1348876953125 764.1396484375 C 558.8839111328125 798.0908813476562 550.3161010742188 781.6173706054688 470.87445068359375 778.7119140625 C 462.0513610839844 768.4256591796875 472.2971496582031 755.3565673828125 470.95989990234375 635.3594970703125 C 457.5517272949219 633.5928955078125 444.22052001953125 631.8378295898438 589.30517578125 625.4251708984375 C 699.0172119140625 531.1694946289062 757.150634765625 424.3124694824219 791.1348876953125 764.1396484375" fill="rgb(135, 133, 124)" opacity="1.0" stroke="rgb(230, 17, 143)" stroke-linecap="round" stroke-linejoin="round" stroke-opacity="0.81434673" stroke-width="0.0"/>
  </g>
</svg>
