<?xml version="1.0" ?>
<svg height="768" version="1.1" width="768" xmlns="http://www.w3.org/2000/svg">
  <defs/>
  <g>
    <path d="M 731.5277099609375 853.476806640625 C 612.2119750976562 783.1907958984375 597.4739379882812 786.5743408203125 -34.547969818115234 766.6928100585938 C 6.709512710571289 394.22686767578125 44.136959075927734 252.0895538330078 113.9320297241211 102.11003875732422 C 880.3829345703125 149.05966186523438 890.44091796875 241.4701690673828 842.1983642578125 369.5521545410156 C 791.308837890625 713.9173583984375 773.265625 778.7623901367188 731.5277099609375 853.476806640625" fill="rgb(152, 137, 120)" opacity="1.0" stroke="rgb(186, 99, 151)" stroke-linecap="round" stroke-linejoin="round" stroke-opacity="0.8459669" stroke-width="0.0"/>
    <path d="M 780.997314453125 183.8565216064453 C 788.5477905273438 211.3507537841797 788.609130859375 216.3143768310547 668.1964721679688 199.6074676513672 C 671.7325439453125 162.0108642578125 652.2832641601562 164.1605987548828 618.391845703125 -5.539572238922119 C 665.167236328125 -15.053257942199707 696.4833984375 -14.540163040161133 816.2282104492188 -4.690789699554443 C 780.4672241210938 55.8378791809082 781.3885498046875 59.891090393066406 780.997314453125 183.8565216064453" fill="rgb(133, 140, 138)" opacity="1.0" stroke="rgb(215, 12, 65)" stroke-linecap="round" stroke-linejoin="round" stroke-opacity="0.3312705" stroke-width="0.0"/>
    <path d="M 710.766845703125 192.49826049804688 C 707.7241821289062 201.58871459960938 696.7825317382812 196.51763916015625 282.05657958984375 190.62820434570312 C 201.49685668945312 182.70460510253906 188.9684600830078 127.52449798583984 238.63113403320312 -90.1307373046875 C 536.8340454101562 -22.09197235107422 570.0555419921875 -16.122549057006836 736.10595703125 13.731501579284668 C 703.3720092773438 64.33687591552734 703.0158081054688 70.95047760009766 710.766845703125 192.49826049804688" fill="rgb(134, 140, 138)" opacity="1.0" stroke="rgb(56, 154, 202)" stroke-linecap="round" stroke-linejoin="round" stroke-opacity="0.784891" stroke-width="0.0"/>
    <path d="M 104.54084014892578 148.28567504882812 C 107.33110046386719 150.1603546142578 135.87940979003906 138.9477081298828 302.3990173339844 281.18853759765625 C 169.4913330078125 355.7629089355469 257.87420654296875 454.03717041015625 1.1080697774887085 509.8303527832031 C -34.15950393676758 56.90571975708008 -41.44511795043945 52.294334411621094 71.80089569091797 51.996517181396484 C 85.44650268554688 57.095436096191406 96.71128845214844 55.60464859008789 104.54084014892578 148.28567504882812" fill="rgb(134, 141, 139)" opacity="1.0" stroke="rgb(181, 14, 178)" stroke-linecap="round" stroke-linejoin="round" stroke-opacity="0.5950336" stroke-width="0.0"/>
    <path d="M 329.7242126464844 395.7281799316406 C 317.54351806640625 412.76727294921875 317.06671142578125 404.1968994140625 289.89776611328125 414.2449645996094 C 238.93638610839844 432.97442626953125 246.6923370361328 399.35400390625 263.4549560546875 415.87042236328125 C 290.80755615234375 382.3365173339844 306.9509582519531 394.7845764160156 330.17816162109375 338.98260498046875 C 331.3110656738281 340.86993408203125 328.912841796875 357.4838562011719 329.7242126464844 395.7281799316406" fill="rgb(255, 249, 237)" opacity="1.0" stroke="rgb(67, 161, 14)" stroke-linecap="round" stroke-linejoin="round" stroke-opacity="0.92941856" stroke-width="0.0"/>
    <path d="M 100.63507843017578 79.21337127685547 C 101.64839172363281 90.38228607177734 96.92044830322266 88.2166976928711 -6.303906440734863 79.36372375488281 C -12.52544116973877 71.89083099365234 -13.002153396606445 67.0443115234375 -10.88454532623291 -3.572329521179199 C 9.054769515991211 -11.599822044372559 12.908974647521973 -12.005744934082031 90.57213592529297 -11.168295860290527 C 99.98759460449219 -19.816255569458008 104.9198226928711 -24.20195960998535 100.63507843017578 79.21337127685547" fill="rgb(134, 140, 139)" opacity="1.0" stroke="rgb(251, 1, 146)" stroke-linecap="round" stroke-linejoin="round" stroke-opacity="0.20096508" stroke-width="0.0"/>
    <path d="M 227.9870147705078 -9.598190307617188 C 228.5930633544922 125.83228302001953 226.00369262695312 124.43486785888672 244.30886840820312 143.9745330810547 C 83.061767578125 177.2499237060547 65.98886108398438 164.90716552734375 64.22415161132812 131.61172485351562 C 74.00588989257812 -2.8838703632354736 76.94646453857422 -7.672595977783203 87.46817779541016 -11.36949634552002 C 211.0814208984375 -15.673751831054688 217.6601104736328 -16.765596389770508 227.9870147705078 -9.598190307617188" fill="rgb(133, 140, 138)" opacity="1.0" stroke="rgb(157, 138, 48)" stroke-linecap="round" stroke-linejoin="round" stroke-opacity="0.43572703" stroke-width="0.0"/>
  </g>
</svg>
