<?xml version="1.0" ?>
<svg height="768" version="1.1" width="768" xmlns="http://www.w3.org/2000/svg">
  <defs/>
  <g>
    <path d="M 731.5277099609375 853.476806640625 C 612.2119750976562 783.1897583007812 597.47802734375 786.5706787109375 -34.55317306518555 766.8514404296875 C 6.704207420349121 394.2216796875 44.13496017456055 252.08770751953125 113.93177032470703 102.11003875732422 C 880.3829345703125 149.05966186523438 890.44091796875 241.4701690673828 842.1983642578125 369.5521545410156 C 791.308837890625 713.9173583984375 773.265625 778.7623901367188 731.5277099609375 853.476806640625" fill="rgb(123, 121, 118)" opacity="0.97754455" stroke="rgb(186, 99, 151)" stroke-linecap="round" stroke-linejoin="round" stroke-opacity="0.8459669" stroke-width="0.0"/>
    <path d="M 780.9959106445312 190.76272583007812 C 788.2894287109375 217.41342163085938 787.1378784179688 220.7205352783203 665.1748046875 201.64356994628906 C 671.7325439453125 162.0108642578125 652.2832641601562 164.1605987548828 618.391845703125 -5.539572238922119 C 665.167236328125 -15.053257942199707 696.4833984375 -14.540163040161133 816.2282104492188 -4.690789699554443 C 780.4672241210938 55.8378791809082 781.3885498046875 59.891090393066406 780.9959106445312 190.76272583007812" fill="rgb(132, 139, 136)" opacity="0.99377704" stroke="rgb(215, 12, 65)" stroke-linecap="round" stroke-linejoin="round" stroke-opacity="0.3312705" stroke-width="0.0"/>
    <path d="M 710.766845703125 193.13204956054688 C 707.7241821289062 202.11526489257812 696.777587890625 196.9310302734375 281.3729248046875 191.02708435058594 C 201.37603759765625 183.4357147216797 188.952392578125 127.77091979980469 238.62960815429688 -90.11906433105469 C 536.8340454101562 -22.091903686523438 570.0555419921875 -16.119182586669922 735.9945068359375 13.738837242126465 C 703.368896484375 64.33708953857422 703.0158081054688 70.94999694824219 710.766845703125 193.13204956054688" fill="rgb(134, 141, 139)" opacity="1.0" stroke="rgb(56, 154, 202)" stroke-linecap="round" stroke-linejoin="round" stroke-opacity="0.784891" stroke-width="0.0"/>
    <path d="M 104.60406494140625 144.22830200195312 C 109.3705062866211 141.33889770507812 143.15184020996094 126.0182876586914 324.3235778808594 281.01971435546875 C 188.1125946044922 357.37286376953125 283.187744140625 458.5834655761719 1.0398586988449097 530.4163208007812 C -42.740291595458984 57.03570556640625 -41.47966384887695 52.29427719116211 71.81029510498047 51.993560791015625 C 85.44357299804688 57.12447738647461 96.71077728271484 55.60520935058594 104.60406494140625 144.22830200195312" fill="rgb(134, 141, 139)" opacity="0.9972164" stroke="rgb(181, 14, 178)" stroke-linecap="round" stroke-linejoin="round" stroke-opacity="0.5950336" stroke-width="0.0"/>
    <path d="M 330.3646545410156 396.6782531738281 C 313.2201232910156 416.654296875 320.9297790527344 401.7342224121094 289.4813232421875 414.8656311035156 C 229.26966857910156 432.53155517578125 248.52130126953125 400.3941650390625 263.2825012207031 415.05133056640625 C 283.06707763671875 383.78570556640625 308.6040344238281 392.9593505859375 329.7574768066406 337.8436279296875 C 333.7204284667969 344.84393310546875 327.5137023925781 351.9762878417969 330.3646545410156 396.6782531738281" fill="rgb(254, 251, 243)" opacity="0.99996215" stroke="rgb(67, 161, 14)" stroke-linecap="round" stroke-linejoin="round" stroke-opacity="0.92941856" stroke-width="0.0"/>
    <path d="M 100.63481903076172 79.21331024169922 C 101.64839172363281 90.38228607177734 96.92044830322266 88.2166976928711 -6.303906440734863 79.36372375488281 C -12.52544116973877 71.89083099365234 -13.002153396606445 67.0443115234375 -10.88454532623291 -3.572329521179199 C 9.054769515991211 -11.599822044372559 12.908974647521973 -12.005744934082031 90.61632537841797 -11.160877227783203 C 99.97949981689453 -19.839183807373047 104.92044067382812 -24.20177459716797 100.63481903076172 79.21331024169922" fill="rgb(134, 140, 138)" opacity="0.99890697" stroke="rgb(251, 1, 146)" stroke-linecap="round" stroke-linejoin="round" stroke-opacity="0.20096508" stroke-width="0.0"/>
    <path d="M 228.01168823242188 -9.638044357299805 C 228.56439208984375 125.84072875976562 225.95217895507812 124.4312973022461 262.23040771484375 151.46543884277344 C 87.08940887451172 186.64645385742188 66.37222290039062 167.27371215820312 64.22935485839844 132.0455322265625 C 74.00588989257812 -2.8838703632354736 76.94646453857422 -7.672595977783203 87.46788787841797 -11.369909286499023 C 211.08152770996094 -15.672914505004883 217.64730834960938 -16.75246238708496 228.01168823242188 -9.638044357299805" fill="rgb(133, 140, 138)" opacity="1.0" stroke="rgb(157, 138, 48)" stroke-linecap="round" stroke-linejoin="round" stroke-opacity="0.43572703" stroke-width="0.0"/>
    <path d="M 428.2682800292969 366.2025146484375 C 419.07196044921875 457.173583984375 459.2947082519531 405.84490966796875 442.6427001953125 478.3082275390625 C 361.7171325683594 457.04986572265625 354.3302917480469 471.15350341796875 353.2032165527344 445.1697082519531 C 371.07940673828125 373.09918212890625 388.403076171875 378.8884582519531 432.6144104003906 376.8664855957031 C 444.9740905761719 376.343505859375 450.05731201171875 377.0110778808594 428.2682800292969 366.2025146484375" fill="rgb(250, 110, 5)" opacity="0.9560353" stroke="rgb(167, 154, 141)" stroke-linecap="round" stroke-linejoin="round" stroke-opacity="0.21166478" stroke-width="0.0"/>
    <path d="M 432.54852294921875 384.423095703125 C 431.3231201171875 400.15380859375 430.9825744628906 404.1875915527344 357.77734375 467.7942199707031 C 346.6573486328125 425.8863830566406 326.34075927734375 401.485595703125 350.3962097167969 338.2854919433594 C 365.859130859375 335.6654357910156 361.085693359375 334.6082763671875 387.4656982421875 333.2755126953125 C 430.9351806640625 349.21527099609375 430.212646484375 355.1563720703125 432.54852294921875 384.423095703125" fill="rgb(244, 129, 26)" opacity="0.673447" stroke="rgb(105, 180, 23)" stroke-linecap="round" stroke-linejoin="round" stroke-opacity="0.47024345" stroke-width="0.0"/>
    <path d="M 440.64825439453125 400.121826171875 C 505.8759765625 477.80841064453125 578.8662109375 512.2494506835938 357.20550537109375 503.7657165527344 C 348.0058288574219 435.10235595703125 393.27459716796875 458.9200134277344 381.31964111328125 499.1215515136719 C 376.29510498046875 483.8092041015625 382.0687561035156 422.6468811035156 380.56292724609375 418.0820007324219 C 405.5364685058594 407.637939453125 385.07220458984375 422.0875244140625 440.64825439453125 400.121826171875" fill="rgb(91, 85, 82)" opacity="0.61686283" stroke="rgb(225, 154, 132)" stroke-linecap="round" stroke-linejoin="round" stroke-opacity="0.22701062" stroke-width="0.0"/>
    <path d="M 391.8912048339844 330.6318359375 C 388.64483642578125 407.01385498046875 389.3165283203125 412.3559265136719 359.186767578125 428.1959228515625 C 291.5411376953125 397.3853759765625 319.1320495605469 417.0760192871094 329.3994140625 395.77032470703125 C 331.23358154296875 304.75848388671875 328.6653137207031 343.1878967285156 336.5513610839844 341.1559143066406 C 366.63720703125 329.86529541015625 390.4134521484375 338.8240966796875 391.8912048339844 330.6318359375" fill="rgb(255, 127, 24)" opacity="0.84058124" stroke="rgb(236, 159, 132)" stroke-linecap="round" stroke-linejoin="round" stroke-opacity="0.9205877" stroke-width="0.0"/>
    <path d="M 518.0507202148438 445.8846435546875 C 509.9827575683594 474.8464660644531 505.7845764160156 477.12548828125 505.3426818847656 482.92718505859375 C 464.97125244140625 465.9493713378906 465.75152587890625 451.697998046875 457.9029846191406 436.8074951171875 C 453.9704895019531 418.89617919921875 449.7604064941406 434.5959777832031 481.9374694824219 416.2601623535156 C 495.9408874511719 430.99322509765625 512.0856323242188 428.41845703125 518.0507202148438 445.8846435546875" fill="rgb(240, 122, 23)" opacity="1.0" stroke="rgb(1, 8, 70)" stroke-linecap="round" stroke-linejoin="round" stroke-opacity="0.22047542" stroke-width="0.0"/>
    <path d="M 416.7060852050781 495.9075927734375 C 490.3710632324219 499.17742919921875 544.9173583984375 492.2693786621094 528.8548583984375 503.41033935546875 C 293.7657470703125 504.2160339355469 272.7374267578125 502.9123229980469 404.3910827636719 492.8807067871094 C 413.0482177734375 484.5940246582031 404.8246765136719 466.2254943847656 411.4888610839844 469.5157470703125 C 421.46002197265625 476.1020812988281 423.19439697265625 464.0482482910156 416.7060852050781 495.9075927734375" fill="rgb(0, 0, 0)" opacity="0.9471338" stroke="rgb(69, 177, 133)" stroke-linecap="round" stroke-linejoin="round" stroke-opacity="0.599034" stroke-width="0.0"/>
    <path d="M 583.8612060546875 474.0393371582031 C 560.2623291015625 481.5034484863281 537.6008911132812 494.54486083984375 515.0059204101562 485.73974609375 C 496.8111877441406 481.3719177246094 479.7547912597656 465.8713684082031 476.75885009765625 418.0323181152344 C 482.0555725097656 427.7930603027344 491.43603515625 421.2383117675781 510.6535339355469 433.2060852050781 C 540.6410522460938 447.8883972167969 573.290283203125 466.1317138671875 583.8612060546875 474.0393371582031" fill="rgb(252, 125, 13)" opacity="0.95413285" stroke="rgb(145, 14, 132)" stroke-linecap="round" stroke-linejoin="round" stroke-opacity="0.33592916" stroke-width="0.0"/>
    <path d="M 462.16021728515625 364.1651306152344 C 465.720458984375 385.70330810546875 456.9972229003906 409.64215087890625 424.47479248046875 421.10235595703125 C 395.360595703125 411.14434814453125 406.283203125 397.2951354980469 395.772705078125 362.55340576171875 C 385.3724365234375 336.7022399902344 389.0579528808594 329.8697204589844 389.03955078125 333.5724182128906 C 440.036865234375 331.7279052734375 455.3214416503906 353.7178649902344 462.16021728515625 364.1651306152344" fill="rgb(212, 99, 33)" opacity="0.8357305" stroke="rgb(93, 64, 49)" stroke-linecap="round" stroke-linejoin="round" stroke-opacity="0.045321107" stroke-width="0.0"/>
    <path d="M 316.6021728515625 353.775634765625 C 312.0544738769531 382.67010498046875 301.21923828125 390.07421875 268.2109680175781 393.2861633300781 C 267.8268127441406 403.9000244140625 266.1253356933594 395.46002197265625 269.89892578125 353.3042907714844 C 270.2180480957031 362.9557800292969 261.6809387207031 317.48504638671875 272.16046142578125 333.0320129394531 C 296.4908142089844 367.58294677734375 293.7433166503906 373.82952880859375 316.6021728515625 353.775634765625" fill="rgb(253, 243, 201)" opacity="1.0" stroke="rgb(158, 235, 61)" stroke-linecap="round" stroke-linejoin="round" stroke-opacity="0.14556226" stroke-width="0.0"/>
    <path d="M 429.6806335449219 434.14459228515625 C 423.30621337890625 463.4841003417969 424.42987060546875 475.86541748046875 424.5616455078125 467.7565002441406 C 408.8412780761719 481.8159484863281 405.4013977050781 453.0492858886719 404.7978820800781 451.6751403808594 C 392.00335693359375 418.9013366699219 393.67547607421875 415.62982177734375 386.6116027832031 406.3520812988281 C 420.92926025390625 415.52166748046875 438.744873046875 415.6231994628906 429.6806335449219 434.14459228515625" fill="rgb(251, 132, 9)" opacity="0.98750985" stroke="rgb(186, 213, 222)" stroke-linecap="round" stroke-linejoin="round" stroke-opacity="0.78087103" stroke-width="0.0"/>
    <path d="M 381.2052307128906 415.3570861816406 C 380.5273132324219 429.4628601074219 381.3829345703125 448.33624267578125 378.58209228515625 453.06707763671875 C 352.34814453125 438.74835205078125 364.047607421875 484.7840576171875 343.63372802734375 418.6343688964844 C 282.1964111328125 405.7785339355469 370.9922180175781 383.2477722167969 379.8294372558594 401.2249450683594 C 378.95355224609375 433.0311279296875 381.6637878417969 452.896728515625 381.2052307128906 415.3570861816406" fill="rgb(250, 124, 6)" opacity="0.99711096" stroke="rgb(110, 84, 250)" stroke-linecap="round" stroke-linejoin="round" stroke-opacity="0.19039516" stroke-width="0.0"/>
    <path d="M 264.4327087402344 411.5826721191406 C 267.29986572265625 413.7105407714844 267.8714904785156 417.7879333496094 262.82232666015625 413.6527099609375 C 261.0047302246094 414.64471435546875 257.06634521484375 410.1685791015625 252.56338500976562 408.9829406738281 C 264.1053466796875 409.2351989746094 255.8191375732422 399.9709167480469 280.8288269042969 387.22967529296875 C 280.2942199707031 397.07427978515625 279.4418640136719 398.94049072265625 264.4327087402344 411.5826721191406" fill="rgb(13, 0, 0)" opacity="0.875444" stroke="rgb(134, 245, 181)" stroke-linecap="round" stroke-linejoin="round" stroke-opacity="0.7360547" stroke-width="0.0"/>
    <path d="M 378.4075927734375 453.7537841796875 C 379.92547607421875 475.4490661621094 381.2701110839844 464.8238220214844 374.76934814453125 466.8973083496094 C 375.9145812988281 460.6187744140625 367.7512512207031 466.0769348144531 369.82147216796875 452.04351806640625 C 376.4417419433594 464.69793701171875 371.8767395019531 445.07379150390625 375.0101623535156 458.70416259765625 C 377.30474853515625 448.80120849609375 375.0634765625 464.2469787597656 378.4075927734375 453.7537841796875" fill="rgb(251, 154, 46)" opacity="0.6482066" stroke="rgb(142, 213, 34)" stroke-linecap="round" stroke-linejoin="round" stroke-opacity="0.6861953" stroke-width="0.0"/>
    <path d="M 377.54058837890625 467.1471252441406 C 382.0331115722656 509.6023254394531 394.81988525390625 502.91900634765625 358.0516357421875 503.3795166015625 C 355.4972229003906 470.94744873046875 357.35284423828125 468.088623046875 353.21051025390625 454.0259094238281 C 355.86627197265625 471.1332092285156 354.3129577636719 459.26708984375 353.9710388183594 454.9342041015625 C 358.2788391113281 463.7049560546875 369.0350646972656 459.0939636230469 377.54058837890625 467.1471252441406" fill="rgb(0, 0, 1)" opacity="0.9826941" stroke="rgb(38, 36, 231)" stroke-linecap="round" stroke-linejoin="round" stroke-opacity="0.41107637" stroke-width="0.0"/>
    <path d="M 366.71295166015625 489.7767639160156 C 363.85211181640625 496.3594055175781 358.7828674316406 497.8381652832031 359.36602783203125 496.529052734375 C 360.3851013183594 499.9519348144531 355.0975646972656 494.4457702636719 358.6216735839844 500.4889221191406 C 365.8195495605469 497.20648193359375 366.341552734375 497.2298278808594 367.3009948730469 493.32440185546875 C 367.36822509765625 479.0248107910156 366.4556884765625 474.1209411621094 366.71295166015625 489.7767639160156" fill="rgb(207, 154, 86)" opacity="0.9336481" stroke="rgb(241, 193, 12)" stroke-linecap="round" stroke-linejoin="round" stroke-opacity="0.13479766" stroke-width="0.0"/>
    <path d="M 366.8228759765625 459.8257751464844 C 365.47265625 461.11322021484375 358.07110595703125 457.7657165527344 359.33453369140625 457.7264099121094 C 367.60205078125 455.480712890625 363.7392578125 456.8957214355469 359.3151550292969 457.5609130859375 C 353.2652587890625 459.5716857910156 353.4577941894531 439.7400207519531 363.5254211425781 442.6744689941406 C 365.7374572753906 453.7611083984375 367.1730041503906 456.6349182128906 366.8228759765625 459.8257751464844" fill="rgb(255, 171, 14)" opacity="0.5753333" stroke="rgb(55, 11, 233)" stroke-linecap="round" stroke-linejoin="round" stroke-opacity="0.7047128" stroke-width="0.0"/>
    <path d="M 364.7782897949219 444.7628479003906 C 368.82550048828125 461.5433044433594 389.9814147949219 482.539306640625 365.2536315917969 473.03076171875 C 368.0001220703125 458.0937805175781 365.301513671875 436.365966796875 366.3236083984375 450.45367431640625 C 374.1090393066406 468.2080078125 374.6386413574219 467.1036071777344 369.84197998046875 457.4889221191406 C 372.3550720214844 460.2514343261719 369.4136657714844 457.94573974609375 364.7782897949219 444.7628479003906" fill="rgb(1, 0, 0)" opacity="0.8767699" stroke="rgb(74, 0, 75)" stroke-linecap="round" stroke-linejoin="round" stroke-opacity="0.77200115" stroke-width="0.0"/>
    <path d="M 289.8880920410156 390.5474853515625 C 269.98150634765625 408.1474304199219 262.06964111328125 415.6621398925781 264.8830871582031 409.4464111328125 C 255.01025390625 408.6826171875 262.15185546875 404.497802734375 265.12017822265625 400.3177795410156 C 259.2841491699219 406.1378479003906 263.8224182128906 400.2472839355469 266.5196838378906 394.8730163574219 C 274.18585205078125 369.7138977050781 282.8700256347656 372.9049987792969 289.8880920410156 390.5474853515625" fill="rgb(255, 99, 25)" opacity="0.68865746" stroke="rgb(237, 231, 140)" stroke-linecap="round" stroke-linejoin="round" stroke-opacity="0.65921414" stroke-width="0.0"/>
    <path d="M 408.2544250488281 497.63922119140625 C 391.4356384277344 497.35321044921875 361.909912109375 498.04156494140625 389.6824645996094 498.6684265136719 C 373.94671630859375 498.963623046875 378.8365783691406 499.19476318359375 383.3653564453125 492.78594970703125 C 374.34600830078125 504.91473388671875 379.6906433105469 493.0286560058594 382.6905822753906 419.9938049316406 C 391.6729736328125 400.28411865234375 412.488037109375 465.8423156738281 408.2544250488281 497.63922119140625" fill="rgb(92, 89, 87)" opacity="1.0" stroke="rgb(63, 60, 109)" stroke-linecap="round" stroke-linejoin="round" stroke-opacity="0.03931712" stroke-width="0.0"/>
    <path d="M 307.502685546875 376.70025634765625 C 298.0826110839844 377.7939147949219 312.1172790527344 368.8463439941406 307.6298522949219 378.66156005859375 C 296.48284912109375 387.0882873535156 279.2386474609375 396.16021728515625 277.9983825683594 389.0966491699219 C 278.27874755859375 357.6571960449219 289.6337585449219 364.71600341796875 291.3731689453125 354.9102783203125 C 326.1818542480469 350.947998046875 310.55108642578125 384.2960205078125 307.502685546875 376.70025634765625" fill="rgb(255, 124, 17)" opacity="0.93014497" stroke="rgb(180, 75, 209)" stroke-linecap="round" stroke-linejoin="round" stroke-opacity="0.43087858" stroke-width="0.0"/>
    <path d="M 292.48370361328125 386.7426452636719 C 298.00677490234375 385.36187744140625 291.53155517578125 390.7486877441406 287.7884521484375 394.160400390625 C 266.4248962402344 409.6417236328125 251.34205627441406 417.5625 268.8274841308594 393.2254943847656 C 261.8409729003906 346.8097229003906 274.0162353515625 366.47357177734375 278.19329833984375 360.15069580078125 C 304.2227783203125 373.5712890625 310.2255554199219 378.9974670410156 292.48370361328125 386.7426452636719" fill="rgb(253, 129, 17)" opacity="0.96799374" stroke="rgb(1, 56, 121)" stroke-linecap="round" stroke-linejoin="round" stroke-opacity="0.42367226" stroke-width="0.0"/>
    <path d="M 440.2358703613281 477.1416320800781 C 442.5716552734375 480.8810729980469 442.6650695800781 467.35406494140625 442.2679443359375 502.056884765625 C 421.9668273925781 500.85498046875 421.9268493652344 513.9580688476562 426.7803039550781 452.9185791015625 C 438.17138671875 473.646240234375 436.76422119140625 474.5288391113281 438.8838195800781 477.31951904296875 C 438.3926086425781 476.54046630859375 449.0162658691406 482.1489562988281 440.2358703613281 477.1416320800781" fill="rgb(0, 0, 0)" opacity="0.98193556" stroke="rgb(189, 231, 16)" stroke-linecap="round" stroke-linejoin="round" stroke-opacity="0.9765613" stroke-width="0.0"/>
    <path d="M 351.6679382324219 496.8237609863281 C 356.8087158203125 501.5570068359375 323.1886901855469 496.3266296386719 342.0408935546875 497.07635498046875 C 324.37567138671875 497.88739013671875 327.93310546875 496.80816650390625 327.350830078125 503.7981262207031 C 322.79840087890625 502.0590515136719 361.669921875 505.66864013671875 399.40936279296875 500.2558288574219 C 320.0163269042969 496.50616455078125 324.3349609375 498.7661437988281 351.6679382324219 496.8237609863281" fill="rgb(0, 0, 1)" opacity="0.7191228" stroke="rgb(92, 146, 213)" stroke-linecap="round" stroke-linejoin="round" stroke-opacity="0.69483376" stroke-width="0.0"/>
    <path d="M 310.85400390625 371.98065185546875 C 309.9804992675781 378.5106506347656 303.12371826171875 377.4710693359375 309.5631103515625 378.4924621582031 C 305.7528991699219 374.40423583984375 278.87872314453125 381.4703063964844 267.6537170410156 329.5445251464844 C 307.9874572753906 352.11041259765625 281.79278564453125 396.877685546875 315.4015808105469 349.7945861816406 C 341.507568359375 321.965576171875 323.2269592285156 358.85333251953125 310.85400390625 371.98065185546875" fill="rgb(253, 104, 5)" opacity="0.90914285" stroke="rgb(116, 235, 94)" stroke-linecap="round" stroke-linejoin="round" stroke-opacity="0.990951" stroke-width="0.0"/>
    <path d="M 508.11688232421875 251.67784118652344 C 527.4833374023438 280.14373779296875 532.447509765625 291.5332946777344 481.2886962890625 287.7731628417969 C 422.90692138671875 287.5648193359375 417.5824890136719 278.17803955078125 381.27423095703125 193.04403686523438 C 394.9903564453125 166.59519958496094 417.7784729003906 177.25051879882812 447.4168395996094 180.91455078125 C 496.2358093261719 194.51589965820312 494.49359130859375 205.36077880859375 508.11688232421875 251.67784118652344" fill="rgb(134, 140, 138)" opacity="1.0" stroke="rgb(161, 155, 181)" stroke-linecap="round" stroke-linejoin="round" stroke-opacity="0.91961896" stroke-width="0.0"/>
    <path d="M 386.8090515136719 109.62590789794922 C 375.2209167480469 104.62037658691406 376.59112548828125 106.51266479492188 387.01043701171875 119.7526626586914 C 373.97503662109375 108.79586791992188 376.9876403808594 107.4350814819336 362.89825439453125 105.81240844726562 C 374.7754211425781 108.95777893066406 377.3458557128906 104.53624725341797 373.46380615234375 98.31379699707031 C 378.168212890625 103.51998901367188 379.9140625 104.87632751464844 386.8090515136719 109.62590789794922" fill="rgb(133, 139, 137)" opacity="0.90719694" stroke="rgb(223, 54, 42)" stroke-linecap="round" stroke-linejoin="round" stroke-opacity="0.97345334" stroke-width="0.0"/>
    <path d="M 775.9452514648438 288.69427490234375 C 778.9547729492188 358.7696228027344 781.5418701171875 379.35626220703125 761.6149291992188 377.8818054199219 C 635.1141357421875 320.4754638671875 627.973876953125 316.1471252441406 607.897216796875 248.5923614501953 C 584.9929809570312 196.81748962402344 584.3506469726562 190.4632568359375 626.5706787109375 177.2933349609375 C 760.1401977539062 176.57101440429688 781.3630981445312 194.50559997558594 775.9452514648438 288.69427490234375" fill="rgb(134, 140, 138)" opacity="0.9906239" stroke="rgb(245, 131, 4)" stroke-linecap="round" stroke-linejoin="round" stroke-opacity="0.5054409" stroke-width="0.0"/>
    <path d="M 210.5962677001953 767.7471313476562 C 151.697509765625 790.189697265625 121.85203552246094 758.4737548828125 91.48280334472656 773.7371826171875 C 63.95793151855469 767.8284301757812 23.88649559020996 772.6458740234375 -17.54000473022461 766.3510131835938 C -20.964820861816406 619.2918701171875 -32.69693374633789 581.5271606445312 21.493982315063477 584.9619140625 C 143.7615203857422 677.8584594726562 152.91551208496094 682.6913452148438 210.5962677001953 767.7471313476562" fill="rgb(130, 136, 133)" opacity="0.9999898" stroke="rgb(228, 225, 64)" stroke-linecap="round" stroke-linejoin="round" stroke-opacity="0.46373597" stroke-width="0.0"/>
    <path d="M 742.3115844726562 378.89434814453125 C 669.3748779296875 400.3008728027344 671.94970703125 447.5546875 582.7518920898438 474.01904296875 C 523.7549438476562 435.5182189941406 521.9005737304688 458.2767333984375 538.9334716796875 390.10821533203125 C 541.1201782226562 303.023681640625 583.6578369140625 315.8117980957031 648.370849609375 294.26904296875 C 649.98583984375 322.7103576660156 679.7802734375 310.57708740234375 742.3115844726562 378.89434814453125" fill="rgb(141, 158, 158)" opacity="0.5206809" stroke="rgb(94, 113, 88)" stroke-linecap="round" stroke-linejoin="round" stroke-opacity="0.22765088" stroke-width="0.0"/>
    <path d="M 380.4120788574219 466.59967041015625 C 378.3130187988281 457.165283203125 380.8711853027344 509.2730712890625 377.76751708984375 496.5644226074219 C 378.0433654785156 469.8458251953125 376.6720886230469 463.62872314453125 378.2323303222656 466.526123046875 C 386.83880615234375 466.74462890625 390.0726318359375 466.9867858886719 381.8046569824219 467.425048828125 C 387.2111511230469 467.24114990234375 388.6345520019531 466.81207275390625 380.4120788574219 466.59967041015625" fill="rgb(50, 40, 39)" opacity="0.83392525" stroke="rgb(44, 207, 3)" stroke-linecap="round" stroke-linejoin="round" stroke-opacity="0.068362795" stroke-width="0.0"/>
    <path d="M 299.27532958984375 615.270263671875 C 256.15924072265625 706.5795288085938 251.88031005859375 715.1831665039062 227.13067626953125 772.5460205078125 C 128.7576904296875 739.6015625 128.10276794433594 718.5952758789062 34.55561065673828 697.3985595703125 C -24.211889266967773 551.2553100585938 -21.536808013916016 508.766845703125 30.818445205688477 494.3034362792969 C 288.8226623535156 540.8220825195312 312.828369140625 550.713623046875 299.27532958984375 615.270263671875" fill="rgb(134, 140, 138)" opacity="0.99856067" stroke="rgb(246, 171, 28)" stroke-linecap="round" stroke-linejoin="round" stroke-opacity="0.95242816" stroke-width="0.0"/>
    <path d="M 396.9067687988281 433.9826965332031 C 396.3463134765625 433.0145568847656 396.1990966796875 431.0753479003906 397.51690673828125 434.7476501464844 C 384.2681884765625 404.26611328125 393.4378662109375 390.17059326171875 396.75274658203125 433.21710205078125 C 415.3849792480469 486.26226806640625 410.62811279296875 460.8348693847656 397.7164306640625 428.8365173339844 C 394.9513244628906 419.9876708984375 395.9193420410156 421.734375 396.9067687988281 433.9826965332031" fill="rgb(254, 137, 46)" opacity="0.6215262" stroke="rgb(226, 92, 103)" stroke-linecap="round" stroke-linejoin="round" stroke-opacity="0.593339" stroke-width="0.0"/>
    <path d="M 716.1517944335938 87.86569213867188 C 688.8894653320312 74.4581298828125 688.4747314453125 83.32478332519531 686.7139892578125 92.024658203125 C 686.144775390625 80.13236236572266 683.26416015625 83.66460418701172 664.7244262695312 82.513671875 C 670.1015625 69.34215545654297 650.9364013671875 58.673980712890625 686.1903686523438 -25.545644760131836 C 739.135009765625 29.76592445373535 716.3084106445312 59.16100311279297 716.1517944335938 87.86569213867188" fill="rgb(129, 132, 128)" opacity="0.14627907" stroke="rgb(209, 193, 139)" stroke-linecap="round" stroke-linejoin="round" stroke-opacity="0.65949374" stroke-width="0.0"/>
    <path d="M 727.148193359375 648.0968627929688 C 671.2932739257812 708.5178833007812 661.2779541015625 708.3532104492188 617.9070434570312 717.6123657226562 C 571.9991455078125 716.597412109375 569.815673828125 707.3644409179688 524.4078979492188 557.3178100585938 C 518.0546264648438 524.0240478515625 538.070068359375 531.3887329101562 660.0027465820312 564.3221435546875 C 693.8639526367188 589.9529418945312 713.4843139648438 591.6287841796875 727.148193359375 648.0968627929688" fill="rgb(128, 129, 126)" opacity="0.7450464" stroke="rgb(86, 217, 124)" stroke-linecap="round" stroke-linejoin="round" stroke-opacity="0.9775749" stroke-width="0.0"/>
    <path d="M 609.2058715820312 180.0154571533203 C 607.1578369140625 184.34046936035156 605.4035034179688 184.21556091308594 598.3845825195312 189.61111450195312 C 595.6885375976562 188.38668823242188 594.9385986328125 182.9088134765625 599.7928466796875 175.8461456298828 C 589.76220703125 181.05755615234375 592.15966796875 179.9743194580078 604.0008544921875 176.45315551757812 C 609.0673828125 183.49667358398438 601.6701049804688 174.08937072753906 609.2058715820312 180.0154571533203" fill="rgb(134, 140, 137)" opacity="0.8873164" stroke="rgb(245, 14, 88)" stroke-linecap="round" stroke-linejoin="round" stroke-opacity="0.843367" stroke-width="0.0"/>
    <path d="M 601.8184814453125 698.3037109375 C 605.7342529296875 745.8372192382812 606.4227294921875 759.7203979492188 574.4945068359375 770.637939453125 C 474.49554443359375 770.7274169921875 449.52081298828125 772.1646118164062 474.37225341796875 764.7852172851562 C 485.22088623046875 634.651123046875 482.55865478515625 626.0703125 516.6693725585938 565.1072998046875 C 607.55126953125 597.8001708984375 593.377197265625 634.9879150390625 601.8184814453125 698.3037109375" fill="rgb(136, 145, 143)" opacity="0.7802758" stroke="rgb(59, 94, 190)" stroke-linecap="round" stroke-linejoin="round" stroke-opacity="0.3782327" stroke-width="0.0"/>
    <path d="M 318.2256774902344 409.3746337890625 C 337.83038330078125 598.2268676757812 340.4435119628906 608.9549560546875 276.3500061035156 578.2512817382812 C 141.84783935546875 559.1466674804688 121.56597137451172 563.5996704101562 81.10305786132812 508.75531005859375 C 173.65480041503906 428.5929870605469 185.7183837890625 276.98687744140625 266.9367980957031 364.9111328125 C 227.79830932617188 450.24365234375 268.73077392578125 413.39990234375 318.2256774902344 409.3746337890625" fill="rgb(135, 142, 139)" opacity="0.94250387" stroke="rgb(18, 59, 164)" stroke-linecap="round" stroke-linejoin="round" stroke-opacity="0.41907847" stroke-width="0.0"/>
    <path d="M 638.4246215820312 298.5830993652344 C 616.4376831054688 338.3420104980469 612.1574096679688 341.5613098144531 554.0709838867188 386.5132751464844 C 544.0833129882812 379.9717712402344 525.6071166992188 361.3559265136719 506.9338073730469 265.33001708984375 C 533.9337158203125 250.15585327148438 531.0762329101562 227.6016845703125 599.3619384765625 212.31639099121094 C 642.5917358398438 260.45867919921875 642.51025390625 270.1462097167969 638.4246215820312 298.5830993652344" fill="rgb(132, 139, 137)" opacity="0.49990177" stroke="rgb(163, 70, 35)" stroke-linecap="round" stroke-linejoin="round" stroke-opacity="0.5162285" stroke-width="0.0"/>
    <path d="M 35.823081970214844 457.4349670410156 C 33.8719596862793 459.66497802734375 31.099063873291016 461.50677490234375 29.750774383544922 463.33026123046875 C 27.818660736083984 460.27069091796875 26.282869338989258 458.4106750488281 30.39017105102539 461.47991943359375 C 25.032567977905273 451.0467224121094 18.21129608154297 454.3812561035156 26.405519485473633 457.3896789550781 C 33.21502685546875 447.43389892578125 29.59361457824707 457.5858459472656 35.823081970214844 457.4349670410156" fill="rgb(136, 142, 140)" opacity="0.88948536" stroke="rgb(130, 202, 35)" stroke-linecap="round" stroke-linejoin="round" stroke-opacity="0.58166426" stroke-width="0.0"/>
    <path d="M 198.89988708496094 75.43775177001953 C 186.20587158203125 71.7702407836914 191.41641235351562 74.84393310546875 188.24444580078125 81.37077331542969 C 188.41041564941406 70.63797760009766 189.12893676757812 80.42990112304688 180.92935180664062 70.79560852050781 C 181.85916137695312 69.95219421386719 182.92938232421875 70.48722839355469 187.98123168945312 75.7013168334961 C 194.00596618652344 66.70881652832031 189.6624755859375 76.62853240966797 198.89988708496094 75.43775177001953" fill="rgb(137, 143, 140)" opacity="0.91043615" stroke="rgb(110, 187, 56)" stroke-linecap="round" stroke-linejoin="round" stroke-opacity="0.10865478" stroke-width="0.0"/>
    <path d="M 737.0012817382812 9.321255683898926 C 736.40625 13.962254524230957 735.4296264648438 5.650870323181152 733.8555908203125 19.75251007080078 C 731.153564453125 6.37254524230957 730.7490844726562 16.94526481628418 725.9633178710938 6.6417622566223145 C 728.9457397460938 3.8705170154571533 722.7787475585938 -0.2731391489505768 731.65234375 1.444847822189331 C 736.2440795898438 -0.8276515603065491 739.4104614257812 4.195127010345459 737.0012817382812 9.321255683898926" fill="rgb(132, 137, 134)" opacity="0.8766769" stroke="rgb(34, 135, 215)" stroke-linecap="round" stroke-linejoin="round" stroke-opacity="0.6037126" stroke-width="0.0"/>
    <path d="M 787.5870971679688 712.3955688476562 C 771.9312744140625 821.9488525390625 726.1362915039062 750.0202026367188 661.6135864257812 774.7393188476562 C 618.8870849609375 771.4732055664062 610.4533081054688 770.6318969726562 580.8171997070312 767.886962890625 C 594.1175537109375 690.6151123046875 605.4877319335938 690.4845581054688 660.5425415039062 674.1611938476562 C 733.872314453125 635.2650756835938 765.1163330078125 612.7960815429688 787.5870971679688 712.3955688476562" fill="rgb(136, 144, 142)" opacity="0.75151134" stroke="rgb(106, 208, 182)" stroke-linecap="round" stroke-linejoin="round" stroke-opacity="0.85499585" stroke-width="0.0"/>
    <path d="M 537.3052368164062 398.3414306640625 C 527.6213989257812 462.92144775390625 556.8593139648438 451.0828857421875 484.20098876953125 422.33050537109375 C 475.80224609375 375.26385498046875 458.64813232421875 359.4435119628906 461.36431884765625 367.14715576171875 C 461.5367431640625 355.11920166015625 428.10382080078125 341.624755859375 399.0461120605469 291.1330871582031 C 533.4021606445312 280.5687561035156 551.2777709960938 287.0244445800781 537.3052368164062 398.3414306640625" fill="rgb(145, 161, 160)" opacity="0.46240968" stroke="rgb(207, 41, 173)" stroke-linecap="round" stroke-linejoin="round" stroke-opacity="0.37672117" stroke-width="0.0"/>
    <path d="M 721.0517578125 540.8428955078125 C 700.2777709960938 565.095703125 707.3604125976562 582.7271118164062 597.7199096679688 596.002685546875 C 536.1788330078125 578.842529296875 491.6470642089844 524.8890991210938 570.2241821289062 500.2203063964844 C 578.28955078125 427.8094177246094 581.9450073242188 421.2707214355469 779.41650390625 369.22686767578125 C 783.0973510742188 429.9248962402344 763.262939453125 457.8948059082031 721.0517578125 540.8428955078125" fill="rgb(144, 165, 165)" opacity="0.3574568" stroke="rgb(118, 195, 241)" stroke-linecap="round" stroke-linejoin="round" stroke-opacity="0.34138134" stroke-width="0.0"/>
    <path d="M 463.8041076660156 307.9757995605469 C 443.70208740234375 373.75762939453125 459.9018249511719 338.4164733886719 404.6470642089844 334.9860534667969 C 269.5561218261719 325.996826171875 337.8861389160156 391.16961669921875 268.6422424316406 331.3226013183594 C 179.40594482421875 165.9715576171875 146.5016326904297 145.8067169189453 195.5994110107422 165.18199157714844 C 468.8562927246094 209.19345092773438 452.68463134765625 231.2321319580078 463.8041076660156 307.9757995605469" fill="rgb(159, 159, 137)" opacity="0.44725242" stroke="rgb(176, 5, 136)" stroke-linecap="round" stroke-linejoin="round" stroke-opacity="0.7367725" stroke-width="0.0"/>
    <path d="M 600.2979125976562 148.27471923828125 C 585.28271484375 277.8401794433594 562.2444458007812 274.6148986816406 529.0147094726562 277.9148864746094 C 472.05938720703125 253.9847869873047 477.54205322265625 237.06893920898438 476.3470458984375 207.4705810546875 C 472.168212890625 183.87490844726562 466.7833557128906 174.83169555664062 497.47589111328125 175.9384002685547 C 540.3863525390625 222.666259765625 550.8995971679688 173.44717407226562 600.2979125976562 148.27471923828125" fill="rgb(133, 139, 137)" opacity="1.0" stroke="rgb(53, 19, 243)" stroke-linecap="round" stroke-linejoin="round" stroke-opacity="0.2601909" stroke-width="0.0"/>
    <path d="M 532.1072998046875 174.59158325195312 C 537.5614013671875 177.10006713867188 534.5924072265625 181.66636657714844 528.6757202148438 178.7902069091797 C 530.99658203125 181.20379638671875 520.4788208007812 174.55050659179688 511.8858642578125 151.85450744628906 C 531.1190795898438 180.31565856933594 527.7643432617188 184.571044921875 529.820556640625 165.8143310546875 C 536.1474609375 172.29286193847656 531.2274780273438 168.88134765625 532.1072998046875 174.59158325195312" fill="rgb(136, 142, 140)" opacity="0.8919169" stroke="rgb(227, 207, 184)" stroke-linecap="round" stroke-linejoin="round" stroke-opacity="0.49323773" stroke-width="0.0"/>
    <path d="M 362.73431396484375 99.7021713256836 C 341.8830871582031 96.44139099121094 341.8310546875 95.56134796142578 342.3763732910156 107.48710632324219 C 337.8881530761719 95.37574005126953 339.0575866699219 99.35449981689453 331.3873291015625 85.78862762451172 C 339.3211364746094 96.3427505493164 337.8454895019531 93.39606475830078 338.44024658203125 81.1574935913086 C 347.1471252441406 81.43363189697266 349.8901672363281 84.44656372070312 362.73431396484375 99.7021713256836" fill="rgb(133, 141, 139)" opacity="0.88906974" stroke="rgb(88, 123, 87)" stroke-linecap="round" stroke-linejoin="round" stroke-opacity="0.76970804" stroke-width="0.0"/>
    <path d="M 388.7119445800781 744.8349609375 C 395.59625244140625 781.0835571289062 384.0374755859375 768.4617919921875 313.085205078125 761.428466796875 C 239.0155792236328 775.241943359375 217.30934143066406 779.2889404296875 226.81028747558594 749.6815795898438 C 243.0033721923828 624.7432250976562 233.77174377441406 591.8353271484375 323.66778564453125 562.7962036132812 C 375.5984191894531 624.19970703125 377.8291320800781 640.7562866210938 388.7119445800781 744.8349609375" fill="rgb(133, 140, 139)" opacity="0.9572466" stroke="rgb(74, 55, 104)" stroke-linecap="round" stroke-linejoin="round" stroke-opacity="0.9322177" stroke-width="0.0"/>
    <path d="M 778.6951293945312 551.9852905273438 C 771.968994140625 575.5208129882812 784.75244140625 590.91455078125 769.6873779296875 657.8785400390625 C 668.57861328125 641.66357421875 667.9212036132812 614.9326171875 669.7634887695312 574.337890625 C 687.0560302734375 492.707763671875 688.6729125976562 483.06390380859375 766.1220092773438 439.7273254394531 C 776.0949096679688 476.60504150390625 768.5086059570312 504.02740478515625 778.6951293945312 551.9852905273438" fill="rgb(133, 140, 138)" opacity="0.98229074" stroke="rgb(54, 61, 132)" stroke-linecap="round" stroke-linejoin="round" stroke-opacity="0.3255722" stroke-width="0.0"/>
    <path d="M 336.017333984375 429.7350769042969 C 344.909423828125 412.4839782714844 348.3349609375 426.4003601074219 356.8404846191406 498.23663330078125 C 290.8568420410156 499.087890625 367.8856506347656 497.35455322265625 279.1798095703125 436.40838623046875 C 317.50494384765625 402.72515869140625 309.6437683105469 414.36492919921875 342.0528564453125 417.9129638671875 C 347.67755126953125 424.7146911621094 342.3529357910156 444.3216552734375 336.017333984375 429.7350769042969" fill="rgb(124, 132, 130)" opacity="0.6688343" stroke="rgb(108, 134, 196)" stroke-linecap="round" stroke-linejoin="round" stroke-opacity="0.52081335" stroke-width="0.0"/>
    <path d="M 599.1383056640625 48.214378356933594 C 596.709716796875 55.545291900634766 589.9927368164062 46.52364730834961 577.5514526367188 39.61468505859375 C 597.1159057617188 58.4696159362793 590.760009765625 52.88526153564453 577.709716796875 44.20674514770508 C 587.2914428710938 48.977996826171875 585.3937377929688 44.926639556884766 583.5888671875 28.50613021850586 C 592.7965698242188 47.34233474731445 597.01953125 40.84223175048828 599.1383056640625 48.214378356933594" fill="rgb(135, 142, 140)" opacity="0.90204036" stroke="rgb(81, 143, 75)" stroke-linecap="round" stroke-linejoin="round" stroke-opacity="0.257725" stroke-width="0.0"/>
    <path d="M 498.7776184082031 689.9718627929688 C 493.6331481933594 742.3095092773438 502.61663818359375 761.5775756835938 439.03094482421875 775.1814575195312 C 349.825439453125 774.9392700195312 342.71087646484375 756.6849365234375 318.3551330566406 499.1851806640625 C 277.6512451171875 506.559814453125 264.8581237792969 502.9368591308594 545.3001098632812 503.6119384765625 C 561.4652099609375 580.0464477539062 519.0592651367188 605.5645141601562 498.7776184082031 689.9718627929688" fill="rgb(135, 142, 139)" opacity="0.8548071" stroke="rgb(241, 234, 229)" stroke-linecap="round" stroke-linejoin="round" stroke-opacity="0.34116906" stroke-width="0.0"/>
    <path d="M 427.7447814941406 454.1867980957031 C 436.8872375488281 465.2784729003906 442.41693115234375 494.3739318847656 443.8160400390625 462.6248779296875 C 445.4326477050781 457.81298828125 444.147216796875 451.2912292480469 444.6601257324219 449.7537536621094 C 445.3161315917969 464.0999450683594 444.89971923828125 459.3343505859375 445.86541748046875 436.45892333984375 C 447.2450256347656 453.5939025878906 421.3197937011719 387.72698974609375 427.7447814941406 454.1867980957031" fill="rgb(255, 124, 7)" opacity="0.98542595" stroke="rgb(68, 131, 10)" stroke-linecap="round" stroke-linejoin="round" stroke-opacity="0.0097710695" stroke-width="0.0"/>
    <path d="M 329.47308349609375 23.78145408630371 C 319.4132995605469 17.071044921875 321.64178466796875 17.941364288330078 320.03533935546875 26.924579620361328 C 318.3702087402344 27.58575439453125 316.8976135253906 23.66074562072754 322.60003662109375 22.692705154418945 C 318.2916259765625 15.830284118652344 314.1353759765625 13.736963272094727 317.598388671875 11.27312183380127 C 323.76727294921875 25.085590362548828 324.3640441894531 13.483996391296387 329.47308349609375 23.78145408630371" fill="rgb(132, 138, 136)" opacity="0.9068269" stroke="rgb(2, 87, 183)" stroke-linecap="round" stroke-linejoin="round" stroke-opacity="0.19604808" stroke-width="0.0"/>
    <path d="M 303.1241760253906 297.3077697753906 C 289.1584167480469 281.4423828125 292.1214599609375 280.2749938964844 286.2427978515625 303.5791931152344 C 294.0815124511719 290.3156433105469 289.3301696777344 286.23651123046875 286.3893737792969 284.5574951171875 C 287.5155029296875 281.33831787109375 287.24603271484375 279.7698974609375 289.2320251464844 285.8525085449219 C 291.04217529296875 280.1317443847656 296.8186950683594 283.8631896972656 303.1241760253906 297.3077697753906" fill="rgb(120, 127, 122)" opacity="0.9599935" stroke="rgb(46, 61, 52)" stroke-linecap="round" stroke-linejoin="round" stroke-opacity="0.09060615" stroke-width="0.0"/>
    <path d="M 434.47515869140625 310.51324462890625 C 431.9995422363281 313.33197021484375 502.1561584472656 304.6022033691406 452.0758056640625 349.684814453125 C 415.7145080566406 325.59716796875 394.25921630859375 337.30670166015625 409.86639404296875 332.4490661621094 C 405.40045166015625 315.67431640625 412.2975158691406 318.80511474609375 418.191650390625 313.9756774902344 C 414.0106506347656 318.01123046875 415.6981201171875 321.05419921875 434.47515869140625 310.51324462890625" fill="rgb(134, 142, 140)" opacity="1.0" stroke="rgb(200, 101, 31)" stroke-linecap="round" stroke-linejoin="round" stroke-opacity="0.514932" stroke-width="0.0"/>
    <path d="M 40.882568359375 37.260196685791016 C 31.798320770263672 38.201351165771484 31.97544288635254 41.79368209838867 25.204607009887695 46.42006301879883 C 30.322513580322266 40.04046630859375 29.028324127197266 37.18120193481445 19.038633346557617 38.16344451904297 C 27.76185417175293 33.922630310058594 20.72911834716797 41.01278305053711 45.912757873535156 33.20205307006836 C 26.735130310058594 30.629962921142578 29.68754768371582 33.64712142944336 40.882568359375 37.260196685791016" fill="rgb(133, 140, 138)" opacity="0.90060496" stroke="rgb(13, 119, 84)" stroke-linecap="round" stroke-linejoin="round" stroke-opacity="0.7009471" stroke-width="0.0"/>
    <path d="M 183.31153869628906 390.4177551269531 C 168.69476318359375 395.68280029296875 193.371337890625 407.234130859375 161.11038208007812 413.80987548828125 C 152.8041229248047 406.6956481933594 154.71096801757812 404.5733642578125 150.7094268798828 393.7536926269531 C 166.71302795410156 378.73907470703125 167.16400146484375 385.38433837890625 172.18275451660156 382.279296875 C 190.65602111816406 389.3147888183594 170.94647216796875 384.86627197265625 183.31153869628906 390.4177551269531" fill="rgb(133, 140, 137)" opacity="0.7618017" stroke="rgb(184, 151, 94)" stroke-linecap="round" stroke-linejoin="round" stroke-opacity="0.3022428" stroke-width="0.0"/>
    <path d="M 770.9293823242188 716.1226196289062 C 773.0596923828125 727.4361572265625 772.0740966796875 730.9793090820312 761.4765014648438 735.5076293945312 C 769.536865234375 729.3203125 767.5730590820312 726.822998046875 757.3560791015625 720.2608032226562 C 767.300048828125 715.5364379882812 750.9693603515625 706.4710083007812 767.6182250976562 676.35107421875 C 776.0732421875 719.836181640625 774.0172119140625 729.3331909179688 770.9293823242188 716.1226196289062" fill="rgb(131, 137, 135)" opacity="0.9216464" stroke="rgb(28, 254, 13)" stroke-linecap="round" stroke-linejoin="round" stroke-opacity="0.6328933" stroke-width="0.0"/>
    <path d="M 599.098876953125 126.81074523925781 C 599.1911010742188 162.91470336914062 584.4089965820312 143.86582946777344 575.96142578125 145.0040283203125 C 581.5859375 144.86453247070312 575.0311279296875 148.21690368652344 571.3403930664062 139.0409393310547 C 580.1000366210938 147.73583984375 576.1101684570312 141.88137817382812 574.0789794921875 136.25015258789062 C 583.2973022460938 143.45716857910156 576.6963500976562 133.8476104736328 599.098876953125 126.81074523925781" fill="rgb(135, 142, 140)" opacity="0.8782859" stroke="rgb(30, 251, 25)" stroke-linecap="round" stroke-linejoin="round" stroke-opacity="0.60641605" stroke-width="0.0"/>
    <path d="M 528.6815795898438 675.4185180664062 C 521.5592651367188 687.5264282226562 516.54296875 686.5385131835938 512.4204711914062 692.8634643554688 C 507.7933044433594 679.9984130859375 503.22406005859375 695.64794921875 471.1068115234375 685.0697021484375 C 494.9619140625 656.6580200195312 498.28448486328125 670.473876953125 512.146484375 660.9527587890625 C 520.4305419921875 670.0147094726562 522.8900146484375 666.5790405273438 528.6815795898438 675.4185180664062" fill="rgb(134, 140, 139)" opacity="1.0" stroke="rgb(146, 164, 11)" stroke-linecap="round" stroke-linejoin="round" stroke-opacity="0.8295321" stroke-width="0.0"/>
    <path d="M 363.9598083496094 1.683221697807312 C 192.99203491210938 25.81053924560547 198.6219024658203 40.745601654052734 175.2948455810547 11.386234283447266 C 168.1558837890625 15.372014999389648 174.6041259765625 11.319634437561035 171.21646118164062 10.202702522277832 C 182.26239013671875 10.344542503356934 166.5181884765625 5.102643966674805 173.0885772705078 0.8996897339820862 C 175.78759765625 1.7521294355392456 184.90635681152344 0.04499388486146927 363.9598083496094 1.683221697807312" fill="rgb(132, 138, 135)" opacity="0.9787877" stroke="rgb(244, 166, 31)" stroke-linecap="round" stroke-linejoin="round" stroke-opacity="0.2520861" stroke-width="0.0"/>
    <path d="M 26.44409942626953 364.6903991699219 C 16.253597259521484 356.62066650390625 17.435291290283203 361.76983642578125 5.599036693572998 368.51904296875 C 23.306554794311523 364.8692321777344 12.929291725158691 366.00225830078125 -1.189072608947754 355.9133605957031 C 15.336536407470703 356.9983825683594 11.526582717895508 355.43560791015625 16.780935287475586 344.9539794921875 C 14.69355583190918 360.8571472167969 16.60299301147461 353.2854309082031 26.44409942626953 364.6903991699219" fill="rgb(136, 143, 140)" opacity="0.9153944" stroke="rgb(2, 148, 198)" stroke-linecap="round" stroke-linejoin="round" stroke-opacity="0.68574953" stroke-width="0.0"/>
    <path d="M 172.78399658203125 118.9996337890625 C 171.0572509765625 126.4959487915039 163.47544860839844 121.82076263427734 163.29217529296875 125.24761199951172 C 159.2168426513672 121.41146087646484 158.30665588378906 115.45134735107422 171.03675842285156 130.97898864746094 C 161.31971740722656 112.62242889404297 158.29043579101562 110.64959716796875 161.62582397460938 115.53816223144531 C 163.7615203857422 112.39140319824219 163.5053253173828 125.92379760742188 172.78399658203125 118.9996337890625" fill="rgb(136, 143, 143)" opacity="0.8788124" stroke="rgb(95, 190, 100)" stroke-linecap="round" stroke-linejoin="round" stroke-opacity="0.60271734" stroke-width="0.0"/>
    <path d="M 496.9844970703125 391.8807067871094 C 484.6139831542969 405.05328369140625 495.5926513671875 387.5086364746094 482.85247802734375 402.1724548339844 C 481.9359130859375 389.0689697265625 484.1488952636719 405.59954833984375 483.1274719238281 416.5419616699219 C 468.0985412597656 375.6771240234375 466.2874755859375 321.8793029785156 485.0014953613281 388.90240478515625 C 493.0877380371094 393.0967102050781 502.28033447265625 397.27294921875 496.9844970703125 391.8807067871094" fill="rgb(136, 143, 141)" opacity="1.0" stroke="rgb(121, 5, 197)" stroke-linecap="round" stroke-linejoin="round" stroke-opacity="0.14652617" stroke-width="0.0"/>
    <path d="M 482.73760986328125 38.036041259765625 C 492.5228576660156 64.26563262939453 478.63958740234375 64.20995330810547 454.012451171875 67.9839096069336 C 473.6644287109375 60.709922790527344 467.9970397949219 63.85517501831055 463.11065673828125 58.20525360107422 C 460.7681579589844 53.069244384765625 464.2415466308594 57.49952697753906 468.0435485839844 54.744991302490234 C 472.685546875 52.8216438293457 467.3702087402344 60.4933967590332 482.73760986328125 38.036041259765625" fill="rgb(135, 142, 140)" opacity="0.9127862" stroke="rgb(106, 251, 130)" stroke-linecap="round" stroke-linejoin="round" stroke-opacity="0.30992338" stroke-width="0.0"/>
    <path d="M 708.58203125 522.04833984375 C 652.142333984375 547.10205078125 651.456787109375 541.0032348632812 664.6781616210938 575.1903686523438 C 606.8758544921875 540.8276977539062 612.5935668945312 532.4304809570312 603.1436157226562 526.82958984375 C 621.7109985351562 512.1690673828125 622.8763427734375 511.04248046875 631.659912109375 501.27191162109375 C 646.6812133789062 513.978515625 659.3875122070312 475.2704772949219 708.58203125 522.04833984375" fill="rgb(134, 142, 139)" opacity="0.61404634" stroke="rgb(189, 42, 183)" stroke-linecap="round" stroke-linejoin="round" stroke-opacity="0.6556049" stroke-width="0.0"/>
    <path d="M 444.36962890625 203.07208251953125 C 441.85931396484375 222.91241455078125 505.1046142578125 250.40692138671875 370.30474853515625 321.6709899902344 C 261.5947265625 368.1571350097656 282.5699462890625 362.052734375 156.05618286132812 135.12057495117188 C 378.8850402832031 158.56277465820312 378.2692565917969 173.58135986328125 388.8885192871094 191.09268188476562 C 383.6697998046875 207.98797607421875 385.25238037109375 214.40939331054688 444.36962890625 203.07208251953125" fill="rgb(134, 141, 139)" opacity="0.90298426" stroke="rgb(75, 144, 132)" stroke-linecap="round" stroke-linejoin="round" stroke-opacity="0.43541658" stroke-width="0.0"/>
    <path d="M 643.0740966796875 502.32684326171875 C 627.41748046875 513.4571533203125 624.9236450195312 513.3128051757812 608.6126708984375 529.4939575195312 C 615.676025390625 556.9325561523438 588.7694702148438 572.7523193359375 572.6527709960938 544.4209594726562 C 600.811279296875 486.47454833984375 589.87353515625 487.63885498046875 593.0228271484375 474.5413513183594 C 639.3016967773438 493.5550842285156 636.7914428710938 487.96405029296875 643.0740966796875 502.32684326171875" fill="rgb(135, 142, 140)" opacity="0.6156515" stroke="rgb(30, 6, 167)" stroke-linecap="round" stroke-linejoin="round" stroke-opacity="0.64185387" stroke-width="0.0"/>
    <path d="M 750.2650756835938 622.7874145507812 C 747.2577514648438 624.2266235351562 746.6725463867188 629.0454711914062 744.9456176757812 633.1040649414062 C 735.4910888671875 629.432861328125 734.1832275390625 629.0691528320312 726.7354125976562 620.2012939453125 C 738.375 617.3992919921875 733.8258666992188 615.095947265625 737.435302734375 605.3114624023438 C 748.3091430664062 613.753173828125 746.3663330078125 618.2968139648438 750.2650756835938 622.7874145507812" fill="rgb(134, 140, 138)" opacity="0.9052607" stroke="rgb(129, 24, 12)" stroke-linecap="round" stroke-linejoin="round" stroke-opacity="0.35751978" stroke-width="0.0"/>
    <path d="M 247.0051727294922 534.3670043945312 C 238.40731811523438 539.6870727539062 245.82992553710938 563.779296875 190.60910034179688 557.8677978515625 C 188.39559936523438 503.21783447265625 204.30081176757812 494.0751037597656 213.23745727539062 516.4959716796875 C 208.3647003173828 513.0796508789062 217.0979766845703 514.2115478515625 226.5206298828125 504.6662902832031 C 230.52398681640625 508.3033447265625 230.0720672607422 513.909912109375 247.0051727294922 534.3670043945312" fill="rgb(134, 141, 140)" opacity="1.0" stroke="rgb(4, 99, 131)" stroke-linecap="round" stroke-linejoin="round" stroke-opacity="0.6426549" stroke-width="0.0"/>
    <path d="M 154.37428283691406 464.6827697753906 C 157.54464721679688 445.0283508300781 155.46849060058594 449.92059326171875 151.63824462890625 448.8018493652344 C 156.88360595703125 455.7566833496094 142.3478240966797 451.9107666015625 136.4889678955078 434.88616943359375 C 157.49285888671875 458.712890625 139.05886840820312 444.6887512207031 153.68589782714844 406.2469482421875 C 185.6055450439453 444.35382080078125 153.79180908203125 438.1356201171875 154.37428283691406 464.6827697753906" fill="rgb(133, 140, 138)" opacity="0.9824481" stroke="rgb(220, 27, 50)" stroke-linecap="round" stroke-linejoin="round" stroke-opacity="0.0027143639" stroke-width="0.0"/>
    <path d="M 304.9215393066406 278.3807067871094 C 297.2066345214844 274.9363708496094 295.32830810546875 277.2256164550781 304.3686218261719 292.0860595703125 C 292.0449523925781 283.63800048828125 293.5484924316406 278.1180114746094 297.9029235839844 276.7850036621094 C 294.7430419921875 273.411376953125 295.5438232421875 272.7504577636719 300.02459716796875 276.7394104003906 C 299.7831115722656 272.2608947753906 300.90692138671875 273.5887145996094 304.9215393066406 278.3807067871094" fill="rgb(133, 140, 139)" opacity="0.9004529" stroke="rgb(163, 227, 162)" stroke-linecap="round" stroke-linejoin="round" stroke-opacity="0.7377697" stroke-width="0.0"/>
    <path d="M 411.64447021484375 332.74951171875 C 430.95318603515625 338.75848388671875 416.3622131347656 335.0143127441406 404.41607666015625 333.609130859375 C 368.0564270019531 333.5622863769531 378.2193908691406 330.746826171875 335.2098388671875 339.65576171875 C 314.4496154785156 277.810546875 355.50201416015625 269.7494201660156 454.4149475097656 256.4061584472656 C 483.9324645996094 326.9689636230469 450.46624755859375 321.146240234375 411.64447021484375 332.74951171875" fill="rgb(132, 140, 138)" opacity="1.0" stroke="rgb(182, 127, 221)" stroke-linecap="round" stroke-linejoin="round" stroke-opacity="0.7839721" stroke-width="0.0"/>
    <path d="M 149.76678466796875 22.872678756713867 C 142.4402313232422 13.999449729919434 142.16079711914062 14.693646430969238 143.86355590820312 23.677654266357422 C 141.11122131347656 16.374082565307617 141.68687438964844 15.77746295928955 137.39227294921875 19.000314712524414 C 131.74154663085938 8.896549224853516 140.31451416015625 21.957759857177734 142.5302276611328 11.74746036529541 C 144.87049865722656 17.419193267822266 147.22775268554688 12.683485984802246 149.76678466796875 22.872678756713867" fill="rgb(131, 138, 136)" opacity="0.91004604" stroke="rgb(206, 149, 232)" stroke-linecap="round" stroke-linejoin="round" stroke-opacity="0.98390394" stroke-width="0.0"/>
    <path d="M 749.5209350585938 450.6288146972656 C 735.8065185546875 450.26812744140625 741.1223754882812 458.2931213378906 714.9756469726562 479.28057861328125 C 704.1298217773438 457.81781005859375 681.6788940429688 486.2236633300781 663.4029541015625 434.2987365722656 C 710.5009155273438 399.2560119628906 716.9078369140625 414.1431884765625 729.6657104492188 432.9231872558594 C 739.7052001953125 441.21484375 736.5450439453125 446.2655029296875 749.5209350585938 450.6288146972656" fill="rgb(134, 141, 139)" opacity="0.9073498" stroke="rgb(81, 228, 88)" stroke-linecap="round" stroke-linejoin="round" stroke-opacity="0.88914365" stroke-width="0.0"/>
    <path d="M 714.6466674804688 521.9955444335938 C 709.9107666015625 537.7939453125 708.7000122070312 541.2242431640625 699.1388549804688 549.0989379882812 C 700.4110717773438 536.4308471679688 698.0348510742188 542.2105712890625 684.1642456054688 530.3377685546875 C 689.7958374023438 522.3786010742188 693.3635864257812 521.1173706054688 715.1056518554688 509.9486083984375 C 713.0744018554688 529.635498046875 707.1937866210938 529.8048095703125 714.6466674804688 521.9955444335938" fill="rgb(135, 141, 139)" opacity="0.75298584" stroke="rgb(195, 33, 233)" stroke-linecap="round" stroke-linejoin="round" stroke-opacity="0.55951387" stroke-width="0.0"/>
    <path d="M 733.797607421875 387.25885009765625 C 696.1727294921875 521.2288818359375 650.4810180664062 482.5693359375 583.6549682617188 485.4949035644531 C 594.6510620117188 452.33740234375 578.086669921875 475.0326232910156 573.3759765625 462.4151611328125 C 584.9158325195312 448.9830322265625 585.5316162109375 434.9837341308594 636.8408813476562 360.5809020996094 C 663.6195068359375 338.64453125 696.4957275390625 327.4436950683594 733.797607421875 387.25885009765625" fill="rgb(134, 140, 138)" opacity="0.9436366" stroke="rgb(183, 239, 99)" stroke-linecap="round" stroke-linejoin="round" stroke-opacity="0.8941045" stroke-width="0.0"/>
    <path d="M 41.896034240722656 241.16751098632812 C 38.938514709472656 249.33993530273438 38.521484375 242.33248901367188 36.44969940185547 247.37179565429688 C 31.58420181274414 240.01828002929688 31.78554916381836 242.1739501953125 26.250768661499023 245.83242797851562 C 28.167306900024414 238.6908416748047 34.123661041259766 234.93350219726562 33.25075912475586 236.95333862304688 C 37.413291931152344 233.7328338623047 35.36872863769531 240.76190185546875 41.896034240722656 241.16751098632812" fill="rgb(132, 139, 137)" opacity="0.9221283" stroke="rgb(158, 247, 148)" stroke-linecap="round" stroke-linejoin="round" stroke-opacity="0.5069658" stroke-width="0.0"/>
    <path d="M 735.1611938476562 195.04824829101562 C 726.5838012695312 193.90110778808594 741.5411987304688 204.46669006347656 726.0655517578125 208.9745330810547 C 733.5740966796875 198.4581756591797 728.3511962890625 203.86651611328125 724.2560424804688 192.10321044921875 C 732.5203857421875 199.8662567138672 726.7056884765625 196.94387817382812 730.3633422851562 192.92190551757812 C 735.3619384765625 197.61561584472656 730.7864990234375 190.83729553222656 735.1611938476562 195.04824829101562" fill="rgb(135, 142, 140)" opacity="0.8967626" stroke="rgb(148, 198, 86)" stroke-linecap="round" stroke-linejoin="round" stroke-opacity="0.67370874" stroke-width="0.0"/>
    <path d="M 372.4035339355469 538.3550415039062 C 376.9300537109375 531.2996215820312 403.83233642578125 541.9541625976562 370.04351806640625 599.6463012695312 C 280.0997619628906 653.7348022460938 289.3883361816406 610.2105102539062 329.880859375 517.1921997070312 C 372.15606689453125 507.7439880371094 369.79608154296875 523.4468994140625 362.3558349609375 527.4495849609375 C 373.31414794921875 520.7833862304688 376.5533447265625 528.0941772460938 372.4035339355469 538.3550415039062" fill="rgb(133, 142, 140)" opacity="0.53674835" stroke="rgb(192, 69, 224)" stroke-linecap="round" stroke-linejoin="round" stroke-opacity="0.63840723" stroke-width="0.0"/>
    <path d="M 581.1637573242188 473.92156982421875 C 466.66943359375 505.8834228515625 609.3286743164062 460.7176208496094 510.0426330566406 464.9500732421875 C 536.1148681640625 429.8272399902344 485.1598815917969 462.8674011230469 480.9617614746094 417.66925048828125 C 503.54644775390625 435.6778259277344 498.7712707519531 427.2782287597656 523.0150146484375 441.7933654785156 C 513.5289306640625 438.6114501953125 521.9746704101562 438.6701965332031 581.1637573242188 473.92156982421875" fill="rgb(253, 126, 7)" opacity="0.9225867" stroke="rgb(201, 125, 120)" stroke-linecap="round" stroke-linejoin="round" stroke-opacity="0.21566471" stroke-width="0.0"/>
    <path d="M 705.0443115234375 270.75750732421875 C 694.325927734375 264.1670837402344 697.160400390625 268.911865234375 695.0460205078125 287.2317199707031 C 687.8797607421875 273.1957702636719 688.3599853515625 273.9110412597656 686.4903564453125 263.0946044921875 C 702.0036010742188 272.6604309082031 701.1838989257812 270.68450927734375 683.1761474609375 257.72332763671875 C 701.3648071289062 265.4298400878906 693.2008056640625 266.48516845703125 705.0443115234375 270.75750732421875" fill="rgb(132, 139, 137)" opacity="0.8792344" stroke="rgb(56, 179, 223)" stroke-linecap="round" stroke-linejoin="round" stroke-opacity="0.40568048" stroke-width="0.0"/>
    <path d="M 546.011962890625 138.75433349609375 C 538.6464233398438 131.93797302246094 540.6654663085938 133.213623046875 536.0851440429688 143.72169494628906 C 523.6068725585938 135.8127899169922 532.2376098632812 138.5926055908203 523.1695556640625 132.6049346923828 C 525.6153564453125 122.23424530029297 532.7969970703125 133.39974975585938 536.2727661132812 122.9401626586914 C 534.3984985351562 132.2926025390625 540.2015380859375 125.1761245727539 546.011962890625 138.75433349609375" fill="rgb(135, 142, 140)" opacity="0.883744" stroke="rgb(202, 239, 141)" stroke-linecap="round" stroke-linejoin="round" stroke-opacity="0.13236012" stroke-width="0.0"/>
    <path d="M 349.57000732421875 758.1893310546875 C 295.1479797363281 797.2646484375 281.75604248046875 774.310302734375 267.9449462890625 768.402099609375 C 267.98162841796875 781.3711547851562 247.71298217773438 796.83154296875 216.464111328125 758.3946533203125 C 274.6076965332031 754.5096435546875 270.9343566894531 760.9931030273438 269.375 764.1954956054688 C 278.19549560546875 765.5101928710938 278.6664733886719 750.7268676757812 349.57000732421875 758.1893310546875" fill="rgb(131, 137, 135)" opacity="0.8972452" stroke="rgb(63, 67, 234)" stroke-linecap="round" stroke-linejoin="round" stroke-opacity="0.52257156" stroke-width="0.0"/>
    <path d="M 728.6306762695312 162.7727813720703 C 738.1220092773438 165.62026977539062 732.2814331054688 166.2920379638672 722.1787109375 167.5824737548828 C 730.4766235351562 165.21726989746094 726.8492431640625 185.11788940429688 691.0159912109375 187.9277801513672 C 721.9717407226562 126.83527374267578 730.6019897460938 121.8616714477539 724.9427490234375 159.5218505859375 C 738.5806274414062 162.33509826660156 737.9624633789062 162.68553161621094 728.6306762695312 162.7727813720703" fill="rgb(136, 143, 141)" opacity="0.49158767" stroke="rgb(118, 92, 186)" stroke-linecap="round" stroke-linejoin="round" stroke-opacity="0.6005968" stroke-width="0.0"/>
    <path d="M 541.7117919921875 58.816532135009766 C 534.1995849609375 48.5412483215332 534.8646240234375 48.33708953857422 530.9417724609375 58.757747650146484 C 537.5007934570312 53.50182342529297 537.4054565429688 55.61111068725586 523.5491943359375 50.15189743041992 C 531.3104858398438 56.5877571105957 537.1156005859375 49.96897506713867 531.7314453125 43.7890510559082 C 538.566650390625 56.85330581665039 532.5950927734375 49.85264205932617 541.7117919921875 58.816532135009766" fill="rgb(132, 139, 137)" opacity="0.90172404" stroke="rgb(96, 49, 245)" stroke-linecap="round" stroke-linejoin="round" stroke-opacity="0.32342568" stroke-width="0.0"/>
    <path d="M 675.9926147460938 432.95794677734375 C 669.8643798828125 428.2289733886719 670.2498168945312 427.7086486816406 669.692626953125 431.3196105957031 C 655.3693237304688 436.1261291503906 660.2803344726562 439.25360107421875 659.43212890625 417.6880798339844 C 667.6917724609375 433.1456604003906 670.1143188476562 429.8226013183594 660.5562133789062 416.29632568359375 C 672.1910400390625 425.9491271972656 666.7258911132812 422.912353515625 675.9926147460938 432.95794677734375" fill="rgb(132, 139, 137)" opacity="1.0" stroke="rgb(199, 249, 105)" stroke-linecap="round" stroke-linejoin="round" stroke-opacity="0.57349396" stroke-width="0.0"/>
    <path d="M 716.08984375 301.8657531738281 C 715.5397338867188 307.6325988769531 712.9378051757812 308.677490234375 700.1803588867188 315.8846740722656 C 692.2444458007812 307.09393310546875 703.2655639648438 310.3525390625 686.8268432617188 294.85980224609375 C 698.0415649414062 284.869873046875 693.7626953125 295.4310302734375 705.75439453125 286.5232238769531 C 701.22900390625 303.83868408203125 704.3868408203125 295.97998046875 716.08984375 301.8657531738281" fill="rgb(135, 142, 140)" opacity="0.9026125" stroke="rgb(26, 242, 80)" stroke-linecap="round" stroke-linejoin="round" stroke-opacity="0.42053086" stroke-width="0.0"/>
    <path d="M 358.2414245605469 87.67167663574219 C 368.9942626953125 87.72039031982422 364.3297424316406 89.35767364501953 360.80303955078125 92.95713806152344 C 358.102783203125 93.56288146972656 357.14691162109375 89.08662414550781 356.56005859375 88.3701400756836 C 359.3827819824219 84.7249755859375 362.8962707519531 83.76615905761719 349.5890197753906 80.23333740234375 C 362.9282531738281 80.86080169677734 363.3157958984375 86.02760314941406 358.2414245605469 87.67167663574219" fill="rgb(135, 142, 141)" opacity="0.90450287" stroke="rgb(111, 192, 192)" stroke-linecap="round" stroke-linejoin="round" stroke-opacity="0.5968782" stroke-width="0.0"/>
    <path d="M 272.7957458496094 189.6803741455078 C 276.47265625 194.87977600097656 277.6255187988281 196.8447265625 273.7315368652344 194.562255859375 C 274.21063232421875 188.5095672607422 272.9967346191406 185.87353515625 269.27984619140625 190.75196838378906 C 265.4057312011719 188.725830078125 271.2534484863281 189.632568359375 272.4769287109375 185.863037109375 C 276.844970703125 187.92849731445312 280.0777587890625 189.7914276123047 272.7957458496094 189.6803741455078" fill="rgb(132, 139, 137)" opacity="0.9882553" stroke="rgb(159, 120, 223)" stroke-linecap="round" stroke-linejoin="round" stroke-opacity="0.27131793" stroke-width="0.0"/>
    <path d="M 262.8423156738281 608.8242797851562 C 258.1004943847656 596.5789184570312 256.5687255859375 600.8244018554688 262.0928649902344 613.0267333984375 C 251.4077606201172 612.5986328125 248.20501708984375 608.007080078125 257.35003662109375 606.7164916992188 C 245.963134765625 601.4673461914062 255.6835479736328 605.81982421875 257.5395202636719 599.018310546875 C 261.4710998535156 598.6895141601562 262.99310302734375 601.2030029296875 262.8423156738281 608.8242797851562" fill="rgb(132, 139, 137)" opacity="0.946988" stroke="rgb(72, 30, 116)" stroke-linecap="round" stroke-linejoin="round" stroke-opacity="0.9492959" stroke-width="0.0"/>
    <path d="M 202.20291137695312 252.74029541015625 C 200.22402954101562 261.22088623046875 196.26547241210938 258.4267883300781 187.8314666748047 261.2726745605469 C 186.07427978515625 266.08587646484375 184.7747344970703 262.1454772949219 179.0738067626953 252.98947143554688 C 189.24783325195312 253.17953491210938 185.26351928710938 253.42950439453125 188.95240783691406 247.990234375 C 194.92738342285156 247.89157104492188 185.58792114257812 254.48338317871094 202.20291137695312 252.74029541015625" fill="rgb(135, 142, 141)" opacity="0.9020525" stroke="rgb(236, 245, 38)" stroke-linecap="round" stroke-linejoin="round" stroke-opacity="0.060792323" stroke-width="0.0"/>
    <path d="M 222.07347106933594 62.18952560424805 C 235.29193115234375 60.9501953125 231.3589324951172 60.82114028930664 222.6104736328125 65.9749755859375 C 218.7718963623047 62.49037551879883 218.79440307617188 62.005760192871094 230.1509552001953 64.9228744506836 C 219.56642150878906 60.04002380371094 220.98980712890625 60.22333526611328 223.2938232421875 59.20333480834961 C 227.27609252929688 56.82425308227539 228.12185668945312 58.01512908935547 222.07347106933594 62.18952560424805" fill="rgb(136, 142, 140)" opacity="0.88697594" stroke="rgb(7, 249, 99)" stroke-linecap="round" stroke-linejoin="round" stroke-opacity="0.97461855" stroke-width="0.0"/>
    <path d="M 170.1002655029297 275.3739013671875 C 163.97499084472656 267.4085388183594 165.51609802246094 267.0593566894531 164.60511779785156 273.9043273925781 C 155.84703063964844 284.6564025878906 153.942626953125 282.484130859375 148.4976348876953 265.29132080078125 C 163.12420654296875 261.423095703125 151.5775604248047 256.51226806640625 154.555419921875 211.19845581054688 C 178.01646423339844 264.14923095703125 162.2687530517578 258.7931823730469 170.1002655029297 275.3739013671875" fill="rgb(132, 139, 138)" opacity="0.9081187" stroke="rgb(170, 238, 21)" stroke-linecap="round" stroke-linejoin="round" stroke-opacity="0.09042018" stroke-width="0.0"/>
    <path d="M 595.014892578125 60.14469909667969 C 595.0693969726562 61.70769500732422 592.8511352539062 61.89653015136719 591.9641723632812 57.29126739501953 C 588.5872802734375 63.19792556762695 584.951171875 61.40644073486328 588.4579467773438 58.93434143066406 C 595.1121826171875 57.160003662109375 591.4953002929688 59.801517486572266 581.0098266601562 49.612693786621094 C 590.1563110351562 54.262516021728516 593.11865234375 58.569061279296875 595.014892578125 60.14469909667969" fill="rgb(136, 143, 141)" opacity="0.9039439" stroke="rgb(94, 24, 180)" stroke-linecap="round" stroke-linejoin="round" stroke-opacity="0.4363136" stroke-width="0.0"/>
    <path d="M 285.4499206542969 546.6634521484375 C 282.36090087890625 540.5772094726562 280.00018310546875 544.7097778320312 278.3708801269531 559.5872802734375 C 270.7959289550781 546.4613037109375 273.055908203125 549.643310546875 265.2073669433594 534.27294921875 C 276.8332824707031 545.2225341796875 276.3610534667969 544.2743530273438 266.9852294921875 532.703369140625 C 288.66912841796875 534.4970092773438 277.08233642578125 536.749267578125 285.4499206542969 546.6634521484375" fill="rgb(133, 140, 138)" opacity="0.99843675" stroke="rgb(254, 229, 189)" stroke-linecap="round" stroke-linejoin="round" stroke-opacity="0.8130539" stroke-width="0.0"/>
    <path d="M 702.4915771484375 308.0872497558594 C 694.5325317382812 309.0023193359375 698.3712768554688 317.1585388183594 684.4689331054688 328.1950988769531 C 693.9802856445312 309.7578430175781 696.8031616210938 312.7226257324219 684.5381469726562 313.13531494140625 C 687.4683837890625 304.1471252441406 693.5672607421875 299.5386657714844 694.8267211914062 307.466796875 C 696.939697265625 301.0169982910156 699.3117065429688 304.8465881347656 702.4915771484375 308.0872497558594" fill="rgb(136, 142, 140)" opacity="0.7283131" stroke="rgb(171, 241, 116)" stroke-linecap="round" stroke-linejoin="round" stroke-opacity="0.8704861" stroke-width="0.0"/>
    <path d="M 58.02412033081055 549.0971069335938 C 49.08567810058594 550.3485717773438 43.468536376953125 549.1344604492188 38.09876251220703 546.9271240234375 C 34.76209259033203 550.5928955078125 39.10377883911133 544.752685546875 22.520992279052734 538.7359619140625 C 31.94170379638672 538.8903198242188 24.114627838134766 535.4332275390625 37.80214309692383 527.7650146484375 C 57.52199172973633 533.6212158203125 47.86343765258789 531.5380859375 58.02412033081055 549.0971069335938" fill="rgb(135, 142, 140)" opacity="0.92343813" stroke="rgb(88, 47, 216)" stroke-linecap="round" stroke-linejoin="round" stroke-opacity="0.55816734" stroke-width="0.0"/>
    <path d="M 310.8870544433594 718.015380859375 C 299.4288330078125 714.4815063476562 299.3038024902344 717.759521484375 300.1626281738281 722.6813354492188 C 295.2480773925781 724.4671630859375 299.93505859375 720.8663940429688 303.7131042480469 708.8991088867188 C 294.983154296875 723.4663696289062 297.82598876953125 719.8284301757812 302.3315734863281 714.09814453125 C 306.475341796875 717.0064697265625 300.4102478027344 712.6697387695312 310.8870544433594 718.015380859375" fill="rgb(131, 137, 135)" opacity="0.9037972" stroke="rgb(95, 113, 26)" stroke-linecap="round" stroke-linejoin="round" stroke-opacity="0.037109375" stroke-width="0.0"/>
    <path d="M 174.49490356445312 608.9644165039062 C 166.83126831054688 608.6199340820312 170.38128662109375 616.0506591796875 164.43850708007812 617.5777587890625 C 171.76089477539062 606.5230712890625 171.56837463378906 609.23974609375 155.22308349609375 614.351806640625 C 161.0986328125 601.5843505859375 163.302734375 615.1787109375 170.33660888671875 599.2150268554688 C 169.32327270507812 604.09765625 169.91114807128906 608.5477905273438 174.49490356445312 608.9644165039062" fill="rgb(134, 141, 140)" opacity="0.9062317" stroke="rgb(189, 223, 74)" stroke-linecap="round" stroke-linejoin="round" stroke-opacity="0.38406703" stroke-width="0.0"/>
    <path d="M 380.4263000488281 296.8288269042969 C 371.71173095703125 299.3699035644531 385.9798889160156 315.34283447265625 341.7607727050781 317.0926513671875 C 353.7510681152344 294.39825439453125 358.7235107421875 289.7305908203125 355.4532165527344 297.057373046875 C 354.1869201660156 289.59454345703125 359.45025634765625 292.3233947753906 363.89617919921875 290.42657470703125 C 363.7247009277344 295.23248291015625 366.1525573730469 295.0451965332031 380.4263000488281 296.8288269042969" fill="rgb(134, 141, 139)" opacity="0.882165" stroke="rgb(175, 181, 64)" stroke-linecap="round" stroke-linejoin="round" stroke-opacity="0.9834421" stroke-width="0.0"/>
    <path d="M 639.8992309570312 245.46304321289062 C 635.4277954101562 254.2943115234375 637.3484497070312 253.95599365234375 639.6474609375 264.64410400390625 C 630.56298828125 260.21466064453125 636.7739868164062 255.56275939941406 636.3511962890625 243.51992797851562 C 634.2359619140625 253.76083374023438 631.4529418945312 247.0067596435547 634.9554443359375 227.0826416015625 C 642.8106079101562 249.09339904785156 643.2505493164062 255.34219360351562 639.8992309570312 245.46304321289062" fill="rgb(132, 139, 137)" opacity="0.9132544" stroke="rgb(51, 106, 200)" stroke-linecap="round" stroke-linejoin="round" stroke-opacity="0.22770219" stroke-width="0.0"/>
    <path d="M 241.33558654785156 53.8433952331543 C 240.03594970703125 43.67293167114258 238.4910888671875 48.566036224365234 238.21502685546875 46.06172561645508 C 235.21853637695312 50.61019515991211 236.91510009765625 46.760414123535156 223.6463623046875 42.96257781982422 C 237.70263671875 44.43403244018555 231.8326416015625 39.18790817260742 234.5646514892578 26.50344467163086 C 241.42991638183594 41.347259521484375 236.34317016601562 36.559776306152344 241.33558654785156 53.8433952331543" fill="rgb(133, 139, 137)" opacity="0.8819381" stroke="rgb(246, 144, 212)" stroke-linecap="round" stroke-linejoin="round" stroke-opacity="0.26347625" stroke-width="0.0"/>
    <path d="M 739.8534545898438 115.14588165283203 C 730.594482421875 109.80606842041016 727.6481323242188 115.30584716796875 732.1624755859375 122.20480346679688 C 722.3795166015625 112.68472290039062 728.183349609375 116.37435150146484 715.38232421875 104.33561706542969 C 723.043701171875 116.15263366699219 728.5053100585938 110.02073669433594 724.2966918945312 103.93672180175781 C 732.1980590820312 109.24073791503906 727.280029296875 105.35440063476562 739.8534545898438 115.14588165283203" fill="rgb(133, 141, 139)" opacity="0.90502924" stroke="rgb(119, 212, 141)" stroke-linecap="round" stroke-linejoin="round" stroke-opacity="0.99181414" stroke-width="0.0"/>
    <path d="M 580.4700927734375 446.9678649902344 C 566.969970703125 444.0138854980469 561.9450073242188 446.1549377441406 569.590576171875 455.227294921875 C 562.0008544921875 455.04327392578125 570.38671875 445.5115966796875 553.4288940429688 445.0802001953125 C 553.4199829101562 438.1513977050781 561.9142456054688 438.7131652832031 567.6129150390625 441.2727966308594 C 568.02587890625 452.5517883300781 570.9200439453125 438.9581604003906 580.4700927734375 446.9678649902344" fill="rgb(134, 142, 143)" opacity="0.8887744" stroke="rgb(186, 4, 36)" stroke-linecap="round" stroke-linejoin="round" stroke-opacity="0.36556396" stroke-width="0.0"/>
    <path d="M 345.16082763671875 605.2254638671875 C 333.7229919433594 601.7833862304688 328.02685546875 610.9302368164062 344.49993896484375 613.0401000976562 C 333.34613037109375 600.1550903320312 333.2383728027344 608.3345947265625 326.7721862792969 601.296142578125 C 331.32757568359375 609.66357421875 333.64666748046875 603.82275390625 331.0525817871094 601.3692016601562 C 337.0087585449219 589.27490234375 340.78662109375 589.4158935546875 345.16082763671875 605.2254638671875" fill="rgb(136, 143, 142)" opacity="0.88151616" stroke="rgb(132, 207, 115)" stroke-linecap="round" stroke-linejoin="round" stroke-opacity="0.951246" stroke-width="0.0"/>
    <path d="M 763.642333984375 37.05923080444336 C 755.4669189453125 46.21938705444336 767.7398071289062 43.58418273925781 756.1965942382812 45.5993537902832 C 749.6188354492188 44.02322769165039 746.0015869140625 40.312705993652344 750.7180786132812 43.74901580810547 C 758.7899780273438 35.063419342041016 751.6121215820312 42.890953063964844 772.3400268554688 30.25115966796875 C 749.8047485351562 34.68921661376953 756.7606201171875 40.27653503417969 763.642333984375 37.05923080444336" fill="rgb(132, 138, 135)" opacity="0.8873976" stroke="rgb(44, 147, 248)" stroke-linecap="round" stroke-linejoin="round" stroke-opacity="0.82150173" stroke-width="0.0"/>
    <path d="M 425.140869140625 471.6064453125 C 420.3341369628906 496.4647216796875 424.77008056640625 498.78289794921875 420.9339599609375 497.1363525390625 C 418.83331298828125 469.205810546875 422.1006774902344 498.5873107910156 414.9081726074219 496.9236145019531 C 426.54962158203125 499.50750732421875 419.128173828125 493.31439208984375 420.6991271972656 481.03582763671875 C 426.4402160644531 442.6612243652344 426.0335998535156 441.2591552734375 425.140869140625 471.6064453125" fill="rgb(224, 255, 248)" opacity="0.4879404" stroke="rgb(95, 229, 5)" stroke-linecap="round" stroke-linejoin="round" stroke-opacity="0.9968822" stroke-width="0.0"/>
    <path d="M 484.2185363769531 365.8435363769531 C 493.8435363769531 373.8229064941406 478.4071044921875 366.3882141113281 489.0523986816406 381.71343994140625 C 477.484375 375.64251708984375 476.3979797363281 369.3056945800781 478.06097412109375 363.1685485839844 C 468.2438049316406 352.93560791015625 474.4267272949219 349.3751220703125 480.8494873046875 364.64202880859375 C 494.0931091308594 358.5826416015625 493.578369140625 360.771728515625 484.2185363769531 365.8435363769531" fill="rgb(136, 143, 141)" opacity="0.8755889" stroke="rgb(138, 218, 248)" stroke-linecap="round" stroke-linejoin="round" stroke-opacity="0.9109905" stroke-width="0.0"/>
    <path d="M 633.968505859375 205.84487915039062 C 640.7877197265625 211.96014404296875 639.025390625 211.2676239013672 629.7106323242188 206.55349731445312 C 626.4934692382812 213.211669921875 625.9813232421875 211.6893310546875 630.595947265625 206.6373748779297 C 627.0173950195312 202.51443481445312 630.9677124023438 206.8349151611328 627.3526611328125 199.6776580810547 C 633.8161010742188 202.35609436035156 639.3587646484375 204.9197998046875 633.968505859375 205.84487915039062" fill="rgb(135, 142, 140)" opacity="0.90374637" stroke="rgb(238, 85, 209)" stroke-linecap="round" stroke-linejoin="round" stroke-opacity="0.49537614" stroke-width="0.0"/>
    <path d="M 735.926513671875 122.80070495605469 C 729.5267333984375 134.10462951660156 723.787109375 143.68492126464844 727.5659790039062 130.01898193359375 C 717.9612426757812 127.03742980957031 723.6204223632812 129.59423828125 719.4251098632812 121.99669647216797 C 711.3704223632812 127.2271499633789 717.49853515625 118.88525390625 724.0201416015625 117.02162170410156 C 734.1149291992188 117.96598815917969 733.4481201171875 117.12883758544922 735.926513671875 122.80070495605469" fill="rgb(134, 141, 140)" opacity="0.9978535" stroke="rgb(119, 86, 108)" stroke-linecap="round" stroke-linejoin="round" stroke-opacity="0.18082233" stroke-width="0.0"/>
    <path d="M 131.10719299316406 237.292724609375 C 121.71100616455078 247.9043731689453 124.01078033447266 243.25369262695312 116.6982192993164 249.8684539794922 C 122.69581604003906 241.70387268066406 118.52154541015625 241.83612060546875 113.6255874633789 248.5029296875 C 118.40813446044922 240.17788696289062 117.59842681884766 245.75674438476562 124.59117889404297 234.4178466796875 C 117.9915542602539 240.52279663085938 121.29719543457031 244.9931640625 131.10719299316406 237.292724609375" fill="rgb(135, 142, 140)" opacity="0.90532523" stroke="rgb(18, 242, 192)" stroke-linecap="round" stroke-linejoin="round" stroke-opacity="0.6159457" stroke-width="0.0"/>
    <path d="M 460.24786376953125 364.5241394042969 C 463.3671875 390.5734558105469 453.8893737792969 416.32318115234375 397.5514831542969 427.3311767578125 C 373.7225036621094 353.7730712890625 373.0526428222656 358.33807373046875 377.8190002441406 386.5425109863281 C 354.234130859375 349.5863952636719 362.78936767578125 323.67340087890625 427.3709411621094 338.6364440917969 C 426.400146484375 339.2405700683594 447.1323547363281 342.2782897949219 460.24786376953125 364.5241394042969" fill="rgb(251, 126, 10)" opacity="0.9839728" stroke="rgb(218, 0, 45)" stroke-linecap="round" stroke-linejoin="round" stroke-opacity="0.78995997" stroke-width="0.0"/>
    <path d="M 228.41738891601562 92.22637176513672 C 223.56478881835938 98.35139465332031 223.88360595703125 98.74547576904297 221.4180145263672 97.43923950195312 C 216.383544921875 99.56483459472656 213.33145141601562 97.54487609863281 218.0384063720703 95.07070922851562 C 215.03231811523438 95.35054016113281 214.6872100830078 79.80864715576172 238.86557006835938 75.25435638427734 C 213.95166015625 96.01284790039062 213.19117736816406 94.00889587402344 228.41738891601562 92.22637176513672" fill="rgb(135, 142, 139)" opacity="0.7559726" stroke="rgb(127, 70, 202)" stroke-linecap="round" stroke-linejoin="round" stroke-opacity="0.18263677" stroke-width="0.0"/>
    <path d="M 221.79283142089844 33.334083557128906 C 225.4246063232422 35.35163497924805 220.63438415527344 35.666259765625 219.70767211914062 40.18730163574219 C 217.15748596191406 39.43243408203125 216.25375366210938 35.819969177246094 215.9813995361328 34.46565628051758 C 216.56275939941406 30.90231704711914 216.577392578125 29.537174224853516 219.40438842773438 32.77079772949219 C 222.81822204589844 29.610565185546875 225.18849182128906 30.67714500427246 221.79283142089844 33.334083557128906" fill="rgb(135, 141, 138)" opacity="0.90013325" stroke="rgb(144, 120, 7)" stroke-linecap="round" stroke-linejoin="round" stroke-opacity="0.07124513" stroke-width="0.0"/>
    <path d="M 643.4050903320312 480.3739013671875 C 647.8629150390625 489.9197998046875 646.6688842773438 485.9198303222656 644.56201171875 497.4069519042969 C 635.9969482421875 488.229248046875 648.7698364257812 485.6073913574219 640.8433837890625 482.8057861328125 C 644.1346435546875 476.77178955078125 634.6466674804688 484.4243469238281 639.7467651367188 474.0972900390625 C 649.2186279296875 484.4438781738281 652.0228271484375 486.2769775390625 643.4050903320312 480.3739013671875" fill="rgb(133, 139, 137)" opacity="1.0" stroke="rgb(104, 128, 220)" stroke-linecap="round" stroke-linejoin="round" stroke-opacity="0.07835113" stroke-width="0.0"/>
    <path d="M 394.4790954589844 383.726806640625 C 374.9949035644531 452.4096374511719 383.5141906738281 387.7247009277344 367.7537536621094 396.2952880859375 C 358.3544616699219 393.4053955078125 331.7621765136719 392.3869323730469 330.073486328125 412.94927978515625 C 332.2455749511719 313.9911193847656 329.7295837402344 350.5529479980469 341.977294921875 340.5273132324219 C 409.940673828125 328.32562255859375 396.0718078613281 352.3031921386719 394.4790954589844 383.726806640625" fill="rgb(252, 121, 7)" opacity="1.0" stroke="rgb(234, 105, 217)" stroke-linecap="round" stroke-linejoin="round" stroke-opacity="0.5343008" stroke-width="0.0"/>
    <path d="M 343.293212890625 515.4202270507812 C 335.3280334472656 528.449462890625 343.6397399902344 519.290283203125 314.5583190917969 523.7256469726562 C 338.89801025390625 528.1113891601562 324.8214111328125 527.4740600585938 299.0362854003906 509.4153747558594 C 327.680908203125 513.9566650390625 309.68597412109375 499.59417724609375 336.0141906738281 506.8777160644531 C 335.479736328125 517.841064453125 336.9835205078125 508.0705261230469 343.293212890625 515.4202270507812" fill="rgb(131, 138, 137)" opacity="0.8269957" stroke="rgb(249, 0, 98)" stroke-linecap="round" stroke-linejoin="round" stroke-opacity="0.19556859" stroke-width="0.0"/>
    <path d="M 723.7994384765625 293.1642761230469 C 705.2941284179688 279.1970520019531 701.9644775390625 280.356689453125 706.5816650390625 303.24407958984375 C 718.02392578125 281.6800537109375 716.430908203125 279.72198486328125 691.55029296875 294.7921142578125 C 703.9440307617188 282.7889099121094 706.3558349609375 282.9748840332031 708.7512817382812 285.23577880859375 C 710.3413696289062 283.4916076660156 712.175048828125 284.9961242675781 723.7994384765625 293.1642761230469" fill="rgb(134, 141, 139)" opacity="1.0" stroke="rgb(173, 20, 222)" stroke-linecap="round" stroke-linejoin="round" stroke-opacity="0.36143002" stroke-width="0.0"/>
  </g>
</svg>
