<?xml version="1.0" ?>
<svg height="768" version="1.1" width="768" xmlns="http://www.w3.org/2000/svg">
  <defs/>
  <g>
    <path d="M 731.5277099609375 853.476806640625 C 612.2119750976562 783.1897583007812 597.47900390625 786.5659790039062 -34.55295944213867 766.745849609375 C 6.704207420349121 394.2216796875 44.13496017456055 252.08770751953125 113.93177032470703 102.11003875732422 C 880.3829345703125 149.05966186523438 890.44091796875 241.4701690673828 842.1983642578125 369.5521545410156 C 791.308837890625 713.9173583984375 773.265625 778.7623901367188 731.5277099609375 853.476806640625" fill="rgb(133, 123, 112)" opacity="0.9768154" stroke="rgb(186, 99, 151)" stroke-linecap="round" stroke-linejoin="round" stroke-opacity="0.8459669" stroke-width="0.0"/>
    <path d="M 780.9959106445312 190.0291748046875 C 788.314697265625 216.8357696533203 787.2197265625 220.3749542236328 665.268310546875 201.53941345214844 C 671.7325439453125 162.0108642578125 652.2832641601562 164.1605987548828 618.391845703125 -5.539572238922119 C 665.167236328125 -15.053257942199707 696.4833984375 -14.540163040161133 816.2282104492188 -4.690789699554443 C 780.4672241210938 55.8378791809082 781.3885498046875 59.891090393066406 780.9959106445312 190.0291748046875" fill="rgb(134, 140, 138)" opacity="1.0" stroke="rgb(215, 12, 65)" stroke-linecap="round" stroke-linejoin="round" stroke-opacity="0.3312705" stroke-width="0.0"/>
    <path d="M 710.766845703125 193.01339721679688 C 707.7241821289062 201.98910522460938 696.779052734375 196.74717712402344 281.4621887207031 190.80262756347656 C 201.3863067626953 183.33534240722656 188.952392578125 127.74559020996094 238.62960815429688 -90.1191635131836 C 536.8340454101562 -22.09197235107422 570.0555419921875 -16.122549057006836 736.10595703125 13.731501579284668 C 703.3720092773438 64.33687591552734 703.0158081054688 70.95047760009766 710.766845703125 193.01339721679688" fill="rgb(134, 140, 138)" opacity="1.0" stroke="rgb(56, 154, 202)" stroke-linecap="round" stroke-linejoin="round" stroke-opacity="0.784891" stroke-width="0.0"/>
    <path d="M 104.60356903076172 144.33743286132812 C 109.3126220703125 141.59803771972656 142.9903564453125 126.32820892333984 321.7263488769531 280.8502502441406 C 184.06005859375 357.0758972167969 281.2035217285156 458.3471374511719 0.8283957242965698 528.4498901367188 C -42.490055084228516 57.03166961669922 -41.47966384887695 52.29427719116211 71.81029510498047 51.993560791015625 C 85.44357299804688 57.12447738647461 96.71077728271484 55.60520935058594 104.60356903076172 144.33743286132812" fill="rgb(134, 141, 139)" opacity="1.0" stroke="rgb(181, 14, 178)" stroke-linecap="round" stroke-linejoin="round" stroke-opacity="0.5950336" stroke-width="0.0"/>
    <path d="M 330.13372802734375 396.2606201171875 C 314.89434814453125 413.6871337890625 321.36090087890625 403.1252746582031 287.9096984863281 414.8357238769531 C 239.65313720703125 432.58697509765625 246.14431762695312 399.3382568359375 263.92938232421875 415.8915710449219 C 285.40435791015625 385.59967041015625 308.2569885253906 395.0750427246094 330.3326721191406 338.2574768066406 C 333.2823486328125 343.5498046875 327.8389892578125 356.978271484375 330.13372802734375 396.2606201171875" fill="rgb(255, 248, 236)" opacity="1.0" stroke="rgb(67, 161, 14)" stroke-linecap="round" stroke-linejoin="round" stroke-opacity="0.92941856" stroke-width="0.0"/>
    <path d="M 100.63481903076172 79.21331024169922 C 101.64839172363281 90.38228607177734 96.92044830322266 88.2166976928711 -6.303906440734863 79.36372375488281 C -12.52544116973877 71.89083099365234 -13.002153396606445 67.0443115234375 -10.88454532623291 -3.572329521179199 C 9.054769515991211 -11.599822044372559 12.908974647521973 -12.005744934082031 90.61632537841797 -11.160877227783203 C 99.97949981689453 -19.839183807373047 104.92044067382812 -24.20177459716797 100.63481903076172 79.21331024169922" fill="rgb(134, 140, 139)" opacity="1.0" stroke="rgb(251, 1, 146)" stroke-linecap="round" stroke-linejoin="round" stroke-opacity="0.20096508" stroke-width="0.0"/>
    <path d="M 228.0019989013672 -9.646618843078613 C 228.57911682128906 125.83618927001953 225.98670959472656 124.4312973022461 261.8009338378906 151.25282287597656 C 86.97964477539062 186.3465118408203 66.36253356933594 167.1859130859375 64.22935485839844 132.02166748046875 C 74.00588989257812 -2.8838703632354736 76.94646453857422 -7.672595977783203 87.46788787841797 -11.369909286499023 C 211.08152770996094 -15.672914505004883 217.64730834960938 -16.75246238708496 228.0019989013672 -9.646618843078613" fill="rgb(133, 140, 138)" opacity="1.0" stroke="rgb(157, 138, 48)" stroke-linecap="round" stroke-linejoin="round" stroke-opacity="0.43572703" stroke-width="0.0"/>
    <path d="M 439.1167907714844 385.3174133300781 C 410.9790954589844 448.3248291015625 459.0782165527344 406.15850830078125 442.2657775878906 475.9949645996094 C 362.4193115234375 455.16729736328125 353.707763671875 466.22930908203125 352.32196044921875 447.84661865234375 C 372.6944274902344 374.7322082519531 388.8601379394531 379.942138671875 433.13916015625 377.2198181152344 C 444.9691467285156 376.34014892578125 450.0515441894531 377.0207824707031 439.1167907714844 385.3174133300781" fill="rgb(245, 121, 13)" opacity="0.9003382" stroke="rgb(167, 154, 141)" stroke-linecap="round" stroke-linejoin="round" stroke-opacity="0.21166478" stroke-width="0.0"/>
    <path d="M 432.54937744140625 385.7738037109375 C 432.2814025878906 401.709716796875 432.8809509277344 405.6753234863281 360.5611267089844 462.733642578125 C 343.81048583984375 431.486328125 332.4556884765625 404.1064453125 353.1699523925781 338.3416748046875 C 364.8692932128906 337.2976989746094 362.8034973144531 333.6412048339844 389.38690185546875 334.22442626953125 C 431.246826171875 347.94342041015625 429.953857421875 355.7720031738281 432.54937744140625 385.7738037109375" fill="rgb(255, 134, 8)" opacity="0.9450303" stroke="rgb(105, 180, 23)" stroke-linecap="round" stroke-linejoin="round" stroke-opacity="0.47024345" stroke-width="0.0"/>
    <path d="M 414.1923828125 424.6189880371094 C 445.14398193359375 499.26702880859375 479.89306640625 504.330322265625 359.9671630859375 502.1164245605469 C 340.54119873046875 434.19342041015625 384.1239013671875 457.8005065917969 396.58245849609375 487.0952453613281 C 370.2355651855469 458.83074951171875 373.7441711425781 423.6904296875 382.1216735839844 417.0205078125 C 397.5270080566406 410.9085388183594 394.4438171386719 415.3952331542969 414.1923828125 424.6189880371094" fill="rgb(18, 16, 11)" opacity="0.69177777" stroke="rgb(225, 154, 132)" stroke-linecap="round" stroke-linejoin="round" stroke-opacity="0.22701062" stroke-width="0.0"/>
    <path d="M 391.0625305175781 338.6445007324219 C 387.6416931152344 406.06671142578125 387.380615234375 411.1965637207031 362.6410827636719 426.2895202636719 C 290.9757995605469 400.78070068359375 321.7430419921875 414.805419921875 329.4931945800781 395.7875671386719 C 331.8167419433594 312.70147705078125 327.49676513671875 344.53082275390625 337.42620849609375 341.2396545410156 C 373.22686767578125 328.90875244140625 387.97332763671875 339.6775207519531 391.0625305175781 338.6445007324219" fill="rgb(254, 121, 9)" opacity="0.96434516" stroke="rgb(236, 159, 132)" stroke-linecap="round" stroke-linejoin="round" stroke-opacity="0.9205877" stroke-width="0.0"/>
    <path d="M 514.8856811523438 447.4261169433594 C 508.76141357421875 474.0329895019531 507.1453857421875 477.1483459472656 505.4284362792969 482.8536682128906 C 468.1474609375 466.8851318359375 466.4101257324219 455.15252685546875 457.8749084472656 435.69940185546875 C 453.71441650390625 419.5843505859375 450.995361328125 434.34820556640625 481.8193054199219 416.3465881347656 C 495.1081848144531 432.921630859375 511.5037536621094 425.1356201171875 514.8856811523438 447.4261169433594" fill="rgb(249, 121, 15)" opacity="0.9334949" stroke="rgb(1, 8, 70)" stroke-linecap="round" stroke-linejoin="round" stroke-opacity="0.22047542" stroke-width="0.0"/>
    <path d="M 415.8542175292969 496.1158447265625 C 474.2277526855469 497.8895263671875 557.311767578125 493.34814453125 525.9696044921875 503.3783874511719 C 294.6558837890625 503.98968505859375 275.5422058105469 503.9035949707031 401.5032653808594 492.47576904296875 C 412.3777770996094 481.27130126953125 409.6820373535156 465.21551513671875 408.0164794921875 469.6390686035156 C 423.0810241699219 479.8326110839844 417.4803161621094 465.8885192871094 415.8542175292969 496.1158447265625" fill="rgb(10, 10, 11)" opacity="1.0" stroke="rgb(69, 177, 133)" stroke-linecap="round" stroke-linejoin="round" stroke-opacity="0.599034" stroke-width="0.0"/>
    <path d="M 582.015625 473.9694519042969 C 557.8412475585938 483.2928466796875 535.7731323242188 493.7436218261719 515.4552612304688 485.7286071777344 C 495.0645446777344 480.2873840332031 485.71685791015625 469.1270446777344 482.1724548339844 428.1275634765625 C 481.5031433105469 425.5873107910156 487.4600524902344 420.37322998046875 512.4952392578125 434.5373840332031 C 540.6513671875 449.1834716796875 570.1219482421875 464.8170166015625 582.015625 473.9694519042969" fill="rgb(253, 126, 11)" opacity="0.96836644" stroke="rgb(145, 14, 132)" stroke-linecap="round" stroke-linejoin="round" stroke-opacity="0.33592916" stroke-width="0.0"/>
    <path d="M 461.2413330078125 364.5129089355469 C 464.3380432128906 387.01776123046875 456.270751953125 407.1201171875 426.290283203125 419.9882507324219 C 402.0641784667969 407.7980651855469 408.3648986816406 395.9167785644531 399.1882019042969 356.0243225097656 C 388.0242919921875 335.8557434082031 388.8890686035156 331.6847229003906 390.57177734375 334.3100280761719 C 441.94366455078125 333.11431884765625 453.9148254394531 354.4765319824219 461.2413330078125 364.5129089355469" fill="rgb(250, 125, 12)" opacity="0.9685395" stroke="rgb(93, 64, 49)" stroke-linecap="round" stroke-linejoin="round" stroke-opacity="0.045321107" stroke-width="0.0"/>
  </g>
</svg>
