<?xml version="1.0" ?>
<svg height="768" version="1.1" width="768" xmlns="http://www.w3.org/2000/svg">
  <defs/>
  <g>
    <path d="M 731.5277099609375 853.476806640625 C 612.2119750976562 783.1897583007812 597.47802734375 786.5706787109375 -34.55317306518555 766.82861328125 C 6.704207420349121 394.2216796875 44.13496017456055 252.08770751953125 113.93177032470703 102.11003875732422 C 880.3829345703125 149.05966186523438 890.44091796875 241.4701690673828 842.1983642578125 369.5521545410156 C 791.308837890625 713.9173583984375 773.265625 778.7623901367188 731.5277099609375 853.476806640625" fill="rgb(125, 125, 120)" opacity="0.96406204" stroke="rgb(186, 99, 151)" stroke-linecap="round" stroke-linejoin="round" stroke-opacity="0.8459669" stroke-width="0.0"/>
    <path d="M 780.9959106445312 190.72389221191406 C 788.2894287109375 217.3860626220703 787.14306640625 220.7048797607422 665.1908569335938 201.63729858398438 C 671.7325439453125 162.0108642578125 652.2832641601562 164.1605987548828 618.391845703125 -5.539572238922119 C 665.167236328125 -15.053257942199707 696.4833984375 -14.540163040161133 816.2282104492188 -4.690789699554443 C 780.4672241210938 55.8378791809082 781.3885498046875 59.891090393066406 780.9959106445312 190.72389221191406" fill="rgb(134, 140, 138)" opacity="1.0" stroke="rgb(215, 12, 65)" stroke-linecap="round" stroke-linejoin="round" stroke-opacity="0.3312705" stroke-width="0.0"/>
    <path d="M 710.766845703125 193.09820556640625 C 707.7241821289062 202.04383850097656 696.779052734375 196.77366638183594 281.4621887207031 190.81253051757812 C 201.3863067626953 183.33712768554688 188.952392578125 127.74559020996094 238.62960815429688 -90.1191635131836 C 536.8340454101562 -22.09197235107422 570.0555419921875 -16.122549057006836 736.10595703125 13.731501579284668 C 703.3720092773438 64.33687591552734 703.0158081054688 70.95047760009766 710.766845703125 193.09820556640625" fill="rgb(134, 140, 138)" opacity="1.0" stroke="rgb(56, 154, 202)" stroke-linecap="round" stroke-linejoin="round" stroke-opacity="0.784891" stroke-width="0.0"/>
    <path d="M 104.60356903076172 144.32801818847656 C 109.31690216064453 141.5803680419922 142.99957275390625 126.31118774414062 322.7567443847656 280.931884765625 C 185.49481201171875 357.1883544921875 281.7574768066406 458.435302734375 0.7659796476364136 530.19384765625 C -42.71547317504883 57.035484313964844 -41.47966384887695 52.29427719116211 71.81029510498047 51.993560791015625 C 85.44357299804688 57.12447738647461 96.71077728271484 55.60520935058594 104.60356903076172 144.32801818847656" fill="rgb(134, 141, 139)" opacity="1.0" stroke="rgb(181, 14, 178)" stroke-linecap="round" stroke-linejoin="round" stroke-opacity="0.5950336" stroke-width="0.0"/>
    <path d="M 330.1699523925781 396.5274658203125 C 314.22674560546875 414.0069274902344 322.401611328125 402.8581848144531 287.7474670410156 414.91082763671875 C 237.97862243652344 432.4952392578125 248.77096557617188 399.68975830078125 263.1091613769531 415.1405029296875 C 283.22357177734375 383.9212951660156 308.0646057128906 393.00311279296875 329.9287109375 338.1008605957031 C 333.3799133300781 344.40765380859375 327.90130615234375 354.5837707519531 330.1699523925781 396.5274658203125" fill="rgb(254, 251, 242)" opacity="0.99896425" stroke="rgb(67, 161, 14)" stroke-linecap="round" stroke-linejoin="round" stroke-opacity="0.92941856" stroke-width="0.0"/>
    <path d="M 100.63481903076172 79.21331024169922 C 101.64839172363281 90.38228607177734 96.92044830322266 88.2166976928711 -6.303906440734863 79.36372375488281 C -12.52544116973877 71.89083099365234 -13.002153396606445 67.0443115234375 -10.88454532623291 -3.572329521179199 C 9.054769515991211 -11.599822044372559 12.908974647521973 -12.005744934082031 90.61632537841797 -11.160877227783203 C 99.97949981689453 -19.839183807373047 104.92044067382812 -24.20177459716797 100.63481903076172 79.21331024169922" fill="rgb(134, 140, 139)" opacity="1.0" stroke="rgb(251, 1, 146)" stroke-linecap="round" stroke-linejoin="round" stroke-opacity="0.20096508" stroke-width="0.0"/>
    <path d="M 228.00962829589844 -9.642936706542969 C 228.5714874267578 125.84000396728516 225.9720458984375 124.4312973022461 262.01068115234375 151.36343383789062 C 87.0428237915039 186.52474975585938 66.36847686767578 167.24188232421875 64.22935485839844 132.03663635253906 C 74.00588989257812 -2.8838703632354736 76.94646453857422 -7.672595977783203 87.46788787841797 -11.369909286499023 C 211.08152770996094 -15.672914505004883 217.64730834960938 -16.75246238708496 228.00962829589844 -9.642936706542969" fill="rgb(133, 140, 138)" opacity="1.0" stroke="rgb(157, 138, 48)" stroke-linecap="round" stroke-linejoin="round" stroke-opacity="0.43572703" stroke-width="0.0"/>
    <path d="M 431.3128662109375 372.8094177246094 C 416.72515869140625 457.4794921875 458.5702209472656 403.22412109375 441.71075439453125 478.6856994628906 C 361.56512451171875 456.3658752441406 353.6671447753906 468.0611572265625 353.38201904296875 444.5959777832031 C 371.31683349609375 373.9344787597656 388.7718811035156 379.9288635253906 433.1440124511719 377.2198181152344 C 444.9691467285156 376.34014892578125 450.0515441894531 377.0207824707031 431.3128662109375 372.8094177246094" fill="rgb(253, 120, 5)" opacity="0.96170455" stroke="rgb(167, 154, 141)" stroke-linecap="round" stroke-linejoin="round" stroke-opacity="0.21166478" stroke-width="0.0"/>
    <path d="M 432.4677734375 384.1715393066406 C 431.1024169921875 399.83245849609375 430.9881286621094 404.27044677734375 357.7054138183594 467.5967712402344 C 346.7891845703125 426.2025451660156 327.76165771484375 400.65814208984375 351.19610595703125 343.0109558105469 C 364.9659118652344 335.4178466796875 361.1885070800781 333.9667663574219 388.2653503417969 333.64935302734375 C 431.542724609375 347.8326416015625 430.1103515625 355.3324890136719 432.4677734375 384.1715393066406" fill="rgb(249, 124, 16)" opacity="0.70410174" stroke="rgb(105, 180, 23)" stroke-linecap="round" stroke-linejoin="round" stroke-opacity="0.47024345" stroke-width="0.0"/>
    <path d="M 405.5035400390625 452.6246337890625 C 468.3029479980469 499.2897644042969 527.6426391601562 501.64666748046875 356.92950439453125 503.3211975097656 C 349.07733154296875 435.0911865234375 390.7915344238281 460.09527587890625 387.5259704589844 497.0609130859375 C 373.4143981933594 476.7772216796875 382.63592529296875 419.2461853027344 380.3924255371094 418.40069580078125 C 404.6184997558594 407.4850158691406 386.9756774902344 418.68011474609375 405.5035400390625 452.6246337890625" fill="rgb(98, 96, 98)" opacity="0.66956323" stroke="rgb(225, 154, 132)" stroke-linecap="round" stroke-linejoin="round" stroke-opacity="0.22701062" stroke-width="0.0"/>
    <path d="M 391.3194885253906 332.46575927734375 C 387.94793701171875 406.59381103515625 388.4516296386719 412.0110168457031 363.58349609375 426.61492919921875 C 290.3681335449219 401.04962158203125 321.8733215332031 414.703125 329.4697265625 395.7842712402344 C 331.70819091796875 311.90130615234375 327.53759765625 344.44744873046875 337.1833190917969 341.0453186035156 C 369.5246276855469 329.58343505859375 389.42041015625 339.236083984375 391.3194885253906 332.46575927734375" fill="rgb(253, 121, 9)" opacity="0.9706716" stroke="rgb(236, 159, 132)" stroke-linecap="round" stroke-linejoin="round" stroke-opacity="0.9205877" stroke-width="0.0"/>
    <path d="M 516.3460693359375 447.7958679199219 C 509.10455322265625 474.2572937011719 506.4448547363281 477.0231018066406 505.3712158203125 483.0196838378906 C 465.7258605957031 466.4515075683594 466.1998596191406 452.9085693359375 458.0411376953125 436.42816162109375 C 453.8558349609375 418.8878173828125 450.21380615234375 434.5021057128906 481.7300720214844 416.2535095214844 C 494.0522155761719 432.0505676269531 511.953125 426.7972717285156 516.3460693359375 447.7958679199219" fill="rgb(248, 120, 15)" opacity="0.93177885" stroke="rgb(1, 8, 70)" stroke-linecap="round" stroke-linejoin="round" stroke-opacity="0.22047542" stroke-width="0.0"/>
    <path d="M 416.50811767578125 496.69482421875 C 479.759765625 497.7867126464844 548.6612548828125 493.0442810058594 528.2357788085938 503.4284362792969 C 295.9803771972656 503.5564880371094 277.48883056640625 505.0309753417969 405.7690124511719 492.3827819824219 C 412.02825927734375 489.22698974609375 405.4794616699219 466.030029296875 410.8224182128906 469.0828857421875 C 421.26043701171875 476.17559814453125 423.572998046875 464.069580078125 416.50811767578125 496.69482421875" fill="rgb(0, 0, 0)" opacity="0.9432737" stroke="rgb(69, 177, 133)" stroke-linecap="round" stroke-linejoin="round" stroke-opacity="0.599034" stroke-width="0.0"/>
    <path d="M 582.1764526367188 473.9529113769531 C 559.453369140625 482.6125183105469 535.9876098632812 494.131591796875 515.2069702148438 485.63037109375 C 496.0159912109375 481.0113525390625 484.1077575683594 466.7074279785156 479.404541015625 419.251708984375 C 479.89764404296875 426.3782958984375 488.63739013671875 420.7796630859375 511.1321716308594 433.89862060546875 C 540.19873046875 448.73248291015625 572.55322265625 465.96734619140625 582.1764526367188 473.9529113769531" fill="rgb(253, 125, 10)" opacity="0.96110344" stroke="rgb(145, 14, 132)" stroke-linecap="round" stroke-linejoin="round" stroke-opacity="0.33592916" stroke-width="0.0"/>
    <path d="M 461.3881530761719 364.35443115234375 C 464.1223449707031 387.50830078125 456.7662048339844 407.08209228515625 425.47503662109375 420.7013244628906 C 400.9217834472656 408.3513488769531 408.1662292480469 396.1071472167969 397.9545593261719 359.4337158203125 C 386.5582580566406 336.489013671875 389.7646484375 330.4140625 389.5959777832031 334.3976745605469 C 441.27923583984375 332.6639099121094 453.6256103515625 354.01483154296875 461.3881530761719 364.35443115234375" fill="rgb(251, 124, 10)" opacity="0.94873875" stroke="rgb(93, 64, 49)" stroke-linecap="round" stroke-linejoin="round" stroke-opacity="0.045321107" stroke-width="0.0"/>
    <path d="M 316.6117248535156 357.076416015625 C 309.2875671386719 384.50921630859375 301.986083984375 388.9666442871094 268.24713134765625 393.6006164550781 C 267.5287170410156 401.28240966796875 266.9475402832031 394.8668212890625 268.6492004394531 361.6484375 C 273.1705627441406 362.2911376953125 260.47955322265625 321.3022155761719 271.4134826660156 332.4970397949219 C 291.8082580566406 366.66455078125 294.9100341796875 367.88525390625 316.6117248535156 357.076416015625" fill="rgb(252, 242, 202)" opacity="1.0" stroke="rgb(158, 235, 61)" stroke-linecap="round" stroke-linejoin="round" stroke-opacity="0.14556226" stroke-width="0.0"/>
    <path d="M 428.7460021972656 430.9842529296875 C 425.9931335449219 467.3678894042969 428.2330627441406 477.64581298828125 425.43450927734375 465.32147216796875 C 410.483642578125 484.4162292480469 405.64080810546875 455.2532043457031 401.2414855957031 441.5495300292969 C 391.6467590332031 418.89111328125 392.35345458984375 416.5491943359375 391.0511474609375 412.90411376953125 C 431.1571960449219 428.95849609375 433.1299133300781 411.1656494140625 428.7460021972656 430.9842529296875" fill="rgb(249, 132, 16)" opacity="0.9740894" stroke="rgb(186, 213, 222)" stroke-linecap="round" stroke-linejoin="round" stroke-opacity="0.78087103" stroke-width="0.0"/>
    <path d="M 381.1816711425781 413.8594665527344 C 381.9362487792969 424.9889831542969 380.8416442871094 441.69287109375 379.6485900878906 452.4560241699219 C 345.46160888671875 436.3849182128906 363.7728576660156 478.20196533203125 343.4034729003906 418.118408203125 C 290.80908203125 397.7803955078125 363.76904296875 397.11041259765625 378.03521728515625 410.1236877441406 C 379.6044616699219 424.7171630859375 383.19110107421875 437.6367492675781 381.1816711425781 413.8594665527344" fill="rgb(251, 125, 3)" opacity="0.89226204" stroke="rgb(110, 84, 250)" stroke-linecap="round" stroke-linejoin="round" stroke-opacity="0.19039516" stroke-width="0.0"/>
    <path d="M 264.4184265136719 411.27398681640625 C 268.10955810546875 415.4100646972656 266.77154541015625 417.0665283203125 262.61083984375 413.7740478515625 C 260.8583068847656 414.49871826171875 256.4762268066406 410.13275146484375 252.4630126953125 409.3245849609375 C 264.4379577636719 409.1574401855469 257.2901611328125 396.4267883300781 277.4657287597656 394.5574035644531 C 274.3559265136719 396.7666931152344 279.394775390625 400.8212585449219 264.4184265136719 411.27398681640625" fill="rgb(13, 0, 0)" opacity="0.8656801" stroke="rgb(134, 245, 181)" stroke-linecap="round" stroke-linejoin="round" stroke-opacity="0.7360547" stroke-width="0.0"/>
    <path d="M 378.3407287597656 454.4039611816406 C 379.27752685546875 471.00482177734375 384.20611572265625 465.0470886230469 373.07476806640625 466.89361572265625 C 373.6437072753906 463.58538818359375 367.7625732421875 464.402587890625 369.47113037109375 451.2713928222656 C 374.9859313964844 462.13214111328125 369.9410705566406 448.3192138671875 375.2878112792969 458.7806091308594 C 375.4788513183594 450.2653503417969 376.1358642578125 463.364501953125 378.3407287597656 454.4039611816406" fill="rgb(251, 144, 39)" opacity="0.7627139" stroke="rgb(142, 213, 34)" stroke-linecap="round" stroke-linejoin="round" stroke-opacity="0.6861953" stroke-width="0.0"/>
    <path d="M 378.3853454589844 467.27490234375 C 395.7119445800781 499.513671875 383.9132385253906 504.8607177734375 357.89654541015625 502.9550476074219 C 355.3330993652344 464.48333740234375 357.2215270996094 465.9757080078125 352.3133850097656 454.8490295410156 C 358.3974609375 468.4192810058594 353.734619140625 460.4790954589844 353.5347900390625 454.8434143066406 C 359.5008544921875 464.1884765625 366.86474609375 458.1753234863281 378.3853454589844 467.27490234375" fill="rgb(0, 0, 1)" opacity="0.9716761" stroke="rgb(38, 36, 231)" stroke-linecap="round" stroke-linejoin="round" stroke-opacity="0.41107637" stroke-width="0.0"/>
    <path d="M 366.9897155761719 490.2292785644531 C 364.4576721191406 496.152099609375 358.2996826171875 498.2293395996094 359.2431640625 496.56671142578125 C 361.4347229003906 499.892822265625 354.90380859375 494.8387756347656 358.4263916015625 500.7099304199219 C 364.9156799316406 497.4315490722656 365.6006774902344 498.3502197265625 367.65826416015625 493.3482971191406 C 367.1519470214844 484.3164978027344 367.0224304199219 481.7648620605469 366.9897155761719 490.2292785644531" fill="rgb(204, 151, 84)" opacity="0.9232959" stroke="rgb(241, 193, 12)" stroke-linecap="round" stroke-linejoin="round" stroke-opacity="0.13479766" stroke-width="0.0"/>
    <path d="M 368.30633544921875 460.0354919433594 C 364.95489501953125 460.6040344238281 357.8561096191406 458.9834899902344 363.2863464355469 457.4098205566406 C 367.6006164550781 455.4358825683594 363.8093566894531 457.0884704589844 360.8550720214844 458.5191955566406 C 351.7899475097656 457.93267822265625 354.9892272949219 442.7579345703125 362.10565185546875 443.1689147949219 C 366.1995849609375 453.3663635253906 367.1060791015625 454.80462646484375 368.30633544921875 460.0354919433594" fill="rgb(255, 157, 15)" opacity="0.8295242" stroke="rgb(55, 11, 233)" stroke-linecap="round" stroke-linejoin="round" stroke-opacity="0.7047128" stroke-width="0.0"/>
    <path d="M 365.47772216796875 446.91741943359375 C 368.8929443359375 461.105224609375 388.7773742675781 481.80682373046875 365.9271240234375 470.7095031738281 C 367.06158447265625 458.77227783203125 366.1744079589844 441.7708740234375 366.2243347167969 449.0517578125 C 373.2610778808594 468.1561584472656 375.408447265625 466.25439453125 369.75067138671875 456.3174133300781 C 369.6896057128906 458.27752685546875 368.83160400390625 457.66619873046875 365.47772216796875 446.91741943359375" fill="rgb(1, 0, 0)" opacity="0.86869115" stroke="rgb(74, 0, 75)" stroke-linecap="round" stroke-linejoin="round" stroke-opacity="0.77200115" stroke-width="0.0"/>
    <path d="M 289.5074768066406 390.6048889160156 C 270.0845642089844 408.0965881347656 261.84906005859375 415.67657470703125 265.0731201171875 409.662841796875 C 255.22039794921875 408.8518371582031 262.081298828125 404.30792236328125 264.38446044921875 401.4599914550781 C 259.8880310058594 405.4260559082031 263.89215087890625 399.9184265136719 266.5294494628906 395.1335144042969 C 273.7912902832031 371.740966796875 284.4134216308594 374.9095764160156 289.5074768066406 390.6048889160156" fill="rgb(255, 98, 24)" opacity="0.6763229" stroke="rgb(237, 231, 140)" stroke-linecap="round" stroke-linejoin="round" stroke-opacity="0.65921414" stroke-width="0.0"/>
    <path d="M 408.2368469238281 497.5846862792969 C 392.6564636230469 497.34454345703125 363.0567932128906 497.889404296875 386.267822265625 498.5362854003906 C 372.34454345703125 499.51190185546875 383.1194763183594 497.3564147949219 374.8211364746094 477.4607849121094 C 367.3340148925781 496.9188537597656 381.2591552734375 493.80133056640625 382.4496154785156 420.1582336425781 C 388.42529296875 399.84796142578125 413.15631103515625 466.4186706542969 408.2368469238281 497.5846862792969" fill="rgb(92, 89, 86)" opacity="0.99330795" stroke="rgb(63, 60, 109)" stroke-linecap="round" stroke-linejoin="round" stroke-opacity="0.03931712" stroke-width="0.0"/>
    <path d="M 302.5915222167969 377.899658203125 C 302.3094177246094 374.0509033203125 305.2174377441406 374.4573974609375 306.3099365234375 379.8756408691406 C 296.5370178222656 386.7020263671875 279.8999328613281 395.813232421875 280.5655517578125 387.7947998046875 C 280.53961181640625 361.782470703125 282.4764404296875 363.26153564453125 292.58734130859375 355.44903564453125 C 323.86749267578125 350.7279968261719 314.1966552734375 386.0570983886719 302.5915222167969 377.899658203125" fill="rgb(255, 124, 20)" opacity="0.9025659" stroke="rgb(180, 75, 209)" stroke-linecap="round" stroke-linejoin="round" stroke-opacity="0.43087858" stroke-width="0.0"/>
    <path d="M 294.05975341796875 385.9251708984375 C 296.7916564941406 387.43731689453125 291.4513244628906 392.17474365234375 286.67694091796875 394.736083984375 C 266.4024963378906 409.58929443359375 251.3231201171875 417.1720275878906 268.8080139160156 393.2671203613281 C 261.79571533203125 346.8435974121094 273.76324462890625 366.34893798828125 277.9013671875 360.0711364746094 C 303.40582275390625 372.2223815917969 309.064208984375 381.33685302734375 294.05975341796875 385.9251708984375" fill="rgb(253, 130, 17)" opacity="0.96127814" stroke="rgb(1, 56, 121)" stroke-linecap="round" stroke-linejoin="round" stroke-opacity="0.42367226" stroke-width="0.0"/>
    <path d="M 438.4306335449219 477.013916015625 C 443.1306457519531 482.7078552246094 442.4660339355469 463.97039794921875 442.4515075683594 501.7696228027344 C 419.0242004394531 502.6143798828125 423.4145812988281 513.4237060546875 426.3603515625 451.7677917480469 C 438.08221435546875 471.9811096191406 437.8841857910156 476.8049621582031 439.33453369140625 478.18023681640625 C 437.6464538574219 477.9179382324219 449.9344787597656 479.43035888671875 438.4306335449219 477.013916015625" fill="rgb(0, 0, 0)" opacity="0.9663095" stroke="rgb(189, 231, 16)" stroke-linecap="round" stroke-linejoin="round" stroke-opacity="0.9765613" stroke-width="0.0"/>
    <path d="M 340.4360656738281 497.7428283691406 C 347.01513671875 497.6092529296875 326.82403564453125 497.6361389160156 342.00738525390625 497.0410461425781 C 329.53802490234375 498.4229431152344 325.3164367675781 495.8426208496094 328.1768798828125 503.42938232421875 C 330.12237548828125 502.5431823730469 345.10723876953125 505.8937683105469 372.27294921875 498.8392333984375 C 318.0915222167969 497.85235595703125 322.4883117675781 497.614501953125 340.4360656738281 497.7428283691406" fill="rgb(1, 2, 4)" opacity="0.81818163" stroke="rgb(92, 146, 213)" stroke-linecap="round" stroke-linejoin="round" stroke-opacity="0.69483376" stroke-width="0.0"/>
    <path d="M 309.7152099609375 374.1302490234375 C 305.9394836425781 379.2435607910156 305.21160888671875 381.5150146484375 309.8279113769531 378.3345031738281 C 308.7916564941406 381.0374450683594 279.35882568359375 381.7776184082031 267.8084716796875 330.07135009765625 C 305.3550109863281 354.04913330078125 287.7407531738281 387.73876953125 315.7408142089844 349.4404296875 C 341.6560363769531 324.0404968261719 322.9235534667969 358.2127990722656 309.7152099609375 374.1302490234375" fill="rgb(253, 105, 8)" opacity="0.8917545" stroke="rgb(116, 235, 94)" stroke-linecap="round" stroke-linejoin="round" stroke-opacity="0.990951" stroke-width="0.0"/>
  </g>
</svg>
