<?xml version="1.0" ?>
<svg height="768" version="1.1" width="768" xmlns="http://www.w3.org/2000/svg">
  <defs/>
  <g>
    <path d="M 731.5277099609375 853.476806640625 C 612.2119750976562 783.1897583007812 597.47802734375 786.5706787109375 -34.55317306518555 766.8514404296875 C 6.704207420349121 394.2216796875 44.13496017456055 252.08770751953125 113.93177032470703 102.11003875732422 C 880.3829345703125 149.05966186523438 890.44091796875 241.4701690673828 842.1983642578125 369.5521545410156 C 791.308837890625 713.9173583984375 773.265625 778.7623901367188 731.5277099609375 853.476806640625" fill="rgb(123, 123, 121)" opacity="0.9656857" stroke="rgb(186, 99, 151)" stroke-linecap="round" stroke-linejoin="round" stroke-opacity="0.8459669" stroke-width="0.0"/>
    <path d="M 780.9959106445312 190.75013732910156 C 788.2894287109375 217.40850830078125 787.1378784179688 220.7205352783203 665.1748046875 201.64356994628906 C 671.7325439453125 162.0108642578125 652.2832641601562 164.1605987548828 618.391845703125 -5.539572238922119 C 665.167236328125 -15.053257942199707 696.4833984375 -14.540163040161133 816.2282104492188 -4.690789699554443 C 780.4672241210938 55.8378791809082 781.3885498046875 59.891090393066406 780.9959106445312 190.75013732910156" fill="rgb(133, 139, 136)" opacity="0.99619997" stroke="rgb(215, 12, 65)" stroke-linecap="round" stroke-linejoin="round" stroke-opacity="0.3312705" stroke-width="0.0"/>
    <path d="M 710.766845703125 193.12806701660156 C 707.7241821289062 202.09878540039062 696.777587890625 196.8908233642578 281.4002990722656 190.9731903076172 C 201.37965393066406 183.40432739257812 188.952392578125 127.761962890625 238.62960815429688 -90.11906433105469 C 536.8340454101562 -22.091903686523438 570.0555419921875 -16.12163543701172 736.0458374023438 13.73366928100586 C 703.368896484375 64.33708953857422 703.0158081054688 70.94999694824219 710.766845703125 193.12806701660156" fill="rgb(134, 140, 138)" opacity="1.0" stroke="rgb(56, 154, 202)" stroke-linecap="round" stroke-linejoin="round" stroke-opacity="0.784891" stroke-width="0.0"/>
    <path d="M 104.60406494140625 144.2688446044922 C 109.35061645507812 141.43336486816406 143.1021728515625 126.12010192871094 323.3471984863281 280.9527893066406 C 186.60357666015625 357.2611389160156 282.5959167480469 458.51739501953125 0.9393488764762878 530.386474609375 C -42.73835754394531 57.03570556640625 -41.47966384887695 52.29427719116211 71.81029510498047 51.993560791015625 C 85.44357299804688 57.12447738647461 96.71077728271484 55.60520935058594 104.60406494140625 144.2688446044922" fill="rgb(134, 141, 139)" opacity="1.0" stroke="rgb(181, 14, 178)" stroke-linecap="round" stroke-linejoin="round" stroke-opacity="0.5950336" stroke-width="0.0"/>
    <path d="M 330.1187438964844 396.525390625 C 314.04931640625 414.5484313964844 321.772705078125 402.5444030761719 288.20245361328125 414.9618835449219 C 232.20176696777344 432.4377746582031 247.9112091064453 400.4539489746094 263.246826171875 415.0352783203125 C 283.12481689453125 383.8307800292969 308.35894775390625 393.00628662109375 329.78179931640625 337.7161865234375 C 333.87548828125 344.7472229003906 327.8464660644531 353.4805603027344 330.1187438964844 396.525390625" fill="rgb(255, 251, 242)" opacity="0.9998399" stroke="rgb(67, 161, 14)" stroke-linecap="round" stroke-linejoin="round" stroke-opacity="0.92941856" stroke-width="0.0"/>
    <path d="M 100.63481903076172 79.21331024169922 C 101.64839172363281 90.38228607177734 96.92044830322266 88.2166976928711 -6.303906440734863 79.36372375488281 C -12.52544116973877 71.89083099365234 -13.002153396606445 67.0443115234375 -10.88454532623291 -3.572329521179199 C 9.054769515991211 -11.599822044372559 12.908974647521973 -12.005744934082031 90.61632537841797 -11.160877227783203 C 99.97949981689453 -19.839183807373047 104.92044067382812 -24.20177459716797 100.63481903076172 79.21331024169922" fill="rgb(134, 140, 139)" opacity="1.0" stroke="rgb(251, 1, 146)" stroke-linecap="round" stroke-linejoin="round" stroke-opacity="0.20096508" stroke-width="0.0"/>
    <path d="M 228.01080322265625 -9.641375541687012 C 228.56793212890625 125.8404312133789 225.96481323242188 124.4312973022461 262.1595153808594 151.4315185546875 C 87.07467651367188 186.6082305908203 66.37115478515625 167.26438903808594 64.22935485839844 132.0447998046875 C 74.00588989257812 -2.8838703632354736 76.94646453857422 -7.672595977783203 87.46788787841797 -11.369909286499023 C 211.08152770996094 -15.672914505004883 217.64730834960938 -16.75246238708496 228.01080322265625 -9.641375541687012" fill="rgb(133, 140, 138)" opacity="0.99801904" stroke="rgb(157, 138, 48)" stroke-linecap="round" stroke-linejoin="round" stroke-opacity="0.43572703" stroke-width="0.0"/>
    <path d="M 427.6488037109375 366.41387939453125 C 417.8127746582031 456.0177917480469 460.76641845703125 406.47430419921875 442.55169677734375 477.8974609375 C 361.4139404296875 456.8774108886719 353.7870178222656 470.70977783203125 353.7927551269531 445.35504150390625 C 371.1952209472656 373.89752197265625 388.80169677734375 379.943115234375 433.15802001953125 377.2198181152344 C 444.9691467285156 376.34014892578125 450.0515441894531 377.0207824707031 427.6488037109375 366.41387939453125" fill="rgb(249, 116, 13)" opacity="0.93382716" stroke="rgb(167, 154, 141)" stroke-linecap="round" stroke-linejoin="round" stroke-opacity="0.21166478" stroke-width="0.0"/>
    <path d="M 432.5105285644531 384.4577331542969 C 431.3768310546875 400.2678527832031 431.59185791015625 404.7409973144531 358.0188903808594 467.8885192871094 C 346.4700012207031 426.22064208984375 326.8874816894531 401.2244873046875 350.83367919921875 341.30609130859375 C 365.4983215332031 335.6025695800781 361.0937194824219 334.08416748046875 388.66802978515625 333.4743957519531 C 431.3121643066406 348.4718933105469 430.17474365234375 355.1612243652344 432.5105285644531 384.4577331542969" fill="rgb(254, 128, 12)" opacity="0.6637383" stroke="rgb(105, 180, 23)" stroke-linecap="round" stroke-linejoin="round" stroke-opacity="0.47024345" stroke-width="0.0"/>
    <path d="M 428.87408447265625 411.4862365722656 C 497.7156982421875 473.77288818359375 564.7548217773438 507.39666748046875 357.3245544433594 503.90606689453125 C 347.74005126953125 435.0675964355469 392.2950134277344 459.4315185546875 383.0718078613281 498.44451904296875 C 375.23492431640625 482.5138854980469 382.7259216308594 421.9292297363281 380.32598876953125 418.045654296875 C 404.81744384765625 408.05169677734375 384.9531555175781 420.8955078125 428.87408447265625 411.4862365722656" fill="rgb(94, 88, 86)" opacity="0.6408803" stroke="rgb(225, 154, 132)" stroke-linecap="round" stroke-linejoin="round" stroke-opacity="0.22701062" stroke-width="0.0"/>
    <path d="M 391.5596618652344 332.2171936035156 C 388.05572509765625 406.7392272949219 388.73236083984375 412.1676940917969 360.6319274902344 428.07769775390625 C 292.3326416015625 398.70257568359375 320.53106689453125 415.82891845703125 329.4920349121094 395.83990478515625 C 331.6432800292969 308.1979675292969 328.1911315917969 343.413330078125 337.0497131347656 341.181884765625 C 367.325439453125 329.6521911621094 390.2822570800781 339.3575134277344 391.5596618652344 332.2171936035156" fill="rgb(255, 121, 9)" opacity="0.9613107" stroke="rgb(236, 159, 132)" stroke-linecap="round" stroke-linejoin="round" stroke-opacity="0.9205877" stroke-width="0.0"/>
    <path d="M 517.5654907226562 444.3797912597656 C 509.199462890625 474.345703125 505.7815856933594 476.9318542480469 505.3891906738281 482.97796630859375 C 465.2366943359375 465.9956970214844 465.90789794921875 452.0240783691406 457.88372802734375 436.57659912109375 C 454.0199279785156 418.8865051269531 449.9161376953125 434.5152282714844 481.95953369140625 416.28131103515625 C 495.7435607910156 431.0621337890625 512.1116943359375 428.8984375 517.5654907226562 444.3797912597656" fill="rgb(248, 121, 17)" opacity="0.94263554" stroke="rgb(1, 8, 70)" stroke-linecap="round" stroke-linejoin="round" stroke-opacity="0.22047542" stroke-width="0.0"/>
    <path d="M 416.3868103027344 496.77410888671875 C 485.2347106933594 497.8794250488281 547.1106567382812 492.9831237792969 528.4155883789062 503.4161376953125 C 296.322021484375 503.8277893066406 277.5085144042969 504.1183166503906 405.58453369140625 492.01922607421875 C 412.2960205078125 485.952392578125 405.2394104003906 466.2108154296875 411.1108703613281 469.3628234863281 C 421.3929748535156 475.7132873535156 423.61517333984375 464.3411865234375 416.3868103027344 496.77410888671875" fill="rgb(0, 0, 0)" opacity="0.946805" stroke="rgb(69, 177, 133)" stroke-linecap="round" stroke-linejoin="round" stroke-opacity="0.599034" stroke-width="0.0"/>
    <path d="M 582.8827514648438 473.9698791503906 C 559.9532470703125 482.0121154785156 536.4375 494.2770690917969 515.138427734375 485.6778564453125 C 496.5643005371094 481.5814514160156 482.46826171875 465.7445068359375 477.5354309082031 417.1781311035156 C 480.5119323730469 428.16058349609375 490.93365478515625 421.3275451660156 511.14569091796875 433.45703125 C 540.6312255859375 448.2068786621094 573.1488037109375 465.613525390625 582.8827514648438 473.9698791503906" fill="rgb(252, 125, 9)" opacity="0.9821848" stroke="rgb(145, 14, 132)" stroke-linecap="round" stroke-linejoin="round" stroke-opacity="0.33592916" stroke-width="0.0"/>
    <path d="M 462.2437744140625 364.6842956542969 C 464.2666931152344 385.4619445800781 456.504638671875 409.07208251953125 424.4709167480469 420.5832214355469 C 398.2462463378906 409.91363525390625 407.8002624511719 396.5303649902344 397.60247802734375 360.30059814453125 C 386.3099365234375 336.43218994140625 390.0889892578125 329.83636474609375 390.61822509765625 334.3404846191406 C 440.1967468261719 330.9866027832031 454.48663330078125 354.0857238769531 462.2437744140625 364.6842956542969" fill="rgb(250, 124, 10)" opacity="0.9724506" stroke="rgb(93, 64, 49)" stroke-linecap="round" stroke-linejoin="round" stroke-opacity="0.045321107" stroke-width="0.0"/>
    <path d="M 316.66876220703125 354.9804382324219 C 311.37115478515625 383.4495544433594 301.5429382324219 389.7248229980469 268.05511474609375 393.55987548828125 C 268.00189208984375 403.11865234375 266.1537780761719 395.0914611816406 269.62762451171875 355.27093505859375 C 271.3155822753906 362.7145080566406 260.7257995605469 318.6512756347656 272.5702819824219 332.84564208984375 C 294.2356262207031 367.32586669921875 294.2009582519531 371.0957336425781 316.66876220703125 354.9804382324219" fill="rgb(253, 243, 201)" opacity="1.0" stroke="rgb(158, 235, 61)" stroke-linecap="round" stroke-linejoin="round" stroke-opacity="0.14556226" stroke-width="0.0"/>
    <path d="M 430.4969482421875 436.88275146484375 C 421.6551208496094 463.9001770019531 425.2796936035156 476.1857604980469 424.4444885253906 466.1327209472656 C 411.5220947265625 483.9444274902344 404.1717834472656 453.601318359375 404.1316223144531 449.6976318359375 C 391.71453857421875 419.1774597167969 393.5282287597656 415.585693359375 389.2934875488281 410.809326171875 C 423.33843994140625 419.8305969238281 434.2721862792969 406.1976318359375 430.4969482421875 436.88275146484375" fill="rgb(253, 131, 10)" opacity="0.9794844" stroke="rgb(186, 213, 222)" stroke-linecap="round" stroke-linejoin="round" stroke-opacity="0.78087103" stroke-width="0.0"/>
    <path d="M 381.2514343261719 414.77081298828125 C 380.51458740234375 426.7413635253906 381.2298278808594 446.9192199707031 379.0685729980469 452.127197265625 C 350.2901611328125 439.6095275878906 364.1524963378906 482.8482360839844 343.93341064453125 419.53900146484375 C 291.7463684082031 401.9258728027344 368.866943359375 381.53314208984375 379.5421447753906 404.79486083984375 C 379.3885498046875 433.41864013671875 381.3329162597656 452.4236145019531 381.2514343261719 414.77081298828125" fill="rgb(250, 125, 5)" opacity="0.9994597" stroke="rgb(110, 84, 250)" stroke-linecap="round" stroke-linejoin="round" stroke-opacity="0.19039516" stroke-width="0.0"/>
    <path d="M 264.4872741699219 411.45269775390625 C 267.58294677734375 414.2595520019531 267.4073791503906 417.4955749511719 262.6737976074219 413.7349548339844 C 261.0345764160156 414.6437683105469 256.8489074707031 410.0093078613281 252.3150634765625 409.09100341796875 C 263.9451904296875 409.3626403808594 257.1139221191406 397.7285461425781 279.84405517578125 388.71124267578125 C 278.47100830078125 397.8411560058594 279.48614501953125 399.3230285644531 264.4872741699219 411.45269775390625" fill="rgb(14, 0, 0)" opacity="0.8768281" stroke="rgb(134, 245, 181)" stroke-linecap="round" stroke-linejoin="round" stroke-opacity="0.7360547" stroke-width="0.0"/>
    <path d="M 378.353271484375 454.8080749511719 C 378.9924011230469 475.04949951171875 382.410888671875 464.73748779296875 374.88739013671875 466.8269348144531 C 375.57427978515625 463.1925048828125 369.3333740234375 463.4215087890625 369.211669921875 450.9410400390625 C 375.849365234375 465.1090087890625 369.9508056640625 447.71014404296875 375.0045166015625 459.1517333984375 C 377.1718444824219 449.9360046386719 374.8985900878906 463.5982971191406 378.353271484375 454.8080749511719" fill="rgb(253, 150, 41)" opacity="0.6836493" stroke="rgb(142, 213, 34)" stroke-linecap="round" stroke-linejoin="round" stroke-opacity="0.6861953" stroke-width="0.0"/>
    <path d="M 377.7021179199219 467.17498779296875 C 389.5902099609375 506.4376220703125 387.3879089355469 504.25811767578125 357.9084777832031 502.8546447753906 C 355.6103820800781 468.06781005859375 357.1661682128906 466.9389953613281 353.0854797363281 453.47955322265625 C 356.4061279296875 470.8792724609375 354.37310791015625 459.628662109375 354.01763916015625 454.9761047363281 C 358.4825439453125 463.64892578125 368.90283203125 458.9751892089844 377.7021179199219 467.17498779296875" fill="rgb(0, 0, 1)" opacity="0.98275733" stroke="rgb(38, 36, 231)" stroke-linecap="round" stroke-linejoin="round" stroke-opacity="0.41107637" stroke-width="0.0"/>
    <path d="M 366.8206481933594 489.6847229003906 C 364.2756042480469 496.2995300292969 358.0572814941406 498.11334228515625 359.3995666503906 496.561767578125 C 360.21746826171875 499.90069580078125 355.112548828125 494.4546813964844 358.4428405761719 500.5391845703125 C 365.1295471191406 496.9523620605469 366.00665283203125 497.4783935546875 367.0616455078125 493.1484069824219 C 367.4940185546875 481.4540710449219 366.64215087890625 477.58013916015625 366.8206481933594 489.6847229003906" fill="rgb(205, 153, 85)" opacity="0.92823815" stroke="rgb(241, 193, 12)" stroke-linecap="round" stroke-linejoin="round" stroke-opacity="0.13479766" stroke-width="0.0"/>
    <path d="M 367.0226135253906 459.9708557128906 C 365.3757629394531 460.72296142578125 358.1162414550781 458.3736267089844 362.2378234863281 457.7951354980469 C 367.574951171875 455.4033203125 363.7884216308594 457.0514831542969 360.8890075683594 458.31494140625 C 352.146240234375 458.6167297363281 354.1251525878906 442.28692626953125 363.44830322265625 442.308837890625 C 366.08209228515625 453.3525695800781 366.2384338378906 456.98333740234375 367.0226135253906 459.9708557128906" fill="rgb(255, 162, 15)" opacity="0.7149874" stroke="rgb(55, 11, 233)" stroke-linecap="round" stroke-linejoin="round" stroke-opacity="0.7047128" stroke-width="0.0"/>
    <path d="M 365.0789489746094 445.4801940917969 C 369.20989990234375 461.154541015625 389.5039367675781 482.525390625 365.596435546875 472.2360534667969 C 367.5907287597656 458.5610656738281 365.8994140625 437.6822509765625 366.3562316894531 450.3672180175781 C 374.1143493652344 467.5568542480469 374.591064453125 466.49603271484375 369.6779479980469 457.3260803222656 C 371.9287109375 460.34161376953125 369.7458190917969 457.7245178222656 365.0789489746094 445.4801940917969" fill="rgb(0, 0, 0)" opacity="0.87678885" stroke="rgb(74, 0, 75)" stroke-linecap="round" stroke-linejoin="round" stroke-opacity="0.77200115" stroke-width="0.0"/>
    <path d="M 289.937255859375 390.6180725097656 C 270.1607360839844 408.2533264160156 261.90948486328125 415.8429870605469 264.79754638671875 409.6073913574219 C 255.00001525878906 408.69671630859375 262.0432434082031 404.44146728515625 264.79461669921875 400.6988220214844 C 259.3407287597656 405.7861022949219 263.8478698730469 400.2519836425781 266.50146484375 395.0980224609375 C 274.2939453125 370.46478271484375 283.43096923828125 373.648681640625 289.937255859375 390.6180725097656" fill="rgb(255, 99, 26)" opacity="0.68551743" stroke="rgb(237, 231, 140)" stroke-linecap="round" stroke-linejoin="round" stroke-opacity="0.65921414" stroke-width="0.0"/>
    <path d="M 408.3236389160156 497.58935546875 C 392.469482421875 497.454345703125 362.6986389160156 497.8605651855469 387.9647216796875 498.4951171875 C 374.01226806640625 499.2377624511719 378.88189697265625 497.7362976074219 381.17742919921875 489.1719970703125 C 375.88580322265625 504.4308166503906 378.85601806640625 496.0500793457031 382.7718811035156 419.9010925292969 C 391.42730712890625 399.8590087890625 412.2673034667969 465.4458923339844 408.3236389160156 497.58935546875" fill="rgb(92, 89, 86)" opacity="1.0" stroke="rgb(63, 60, 109)" stroke-linecap="round" stroke-linejoin="round" stroke-opacity="0.03931712" stroke-width="0.0"/>
    <path d="M 306.8127136230469 376.37127685546875 C 300.5219421386719 376.0949401855469 308.5918884277344 372.6226806640625 307.70343017578125 378.7914123535156 C 296.56243896484375 387.00152587890625 278.94256591796875 396.070068359375 278.2324523925781 390.8131103515625 C 279.3744201660156 359.5936584472656 286.036865234375 366.4910888671875 291.6159362792969 354.87335205078125 C 325.7327880859375 351.73712158203125 310.9789733886719 384.9753723144531 306.8127136230469 376.37127685546875" fill="rgb(255, 125, 18)" opacity="0.9193518" stroke="rgb(180, 75, 209)" stroke-linecap="round" stroke-linejoin="round" stroke-opacity="0.43087858" stroke-width="0.0"/>
    <path d="M 292.8658142089844 386.4773864746094 C 297.7337646484375 386.07733154296875 291.6522521972656 391.41168212890625 287.1593933105469 394.5873107910156 C 266.4082946777344 409.51220703125 251.54881286621094 417.4227600097656 268.8805847167969 393.1095275878906 C 261.71075439453125 346.6442565917969 273.63079833984375 366.63067626953125 278.3844909667969 360.0865783691406 C 303.8514709472656 373.6688232421875 310.36016845703125 379.7438659667969 292.8658142089844 386.4773864746094" fill="rgb(253, 129, 17)" opacity="0.9686374" stroke="rgb(1, 56, 121)" stroke-linecap="round" stroke-linejoin="round" stroke-opacity="0.42367226" stroke-width="0.0"/>
    <path d="M 440.1302795410156 476.9603576660156 C 442.6374206542969 481.01751708984375 442.64862060546875 467.3997802734375 442.37115478515625 502.1845703125 C 419.56024169921875 500.8978576660156 422.6347351074219 514.9092407226562 426.7221984863281 453.10205078125 C 438.2646179199219 472.7987976074219 436.9709167480469 476.1112060546875 439.21295166015625 477.2918395996094 C 437.483642578125 476.7051696777344 448.65118408203125 481.36102294921875 440.1302795410156 476.9603576660156" fill="rgb(0, 0, 0)" opacity="0.98001736" stroke="rgb(189, 231, 16)" stroke-linecap="round" stroke-linejoin="round" stroke-opacity="0.9765613" stroke-width="0.0"/>
    <path d="M 351.03436279296875 496.85308837890625 C 355.9188537597656 499.02197265625 325.6801452636719 497.1016540527344 344.1104431152344 497.88348388671875 C 326.36865234375 498.3711853027344 326.7530212402344 495.7705383300781 327.5137634277344 503.89794921875 C 327.4609069824219 501.6965026855469 355.78216552734375 506.3253479003906 385.333984375 499.5774841308594 C 319.1419982910156 496.6377868652344 323.52850341796875 499.6698303222656 351.03436279296875 496.85308837890625" fill="rgb(0, 0, 1)" opacity="0.7571313" stroke="rgb(92, 146, 213)" stroke-linecap="round" stroke-linejoin="round" stroke-opacity="0.69483376" stroke-width="0.0"/>
    <path d="M 310.03564453125 372.8388366699219 C 308.3819580078125 379.1363525390625 304.52325439453125 377.9853515625 309.440673828125 378.7756652832031 C 307.8550720214844 376.1040344238281 278.2154846191406 381.0299987792969 267.66961669921875 329.41943359375 C 306.32080078125 352.02734375 283.05517578125 393.3600769042969 315.7119140625 349.6191101074219 C 341.4714660644531 321.2588806152344 323.63922119140625 359.1014709472656 310.03564453125 372.8388366699219" fill="rgb(252, 105, 5)" opacity="0.91023505" stroke="rgb(116, 235, 94)" stroke-linecap="round" stroke-linejoin="round" stroke-opacity="0.990951" stroke-width="0.0"/>
    <path d="M 508.11688232421875 251.6627197265625 C 527.484619140625 280.1419677734375 532.4642944335938 292.0849304199219 479.3760681152344 296.8381652832031 C 425.526123046875 281.1128234863281 420.1704406738281 274.9079284667969 380.3177490234375 192.90151977539062 C 395.0780944824219 165.89761352539062 417.65228271484375 177.93026733398438 448.17401123046875 181.1026611328125 C 496.3849792480469 194.32618713378906 494.5533752441406 205.24476623535156 508.11688232421875 251.6627197265625" fill="rgb(133, 140, 138)" opacity="1.0" stroke="rgb(161, 155, 181)" stroke-linecap="round" stroke-linejoin="round" stroke-opacity="0.91961896" stroke-width="0.0"/>
    <path d="M 385.0676574707031 108.97761535644531 C 377.12847900390625 104.6020736694336 376.886962890625 107.30774688720703 382.8010559082031 117.5341796875 C 376.3194885253906 107.08611297607422 375.3739318847656 108.94097900390625 363.6500549316406 104.8714828491211 C 375.17333984375 109.21654510498047 376.9210510253906 105.1732177734375 373.7556457519531 98.54166412353516 C 377.99774169921875 103.75006103515625 380.0796813964844 104.38843536376953 385.0676574707031 108.97761535644531" fill="rgb(132, 139, 137)" opacity="0.9100279" stroke="rgb(223, 54, 42)" stroke-linecap="round" stroke-linejoin="round" stroke-opacity="0.97345334" stroke-width="0.0"/>
    <path d="M 771.9139404296875 286.1009826660156 C 778.9541625976562 358.7696228027344 781.5418701171875 379.3548583984375 751.8392944335938 382.0080871582031 C 631.441162109375 326.6767883300781 627.4533081054688 317.552490234375 608.3211669921875 249.9376983642578 C 587.9546508789062 199.6266326904297 589.1033325195312 194.0223846435547 635.0717163085938 183.2322235107422 C 764.9075927734375 178.5773162841797 776.8199462890625 186.99703979492188 771.9139404296875 286.1009826660156" fill="rgb(134, 141, 139)" opacity="0.85901725" stroke="rgb(245, 131, 4)" stroke-linecap="round" stroke-linejoin="round" stroke-opacity="0.5054409" stroke-width="0.0"/>
    <path d="M 195.39849853515625 767.9649658203125 C 151.64759826660156 790.0283203125 121.85194396972656 758.4737548828125 91.48294067382812 773.7371826171875 C 63.95793151855469 767.8284301757812 23.88649559020996 772.6458740234375 -17.54201889038086 766.3510131835938 C -20.96040916442871 619.2918701171875 -32.69789505004883 581.5354614257812 21.44153594970703 584.9698486328125 C 143.81088256835938 677.8133544921875 153.22987365722656 682.4638671875 195.39849853515625 767.9649658203125" fill="rgb(130, 136, 133)" opacity="0.9410387" stroke="rgb(228, 225, 64)" stroke-linecap="round" stroke-linejoin="round" stroke-opacity="0.46373597" stroke-width="0.0"/>
    <path d="M 741.4891357421875 377.04241943359375 C 688.6680908203125 426.8464660644531 691.357421875 468.9941101074219 581.4711303710938 473.84185791015625 C 525.1507568359375 435.5012512207031 519.3370361328125 458.31884765625 538.9892578125 386.73870849609375 C 557.5064697265625 307.0010070800781 585.0896606445312 316.04241943359375 651.6006469726562 292.2334289550781 C 659.4067993164062 308.5545654296875 689.634521484375 289.4671630859375 741.4891357421875 377.04241943359375" fill="rgb(141, 158, 158)" opacity="0.49579352" stroke="rgb(94, 113, 88)" stroke-linecap="round" stroke-linejoin="round" stroke-opacity="0.22765088" stroke-width="0.0"/>
    <path d="M 382.7395935058594 467.240478515625 C 376.2633361816406 462.5650939941406 381.8345031738281 486.0401611328125 378.4104309082031 500.1507263183594 C 378.3717956542969 475.0781555175781 375.4361267089844 461.56494140625 379.8112487792969 466.9576416015625 C 385.6131591796875 466.5956115722656 387.980224609375 466.8084411621094 383.2262268066406 467.2281799316406 C 389.84429931640625 463.5972595214844 391.2099609375 463.2123718261719 382.7395935058594 467.240478515625" fill="rgb(64, 51, 48)" opacity="0.78111374" stroke="rgb(44, 207, 3)" stroke-linecap="round" stroke-linejoin="round" stroke-opacity="0.068362795" stroke-width="0.0"/>
    <path d="M 297.88232421875 613.3607788085938 C 256.18804931640625 706.5983276367188 252.46095275878906 715.3709106445312 226.53807067871094 774.3873901367188 C 121.11050415039062 751.0924072265625 126.906494140625 721.890625 34.5316047668457 697.6945190429688 C -24.262008666992188 551.1338500976562 -21.69797706604004 508.75360107421875 31.888227462768555 494.1358337402344 C 288.9775085449219 541.5354614257812 312.6533203125 549.7454833984375 297.88232421875 613.3607788085938" fill="rgb(134, 140, 138)" opacity="0.9270615" stroke="rgb(246, 171, 28)" stroke-linecap="round" stroke-linejoin="round" stroke-opacity="0.95242816" stroke-width="0.0"/>
    <path d="M 397.01763916015625 432.5559997558594 C 396.5814208984375 430.0338439941406 396.47705078125 429.522216796875 397.5655822753906 436.064208984375 C 384.4642333984375 402.0404357910156 392.7104797363281 396.5134582519531 397.1166076660156 434.51409912109375 C 415.47705078125 484.4920959472656 409.5596008300781 459.23614501953125 397.84637451171875 429.4699401855469 C 395.93121337890625 422.69183349609375 395.44561767578125 423.7928161621094 397.01763916015625 432.5559997558594" fill="rgb(252, 137, 48)" opacity="0.6026193" stroke="rgb(226, 92, 103)" stroke-linecap="round" stroke-linejoin="round" stroke-opacity="0.593339" stroke-width="0.0"/>
    <path d="M 715.4696044921875 87.4859619140625 C 688.793701171875 74.84912109375 688.7977294921875 83.05686950683594 686.704833984375 91.30367279052734 C 686.3543701171875 80.8145523071289 682.9293823242188 83.0576171875 663.8823852539062 82.62677001953125 C 671.4340209960938 66.85570526123047 649.5006103515625 57.30369567871094 688.3173217773438 -24.01959991455078 C 737.0914916992188 33.082027435302734 717.9874877929688 60.79853439331055 715.4696044921875 87.4859619140625" fill="rgb(132, 138, 135)" opacity="0.43519282" stroke="rgb(209, 193, 139)" stroke-linecap="round" stroke-linejoin="round" stroke-opacity="0.65949374" stroke-width="0.0"/>
    <path d="M 727.017822265625 648.3547973632812 C 671.2932739257812 708.5178833007812 661.2779541015625 708.3532104492188 617.9070434570312 717.6123657226562 C 571.9991455078125 716.597412109375 569.815673828125 707.3644409179688 524.3630981445312 557.9627685546875 C 517.30078125 526.90673828125 536.1981811523438 535.66552734375 656.0064086914062 565.5369873046875 C 693.6845092773438 590.1531982421875 713.4288330078125 591.683349609375 727.017822265625 648.3547973632812" fill="rgb(135, 142, 139)" opacity="0.8735093" stroke="rgb(86, 217, 124)" stroke-linecap="round" stroke-linejoin="round" stroke-opacity="0.9775749" stroke-width="0.0"/>
    <path d="M 609.1209106445312 180.45140075683594 C 607.6957397460938 184.05999755859375 605.3880004882812 184.37037658691406 597.9329833984375 190.11752319335938 C 596.93994140625 187.75250244140625 595.386962890625 182.88267517089844 599.8681030273438 175.00672912597656 C 589.5534057617188 180.7095184326172 592.3571166992188 180.7686309814453 603.7593994140625 176.0856170654297 C 608.7659301757812 183.13107299804688 601.5907592773438 172.6831817626953 609.1209106445312 180.45140075683594" fill="rgb(134, 140, 138)" opacity="0.8884989" stroke="rgb(245, 14, 88)" stroke-linecap="round" stroke-linejoin="round" stroke-opacity="0.843367" stroke-width="0.0"/>
    <path d="M 601.8184814453125 698.3037109375 C 605.7342529296875 745.8372192382812 606.4227294921875 759.7203979492188 574.5184936523438 770.6456298828125 C 474.5749816894531 770.5476684570312 449.31915283203125 770.526611328125 471.9711608886719 764.0804443359375 C 481.26788330078125 634.0692749023438 481.0525207519531 625.88525390625 516.647705078125 565.1209716796875 C 607.55126953125 597.8001708984375 593.377197265625 634.9879150390625 601.8184814453125 698.3037109375" fill="rgb(131, 137, 135)" opacity="0.8092267" stroke="rgb(59, 94, 190)" stroke-linecap="round" stroke-linejoin="round" stroke-opacity="0.3782327" stroke-width="0.0"/>
    <path d="M 319.688232421875 427.6206970214844 C 336.07666015625 598.1505126953125 349.86627197265625 598.165771484375 281.19842529296875 575.4301147460938 C 141.8430938720703 559.1732177734375 121.63532257080078 563.5394897460938 80.9492416381836 509.99249267578125 C 160.3284454345703 424.1534729003906 157.33273315429688 331.81512451171875 267.529296875 361.7166442871094 C 235.24534606933594 447.02996826171875 250.76766967773438 408.6454772949219 319.688232421875 427.6206970214844" fill="rgb(135, 141, 139)" opacity="0.91347474" stroke="rgb(18, 59, 164)" stroke-linecap="round" stroke-linejoin="round" stroke-opacity="0.41907847" stroke-width="0.0"/>
    <path d="M 638.1705932617188 298.7686462402344 C 616.4376831054688 338.3420104980469 612.1574096679688 341.5613098144531 557.1112670898438 382.9356994628906 C 538.1387939453125 379.8810729980469 520.8710327148438 365.39630126953125 506.3901062011719 267.6609802246094 C 533.7989501953125 249.9623260498047 531.0433959960938 227.53067016601562 598.04541015625 212.5311279296875 C 641.2091674804688 261.1538391113281 641.545654296875 270.62506103515625 638.1705932617188 298.7686462402344" fill="rgb(132, 139, 136)" opacity="0.786446" stroke="rgb(163, 70, 35)" stroke-linecap="round" stroke-linejoin="round" stroke-opacity="0.5162285" stroke-width="0.0"/>
    <path d="M 35.61861801147461 458.00927734375 C 33.620906829833984 459.4190368652344 31.085412979125977 461.6706848144531 30.10628318786621 463.1334228515625 C 27.213138580322266 460.5588684082031 26.379423141479492 457.9747009277344 30.91866683959961 461.79400634765625 C 25.065664291381836 453.884521484375 23.04750633239746 452.8974304199219 26.16524314880371 458.0159912109375 C 31.646133422851562 448.3718566894531 30.212827682495117 455.5201110839844 35.61861801147461 458.00927734375" fill="rgb(136, 142, 139)" opacity="0.8915522" stroke="rgb(130, 202, 35)" stroke-linecap="round" stroke-linejoin="round" stroke-opacity="0.58166426" stroke-width="0.0"/>
    <path d="M 196.39749145507812 75.11676788330078 C 188.31283569335938 72.40699768066406 189.54115295410156 73.86885833740234 190.32037353515625 80.49405670166016 C 185.36447143554688 73.92471313476562 187.78775024414062 78.09761810302734 181.05360412597656 70.71190643310547 C 182.9796600341797 70.13093566894531 183.18397521972656 70.19629669189453 187.86767578125 75.80064392089844 C 193.45535278320312 67.30303192138672 189.55845642089844 74.48280334472656 196.39749145507812 75.11676788330078" fill="rgb(136, 142, 140)" opacity="0.9126209" stroke="rgb(110, 187, 56)" stroke-linecap="round" stroke-linejoin="round" stroke-opacity="0.10865478" stroke-width="0.0"/>
    <path d="M 736.7297973632812 8.5933837890625 C 738.259521484375 12.286656379699707 732.8038330078125 8.744874000549316 733.9391479492188 17.934005737304688 C 730.6340942382812 8.343082427978516 730.2969970703125 15.005755424499512 726.6248168945312 7.494895935058594 C 726.3762817382812 2.2724740505218506 726.3228759765625 -0.5474997758865356 731.25732421875 1.870521068572998 C 735.6278686523438 -1.4559248685836792 739.7118530273438 4.576632976531982 736.7297973632812 8.5933837890625" fill="rgb(132, 137, 134)" opacity="0.90930825" stroke="rgb(34, 135, 215)" stroke-linecap="round" stroke-linejoin="round" stroke-opacity="0.6037126" stroke-width="0.0"/>
    <path d="M 787.5934448242188 712.724609375 C 771.9312744140625 821.9488525390625 726.1362915039062 750.0202026367188 661.6135864257812 774.7393188476562 C 618.8870849609375 771.4732055664062 610.4533081054688 770.6318969726562 580.8171997070312 767.886962890625 C 594.1175537109375 690.6151123046875 605.4877319335938 690.4845581054688 660.4921875 674.2420654296875 C 733.8571166992188 635.7864379882812 765.0780029296875 613.338623046875 787.5934448242188 712.724609375" fill="rgb(130, 135, 133)" opacity="0.7626783" stroke="rgb(106, 208, 182)" stroke-linecap="round" stroke-linejoin="round" stroke-opacity="0.85499585" stroke-width="0.0"/>
    <path d="M 540.4224853515625 391.4341125488281 C 535.2156982421875 465.60931396484375 553.5908203125 451.2771911621094 484.92095947265625 422.06475830078125 C 465.52362060546875 354.2073974609375 459.8985900878906 359.4044189453125 461.5783386230469 377.3031921386719 C 465.90618896484375 350.3969421386719 426.5096740722656 343.521728515625 393.4033508300781 303.93121337890625 C 534.2001342773438 276.22454833984375 542.0564575195312 282.22174072265625 540.4224853515625 391.4341125488281" fill="rgb(144, 156, 155)" opacity="0.43858546" stroke="rgb(207, 41, 173)" stroke-linecap="round" stroke-linejoin="round" stroke-opacity="0.37672117" stroke-width="0.0"/>
    <path d="M 721.0147705078125 540.6412963867188 C 700.4548950195312 565.2521362304688 707.3775634765625 582.7698364257812 597.896240234375 596.0303344726562 C 539.2846069335938 582.5455932617188 510.2744140625 562.1885375976562 571.0014038085938 492.0665588378906 C 591.1278076171875 417.9357604980469 566.7255249023438 405.082763671875 773.4197998046875 367.28961181640625 C 783.0972290039062 429.9248962402344 763.2628784179688 457.8947448730469 721.0147705078125 540.6412963867188" fill="rgb(156, 183, 189)" opacity="0.13024205" stroke="rgb(118, 195, 241)" stroke-linecap="round" stroke-linejoin="round" stroke-opacity="0.34138134" stroke-width="0.0"/>
    <path d="M 465.19024658203125 306.2068786621094 C 449.76214599609375 373.05645751953125 459.8711853027344 340.0592041015625 407.397705078125 334.93377685546875 C 283.8857727050781 324.2316589355469 328.045166015625 383.4241027832031 268.64642333984375 330.8940734863281 C 173.7283935546875 172.13229370117188 145.8960418701172 143.2591094970703 198.07296752929688 156.32626342773438 C 473.1413269042969 195.64669799804688 455.6285095214844 228.9420928955078 465.19024658203125 306.2068786621094" fill="rgb(136, 143, 140)" opacity="0.63553405" stroke="rgb(176, 5, 136)" stroke-linecap="round" stroke-linejoin="round" stroke-opacity="0.7367725" stroke-width="0.0"/>
    <path d="M 606.9563598632812 163.33609008789062 C 585.232666015625 277.6717529296875 561.94287109375 274.5426330566406 528.680908203125 277.989501953125 C 471.3924865722656 254.38780212402344 477.0616760253906 237.4277801513672 472.839111328125 208.46044921875 C 469.0018615722656 186.3359375 467.874755859375 178.9867401123047 500.53436279296875 178.15211486816406 C 534.0675048828125 208.18341064453125 548.0965576171875 170.50196838378906 606.9563598632812 163.33609008789062" fill="rgb(133, 140, 137)" opacity="1.0" stroke="rgb(53, 19, 243)" stroke-linecap="round" stroke-linejoin="round" stroke-opacity="0.2601909" stroke-width="0.0"/>
    <path d="M 532.0654907226562 174.3247528076172 C 537.10107421875 177.76055908203125 534.6703491210938 180.88507080078125 530.6051635742188 179.2660369873047 C 528.3427734375 180.1609649658203 523.291259765625 176.2215118408203 517.28759765625 160.63243103027344 C 528.908203125 180.3591766357422 528.9321899414062 180.10263061523438 529.6128540039062 165.79055786132812 C 535.845703125 171.06527709960938 531.3856811523438 170.4482879638672 532.0654907226562 174.3247528076172" fill="rgb(136, 142, 140)" opacity="0.8965296" stroke="rgb(227, 207, 184)" stroke-linecap="round" stroke-linejoin="round" stroke-opacity="0.49323773" stroke-width="0.0"/>
    <path d="M 358.0816345214844 95.97906494140625 C 342.4248046875 96.29106140136719 341.0666809082031 97.02696228027344 342.64837646484375 106.12583923339844 C 336.7344055175781 95.86444854736328 339.17913818359375 99.17325592041016 331.81732177734375 86.40172576904297 C 339.319091796875 96.06520080566406 337.686767578125 93.05914306640625 338.2535095214844 81.41776275634766 C 346.9179382324219 83.2939453125 350.6386413574219 84.33788299560547 358.0816345214844 95.97906494140625" fill="rgb(133, 141, 140)" opacity="0.89731735" stroke="rgb(88, 123, 87)" stroke-linecap="round" stroke-linejoin="round" stroke-opacity="0.76970804" stroke-width="0.0"/>
    <path d="M 388.7830810546875 744.6036987304688 C 395.5895080566406 781.2174682617188 383.85650634765625 770.498291015625 311.2005920410156 767.8695678710938 C 238.8529052734375 775.0564575195312 216.91726684570312 779.2664794921875 226.17193603515625 749.37646484375 C 243.27297973632812 625.0299072265625 234.79327392578125 593.0410766601562 335.6839599609375 565.144775390625 C 381.4747314453125 621.2554321289062 379.30474853515625 639.4197998046875 388.7830810546875 744.6036987304688" fill="rgb(137, 146, 144)" opacity="0.6872355" stroke="rgb(74, 55, 104)" stroke-linecap="round" stroke-linejoin="round" stroke-opacity="0.9322177" stroke-width="0.0"/>
    <path d="M 778.6951293945312 551.9852905273438 C 771.968994140625 575.5208129882812 784.75244140625 590.91455078125 769.6873779296875 657.8785400390625 C 668.57861328125 641.66357421875 667.9212036132812 614.9326171875 673.9303588867188 577.146484375 C 690.7410888671875 493.93646240234375 689.934814453125 484.74029541015625 766.6703491210938 439.5875549316406 C 776.0949096679688 476.60504150390625 768.5086059570312 504.02740478515625 778.6951293945312 551.9852905273438" fill="rgb(131, 137, 135)" opacity="0.8155494" stroke="rgb(54, 61, 132)" stroke-linecap="round" stroke-linejoin="round" stroke-opacity="0.3255722" stroke-width="0.0"/>
    <path d="M 343.6593933105469 432.75909423828125 C 343.8298034667969 416.7171936035156 349.035400390625 428.333984375 356.75555419921875 498.2106018066406 C 315.0260314941406 500.0816955566406 382.6508483886719 494.968017578125 296.5204772949219 439.72625732421875 C 317.623046875 408.6136779785156 313.0166015625 414.003662109375 342.53704833984375 417.9136657714844 C 347.33123779296875 428.3688659667969 342.5138854980469 428.7320556640625 343.6593933105469 432.75909423828125" fill="rgb(120, 128, 125)" opacity="0.6527872" stroke="rgb(108, 134, 196)" stroke-linecap="round" stroke-linejoin="round" stroke-opacity="0.52081335" stroke-width="0.0"/>
    <path d="M 599.4308471679688 48.582855224609375 C 596.3968505859375 54.03436279296875 590.0528564453125 47.70427703857422 583.449951171875 43.867496490478516 C 593.3866577148438 57.11787414550781 588.8446655273438 51.14310836791992 577.9814453125 44.41715621948242 C 587.7806396484375 48.56426239013672 584.81640625 45.320030212402344 583.7412719726562 28.92632484436035 C 591.7305297851562 44.00896072387695 595.957763671875 42.03339385986328 599.4308471679688 48.582855224609375" fill="rgb(135, 141, 140)" opacity="0.90515286" stroke="rgb(81, 143, 75)" stroke-linecap="round" stroke-linejoin="round" stroke-opacity="0.257725" stroke-width="0.0"/>
    <path d="M 501.03826904296875 686.622802734375 C 493.37139892578125 740.9156494140625 500.4092102050781 760.0640258789062 437.9437561035156 775.8267211914062 C 352.06134033203125 774.727294921875 353.310791015625 754.7860717773438 326.6018981933594 504.3219909667969 C 277.6449890136719 505.3885192871094 264.3028869628906 502.88287353515625 550.7830810546875 504.1440124511719 C 558.3287353515625 579.9033813476562 515.2545166015625 603.53125 501.03826904296875 686.622802734375" fill="rgb(136, 144, 141)" opacity="0.7189381" stroke="rgb(241, 234, 229)" stroke-linecap="round" stroke-linejoin="round" stroke-opacity="0.34116906" stroke-width="0.0"/>
    <path d="M 427.3282775878906 451.88177490234375 C 439.405517578125 475.2293701171875 442.5224914550781 488.6737365722656 443.5614013671875 463.58343505859375 C 447.135498046875 446.3334045410156 444.4346923828125 451.69171142578125 445.7298889160156 448.0185546875 C 445.8731689453125 455.6227111816406 445.72760009765625 454.5004577636719 445.37945556640625 435.536865234375 C 447.8116455078125 454.1880798339844 420.3409118652344 386.47515869140625 427.3282775878906 451.88177490234375" fill="rgb(254, 124, 7)" opacity="0.9900932" stroke="rgb(68, 131, 10)" stroke-linecap="round" stroke-linejoin="round" stroke-opacity="0.0097710695" stroke-width="0.0"/>
    <path d="M 330.13818359375 23.020048141479492 C 321.5444641113281 19.8648738861084 318.79412841796875 22.45003890991211 320.5169372558594 27.163270950317383 C 317.8042297363281 26.338104248046875 315.8818359375 24.190935134887695 321.2720642089844 22.381420135498047 C 315.5306396484375 19.532209396362305 316.609375 16.50713348388672 317.0793762207031 10.02480697631836 C 323.8813171386719 22.799989700317383 322.28045654296875 14.791319847106934 330.13818359375 23.020048141479492" fill="rgb(133, 139, 137)" opacity="0.90915114" stroke="rgb(2, 87, 183)" stroke-linecap="round" stroke-linejoin="round" stroke-opacity="0.19604808" stroke-width="0.0"/>
    <path d="M 301.66436767578125 296.0321350097656 C 290.6590881347656 281.8382568359375 290.4927062988281 281.6875305175781 287.0101623535156 301.634521484375 C 293.8304138183594 289.2452087402344 290.09619140625 287.0959777832031 285.7453308105469 285.3108825683594 C 287.0931701660156 281.20281982421875 288.1940002441406 279.7218017578125 288.96234130859375 285.6065979003906 C 290.9267883300781 280.5944519042969 297.36492919921875 283.26025390625 301.66436767578125 296.0321350097656" fill="rgb(133, 139, 137)" opacity="0.90295315" stroke="rgb(46, 61, 52)" stroke-linecap="round" stroke-linejoin="round" stroke-opacity="0.09060615" stroke-width="0.0"/>
  </g>
</svg>
