<?xml version="1.0" ?>
<svg height="768" version="1.1" width="768" xmlns="http://www.w3.org/2000/svg">
  <defs/>
  <g>
    <path d="M 731.5277099609375 853.476806640625 C 612.2119750976562 783.1907958984375 597.5072631835938 786.5167236328125 -33.86971664428711 766.8487548828125 C 8.00703239440918 395.96685791015625 45.49323272705078 254.25921630859375 115.2957763671875 102.69332122802734 C 880.360595703125 149.1096649169922 890.4405517578125 241.47332763671875 842.1983642578125 369.5521545410156 C 791.308837890625 713.9173583984375 773.265625 778.7623901367188 731.5277099609375 853.476806640625" fill="rgb(134, 140, 138)" opacity="1.0" stroke="rgb(186, 99, 151)" stroke-linecap="round" stroke-linejoin="round" stroke-opacity="0.8459669" stroke-width="0.0"/>
    <path d="M 781.015869140625 178.87594604492188 C 789.1821899414062 205.4930419921875 793.069091796875 209.73001098632812 682.2438354492188 193.71336364746094 C 671.7247314453125 162.0144500732422 652.2814331054688 164.16249084472656 618.3922729492188 -5.5400309562683105 C 665.167236328125 -15.053257942199707 696.4833984375 -14.540163040161133 816.2282104492188 -4.690789699554443 C 780.4672241210938 55.8378791809082 781.3885498046875 59.891090393066406 781.015869140625 178.87594604492188" fill="rgb(134, 140, 138)" opacity="1.0" stroke="rgb(215, 12, 65)" stroke-linecap="round" stroke-linejoin="round" stroke-opacity="0.3312705" stroke-width="0.0"/>
    <path d="M 710.7709350585938 184.99314880371094 C 707.8247680664062 192.8466339111328 697.2315673828125 185.47166442871094 310.7026062011719 179.2079315185547 C 220.25595092773438 187.95974731445312 201.02003479003906 151.48304748535156 244.85755920410156 -81.35997772216797 C 536.8340454101562 -22.09197235107422 570.0555419921875 -16.122549057006836 736.10595703125 13.731501579284668 C 703.3720092773438 64.33687591552734 703.0158081054688 70.95047760009766 710.7709350585938 184.99314880371094" fill="rgb(134, 140, 138)" opacity="1.0" stroke="rgb(56, 154, 202)" stroke-linecap="round" stroke-linejoin="round" stroke-opacity="0.784891" stroke-width="0.0"/>
  </g>
</svg>
