<?xml version="1.0" ?>
<svg height="768" version="1.1" width="768" xmlns="http://www.w3.org/2000/svg">
  <defs/>
  <g>
    <path d="M 601.3956909179688 71.30840301513672 C 604.3349609375 1097.2891845703125 561.0762939453125 940.7239990234375 443.9081726074219 786.6466064453125 C -6.17661714553833 784.2357788085938 -10.383135795593262 783.829345703125 -13.295954704284668 763.7592163085938 C -16.59838104248047 603.6614379882812 -17.7951602935791 595.8011474609375 -243.0714111328125 431.45318603515625 C -184.1543426513672 257.7626037597656 -182.25790405273438 124.1436767578125 601.3956909179688 71.30840301513672" fill="rgb(110, 86, 77)" opacity="1.0" stroke="rgb(229, 163, 161)" stroke-linecap="round" stroke-linejoin="round" stroke-opacity="0.5019234" stroke-width="0.0"/>
    <path d="M 782.5775756835938 9.088690757751465 C 779.977783203125 254.75193786621094 781.7876586914062 264.713134765625 962.2152099609375 386.02569580078125 C 937.1591186523438 502.5500183105469 1015.25830078125 657.38330078125 587.3328857421875 760.5479736328125 C 550.3998413085938 374.0262145996094 430.99041748046875 436.05377197265625 218.50698852539062 2.644249439239502 C 835.74462890625 -24.468149185180664 830.7547607421875 -8.647928237915039 782.5775756835938 9.088690757751465" fill="rgb(127, 107, 95)" opacity="0.93526244" stroke="rgb(74, 86, 234)" stroke-linecap="round" stroke-linejoin="round" stroke-opacity="0.40407136" stroke-width="0.0"/>
    <path d="M 219.04721069335938 165.95494079589844 C 102.84953308105469 201.30447387695312 93.27961730957031 194.14028930664062 -36.36094665527344 179.01341247558594 C -49.27145767211914 142.71768188476562 -20.74094009399414 122.16522216796875 -10.469663619995117 6.90071439743042 C -26.404592514038086 -5.641411304473877 -36.706382751464844 -13.901556015014648 305.9228820800781 -10.451025009155273 C 296.7073974609375 71.63398742675781 274.2939147949219 116.29011535644531 219.04721069335938 165.95494079589844" fill="rgb(109, 119, 125)" opacity="0.99925506" stroke="rgb(102, 27, 174)" stroke-linecap="round" stroke-linejoin="round" stroke-opacity="0.068405606" stroke-width="0.0"/>
    <path d="M 306.3480224609375 219.5305633544922 C 344.78424072265625 561.5428466796875 176.5885772705078 67.06421661376953 283.37158203125 456.0910949707031 C 37.642051696777344 529.6334838867188 257.1721496582031 237.8072509765625 177.359375 282.9984436035156 C 186.9158477783203 237.8373565673828 184.39187622070312 248.85340881347656 315.2461853027344 253.92013549804688 C 235.69525146484375 256.6287536621094 84.46525573730469 138.2896270751953 306.3480224609375 219.5305633544922" fill="rgb(171, 110, 68)" opacity="0.83954996" stroke="rgb(160, 122, 226)" stroke-linecap="round" stroke-linejoin="round" stroke-opacity="0.74282646" stroke-width="0.0"/>
  </g>
</svg>
