<?xml version="1.0" ?>
<svg height="768" version="1.1" width="768" xmlns="http://www.w3.org/2000/svg">
  <defs/>
  <g>
    <path d="M 601.384033203125 71.2708969116211 C 604.3081665039062 1097.24267578125 561.0428466796875 940.691162109375 443.87982177734375 786.6466064453125 C -6.17661714553833 784.2357788085938 -10.383135795593262 783.829345703125 -13.295954704284668 763.7592163085938 C -16.59838104248047 603.6614379882812 -17.7951602935791 595.8011474609375 -243.07228088378906 431.45318603515625 C -184.16734313964844 257.7453918457031 -182.289306640625 124.10321807861328 601.384033203125 71.2708969116211" fill="rgb(101, 81, 77)" opacity="1.0" stroke="rgb(229, 163, 161)" stroke-linecap="round" stroke-linejoin="round" stroke-opacity="0.5019234" stroke-width="0.0"/>
    <path d="M 782.5775756835938 9.088690757751465 C 779.977783203125 254.75193786621094 781.7876586914062 264.713134765625 962.26904296875 386.04022216796875 C 937.4263916015625 502.6636962890625 1015.7413330078125 657.6925659179688 585.536865234375 760.8949584960938 C 549.5087280273438 375.9041442871094 431.7350769042969 434.6772766113281 219.23529052734375 2.1349546909332275 C 835.74462890625 -24.468149185180664 830.7547607421875 -8.647928237915039 782.5775756835938 9.088690757751465" fill="rgb(130, 109, 95)" opacity="0.9582217" stroke="rgb(74, 86, 234)" stroke-linecap="round" stroke-linejoin="round" stroke-opacity="0.40407136" stroke-width="0.0"/>
    <path d="M 218.44387817382812 165.38116455078125 C 104.42390441894531 206.20046997070312 93.26712036132812 195.703125 -39.79846954345703 179.8588104248047 C -49.27145767211914 142.71768188476562 -20.74094009399414 122.16522216796875 -10.469663619995117 6.90071439743042 C -26.404592514038086 -5.641411304473877 -36.706382751464844 -13.901556015014648 307.92572021484375 -10.050538063049316 C 298.0744934082031 79.89176940917969 274.46197509765625 112.16566467285156 218.44387817382812 165.38116455078125" fill="rgb(109, 119, 125)" opacity="1.0" stroke="rgb(102, 27, 174)" stroke-linecap="round" stroke-linejoin="round" stroke-opacity="0.068405606" stroke-width="0.0"/>
    <path d="M 312.96044921875 240.498779296875 C 385.9288024902344 627.4873046875 159.23721313476562 34.669578552246094 284.90618896484375 452.1437072753906 C 34.25566101074219 552.296630859375 260.6234130859375 215.93399047851562 177.005126953125 287.1584777832031 C 182.18431091308594 199.9203643798828 284.64654541015625 290.0589599609375 277.00030517578125 235.9222412109375 C 182.1827850341797 255.91232299804688 178.3988800048828 105.15576171875 312.96044921875 240.498779296875" fill="rgb(175, 113, 69)" opacity="0.8577736" stroke="rgb(160, 122, 226)" stroke-linecap="round" stroke-linejoin="round" stroke-opacity="0.74282646" stroke-width="0.0"/>
    <path d="M 631.8641967773438 298.4543151855469 C 592.5894775390625 308.2012634277344 632.9146118164062 221.92312622070312 536.1271362304688 254.1793670654297 C 512.6450805664062 256.6738586425781 503.3735656738281 248.96536254882812 512.9347534179688 241.015625 C 555.2763671875 238.25540161132812 527.8729248046875 236.38519287109375 589.8988037109375 211.3074951171875 C 650.47265625 213.83779907226562 597.5408325195312 194.34532165527344 631.8641967773438 298.4543151855469" fill="rgb(0, 0, 26)" opacity="0.43587542" stroke="rgb(212, 80, 5)" stroke-linecap="round" stroke-linejoin="round" stroke-opacity="0.004803196" stroke-width="0.0"/>
  </g>
</svg>
