<?xml version="1.0" ?>
<svg height="768" version="1.1" width="768" xmlns="http://www.w3.org/2000/svg">
  <defs/>
  <g>
    <path d="M 734.3593139648438 -36.55160140991211 C 772.7401733398438 213.32046508789062 790.4236450195312 353.1357727050781 805.2772216796875 763.0718994140625 C 588.6886596679688 789.2643432617188 508.134033203125 797.4461059570312 89.5058364868164 867.8043212890625 C 18.217321395874023 713.987548828125 -28.740922927856445 673.8739624023438 -94.6895980834961 198.66189575195312 C 55.39591598510742 102.00286865234375 79.29386138916016 17.317747116088867 734.3593139648438 -36.55160140991211" fill="rgb(116, 132, 153)" opacity="0.97792566" stroke="rgb(45, 141, 83)" stroke-linecap="round" stroke-linejoin="round" stroke-opacity="0.6437386" stroke-width="0.0"/>
    <path d="M 423.043212890625 508.4926452636719 C 593.2991943359375 345.2806396484375 693.3662109375 433.4646911621094 471.478759765625 606.2112426757812 C 98.86095428466797 645.5974731445312 393.70831298828125 566.3536987304688 128.7524871826172 501.4241638183594 C 212.0336151123047 309.0214538574219 368.7235412597656 594.4274291992188 347.0059814453125 404.932861328125 C 400.1458740234375 531.6498413085938 441.0672607421875 271.2928466796875 423.043212890625 508.4926452636719" fill="rgb(30, 35, 39)" opacity="0.8297166" stroke="rgb(197, 202, 174)" stroke-linecap="round" stroke-linejoin="round" stroke-opacity="0.52781504" stroke-width="0.0"/>
    <path d="M 561.09375 419.02325439453125 C 575.66845703125 569.4024658203125 467.32513427734375 643.197509765625 284.40423583984375 594.7823486328125 C 93.70308685302734 448.3517150878906 155.6667022705078 320.6404724121094 346.01129150390625 519.6109619140625 C 324.3251647949219 260.7970886230469 355.11810302734375 550.3966064453125 426.4737854003906 406.1598815917969 C 414.34716796875 617.7484130859375 397.37237548828125 482.2413330078125 561.09375 419.02325439453125" fill="rgb(0, 0, 0)" opacity="0.8735654" stroke="rgb(95, 126, 101)" stroke-linecap="round" stroke-linejoin="round" stroke-opacity="0.23086043" stroke-width="0.0"/>
    <path d="M 633.7418212890625 484.74139404296875 C 696.102294921875 519.0833129882812 662.5133666992188 504.6219177246094 630.149658203125 506.2431335449219 C 549.492919921875 506.06353759765625 508.97283935546875 597.9599609375 545.70458984375 499.1112365722656 C 559.6400146484375 391.57781982421875 522.3554077148438 376.3748779296875 559.706298828125 402.82989501953125 C 618.5875854492188 440.2381896972656 598.7545776367188 461.2524108886719 633.7418212890625 484.74139404296875" fill="rgb(1, 2, 1)" opacity="0.9853284" stroke="rgb(74, 120, 64)" stroke-linecap="round" stroke-linejoin="round" stroke-opacity="0.9516004" stroke-width="0.0"/>
    <path d="M 306.0 471.0 C 305.33013916015625 473.5 303.5 475.33013916015625 301.0 476.0 C 298.5 475.33013916015625 296.66986083984375 473.5 296.0 471.0 C 296.66986083984375 468.5 298.5 466.66986083984375 301.0 466.0 C 303.5 466.66986083984375 305.33013916015625 468.5 306.0 471.0" fill="rgb(1, 2, 2)" opacity="1.0" stroke="rgb(94, 249, 173)" stroke-linecap="round" stroke-linejoin="round" stroke-opacity="0.30149052" stroke-width="0.0"/>
  </g>
</svg>
