<?xml version="1.0" ?>
<svg height="768" version="1.1" width="768" xmlns="http://www.w3.org/2000/svg">
  <defs/>
  <g>
    <path d="M 548.358642578125 612.792236328125 C -111.76060485839844 576.4940185546875 -166.41757202148438 470.7397155761719 -302.35174560546875 319.3916931152344 C -16.806474685668945 129.92138671875 -15.423881530761719 121.95367431640625 -12.012309074401855 7.0339741706848145 C -12.361435890197754 -16.83322525024414 -8.218883514404297 -16.528688430786133 534.8934936523438 -16.978925704956055 C 586.3964233398438 -71.96969604492188 585.2954711914062 -92.61616516113281 548.358642578125 612.792236328125" fill="rgb(96, 103, 115)" opacity="0.9752688" stroke="rgb(238, 5, 111)" stroke-linecap="round" stroke-linejoin="round" stroke-opacity="0.63917536" stroke-width="0.0"/>
    <path d="M 645.6734619140625 882.0349731445312 C 549.4010620117188 784.7303466796875 539.025634765625 794.8192749023438 -51.05072784423828 765.2216796875 C -11.101812362670898 461.4501037597656 94.50981903076172 393.02459716796875 187.8242950439453 440.6039123535156 C 500.10821533203125 776.6668701171875 362.27386474609375 486.08306884765625 795.775634765625 473.1124267578125 C 790.53662109375 861.921630859375 727.76708984375 866.7605590820312 645.6734619140625 882.0349731445312" fill="rgb(133, 161, 176)" opacity="0.98313636" stroke="rgb(215, 225, 99)" stroke-linecap="round" stroke-linejoin="round" stroke-opacity="0.8708367" stroke-width="0.0"/>
    <path d="M 764.6568603515625 -60.35661315917969 C 787.5343627929688 411.9683532714844 784.974609375 427.74041748046875 777.396728515625 562.9662475585938 C 466.1688537597656 561.1354370117188 632.52685546875 491.12176513671875 590.3862915039062 412.10699462890625 C 486.5634765625 463.30755615234375 378.8159484863281 455.826171875 331.1554260253906 157.954345703125 C 537.2627563476562 67.09170532226562 518.9060668945312 -19.346725463867188 764.6568603515625 -60.35661315917969" fill="rgb(92, 100, 112)" opacity="1.0" stroke="rgb(212, 27, 104)" stroke-linecap="round" stroke-linejoin="round" stroke-opacity="0.10286519" stroke-width="0.0"/>
    <path d="M 296.886474609375 579.2730102539062 C 300.4677734375 599.9140014648438 406.0742492675781 668.2667236328125 296.0286560058594 605.9110717773438 C 232.79075622558594 575.9745483398438 220.87921142578125 555.8704223632812 188.43836975097656 499.1765441894531 C 171.96804809570312 461.4017333984375 179.1882781982422 455.47216796875 218.7696533203125 456.6833801269531 C 275.9178466796875 531.7528076171875 280.5955505371094 478.1545104980469 296.886474609375 579.2730102539062" fill="rgb(252, 248, 229)" opacity="0.99370515" stroke="rgb(176, 102, 104)" stroke-linecap="round" stroke-linejoin="round" stroke-opacity="0.58385277" stroke-width="0.0"/>
    <path d="M 598.5427856445312 456.2435302734375 C 570.255126953125 620.5169677734375 430.309814453125 592.1554565429688 395.9367980957031 672.162109375 C 191.24717712402344 530.09423828125 385.6602478027344 557.1737670898438 383.669921875 642.2559814453125 C 402.7811279296875 584.3483276367188 414.0130615234375 592.5291748046875 454.7486877441406 567.6490478515625 C 516.5784912109375 628.638916015625 405.3565368652344 501.41107177734375 598.5427856445312 456.2435302734375" fill="rgb(251, 247, 228)" opacity="0.98445046" stroke="rgb(140, 163, 225)" stroke-linecap="round" stroke-linejoin="round" stroke-opacity="0.30783916" stroke-width="0.0"/>
    <path d="M 227.7227020263672 461.5867919921875 C 250.94566345214844 511.3445129394531 291.6795349121094 491.8627624511719 188.2064208984375 496.78094482421875 C 163.8360595703125 435.8456726074219 200.4106903076172 467.0313720703125 137.18797302246094 434.0766296386719 C 146.02037048339844 290.2178955078125 307.5259704589844 346.9254455566406 174.58645629882812 393.4565734863281 C 115.39579010009766 435.8542175292969 216.6919403076172 382.11907958984375 227.7227020263672 461.5867919921875" fill="rgb(251, 247, 228)" opacity="0.99143815" stroke="rgb(88, 123, 84)" stroke-linecap="round" stroke-linejoin="round" stroke-opacity="0.9968064" stroke-width="0.0"/>
    <path d="M 350.4396057128906 343.0912780761719 C 342.4847717285156 346.8758850097656 338.6946716308594 323.50372314453125 318.933349609375 316.38067626953125 C 310.50457763671875 309.4326477050781 273.1802673339844 308.7664794921875 252.84548950195312 308.9517822265625 C 255.25279235839844 307.0208435058594 271.7657470703125 289.5110778808594 298.7222595214844 290.7431335449219 C 299.0749206542969 290.7295227050781 340.366943359375 296.61865234375 350.4396057128906 343.0912780761719" fill="rgb(253, 250, 231)" opacity="0.9797838" stroke="rgb(157, 145, 192)" stroke-linecap="round" stroke-linejoin="round" stroke-opacity="0.58758956" stroke-width="0.0"/>
    <path d="M 634.78271484375 437.385498046875 C 633.4813842773438 427.4521789550781 645.561767578125 442.9458312988281 534.9049072265625 480.219970703125 C 550.4810791015625 363.8131103515625 654.8790893554688 448.1850891113281 594.5601806640625 390.7729797363281 C 543.06640625 389.8884582519531 493.8166198730469 270.72320556640625 611.9916381835938 365.9285583496094 C 618.3950805664062 371.6321105957031 638.4954833984375 416.5244445800781 634.78271484375 437.385498046875" fill="rgb(254, 249, 229)" opacity="0.9749056" stroke="rgb(133, 102, 192)" stroke-linecap="round" stroke-linejoin="round" stroke-opacity="0.6550353" stroke-width="0.0"/>
    <path d="M 496.19525146484375 445.517822265625 C 465.7590637207031 474.54071044921875 494.35687255859375 510.40081787109375 414.8814392089844 562.8433837890625 C 503.9975280761719 448.50872802734375 460.8434143066406 468.0230407714844 434.79779052734375 492.8641662597656 C 477.6575012207031 447.6529541015625 441.37255859375 409.4140319824219 478.052978515625 398.4291076660156 C 512.9927368164062 413.7420959472656 517.140380859375 398.21929931640625 496.19525146484375 445.517822265625" fill="rgb(252, 248, 227)" opacity="0.9946937" stroke="rgb(38, 188, 221)" stroke-linecap="round" stroke-linejoin="round" stroke-opacity="0.7373106" stroke-width="0.0"/>
    <path d="M 335.49456787109375 354.4991149902344 C 352.76116943359375 355.41668701171875 298.0563659667969 354.0586853027344 298.43157958984375 344.1549377441406 C 304.2437744140625 356.67413330078125 256.8573303222656 309.62506103515625 293.0126037597656 323.3518371582031 C 304.5148010253906 358.5989074707031 333.93975830078125 336.7416076660156 318.2357482910156 326.65380859375 C 329.11529541015625 329.6741638183594 340.28143310546875 353.1626892089844 335.49456787109375 354.4991149902344" fill="rgb(253, 249, 227)" opacity="0.9836453" stroke="rgb(146, 39, 68)" stroke-linecap="round" stroke-linejoin="round" stroke-opacity="0.30690554" stroke-width="0.0"/>
    <path d="M 571.2645874023438 254.6739959716797 C 472.1197204589844 299.4435119628906 612.6849365234375 71.65908813476562 527.8941650390625 224.448974609375 C 520.3640747070312 223.95660400390625 495.146728515625 192.8149871826172 509.5769348144531 199.06224060058594 C 489.4432067871094 186.37106323242188 477.7338562011719 129.79037475585938 552.2511596679688 90.50193786621094 C 582.6758422851562 93.3184814453125 574.9583129882812 232.4788055419922 571.2645874023438 254.6739959716797" fill="rgb(255, 252, 232)" opacity="0.9655949" stroke="rgb(107, 103, 241)" stroke-linecap="round" stroke-linejoin="round" stroke-opacity="0.36909917" stroke-width="0.0"/>
    <path d="M 407.6205749511719 318.64617919921875 C 421.42041015625 495.7491455078125 440.5419616699219 436.2176208496094 364.74884033203125 494.54620361328125 C 329.7104797363281 472.77203369140625 369.2472839355469 473.55133056640625 353.6253967285156 462.9432067871094 C 332.44329833984375 440.11224365234375 347.2801818847656 399.2174377441406 373.867919921875 310.4822998046875 C 291.37554931640625 140.88905334472656 480.2353210449219 91.50994873046875 407.6205749511719 318.64617919921875" fill="rgb(53, 65, 84)" opacity="0.3727913" stroke="rgb(91, 233, 66)" stroke-linecap="round" stroke-linejoin="round" stroke-opacity="0.5954912" stroke-width="0.0"/>
    <path d="M 577.2465209960938 90.39484405517578 C 562.8200073242188 192.02178955078125 607.8153076171875 132.01300048828125 579.7479858398438 278.73876953125 C 577.579345703125 110.85333251953125 551.2391357421875 197.57437133789062 560.9854125976562 96.91613006591797 C 566.4772338867188 49.68300247192383 417.28546142578125 236.495849609375 413.55023193359375 190.4654998779297 C 518.2865600585938 111.48807525634766 542.0248413085938 40.915870666503906 577.2465209960938 90.39484405517578" fill="rgb(7, 8, 22)" opacity="0.96868366" stroke="rgb(165, 36, 30)" stroke-linecap="round" stroke-linejoin="round" stroke-opacity="0.90795535" stroke-width="0.0"/>
    <path d="M 401.4372863769531 457.6755676269531 C 427.6632995605469 473.21380615234375 428.447265625 485.9676513671875 397.3192138671875 507.4676208496094 C 373.1419982910156 509.76904296875 361.15789794921875 502.8506774902344 348.20184326171875 485.20404052734375 C 349.2553405761719 441.02557373046875 390.94342041015625 476.22259521484375 405.1396484375 431.4145202636719 C 408.7674255371094 432.17071533203125 413.125 437.3772277832031 401.4372863769531 457.6755676269531" fill="rgb(16, 16, 29)" opacity="0.9999049" stroke="rgb(193, 39, 18)" stroke-linecap="round" stroke-linejoin="round" stroke-opacity="0.9698205" stroke-width="0.0"/>
    <path d="M 431.1990966796875 494.6691589355469 C 486.6654357910156 420.5676574707031 467.7953186035156 552.9721069335938 342.1493225097656 510.87518310546875 C 242.24696350097656 478.5550537109375 454.9551696777344 549.3831787109375 414.78387451171875 460.6083679199219 C 434.4745788574219 450.2967834472656 409.23724365234375 367.7655029296875 420.06439208984375 382.940185546875 C 433.416259765625 407.76019287109375 453.68658447265625 461.9820861816406 431.1990966796875 494.6691589355469" fill="rgb(255, 251, 228)" opacity="0.9694095" stroke="rgb(52, 169, 171)" stroke-linecap="round" stroke-linejoin="round" stroke-opacity="0.192621" stroke-width="0.0"/>
    <path d="M 537.1705932617188 78.61128234863281 C 443.69146728515625 166.90782165527344 425.9984130859375 183.38015747070312 414.0853271484375 182.50091552734375 C 378.2725524902344 170.41934204101562 333.19873046875 224.45909118652344 269.3409423828125 0.3897393047809601 C 332.0149230957031 -15.6062593460083 376.11114501953125 -29.321067810058594 770.2518920898438 0.5760435461997986 C 597.0734252929688 272.31549072265625 603.1965942382812 37.072731018066406 537.1705932617188 78.61128234863281" fill="rgb(134, 171, 190)" opacity="0.8641759" stroke="rgb(123, 194, 71)" stroke-linecap="round" stroke-linejoin="round" stroke-opacity="0.36938947" stroke-width="0.0"/>
    <path d="M 329.9725036621094 115.34825897216797 C 405.2106018066406 180.9127960205078 384.08099365234375 201.7757110595703 328.5203552246094 156.79769897460938 C 191.83383178710938 49.61117935180664 338.69091796875 176.61305236816406 256.6135559082031 195.75698852539062 C 65.51354217529297 253.2271728515625 -9.008052825927734 303.6479187011719 -30.40365219116211 3.1933443546295166 C 479.40533447265625 -33.380088806152344 386.6626281738281 65.80095672607422 329.9725036621094 115.34825897216797" fill="rgb(221, 195, 178)" opacity="1.0" stroke="rgb(114, 52, 25)" stroke-linecap="round" stroke-linejoin="round" stroke-opacity="0.83143497" stroke-width="0.0"/>
    <path d="M 780.2732543945312 446.73876953125 C 780.0270385742188 566.2326049804688 775.619140625 567.3989868164062 749.0938720703125 600.954833984375 C 687.250244140625 589.8834838867188 688.0023193359375 588.4476928710938 666.6905517578125 591.992919921875 C 670.4310913085938 478.4549560546875 673.8771362304688 475.32672119140625 770.2030029296875 359.1245422363281 C 834.2007446289062 380.12554931640625 791.75537109375 414.3232116699219 780.2732543945312 446.73876953125" fill="rgb(40, 159, 216)" opacity="0.060963046" stroke="rgb(216, 106, 216)" stroke-linecap="round" stroke-linejoin="round" stroke-opacity="0.03302753" stroke-width="0.0"/>
    <path d="M 766.1463623046875 6.247426986694336 C 801.885009765625 610.490966796875 715.266357421875 570.58447265625 688.9093017578125 559.6173095703125 C 605.561767578125 553.0783081054688 604.6936645507812 544.15185546875 608.1580810546875 538.5386352539062 C 620.4500122070312 503.9382629394531 637.2239379882812 488.22369384765625 632.4454956054688 356.50396728515625 C 595.1834106445312 275.9040832519531 468.3453369140625 52.644012451171875 766.1463623046875 6.247426986694336" fill="rgb(164, 209, 229)" opacity="0.56089157" stroke="rgb(61, 12, 226)" stroke-linecap="round" stroke-linejoin="round" stroke-opacity="0.02483352" stroke-width="0.0"/>
    <path d="M 309.2337341308594 140.665771484375 C 316.1914978027344 191.96493530273438 294.5695495605469 181.08290100097656 258.9078063964844 99.6471939086914 C 135.9587860107422 70.1053695678711 327.2106018066406 141.63417053222656 202.6731719970703 316.04962158203125 C 115.9628677368164 99.73625946044922 212.55665588378906 52.08527374267578 238.8244171142578 67.24234771728516 C 268.1474304199219 90.73986053466797 270.51202392578125 95.12374114990234 309.2337341308594 140.665771484375" fill="rgb(79, 53, 51)" opacity="0.24648833" stroke="rgb(237, 51, 129)" stroke-linecap="round" stroke-linejoin="round" stroke-opacity="0.34229565" stroke-width="0.0"/>
    <path d="M 482.04742431640625 319.6017150878906 C 470.7678527832031 342.7958984375 472.0858154296875 341.99493408203125 468.986328125 340.5394592285156 C 465.4529724121094 346.27923583984375 442.7643127441406 346.2592468261719 457.4996032714844 308.3645324707031 C 466.7583312988281 296.917236328125 444.72650146484375 348.2596740722656 470.31512451171875 335.0369567871094 C 469.9051208496094 285.3357238769531 428.0377502441406 300.61541748046875 482.04742431640625 319.6017150878906" fill="rgb(15, 8, 4)" opacity="0.96204716" stroke="rgb(89, 96, 33)" stroke-linecap="round" stroke-linejoin="round" stroke-opacity="0.01530962" stroke-width="0.0"/>
    <path d="M 138.0205535888672 383.150390625 C 142.1487579345703 791.9644775390625 364.28594970703125 874.2828979492188 -100.39813995361328 652.8585205078125 C -12.08630084991455 554.7857666015625 -12.571045875549316 551.8613891601562 -21.044208526611328 512.6591186523438 C -42.12003707885742 510.00738525390625 -182.00787353515625 372.36895751953125 12.241133689880371 169.28704833984375 C 318.6499938964844 209.3836212158203 161.4731903076172 217.42771911621094 138.0205535888672 383.150390625" fill="rgb(129, 162, 180)" opacity="0.8787853" stroke="rgb(66, 189, 237)" stroke-linecap="round" stroke-linejoin="round" stroke-opacity="0.66555125" stroke-width="0.0"/>
    <path d="M 354.66766357421875 462.84124755859375 C 357.0869445800781 464.4433288574219 327.469970703125 482.41131591796875 372.18438720703125 507.023681640625 C 352.8244323730469 538.1521606445312 329.6907958984375 477.2781066894531 330.644287109375 448.5046691894531 C 328.381591796875 431.4824523925781 337.17852783203125 400.26751708984375 347.1306457519531 379.9095764160156 C 351.3878479003906 393.89111328125 332.5013427734375 449.59649658203125 354.66766357421875 462.84124755859375" fill="rgb(253, 248, 226)" opacity="0.98884004" stroke="rgb(10, 15, 96)" stroke-linecap="round" stroke-linejoin="round" stroke-opacity="0.49195614" stroke-width="0.0"/>
    <path d="M 514.4427490234375 308.5260925292969 C 529.2684936523438 311.7283630371094 469.08392333984375 307.1707458496094 457.2455139160156 316.29443359375 C 432.85321044921875 320.1433410644531 425.5310363769531 364.42120361328125 426.5345458984375 336.3999328613281 C 436.6377258300781 302.3497009277344 458.0360107421875 294.04779052734375 467.13739013671875 292.5419006347656 C 479.58087158203125 288.2030334472656 503.3146057128906 295.9752197265625 514.4427490234375 308.5260925292969" fill="rgb(248, 244, 225)" opacity="1.0" stroke="rgb(249, 97, 254)" stroke-linecap="round" stroke-linejoin="round" stroke-opacity="0.72148997" stroke-width="0.0"/>
    <path d="M 669.7459106445312 606.6224365234375 C 633.1615600585938 585.97265625 645.6168823242188 600.173583984375 471.95733642578125 609.8067626953125 C 523.16162109375 580.3998413085938 538.9605102539062 577.1441650390625 569.4429321289062 524.7936401367188 C 593.6948852539062 487.5042419433594 594.6290893554688 471.0708312988281 598.389404296875 449.4103088378906 C 680.174560546875 406.5999755859375 660.3704833984375 454.07244873046875 669.7459106445312 606.6224365234375" fill="rgb(131, 162, 179)" opacity="0.95744354" stroke="rgb(252, 10, 254)" stroke-linecap="round" stroke-linejoin="round" stroke-opacity="0.037937045" stroke-width="0.0"/>
    <path d="M 439.9559631347656 168.38021850585938 C 425.473388671875 191.3817138671875 387.68963623046875 177.02694702148438 395.2960510253906 181.32054138183594 C 394.07977294921875 179.10659790039062 364.15576171875 185.11013793945312 320.8295593261719 172.1017608642578 C 298.4336853027344 83.20861053466797 332.5699768066406 119.08749389648438 403.9718933105469 142.98345947265625 C 422.2354431152344 145.4127197265625 434.7979431152344 142.42274475097656 439.9559631347656 168.38021850585938" fill="rgb(129, 163, 183)" opacity="0.9546821" stroke="rgb(42, 51, 187)" stroke-linecap="round" stroke-linejoin="round" stroke-opacity="0.9072496" stroke-width="0.0"/>
    <path d="M 598.162109375 337.8832092285156 C 661.462646484375 365.5325012207031 573.89453125 361.67901611328125 573.0084228515625 358.6472473144531 C 511.5087890625 323.9733581542969 546.189453125 324.1526184082031 445.5353088378906 323.9620666503906 C 450.107177734375 321.06121826171875 457.1297607421875 308.19683837890625 524.1132202148438 311.61151123046875 C 572.5189819335938 330.972900390625 544.485107421875 335.7190856933594 598.162109375 337.8832092285156" fill="rgb(20, 22, 37)" opacity="0.9826456" stroke="rgb(181, 252, 223)" stroke-linecap="round" stroke-linejoin="round" stroke-opacity="0.65475583" stroke-width="0.0"/>
    <path d="M 568.8233642578125 255.258544921875 C 568.9237670898438 261.1324768066406 607.7252807617188 256.7019958496094 571.4314575195312 275.63177490234375 C 522.0853271484375 253.56826782226562 456.2639465332031 189.62950134277344 492.81439208984375 167.15069580078125 C 501.69293212890625 221.05191040039062 536.4197998046875 229.6408233642578 555.9297485351562 250.64056396484375 C 529.6862182617188 225.05323791503906 548.1572265625 245.89923095703125 568.8233642578125 255.258544921875" fill="rgb(16, 17, 30)" opacity="0.9935657" stroke="rgb(35, 121, 138)" stroke-linecap="round" stroke-linejoin="round" stroke-opacity="0.7146088" stroke-width="0.0"/>
    <path d="M 425.95452880859375 181.42930603027344 C 427.70355224609375 201.7596435546875 435.3243713378906 196.994384765625 357.5542297363281 196.6157989501953 C 350.9901428222656 194.07644653320312 334.18756103515625 193.79954528808594 256.67352294921875 118.3700180053711 C 249.11378479003906 83.28165435791016 268.69903564453125 109.91028594970703 327.38812255859375 157.7545166015625 C 367.545166015625 187.39602661132812 338.60406494140625 180.49081420898438 425.95452880859375 181.42930603027344" fill="rgb(10, 11, 26)" opacity="0.98430836" stroke="rgb(13, 192, 126)" stroke-linecap="round" stroke-linejoin="round" stroke-opacity="0.82795167" stroke-width="0.0"/>
    <path d="M 349.9072570800781 500.1218566894531 C 335.4813537597656 544.3442993164062 252.5702362060547 386.983154296875 359.7707824707031 562.6060791015625 C 276.0338134765625 507.7367858886719 312.2035217285156 484.5043640136719 272.8516540527344 447.0296936035156 C 250.30184936523438 396.8495178222656 256.5273132324219 416.6483459472656 285.8232421875 401.6445617675781 C 330.32733154296875 399.1647644042969 280.9970703125 473.6534729003906 349.9072570800781 500.1218566894531" fill="rgb(252, 248, 226)" opacity="0.9888471" stroke="rgb(20, 232, 179)" stroke-linecap="round" stroke-linejoin="round" stroke-opacity="0.13024494" stroke-width="0.0"/>
    <path d="M 242.46640014648438 232.38189697265625 C 225.37451171875 243.78692626953125 224.0331573486328 248.06838989257812 202.45021057128906 255.843505859375 C 201.3924102783203 260.0159912109375 201.71116638183594 255.61602783203125 198.9314422607422 210.50216674804688 C 201.7526092529297 177.92784118652344 205.6711883544922 190.3473663330078 221.73193359375 144.94166564941406 C 204.50848388671875 197.780029296875 242.8451690673828 233.1847381591797 242.46640014648438 232.38189697265625" fill="rgb(254, 251, 229)" opacity="0.965476" stroke="rgb(239, 250, 13)" stroke-linecap="round" stroke-linejoin="round" stroke-opacity="0.3439759" stroke-width="0.0"/>
    <path d="M 256.6932678222656 238.99627685546875 C 243.58993530273438 251.43003845214844 236.7202606201172 254.81610107421875 226.46112060546875 262.6741943359375 C 221.41958618164062 263.36798095703125 223.17218017578125 255.23924255371094 213.84603881835938 252.6139678955078 C 225.85206604003906 246.8054962158203 229.89218139648438 241.63336181640625 241.12962341308594 235.077392578125 C 259.480712890625 214.50839233398438 269.3634033203125 216.0994873046875 256.6932678222656 238.99627685546875" fill="rgb(12, 13, 27)" opacity="0.84497887" stroke="rgb(10, 40, 201)" stroke-linecap="round" stroke-linejoin="round" stroke-opacity="0.4168148" stroke-width="0.0"/>
    <path d="M 236.02044677734375 254.47244262695312 C 227.83177185058594 259.40521240234375 229.60556030273438 260.67822265625 221.54811096191406 265.78704833984375 C 203.92544555664062 274.3046569824219 203.62518310546875 276.92791748046875 217.50978088378906 264.6772766113281 C 217.5397491455078 255.1964111328125 215.51101684570312 251.75682067871094 228.03184509277344 244.50347900390625 C 248.4656982421875 226.33575439453125 247.92636108398438 249.35609436035156 236.02044677734375 254.47244262695312" fill="rgb(0, 2, 21)" opacity="0.52435195" stroke="rgb(112, 149, 110)" stroke-linecap="round" stroke-linejoin="round" stroke-opacity="0.1284956" stroke-width="0.0"/>
    <path d="M 375.6885986328125 196.3341064453125 C 359.2931213378906 239.5931854248047 357.8350830078125 244.62391662597656 353.0052185058594 245.79647827148438 C 323.8459167480469 230.39915466308594 319.721923828125 224.58074951171875 312.4922180175781 230.8045654296875 C 283.96124267578125 231.1795654296875 288.4510192871094 177.8207244873047 278.38232421875 137.96693420410156 C 361.4925231933594 202.748779296875 358.84747314453125 205.52395629882812 375.6885986328125 196.3341064453125" fill="rgb(72, 83, 98)" opacity="0.89403915" stroke="rgb(105, 14, 27)" stroke-linecap="round" stroke-linejoin="round" stroke-opacity="0.10163029" stroke-width="0.0"/>
    <path d="M 333.95416259765625 506.560791015625 C 354.58441162109375 517.673828125 335.4159240722656 538.1751708984375 318.8398132324219 511.2356262207031 C 312.67877197265625 500.95098876953125 310.1275939941406 497.9425964355469 306.1908264160156 486.0670471191406 C 298.69537353515625 470.34942626953125 308.3193664550781 469.38995361328125 309.5708312988281 474.87359619140625 C 317.8824157714844 488.0250244140625 319.4349365234375 496.2690734863281 333.95416259765625 506.560791015625" fill="rgb(60, 52, 53)" opacity="1.0" stroke="rgb(206, 145, 170)" stroke-linecap="round" stroke-linejoin="round" stroke-opacity="0.5173446" stroke-width="0.0"/>
    <path d="M 272.09637451171875 226.17332458496094 C 262.85772705078125 232.9794921875 260.8310546875 237.70211791992188 251.15438842773438 243.02728271484375 C 240.90147399902344 254.3832244873047 236.05189514160156 252.01405334472656 241.97958374023438 229.69554138183594 C 235.04981994628906 219.14625549316406 252.53811645507812 231.75582885742188 258.4998474121094 220.17608642578125 C 276.2983703613281 202.23130798339844 278.0321350097656 208.95912170410156 272.09637451171875 226.17332458496094" fill="rgb(0, 0, 21)" opacity="0.5187178" stroke="rgb(136, 34, 241)" stroke-linecap="round" stroke-linejoin="round" stroke-opacity="0.4703315" stroke-width="0.0"/>
    <path d="M 394.466552734375 674.6619262695312 C 389.2264709472656 687.9561157226562 387.9014587402344 688.4843139648438 388.1431579589844 690.5870361328125 C 385.1230773925781 683.8773803710938 382.2279052734375 679.96533203125 379.3977355957031 673.8378295898438 C 369.2975769042969 656.3790893554688 367.91473388671875 653.641845703125 349.8780822753906 637.3594970703125 C 466.85107421875 627.4859008789062 398.5549011230469 646.049072265625 394.466552734375 674.6619262695312" fill="rgb(254, 249, 231)" opacity="0.9653972" stroke="rgb(135, 40, 46)" stroke-linecap="round" stroke-linejoin="round" stroke-opacity="0.8975585" stroke-width="0.0"/>
    <path d="M 243.08786010742188 197.89651489257812 C 250.86839294433594 223.5664520263672 267.9626770019531 212.0986785888672 250.27850341796875 224.60972595214844 C 240.99546813964844 222.71070861816406 225.27407836914062 197.4268341064453 221.63949584960938 178.1034393310547 C 210.3497772216797 146.7847442626953 231.7082061767578 101.07291412353516 219.42323303222656 160.95286560058594 C 242.5552215576172 186.46188354492188 225.06239318847656 174.746337890625 243.08786010742188 197.89651489257812" fill="rgb(251, 247, 224)" opacity="1.0" stroke="rgb(126, 182, 148)" stroke-linecap="round" stroke-linejoin="round" stroke-opacity="0.49002603" stroke-width="0.0"/>
    <path d="M 219.8708953857422 121.09588623046875 C 218.82037353515625 186.1635284423828 201.8059844970703 160.66683959960938 196.91555786132812 215.98309326171875 C 175.054931640625 192.57223510742188 187.22488403320312 185.00601196289062 204.6269989013672 142.45468139648438 C 197.91810607910156 72.18817901611328 213.2249755859375 35.199466705322266 296.7845764160156 144.27674865722656 C 241.0156707763672 121.33995819091797 215.9619903564453 56.52401351928711 219.8708953857422 121.09588623046875" fill="rgb(9, 10, 23)" opacity="0.98787206" stroke="rgb(20, 156, 220)" stroke-linecap="round" stroke-linejoin="round" stroke-opacity="0.25843313" stroke-width="0.0"/>
    <path d="M 442.6423034667969 525.0868530273438 C 445.3686218261719 534.1439819335938 430.4279479980469 559.4204711914062 388.0895080566406 575.7076416015625 C 372.8332824707031 570.8497924804688 340.3956298828125 555.6981811523438 339.10986328125 533.3982543945312 C 347.3680419921875 542.4263916015625 376.1640930175781 563.0076904296875 387.7857360839844 563.5679321289062 C 385.1083679199219 562.97021484375 387.4211120605469 569.8096313476562 442.6423034667969 525.0868530273438" fill="rgb(253, 249, 228)" opacity="0.9850226" stroke="rgb(18, 144, 105)" stroke-linecap="round" stroke-linejoin="round" stroke-opacity="0.09896711" stroke-width="0.0"/>
    <path d="M 408.6567687988281 241.9733123779297 C 386.03009033203125 252.5511474609375 390.77728271484375 226.61978149414062 379.65673828125 250.17459106445312 C 360.8063659667969 252.31324768066406 361.3380432128906 254.5918731689453 366.0801696777344 245.46542358398438 C 370.0826110839844 227.74337768554688 384.99554443359375 219.18814086914062 384.063720703125 221.8062744140625 C 393.3363952636719 220.84768676757812 398.50506591796875 222.84034729003906 408.6567687988281 241.9733123779297" fill="rgb(17, 20, 34)" opacity="0.9609901" stroke="rgb(237, 236, 64)" stroke-linecap="round" stroke-linejoin="round" stroke-opacity="0.36370343" stroke-width="0.0"/>
    <path d="M 441.833251953125 525.798828125 C 405.5605163574219 566.5909423828125 375.691162109375 562.9532470703125 387.4503173828125 563.4979858398438 C 372.258544921875 558.8350219726562 366.9665222167969 552.6393432617188 355.04278564453125 546.9107055664062 C 327.641357421875 523.6824340820312 332.1437683105469 534.4542846679688 401.8253173828125 545.7131958007812 C 408.9891357421875 536.565673828125 422.1019592285156 512.9324340820312 441.833251953125 525.798828125" fill="rgb(45, 41, 49)" opacity="0.95765316" stroke="rgb(56, 204, 207)" stroke-linecap="round" stroke-linejoin="round" stroke-opacity="0.940067" stroke-width="0.0"/>
    <path d="M 336.2861328125 345.7715148925781 C 326.02178955078125 324.4208068847656 311.86663818359375 320.5530090332031 299.2947692871094 324.69256591796875 C 303.3878173828125 328.9135437011719 297.63043212890625 327.6855163574219 295.9675598144531 321.1700744628906 C 290.7625427246094 314.4712219238281 295.6684875488281 316.8343505859375 289.17425537109375 309.3351135253906 C 303.2821044921875 314.8058776855469 331.55572509765625 309.2332763671875 336.2861328125 345.7715148925781" fill="rgb(34, 34, 55)" opacity="0.6401086" stroke="rgb(21, 43, 56)" stroke-linecap="round" stroke-linejoin="round" stroke-opacity="0.11166217" stroke-width="0.0"/>
    <path d="M 269.0054016113281 192.93458557128906 C 273.3345642089844 198.7492218017578 274.8860168457031 194.53680419921875 268.1069641113281 206.18104553222656 C 263.540283203125 213.69699096679688 257.8434143066406 209.48316955566406 243.32882690429688 189.9294891357422 C 238.9148712158203 171.92730712890625 235.42578125 186.01966857910156 253.2161407470703 189.13406372070312 C 278.47283935546875 197.65536499023438 268.66656494140625 187.3017120361328 269.0054016113281 192.93458557128906" fill="rgb(253, 245, 217)" opacity="1.0" stroke="rgb(11, 216, 31)" stroke-linecap="round" stroke-linejoin="round" stroke-opacity="0.71865165" stroke-width="0.0"/>
    <path d="M 284.5872802734375 314.9227600097656 C 284.149169921875 317.3395690917969 274.28424072265625 316.7642822265625 255.28016662597656 315.591064453125 C 266.5657653808594 321.5199890136719 258.7760009765625 318.84539794921875 248.62197875976562 310.50640869140625 C 256.2413635253906 306.05340576171875 282.4036865234375 309.05657958984375 276.0431823730469 310.50091552734375 C 261.4878234863281 307.1136474609375 267.4531555175781 310.4738464355469 284.5872802734375 314.9227600097656" fill="rgb(126, 114, 121)" opacity="0.5027242" stroke="rgb(227, 195, 14)" stroke-linecap="round" stroke-linejoin="round" stroke-opacity="0.39185756" stroke-width="0.0"/>
    <path d="M 274.4638977050781 210.7099609375 C 268.5084533691406 228.08984375 266.54248046875 232.88656616210938 271.80792236328125 218.8413848876953 C 261.6047668457031 205.25975036621094 250.92657470703125 229.06900024414062 261.51385498046875 226.39312744140625 C 259.7960205078125 217.5741424560547 232.9219512939453 197.81785583496094 236.5266876220703 178.12539672851562 C 265.23638916015625 222.30706787109375 254.01956176757812 207.26876831054688 274.4638977050781 210.7099609375" fill="rgb(70, 57, 66)" opacity="0.76251346" stroke="rgb(49, 38, 210)" stroke-linecap="round" stroke-linejoin="round" stroke-opacity="0.1451765" stroke-width="0.0"/>
    <path d="M 403.94464111328125 533.5013427734375 C 416.7407531738281 558.49560546875 382.2024230957031 564.731689453125 380.3383483886719 560.1143798828125 C 372.4730224609375 558.070068359375 360.1988220214844 554.4678344726562 336.2677307128906 532.076171875 C 321.533447265625 518.9677734375 330.09979248046875 512.949951171875 341.1141662597656 518.850830078125 C 390.37994384765625 531.847412109375 398.1719055175781 532.4515991210938 403.94464111328125 533.5013427734375" fill="rgb(0, 0, 14)" opacity="0.49383768" stroke="rgb(193, 74, 20)" stroke-linecap="round" stroke-linejoin="round" stroke-opacity="0.65987945" stroke-width="0.0"/>
    <path d="M 334.1118469238281 341.4331970214844 C 315.0809326171875 312.43994140625 299.9396667480469 327.9090270996094 297.1013488769531 323.30621337890625 C 272.57708740234375 324.1720275878906 287.00006103515625 326.47137451171875 269.9425354003906 314.6881408691406 C 269.689453125 310.09759521484375 269.4621276855469 309.6773986816406 290.84552001953125 310.5415344238281 C 295.7847595214844 320.8136901855469 314.35400390625 301.8259582519531 334.1118469238281 341.4331970214844" fill="rgb(5, 0, 0)" opacity="0.53929555" stroke="rgb(154, 254, 53)" stroke-linecap="round" stroke-linejoin="round" stroke-opacity="0.6987827" stroke-width="0.0"/>
    <path d="M 453.4881286621094 227.56146240234375 C 400.7758483886719 251.56259155273438 423.3435363769531 279.99749755859375 398.4176025390625 271.1502990722656 C 392.0533752441406 237.03427124023438 387.1376647949219 232.80052185058594 366.8630065917969 237.25250244140625 C 396.59759521484375 236.31057739257812 368.5980224609375 221.00369262695312 412.7475891113281 245.44775390625 C 396.29217529296875 242.69952392578125 464.510498046875 184.26075744628906 453.4881286621094 227.56146240234375" fill="rgb(16, 18, 32)" opacity="0.93123513" stroke="rgb(108, 140, 150)" stroke-linecap="round" stroke-linejoin="round" stroke-opacity="0.40409654" stroke-width="0.0"/>
    <path d="M 377.8562316894531 251.0113067626953 C 377.6448669433594 274.5794677734375 366.66522216796875 281.15032958984375 363.88543701171875 263.6316223144531 C 355.5162353515625 262.27130126953125 355.1793212890625 250.47019958496094 338.7986755371094 237.49948120117188 C 324.4185485839844 227.5929718017578 323.75830078125 227.7395782470703 348.9729309082031 224.2684783935547 C 372.5956115722656 247.01683044433594 365.0227966308594 251.6103973388672 377.8562316894531 251.0113067626953" fill="rgb(19, 22, 36)" opacity="1.0" stroke="rgb(211, 8, 221)" stroke-linecap="round" stroke-linejoin="round" stroke-opacity="0.2499952" stroke-width="0.0"/>
    <path d="M 304.12176513671875 312.4563903808594 C 294.0372314453125 331.9226379394531 280.3450012207031 317.7481384277344 277.8428955078125 324.59259033203125 C 239.71385192871094 322.3332824707031 261.7901306152344 329.07293701171875 242.4418182373047 326.13360595703125 C 255.56578063964844 317.5861511230469 248.22120666503906 311.4766540527344 256.387939453125 308.550537109375 C 280.4607238769531 309.43902587890625 289.9840393066406 312.8829345703125 304.12176513671875 312.4563903808594" fill="rgb(20, 27, 51)" opacity="0.6189499" stroke="rgb(227, 188, 144)" stroke-linecap="round" stroke-linejoin="round" stroke-opacity="0.60087067" stroke-width="0.0"/>
    <path d="M 243.26832580566406 330.8081359863281 C 210.5276641845703 349.1333923339844 218.9016571044922 363.81146240234375 177.66793823242188 359.9048767089844 C 151.3959197998047 354.7523193359375 148.12657165527344 401.6481018066406 139.89370727539062 398.1008605957031 C 125.74520111083984 326.8240051269531 230.03221130371094 325.3202209472656 182.04779052734375 352.1617736816406 C 237.1411590576172 311.3281555175781 247.50955200195312 333.8492126464844 243.26832580566406 330.8081359863281" fill="rgb(23, 25, 36)" opacity="0.9861665" stroke="rgb(123, 33, 248)" stroke-linecap="round" stroke-linejoin="round" stroke-opacity="0.4331801" stroke-width="0.0"/>
    <path d="M 256.2952880859375 318.76422119140625 C 244.8697509765625 332.3998107910156 232.6071014404297 337.89373779296875 221.9828643798828 348.62646484375 C 207.0048370361328 358.27508544921875 195.23960876464844 368.73150634765625 192.39541625976562 335.6273193359375 C 219.1755828857422 337.2903747558594 227.8762664794922 318.9774475097656 244.85812377929688 312.10980224609375 C 256.2245788574219 307.202392578125 246.93898010253906 305.4853210449219 256.2952880859375 318.76422119140625" fill="rgb(17, 22, 37)" opacity="0.7576248" stroke="rgb(8, 135, 201)" stroke-linecap="round" stroke-linejoin="round" stroke-opacity="0.93337214" stroke-width="0.0"/>
    <path d="M 357.93292236328125 516.18212890625 C 368.4126892089844 551.6504516601562 346.39678955078125 543.0892944335938 327.8929138183594 522.9539184570312 C 320.927978515625 515.1115112304688 319.0522766113281 509.794189453125 317.5519714355469 507.4972229003906 C 311.7106018066406 499.6390075683594 301.7300109863281 477.4216003417969 314.40057373046875 486.46588134765625 C 325.2974548339844 505.77239990234375 338.2568664550781 513.078125 357.93292236328125 516.18212890625" fill="rgb(16, 16, 28)" opacity="0.9250876" stroke="rgb(31, 224, 10)" stroke-linecap="round" stroke-linejoin="round" stroke-opacity="0.46859333" stroke-width="0.0"/>
    <path d="M 326.1564025878906 500.8250427246094 C 309.83538818359375 473.5566101074219 299.0155029296875 464.7038879394531 307.36785888671875 488.97198486328125 C 310.7221984863281 489.24810791015625 302.4551696777344 491.76837158203125 310.50848388671875 491.6735534667969 C 305.41387939453125 493.2122802734375 297.4615478515625 467.5445861816406 306.7106018066406 472.1336364746094 C 310.806396484375 468.4609375 314.7771911621094 490.90240478515625 326.1564025878906 500.8250427246094" fill="rgb(139, 124, 102)" opacity="0.5886065" stroke="rgb(84, 178, 19)" stroke-linecap="round" stroke-linejoin="round" stroke-opacity="0.5345854" stroke-width="0.0"/>
    <path d="M 467.6422119140625 471.26898193359375 C 468.52166748046875 523.658935546875 392.6097717285156 555.7188720703125 405.4135437011719 559.4072875976562 C 372.8872985839844 534.6513061523438 363.3636474609375 545.2460327148438 358.012939453125 515.3307495117188 C 389.9123229980469 520.5105590820312 425.9120178222656 514.6135864257812 373.06475830078125 518.8410034179688 C 451.7633056640625 513.6569213867188 437.7579040527344 509.55291748046875 467.6422119140625 471.26898193359375" fill="rgb(0, 0, 8)" opacity="0.81446975" stroke="rgb(15, 136, 27)" stroke-linecap="round" stroke-linejoin="round" stroke-opacity="0.91669506" stroke-width="0.0"/>
    <path d="M 224.6632537841797 264.681640625 C 222.07925415039062 259.20654296875 196.92901611328125 290.0350036621094 184.1982879638672 265.9925231933594 C 190.740966796875 255.14735412597656 184.80694580078125 255.12489318847656 185.2198486328125 197.2443084716797 C 210.21372985839844 147.039794921875 194.48287963867188 190.67047119140625 200.85284423828125 258.68255615234375 C 225.63046264648438 246.78477478027344 223.84085083007812 247.8946075439453 224.6632537841797 264.681640625" fill="rgb(9, 11, 22)" opacity="0.9788058" stroke="rgb(81, 51, 114)" stroke-linecap="round" stroke-linejoin="round" stroke-opacity="0.7879493" stroke-width="0.0"/>
    <path d="M 344.4103088378906 221.41482543945312 C 354.8871765136719 228.82337951660156 345.4321594238281 241.97547912597656 327.72381591796875 230.50010681152344 C 320.508056640625 227.61068725585938 320.5684509277344 225.91787719726562 317.3468322753906 221.30560302734375 C 318.6531677246094 210.282958984375 327.332763671875 213.32675170898438 328.6513366699219 214.5123748779297 C 320.9029846191406 208.75221252441406 331.31561279296875 213.14137268066406 344.4103088378906 221.41482543945312" fill="rgb(18, 19, 33)" opacity="0.98535854" stroke="rgb(136, 120, 145)" stroke-linecap="round" stroke-linejoin="round" stroke-opacity="0.7097418" stroke-width="0.0"/>
    <path d="M 302.9061584472656 317.8572692871094 C 300.2232971191406 336.15625 311.6858825683594 343.9870910644531 299.93865966796875 337.09942626953125 C 294.16595458984375 324.25567626953125 291.0268249511719 322.0813903808594 292.2715759277344 307.84075927734375 C 291.3316955566406 323.6257019042969 290.7945251464844 314.81964111328125 289.7445983886719 319.77783203125 C 310.9234924316406 320.09326171875 302.740478515625 318.083251953125 302.9061584472656 317.8572692871094" fill="rgb(12, 1, 0)" opacity="0.80899835" stroke="rgb(45, 99, 86)" stroke-linecap="round" stroke-linejoin="round" stroke-opacity="0.5942614" stroke-width="0.0"/>
    <path d="M 292.24700927734375 200.59915161132812 C 278.8416748046875 223.25831604003906 268.9281921386719 227.10289001464844 268.2583923339844 228.32595825195312 C 246.26022338867188 249.09793090820312 251.3777313232422 246.29592895507812 258.9245910644531 215.41519165039062 C 250.49993896484375 226.63018798828125 278.1126708984375 205.55299377441406 284.5852355957031 167.91368103027344 C 289.7346496582031 166.34689331054688 301.99273681640625 167.66757202148438 292.24700927734375 200.59915161132812" fill="rgb(9, 10, 25)" opacity="0.90415233" stroke="rgb(191, 47, 179)" stroke-linecap="round" stroke-linejoin="round" stroke-opacity="0.1515939" stroke-width="0.0"/>
    <path d="M 286.157958984375 314.42987060546875 C 346.0738220214844 325.6521301269531 307.0719299316406 323.0098571777344 258.5395812988281 323.6830749511719 C 241.26922607421875 329.316162109375 236.31610107421875 335.1999206542969 230.41867065429688 341.7351379394531 C 219.0446014404297 327.8243103027344 227.53140258789062 321.931396484375 250.97059631347656 310.2830810546875 C 293.36798095703125 306.94097900390625 258.9429626464844 315.1195068359375 286.157958984375 314.42987060546875" fill="rgb(15, 17, 30)" opacity="0.82586175" stroke="rgb(243, 244, 181)" stroke-linecap="round" stroke-linejoin="round" stroke-opacity="0.40238255" stroke-width="0.0"/>
    <path d="M 317.0546569824219 325.3558349609375 C 332.2500915527344 338.7813720703125 309.1554260253906 343.82025146484375 311.8581848144531 342.5364685058594 C 303.2064208984375 343.5169677734375 305.11627197265625 335.897216796875 301.0845947265625 334.5009460449219 C 316.5652160644531 340.2476501464844 316.7523193359375 329.1130065917969 316.368408203125 330.6449279785156 C 319.043701171875 330.01959228515625 300.33367919921875 311.61004638671875 317.0546569824219 325.3558349609375" fill="rgb(16, 5, 0)" opacity="0.9124651" stroke="rgb(95, 116, 198)" stroke-linecap="round" stroke-linejoin="round" stroke-opacity="0.10840876" stroke-width="0.0"/>
    <path d="M 379.4473571777344 254.25924682617188 C 375.3883972167969 272.24267578125 374.5745849609375 276.1193542480469 373.24835205078125 273.9607849121094 C 357.713134765625 269.93511962890625 366.0425720214844 278.1306457519531 358.03875732421875 260.4931335449219 C 353.9839782714844 262.3036804199219 361.7109680175781 239.061767578125 389.29742431640625 232.18382263183594 C 387.3690185546875 249.7607421875 386.17913818359375 232.4669952392578 379.4473571777344 254.25924682617188" fill="rgb(18, 20, 33)" opacity="0.8627562" stroke="rgb(141, 25, 47)" stroke-linecap="round" stroke-linejoin="round" stroke-opacity="0.9692175" stroke-width="0.0"/>
    <path d="M 144.3498992919922 58.34326934814453 C 135.9994659423828 81.09718322753906 134.1549530029297 84.38938903808594 90.85134887695312 100.44287109375 C 89.58728790283203 93.87004089355469 92.81146240234375 88.35029602050781 95.56438446044922 50.87681579589844 C 96.83700561523438 43.321815490722656 97.72624969482422 40.25377655029297 118.97449493408203 39.98494338989258 C 138.69284057617188 43.88766860961914 142.34080505371094 44.95149612426758 144.3498992919922 58.34326934814453" fill="rgb(131, 168, 190)" opacity="0.97001004" stroke="rgb(35, 92, 127)" stroke-linecap="round" stroke-linejoin="round" stroke-opacity="0.0057576466" stroke-width="0.0"/>
    <path d="M 173.8548126220703 13.671686172485352 C 184.9259796142578 80.57598876953125 225.85379028320312 115.24763488769531 192.045166015625 171.58895874023438 C 87.95401000976562 164.014404296875 93.19702911376953 129.25674438476562 89.75700378417969 105.74085998535156 C 104.53282165527344 63.89391326904297 111.57819366455078 63.455078125 148.70054626464844 55.87406921386719 C 151.51678466796875 51.057254791259766 156.51576232910156 53.29629898071289 173.8548126220703 13.671686172485352" fill="rgb(95, 161, 198)" opacity="0.5955524" stroke="rgb(76, 201, 241)" stroke-linecap="round" stroke-linejoin="round" stroke-opacity="0.029965645" stroke-width="0.0"/>
    <path d="M 165.9375457763672 31.944610595703125 C 165.74253845214844 71.46085357666016 163.6512451171875 74.55319213867188 158.0735321044922 74.1515121459961 C 113.19093322753906 67.56038665771484 110.38011932373047 64.18524932861328 107.99443054199219 44.97820281982422 C 108.36410522460938 20.33069610595703 109.17267608642578 16.471752166748047 128.3398895263672 10.618922233581543 C 157.44264221191406 14.939866065979004 159.38417053222656 18.029123306274414 165.9375457763672 31.944610595703125" fill="rgb(131, 162, 178)" opacity="0.97451943" stroke="rgb(44, 221, 115)" stroke-linecap="round" stroke-linejoin="round" stroke-opacity="0.82130307" stroke-width="0.0"/>
    <path d="M 72.01327514648438 117.24838256835938 C 64.00273132324219 116.97866821289062 64.66175842285156 125.16104125976562 -6.9672627449035645 127.68730163574219 C -6.772202968597412 105.84554290771484 -9.929800987243652 102.61299133300781 -10.525212287902832 53.11783981323242 C -3.2723536491394043 40.25934600830078 0.17184120416641235 38.23435592651367 43.04866027832031 37.044490814208984 C 51.060638427734375 50.714473724365234 58.46442794799805 48.86893081665039 72.01327514648438 117.24838256835938" fill="rgb(125, 161, 180)" opacity="0.9719154" stroke="rgb(170, 47, 174)" stroke-linecap="round" stroke-linejoin="round" stroke-opacity="0.3312825" stroke-width="0.0"/>
    <path d="M 85.95503997802734 61.246578216552734 C 87.43490600585938 82.57281494140625 86.82978057861328 87.69871520996094 64.7170181274414 95.74847412109375 C 32.60928726196289 85.0921401977539 31.286657333374023 79.33521270751953 26.71122169494629 38.027618408203125 C 29.11229133605957 26.759986877441406 31.69622039794922 23.931934356689453 53.15304183959961 22.815425872802734 C 80.63906860351562 26.96938133239746 81.69622039794922 31.065183639526367 85.95503997802734 61.246578216552734" fill="rgb(127, 161, 175)" opacity="0.9958618" stroke="rgb(107, 230, 216)" stroke-linecap="round" stroke-linejoin="round" stroke-opacity="0.9971111" stroke-width="0.0"/>
    <path d="M 119.0234375 77.45587921142578 C 114.19175720214844 85.56842803955078 119.12085723876953 98.77774810791016 61.7541389465332 109.06610107421875 C 59.456790924072266 96.03311920166016 62.21432113647461 91.29878997802734 65.06421661376953 69.452392578125 C 74.61766815185547 42.12394714355469 76.73739624023438 40.201210021972656 111.27057647705078 38.24370574951172 C 116.57270812988281 38.5092658996582 117.96775817871094 40.527408599853516 119.0234375 77.45587921142578" fill="rgb(138, 173, 197)" opacity="0.9611086" stroke="rgb(173, 242, 188)" stroke-linecap="round" stroke-linejoin="round" stroke-opacity="0.301599" stroke-width="0.0"/>
    <path d="M 205.79518127441406 -12.549976348876953 C 196.81201171875 41.8357048034668 189.77476501464844 42.48047637939453 174.82119750976562 43.1334114074707 C 131.48411560058594 40.191429138183594 128.47055053710938 37.656978607177734 120.09313201904297 13.653677940368652 C 121.4677963256836 -15.709205627441406 128.2079620361328 -13.058913230895996 146.0002899169922 -11.651914596557617 C 181.9461212158203 -10.541143417358398 190.0722198486328 -12.121545791625977 205.79518127441406 -12.549976348876953" fill="rgb(126, 159, 173)" opacity="0.97955525" stroke="rgb(126, 252, 170)" stroke-linecap="round" stroke-linejoin="round" stroke-opacity="0.08763892" stroke-width="0.0"/>
    <path d="M 342.6990661621094 121.28846740722656 C 337.4742126464844 122.34021759033203 304.509521484375 118.31607055664062 317.431396484375 148.91238403320312 C 301.9823303222656 138.10012817382812 285.6264343261719 122.7434310913086 265.510498046875 106.45038604736328 C 295.34942626953125 80.52425384521484 297.7854919433594 78.97949981689453 307.733642578125 74.95964050292969 C 344.78924560546875 90.36860656738281 341.63543701171875 100.59683227539062 342.6990661621094 121.28846740722656" fill="rgb(108, 159, 189)" opacity="0.7397539" stroke="rgb(35, 170, 72)" stroke-linecap="round" stroke-linejoin="round" stroke-opacity="0.12342508" stroke-width="0.0"/>
    <path d="M 132.76751708984375 37.97475051879883 C 128.74758911132812 57.683467864990234 126.99911499023438 59.828548431396484 107.40325927734375 59.874656677246094 C 86.10588836669922 56.6353645324707 85.38408660888672 53.51239013671875 78.4288558959961 3.8706536293029785 C 71.94377136230469 -4.19395112991333 72.9665756225586 -8.945952415466309 134.1215362548828 -10.043023109436035 C 138.25054931640625 4.582393169403076 137.54197692871094 8.171737670898438 132.76751708984375 37.97475051879883" fill="rgb(127, 159, 174)" opacity="0.9982606" stroke="rgb(14, 227, 54)" stroke-linecap="round" stroke-linejoin="round" stroke-opacity="0.89765835" stroke-width="0.0"/>
    <path d="M 772.0653076171875 4.470851898193359 C 739.2183227539062 263.12158203125 703.8112182617188 241.0915985107422 589.2413330078125 166.5625 C 567.94775390625 141.68165588378906 576.1837768554688 139.64593505859375 575.3888549804688 120.38477325439453 C 576.3905029296875 80.7210464477539 575.3699340820312 93.94617462158203 569.685791015625 77.69098663330078 C 631.3877563476562 55.99675369262695 630.9046630859375 29.681283950805664 772.0653076171875 4.470851898193359" fill="rgb(129, 161, 179)" opacity="1.0" stroke="rgb(171, 98, 179)" stroke-linecap="round" stroke-linejoin="round" stroke-opacity="0.57269055" stroke-width="0.0"/>
    <path d="M 89.80313110351562 -0.7219297885894775 C 84.81910705566406 37.856109619140625 79.54730987548828 39.232200622558594 73.1758804321289 43.413795471191406 C 32.419254302978516 40.87171173095703 34.17163848876953 33.85115051269531 34.15861511230469 13.890216827392578 C 34.47341537475586 -5.417515277862549 33.396427154541016 -7.626839637756348 44.2701416015625 -11.272398948669434 C 74.6176528930664 -10.991861343383789 78.61609649658203 -10.72948932647705 89.80313110351562 -0.7219297885894775" fill="rgb(127, 159, 179)" opacity="0.9443899" stroke="rgb(118, 221, 16)" stroke-linecap="round" stroke-linejoin="round" stroke-opacity="0.02642268" stroke-width="0.0"/>
    <path d="M 191.66319274902344 172.405517578125 C 169.906005859375 231.1017608642578 212.94317626953125 227.19461059570312 141.67578125 181.1615447998047 C 71.05388641357422 155.70791625976562 58.97296142578125 161.07833862304688 39.95115280151367 104.23223876953125 C 54.32845687866211 102.18489074707031 54.08592224121094 94.94186401367188 100.40689086914062 94.10491943359375 C 120.17546081542969 106.76301574707031 128.1890106201172 105.62577819824219 191.66319274902344 172.405517578125" fill="rgb(115, 160, 186)" opacity="0.7746966" stroke="rgb(127, 6, 127)" stroke-linecap="round" stroke-linejoin="round" stroke-opacity="0.80258566" stroke-width="0.0"/>
    <path d="M 47.56901550292969 48.344932556152344 C 48.43855285644531 54.18353271484375 46.69739532470703 57.70915222167969 -0.9917860627174377 59.3098258972168 C -7.003437042236328 55.250244140625 -7.87423038482666 51.94864273071289 -10.340729713439941 41.998111724853516 C -10.917789459228516 -2.6449975967407227 -9.637794494628906 -5.389298915863037 -6.059456825256348 -9.120723724365234 C 32.722347259521484 3.434870719909668 31.432735443115234 14.160265922546387 47.56901550292969 48.344932556152344" fill="rgb(140, 173, 187)" opacity="0.9448868" stroke="rgb(179, 153, 66)" stroke-linecap="round" stroke-linejoin="round" stroke-opacity="0.34446755" stroke-width="0.0"/>
    <path d="M 286.1988220214844 63.354034423828125 C 280.23724365234375 69.3938217163086 286.21405029296875 79.14210510253906 261.969970703125 102.83634948730469 C 236.2634735107422 81.61637115478516 227.9009246826172 70.68464660644531 225.423828125 78.6192626953125 C 241.6463165283203 31.186342239379883 239.56846618652344 29.223085403442383 245.02902221679688 22.485868453979492 C 262.0912170410156 43.90531921386719 268.0746765136719 40.801429748535156 286.1988220214844 63.354034423828125" fill="rgb(121, 165, 190)" opacity="0.820524" stroke="rgb(104, 16, 14)" stroke-linecap="round" stroke-linejoin="round" stroke-opacity="0.54599696" stroke-width="0.0"/>
    <path d="M 74.50393676757812 136.29678344726562 C 79.13211059570312 187.48876953125 148.0590362548828 176.12359619140625 149.83380126953125 332.60516357421875 C -51.28776168823242 326.8410339355469 -10.12387466430664 246.35467529296875 -10.267789840698242 226.2476348876953 C -6.871828556060791 132.9247283935547 -4.423792362213135 131.64483642578125 -3.601926565170288 110.13785552978516 C 74.37739562988281 114.99220275878906 72.82135009765625 125.4106674194336 74.50393676757812 136.29678344726562" fill="rgb(131, 163, 181)" opacity="0.98487556" stroke="rgb(214, 58, 249)" stroke-linecap="round" stroke-linejoin="round" stroke-opacity="0.20857827" stroke-width="0.0"/>
    <path d="M 364.812744140625 74.18130493164062 C 358.349365234375 73.39578247070312 362.0212097167969 81.9947280883789 326.8768615722656 85.22886657714844 C 301.07550048828125 73.80598449707031 299.9781799316406 69.1144790649414 299.3263854980469 53.103515625 C 303.7478942871094 19.0371036529541 309.5758056640625 19.694547653198242 350.6462097167969 18.392452239990234 C 361.57147216796875 12.546875 363.9633483886719 12.015583038330078 364.812744140625 74.18130493164062" fill="rgb(132, 167, 186)" opacity="0.9852642" stroke="rgb(11, 36, 91)" stroke-linecap="round" stroke-linejoin="round" stroke-opacity="0.32522842" stroke-width="0.0"/>
    <path d="M 588.0342407226562 218.58680725097656 C 592.5668334960938 182.35345458984375 588.2561645507812 204.43479919433594 584.7139892578125 269.39794921875 C 559.9113159179688 293.55963134765625 580.6017456054688 229.83319091796875 574.4865112304688 186.7996063232422 C 571.0560913085938 176.6317138671875 548.1300048828125 142.1409454345703 569.1151733398438 130.51898193359375 C 588.7935791015625 183.5902557373047 589.923095703125 187.3037567138672 588.0342407226562 218.58680725097656" fill="rgb(11, 11, 23)" opacity="0.96536034" stroke="rgb(207, 0, 46)" stroke-linecap="round" stroke-linejoin="round" stroke-opacity="0.86578625" stroke-width="0.0"/>
    <path d="M 498.1545104980469 325.1050109863281 C 490.7640075683594 338.4962463378906 463.3984069824219 356.372802734375 437.2577819824219 355.4656677246094 C 437.0375671386719 359.62017822265625 435.09039306640625 349.0951232910156 452.97161865234375 325.0440368652344 C 448.6597900390625 352.95391845703125 473.201171875 340.0270690917969 469.2939758300781 341.61627197265625 C 490.9490661621094 321.2489318847656 465.1252136230469 325.6126403808594 498.1545104980469 325.1050109863281" fill="rgb(255, 252, 232)" opacity="0.9700077" stroke="rgb(31, 227, 168)" stroke-linecap="round" stroke-linejoin="round" stroke-opacity="0.21405563" stroke-width="0.0"/>
    <path d="M 440.52264404296875 65.67198181152344 C 384.5567321777344 79.51349639892578 401.874755859375 104.51241302490234 353.7273864746094 102.96261596679688 C 337.5179443359375 84.71158599853516 337.8910827636719 82.01647186279297 340.2409973144531 16.0882511138916 C 345.2081604003906 21.19510269165039 344.3988037109375 16.114208221435547 362.55462646484375 27.197298049926758 C 392.197509765625 56.103885650634766 413.6794128417969 -1.4174858331680298 440.52264404296875 65.67198181152344" fill="rgb(131, 165, 183)" opacity="1.0" stroke="rgb(190, 207, 235)" stroke-linecap="round" stroke-linejoin="round" stroke-opacity="0.30967826" stroke-width="0.0"/>
    <path d="M 295.2817077636719 20.84339714050293 C 287.203369140625 59.032100677490234 284.83251953125 60.709442138671875 272.1330261230469 62.803287506103516 C 257.96295166015625 40.830753326416016 247.59573364257812 48.558067321777344 228.88121032714844 5.240154266357422 C 231.03140258789062 3.269988775253296 235.33331298828125 5.464144229888916 264.07537841796875 8.011576652526855 C 289.6391906738281 9.468937873840332 293.344482421875 10.838473320007324 295.2817077636719 20.84339714050293" fill="rgb(127, 163, 180)" opacity="0.9984636" stroke="rgb(180, 105, 18)" stroke-linecap="round" stroke-linejoin="round" stroke-opacity="0.4002946" stroke-width="0.0"/>
    <path d="M 369.81768798828125 131.56626892089844 C 358.84716796875 132.37271118164062 357.6562194824219 132.135498046875 353.1933898925781 139.5486297607422 C 315.62841796875 134.6532440185547 316.8226318359375 132.55746459960938 320.5693664550781 107.95729064941406 C 320.700439453125 94.19927215576172 317.5516662597656 88.7763900756836 314.3426513671875 83.89659118652344 C 345.44866943359375 100.52449798583984 347.3559875488281 103.37818908691406 369.81768798828125 131.56626892089844" fill="rgb(128, 161, 178)" opacity="0.609447" stroke="rgb(57, 87, 58)" stroke-linecap="round" stroke-linejoin="round" stroke-opacity="0.9082379" stroke-width="0.0"/>
    <path d="M 366.18017578125 93.67156982421875 C 361.2240905761719 121.84700775146484 359.16949462890625 123.77666473388672 358.181396484375 122.70999145507812 C 341.03277587890625 112.75524139404297 340.11676025390625 110.01866912841797 306.2017822265625 72.05953979492188 C 311.3880310058594 66.95496368408203 313.73980712890625 64.73309326171875 368.4284973144531 67.00737762451172 C 371.2868957519531 77.99462890625 369.4608154296875 82.00604248046875 366.18017578125 93.67156982421875" fill="rgb(128, 162, 179)" opacity="0.87395984" stroke="rgb(144, 149, 240)" stroke-linecap="round" stroke-linejoin="round" stroke-opacity="0.17585889" stroke-width="0.0"/>
    <path d="M 105.9624252319336 40.30793762207031 C 106.54122161865234 59.32113265991211 104.41973876953125 60.78079605102539 69.87895965576172 65.1844253540039 C 62.70636749267578 64.48760986328125 60.93046951293945 61.51847457885742 56.953460693359375 28.414031982421875 C 57.364166259765625 15.640222549438477 59.80611801147461 12.604735374450684 72.85344696044922 6.020475387573242 C 105.8795394897461 10.642354965209961 105.06976318359375 18.186643600463867 105.9624252319336 40.30793762207031" fill="rgb(133, 162, 179)" opacity="0.9942201" stroke="rgb(143, 97, 125)" stroke-linecap="round" stroke-linejoin="round" stroke-opacity="0.9354964" stroke-width="0.0"/>
    <path d="M 323.5191650390625 47.192935943603516 C 328.16741943359375 87.52513122558594 327.7489929199219 90.5029296875 314.62890625 112.44685363769531 C 260.39422607421875 117.41450500488281 253.73631286621094 97.23601531982422 253.4395294189453 79.79512023925781 C 264.7373046875 32.233680725097656 266.7392883300781 29.199729919433594 295.71942138671875 17.840187072753906 C 318.1752624511719 19.114213943481445 319.58990478515625 22.895998001098633 323.5191650390625 47.192935943603516" fill="rgb(131, 167, 186)" opacity="0.988817" stroke="rgb(188, 47, 35)" stroke-linecap="round" stroke-linejoin="round" stroke-opacity="0.5279633" stroke-width="0.0"/>
    <path d="M 381.6153564453125 0.6265196800231934 C 355.61029052734375 34.439361572265625 345.94580078125 36.677635192871094 303.2272033691406 40.455406188964844 C 297.64593505859375 44.751991271972656 291.5501708984375 45.8250732421875 289.4937438964844 -1.4087004661560059 C 298.0320739746094 -9.10062313079834 302.114501953125 -9.071575164794922 322.34466552734375 -8.020068168640137 C 353.7390441894531 -4.2079362869262695 358.4396667480469 -4.3909173011779785 381.6153564453125 0.6265196800231934" fill="rgb(124, 158, 175)" opacity="0.5578464" stroke="rgb(252, 42, 116)" stroke-linecap="round" stroke-linejoin="round" stroke-opacity="0.7646735" stroke-width="0.0"/>
    <path d="M 309.84307861328125 33.183074951171875 C 299.446533203125 33.46038055419922 295.9661865234375 32.82259750366211 258.13201904296875 31.3701229095459 C 245.47842407226562 28.85795783996582 242.6082763671875 27.57448959350586 228.7293243408203 15.979985237121582 C 227.6272430419922 -27.27021026611328 233.39599609375 -21.908382415771484 276.4360656738281 -8.034111022949219 C 303.3157958984375 -24.00621223449707 308.0910949707031 -26.29718780517578 309.84307861328125 33.183074951171875" fill="rgb(123, 155, 174)" opacity="0.96185845" stroke="rgb(233, 199, 47)" stroke-linecap="round" stroke-linejoin="round" stroke-opacity="0.50088257" stroke-width="0.0"/>
    <path d="M 224.9801025390625 40.451019287109375 C 197.75250244140625 105.11849212646484 205.9709930419922 88.79630279541016 203.93736267089844 130.44509887695312 C 145.1252899169922 109.44827270507812 144.62380981445312 96.88603973388672 143.15284729003906 85.43376159667969 C 144.94744873046875 29.773279190063477 147.3090057373047 27.61395835876465 152.86895751953125 19.856388092041016 C 207.83245849609375 16.748891830444336 210.51730346679688 17.858684539794922 224.9801025390625 40.451019287109375" fill="rgb(124, 157, 175)" opacity="0.95908874" stroke="rgb(139, 106, 235)" stroke-linecap="round" stroke-linejoin="round" stroke-opacity="0.15520592" stroke-width="0.0"/>
    <path d="M 54.328948974609375 12.644704818725586 C 55.5030403137207 32.77825164794922 56.24589538574219 37.57962417602539 58.18208694458008 41.564456939697266 C 27.58739471435547 26.630298614501953 26.718549728393555 22.541015625 9.940041542053223 -7.41269063949585 C 12.275577545166016 -9.210115432739258 15.25918197631836 -10.285446166992188 29.766780853271484 -10.712401390075684 C 54.909969329833984 -8.61979866027832 54.513671875 -4.0909552574157715 54.328948974609375 12.644704818725586" fill="rgb(125, 165, 185)" opacity="1.0" stroke="rgb(50, 97, 63)" stroke-linecap="round" stroke-linejoin="round" stroke-opacity="0.2660413" stroke-width="0.0"/>
    <path d="M 454.5626525878906 327.78570556640625 C 451.4829406738281 325.8714599609375 445.498046875 334.0384521484375 439.6650390625 345.2802429199219 C 431.7031555175781 352.3829345703125 447.2181396484375 344.8025207519531 429.81475830078125 345.46356201171875 C 446.6780700683594 321.932861328125 438.0633850097656 328.388916015625 456.04681396484375 316.64447021484375 C 478.80670166015625 310.3853454589844 445.2167053222656 320.3888244628906 454.5626525878906 327.78570556640625" fill="rgb(42, 47, 62)" opacity="1.0" stroke="rgb(43, 4, 145)" stroke-linecap="round" stroke-linejoin="round" stroke-opacity="0.6624869" stroke-width="0.0"/>
    <path d="M 253.7615203857422 57.874446868896484 C 252.85662841796875 108.70045471191406 230.45053100585938 58.28350067138672 207.53321838378906 86.71393585205078 C 198.6385955810547 105.67886352539062 204.74169921875 79.3364028930664 193.10214233398438 -0.3296513259410858 C 195.52182006835938 4.458662986755371 195.37937927246094 0.5140495896339417 215.43724060058594 -8.481313705444336 C 261.7670593261719 5.676455974578857 258.8370361328125 17.351715087890625 253.7615203857422 57.874446868896484" fill="rgb(125, 159, 179)" opacity="0.92302334" stroke="rgb(113, 40, 63)" stroke-linecap="round" stroke-linejoin="round" stroke-opacity="0.9680284" stroke-width="0.0"/>
    <path d="M 185.793701171875 261.2185363769531 C 128.10023498535156 245.04922485351562 105.32794189453125 232.66754150390625 33.29545211791992 206.0828094482422 C 56.726463317871094 186.56808471679688 54.24571228027344 184.98092651367188 51.48160171508789 167.5276641845703 C 50.13333511352539 126.83973693847656 52.602413177490234 126.54568481445312 60.34375762939453 132.46058654785156 C 118.98735046386719 136.1540985107422 182.9471435546875 95.03387451171875 185.793701171875 261.2185363769531" fill="rgb(129, 162, 181)" opacity="0.70009065" stroke="rgb(115, 25, 97)" stroke-linecap="round" stroke-linejoin="round" stroke-opacity="0.020845683" stroke-width="0.0"/>
    <path d="M 53.22783660888672 35.72614288330078 C 55.462886810302734 42.11499786376953 53.91377639770508 44.68685531616211 50.62742614746094 48.123294830322266 C 17.20048713684082 38.73136901855469 18.339147567749023 29.244359970092773 0.7748919725418091 -2.0487306118011475 C 0.44341957569122314 -6.757435321807861 2.7367568016052246 -8.810503005981445 8.221616744995117 -9.638466835021973 C 39.280029296875 2.6586968898773193 39.34178161621094 9.851422309875488 53.22783660888672 35.72614288330078" fill="rgb(134, 157, 171)" opacity="1.0" stroke="rgb(131, 122, 21)" stroke-linecap="round" stroke-linejoin="round" stroke-opacity="0.47361058" stroke-width="0.0"/>
    <path d="M 416.2243347167969 449.8867492675781 C 415.51324462890625 459.37493896484375 407.4388732910156 465.4328918457031 406.5859069824219 462.9150695800781 C 393.86175537109375 458.0632629394531 377.2745361328125 456.395751953125 365.23333740234375 457.65936279296875 C 373.7442321777344 430.2598876953125 389.49188232421875 445.5364685058594 405.11676025390625 438.3122253417969 C 406.8555603027344 444.4898986816406 411.77081298828125 442.6326599121094 416.2243347167969 449.8867492675781" fill="rgb(61, 75, 91)" opacity="0.85701066" stroke="rgb(99, 237, 96)" stroke-linecap="round" stroke-linejoin="round" stroke-opacity="0.5104792" stroke-width="0.0"/>
    <path d="M 631.453125 373.3157653808594 C 634.1009521484375 390.6349792480469 631.1864013671875 402.4341735839844 630.6051635742188 401.6056823730469 C 627.0105590820312 392.4774169921875 622.4824829101562 390.0169372558594 618.1384887695312 369.0350036621094 C 609.4666748046875 360.97900390625 615.7637939453125 364.3326416015625 621.6093139648438 351.6215515136719 C 627.3916625976562 360.4898376464844 627.6172485351562 357.74884033203125 631.453125 373.3157653808594" fill="rgb(0, 0, 7)" opacity="0.7721027" stroke="rgb(36, 211, 112)" stroke-linecap="round" stroke-linejoin="round" stroke-opacity="0.2889571" stroke-width="0.0"/>
    <path d="M 421.397216796875 427.687744140625 C 425.5740661621094 448.480224609375 409.78155517578125 453.0987548828125 405.9493103027344 460.1081237792969 C 406.8240661621094 442.7038269042969 398.82305908203125 446.5861511230469 384.09033203125 420.95526123046875 C 372.1372985839844 387.138671875 368.6208801269531 385.7134704589844 416.62811279296875 390.9810791015625 C 421.97308349609375 422.3033752441406 419.904296875 423.5027160644531 421.397216796875 427.687744140625" fill="rgb(73, 81, 95)" opacity="0.8383626" stroke="rgb(246, 26, 99)" stroke-linecap="round" stroke-linejoin="round" stroke-opacity="0.6435409" stroke-width="0.0"/>
    <path d="M 631.219482421875 372.5526428222656 C 620.9775390625 395.7635498046875 624.335205078125 376.5531921386719 612.5550537109375 366.7366943359375 C 608.6292724609375 359.42071533203125 601.5174560546875 360.66192626953125 608.2635498046875 360.0208435058594 C 607.9568481445312 360.9141540527344 614.0022583007812 353.90545654296875 613.1492309570312 359.0987854003906 C 622.0965576171875 349.0883483886719 622.98291015625 356.51409912109375 631.219482421875 372.5526428222656" fill="rgb(15, 16, 29)" opacity="0.8874365" stroke="rgb(177, 224, 8)" stroke-linecap="round" stroke-linejoin="round" stroke-opacity="0.42296922" stroke-width="0.0"/>
    <path d="M 294.9671630859375 570.0742797851562 C 313.00128173828125 566.1249389648438 308.0820007324219 584.7289428710938 296.5446472167969 577.8910522460938 C 293.2830810546875 570.0462036132812 290.79107666015625 557.5223999023438 294.0140380859375 570.662109375 C 292.5469970703125 561.5614013671875 288.955810546875 552.9822998046875 292.8811950683594 547.3976440429688 C 308.54473876953125 556.5497436523438 308.9514465332031 556.5982666015625 294.9671630859375 570.0742797851562" fill="rgb(77, 69, 72)" opacity="0.49623257" stroke="rgb(34, 49, 81)" stroke-linecap="round" stroke-linejoin="round" stroke-opacity="0.37522164" stroke-width="0.0"/>
    <path d="M 632.7620849609375 360.2279968261719 C 636.8568725585938 380.0951232910156 632.2402954101562 376.6015930175781 630.9232788085938 365.9124450683594 C 625.105712890625 351.49334716796875 624.90478515625 351.9443054199219 626.7874145507812 355.22113037109375 C 627.4509887695312 363.3737487792969 628.299072265625 347.92333984375 611.9869995117188 314.5511779785156 C 627.239013671875 341.7008972167969 636.6806640625 364.9021301269531 632.7620849609375 360.2279968261719" fill="rgb(139, 166, 182)" opacity="0.87372327" stroke="rgb(126, 236, 50)" stroke-linecap="round" stroke-linejoin="round" stroke-opacity="0.82953024" stroke-width="0.0"/>
    <path d="M 421.0800476074219 453.6054382324219 C 415.448974609375 462.67431640625 411.6585998535156 462.501708984375 407.86029052734375 454.89630126953125 C 395.52398681640625 446.5224914550781 392.71014404296875 449.0429382324219 374.5413818359375 440.92254638671875 C 375.0157165527344 426.3145751953125 378.8911437988281 423.4666442871094 403.3670349121094 430.7150573730469 C 434.5935363769531 437.89990234375 412.862060546875 430.3507995605469 421.0800476074219 453.6054382324219" fill="rgb(58, 69, 85)" opacity="0.4531387" stroke="rgb(60, 82, 52)" stroke-linecap="round" stroke-linejoin="round" stroke-opacity="0.6700916" stroke-width="0.0"/>
    <path d="M 300.59173583984375 577.7229614257812 C 302.5711669921875 586.2586669921875 303.8442687988281 592.887451171875 297.1604309082031 569.74853515625 C 299.3529052734375 568.2460327148438 301.9247131347656 565.622314453125 301.0672302246094 565.82666015625 C 299.6930847167969 572.6409912109375 297.2488098144531 567.8728637695312 295.5470275878906 556.8614501953125 C 302.25543212890625 559.0286865234375 292.0243225097656 559.11474609375 300.59173583984375 577.7229614257812" fill="rgb(80, 84, 94)" opacity="0.9437049" stroke="rgb(123, 235, 57)" stroke-linecap="round" stroke-linejoin="round" stroke-opacity="0.48806152" stroke-width="0.0"/>
    <path d="M 622.2982177734375 317.85107421875 C 608.13134765625 313.1905517578125 599.01513671875 283.912353515625 585.9417724609375 259.95587158203125 C 585.1261596679688 254.0262908935547 588.2109985351562 250.81906127929688 587.1328735351562 238.1930389404297 C 585.5706176757812 267.86328125 585.914306640625 259.7982177734375 587.6948852539062 243.76156616210938 C 645.2037353515625 225.7258758544922 654.8732299804688 256.73980712890625 622.2982177734375 317.85107421875" fill="rgb(132, 164, 182)" opacity="0.8741127" stroke="rgb(78, 253, 81)" stroke-linecap="round" stroke-linejoin="round" stroke-opacity="0.5309839" stroke-width="0.0"/>
    <path d="M 559.0294189453125 118.77934265136719 C 554.8753662109375 115.64051055908203 556.862548828125 117.30230712890625 556.0830688476562 154.48081970214844 C 531.8652954101562 149.4915313720703 533.1614990234375 143.69834899902344 537.048095703125 118.1632308959961 C 542.95947265625 101.42118835449219 530.8392333984375 111.47160339355469 558.3366088867188 118.02921295166016 C 556.0503540039062 113.21135711669922 561.821044921875 189.00509643554688 559.0294189453125 118.77934265136719" fill="rgb(121, 79, 71)" opacity="0.55324864" stroke="rgb(215, 110, 197)" stroke-linecap="round" stroke-linejoin="round" stroke-opacity="0.8425649" stroke-width="0.0"/>
    <path d="M 554.202392578125 129.24298095703125 C 553.2879638671875 148.0289764404297 559.534912109375 151.65191650390625 547.3833618164062 151.26370239257812 C 521.0765991210938 141.3473358154297 521.2404174804688 134.63023376464844 518.5465698242188 128.0379638671875 C 525.1690063476562 119.3399658203125 530.6160888671875 119.78204345703125 533.4068603515625 116.78564453125 C 539.2191772460938 110.49644470214844 537.3695068359375 123.00003814697266 554.202392578125 129.24298095703125" fill="rgb(209, 172, 166)" opacity="1.0" stroke="rgb(239, 54, 216)" stroke-linecap="round" stroke-linejoin="round" stroke-opacity="0.637288" stroke-width="0.0"/>
    <path d="M 541.3154907226562 136.6448211669922 C 532.7665405273438 161.81944274902344 531.5867309570312 164.6340789794922 512.030029296875 167.16510009765625 C 502.48321533203125 164.51852416992188 499.59747314453125 157.79647827148438 513.59619140625 136.90390014648438 C 506.7257385253906 139.89698791503906 508.537841796875 137.84971618652344 525.0037841796875 130.05953979492188 C 536.6150512695312 128.62759399414062 540.40478515625 129.2096710205078 541.3154907226562 136.6448211669922" fill="rgb(184, 147, 151)" opacity="0.96078295" stroke="rgb(147, 180, 74)" stroke-linecap="round" stroke-linejoin="round" stroke-opacity="0.17530707" stroke-width="0.0"/>
    <path d="M 518.8823852539062 158.1533966064453 C 524.09716796875 170.78651428222656 523.3201904296875 173.00637817382812 507.9870300292969 176.23760986328125 C 497.0299377441406 172.14224243164062 495.69921875 168.8611602783203 500.1176452636719 150.7729949951172 C 500.842041015625 153.7874298095703 499.1445617675781 138.50173950195312 516.262451171875 132.36265563964844 C 514.9203491210938 136.0669708251953 519.171875 137.2209014892578 518.8823852539062 158.1533966064453" fill="rgb(192, 139, 121)" opacity="0.83001626" stroke="rgb(140, 18, 15)" stroke-linecap="round" stroke-linejoin="round" stroke-opacity="0.24111556" stroke-width="0.0"/>
    <path d="M 415.52496337890625 467.68829345703125 C 413.39910888671875 465.8070373535156 403.767333984375 457.7222595214844 374.972412109375 456.4049072265625 C 387.7300109863281 456.9388732910156 381.54681396484375 457.223388671875 353.9014587402344 463.87908935546875 C 335.9451904296875 444.98193359375 343.5147399902344 387.6897888183594 375.7111511230469 392.8182373046875 C 385.47271728515625 441.4288024902344 398.6754455566406 447.4747314453125 415.52496337890625 467.68829345703125" fill="rgb(67, 77, 92)" opacity="0.6924301" stroke="rgb(147, 228, 8)" stroke-linecap="round" stroke-linejoin="round" stroke-opacity="0.11126726" stroke-width="0.0"/>
    <path d="M 553.8742065429688 111.54086303710938 C 559.7114868164062 115.64789581298828 553.3279418945312 116.89170837402344 554.5282592773438 128.68800354003906 C 529.2684326171875 118.16454315185547 525.0021362304688 114.21150970458984 536.8764038085938 110.5702133178711 C 542.0089111328125 106.90962219238281 544.8529052734375 110.32398223876953 532.752685546875 112.08543395996094 C 537.9594116210938 106.71133422851562 548.9815063476562 103.12041473388672 553.8742065429688 111.54086303710938" fill="rgb(206, 163, 151)" opacity="1.0" stroke="rgb(71, 16, 115)" stroke-linecap="round" stroke-linejoin="round" stroke-opacity="0.48866823" stroke-width="0.0"/>
    <path d="M 542.0064086914062 143.62313842773438 C 544.6444091796875 150.6374053955078 542.423583984375 150.3240966796875 521.3819580078125 150.3711395263672 C 497.316650390625 140.9116668701172 501.6567077636719 146.36395263671875 506.0904541015625 137.0706329345703 C 516.1195678710938 125.387939453125 521.666259765625 119.657470703125 524.3093872070312 120.02920532226562 C 533.8646240234375 109.6834945678711 526.703857421875 115.63275146484375 542.0064086914062 143.62313842773438" fill="rgb(201, 147, 132)" opacity="0.7701042" stroke="rgb(112, 217, 81)" stroke-linecap="round" stroke-linejoin="round" stroke-opacity="0.25618333" stroke-width="0.0"/>
    <path d="M 550.8115844726562 167.9006805419922 C 557.9378662109375 177.72296142578125 546.075927734375 167.4485626220703 524.16064453125 184.48561096191406 C 505.59710693359375 181.39007568359375 505.612548828125 179.65126037597656 504.19903564453125 166.7774658203125 C 513.54833984375 144.63243103027344 517.4160766601562 144.89035034179688 533.5531616210938 133.68450927734375 C 551.907958984375 129.943359375 553.3977661132812 131.64056396484375 550.8115844726562 167.9006805419922" fill="rgb(205, 156, 134)" opacity="0.880634" stroke="rgb(3, 72, 60)" stroke-linecap="round" stroke-linejoin="round" stroke-opacity="0.43958035" stroke-width="0.0"/>
    <path d="M 307.9684753417969 559.8234252929688 C 300.2451477050781 567.9254760742188 316.19366455078125 561.9937744140625 301.90753173828125 573.97607421875 C 302.5461120605469 557.8952026367188 299.80657958984375 561.8973388671875 293.3784484863281 556.7484741210938 C 291.401123046875 542.3033447265625 296.08843994140625 536.954833984375 301.3579406738281 541.6923828125 C 312.7132568359375 545.9277954101562 299.3525695800781 546.2110595703125 307.9684753417969 559.8234252929688" fill="rgb(77, 85, 96)" opacity="0.673793" stroke="rgb(159, 19, 118)" stroke-linecap="round" stroke-linejoin="round" stroke-opacity="0.98827285" stroke-width="0.0"/>
    <path d="M 312.13702392578125 568.41162109375 C 304.93182373046875 570.851806640625 305.05072021484375 577.3265991210938 305.5796813964844 595.6820678710938 C 299.53106689453125 593.788330078125 293.7489929199219 567.5029907226562 291.818359375 554.8946533203125 C 300.5888977050781 562.5015869140625 288.80255126953125 573.3203125 304.5654296875 553.3594970703125 C 314.99896240234375 565.8375854492188 307.8098449707031 562.4569702148438 312.13702392578125 568.41162109375" fill="rgb(65, 64, 69)" opacity="0.6916249" stroke="rgb(80, 68, 177)" stroke-linecap="round" stroke-linejoin="round" stroke-opacity="0.97336996" stroke-width="0.0"/>
    <path d="M 316.3786315917969 331.2867431640625 C 315.1329040527344 333.5826721191406 314.264404296875 336.2131042480469 308.1448669433594 335.5563659667969 C 304.4125061035156 337.856201171875 304.29998779296875 333.7624816894531 302.7109375 329.4677429199219 C 302.1859130859375 322.14495849609375 301.227294921875 324.4493408203125 305.6026611328125 323.3526611328125 C 314.6450500488281 322.86517333984375 316.6723937988281 324.64556884765625 316.3786315917969 331.2867431640625" fill="rgb(255, 196, 0)" opacity="0.9362906" stroke="rgb(224, 58, 17)" stroke-linecap="round" stroke-linejoin="round" stroke-opacity="0.22130553" stroke-width="0.0"/>
    <path d="M 538.3158569335938 169.48667907714844 C 529.3272705078125 185.6552734375 516.8944091796875 188.32305908203125 506.54620361328125 202.80360412597656 C 497.72607421875 188.7819061279297 494.4765930175781 173.23486328125 497.3503112792969 185.0825653076172 C 497.8565979003906 152.73318481445312 498.5960693359375 179.3983154296875 501.35650634765625 171.37315368652344 C 518.1962890625 179.88282775878906 524.1136474609375 162.60232543945312 538.3158569335938 169.48667907714844" fill="rgb(189, 149, 133)" opacity="0.93715733" stroke="rgb(251, 251, 188)" stroke-linecap="round" stroke-linejoin="round" stroke-opacity="0.3272676" stroke-width="0.0"/>
    <path d="M 221.4545440673828 177.4472198486328 C 220.281494140625 185.40159606933594 231.77964782714844 210.3155059814453 248.45193481445312 229.67234802246094 C 221.08267211914062 220.75521850585938 216.37660217285156 173.36338806152344 217.7501983642578 186.6749267578125 C 216.51824951171875 177.02134704589844 217.10671997070312 160.64064025878906 218.91270446777344 171.89503479003906 C 224.02003479003906 186.66505432128906 221.26084899902344 198.00453186035156 221.4545440673828 177.4472198486328" fill="rgb(61, 63, 74)" opacity="0.9507387" stroke="rgb(77, 42, 174)" stroke-linecap="round" stroke-linejoin="round" stroke-opacity="0.9982881" stroke-width="0.0"/>
    <path d="M 322.15655517578125 569.1187744140625 C 322.99493408203125 572.6812133789062 317.66192626953125 563.6271362304688 307.8669738769531 569.9421997070312 C 283.92523193359375 558.0795288085938 314.15399169921875 567.8134765625 291.06060791015625 553.3206787109375 C 288.0101623535156 531.4220581054688 285.5357971191406 521.8467407226562 313.8062438964844 531.3388061523438 C 299.4645080566406 545.7255859375 302.90185546875 553.3214111328125 322.15655517578125 569.1187744140625" fill="rgb(97, 103, 114)" opacity="0.7830799" stroke="rgb(9, 66, 140)" stroke-linecap="round" stroke-linejoin="round" stroke-opacity="0.49454793" stroke-width="0.0"/>
    <path d="M 383.9150695800781 599.0938720703125 C 385.5205078125 610.5995483398438 387.5402526855469 645.6069946289062 378.6182556152344 618.7257080078125 C 374.017578125 612.8316650390625 374.4041442871094 609.0623168945312 368.3379211425781 599.8502807617188 C 366.0551452636719 595.09033203125 353.67193603515625 588.0308227539062 375.309326171875 600.054931640625 C 380.7953186035156 597.2509155273438 390.9990234375 595.5216674804688 383.9150695800781 599.0938720703125" fill="rgb(94, 77, 69)" opacity="0.6386985" stroke="rgb(250, 114, 203)" stroke-linecap="round" stroke-linejoin="round" stroke-opacity="0.38310388" stroke-width="0.0"/>
    <path d="M 400.40185546875 603.8768920898438 C 391.989501953125 614.19580078125 386.4299011230469 633.4346923828125 384.98162841796875 636.7449340820312 C 375.7445068359375 614.9769287109375 373.77642822265625 606.569091796875 375.4450988769531 610.141357421875 C 366.9878234863281 597.8815307617188 366.6693115234375 593.5808715820312 399.5816650390625 575.6387939453125 C 419.09918212890625 581.5509033203125 407.0151062011719 587.4285278320312 400.40185546875 603.8768920898438" fill="rgb(93, 99, 112)" opacity="0.77470917" stroke="rgb(208, 248, 249)" stroke-linecap="round" stroke-linejoin="round" stroke-opacity="0.43272856" stroke-width="0.0"/>
    <path d="M 544.6154174804688 126.42283630371094 C 553.24755859375 129.529052734375 550.30712890625 129.0963134765625 547.4291381835938 132.64549255371094 C 536.5397338867188 117.49911499023438 529.115966796875 128.3226776123047 522.572509765625 119.81884765625 C 529.6389770507812 115.03797912597656 534.0319213867188 107.57172393798828 542.120849609375 106.15447998046875 C 556.451904296875 112.66690063476562 548.8485107421875 109.93624877929688 544.6154174804688 126.42283630371094" fill="rgb(204, 151, 139)" opacity="0.6678012" stroke="rgb(78, 72, 114)" stroke-linecap="round" stroke-linejoin="round" stroke-opacity="0.7839405" stroke-width="0.0"/>
    <path d="M 557.134765625 144.5231475830078 C 563.3862915039062 199.7238311767578 541.8614501953125 206.50230407714844 545.64892578125 163.0172882080078 C 521.173095703125 186.79185485839844 517.4523315429688 184.34967041015625 525.9995727539062 163.29339599609375 C 526.9766845703125 143.2968292236328 527.9374389648438 143.10365295410156 534.0496215820312 132.44244384765625 C 561.7532348632812 137.38206481933594 554.5452270507812 138.65304565429688 557.134765625 144.5231475830078" fill="rgb(189, 153, 144)" opacity="1.0" stroke="rgb(6, 49, 53)" stroke-linecap="round" stroke-linejoin="round" stroke-opacity="0.24831946" stroke-width="0.0"/>
    <path d="M 554.5880126953125 189.8749542236328 C 555.4999389648438 173.9165802001953 560.9478759765625 184.5261688232422 536.7623901367188 227.82754516601562 C 528.7890625 209.5841064453125 550.6090698242188 189.60035705566406 544.5756225585938 178.47804260253906 C 546.7350463867188 190.1470489501953 553.1405029296875 190.52032470703125 554.9848022460938 169.36602783203125 C 554.951171875 185.4261474609375 545.6478271484375 193.84161376953125 554.5880126953125 189.8749542236328" fill="rgb(84, 72, 75)" opacity="0.8985041" stroke="rgb(163, 68, 78)" stroke-linecap="round" stroke-linejoin="round" stroke-opacity="0.19207609" stroke-width="0.0"/>
    <path d="M 523.9544677734375 169.96160888671875 C 521.5165405273438 195.7491455078125 517.5991821289062 199.2509307861328 521.080078125 159.6287384033203 C 501.10748291015625 182.916015625 497.386474609375 194.263427734375 497.0960388183594 172.21730041503906 C 496.1715393066406 158.82191467285156 499.2277526855469 151.86099243164062 517.2486572265625 152.05767822265625 C 520.4578247070312 156.67172241210938 523.103271484375 154.41734313964844 523.9544677734375 169.96160888671875" fill="rgb(187, 147, 125)" opacity="0.5440735" stroke="rgb(209, 64, 53)" stroke-linecap="round" stroke-linejoin="round" stroke-opacity="0.5980995" stroke-width="0.0"/>
    <path d="M 221.57913208007812 195.37313842773438 C 218.45053100585938 174.58346557617188 221.40103149414062 200.37420654296875 220.17807006835938 191.5615234375 C 219.97109985351562 184.16641235351562 221.91952514648438 181.25851440429688 225.86912536621094 209.8221435546875 C 218.26345825195312 194.40382385253906 211.0372314453125 175.22341918945312 220.59039306640625 158.65170288085938 C 214.90211486816406 174.10646057128906 224.49932861328125 180.7660369873047 221.57913208007812 195.37313842773438" fill="rgb(63, 48, 53)" opacity="0.40151995" stroke="rgb(13, 84, 34)" stroke-linecap="round" stroke-linejoin="round" stroke-opacity="0.59428614" stroke-width="0.0"/>
    <path d="M 467.40911865234375 476.4949951171875 C 466.6568908691406 479.08837890625 468.7973327636719 483.0333557128906 460.1838684082031 481.3782958984375 C 453.1482849121094 491.29156494140625 450.8662414550781 495.57330322265625 462.10693359375 474.67950439453125 C 459.8173828125 471.1155700683594 469.9297790527344 470.45440673828125 468.7215270996094 473.1485595703125 C 470.38067626953125 475.7028503417969 466.71954345703125 475.7874755859375 467.40911865234375 476.4949951171875" fill="rgb(83, 76, 73)" opacity="0.7943999" stroke="rgb(93, 112, 224)" stroke-linecap="round" stroke-linejoin="round" stroke-opacity="0.47425488" stroke-width="0.0"/>
    <path d="M 305.86029052734375 591.0614013671875 C 310.07421875 609.0647583007812 306.283447265625 601.9448852539062 298.77032470703125 582.7344360351562 C 299.34844970703125 573.0638427734375 301.8733825683594 571.96337890625 300.7089538574219 568.5103759765625 C 300.7554016113281 585.9475708007812 297.4587707519531 584.2222290039062 298.4239501953125 574.9444580078125 C 311.53863525390625 593.4846801757812 300.76324462890625 559.1873168945312 305.86029052734375 591.0614013671875" fill="rgb(47, 43, 48)" opacity="0.9738184" stroke="rgb(214, 26, 98)" stroke-linecap="round" stroke-linejoin="round" stroke-opacity="0.3074711" stroke-width="0.0"/>
  </g>
</svg>
