<?xml version="1.0" ?>
<svg height="768" version="1.1" width="768" xmlns="http://www.w3.org/2000/svg">
  <defs/>
  <g>
    <path d="M 548.3892822265625 611.9020385742188 C -111.44818878173828 575.97802734375 -166.36099243164062 470.6355895996094 -302.3503723144531 319.39111328125 C -16.806474685668945 129.92138671875 -15.423881530761719 121.95367431640625 -12.012309074401855 7.0339741706848145 C -12.361435890197754 -16.83322525024414 -8.218883514404297 -16.528688430786133 534.91015625 -16.968700408935547 C 586.4369506835938 -71.88505554199219 585.2959594726562 -92.62236785888672 548.3892822265625 611.9020385742188" fill="rgb(114, 124, 133)" opacity="0.9973638" stroke="rgb(238, 5, 111)" stroke-linecap="round" stroke-linejoin="round" stroke-opacity="0.63917536" stroke-width="0.0"/>
    <path d="M 645.6734619140625 882.0390014648438 C 549.4010620117188 784.7301025390625 539.0365600585938 794.7918701171875 -50.99946212768555 765.1724243164062 C -10.992507934570312 461.80792236328125 94.61381530761719 394.0209045410156 188.603271484375 440.5326843261719 C 489.4615173339844 776.4254760742188 349.42889404296875 483.2779541015625 795.3128662109375 472.2855224609375 C 790.5665893554688 861.960205078125 727.793701171875 866.7958984375 645.6734619140625 882.0390014648438" fill="rgb(130, 157, 173)" opacity="0.9858497" stroke="rgb(215, 225, 99)" stroke-linecap="round" stroke-linejoin="round" stroke-opacity="0.8708367" stroke-width="0.0"/>
    <path d="M 764.7762451171875 -59.540870666503906 C 787.400390625 412.0611572265625 784.968994140625 427.7425537109375 776.51220703125 563.4913330078125 C 465.18841552734375 561.6927490234375 631.3609619140625 491.489990234375 590.1253051757812 411.4156188964844 C 486.57354736328125 459.89520263671875 378.9930419921875 453.87078857421875 331.3712463378906 157.67808532714844 C 538.82666015625 67.48015594482422 521.8634033203125 -18.272016525268555 764.7762451171875 -59.540870666503906" fill="rgb(82, 97, 112)" opacity="0.82213575" stroke="rgb(212, 27, 104)" stroke-linecap="round" stroke-linejoin="round" stroke-opacity="0.10286519" stroke-width="0.0"/>
    <path d="M 294.3499755859375 576.0532836914062 C 297.2458801269531 602.8502197265625 392.9609069824219 659.1842041015625 297.4149169921875 606.8655395507812 C 230.759033203125 574.8089599609375 220.91558837890625 555.2722778320312 188.35556030273438 499.3240661621094 C 171.97389221191406 460.8822937011719 178.38058471679688 456.3334655761719 222.5015106201172 454.68634033203125 C 262.52764892578125 528.1424560546875 284.48382568359375 475.7805480957031 294.3499755859375 576.0532836914062" fill="rgb(250, 246, 227)" opacity="1.0" stroke="rgb(176, 102, 104)" stroke-linecap="round" stroke-linejoin="round" stroke-opacity="0.58385277" stroke-width="0.0"/>
    <path d="M 607.7681274414062 414.0145263671875 C 570.657958984375 638.0906982421875 430.8292236328125 582.3013916015625 392.5798645019531 679.2100219726562 C 203.12889099121094 523.6001586914062 378.4484558105469 560.1961059570312 383.7078552246094 639.7574462890625 C 404.7811279296875 585.2236938476562 411.7494201660156 592.6928100585938 456.0738525390625 567.4712524414062 C 503.6968994140625 651.903076171875 406.49078369140625 530.927490234375 607.7681274414062 414.0145263671875" fill="rgb(255, 250, 230)" opacity="0.92502904" stroke="rgb(140, 163, 225)" stroke-linecap="round" stroke-linejoin="round" stroke-opacity="0.30783916" stroke-width="0.0"/>
    <path d="M 227.6240692138672 461.1316223144531 C 250.3129425048828 512.861328125 292.0583801269531 489.4906921386719 188.84141540527344 496.1995849609375 C 163.3769073486328 437.52239990234375 199.81735229492188 465.90850830078125 140.9163055419922 436.1540222167969 C 121.25316619873047 326.8556823730469 301.2506103515625 353.27923583984375 175.94984436035156 392.09423828125 C 114.22260284423828 436.9995422363281 216.16184997558594 382.0295104980469 227.6240692138672 461.1316223144531" fill="rgb(252, 248, 228)" opacity="0.9739712" stroke="rgb(88, 123, 84)" stroke-linecap="round" stroke-linejoin="round" stroke-opacity="0.9968064" stroke-width="0.0"/>
    <path d="M 350.68194580078125 342.9759216308594 C 342.4879455566406 346.73944091796875 338.3782958984375 323.30621337890625 319.42474365234375 316.44024658203125 C 311.0578918457031 309.37908935546875 272.82940673828125 308.612060546875 253.10240173339844 308.4407653808594 C 256.03619384765625 306.66888427734375 271.7384338378906 289.6170654296875 298.48992919921875 290.83477783203125 C 299.4468688964844 290.9019775390625 339.4966125488281 296.4407958984375 350.68194580078125 342.9759216308594" fill="rgb(253, 249, 231)" opacity="0.98009443" stroke="rgb(157, 145, 192)" stroke-linecap="round" stroke-linejoin="round" stroke-opacity="0.58758956" stroke-width="0.0"/>
    <path d="M 635.7251586914062 440.3993835449219 C 638.6071166992188 429.9466247558594 636.1642456054688 433.7810363769531 559.1158447265625 465.15338134765625 C 564.4664306640625 363.86151123046875 647.0759887695312 450.4975280761719 599.9432983398438 394.7098693847656 C 555.899658203125 379.8677062988281 496.94415283203125 329.01409912109375 615.0504150390625 369.323974609375 C 623.1649780273438 386.7154541015625 636.2916259765625 411.1455383300781 635.7251586914062 440.3993835449219" fill="rgb(255, 250, 230)" opacity="0.943808" stroke="rgb(133, 102, 192)" stroke-linecap="round" stroke-linejoin="round" stroke-opacity="0.6550353" stroke-width="0.0"/>
    <path d="M 507.9329833984375 419.6235656738281 C 491.3852844238281 454.2438049316406 510.2497253417969 412.5151062011719 445.3278503417969 548.81103515625 C 485.0341796875 426.4067687988281 470.23382568359375 483.653076171875 441.1221618652344 483.3557434082031 C 473.228271484375 450.9309387207031 443.7535095214844 406.056884765625 478.3336486816406 398.7413024902344 C 506.86065673828125 409.87799072265625 512.4591064453125 405.0309753417969 507.9329833984375 419.6235656738281" fill="rgb(246, 242, 223)" opacity="1.0" stroke="rgb(38, 188, 221)" stroke-linecap="round" stroke-linejoin="round" stroke-opacity="0.7373106" stroke-width="0.0"/>
    <path d="M 335.927490234375 354.4496765136719 C 350.7543640136719 354.5289611816406 311.9098815917969 355.3822021484375 298.7846374511719 346.1964416503906 C 311.20123291015625 356.5039367675781 256.9974670410156 317.00946044921875 293.468994140625 324.85272216796875 C 305.1214294433594 358.1745300292969 332.4067687988281 337.09722900390625 319.5106201171875 327.3978271484375 C 327.69464111328125 329.9008483886719 339.3359069824219 350.08843994140625 335.927490234375 354.4496765136719" fill="rgb(254, 249, 227)" opacity="0.98283005" stroke="rgb(146, 39, 68)" stroke-linecap="round" stroke-linejoin="round" stroke-opacity="0.30690554" stroke-width="0.0"/>
    <path d="M 571.6883544921875 251.52236938476562 C 493.4248962402344 253.42916870117188 606.7123413085938 100.41742706298828 526.364501953125 224.79266357421875 C 518.4989624023438 219.67474365234375 504.6354064941406 205.13279724121094 504.7276916503906 196.8581085205078 C 490.200927734375 175.96400451660156 479.7331237792969 131.189208984375 554.4038696289062 88.7109146118164 C 581.7230224609375 112.37890625 576.3405151367188 230.8124542236328 571.6883544921875 251.52236938476562" fill="rgb(255, 237, 215)" opacity="0.84842515" stroke="rgb(107, 103, 241)" stroke-linecap="round" stroke-linejoin="round" stroke-opacity="0.36909917" stroke-width="0.0"/>
    <path d="M 418.2794189453125 385.98980712890625 C 437.99798583984375 471.74609375 403.1324768066406 467.2299499511719 361.86737060546875 498.53326416015625 C 330.3338623046875 475.1893005371094 369.160888671875 475.1224670410156 350.5412902832031 458.5919189453125 C 336.25653076171875 440.7104797363281 351.40887451171875 402.76251220703125 350.7367858886719 342.07049560546875 C 305.8666076660156 204.8114471435547 402.36767578125 184.3509063720703 418.2794189453125 385.98980712890625" fill="rgb(59, 65, 80)" opacity="0.6288921" stroke="rgb(91, 233, 66)" stroke-linecap="round" stroke-linejoin="round" stroke-opacity="0.5954912" stroke-width="0.0"/>
    <path d="M 576.6740112304688 90.95626068115234 C 563.2261962890625 198.99403381347656 610.7025146484375 132.51522827148438 575.5458984375 303.42950439453125 C 571.6083374023438 119.08805847167969 550.7052001953125 178.0872802734375 561.8536376953125 91.35237121582031 C 540.709228515625 76.34955596923828 429.74774169921875 224.28500366210938 407.34893798828125 195.02127075195312 C 531.4329223632812 100.98329162597656 542.3445434570312 42.72201156616211 576.6740112304688 90.95626068115234" fill="rgb(6, 7, 20)" opacity="0.9239562" stroke="rgb(165, 36, 30)" stroke-linecap="round" stroke-linejoin="round" stroke-opacity="0.90795535" stroke-width="0.0"/>
    <path d="M 402.2325439453125 457.1253967285156 C 428.2320861816406 476.31658935546875 428.5926208496094 484.7132568359375 397.66290283203125 507.44921875 C 368.7879638671875 510.7323913574219 361.1853332519531 503.67047119140625 348.3434753417969 484.8833312988281 C 347.05059814453125 444.756591796875 394.6413879394531 469.58819580078125 403.65966796875 430.0152282714844 C 409.13897705078125 431.9822082519531 413.6069641113281 437.85198974609375 402.2325439453125 457.1253967285156" fill="rgb(16, 16, 28)" opacity="1.0" stroke="rgb(193, 39, 18)" stroke-linecap="round" stroke-linejoin="round" stroke-opacity="0.9698205" stroke-width="0.0"/>
    <path d="M 428.57415771484375 494.8939514160156 C 499.1111755371094 428.5205993652344 440.9523620605469 572.6701049804688 316.09490966796875 493.572265625 C 359.7008361816406 478.4975280761719 428.3766784667969 544.7623291015625 418.8363342285156 457.5489501953125 C 428.6349182128906 442.7714538574219 414.1376647949219 383.9554443359375 417.9280700683594 379.8691711425781 C 435.4506530761719 406.6168518066406 454.23687744140625 472.9560852050781 428.57415771484375 494.8939514160156" fill="rgb(255, 253, 228)" opacity="0.9258903" stroke="rgb(52, 169, 171)" stroke-linecap="round" stroke-linejoin="round" stroke-opacity="0.192621" stroke-width="0.0"/>
  </g>
</svg>
