<?xml version="1.0" ?>
<svg height="768" version="1.1" width="768" xmlns="http://www.w3.org/2000/svg">
  <defs/>
  <g>
    <path d="M 548.358642578125 612.792236328125 C -111.76060485839844 576.4940185546875 -166.41757202148438 470.7397155761719 -302.35174560546875 319.3916931152344 C -16.806474685668945 129.92138671875 -15.423881530761719 121.95367431640625 -12.012309074401855 7.0339741706848145 C -12.361435890197754 -16.83322525024414 -8.218883514404297 -16.528688430786133 534.8934936523438 -16.978925704956055 C 586.3964233398438 -71.97087860107422 585.2954711914062 -92.61619567871094 548.358642578125 612.792236328125" fill="rgb(96, 103, 116)" opacity="0.97509325" stroke="rgb(238, 5, 111)" stroke-linecap="round" stroke-linejoin="round" stroke-opacity="0.63917536" stroke-width="0.0"/>
    <path d="M 645.6734619140625 882.0349731445312 C 549.4010620117188 784.7303466796875 539.025634765625 794.8179321289062 -51.04990768432617 765.1895751953125 C -11.100884437561035 461.4501037597656 94.50981903076172 393.02459716796875 187.90235900878906 440.4214172363281 C 500.57965087890625 776.5897827148438 362.7476501464844 486.2117614746094 795.80615234375 473.1479797363281 C 790.53662109375 861.921630859375 727.76708984375 866.7605590820312 645.6734619140625 882.0349731445312" fill="rgb(133, 162, 177)" opacity="0.98746544" stroke="rgb(215, 225, 99)" stroke-linecap="round" stroke-linejoin="round" stroke-opacity="0.8708367" stroke-width="0.0"/>
    <path d="M 764.7006225585938 -60.369075775146484 C 787.543701171875 411.95672607421875 784.974609375 427.74041748046875 777.3995971679688 562.9544067382812 C 466.169189453125 561.1326293945312 632.5465087890625 491.1205749511719 590.3880004882812 412.1126708984375 C 486.5610656738281 463.19049072265625 378.8004150390625 455.8179931640625 331.1494445800781 157.954345703125 C 537.2289428710938 67.08346557617188 518.8568725585938 -19.36302947998047 764.7006225585938 -60.369075775146484" fill="rgb(92, 101, 112)" opacity="1.0" stroke="rgb(212, 27, 104)" stroke-linecap="round" stroke-linejoin="round" stroke-opacity="0.10286519" stroke-width="0.0"/>
    <path d="M 296.9091796875 579.2178955078125 C 300.50933837890625 600.0014038085938 406.19000244140625 668.33203125 296.0165100097656 605.9052734375 C 232.8203582763672 575.9998168945312 220.86981201171875 555.8643188476562 188.4467010498047 499.1719665527344 C 171.97610473632812 461.3525390625 179.1775360107422 455.4071960449219 218.66590881347656 456.6758117675781 C 275.90960693359375 531.6293334960938 280.5756530761719 478.186279296875 296.9091796875 579.2178955078125" fill="rgb(252, 248, 229)" opacity="0.99104905" stroke="rgb(176, 102, 104)" stroke-linecap="round" stroke-linejoin="round" stroke-opacity="0.58385277" stroke-width="0.0"/>
    <path d="M 598.4718017578125 456.7011413574219 C 570.1913452148438 620.375 430.57110595703125 592.1729736328125 395.966064453125 672.0028076171875 C 190.37332153320312 529.46435546875 385.2169189453125 557.5770263671875 383.8499450683594 641.526123046875 C 402.8822021484375 584.4860229492188 414.24267578125 592.3361206054688 454.7590637207031 567.6559448242188 C 516.4659423828125 628.7971801757812 405.536865234375 500.8272399902344 598.4718017578125 456.7011413574219" fill="rgb(251, 247, 228)" opacity="0.9870897" stroke="rgb(140, 163, 225)" stroke-linecap="round" stroke-linejoin="round" stroke-opacity="0.30783916" stroke-width="0.0"/>
    <path d="M 227.71737670898438 461.5901184082031 C 250.92018127441406 511.2912292480469 291.6988830566406 491.91839599609375 188.22183227539062 496.7853088378906 C 163.85513305664062 435.8373107910156 200.4682159423828 467.0248718261719 137.11874389648438 434.0570068359375 C 146.46937561035156 289.68505859375 307.4646911621094 347.0667419433594 174.5360565185547 393.48516845703125 C 115.49693298339844 435.830810546875 216.68679809570312 382.1372375488281 227.71737670898438 461.5901184082031" fill="rgb(251, 247, 228)" opacity="0.9907581" stroke="rgb(88, 123, 84)" stroke-linecap="round" stroke-linejoin="round" stroke-opacity="0.9968064" stroke-width="0.0"/>
    <path d="M 350.44915771484375 343.08306884765625 C 342.4930114746094 346.8751220703125 338.6912536621094 323.5018310546875 318.9735107421875 316.3807067871094 C 310.34954833984375 309.39984130859375 273.2526550292969 308.75189208984375 252.7996063232422 308.9977111816406 C 255.20819091796875 307.0126647949219 271.8120422363281 289.50384521484375 298.6979675292969 290.7488708496094 C 299.0711669921875 290.72332763671875 340.359619140625 296.6256103515625 350.44915771484375 343.08306884765625" fill="rgb(253, 250, 231)" opacity="0.97974193" stroke="rgb(157, 145, 192)" stroke-linecap="round" stroke-linejoin="round" stroke-opacity="0.58758956" stroke-width="0.0"/>
    <path d="M 634.769287109375 437.6139221191406 C 633.1822509765625 426.96038818359375 646.1329345703125 443.5719909667969 534.906494140625 480.4112548828125 C 550.365966796875 363.7356262207031 654.923095703125 448.217529296875 594.5623779296875 390.78118896484375 C 543.0282592773438 389.903076171875 493.8647155761719 270.6481628417969 611.8756103515625 365.8508605957031 C 618.5958862304688 371.5418701171875 638.3867797851562 416.2467346191406 634.769287109375 437.6139221191406" fill="rgb(254, 250, 229)" opacity="0.9750318" stroke="rgb(133, 102, 192)" stroke-linecap="round" stroke-linejoin="round" stroke-opacity="0.6550353" stroke-width="0.0"/>
    <path d="M 496.13079833984375 445.63055419921875 C 465.88006591796875 474.3296203613281 494.28546142578125 510.4997863769531 414.87786865234375 562.8372192382812 C 503.9608459472656 448.4750061035156 460.87908935546875 468.1221008300781 434.76544189453125 492.6180114746094 C 477.68280029296875 448.15216064453125 441.35491943359375 409.276123046875 478.10491943359375 398.43414306640625 C 512.947021484375 413.7451171875 517.19140625 398.12762451171875 496.13079833984375 445.63055419921875" fill="rgb(251, 248, 226)" opacity="0.9956093" stroke="rgb(38, 188, 221)" stroke-linecap="round" stroke-linejoin="round" stroke-opacity="0.7373106" stroke-width="0.0"/>
    <path d="M 335.4976806640625 354.5167541503906 C 352.7654724121094 355.4450988769531 297.8630676269531 354.02435302734375 298.4509582519531 344.1745300292969 C 304.12860107421875 356.6412353515625 256.88494873046875 309.566162109375 292.98089599609375 323.2924499511719 C 304.5022277832031 358.5372009277344 333.9787292480469 336.7525939941406 318.2119445800781 326.62823486328125 C 329.1673889160156 329.6856384277344 340.2765808105469 353.2160339355469 335.4976806640625 354.5167541503906" fill="rgb(253, 249, 227)" opacity="0.9836354" stroke="rgb(146, 39, 68)" stroke-linecap="round" stroke-linejoin="round" stroke-opacity="0.30690554" stroke-width="0.0"/>
    <path d="M 571.2142333984375 255.224853515625 C 471.30902099609375 297.7358703613281 613.61328125 73.2685546875 527.7990112304688 224.4003143310547 C 520.5830078125 224.15626525878906 495.0815734863281 192.6944580078125 509.50372314453125 199.20826721191406 C 489.53814697265625 185.8615264892578 477.6629333496094 130.11305236816406 552.1821899414062 90.52294158935547 C 582.72021484375 93.09125518798828 574.9788208007812 232.388916015625 571.2142333984375 255.224853515625" fill="rgb(255, 251, 231)" opacity="0.9718593" stroke="rgb(107, 103, 241)" stroke-linecap="round" stroke-linejoin="round" stroke-opacity="0.36909917" stroke-width="0.0"/>
    <path d="M 407.52081298828125 318.42340087890625 C 421.12353515625 495.7067565917969 441.1745300292969 435.83856201171875 364.7818298339844 494.501708984375 C 329.7104797363281 472.77203369140625 369.2578125 473.5320129394531 353.6217041015625 463.002197265625 C 332.52978515625 440.396240234375 347.324462890625 399.38214111328125 373.4409484863281 310.1038818359375 C 291.7867431640625 140.66140747070312 482.4882507324219 91.31187438964844 407.52081298828125 318.42340087890625" fill="rgb(54, 65, 84)" opacity="0.37555286" stroke="rgb(91, 233, 66)" stroke-linecap="round" stroke-linejoin="round" stroke-opacity="0.5954912" stroke-width="0.0"/>
    <path d="M 577.3157958984375 90.30355072021484 C 562.7003784179688 191.2539520263672 607.7401733398438 132.95848083496094 579.7783203125 278.30328369140625 C 577.3930053710938 110.92568969726562 551.5805053710938 198.26080322265625 560.9517822265625 96.91041564941406 C 566.4317626953125 49.73006820678711 417.2558288574219 236.52914428710938 413.54986572265625 190.45777893066406 C 518.2341918945312 111.64286041259766 541.7178344726562 41.07795715332031 577.3157958984375 90.30355072021484" fill="rgb(7, 8, 22)" opacity="0.96941465" stroke="rgb(165, 36, 30)" stroke-linecap="round" stroke-linejoin="round" stroke-opacity="0.90795535" stroke-width="0.0"/>
    <path d="M 401.50079345703125 457.4775085449219 C 427.66668701171875 473.71539306640625 428.39935302734375 485.55303955078125 397.42974853515625 507.55072021484375 C 373.04461669921875 509.7265319824219 361.1486511230469 502.8584289550781 348.198486328125 485.19915771484375 C 349.24365234375 441.0615234375 391.1700744628906 475.9197082519531 405.2767333984375 431.36102294921875 C 408.76800537109375 432.17071533203125 413.16534423828125 437.4448547363281 401.50079345703125 457.4775085449219" fill="rgb(16, 16, 29)" opacity="0.9999842" stroke="rgb(193, 39, 18)" stroke-linecap="round" stroke-linejoin="round" stroke-opacity="0.9698205" stroke-width="0.0"/>
    <path d="M 431.1520080566406 494.6895751953125 C 486.7767333984375 420.7260437011719 467.7419738769531 552.917236328125 342.0950927734375 510.86578369140625 C 241.44094848632812 479.8455810546875 455.43707275390625 548.7587890625 414.701171875 460.70452880859375 C 434.5360107421875 450.3294677734375 409.1642150878906 367.4647216796875 420.1087646484375 383.0198669433594 C 433.3878173828125 407.738037109375 453.72900390625 462.2083740234375 431.1520080566406 494.6895751953125" fill="rgb(255, 251, 228)" opacity="0.9691555" stroke="rgb(52, 169, 171)" stroke-linecap="round" stroke-linejoin="round" stroke-opacity="0.192621" stroke-width="0.0"/>
    <path d="M 537.103759765625 78.63147735595703 C 443.6663818359375 166.92137145996094 426.0631103515625 183.31504821777344 414.16314697265625 182.49386596679688 C 378.1304931640625 170.42715454101562 333.1980285644531 224.34124755859375 269.3409423828125 0.3879454433917999 C 332.0149230957031 -15.606252670288086 376.0960998535156 -29.312849044799805 770.2586669921875 0.5723766088485718 C 596.6731567382812 272.392578125 602.996337890625 36.76887512207031 537.103759765625 78.63147735595703" fill="rgb(134, 171, 190)" opacity="0.85955644" stroke="rgb(123, 194, 71)" stroke-linecap="round" stroke-linejoin="round" stroke-opacity="0.36938947" stroke-width="0.0"/>
    <path d="M 330.029052734375 115.38569641113281 C 405.7534484863281 181.0919647216797 385.1532287597656 201.80543518066406 328.5899963378906 156.62754821777344 C 191.50424194335938 50.248779296875 338.86138916015625 176.00747680664062 256.5996398925781 195.96011352539062 C 65.51578521728516 253.23532104492188 -9.00898265838623 303.6486511230469 -30.404626846313477 3.1953723430633545 C 479.34857177734375 -33.360877990722656 386.62188720703125 65.87548828125 330.029052734375 115.38569641113281" fill="rgb(222, 195, 178)" opacity="1.0" stroke="rgb(114, 52, 25)" stroke-linecap="round" stroke-linejoin="round" stroke-opacity="0.83143497" stroke-width="0.0"/>
    <path d="M 780.2813720703125 446.76202392578125 C 780.1722412109375 566.4657592773438 776.7166748046875 568.2205810546875 755.4588012695312 601.6193237304688 C 687.2340698242188 589.9140014648438 688.0023193359375 588.4458618164062 666.6666870117188 591.9876098632812 C 670.4364624023438 478.4586181640625 673.8804321289062 475.32672119140625 770.2030029296875 359.1245422363281 C 834.2007446289062 380.12554931640625 791.75537109375 414.3232116699219 780.2813720703125 446.76202392578125" fill="rgb(52, 156, 205)" opacity="0.075716734" stroke="rgb(216, 106, 216)" stroke-linecap="round" stroke-linejoin="round" stroke-opacity="0.03302753" stroke-width="0.0"/>
    <path d="M 766.9968872070312 6.295506000518799 C 807.585205078125 615.7606201171875 722.251708984375 574.03369140625 695.2064208984375 560.1742553710938 C 605.5084838867188 553.2775268554688 604.6959228515625 544.1455688476562 608.6572265625 538.707763671875 C 622.7478637695312 504.882568359375 636.0570068359375 489.4759521484375 632.7578735351562 356.6562805175781 C 594.9361572265625 276.04412841796875 468.2105712890625 52.62590789794922 766.9968872070312 6.295506000518799" fill="rgb(166, 212, 232)" opacity="0.5378939" stroke="rgb(61, 12, 226)" stroke-linecap="round" stroke-linejoin="round" stroke-opacity="0.02483352" stroke-width="0.0"/>
    <path d="M 309.2086181640625 140.5232391357422 C 316.1986999511719 192.052734375 294.5757141113281 181.11268615722656 258.53887939453125 98.8715591430664 C 134.77813720703125 71.50873565673828 330.4902038574219 142.7196502685547 203.4199981689453 317.9434509277344 C 115.28669738769531 100.1562271118164 212.47080993652344 52.10236358642578 238.8244171142578 67.24234771728516 C 268.16766357421875 90.72423553466797 270.58062744140625 95.07283020019531 309.2086181640625 140.5232391357422" fill="rgb(73, 50, 50)" opacity="0.23968415" stroke="rgb(237, 51, 129)" stroke-linecap="round" stroke-linejoin="round" stroke-opacity="0.34229565" stroke-width="0.0"/>
    <path d="M 482.0592346191406 319.6431884765625 C 470.5586242675781 342.6695556640625 472.5375061035156 341.9329833984375 468.9365539550781 340.5755615234375 C 465.89141845703125 346.4629821777344 442.44854736328125 345.8336181640625 457.6301574707031 309.0807800292969 C 466.80133056640625 297.0831604003906 444.662353515625 348.1528015136719 470.3347473144531 335.0725402832031 C 470.0307922363281 285.5711364746094 427.8232116699219 300.60833740234375 482.0592346191406 319.6431884765625" fill="rgb(15, 8, 4)" opacity="0.9621129" stroke="rgb(89, 96, 33)" stroke-linecap="round" stroke-linejoin="round" stroke-opacity="0.01530962" stroke-width="0.0"/>
    <path d="M 138.1473846435547 382.725830078125 C 141.20172119140625 793.6214599609375 363.0055236816406 874.2709350585938 -100.3780517578125 652.8947143554688 C -12.08630084991455 554.7857666015625 -12.571045875549316 551.8613891601562 -21.044208526611328 512.6591186523438 C -42.12003707885742 510.00738525390625 -182.00787353515625 372.36895751953125 12.135736465454102 169.2848663330078 C 318.447509765625 209.404296875 161.73074340820312 217.2724151611328 138.1473846435547 382.725830078125" fill="rgb(129, 162, 180)" opacity="0.882241" stroke="rgb(66, 189, 237)" stroke-linecap="round" stroke-linejoin="round" stroke-opacity="0.66555125" stroke-width="0.0"/>
    <path d="M 354.77508544921875 462.8334045410156 C 357.0276794433594 464.41778564453125 327.2977600097656 482.6673889160156 372.65582275390625 507.24798583984375 C 352.60650634765625 537.99658203125 329.751953125 477.3980407714844 330.6313781738281 448.4447326660156 C 328.4036560058594 431.4653015136719 337.2566223144531 400.15411376953125 347.1344909667969 379.933837890625 C 351.46905517578125 393.4907531738281 332.41619873046875 449.92218017578125 354.77508544921875 462.8334045410156" fill="rgb(252, 248, 226)" opacity="0.9891646" stroke="rgb(10, 15, 96)" stroke-linecap="round" stroke-linejoin="round" stroke-opacity="0.49195614" stroke-width="0.0"/>
    <path d="M 514.4293212890625 308.5296325683594 C 529.2755737304688 311.71966552734375 468.8835144042969 307.1269226074219 457.32916259765625 316.2771301269531 C 432.865966796875 320.0337219238281 425.540771484375 364.4722595214844 426.525634765625 336.3951110839844 C 436.6373596191406 302.3770751953125 458.0284729003906 293.9793395996094 467.15594482421875 292.5369567871094 C 479.69915771484375 288.1349182128906 503.40655517578125 296.0364685058594 514.4293212890625 308.5296325683594" fill="rgb(248, 244, 225)" opacity="0.99974257" stroke="rgb(249, 97, 254)" stroke-linecap="round" stroke-linejoin="round" stroke-opacity="0.72148997" stroke-width="0.0"/>
    <path d="M 669.9134521484375 606.1021118164062 C 633.1615600585938 585.989990234375 645.6168823242188 600.173583984375 471.9681701660156 609.8058471679688 C 523.2259521484375 580.3761596679688 538.990966796875 577.0552978515625 569.4156494140625 524.8151245117188 C 593.8823852539062 487.28643798828125 594.629150390625 470.82818603515625 598.438720703125 449.4125671386719 C 680.3240966796875 406.44305419921875 661.1182861328125 454.1368713378906 669.9134521484375 606.1021118164062" fill="rgb(131, 162, 179)" opacity="0.9582815" stroke="rgb(252, 10, 254)" stroke-linecap="round" stroke-linejoin="round" stroke-opacity="0.037937045" stroke-width="0.0"/>
    <path d="M 439.95379638671875 168.34780883789062 C 425.5144958496094 191.41796875 387.8102111816406 176.95211791992188 395.3022155761719 181.314453125 C 394.1007080078125 179.08987426757812 363.7995300292969 185.12326049804688 320.8455810546875 172.04212951660156 C 298.15625 83.18985748291016 332.26727294921875 119.13367462158203 403.84820556640625 143.05044555664062 C 422.2531433105469 145.40509033203125 434.9191589355469 142.3328094482422 439.95379638671875 168.34780883789062" fill="rgb(129, 163, 183)" opacity="0.9564033" stroke="rgb(42, 51, 187)" stroke-linecap="round" stroke-linejoin="round" stroke-opacity="0.9072496" stroke-width="0.0"/>
    <path d="M 598.2841186523438 337.8971252441406 C 660.28564453125 364.66876220703125 575.7366333007812 362.3731994628906 572.3160400390625 358.2725830078125 C 511.79034423828125 323.8641357421875 545.585693359375 324.190673828125 445.21771240234375 323.9515075683594 C 450.2691955566406 321.5085754394531 457.7759094238281 307.9467468261719 524.1792602539062 311.6627502441406 C 571.4547119140625 330.33001708984375 544.9835815429688 335.894775390625 598.2841186523438 337.8971252441406" fill="rgb(20, 22, 37)" opacity="0.98248386" stroke="rgb(181, 252, 223)" stroke-linecap="round" stroke-linejoin="round" stroke-opacity="0.65475583" stroke-width="0.0"/>
    <path d="M 569.5201416015625 255.5102081298828 C 568.8477172851562 261.2086181640625 607.8043823242188 256.8197021484375 571.3009033203125 275.5862121582031 C 521.5765380859375 253.10781860351562 456.45404052734375 189.7223358154297 492.7481384277344 167.12936401367188 C 501.9518737792969 221.40737915039062 536.246826171875 229.38674926757812 555.8229370117188 250.61978149414062 C 529.6376342773438 224.8905792236328 548.2056274414062 246.18063354492188 569.5201416015625 255.5102081298828" fill="rgb(16, 18, 30)" opacity="0.993301" stroke="rgb(35, 121, 138)" stroke-linecap="round" stroke-linejoin="round" stroke-opacity="0.7146088" stroke-width="0.0"/>
    <path d="M 426.0157470703125 181.4084014892578 C 427.8855285644531 201.43968200683594 435.7677001953125 197.14088439941406 357.31982421875 196.6146697998047 C 350.7236328125 193.84642028808594 334.371337890625 193.6511993408203 256.5978698730469 118.35511779785156 C 248.75901794433594 82.98307037353516 268.538818359375 109.7640609741211 327.4476013183594 157.79820251464844 C 367.502685546875 187.31736755371094 338.4990234375 180.48724365234375 426.0157470703125 181.4084014892578" fill="rgb(10, 11, 26)" opacity="0.9841698" stroke="rgb(13, 192, 126)" stroke-linecap="round" stroke-linejoin="round" stroke-opacity="0.82795167" stroke-width="0.0"/>
    <path d="M 350.2985534667969 500.2569274902344 C 335.7449645996094 544.6178588867188 252.5126190185547 387.04449462890625 359.736083984375 562.6030883789062 C 276.0667724609375 507.7541809082031 312.2203369140625 484.4730529785156 272.84454345703125 447.0426025390625 C 250.27000427246094 396.8082275390625 256.54583740234375 416.5998229980469 285.8336486816406 401.6354675292969 C 330.3751220703125 399.0783996582031 280.8274841308594 473.91015625 350.2985534667969 500.2569274902344" fill="rgb(252, 248, 227)" opacity="0.9880977" stroke="rgb(20, 232, 179)" stroke-linecap="round" stroke-linejoin="round" stroke-opacity="0.13024494" stroke-width="0.0"/>
    <path d="M 242.74981689453125 232.19065856933594 C 225.1661834716797 243.94773864746094 224.13099670410156 247.98779296875 202.48037719726562 255.84182739257812 C 201.36581420898438 259.9777526855469 201.73667907714844 255.52767944335938 198.8925018310547 210.690185546875 C 201.79849243164062 176.79092407226562 206.20603942871094 190.31219482421875 221.56468200683594 144.8113555908203 C 204.98419189453125 197.5148468017578 242.67764282226562 233.72122192382812 242.74981689453125 232.19065856933594" fill="rgb(254, 251, 229)" opacity="0.96735495" stroke="rgb(239, 250, 13)" stroke-linecap="round" stroke-linejoin="round" stroke-opacity="0.3439759" stroke-width="0.0"/>
    <path d="M 256.646240234375 238.92140197753906 C 243.54957580566406 251.689697265625 236.4661865234375 254.73611450195312 226.60861206054688 262.6159973144531 C 221.32135009765625 263.7083740234375 223.61798095703125 254.7456512451172 213.8680877685547 252.56820678710938 C 225.79129028320312 246.76046752929688 229.95938110351562 241.7907257080078 241.42637634277344 234.79978942871094 C 259.60736083984375 214.3807830810547 270.63336181640625 215.83921813964844 256.646240234375 238.92140197753906" fill="rgb(13, 14, 27)" opacity="0.8557479" stroke="rgb(10, 40, 201)" stroke-linecap="round" stroke-linejoin="round" stroke-opacity="0.4168148" stroke-width="0.0"/>
    <path d="M 236.08499145507812 254.36331176757812 C 227.8563690185547 259.4385986328125 229.56358337402344 260.56317138671875 221.57810974121094 265.7574462890625 C 203.90150451660156 274.26470947265625 203.5136260986328 277.2937316894531 217.5986328125 264.4607238769531 C 217.41751098632812 255.14076232910156 215.62254333496094 252.01014709472656 227.60992431640625 244.2996063232422 C 249.3683319091797 226.58975219726562 247.7560577392578 249.76956176757812 236.08499145507812 254.36331176757812" fill="rgb(0, 2, 21)" opacity="0.5195992" stroke="rgb(112, 149, 110)" stroke-linecap="round" stroke-linejoin="round" stroke-opacity="0.1284956" stroke-width="0.0"/>
    <path d="M 376.85687255859375 196.25811767578125 C 358.2898254394531 238.83299255371094 358.22705078125 244.8636016845703 353.306396484375 245.86416625976562 C 323.9238586425781 230.4533233642578 319.5752868652344 224.64422607421875 312.37615966796875 230.8294219970703 C 284.0325622558594 231.2777099609375 288.4305725097656 178.62738037109375 278.3201904296875 138.02842712402344 C 361.12982177734375 202.18807983398438 354.85687255859375 203.3082733154297 376.85687255859375 196.25811767578125" fill="rgb(71, 82, 98)" opacity="0.89214414" stroke="rgb(105, 14, 27)" stroke-linecap="round" stroke-linejoin="round" stroke-opacity="0.10163029" stroke-width="0.0"/>
    <path d="M 334.1189880371094 506.6971435546875 C 355.6025695800781 518.2028198242188 335.4366760253906 537.9308471679688 318.79205322265625 511.2251281738281 C 312.599609375 500.94622802734375 310.1675109863281 498.0963134765625 306.2365417480469 486.2784118652344 C 298.5662536621094 470.1176452636719 308.3172302246094 469.3993225097656 309.6056823730469 474.82183837890625 C 317.9046325683594 487.95880126953125 319.4380798339844 496.32904052734375 334.1189880371094 506.6971435546875" fill="rgb(60, 53, 54)" opacity="1.0" stroke="rgb(206, 145, 170)" stroke-linecap="round" stroke-linejoin="round" stroke-opacity="0.5173446" stroke-width="0.0"/>
    <path d="M 272.0968017578125 226.20175170898438 C 262.74517822265625 233.0084686279297 260.7973327636719 237.7899627685547 251.11903381347656 243.01499938964844 C 240.7945098876953 253.8638153076172 239.1184844970703 253.07093811035156 241.7755584716797 227.7546844482422 C 235.00717163085938 220.36068725585938 253.36146545410156 231.40562438964844 258.7123107910156 219.8947296142578 C 276.2850036621094 202.17247009277344 277.9862060546875 208.92710876464844 272.0968017578125 226.20175170898438" fill="rgb(0, 0, 22)" opacity="0.52802676" stroke="rgb(136, 34, 241)" stroke-linecap="round" stroke-linejoin="round" stroke-opacity="0.4703315" stroke-width="0.0"/>
    <path d="M 394.4306945800781 674.6815795898438 C 389.09637451171875 687.9642944335938 387.89752197265625 688.484619140625 388.1510925292969 690.5521850585938 C 385.2275390625 683.8831176757812 382.2735290527344 679.9475708007812 379.40814208984375 673.7322998046875 C 369.36004638671875 656.4051513671875 367.6247863769531 653.497802734375 350.225830078125 637.6759033203125 C 467.21331787109375 626.6627197265625 398.864501953125 645.8856811523438 394.4306945800781 674.6815795898438" fill="rgb(254, 249, 231)" opacity="0.964706" stroke="rgb(135, 40, 46)" stroke-linecap="round" stroke-linejoin="round" stroke-opacity="0.8975585" stroke-width="0.0"/>
    <path d="M 243.04989624023438 197.76345825195312 C 251.07516479492188 223.8520965576172 267.9552917480469 212.04933166503906 250.27911376953125 224.58905029296875 C 240.9253692626953 222.6820831298828 225.20863342285156 197.27081298828125 221.66702270507812 177.98703002929688 C 210.33062744140625 147.6782989501953 231.6672821044922 100.49527740478516 219.42129516601562 160.94232177734375 C 242.70492553710938 186.6814422607422 224.98826599121094 174.57591247558594 243.04989624023438 197.76345825195312" fill="rgb(251, 247, 224)" opacity="1.0" stroke="rgb(126, 182, 148)" stroke-linecap="round" stroke-linejoin="round" stroke-opacity="0.49002603" stroke-width="0.0"/>
    <path d="M 219.80560302734375 120.82381439208984 C 218.97970581054688 186.2073516845703 201.44772338867188 161.01654052734375 196.99293518066406 216.24609375 C 174.95498657226562 192.84681701660156 187.2100372314453 184.9444122314453 204.5946807861328 142.57225036621094 C 198.3388671875 71.5863265991211 212.49343872070312 35.245574951171875 296.9018249511719 144.11439514160156 C 241.15281677246094 121.67810821533203 216.07675170898438 56.71965789794922 219.80560302734375 120.82381439208984" fill="rgb(9, 10, 23)" opacity="0.9879603" stroke="rgb(20, 156, 220)" stroke-linecap="round" stroke-linejoin="round" stroke-opacity="0.25843313" stroke-width="0.0"/>
    <path d="M 442.62823486328125 525.0623168945312 C 445.52386474609375 534.074462890625 430.3417053222656 559.44287109375 388.0137634277344 575.7372436523438 C 373.0261535644531 571.0189208984375 339.8551940917969 555.2679443359375 339.326904296875 533.4675903320312 C 347.1963195800781 542.5144653320312 376.4631042480469 563.0203247070312 387.86297607421875 563.5387573242188 C 385.466064453125 563.1256713867188 387.2015075683594 569.6617431640625 442.62823486328125 525.0623168945312" fill="rgb(253, 249, 228)" opacity="0.98534375" stroke="rgb(18, 144, 105)" stroke-linecap="round" stroke-linejoin="round" stroke-opacity="0.09896711" stroke-width="0.0"/>
    <path d="M 408.7195739746094 241.9766845703125 C 385.6771240234375 252.44313049316406 390.7845764160156 226.575927734375 379.59033203125 250.33038330078125 C 360.7197570800781 251.37864685058594 361.3330993652344 254.46548461914062 366.1073913574219 245.47003173828125 C 370.076416015625 227.8076171875 384.9582824707031 219.2344512939453 383.98828125 221.77890014648438 C 393.2367858886719 220.91139221191406 398.3883056640625 222.6370849609375 408.7195739746094 241.9766845703125" fill="rgb(17, 20, 34)" opacity="0.9610468" stroke="rgb(237, 236, 64)" stroke-linecap="round" stroke-linejoin="round" stroke-opacity="0.36370343" stroke-width="0.0"/>
    <path d="M 441.83978271484375 525.7809448242188 C 405.4647521972656 566.58056640625 375.65863037109375 562.904052734375 387.4956359863281 563.3950805664062 C 372.35589599609375 558.8970336914062 367.1944885253906 552.5941772460938 354.9944152832031 546.9453735351562 C 327.4920349121094 523.7214965820312 332.5943908691406 534.1757202148438 401.3476867675781 548.5557861328125 C 408.9985656738281 536.7815551757812 422.13311767578125 513.1478271484375 441.83978271484375 525.7809448242188" fill="rgb(47, 43, 50)" opacity="0.96735245" stroke="rgb(56, 204, 207)" stroke-linecap="round" stroke-linejoin="round" stroke-opacity="0.940067" stroke-width="0.0"/>
    <path d="M 336.5040588378906 345.6246032714844 C 326.2890625 324.51947021484375 311.3532409667969 320.5735778808594 299.6510925292969 324.67767333984375 C 302.8092346191406 329.059814453125 297.77313232421875 327.5699462890625 295.9050598144531 321.0711669921875 C 290.7400207519531 314.2055358886719 296.0606689453125 317.0281677246094 289.2181396484375 309.23468017578125 C 303.1378173828125 314.84832763671875 330.7245788574219 308.89508056640625 336.5040588378906 345.6246032714844" fill="rgb(33, 33, 54)" opacity="0.62587094" stroke="rgb(21, 43, 56)" stroke-linecap="round" stroke-linejoin="round" stroke-opacity="0.11166217" stroke-width="0.0"/>
    <path d="M 269.036376953125 192.8883819580078 C 273.3678283691406 198.75973510742188 274.86358642578125 194.40847778320312 268.1201477050781 206.12181091308594 C 263.5878601074219 213.74720764160156 257.82696533203125 209.52615356445312 243.3369140625 189.94151306152344 C 239.11541748046875 172.1886444091797 235.1278533935547 185.54127502441406 253.2827911376953 189.1851348876953 C 278.4427795410156 197.79380798339844 268.8772277832031 187.44766235351562 269.036376953125 192.8883819580078" fill="rgb(253, 245, 216)" opacity="1.0" stroke="rgb(11, 216, 31)" stroke-linecap="round" stroke-linejoin="round" stroke-opacity="0.71865165" stroke-width="0.0"/>
    <path d="M 284.6497802734375 314.89471435546875 C 284.2101135253906 317.2960510253906 274.3952331542969 316.2916564941406 254.5548553466797 314.5830383300781 C 266.2736511230469 321.7044372558594 258.4493713378906 319.07550048828125 248.28688049316406 310.4283752441406 C 255.79644775390625 305.86065673828125 282.5184326171875 309.1232604980469 276.03643798828125 310.55487060546875 C 261.6278076171875 306.9126281738281 267.1744384765625 310.812744140625 284.6497802734375 314.89471435546875" fill="rgb(124, 113, 120)" opacity="0.48860106" stroke="rgb(227, 195, 14)" stroke-linecap="round" stroke-linejoin="round" stroke-opacity="0.39185756" stroke-width="0.0"/>
    <path d="M 274.508056640625 210.7054901123047 C 268.3313293457031 228.02207946777344 266.5544738769531 232.8887176513672 272.0080261230469 217.4648895263672 C 262.7209167480469 203.01272583007812 252.17062377929688 229.3327178955078 261.23199462890625 226.33843994140625 C 259.9111022949219 217.55393981933594 232.89710998535156 197.85360717773438 236.50987243652344 178.1451873779297 C 265.16510009765625 222.3238525390625 254.34742736816406 207.34603881835938 274.508056640625 210.7054901123047" fill="rgb(70, 58, 67)" opacity="0.76738596" stroke="rgb(49, 38, 210)" stroke-linecap="round" stroke-linejoin="round" stroke-opacity="0.1451765" stroke-width="0.0"/>
    <path d="M 404.09588623046875 533.5296020507812 C 416.7814636230469 557.7763671875 382.8560485839844 565.0135498046875 380.369140625 560.04931640625 C 372.4865417480469 558.1246948242188 360.1953430175781 554.4664306640625 336.2030944824219 531.9467163085938 C 320.8775939941406 518.404541015625 328.4380798339844 513.670166015625 340.7935791015625 518.8931274414062 C 390.0873107910156 532.2049560546875 398.0606689453125 532.7285766601562 404.09588623046875 533.5296020507812" fill="rgb(0, 0, 14)" opacity="0.49962023" stroke="rgb(193, 74, 20)" stroke-linecap="round" stroke-linejoin="round" stroke-opacity="0.65987945" stroke-width="0.0"/>
    <path d="M 334.4802551269531 342.1668395996094 C 315.24530029296875 312.3714294433594 300.53662109375 327.8512268066406 296.7401123046875 323.3059997558594 C 272.6394958496094 324.18914794921875 287.2830810546875 326.2488708496094 269.9896545410156 314.5289001464844 C 269.9206848144531 310.0922546386719 269.540771484375 309.7257995605469 290.9158630371094 310.5289611816406 C 295.42608642578125 320.7098083496094 314.8516845703125 301.6845397949219 334.4802551269531 342.1668395996094" fill="rgb(6, 0, 0)" opacity="0.5392867" stroke="rgb(154, 254, 53)" stroke-linecap="round" stroke-linejoin="round" stroke-opacity="0.6987827" stroke-width="0.0"/>
    <path d="M 453.4983215332031 227.57009887695312 C 400.5884094238281 251.7248992919922 423.4037170410156 279.968505859375 398.4711608886719 271.14739990234375 C 392.04925537109375 237.21441650390625 387.20257568359375 232.7597198486328 367.0483093261719 237.2683868408203 C 397.1193542480469 235.96534729003906 368.010498046875 221.09939575195312 412.72039794921875 245.4322509765625 C 396.36541748046875 242.7606964111328 464.4343566894531 184.2298126220703 453.4983215332031 227.57009887695312" fill="rgb(16, 18, 32)" opacity="0.93055844" stroke="rgb(108, 140, 150)" stroke-linecap="round" stroke-linejoin="round" stroke-opacity="0.40409654" stroke-width="0.0"/>
    <path d="M 377.8587646484375 250.9497528076172 C 377.6676330566406 274.6153869628906 366.63623046875 281.1373596191406 363.8786315917969 263.55340576171875 C 355.6855773925781 262.4744567871094 355.24249267578125 250.5178985595703 338.8757629394531 237.4469757080078 C 324.4922790527344 227.557861328125 323.9383544921875 227.63800048828125 349.0130615234375 224.2855682373047 C 372.8154296875 247.2636260986328 364.7161865234375 251.55470275878906 377.8587646484375 250.9497528076172" fill="rgb(20, 22, 36)" opacity="1.0" stroke="rgb(211, 8, 221)" stroke-linecap="round" stroke-linejoin="round" stroke-opacity="0.2499952" stroke-width="0.0"/>
    <path d="M 304.075927734375 312.32537841796875 C 295.5420837402344 332.16400146484375 279.56463623046875 317.6660461425781 277.984619140625 324.5370788574219 C 239.2916259765625 322.44293212890625 262.3243408203125 328.9007873535156 242.54579162597656 326.2564697265625 C 255.56292724609375 317.0244445800781 248.52593994140625 311.3065490722656 256.3840026855469 308.6451416015625 C 281.1011047363281 309.4522705078125 290.7625732421875 313.0950622558594 304.075927734375 312.32537841796875" fill="rgb(20, 27, 51)" opacity="0.61856663" stroke="rgb(227, 188, 144)" stroke-linecap="round" stroke-linejoin="round" stroke-opacity="0.60087067" stroke-width="0.0"/>
    <path d="M 243.5851287841797 330.77288818359375 C 209.6401824951172 349.7078552246094 218.5398406982422 363.7420959472656 177.67152404785156 359.95233154296875 C 151.4357452392578 354.7069396972656 148.09950256347656 401.8211364746094 139.95266723632812 398.154296875 C 125.7741470336914 327.4777526855469 229.16087341308594 324.97747802734375 182.72279357910156 352.0772705078125 C 236.07723999023438 310.6568603515625 248.69830322265625 336.0749816894531 243.5851287841797 330.77288818359375" fill="rgb(23, 25, 36)" opacity="0.9892448" stroke="rgb(123, 33, 248)" stroke-linecap="round" stroke-linejoin="round" stroke-opacity="0.4331801" stroke-width="0.0"/>
    <path d="M 256.5169372558594 318.3401794433594 C 244.90602111816406 332.4778137207031 232.3482208251953 338.2446594238281 222.16001892089844 348.49859619140625 C 206.85235595703125 358.1311950683594 196.13348388671875 369.572998046875 192.3563690185547 335.6307678222656 C 219.02442932128906 337.3367614746094 227.98744201660156 318.88970947265625 244.64242553710938 312.1842956542969 C 256.35748291015625 307.0361633300781 246.7103271484375 305.5179443359375 256.5169372558594 318.3401794433594" fill="rgb(18, 23, 38)" opacity="0.76049846" stroke="rgb(8, 135, 201)" stroke-linecap="round" stroke-linejoin="round" stroke-opacity="0.93337214" stroke-width="0.0"/>
    <path d="M 357.9053039550781 516.1666870117188 C 367.1776123046875 553.1336669921875 346.9023742675781 543.0418090820312 327.851806640625 522.9224853515625 C 321.0389099121094 515.2451782226562 318.9916687011719 509.662109375 317.4535217285156 507.33782958984375 C 311.5326843261719 499.397216796875 301.7585754394531 477.4615783691406 314.3363952636719 486.49114990234375 C 325.3863525390625 505.8806457519531 338.27923583984375 513.0458374023438 357.9053039550781 516.1666870117188" fill="rgb(17, 16, 28)" opacity="0.9266228" stroke="rgb(31, 224, 10)" stroke-linecap="round" stroke-linejoin="round" stroke-opacity="0.46859333" stroke-width="0.0"/>
    <path d="M 326.1418762207031 500.8277893066406 C 309.7578125 473.4404296875 298.9761657714844 464.7347106933594 307.28302001953125 488.9913330078125 C 310.947998046875 489.6802978515625 302.1974792480469 491.67462158203125 310.5049743652344 491.79217529296875 C 305.3208923339844 493.2581481933594 297.56536865234375 467.55242919921875 306.6985778808594 472.13555908203125 C 310.7948303222656 468.37030029296875 314.64044189453125 490.84991455078125 326.1418762207031 500.8277893066406" fill="rgb(140, 125, 102)" opacity="0.5879584" stroke="rgb(84, 178, 19)" stroke-linecap="round" stroke-linejoin="round" stroke-opacity="0.5345854" stroke-width="0.0"/>
    <path d="M 467.5772705078125 471.3176574707031 C 468.863525390625 522.9260864257812 392.7489929199219 556.3035278320312 405.37432861328125 559.3258666992188 C 372.2911376953125 535.3638916015625 362.59521484375 545.7979736328125 357.8553161621094 515.3667602539062 C 390.22015380859375 520.4367065429688 426.2580871582031 514.685546875 373.09857177734375 518.7488403320312 C 451.5541076660156 513.8734130859375 437.96746826171875 509.33648681640625 467.5772705078125 471.3176574707031" fill="rgb(0, 0, 8)" opacity="0.81312716" stroke="rgb(15, 136, 27)" stroke-linecap="round" stroke-linejoin="round" stroke-opacity="0.91669506" stroke-width="0.0"/>
    <path d="M 224.7040557861328 264.7480773925781 C 222.24757385253906 259.1226501464844 197.0143585205078 289.9989929199219 184.20314025878906 265.9805603027344 C 190.77622985839844 255.36651611328125 184.79763793945312 254.89190673828125 185.20004272460938 197.5055694580078 C 210.28201293945312 147.02496337890625 194.4480438232422 189.2284698486328 200.842529296875 258.6361999511719 C 225.49526977539062 246.67088317871094 223.642822265625 247.85694885253906 224.7040557861328 264.7480773925781" fill="rgb(9, 11, 22)" opacity="0.9778994" stroke="rgb(81, 51, 114)" stroke-linecap="round" stroke-linejoin="round" stroke-opacity="0.7879493" stroke-width="0.0"/>
    <path d="M 344.5111389160156 221.4734344482422 C 354.73687744140625 228.49383544921875 345.5711364746094 242.10568237304688 327.77203369140625 230.462890625 C 320.5311584472656 227.62107849121094 320.61224365234375 225.99490356445312 317.32623291015625 221.29031372070312 C 318.66265869140625 210.32664489746094 327.38470458984375 213.34359741210938 328.6519470214844 214.5123748779297 C 320.9029846191406 208.75221252441406 331.31561279296875 213.14134216308594 344.5111389160156 221.4734344482422" fill="rgb(18, 19, 33)" opacity="0.9851532" stroke="rgb(136, 120, 145)" stroke-linecap="round" stroke-linejoin="round" stroke-opacity="0.7097418" stroke-width="0.0"/>
    <path d="M 302.5671691894531 317.7522888183594 C 300.2710876464844 335.6985168457031 312.042724609375 343.96771240234375 299.8780212402344 337.05609130859375 C 294.3005065917969 324.4196472167969 291.0274353027344 322.4441833496094 292.2706298828125 306.9989013671875 C 291.43634033203125 324.39727783203125 290.6044921875 314.5079650878906 289.8045349121094 319.78466796875 C 311.0287170410156 320.0429382324219 303.0311279296875 317.5877990722656 302.5671691894531 317.7522888183594" fill="rgb(13, 1, 0)" opacity="0.80822897" stroke="rgb(45, 99, 86)" stroke-linecap="round" stroke-linejoin="round" stroke-opacity="0.5942614" stroke-width="0.0"/>
    <path d="M 292.2181396484375 200.71987915039062 C 278.7419738769531 223.3275909423828 269.00421142578125 227.03208923339844 268.51641845703125 227.99122619628906 C 246.09498596191406 249.05140686035156 251.4658966064453 246.54576110839844 258.9222717285156 215.55911254882812 C 250.60850524902344 226.53189086914062 278.2928771972656 205.38475036621094 284.54034423828125 167.90821838378906 C 289.7754821777344 166.400146484375 302.0118103027344 167.71917724609375 292.2181396484375 200.71987915039062" fill="rgb(9, 11, 25)" opacity="0.9049559" stroke="rgb(191, 47, 179)" stroke-linecap="round" stroke-linejoin="round" stroke-opacity="0.1515939" stroke-width="0.0"/>
    <path d="M 286.294189453125 314.4768371582031 C 345.9221496582031 325.6576232910156 307.53277587890625 322.9434814453125 258.68896484375 323.65802001953125 C 241.564453125 329.2791442871094 235.9930419921875 335.3621520996094 230.56704711914062 341.5430603027344 C 217.78053283691406 329.3341369628906 226.2716522216797 322.5012512207031 250.83377075195312 310.3052062988281 C 293.4705810546875 306.93841552734375 258.7972412109375 315.1369934082031 286.294189453125 314.4768371582031" fill="rgb(15, 17, 30)" opacity="0.8310357" stroke="rgb(243, 244, 181)" stroke-linecap="round" stroke-linejoin="round" stroke-opacity="0.40238255" stroke-width="0.0"/>
    <path d="M 317.0026550292969 325.2628173828125 C 332.4169616699219 338.8135681152344 308.93743896484375 343.9237365722656 311.93017578125 342.6177062988281 C 302.9602966308594 343.3909912109375 305.2897033691406 336.2357482910156 300.99395751953125 334.41961669921875 C 316.6669616699219 340.3007507324219 316.640869140625 329.236083984375 316.5036315917969 330.4004821777344 C 318.67291259765625 330.75347900390625 299.45916748046875 311.3621826171875 317.0026550292969 325.2628173828125" fill="rgb(16, 5, 0)" opacity="0.9103224" stroke="rgb(95, 116, 198)" stroke-linecap="round" stroke-linejoin="round" stroke-opacity="0.10840876" stroke-width="0.0"/>
    <path d="M 379.49871826171875 254.2611083984375 C 375.4322204589844 272.363525390625 374.66448974609375 276.1640625 373.2949523925781 273.9532470703125 C 357.60687255859375 269.9145812988281 366.05828857421875 278.16864013671875 357.982177734375 260.3851318359375 C 353.8563232421875 262.7279052734375 362.2492980957031 238.5895233154297 388.9609680175781 231.99530029296875 C 387.4945983886719 249.872802734375 386.2099914550781 232.2298126220703 379.49871826171875 254.2611083984375" fill="rgb(18, 19, 33)" opacity="0.8618745" stroke="rgb(141, 25, 47)" stroke-linecap="round" stroke-linejoin="round" stroke-opacity="0.9692175" stroke-width="0.0"/>
    <path d="M 144.3498992919922 58.34326934814453 C 135.9994659423828 81.09718322753906 134.1549530029297 84.38938903808594 90.85134887695312 100.44287109375 C 89.58728790283203 93.87004089355469 92.81146240234375 88.35029602050781 95.56438446044922 50.87681579589844 C 96.83700561523438 43.321815490722656 97.72624969482422 40.25377655029297 118.97449493408203 39.98494338989258 C 138.69284057617188 43.88766860961914 142.34080505371094 44.95149612426758 144.3498992919922 58.34326934814453" fill="rgb(131, 168, 190)" opacity="0.97001004" stroke="rgb(35, 92, 127)" stroke-linecap="round" stroke-linejoin="round" stroke-opacity="0.0057576466" stroke-width="0.0"/>
    <path d="M 173.34573364257812 14.700296401977539 C 184.6837921142578 87.10404968261719 225.89231872558594 113.8956298828125 192.04556274414062 171.55279541015625 C 88.14900207519531 163.1033935546875 93.20084381103516 129.21340942382812 89.75700378417969 105.74085998535156 C 104.53282165527344 63.89391326904297 111.57819366455078 63.455078125 148.70054626464844 55.87406921386719 C 151.51678466796875 51.057254791259766 156.51576232910156 53.29629898071289 173.34573364257812 14.700296401977539" fill="rgb(96, 161, 197)" opacity="0.6068581" stroke="rgb(76, 201, 241)" stroke-linecap="round" stroke-linejoin="round" stroke-opacity="0.029965645" stroke-width="0.0"/>
    <path d="M 165.9375457763672 31.944610595703125 C 165.74253845214844 71.46085357666016 163.6512451171875 74.55319213867188 158.0735321044922 74.1515121459961 C 113.19093322753906 67.56038665771484 110.38011932373047 64.18524932861328 107.99443054199219 44.97820281982422 C 108.36410522460938 20.33069610595703 109.17267608642578 16.471752166748047 128.3398895263672 10.618922233581543 C 157.44264221191406 14.939866065979004 159.38417053222656 18.029123306274414 165.9375457763672 31.944610595703125" fill="rgb(131, 162, 178)" opacity="0.97451943" stroke="rgb(44, 221, 115)" stroke-linecap="round" stroke-linejoin="round" stroke-opacity="0.82130307" stroke-width="0.0"/>
    <path d="M 72.01327514648438 117.24838256835938 C 64.00273132324219 116.97866821289062 64.66175842285156 125.16104125976562 -6.9672627449035645 127.68730163574219 C -6.772202968597412 105.84554290771484 -9.929800987243652 102.61299133300781 -10.525212287902832 53.11783981323242 C -3.2723536491394043 40.25934600830078 0.17184120416641235 38.23435592651367 43.04866027832031 37.044490814208984 C 51.060638427734375 50.714473724365234 58.46442794799805 48.86893081665039 72.01327514648438 117.24838256835938" fill="rgb(125, 161, 180)" opacity="0.9719154" stroke="rgb(170, 47, 174)" stroke-linecap="round" stroke-linejoin="round" stroke-opacity="0.3312825" stroke-width="0.0"/>
    <path d="M 85.95503997802734 61.246578216552734 C 87.43490600585938 82.57281494140625 86.82978057861328 87.69871520996094 64.7170181274414 95.74847412109375 C 32.60928726196289 85.0921401977539 31.286657333374023 79.33521270751953 26.71122169494629 38.027618408203125 C 29.11229133605957 26.759986877441406 31.69622039794922 23.931934356689453 53.15304183959961 22.815425872802734 C 80.63906860351562 26.96938133239746 81.69622039794922 31.065183639526367 85.95503997802734 61.246578216552734" fill="rgb(127, 161, 175)" opacity="0.9958618" stroke="rgb(107, 230, 216)" stroke-linecap="round" stroke-linejoin="round" stroke-opacity="0.9971111" stroke-width="0.0"/>
    <path d="M 119.0234375 77.45587921142578 C 114.19175720214844 85.56842803955078 119.12085723876953 98.77774810791016 61.7541389465332 109.06610107421875 C 59.456790924072266 96.03311920166016 62.21432113647461 91.29878997802734 65.06421661376953 69.452392578125 C 74.61766815185547 42.12394714355469 76.73739624023438 40.201210021972656 111.27057647705078 38.24370574951172 C 116.57270812988281 38.5092658996582 117.96775817871094 40.527408599853516 119.0234375 77.45587921142578" fill="rgb(138, 173, 197)" opacity="0.9611086" stroke="rgb(173, 242, 188)" stroke-linecap="round" stroke-linejoin="round" stroke-opacity="0.301599" stroke-width="0.0"/>
    <path d="M 205.79518127441406 -12.549976348876953 C 196.81201171875 41.8357048034668 189.77476501464844 42.48047637939453 174.82119750976562 43.1334114074707 C 131.48411560058594 40.191429138183594 128.47055053710938 37.656978607177734 120.09313201904297 13.653677940368652 C 121.4677963256836 -15.709205627441406 128.2079620361328 -13.058913230895996 146.0002899169922 -11.651914596557617 C 181.9461212158203 -10.541143417358398 190.0722198486328 -12.121545791625977 205.79518127441406 -12.549976348876953" fill="rgb(126, 159, 173)" opacity="0.97955525" stroke="rgb(126, 252, 170)" stroke-linecap="round" stroke-linejoin="round" stroke-opacity="0.08763892" stroke-width="0.0"/>
    <path d="M 342.7590637207031 121.25982666015625 C 338.4592590332031 122.1678237915039 304.9970397949219 119.4162826538086 316.6505126953125 148.34097290039062 C 302.03753662109375 138.0651397705078 285.6315612792969 122.6706771850586 265.4507751464844 106.36250305175781 C 295.3387756347656 80.50685119628906 297.7854919433594 78.97972869873047 307.733642578125 74.95964050292969 C 344.78924560546875 90.36860656738281 341.63543701171875 100.59683227539062 342.7590637207031 121.25982666015625" fill="rgb(109, 159, 189)" opacity="0.7457333" stroke="rgb(35, 170, 72)" stroke-linecap="round" stroke-linejoin="round" stroke-opacity="0.12342508" stroke-width="0.0"/>
    <path d="M 132.76751708984375 37.97475051879883 C 128.74758911132812 57.683467864990234 126.99911499023438 59.828548431396484 107.40325927734375 59.874656677246094 C 86.10588836669922 56.6353645324707 85.38408660888672 53.51239013671875 78.4288558959961 3.8706536293029785 C 71.94377136230469 -4.19395112991333 72.9665756225586 -8.945952415466309 134.1215362548828 -10.043023109436035 C 138.25054931640625 4.582393169403076 137.54197692871094 8.171737670898438 132.76751708984375 37.97475051879883" fill="rgb(127, 159, 174)" opacity="0.9982606" stroke="rgb(14, 227, 54)" stroke-linecap="round" stroke-linejoin="round" stroke-opacity="0.89765835" stroke-width="0.0"/>
    <path d="M 772.75341796875 4.329083442687988 C 740.7232666015625 265.26104736328125 703.0307006835938 245.59323120117188 589.4698486328125 167.72325134277344 C 567.8473510742188 141.1956787109375 576.2791137695312 140.5393524169922 575.3816528320312 120.37261199951172 C 576.3975219726562 80.13554382324219 575.2063598632812 94.07969665527344 569.7100219726562 77.86862182617188 C 631.3850708007812 56.01349639892578 630.9315185546875 29.761842727661133 772.75341796875 4.329083442687988" fill="rgb(129, 161, 179)" opacity="1.0" stroke="rgb(171, 98, 179)" stroke-linecap="round" stroke-linejoin="round" stroke-opacity="0.57269055" stroke-width="0.0"/>
    <path d="M 89.80313110351562 -0.7219297885894775 C 84.81910705566406 37.856109619140625 79.54730987548828 39.232200622558594 73.1758804321289 43.413795471191406 C 32.419254302978516 40.87171173095703 34.17163848876953 33.85115051269531 34.15861511230469 13.890216827392578 C 34.47341537475586 -5.417515277862549 33.396427154541016 -7.626839637756348 44.2701416015625 -11.272398948669434 C 74.6176528930664 -10.991861343383789 78.61609649658203 -10.72948932647705 89.80313110351562 -0.7219297885894775" fill="rgb(127, 159, 179)" opacity="0.9443899" stroke="rgb(118, 221, 16)" stroke-linecap="round" stroke-linejoin="round" stroke-opacity="0.02642268" stroke-width="0.0"/>
    <path d="M 191.5865478515625 172.32550048828125 C 169.92308044433594 229.822509765625 213.0403289794922 228.00531005859375 141.12525939941406 179.73866271972656 C 71.05388641357422 155.70791625976562 58.97296142578125 161.07833862304688 39.95115280151367 104.23223876953125 C 54.32845687866211 102.18489074707031 54.08592224121094 94.94186401367188 100.40689086914062 94.10491943359375 C 120.13119506835938 106.78311157226562 126.87825775146484 106.84501647949219 191.5865478515625 172.32550048828125" fill="rgb(115, 159, 185)" opacity="0.7776363" stroke="rgb(127, 6, 127)" stroke-linecap="round" stroke-linejoin="round" stroke-opacity="0.80258566" stroke-width="0.0"/>
    <path d="M 47.56901550292969 48.344932556152344 C 48.43855285644531 54.18353271484375 46.69739532470703 57.70915222167969 -0.9917860627174377 59.3098258972168 C -7.003437042236328 55.250244140625 -7.87423038482666 51.94864273071289 -10.340729713439941 41.998111724853516 C -10.917789459228516 -2.6449975967407227 -9.637794494628906 -5.389298915863037 -6.059456825256348 -9.120723724365234 C 32.722347259521484 3.434870719909668 31.432735443115234 14.160265922546387 47.56901550292969 48.344932556152344" fill="rgb(140, 173, 187)" opacity="0.9448868" stroke="rgb(179, 153, 66)" stroke-linecap="round" stroke-linejoin="round" stroke-opacity="0.34446755" stroke-width="0.0"/>
    <path d="M 286.1988220214844 63.354034423828125 C 280.23724365234375 69.39395904541016 286.216552734375 79.14569091796875 261.99737548828125 102.772216796875 C 236.1338653564453 81.91870880126953 228.24713134765625 70.20574951171875 223.2196044921875 78.4115219116211 C 241.82882690429688 31.301733016967773 239.5670928955078 29.222320556640625 245.02902221679688 22.485868453979492 C 262.0912170410156 43.90531921386719 268.0746765136719 40.801429748535156 286.1988220214844 63.354034423828125" fill="rgb(119, 165, 191)" opacity="0.8029971" stroke="rgb(104, 16, 14)" stroke-linecap="round" stroke-linejoin="round" stroke-opacity="0.54599696" stroke-width="0.0"/>
    <path d="M 74.4030532836914 136.49179077148438 C 77.69109344482422 188.43801879882812 149.03248596191406 178.13861083984375 149.72879028320312 332.4742126464844 C -51.570556640625 330.03369140625 -10.134833335876465 246.6143798828125 -10.267789840698242 226.2604217529297 C -6.871828556060791 132.9247283935547 -4.423792362213135 131.64483642578125 -3.601926565170288 110.13785552978516 C 74.37739562988281 114.99220275878906 72.82135009765625 125.4106674194336 74.4030532836914 136.49179077148438" fill="rgb(131, 163, 181)" opacity="0.9851221" stroke="rgb(214, 58, 249)" stroke-linecap="round" stroke-linejoin="round" stroke-opacity="0.20857827" stroke-width="0.0"/>
    <path d="M 364.5720520019531 74.05431365966797 C 358.349365234375 73.39578247070312 362.0212097167969 81.9947280883789 326.8768615722656 85.22886657714844 C 301.07550048828125 73.80598449707031 299.9781799316406 69.1144790649414 299.3263854980469 53.103515625 C 303.7478942871094 19.0371036529541 309.5758056640625 19.694547653198242 352.2572021484375 18.108930587768555 C 362.1488342285156 11.565299987792969 363.6342468261719 11.401104927062988 364.5720520019531 74.05431365966797" fill="rgb(131, 166, 184)" opacity="0.9881989" stroke="rgb(11, 36, 91)" stroke-linecap="round" stroke-linejoin="round" stroke-opacity="0.32522842" stroke-width="0.0"/>
    <path d="M 588.1004028320312 219.0363311767578 C 592.82861328125 181.6967315673828 588.1748046875 206.0153350830078 584.7958374023438 269.4377136230469 C 559.6005859375 293.838134765625 580.997802734375 229.4114227294922 574.2933349609375 185.8607940673828 C 570.7846069335938 177.3751983642578 548.3543090820312 141.21432495117188 568.3672485351562 128.03794860839844 C 588.0396118164062 182.91311645507812 590.1673583984375 185.7183074951172 588.1004028320312 219.0363311767578" fill="rgb(11, 11, 23)" opacity="0.9647618" stroke="rgb(207, 0, 46)" stroke-linecap="round" stroke-linejoin="round" stroke-opacity="0.86578625" stroke-width="0.0"/>
    <path d="M 498.22662353515625 325.0440979003906 C 491.0920715332031 338.20654296875 463.4509582519531 356.2745361328125 437.2502746582031 355.5666809082031 C 437.052001953125 360.1484069824219 435.0859069824219 348.85369873046875 452.9450378417969 325.0420837402344 C 448.6890869140625 352.2160339355469 471.9542541503906 340.9295349121094 469.802978515625 341.17071533203125 C 490.4687805175781 321.12310791015625 465.4655456542969 325.63885498046875 498.22662353515625 325.0440979003906" fill="rgb(255, 252, 232)" opacity="0.97126245" stroke="rgb(31, 227, 168)" stroke-linecap="round" stroke-linejoin="round" stroke-opacity="0.21405563" stroke-width="0.0"/>
    <path d="M 440.8160095214844 67.79584503173828 C 379.9529724121094 76.93463897705078 404.0 106.74564361572266 358.3177490234375 105.03120422363281 C 337.5179443359375 84.71009063720703 337.8910827636719 82.01647186279297 340.2409973144531 16.098941802978516 C 345.1733703613281 21.23670768737793 344.46453857421875 16.100318908691406 363.8626403808594 27.99921417236328 C 391.19818115234375 57.66423416137695 413.8258056640625 -4.551877021789551 440.8160095214844 67.79584503173828" fill="rgb(131, 165, 183)" opacity="1.0" stroke="rgb(190, 207, 235)" stroke-linecap="round" stroke-linejoin="round" stroke-opacity="0.30967826" stroke-width="0.0"/>
    <path d="M 295.2817077636719 20.84339714050293 C 287.203369140625 59.032100677490234 284.83251953125 60.709442138671875 272.1330261230469 62.803287506103516 C 257.96295166015625 40.830753326416016 247.59573364257812 48.558067321777344 228.88121032714844 5.240154266357422 C 231.03140258789062 3.269988775253296 235.33331298828125 5.464144229888916 264.07537841796875 8.011576652526855 C 289.6391906738281 9.468937873840332 293.344482421875 10.838473320007324 295.2817077636719 20.84339714050293" fill="rgb(127, 163, 180)" opacity="0.9984636" stroke="rgb(180, 105, 18)" stroke-linecap="round" stroke-linejoin="round" stroke-opacity="0.4002946" stroke-width="0.0"/>
    <path d="M 370.60882568359375 132.69326782226562 C 359.0686340332031 133.50192260742188 357.84014892578125 132.6833953857422 353.247802734375 139.6908416748047 C 315.2801818847656 134.12875366210938 316.2067565917969 133.14317321777344 320.35723876953125 108.3252944946289 C 320.700439453125 94.19927215576172 317.5516662597656 88.7763900756836 314.3426513671875 83.89659118652344 C 345.4312744140625 100.53448486328125 346.9743957519531 103.67532348632812 370.60882568359375 132.69326782226562" fill="rgb(128, 161, 178)" opacity="0.60792345" stroke="rgb(57, 87, 58)" stroke-linecap="round" stroke-linejoin="round" stroke-opacity="0.9082379" stroke-width="0.0"/>
    <path d="M 366.50347900390625 93.67167663574219 C 361.78631591796875 121.99989318847656 359.2481384277344 123.81098175048828 358.1307678222656 122.80553436279297 C 341.05169677734375 112.72959899902344 340.1168212890625 110.01065063476562 306.2017822265625 72.05953979492188 C 311.3880310058594 66.95496368408203 313.73980712890625 64.73309326171875 368.4284973144531 67.00737762451172 C 371.26275634765625 77.98873138427734 369.2623596191406 81.92032623291016 366.50347900390625 93.67167663574219" fill="rgb(128, 162, 179)" opacity="0.86140084" stroke="rgb(144, 149, 240)" stroke-linecap="round" stroke-linejoin="round" stroke-opacity="0.17585889" stroke-width="0.0"/>
    <path d="M 105.9624252319336 40.30793762207031 C 106.54122161865234 59.32113265991211 104.41973876953125 60.78079605102539 69.87895965576172 65.1844253540039 C 62.70636749267578 64.48760986328125 60.93046951293945 61.51847457885742 56.953460693359375 28.414031982421875 C 57.364166259765625 15.640222549438477 59.80611801147461 12.604735374450684 72.85344696044922 6.020475387573242 C 105.8795394897461 10.642354965209961 105.06976318359375 18.186643600463867 105.9624252319336 40.30793762207031" fill="rgb(133, 162, 179)" opacity="0.9942201" stroke="rgb(143, 97, 125)" stroke-linecap="round" stroke-linejoin="round" stroke-opacity="0.9354964" stroke-width="0.0"/>
    <path d="M 323.5191650390625 47.192935943603516 C 328.16741943359375 87.52513122558594 327.7489929199219 90.5029296875 314.92218017578125 113.6180419921875 C 260.8531494140625 117.3238296508789 253.87571716308594 96.81248474121094 253.0093994140625 79.60139465332031 C 264.7373046875 32.233680725097656 266.7392883300781 29.199729919433594 295.71942138671875 17.840187072753906 C 318.1752624511719 19.114213943481445 319.58990478515625 22.895998001098633 323.5191650390625 47.192935943603516" fill="rgb(131, 167, 187)" opacity="0.99688244" stroke="rgb(188, 47, 35)" stroke-linecap="round" stroke-linejoin="round" stroke-opacity="0.5279633" stroke-width="0.0"/>
    <path d="M 383.124755859375 0.5796022415161133 C 354.0702819824219 31.8316707611084 344.6277770996094 35.68535614013672 302.8294982910156 40.35618591308594 C 297.64593505859375 44.751991271972656 291.5501708984375 45.8250732421875 289.4937438964844 -1.4087004661560059 C 298.0320739746094 -9.10062313079834 302.114501953125 -9.071575164794922 322.34466552734375 -8.020068168640137 C 353.7390441894531 -4.211350440979004 358.4659729003906 -4.562297821044922 383.124755859375 0.5796022415161133" fill="rgb(122, 157, 173)" opacity="0.43846244" stroke="rgb(252, 42, 116)" stroke-linecap="round" stroke-linejoin="round" stroke-opacity="0.7646735" stroke-width="0.0"/>
    <path d="M 309.84307861328125 33.183074951171875 C 299.446533203125 33.46038055419922 295.9661865234375 32.82259750366211 258.13201904296875 31.3701229095459 C 245.47842407226562 28.85795783996582 242.6082763671875 27.57448959350586 228.7293243408203 15.979985237121582 C 227.6272430419922 -27.27021026611328 233.39599609375 -21.908382415771484 276.4360656738281 -8.034111022949219 C 303.3157958984375 -24.00621223449707 308.0910949707031 -26.29718780517578 309.84307861328125 33.183074951171875" fill="rgb(123, 155, 174)" opacity="0.96185845" stroke="rgb(233, 199, 47)" stroke-linecap="round" stroke-linejoin="round" stroke-opacity="0.50088257" stroke-width="0.0"/>
    <path d="M 225.1166534423828 41.578147888183594 C 196.90682983398438 105.44288635253906 206.37730407714844 90.78044128417969 203.8974151611328 130.10723876953125 C 145.76693725585938 108.6688003540039 144.63819885253906 96.84864807128906 143.15284729003906 85.43376159667969 C 144.94744873046875 29.773279190063477 147.3090057373047 27.61395835876465 152.86895751953125 19.856388092041016 C 207.83245849609375 16.748891830444336 210.51730346679688 17.858684539794922 225.1166534423828 41.578147888183594" fill="rgb(124, 157, 175)" opacity="0.9714541" stroke="rgb(139, 106, 235)" stroke-linecap="round" stroke-linejoin="round" stroke-opacity="0.15520592" stroke-width="0.0"/>
    <path d="M 54.328948974609375 12.644704818725586 C 55.5030403137207 32.77825164794922 56.24589538574219 37.57962417602539 58.18208694458008 41.564456939697266 C 27.58739471435547 26.630298614501953 26.718549728393555 22.541015625 9.940041542053223 -7.41269063949585 C 12.275577545166016 -9.210115432739258 15.25918197631836 -10.285446166992188 29.766780853271484 -10.712401390075684 C 54.909969329833984 -8.61979866027832 54.513671875 -4.0909552574157715 54.328948974609375 12.644704818725586" fill="rgb(125, 165, 185)" opacity="1.0" stroke="rgb(50, 97, 63)" stroke-linecap="round" stroke-linejoin="round" stroke-opacity="0.2660413" stroke-width="0.0"/>
    <path d="M 454.68011474609375 327.7713317871094 C 451.6595458984375 325.874755859375 445.4301452636719 334.054443359375 439.777587890625 345.2296142578125 C 431.5179748535156 352.44464111328125 447.4267578125 344.455322265625 429.75341796875 345.53973388671875 C 446.93817138671875 321.508056640625 437.9118347167969 328.3711853027344 455.8214416503906 316.8142395019531 C 481.7064208984375 309.08978271484375 444.533935546875 320.33245849609375 454.68011474609375 327.7713317871094" fill="rgb(42, 46, 62)" opacity="1.0" stroke="rgb(43, 4, 145)" stroke-linecap="round" stroke-linejoin="round" stroke-opacity="0.6624869" stroke-width="0.0"/>
    <path d="M 251.28042602539062 57.965919494628906 C 252.43714904785156 108.81037902832031 230.66629028320312 58.358604431152344 207.6352081298828 86.5938491821289 C 200.10882568359375 103.94032287597656 207.55392456054688 78.27263641357422 193.47242736816406 -0.8572902083396912 C 195.52182006835938 4.458662986755371 195.37937927246094 0.5140495896339417 215.43724060058594 -8.481313705444336 C 261.7670593261719 5.676455974578857 258.8370361328125 17.351715087890625 251.28042602539062 57.965919494628906" fill="rgb(126, 159, 179)" opacity="0.92573047" stroke="rgb(113, 40, 63)" stroke-linecap="round" stroke-linejoin="round" stroke-opacity="0.9680284" stroke-width="0.0"/>
    <path d="M 185.80422973632812 261.50921630859375 C 128.96456909179688 241.9460906982422 105.9809799194336 231.46865844726562 33.57274627685547 206.0111846923828 C 56.726463317871094 186.56808471679688 54.24571228027344 184.98092651367188 51.48160171508789 167.5276641845703 C 50.13333511352539 126.83973693847656 52.602413177490234 126.54568481445312 60.789222717285156 132.42462158203125 C 123.30860900878906 135.22979736328125 182.24746704101562 91.78494262695312 185.80422973632812 261.50921630859375" fill="rgb(129, 162, 181)" opacity="0.7164944" stroke="rgb(115, 25, 97)" stroke-linecap="round" stroke-linejoin="round" stroke-opacity="0.020845683" stroke-width="0.0"/>
    <path d="M 53.22783660888672 35.72614288330078 C 55.462886810302734 42.11499786376953 53.91377639770508 44.68685531616211 50.62742614746094 48.123294830322266 C 17.20048713684082 38.73136901855469 18.339147567749023 29.244359970092773 0.7748919725418091 -2.0487306118011475 C 0.44341957569122314 -6.757435321807861 2.7367568016052246 -8.810503005981445 8.221616744995117 -9.638466835021973 C 39.280029296875 2.6586968898773193 39.34178161621094 9.851422309875488 53.22783660888672 35.72614288330078" fill="rgb(134, 157, 171)" opacity="1.0" stroke="rgb(131, 122, 21)" stroke-linecap="round" stroke-linejoin="round" stroke-opacity="0.47361058" stroke-width="0.0"/>
    <path d="M 415.71484375 450.3957214355469 C 416.1901550292969 457.0817565917969 407.2713928222656 466.53924560546875 406.4950866699219 462.9324951171875 C 394.20343017578125 458.4596252441406 371.8695983886719 454.7201232910156 362.4393310546875 461.197509765625 C 375.00946044921875 431.4678649902344 389.8702697753906 445.75238037109375 404.9075927734375 438.4781799316406 C 406.6120910644531 445.164306640625 412.88946533203125 442.4287109375 415.71484375 450.3957214355469" fill="rgb(57, 72, 88)" opacity="0.8234676" stroke="rgb(99, 237, 96)" stroke-linecap="round" stroke-linejoin="round" stroke-opacity="0.5104792" stroke-width="0.0"/>
    <path d="M 631.721923828125 373.33941650390625 C 634.4221801757812 391.3923645019531 631.3388671875 403.375732421875 630.3092041015625 401.4861755371094 C 627.301513671875 393.26776123046875 622.5512084960938 390.96343994140625 617.4612426757812 369.1032409667969 C 610.1624145507812 360.3700256347656 615.3639526367188 364.76055908203125 622.1439819335938 350.78973388671875 C 624.7151489257812 358.3814392089844 627.0322875976562 354.59857177734375 631.721923828125 373.33941650390625" fill="rgb(9, 3, 7)" opacity="0.53467405" stroke="rgb(36, 211, 112)" stroke-linecap="round" stroke-linejoin="round" stroke-opacity="0.2889571" stroke-width="0.0"/>
    <path d="M 421.9795837402344 426.9060363769531 C 423.467041015625 452.19451904296875 411.29522705078125 452.3748779296875 405.3500061035156 463.9752502441406 C 406.8094177246094 443.6967468261719 399.454833984375 447.2933349609375 384.1017150878906 420.9449768066406 C 371.87322998046875 386.814697265625 369.2898864746094 385.7976379394531 416.6596374511719 390.9698181152344 C 422.8303527832031 427.0575256347656 419.5324401855469 427.95074462890625 421.9795837402344 426.9060363769531" fill="rgb(73, 81, 95)" opacity="0.8162135" stroke="rgb(246, 26, 99)" stroke-linecap="round" stroke-linejoin="round" stroke-opacity="0.6435409" stroke-width="0.0"/>
    <path d="M 632.2785034179688 383.70440673828125 C 632.0003662109375 423.98681640625 625.3612670898438 375.64385986328125 612.6336059570312 366.79144287109375 C 608.7247924804688 359.3654479980469 601.5028686523438 360.5130615234375 608.4310302734375 359.8915100097656 C 610.4500732421875 360.20416259765625 617.6768188476562 352.431396484375 611.3624267578125 360.15826416015625 C 622.137939453125 350.1034851074219 629.7418212890625 354.4333190917969 632.2785034179688 383.70440673828125" fill="rgb(10, 11, 23)" opacity="0.84188324" stroke="rgb(177, 224, 8)" stroke-linecap="round" stroke-linejoin="round" stroke-opacity="0.42296922" stroke-width="0.0"/>
    <path d="M 294.8515930175781 570.1974487304688 C 313.9822692871094 566.8732299804688 306.2153015136719 584.983154296875 296.6461181640625 578.2221069335938 C 292.6168212890625 569.2061767578125 291.62835693359375 557.1318359375 293.7863464355469 571.6852416992188 C 292.63397216796875 559.69189453125 288.9029235839844 554.177490234375 293.4142761230469 547.4694213867188 C 307.9315490722656 556.221923828125 309.1828918457031 556.0860595703125 294.8515930175781 570.1974487304688" fill="rgb(82, 76, 79)" opacity="0.5409885" stroke="rgb(34, 49, 81)" stroke-linecap="round" stroke-linejoin="round" stroke-opacity="0.37522164" stroke-width="0.0"/>
    <path d="M 634.6243286132812 360.04931640625 C 634.043212890625 384.53057861328125 633.5576782226562 378.01690673828125 630.6024780273438 365.4801025390625 C 625.2194213867188 351.5686340332031 624.7988891601562 352.16845703125 627.1066284179688 355.27801513671875 C 626.9901733398438 362.32452392578125 628.5408935546875 348.2485656738281 611.69189453125 314.046142578125 C 627.4684448242188 341.71722412109375 636.0638427734375 365.687255859375 634.6243286132812 360.04931640625" fill="rgb(136, 163, 179)" opacity="0.9247526" stroke="rgb(126, 236, 50)" stroke-linecap="round" stroke-linejoin="round" stroke-opacity="0.82953024" stroke-width="0.0"/>
    <path d="M 420.77154541015625 454.3138122558594 C 414.02978515625 461.8490905761719 410.4881896972656 461.6264343261719 407.7366638183594 454.4991455078125 C 393.9401550292969 449.77191162109375 392.2551574707031 450.1750183105469 375.3472595214844 440.1618347167969 C 375.47198486328125 424.1019287109375 376.93463134765625 426.0088195800781 409.7806091308594 429.48779296875 C 437.2235412597656 446.6782531738281 412.3258056640625 426.2581481933594 420.77154541015625 454.3138122558594" fill="rgb(58, 70, 85)" opacity="0.48870078" stroke="rgb(60, 82, 52)" stroke-linecap="round" stroke-linejoin="round" stroke-opacity="0.6700916" stroke-width="0.0"/>
    <path d="M 300.70880126953125 577.7371826171875 C 300.92999267578125 585.82373046875 305.2423400878906 591.9722290039062 296.5273742675781 568.4034423828125 C 300.99578857421875 568.3357543945312 301.2642822265625 564.7173461914062 302.0483093261719 566.6041870117188 C 296.5710754394531 572.1221923828125 298.55633544921875 568.21533203125 295.2520751953125 556.8504028320312 C 302.62591552734375 559.325439453125 291.99810791015625 557.9928588867188 300.70880126953125 577.7371826171875" fill="rgb(80, 84, 94)" opacity="0.9690904" stroke="rgb(123, 235, 57)" stroke-linecap="round" stroke-linejoin="round" stroke-opacity="0.48806152" stroke-width="0.0"/>
    <path d="M 626.291015625 330.0207214355469 C 608.9560546875 313.5720520019531 599.19482421875 284.63153076171875 585.7314453125 259.3187255859375 C 585.6231689453125 251.10238647460938 585.3517456054688 250.33682250976562 588.5305786132812 240.63214111328125 C 583.8618774414062 266.27813720703125 585.7736206054688 258.7793884277344 588.4876708984375 240.14279174804688 C 657.823486328125 210.07704162597656 669.8658447265625 259.0089416503906 626.291015625 330.0207214355469" fill="rgb(132, 164, 182)" opacity="0.8704317" stroke="rgb(78, 253, 81)" stroke-linecap="round" stroke-linejoin="round" stroke-opacity="0.5309839" stroke-width="0.0"/>
    <path d="M 559.0745239257812 118.48262023925781 C 555.2431640625 117.07544708251953 556.7307739257812 110.39045715332031 556.2543334960938 154.82122802734375 C 531.8652954101562 149.4915313720703 533.1614990234375 143.69834899902344 536.7628173828125 114.84310913085938 C 544.20703125 98.99011993408203 531.0236206054688 116.7552719116211 558.5 117.74384307861328 C 555.6346435546875 110.83219909667969 561.5667724609375 190.3125457763672 559.0745239257812 118.48262023925781" fill="rgb(105, 64, 57)" opacity="0.5138356" stroke="rgb(215, 110, 197)" stroke-linecap="round" stroke-linejoin="round" stroke-opacity="0.8425649" stroke-width="0.0"/>
    <path d="M 554.1056518554688 129.00796508789062 C 553.420654296875 147.02882385253906 561.9268798828125 151.47079467773438 547.9793090820312 151.24363708496094 C 522.382080078125 140.8334197998047 520.5965576171875 133.92550659179688 518.6546020507812 128.09896850585938 C 527.119384765625 116.5675277709961 532.948486328125 121.91392517089844 531.318359375 118.70723724365234 C 540.3985595703125 106.09085083007812 538.7996826171875 125.17393493652344 554.1056518554688 129.00796508789062" fill="rgb(209, 172, 166)" opacity="1.0" stroke="rgb(239, 54, 216)" stroke-linecap="round" stroke-linejoin="round" stroke-opacity="0.637288" stroke-width="0.0"/>
    <path d="M 541.3154907226562 136.6448211669922 C 532.7665405273438 161.81944274902344 531.5867309570312 164.6340789794922 512.1268920898438 166.82421875 C 502.572998046875 164.83587646484375 499.5171813964844 157.64071655273438 513.6280517578125 136.8878173828125 C 506.6381530761719 139.669921875 508.745361328125 138.1431884765625 524.0040893554688 130.38095092773438 C 536.6158447265625 128.6576690673828 540.40478515625 129.2056884765625 541.3154907226562 136.6448211669922" fill="rgb(178, 144, 148)" opacity="0.9822104" stroke="rgb(147, 180, 74)" stroke-linecap="round" stroke-linejoin="round" stroke-opacity="0.17530707" stroke-width="0.0"/>
    <path d="M 518.8010864257812 158.30992126464844 C 524.09716796875 170.78651428222656 523.3201904296875 173.00637817382812 508.4317626953125 176.4046173095703 C 496.99627685546875 172.02481079101562 495.7111511230469 168.58242797851562 500.10748291015625 150.74708557128906 C 500.9591064453125 153.9998321533203 498.619140625 138.4600372314453 516.6525268554688 132.32492065429688 C 514.594482421875 134.5509796142578 519.33935546875 136.77606201171875 518.8010864257812 158.30992126464844" fill="rgb(193, 140, 122)" opacity="0.8409887" stroke="rgb(140, 18, 15)" stroke-linecap="round" stroke-linejoin="round" stroke-opacity="0.24111556" stroke-width="0.0"/>
    <path d="M 415.5610046386719 467.94561767578125 C 412.8830261230469 464.8462219238281 404.54083251953125 458.3392639160156 372.0703125 455.8976745605469 C 388.13104248046875 456.4685363769531 381.1380920410156 457.0637512207031 354.26531982421875 463.585693359375 C 337.7381286621094 448.4295959472656 340.9595947265625 389.3426818847656 375.83563232421875 392.7132568359375 C 383.9381408691406 438.3682861328125 399.6084899902344 448.2494812011719 415.5610046386719 467.94561767578125" fill="rgb(69, 78, 93)" opacity="0.7347643" stroke="rgb(147, 228, 8)" stroke-linecap="round" stroke-linejoin="round" stroke-opacity="0.11126726" stroke-width="0.0"/>
    <path d="M 553.8687744140625 111.19570922851562 C 559.814697265625 116.7016830444336 553.0835571289062 113.5948715209961 554.4397583007812 128.60337829589844 C 531.2021484375 118.74661254882812 523.2256469726562 114.58346557617188 537.9025268554688 110.37741088867188 C 538.376708984375 107.00385284423828 547.643310546875 109.67807006835938 532.5081787109375 111.970703125 C 538.9757690429688 106.21544647216797 549.041259765625 103.45555114746094 553.8687744140625 111.19570922851562" fill="rgb(207, 164, 152)" opacity="1.0" stroke="rgb(71, 16, 115)" stroke-linecap="round" stroke-linejoin="round" stroke-opacity="0.48866823" stroke-width="0.0"/>
    <path d="M 542.947021484375 142.02903747558594 C 544.6444091796875 150.6374053955078 542.423583984375 150.3240966796875 519.8692626953125 151.0405731201172 C 498.0401916503906 139.81326293945312 501.33465576171875 146.88177490234375 506.10577392578125 137.12490844726562 C 515.9735107421875 125.18401336669922 521.7150268554688 119.54093170166016 524.0901489257812 120.00791931152344 C 534.3273315429688 109.58328247070312 525.7064819335938 115.6944808959961 542.947021484375 142.02903747558594" fill="rgb(201, 148, 132)" opacity="0.7725582" stroke="rgb(112, 217, 81)" stroke-linecap="round" stroke-linejoin="round" stroke-opacity="0.25618333" stroke-width="0.0"/>
    <path d="M 550.4179077148438 175.20347595214844 C 555.6096801757812 177.56871032714844 547.4680786132812 166.7315673828125 523.884765625 184.92398071289062 C 506.0107421875 178.07327270507812 504.6417541503906 180.9243621826172 503.9762268066406 168.8852081298828 C 512.0388793945312 143.38937377929688 516.697998046875 144.56674194335938 533.6205444335938 133.59896850585938 C 552.661376953125 129.8971405029297 554.2447509765625 131.5816650390625 550.4179077148438 175.20347595214844" fill="rgb(205, 156, 134)" opacity="0.8958178" stroke="rgb(3, 72, 60)" stroke-linecap="round" stroke-linejoin="round" stroke-opacity="0.43958035" stroke-width="0.0"/>
    <path d="M 307.38140869140625 559.3096313476562 C 302.4375305175781 573.4471435546875 317.6014404296875 558.078369140625 301.8799133300781 574.2598266601562 C 302.7452087402344 557.4767456054688 299.4782409667969 561.7685546875 293.74786376953125 556.8847045898438 C 289.6180114746094 546.332763671875 298.2018127441406 535.8978271484375 300.4173583984375 541.291015625 C 313.2093505859375 546.881591796875 299.73492431640625 543.685791015625 307.38140869140625 559.3096313476562" fill="rgb(70, 79, 90)" opacity="0.5479678" stroke="rgb(159, 19, 118)" stroke-linecap="round" stroke-linejoin="round" stroke-opacity="0.98827285" stroke-width="0.0"/>
    <path d="M 311.8670654296875 568.2835693359375 C 306.2580261230469 569.0806884765625 304.0897216796875 579.0357055664062 306.1586608886719 595.7990112304688 C 299.7043151855469 595.5506591796875 293.6573486328125 566.7763671875 292.0542907714844 554.6683959960938 C 300.2789001464844 562.4152221679688 288.8406677246094 573.6254272460938 304.7088623046875 553.1256103515625 C 315.1011047363281 565.9794921875 307.6047668457031 562.0020141601562 311.8670654296875 568.2835693359375" fill="rgb(65, 64, 69)" opacity="0.69716054" stroke="rgb(80, 68, 177)" stroke-linecap="round" stroke-linejoin="round" stroke-opacity="0.97336996" stroke-width="0.0"/>
    <path d="M 316.4566345214844 331.2145690917969 C 315.53900146484375 333.30572509765625 313.6722717285156 336.01312255859375 310.3318786621094 335.68719482421875 C 302.6931457519531 338.071044921875 304.16107177734375 332.0105285644531 302.7284851074219 329.3328552246094 C 301.7964172363281 321.6908264160156 301.4978942871094 324.35797119140625 304.9036560058594 323.4635314941406 C 315.2677001953125 322.4567565917969 316.83587646484375 325.1268005371094 316.4566345214844 331.2145690917969" fill="rgb(254, 196, 0)" opacity="0.9388735" stroke="rgb(224, 58, 17)" stroke-linecap="round" stroke-linejoin="round" stroke-opacity="0.22130553" stroke-width="0.0"/>
    <path d="M 537.1923828125 170.8727569580078 C 530.025146484375 184.9011688232422 518.3873291015625 187.2484893798828 506.5538330078125 202.79432678222656 C 496.008544921875 185.03564453125 493.61297607421875 172.04946899414062 497.5467529296875 182.8732452392578 C 497.0236511230469 154.1173095703125 499.88873291015625 180.2464141845703 500.74493408203125 171.32676696777344 C 519.1284790039062 179.70787048339844 524.0635986328125 162.78163146972656 537.1923828125 170.8727569580078" fill="rgb(189, 149, 133)" opacity="0.93407637" stroke="rgb(251, 251, 188)" stroke-linecap="round" stroke-linejoin="round" stroke-opacity="0.3272676" stroke-width="0.0"/>
    <path d="M 221.3998260498047 177.22012329101562 C 220.04151916503906 184.69749450683594 231.20225524902344 210.0825653076172 248.4935302734375 229.63412475585938 C 221.6382293701172 222.15505981445312 215.67327880859375 172.81039428710938 217.822509765625 185.58692932128906 C 216.6772003173828 182.46524047851562 216.90771484375 157.96778869628906 218.79454040527344 172.25511169433594 C 224.10545349121094 186.77493286132812 221.20712280273438 198.74818420410156 221.3998260498047 177.22012329101562" fill="rgb(60, 63, 74)" opacity="0.9308832" stroke="rgb(77, 42, 174)" stroke-linecap="round" stroke-linejoin="round" stroke-opacity="0.9982881" stroke-width="0.0"/>
    <path d="M 322.72259521484375 568.9794921875 C 322.68145751953125 572.92431640625 318.11376953125 563.693115234375 307.737548828125 569.9541625976562 C 283.9472351074219 558.3250732421875 314.0943908691406 567.6819458007812 291.01727294921875 553.2984619140625 C 288.1442565917969 530.83740234375 285.0910949707031 522.1736450195312 314.19775390625 531.3123779296875 C 299.5576171875 543.5444946289062 302.3776550292969 553.8037109375 322.72259521484375 568.9794921875" fill="rgb(97, 103, 114)" opacity="0.78580767" stroke="rgb(9, 66, 140)" stroke-linecap="round" stroke-linejoin="round" stroke-opacity="0.49454793" stroke-width="0.0"/>
    <path d="M 383.5726318359375 598.1788940429688 C 385.4260559082031 608.3545532226562 387.8077392578125 645.253662109375 379.0122375488281 619.7305908203125 C 374.6365051269531 613.79833984375 374.4491882324219 609.2781982421875 368.1612548828125 600.1369018554688 C 367.1803283691406 596.0904541015625 351.008544921875 586.2306518554688 376.1524963378906 600.1512451171875 C 373.3018493652344 598.6810913085938 393.8336181640625 595.7736206054688 383.5726318359375 598.1788940429688" fill="rgb(92, 74, 65)" opacity="0.60628307" stroke="rgb(250, 114, 203)" stroke-linecap="round" stroke-linejoin="round" stroke-opacity="0.38310388" stroke-width="0.0"/>
    <path d="M 400.6939392089844 603.496337890625 C 391.91009521484375 614.0093994140625 386.2875061035156 633.5919189453125 384.9292907714844 636.5978393554688 C 375.8087158203125 615.4486694335938 373.6380920410156 605.0570068359375 373.7215881347656 607.4804077148438 C 370.30242919921875 600.42431640625 362.4070739746094 595.1924438476562 399.4974670410156 575.856201171875 C 419.9623107910156 581.66064453125 405.7745666503906 588.9270629882812 400.6939392089844 603.496337890625" fill="rgb(94, 100, 113)" opacity="0.77848065" stroke="rgb(208, 248, 249)" stroke-linecap="round" stroke-linejoin="round" stroke-opacity="0.43272856" stroke-width="0.0"/>
    <path d="M 544.0447387695312 126.20208740234375 C 553.5695190429688 129.70455932617188 550.2412109375 128.98382568359375 547.4278564453125 132.78196716308594 C 540.8356323242188 120.8784408569336 526.8320922851562 126.06706237792969 522.7142944335938 119.87116241455078 C 528.4909057617188 115.85824584960938 534.5526123046875 107.0288314819336 542.0875854492188 106.3738021850586 C 557.0062866210938 112.41631317138672 548.1583251953125 111.6463851928711 544.0447387695312 126.20208740234375" fill="rgb(203, 151, 138)" opacity="0.64475083" stroke="rgb(78, 72, 114)" stroke-linecap="round" stroke-linejoin="round" stroke-opacity="0.7839405" stroke-width="0.0"/>
    <path d="M 557.0537109375 143.24871826171875 C 563.634765625 195.24436950683594 543.9094848632812 209.58045959472656 544.934814453125 163.4103546142578 C 522.459716796875 187.93394470214844 514.5022583007812 182.86048889160156 525.412353515625 163.74969482421875 C 526.9766845703125 143.2968292236328 527.9374389648438 143.10365295410156 536.6781005859375 130.83848571777344 C 564.848876953125 139.054931640625 553.9009399414062 143.0843048095703 557.0537109375 143.24871826171875" fill="rgb(190, 153, 144)" opacity="1.0" stroke="rgb(6, 49, 53)" stroke-linecap="round" stroke-linejoin="round" stroke-opacity="0.24831946" stroke-width="0.0"/>
    <path d="M 554.56103515625 190.13690185546875 C 556.0823364257812 172.67794799804688 560.030517578125 187.16299438476562 536.5128173828125 227.89942932128906 C 524.4697265625 220.863525390625 551.3056030273438 187.8369140625 544.6077270507812 178.260498046875 C 547.516357421875 190.06134033203125 552.7764892578125 190.16268920898438 554.4334106445312 169.2931365966797 C 554.552490234375 185.03956604003906 545.785888671875 193.87100219726562 554.56103515625 190.13690185546875" fill="rgb(80, 69, 73)" opacity="0.8862679" stroke="rgb(163, 68, 78)" stroke-linecap="round" stroke-linejoin="round" stroke-opacity="0.19207609" stroke-width="0.0"/>
    <path d="M 522.9590454101562 170.81741333007812 C 523.48095703125 195.76841735839844 515.1114501953125 199.19757080078125 523.6337280273438 157.91815185546875 C 500.9083251953125 180.15243530273438 497.3576354980469 197.61448669433594 497.27911376953125 172.24684143066406 C 495.8182678222656 159.16925048828125 498.80963134765625 152.47410583496094 518.1917114257812 150.8068084716797 C 520.0059204101562 156.76536560058594 522.97119140625 154.42129516601562 522.9590454101562 170.81741333007812" fill="rgb(186, 147, 125)" opacity="0.51782537" stroke="rgb(209, 64, 53)" stroke-linecap="round" stroke-linejoin="round" stroke-opacity="0.5980995" stroke-width="0.0"/>
    <path d="M 220.64295959472656 195.77748107910156 C 220.1666717529297 166.02381896972656 217.00294494628906 192.43060302734375 219.86402893066406 190.28797912597656 C 216.1907501220703 183.7628936767578 223.8607635498047 181.6715087890625 225.9990692138672 210.0614471435547 C 218.39219665527344 194.5790252685547 211.06568908691406 175.5565185546875 220.6549835205078 158.181396484375 C 215.45289611816406 173.852294921875 225.59521484375 181.1277618408203 220.64295959472656 195.77748107910156" fill="rgb(54, 39, 46)" opacity="0.38919353" stroke="rgb(13, 84, 34)" stroke-linecap="round" stroke-linejoin="round" stroke-opacity="0.59428614" stroke-width="0.0"/>
    <path d="M 467.6512451171875 474.7881774902344 C 465.9458312988281 484.33013916015625 470.1009521484375 480.4473571777344 459.58709716796875 481.7115173339844 C 452.8857727050781 492.81396484375 450.7532043457031 496.5282287597656 462.04937744140625 474.3264465332031 C 459.9349365234375 471.6321716308594 469.98248291015625 470.0780334472656 468.6494445800781 473.8174743652344 C 470.2765197753906 477.1800231933594 466.99908447265625 474.83990478515625 467.6512451171875 474.7881774902344" fill="rgb(85, 78, 75)" opacity="0.80788356" stroke="rgb(93, 112, 224)" stroke-linecap="round" stroke-linejoin="round" stroke-opacity="0.47425488" stroke-width="0.0"/>
    <path d="M 305.728271484375 590.5416259765625 C 310.4507141113281 609.4556884765625 306.35205078125 602.065185546875 298.4398193359375 581.608154296875 C 300.28411865234375 572.6517944335938 301.7491760253906 568.6007690429688 300.4491882324219 569.295166015625 C 301.4308166503906 586.627685546875 296.0926513671875 582.9561767578125 299.11474609375 576.75927734375 C 311.6734924316406 589.8736572265625 300.8773193359375 561.3529663085938 305.728271484375 590.5416259765625" fill="rgb(41, 36, 42)" opacity="0.91369164" stroke="rgb(214, 26, 98)" stroke-linecap="round" stroke-linejoin="round" stroke-opacity="0.3074711" stroke-width="0.0"/>
    <path d="M 781.2869873046875 590.6937866210938 C 772.3770141601562 575.9658203125 781.2749633789062 590.2123413085938 764.6769409179688 620.800048828125 C 720.6209716796875 572.6536865234375 717.0914306640625 569.2981567382812 695.14990234375 560.4447631835938 C 813.4672241210938 558.8898315429688 678.1041870117188 480.1889953613281 766.1839599609375 452.2606201171875 C 782.5525512695312 506.7481994628906 780.4620971679688 512.3781127929688 781.2869873046875 590.6937866210938" fill="rgb(127, 160, 177)" opacity="1.0" stroke="rgb(232, 135, 40)" stroke-linecap="round" stroke-linejoin="round" stroke-opacity="0.90507305" stroke-width="0.0"/>
  </g>
</svg>
