<?xml version="1.0" ?>
<svg height="768" version="1.1" width="768" xmlns="http://www.w3.org/2000/svg">
  <defs/>
  <g>
    <path d="M 292.80352783203125 -260.59039306640625 C 501.18096923828125 -172.4067840576172 615.2704467773438 -165.31341552734375 636.3126831054688 552.2149658203125 C -319.59747314453125 558.07568359375 -156.0272674560547 531.1840209960938 -20.629121780395508 465.525390625 C -14.196369171142578 -27.16664695739746 -12.289041519165039 -21.1759090423584 36.96824264526367 -13.417956352233887 C 129.75143432617188 -22.807964324951172 156.078369140625 -55.87980270385742 292.80352783203125 -260.59039306640625" fill="rgb(49, 51, 64)" opacity="0.99921894" stroke="rgb(4, 162, 113)" stroke-linecap="round" stroke-linejoin="round" stroke-opacity="0.15738411" stroke-width="0.0"/>
    <path d="M 438.8843994140625 446.13592529296875 C 430.1646728515625 579.3823852539062 373.7965393066406 566.7277221679688 355.2323303222656 548.3583984375 C 340.0214538574219 536.1161499023438 345.7271728515625 437.978515625 343.538330078125 460.3067321777344 C 409.2740173339844 462.9044189453125 341.896728515625 341.1201477050781 431.5479736328125 327.9888916015625 C 434.7275390625 375.3464050292969 428.7073059082031 376.98602294921875 438.8843994140625 446.13592529296875" fill="rgb(252, 253, 253)" opacity="0.9701966" stroke="rgb(0, 105, 14)" stroke-linecap="round" stroke-linejoin="round" stroke-opacity="0.703737" stroke-width="0.0"/>
    <path d="M 767.3676147460938 687.7803955078125 C 642.5687866210938 666.3038940429688 582.4086303710938 637.9762573242188 414.98858642578125 586.9503784179688 C 508.5556335449219 72.15632629394531 514.76953125 -37.74709701538086 552.2213134765625 -34.81905746459961 C 724.7301635742188 -16.882572174072266 745.5869140625 -14.677336692810059 843.770751953125 8.693227767944336 C 781.6428833007812 89.89127349853516 782.8822631835938 95.849365234375 767.3676147460938 687.7803955078125" fill="rgb(133, 151, 171)" opacity="0.95466393" stroke="rgb(12, 19, 111)" stroke-linecap="round" stroke-linejoin="round" stroke-opacity="0.39392042" stroke-width="0.0"/>
    <path d="M 398.47222900390625 555.4462890625 C 456.59039306640625 477.4180908203125 618.738037109375 391.9797058105469 761.3826293945312 767.5606079101562 C 217.7710418701172 788.5616455078125 151.52085876464844 786.6477661132812 -6.333161354064941 785.8280029296875 C -11.136693000793457 521.2091064453125 -50.48599624633789 400.17822265625 6.502274990081787 52.241111755371094 C 754.4900512695312 87.74224090576172 -1.246244192123413 566.2951049804688 398.47222900390625 555.4462890625" fill="rgb(134, 151, 172)" opacity="1.0" stroke="rgb(31, 196, 96)" stroke-linecap="round" stroke-linejoin="round" stroke-opacity="0.1806251" stroke-width="0.0"/>
    <path d="M 377.27099609375 311.7138977050781 C 478.6077880859375 317.1033020019531 372.93377685546875 303.3333740234375 377.7461242675781 430.8403625488281 C 287.8048095703125 472.48504638671875 243.071044921875 536.2880249023438 288.49041748046875 358.8081970214844 C 334.9735412597656 309.6690979003906 291.46368408203125 305.2252502441406 354.8411560058594 233.46435546875 C 499.10491943359375 196.0803680419922 348.952880859375 243.59666442871094 377.27099609375 311.7138977050781" fill="rgb(10, 9, 20)" opacity="0.98488945" stroke="rgb(59, 211, 80)" stroke-linecap="round" stroke-linejoin="round" stroke-opacity="0.067595124" stroke-width="0.0"/>
  </g>
</svg>
