<?xml version="1.0" ?>
<svg height="768" version="1.1" width="768" xmlns="http://www.w3.org/2000/svg">
  <defs/>
  <g>
    <path d="M 601.7014770507812 -27.035423278808594 C 689.1288452148438 131.7578125 756.3464965820312 154.82534790039062 786.840576171875 767.1963500976562 C 273.177001953125 785.4556884765625 201.83680725097656 786.8983764648438 -3.595470905303955 789.919677734375 C -12.993823051452637 600.067626953125 -17.679079055786133 551.5076293945312 -52.096492767333984 259.3875732421875 C -169.41778564453125 120.67609405517578 -200.94522094726562 22.456039428710938 601.7014770507812 -27.035423278808594" fill="rgb(148, 132, 116)" opacity="0.97429794" stroke="rgb(196, 67, 204)" stroke-linecap="round" stroke-linejoin="round" stroke-opacity="0.24684127" stroke-width="0.0"/>
    <path d="M 783.0747680664062 7.454165458679199 C 778.8667602539062 232.95799255371094 826.5562133789062 248.96275329589844 767.111572265625 480.7864685058594 C 597.4776000976562 343.30853271484375 689.0696411132812 285.4772644042969 692.6427612304688 237.84449768066406 C 679.6168212890625 148.59144592285156 666.2737426757812 138.98675537109375 590.048583984375 -7.329533100128174 C 806.0176391601562 -17.957279205322266 802.0494995117188 -11.69682788848877 783.0747680664062 7.454165458679199" fill="rgb(137, 134, 126)" opacity="1.0" stroke="rgb(71, 27, 228)" stroke-linecap="round" stroke-linejoin="round" stroke-opacity="0.16774984" stroke-width="0.0"/>
    <path d="M 552.4168701171875 257.8880310058594 C 557.8697509765625 509.0876770019531 288.99749755859375 51.1975212097168 285.36553955078125 516.0780029296875 C 205.294677734375 456.2442932128906 247.6416015625 317.8705139160156 248.67251586914062 333.9379577636719 C 160.2970733642578 298.85125732421875 248.2143096923828 212.2215118408203 289.0322265625 275.8245849609375 C 396.09771728515625 227.11293029785156 323.9920349121094 268.024169921875 552.4168701171875 257.8880310058594" fill="rgb(80, 73, 70)" opacity="0.9022698" stroke="rgb(170, 143, 113)" stroke-linecap="round" stroke-linejoin="round" stroke-opacity="0.87812567" stroke-width="0.0"/>
    <path d="M 425.928466796875 429.6707458496094 C 404.8226318359375 494.30194091796875 376.08721923828125 444.9768371582031 388.7135009765625 489.06622314453125 C 383.0554504394531 499.59942626953125 322.2191467285156 498.974853515625 321.5105285644531 452.6605224609375 C 325.2121276855469 429.03887939453125 344.2362365722656 417.15399169921875 367.030029296875 409.5500183105469 C 410.8885803222656 402.4084777832031 412.7341003417969 422.2234802246094 425.928466796875 429.6707458496094" fill="rgb(30, 25, 25)" opacity="0.872306" stroke="rgb(105, 69, 108)" stroke-linecap="round" stroke-linejoin="round" stroke-opacity="0.010191235" stroke-width="0.0"/>
    <path d="M 270.7157897949219 0.337015300989151 C 203.4873046875 272.7741394042969 114.45610809326172 242.91859436035156 -56.66771697998047 171.9168701171875 C -7.199536323547363 64.83350372314453 -12.933769226074219 72.9354248046875 -13.075496673583984 6.240449905395508 C -8.012312889099121 -15.464159965515137 -1.8111566305160522 -13.763866424560547 38.73163986206055 -13.214938163757324 C 96.11004638671875 -14.895506858825684 122.00907897949219 -45.195926666259766 270.7157897949219 0.337015300989151" fill="rgb(137, 134, 126)" opacity="1.0" stroke="rgb(51, 181, 190)" stroke-linecap="round" stroke-linejoin="round" stroke-opacity="0.09266931" stroke-width="0.0"/>
  </g>
</svg>
