<?xml version="1.0" ?>
<svg height="240" version="1.1" width="240" xmlns="http://www.w3.org/2000/svg">
  <defs/>
  <g>
    <path d="M 238.45895385742188 177.36607360839844 C 232.5928192138672 216.91844177246094 115.76761627197266 237.27639770507812 37.38100051879883 209.05117797851562 C -2.718883514404297 190.4818878173828 -2.9049315452575684 185.67759704589844 6.225350856781006 123.48564147949219 C 27.135908126831055 20.795469284057617 98.86317443847656 9.63482666015625 152.77525329589844 21.717300415039062 C 220.25851440429688 40.053253173828125 238.84097290039062 115.07099151611328 238.45895385742188 177.36607360839844" fill="rgb(252, 186, 0)" opacity="0.88814557" stroke="rgb(68, 54, 93)" stroke-linecap="round" stroke-linejoin="round" stroke-opacity="0.58672726" stroke-width="0.0"/>
    <path d="M 181.08334350585938 132.53680419921875 C 207.72987365722656 122.12317657470703 178.38026428222656 189.5052490234375 112.79328155517578 184.1288604736328 C 57.32475280761719 180.22557067871094 34.80099868774414 121.07942199707031 59.02542495727539 132.9399871826172 C 73.79524230957031 175.74191284179688 123.26863098144531 173.4254913330078 117.79017639160156 172.90769958496094 C 133.33978271484375 174.34107971191406 169.3837890625 167.43035888671875 181.08334350585938 132.53680419921875" fill="rgb(34, 38, 48)" opacity="0.93796575" stroke="rgb(180, 59, 29)" stroke-linecap="round" stroke-linejoin="round" stroke-opacity="0.48410302" stroke-width="0.0"/>
    <path d="M 215.4288787841797 172.0794219970703 C 215.6342010498047 184.7689666748047 202.94932556152344 198.3277130126953 189.60397338867188 194.59808349609375 C 177.7372589111328 191.6464080810547 169.1868438720703 176.9097900390625 156.01199340820312 176.3188018798828 C 177.6112823486328 165.86512756347656 187.05491638183594 149.1448211669922 190.6577911376953 138.8154754638672 C 201.60324096679688 141.16238403320312 216.24681091308594 157.05465698242188 215.4288787841797 172.0794219970703" fill="rgb(211, 79, 149)" opacity="0.9105486" stroke="rgb(2, 56, 65)" stroke-linecap="round" stroke-linejoin="round" stroke-opacity="0.0010101862" stroke-width="0.0"/>
    <path d="M 96.65601348876953 106.85723876953125 C 81.77749633789062 90.74869537353516 80.01113891601562 88.75483703613281 90.28144073486328 99.9832763671875 C 77.17142486572266 90.05558776855469 62.055274963378906 96.08558654785156 56.231136322021484 106.47480773925781 C 36.723262786865234 108.51515197753906 56.75362777709961 80.21345520019531 82.15421295166016 85.32789611816406 C 97.21943664550781 87.57185363769531 113.29694366455078 106.1769790649414 96.65601348876953 106.85723876953125" fill="rgb(44, 45, 47)" opacity="0.98172194" stroke="rgb(54, 183, 130)" stroke-linecap="round" stroke-linejoin="round" stroke-opacity="0.40241364" stroke-width="0.0"/>
    <path d="M 184.03921508789062 106.57147216796875 C 175.36129760742188 94.83395385742188 171.2945556640625 97.08255767822266 174.88731384277344 97.76136779785156 C 160.7952423095703 90.95836639404297 149.45350646972656 97.73896026611328 144.1234893798828 106.57766723632812 C 126.02001953125 107.42340087890625 143.2397918701172 84.99104309082031 162.18746948242188 84.91557312011719 C 183.87753295898438 82.91354370117188 202.74473571777344 107.73786163330078 184.03921508789062 106.57147216796875" fill="rgb(45, 46, 46)" opacity="0.9859897" stroke="rgb(17, 16, 217)" stroke-linecap="round" stroke-linejoin="round" stroke-opacity="0.33979937" stroke-width="0.0"/>
  </g>
</svg>
