<?xml version="1.0" ?>
<svg height="768" version="1.1" width="768" xmlns="http://www.w3.org/2000/svg">
  <defs/>
  <g>
    <path d="M 771.0944213867188 792.504150390625 C 350.0330505371094 820.3147583007812 215.71478271484375 846.7415771484375 181.3631134033203 609.0781860351562 C 588.2386474609375 323.0780334472656 734.7132568359375 257.9277038574219 19.900249481201172 532.3705444335938 C -15.59571361541748 -97.13087463378906 -1.410186767578125 -51.87713623046875 763.9203491210938 -13.140375137329102 C 768.668701171875 268.1392517089844 757.90869140625 333.9040832519531 771.0944213867188 792.504150390625" fill="rgb(69, 114, 128)" opacity="0.7723494" stroke="rgb(87, 69, 106)" stroke-linecap="round" stroke-linejoin="round" stroke-opacity="0.7519394" stroke-width="0.0"/>
    <path d="M 509.54583740234375 579.0635986328125 C 521.6134033203125 632.1845092773438 676.9393920898438 378.7201843261719 797.6722412109375 765.8256225585938 C 221.83920288085938 797.1580200195312 272.9400329589844 781.634521484375 257.0902099609375 744.819091796875 C 228.361328125 642.6312255859375 288.91748046875 584.3106079101562 312.7773742675781 569.4778442382812 C 325.7460021972656 556.4029541015625 410.5933837890625 519.1829833984375 509.54583740234375 579.0635986328125" fill="rgb(52, 7, 53)" opacity="0.82285553" stroke="rgb(203, 243, 18)" stroke-linecap="round" stroke-linejoin="round" stroke-opacity="0.55055386" stroke-width="0.0"/>
    <path d="M 444.0 310.0 C 443.33013916015625 312.5 441.5 314.33013916015625 439.0 315.0 C 436.5 314.33013916015625 434.66986083984375 312.5 434.0 310.0 C 434.66986083984375 307.5 436.5 305.66986083984375 439.0 305.0 C 441.5 305.66986083984375 443.33013916015625 307.5 444.0 310.0" fill="rgb(255, 255, 249)" opacity="1.0" stroke="rgb(84, 25, 157)" stroke-linecap="round" stroke-linejoin="round" stroke-opacity="0.4581576" stroke-width="0.0"/>
  </g>
</svg>
