<?xml version="1.0" ?>
<svg height="768" version="1.1" width="768" xmlns="http://www.w3.org/2000/svg">
  <defs/>
  <g>
    <path d="M 766.8668823242188 -31.952152252197266 C 795.8284301757812 600.9912109375 782.0317993164062 607.1778564453125 907.5733032226562 702.1276245117188 C 817.4645385742188 758.8723754882812 782.047607421875 786.8499755859375 461.6008605957031 833.6903686523438 C 296.4769287109375 939.5904541015625 188.7450714111328 943.9546508789062 143.23338317871094 96.51717376708984 C 581.8326416015625 45.61790084838867 589.52294921875 6.193873882293701 766.8668823242188 -31.952152252197266" fill="rgb(105, 141, 114)" opacity="0.9900916" stroke="rgb(77, 67, 76)" stroke-linecap="round" stroke-linejoin="round" stroke-opacity="0.8208083" stroke-width="0.0"/>
    <path d="M 206.22865295410156 172.9439697265625 C 217.2267608642578 411.0170593261719 319.6373291015625 408.7328796386719 488.79620361328125 681.3540649414062 C 233.55198669433594 780.9530639648438 87.73091125488281 822.962890625 -14.440909385681152 781.8363647460938 C -18.57891082763672 350.243408203125 -23.457162857055664 325.2275085449219 1.3276432752609253 -16.753923416137695 C 548.6083984375 -10.604741096496582 399.35260009765625 39.090824127197266 206.22865295410156 172.9439697265625" fill="rgb(110, 132, 140)" opacity="1.0" stroke="rgb(7, 107, 5)" stroke-linecap="round" stroke-linejoin="round" stroke-opacity="0.8064527" stroke-width="0.0"/>
    <path d="M 379.58319091796875 489.68865966796875 C 279.0293273925781 499.19964599609375 387.7198486328125 581.9597778320312 258.41436767578125 584.438720703125 C 170.72625732421875 527.5123291015625 12.107805252075195 574.51953125 109.82378387451172 504.1609191894531 C 337.8279724121094 532.66064453125 200.427734375 369.7429504394531 516.1074829101562 362.4871520996094 C 373.4512939453125 479.7958984375 449.7688903808594 680.6905517578125 379.58319091796875 489.68865966796875" fill="rgb(23, 137, 37)" opacity="1.0" stroke="rgb(67, 192, 183)" stroke-linecap="round" stroke-linejoin="round" stroke-opacity="0.62813187" stroke-width="0.0"/>
    <path d="M 407.0 562.0 C 406.33013916015625 564.5 404.5 566.3301391601562 402.0 567.0 C 399.5 566.3301391601562 397.66986083984375 564.5 397.0 562.0 C 397.66986083984375 559.5 399.5 557.6698608398438 402.0 557.0 C 404.5 557.6698608398438 406.33013916015625 559.5 407.0 562.0" fill="rgb(0, 136, 21)" opacity="1.0" stroke="rgb(179, 49, 148)" stroke-linecap="round" stroke-linejoin="round" stroke-opacity="0.7424599" stroke-width="0.0"/>
  </g>
</svg>
