<?xml version="1.0" ?>
<svg height="768" version="1.1" width="768" xmlns="http://www.w3.org/2000/svg">
  <defs/>
  <g>
    <path d="M 767.2459716796875 618.3818969726562 C 230.66505432128906 602.703857421875 141.7395782470703 567.5440063476562 -41.34237289428711 500.3866271972656 C -10.534676551818848 -235.2786865234375 116.83867645263672 -233.12953186035156 305.0860595703125 -282.5186767578125 C 464.10162353515625 -17.072294235229492 473.8721008300781 -13.6232271194458 776.8167724609375 -13.216102600097656 C 783.5891723632812 -33.92842102050781 786.19140625 -11.225192070007324 767.2459716796875 618.3818969726562" fill="rgb(133, 116, 116)" opacity="1.0" stroke="rgb(189, 177, 45)" stroke-linecap="round" stroke-linejoin="round" stroke-opacity="0.0065255114" stroke-width="0.0"/>
    <path d="M 777.8770141601562 600.9022827148438 C 782.64306640625 814.3651123046875 776.4285888671875 797.4237670898438 750.8416137695312 781.579833984375 C 570.003173828125 783.8289184570312 564.1392822265625 784.826904296875 447.3111877441406 954.394287109375 C 333.2664794921875 932.7200317382812 177.45510864257812 984.682373046875 74.73347473144531 569.7839965820312 C 703.9984741210938 564.3050537109375 722.3856201171875 592.5325317382812 777.8770141601562 600.9022827148438" fill="rgb(133, 116, 116)" opacity="1.0" stroke="rgb(159, 64, 69)" stroke-linecap="round" stroke-linejoin="round" stroke-opacity="0.93210244" stroke-width="0.0"/>
    <path d="M 287.0 393.0 C 286.33013916015625 395.5 284.5 397.33013916015625 282.0 398.0 C 279.5 397.33013916015625 277.66986083984375 395.5 277.0 393.0 C 277.66986083984375 390.5 279.5 388.66986083984375 282.0 388.0 C 284.5 388.66986083984375 286.33013916015625 390.5 287.0 393.0" fill="rgb(71, 42, 24)" opacity="1.0" stroke="rgb(20, 82, 209)" stroke-linecap="round" stroke-linejoin="round" stroke-opacity="0.60177547" stroke-width="0.0"/>
  </g>
</svg>
