<?xml version="1.0" ?>
<svg height="768" version="1.1" width="768" xmlns="http://www.w3.org/2000/svg">
  <defs/>
  <g>
    <path d="M 767.1314697265625 618.4249267578125 C 230.02198791503906 602.9188842773438 140.81265258789062 567.94189453125 -41.5234489440918 500.73565673828125 C -10.714678764343262 -235.47259521484375 116.67060089111328 -233.30599975585938 305.0450439453125 -282.60223388671875 C 464.10162353515625 -17.072294235229492 473.8721008300781 -13.6232271194458 776.8167724609375 -13.216102600097656 C 783.5891723632812 -33.92862319946289 786.1851196289062 -11.235902786254883 767.1314697265625 618.4249267578125" fill="rgb(128, 105, 97)" opacity="0.9641302" stroke="rgb(189, 177, 45)" stroke-linecap="round" stroke-linejoin="round" stroke-opacity="0.0065255114" stroke-width="0.0"/>
    <path d="M 778.1146850585938 589.1590576171875 C 782.64306640625 814.3651123046875 776.4285888671875 797.4237670898438 750.8416137695312 781.579833984375 C 570.003173828125 783.8289184570312 564.1392822265625 784.826904296875 447.0933837890625 955.532470703125 C 330.1412353515625 939.7069091796875 166.19174194335938 999.0593872070312 59.173744201660156 554.26416015625 C 710.0025024414062 552.1433715820312 727.2815551757812 583.8894653320312 778.1146850585938 589.1590576171875" fill="rgb(133, 116, 116)" opacity="1.0" stroke="rgb(159, 64, 69)" stroke-linecap="round" stroke-linejoin="round" stroke-opacity="0.93210244" stroke-width="0.0"/>
    <path d="M 466.2364196777344 241.69676208496094 C 185.18878173828125 612.4609985351562 694.252197265625 280.2093200683594 485.64483642578125 544.4595947265625 C 191.34906005859375 539.9004516601562 188.9081573486328 545.9188232421875 155.41400146484375 526.339599609375 C 74.9638900756836 479.0748291015625 88.31942749023438 243.76815795898438 265.09710693359375 228.3069610595703 C 439.83831787109375 226.6266326904297 371.5442199707031 303.4993896484375 466.2364196777344 241.69676208496094" fill="rgb(76, 43, 23)" opacity="0.9334507" stroke="rgb(20, 82, 209)" stroke-linecap="round" stroke-linejoin="round" stroke-opacity="0.60177547" stroke-width="0.0"/>
    <path d="M 114.04045867919922 610.46533203125 C 136.9853515625 774.45361328125 144.6488494873047 778.704345703125 113.43375396728516 781.3922119140625 C -25.658323287963867 784.5731201171875 -17.62748146057129 777.3887939453125 -11.60305118560791 752.9935302734375 C -13.722367286682129 637.3461303710938 -20.229446411132812 628.3718872070312 1.1234016418457031 510.62091064453125 C 165.6160888671875 525.7191162109375 117.67741394042969 558.1453247070312 114.04045867919922 610.46533203125" fill="rgb(132, 116, 116)" opacity="0.9891966" stroke="rgb(71, 170, 141)" stroke-linecap="round" stroke-linejoin="round" stroke-opacity="0.56989187" stroke-width="0.0"/>
    <path d="M 578.0 250.0 C 577.3301391601562 252.5 575.5 254.3301239013672 573.0 255.0 C 570.5 254.3301239013672 568.6698608398438 252.5 568.0 250.0 C 568.6698608398438 247.5 570.5 245.6698760986328 573.0 245.0 C 575.5 245.6698760986328 577.3301391601562 247.5 578.0 250.0" fill="rgb(60, 34, 18)" opacity="1.0" stroke="rgb(105, 209, 235)" stroke-linecap="round" stroke-linejoin="round" stroke-opacity="0.31709114" stroke-width="0.0"/>
  </g>
</svg>
