<?xml version="1.0" ?>
<svg height="768" version="1.1" width="768" xmlns="http://www.w3.org/2000/svg">
  <defs/>
  <g>
    <path d="M 605.1055297851562 949.375732421875 C 488.50396728515625 781.007568359375 483.6084289550781 781.6597290039062 82.64701843261719 784.5719604492188 C 12.365272521972656 947.4033813476562 -11.772065162658691 1097.192626953125 -1.7681704759597778 130.42984008789062 C 748.8673706054688 177.09115600585938 816.5468139648438 244.54989624023438 829.7515869140625 338.24615478515625 C 785.6730346679688 908.88623046875 707.8917846679688 917.7047119140625 605.1055297851562 949.375732421875" fill="rgb(127, 117, 138)" opacity="0.9997887" stroke="rgb(43, 251, 206)" stroke-linecap="round" stroke-linejoin="round" stroke-opacity="0.480906" stroke-width="0.0"/>
    <path d="M 380.1888732910156 -200.38601684570312 C 509.9944152832031 -191.91793823242188 683.9154052734375 -275.7329406738281 781.9988403320312 240.08602905273438 C 114.14553833007812 197.6267852783203 129.25901794433594 175.45628356933594 -1.6549606323242188 187.67385864257812 C -21.029197692871094 -51.44052505493164 -8.244616508483887 -39.12990951538086 29.06340980529785 -14.39211654663086 C 271.8716735839844 -14.073543548583984 278.2620544433594 -15.344450950622559 380.1888732910156 -200.38601684570312" fill="rgb(112, 116, 133)" opacity="1.0" stroke="rgb(104, 28, 205)" stroke-linecap="round" stroke-linejoin="round" stroke-opacity="0.8674633" stroke-width="0.0"/>
    <path d="M 568.076171875 360.0328369140625 C 548.9983520507812 371.52667236328125 531.3070678710938 324.18035888671875 449.80047607421875 386.6566467285156 C 333.1826477050781 432.07275390625 464.960205078125 429.6729736328125 201.91444396972656 429.3394470214844 C 267.9902648925781 339.2685852050781 326.6880798339844 345.6243591308594 344.6277160644531 302.7821350097656 C 420.684326171875 248.34703063964844 468.362548828125 293.2066345214844 568.076171875 360.0328369140625" fill="rgb(238, 155, 192)" opacity="0.9090419" stroke="rgb(89, 58, 96)" stroke-linecap="round" stroke-linejoin="round" stroke-opacity="0.25161108" stroke-width="0.0"/>
  </g>
</svg>
