<?xml version="1.0" ?>
<svg height="768" version="1.1" width="768" xmlns="http://www.w3.org/2000/svg">
  <defs/>
  <g>
    <path d="M 605.1055297851562 949.375732421875 C 488.50396728515625 781.007568359375 483.6084289550781 781.6597290039062 82.54767608642578 784.5719604492188 C 12.297364234924316 947.464599609375 -11.806374549865723 1097.2408447265625 -1.7778881788253784 130.42984008789062 C 748.8673706054688 177.09115600585938 816.5468139648438 244.54989624023438 829.7515869140625 338.24615478515625 C 785.6730346679688 908.88623046875 707.8917846679688 917.7047119140625 605.1055297851562 949.375732421875" fill="rgb(127, 116, 137)" opacity="0.99578345" stroke="rgb(43, 251, 206)" stroke-linecap="round" stroke-linejoin="round" stroke-opacity="0.480906" stroke-width="0.0"/>
    <path d="M 380.2189025878906 -200.52557373046875 C 510.4390869140625 -192.69873046875 685.4331665039062 -277.396240234375 783.8838500976562 238.91580200195312 C 113.38668823242188 198.09230041503906 129.18539428710938 175.60400390625 -1.655626893043518 187.76734924316406 C -21.029197692871094 -51.44052505493164 -8.244616508483887 -39.12990951538086 29.06340980529785 -14.39211654663086 C 271.8716735839844 -14.073543548583984 278.2620544433594 -15.344450950622559 380.2189025878906 -200.52557373046875" fill="rgb(112, 116, 133)" opacity="1.0" stroke="rgb(104, 28, 205)" stroke-linecap="round" stroke-linejoin="round" stroke-opacity="0.8674633" stroke-width="0.0"/>
    <path d="M 566.9660034179688 358.8614807128906 C 553.5313110351562 376.1253662109375 536.6477661132812 319.30902099609375 443.2903137207031 390.241943359375 C 309.3210144042969 440.3662109375 521.6956176757812 414.1377868652344 231.2803955078125 431.9971923828125 C 274.7502746582031 316.67315673828125 311.73529052734375 362.5709228515625 343.42413330078125 304.9593811035156 C 421.5355224609375 241.80332946777344 482.2177429199219 305.4869384765625 566.9660034179688 358.8614807128906" fill="rgb(248, 159, 196)" opacity="0.9442477" stroke="rgb(89, 58, 96)" stroke-linecap="round" stroke-linejoin="round" stroke-opacity="0.25161108" stroke-width="0.0"/>
    <path d="M 783.0115966796875 7.825751781463623 C 778.0675048828125 72.2813949584961 781.9736938476562 77.95682525634766 767.9415283203125 162.04713439941406 C 700.140380859375 121.96370697021484 721.9208374023438 90.273681640625 716.3872680664062 40.64962387084961 C 711.9534912109375 4.193632125854492 709.8590698242188 -1.882310152053833 706.611328125 -10.140196800231934 C 791.51416015625 -12.686135292053223 785.9130249023438 -7.930627822875977 783.0115966796875 7.825751781463623" fill="rgb(112, 116, 133)" opacity="1.0" stroke="rgb(227, 119, 187)" stroke-linecap="round" stroke-linejoin="round" stroke-opacity="0.51960444" stroke-width="0.0"/>
    <path d="M 313.302978515625 239.52639770507812 C 359.97021484375 348.2956848144531 162.60836791992188 341.4635314941406 254.45877075195312 406.900146484375 C 231.3114471435547 451.82403564453125 196.25314331054688 405.03070068359375 200.60360717773438 381.942138671875 C 199.1676483154297 360.837890625 233.11671447753906 318.5412902832031 235.04200744628906 335.5715026855469 C 351.81597900390625 285.3992614746094 223.8643341064453 173.01829528808594 313.302978515625 239.52639770507812" fill="rgb(245, 180, 202)" opacity="0.9380844" stroke="rgb(42, 29, 80)" stroke-linecap="round" stroke-linejoin="round" stroke-opacity="0.18458217" stroke-width="0.0"/>
  </g>
</svg>
