<?xml version="1.0" ?>
<svg height="768" version="1.1" width="768" xmlns="http://www.w3.org/2000/svg">
  <defs/>
  <g>
    <path d="M 730.3887939453125 853.1696166992188 C 612.1659545898438 783.2713012695312 597.5917358398438 786.6431274414062 -34.77958679199219 766.818115234375 C 7.496063709259033 385.6607666015625 45.25105285644531 249.47686767578125 115.96624755859375 102.20196533203125 C 881.4306030273438 149.42176818847656 890.6741943359375 242.33169555664062 841.8452758789062 370.4902648925781 C 791.429443359375 718.9743041992188 772.3067626953125 781.5838623046875 730.3887939453125 853.1696166992188" fill="rgb(137, 131, 121)" opacity="0.99212974" stroke="rgb(105, 21, 241)" stroke-linecap="round" stroke-linejoin="round" stroke-opacity="0.7887756" stroke-width="0.0"/>
    <path d="M 780.9153442382812 189.66812133789062 C 791.0465698242188 212.79225158691406 798.7745971679688 212.56158447265625 594.432861328125 199.64691162109375 C 500.19757080078125 242.24951171875 405.3960266113281 492.0124816894531 301.6099853515625 3.960022211074829 C 659.4537353515625 -27.75307846069336 696.1890869140625 -14.962355613708496 816.9228515625 -4.276611328125 C 781.7683715820312 53.22857666015625 781.8759155273438 58.05949783325195 780.9153442382812 189.66812133789062" fill="rgb(134, 141, 139)" opacity="1.0" stroke="rgb(243, 126, 113)" stroke-linecap="round" stroke-linejoin="round" stroke-opacity="0.5440716" stroke-width="0.0"/>
    <path d="M 212.40673828125 436.6758728027344 C -47.2629508972168 418.14190673828125 -123.18628692626953 341.1463623046875 -263.2461242675781 234.8140869140625 C -18.958724975585938 88.63959503173828 -15.073166847229004 79.91089630126953 -12.82005786895752 11.432256698608398 C -13.766706466674805 -12.041988372802734 -12.463499069213867 -21.243499755859375 359.30157470703125 0.909644603729248 C 350.2364501953125 140.5419158935547 297.9454345703125 165.96047973632812 212.40673828125 436.6758728027344" fill="rgb(134, 141, 139)" opacity="1.0" stroke="rgb(82, 42, 227)" stroke-linecap="round" stroke-linejoin="round" stroke-opacity="0.29242852" stroke-width="0.0"/>
    <path d="M 428.41119384765625 421.0982971191406 C 426.65283203125 406.0262145996094 484.7996826171875 488.97442626953125 406.16571044921875 468.3818054199219 C 410.67510986328125 390.6129150390625 332.2238464355469 552.082763671875 328.3829650878906 342.6895751953125 C 327.28277587890625 342.39813232421875 377.2075500488281 327.099853515625 422.9343566894531 337.1644287109375 C 468.8282165527344 349.0013122558594 480.8804016113281 390.34326171875 428.41119384765625 421.0982971191406" fill="rgb(236, 119, 16)" opacity="0.88064104" stroke="rgb(180, 9, 35)" stroke-linecap="round" stroke-linejoin="round" stroke-opacity="0.56529266" stroke-width="0.0"/>
    <path d="M 418.0 488.0 C 417.33013916015625 490.5 415.5 492.33013916015625 413.0 493.0 C 410.5 492.33013916015625 408.66986083984375 490.5 408.0 488.0 C 408.66986083984375 485.5 410.5 483.66986083984375 413.0 483.0 C 415.5 483.66986083984375 417.33013916015625 485.5 418.0 488.0" fill="rgb(0, 0, 0)" opacity="1.0" stroke="rgb(244, 130, 15)" stroke-linecap="round" stroke-linejoin="round" stroke-opacity="0.6051226" stroke-width="0.0"/>
  </g>
</svg>
