<?xml version="1.0" ?>
<svg height="768" version="1.1" width="768" xmlns="http://www.w3.org/2000/svg">
  <defs/>
  <g>
    <path d="M 544.2169189453125 605.66357421875 C -163.07383728027344 566.3036499023438 -184.5706024169922 455.6838684082031 -274.33245849609375 299.3262634277344 C -16.75057601928711 127.27786254882812 -15.556318283081055 120.66548919677734 -12.464241027832031 6.098681926727295 C -11.806389808654785 -16.62019157409668 -7.785408020019531 -16.58919334411621 523.1760864257812 -16.99627113342285 C 580.204833984375 -69.98886108398438 580.228759765625 -87.55062866210938 544.2169189453125 605.66357421875" fill="rgb(90, 98, 108)" opacity="1.0" stroke="rgb(11, 17, 244)" stroke-linecap="round" stroke-linejoin="round" stroke-opacity="0.19798794" stroke-width="0.0"/>
    <path d="M 647.6336669921875 889.2640380859375 C 547.1279296875 784.7054443359375 533.63037109375 800.91845703125 -54.5936279296875 764.2744140625 C -9.327488899230957 435.59637451171875 104.17345428466797 359.578369140625 212.21307373046875 427.3245544433594 C 527.4944458007812 856.8994140625 282.0397033691406 343.63427734375 773.1433715820312 219.49923706054688 C 813.156494140625 874.3845825195312 744.5548095703125 888.7950439453125 647.6336669921875 889.2640380859375" fill="rgb(148, 166, 174)" opacity="1.0" stroke="rgb(59, 73, 185)" stroke-linecap="round" stroke-linejoin="round" stroke-opacity="0.5000274" stroke-width="0.0"/>
    <path d="M 601.451171875 446.6678771972656 C 559.8943481445312 593.2438354492188 502.07568359375 583.8399658203125 416.27752685546875 641.915771484375 C 337.12811279296875 767.8517456054688 382.62841796875 534.65234375 476.2763366699219 582.1190185546875 C 476.263916015625 472.2666015625 532.785888671875 518.3121337890625 545.2587890625 441.1763610839844 C 572.3169555664062 390.0346374511719 696.2457885742188 417.19512939453125 601.451171875 446.6678771972656" fill="rgb(248, 244, 227)" opacity="0.9992395" stroke="rgb(17, 66, 130)" stroke-linecap="round" stroke-linejoin="round" stroke-opacity="0.5548597" stroke-width="0.0"/>
    <path d="M 779.56982421875 -14.160058975219727 C 783.65869140625 94.76887512207031 784.3184204101562 104.96819305419922 827.5977172851562 213.23777770996094 C 707.3753051757812 236.1046142578125 704.7045288085938 279.9852294921875 561.755615234375 331.4664611816406 C 518.02978515625 21.743986129760742 404.8529052734375 231.4462432861328 296.6365661621094 1.6980963945388794 C 738.9354858398438 -25.688053131103516 748.02978515625 -14.018016815185547 779.56982421875 -14.160058975219727" fill="rgb(133, 153, 164)" opacity="1.0" stroke="rgb(198, 172, 9)" stroke-linecap="round" stroke-linejoin="round" stroke-opacity="0.63233125" stroke-width="0.0"/>
    <path d="M 187.3884735107422 253.9253692626953 C 90.49076080322266 437.35113525390625 127.56961059570312 458.8818054199219 360.0086669921875 694.1837158203125 C 62.65898513793945 688.0507202148438 47.9739875793457 682.8742065429688 -7.655522346496582 697.7425537109375 C -14.759955406188965 348.4587097167969 -15.962650299072266 343.6233215332031 1.0539370775222778 -4.752056121826172 C 469.775390625 -22.685373306274414 153.2276611328125 0.6602050065994263 187.3884735107422 253.9253692626953" fill="rgb(125, 160, 180)" opacity="0.80290866" stroke="rgb(44, 3, 152)" stroke-linecap="round" stroke-linejoin="round" stroke-opacity="0.34641784" stroke-width="0.0"/>
  </g>
</svg>
