<?xml version="1.0" ?>
<svg height="768" version="1.1" width="768" xmlns="http://www.w3.org/2000/svg">
  <defs/>
  <g>
    <path d="M 542.6491088867188 605.5641479492188 C -163.0726776123047 566.3018188476562 -184.56597900390625 455.6812744140625 -274.32965087890625 299.3255920410156 C -16.75057601928711 127.27786254882812 -15.556318283081055 120.66548919677734 -12.464241027832031 6.098681926727295 C -11.806389808654785 -16.62019157409668 -7.785408020019531 -16.58919334411621 521.3087158203125 -17.0269832611084 C 578.2000732421875 -71.19740295410156 578.1885375976562 -91.93535614013672 542.6491088867188 605.5641479492188" fill="rgb(122, 125, 131)" opacity="1.0" stroke="rgb(11, 17, 244)" stroke-linecap="round" stroke-linejoin="round" stroke-opacity="0.19798794" stroke-width="0.0"/>
    <path d="M 647.6336669921875 889.2640380859375 C 547.1279296875 784.6798706054688 533.812744140625 800.561279296875 -53.727115631103516 764.496337890625 C -7.624301910400391 439.8109436035156 105.57398986816406 369.2028503417969 207.60304260253906 423.96990966796875 C 505.9791564941406 822.3771362304688 253.1446533203125 333.64422607421875 766.3582153320312 220.05593872070312 C 813.0802001953125 874.4200439453125 744.5548095703125 888.7950439453125 647.6336669921875 889.2640380859375" fill="rgb(135, 155, 166)" opacity="0.99103373" stroke="rgb(59, 73, 185)" stroke-linecap="round" stroke-linejoin="round" stroke-opacity="0.5000274" stroke-width="0.0"/>
    <path d="M 601.033935546875 447.5882568359375 C 575.3311157226562 534.9154052734375 559.794921875 572.2093505859375 419.85601806640625 636.4234619140625 C 346.0185852050781 767.1438598632812 361.0283508300781 558.0794067382812 476.4111633300781 574.6881103515625 C 478.32574462890625 474.8462219238281 533.9598999023438 515.5001220703125 545.2819213867188 440.6911926269531 C 574.001220703125 390.82403564453125 698.4808959960938 413.2271728515625 601.033935546875 447.5882568359375" fill="rgb(244, 241, 224)" opacity="1.0" stroke="rgb(17, 66, 130)" stroke-linecap="round" stroke-linejoin="round" stroke-opacity="0.5548597" stroke-width="0.0"/>
    <path d="M 705.0 31.0 C 704.3301391601562 33.5 702.5 35.33012771606445 700.0 36.0 C 697.5 35.33012771606445 695.6698608398438 33.5 695.0 31.0 C 695.6698608398438 28.5 697.5 26.669872283935547 700.0 26.0 C 702.5 26.669872283935547 704.3301391601562 28.5 705.0 31.0" fill="rgb(130, 163, 180)" opacity="1.0" stroke="rgb(198, 172, 9)" stroke-linecap="round" stroke-linejoin="round" stroke-opacity="0.63233125" stroke-width="0.0"/>
  </g>
</svg>
