<?xml version="1.0" ?>
<svg height="768" version="1.1" width="768" xmlns="http://www.w3.org/2000/svg">
  <defs/>
  <g>
    <path d="M 542.3223266601562 605.518798828125 C -162.7759246826172 566.1405029296875 -184.23231506347656 455.4772644042969 -274.1255798339844 299.2637023925781 C -16.75057601928711 127.27786254882812 -15.556318283081055 120.66548919677734 -12.464241027832031 6.098681926727295 C -11.806389808654785 -16.62019157409668 -7.785408020019531 -16.58919334411621 521.1769409179688 -17.031700134277344 C 577.93603515625 -71.41773986816406 577.814697265625 -92.84857940673828 542.3223266601562 605.518798828125" fill="rgb(129, 135, 141)" opacity="0.9928943" stroke="rgb(11, 17, 244)" stroke-linecap="round" stroke-linejoin="round" stroke-opacity="0.19798794" stroke-width="0.0"/>
    <path d="M 647.6295776367188 889.2557983398438 C 547.1433715820312 784.5475463867188 534.848876953125 798.4680786132812 -48.45815658569336 764.427978515625 C 1.4320802688598633 453.964111328125 111.82225036621094 387.41925048828125 203.4158172607422 422.5809326171875 C 500.5118408203125 771.25537109375 236.4036102294922 344.4179992675781 763.6925659179688 239.26144409179688 C 812.2493896484375 874.7830200195312 744.5189819335938 888.7877197265625 647.6295776367188 889.2557983398438" fill="rgb(149, 163, 168)" opacity="1.0" stroke="rgb(59, 73, 185)" stroke-linecap="round" stroke-linejoin="round" stroke-opacity="0.5000274" stroke-width="0.0"/>
    <path d="M 542.0 517.0 C 541.3301391601562 519.5 539.5 521.3301391601562 537.0 522.0 C 534.5 521.3301391601562 532.6698608398438 519.5 532.0 517.0 C 532.6698608398438 514.5 534.5 512.6698608398438 537.0 512.0 C 539.5 512.6698608398438 541.3301391601562 514.5 542.0 517.0" fill="rgb(255, 250, 230)" opacity="1.0" stroke="rgb(17, 66, 130)" stroke-linecap="round" stroke-linejoin="round" stroke-opacity="0.5548597" stroke-width="0.0"/>
  </g>
</svg>
