<?xml version="1.0" ?>
<svg height="768" version="1.1" width="768" xmlns="http://www.w3.org/2000/svg">
  <defs/>
  <g>
    <path d="M 543.291748046875 605.5941772460938 C -163.0698699951172 566.3018188476562 -184.56597900390625 455.6812744140625 -274.32965087890625 299.3255920410156 C -16.75057601928711 127.27786254882812 -15.556318283081055 120.66548919677734 -12.464241027832031 6.098681926727295 C -11.806389808654785 -16.62019157409668 -7.785408020019531 -16.58919334411621 522.8602905273438 -17.00921058654785 C 579.5132446289062 -70.598388671875 579.2050170898438 -90.05461120605469 543.291748046875 605.5941772460938" fill="rgb(99, 108, 119)" opacity="0.9973903" stroke="rgb(11, 17, 244)" stroke-linecap="round" stroke-linejoin="round" stroke-opacity="0.19798794" stroke-width="0.0"/>
    <path d="M 647.6336669921875 889.2640380859375 C 547.1279296875 784.696044921875 533.6893310546875 800.8040771484375 -54.35702133178711 764.3023071289062 C -8.828003883361816 437.24853515625 104.69774627685547 363.7571105957031 212.11138916015625 426.80877685546875 C 517.8189086914062 849.4710083007812 275.1542663574219 341.1506652832031 771.8165283203125 219.07887268066406 C 813.156494140625 874.3845825195312 744.5548095703125 888.7950439453125 647.6336669921875 889.2640380859375" fill="rgb(141, 160, 171)" opacity="1.0" stroke="rgb(59, 73, 185)" stroke-linecap="round" stroke-linejoin="round" stroke-opacity="0.5000274" stroke-width="0.0"/>
    <path d="M 601.7599487304688 446.79595947265625 C 561.44091796875 582.4016723632812 519.2805786132812 579.8065795898438 418.4100646972656 639.6118774414062 C 335.7344970703125 770.3294067382812 381.33392333984375 535.9978637695312 476.1825866699219 581.41943359375 C 476.5883483886719 472.3453674316406 532.5930786132812 518.340087890625 545.2523803710938 441.10821533203125 C 571.3518676757812 390.86328125 698.2794799804688 415.250732421875 601.7599487304688 446.79595947265625" fill="rgb(247, 244, 226)" opacity="0.99984217" stroke="rgb(17, 66, 130)" stroke-linecap="round" stroke-linejoin="round" stroke-opacity="0.5548597" stroke-width="0.0"/>
    <path d="M 779.56982421875 -14.14235782623291 C 783.65869140625 94.76887512207031 784.3184204101562 104.96819305419922 829.501220703125 213.4062042236328 C 715.4122314453125 237.1880340576172 701.385498046875 278.2586669921875 562.915771484375 321.5616149902344 C 482.4320373535156 86.37374114990234 413.3158264160156 148.51658630371094 321.8033752441406 4.480897426605225 C 740.65673828125 -19.7547607421875 748.0579223632812 -13.669559478759766 779.56982421875 -14.14235782623291" fill="rgb(132, 147, 157)" opacity="1.0" stroke="rgb(198, 172, 9)" stroke-linecap="round" stroke-linejoin="round" stroke-opacity="0.63233125" stroke-width="0.0"/>
    <path d="M 70.0 413.0 C 69.33012390136719 415.5 67.5 417.33013916015625 65.0 418.0 C 62.5 417.33013916015625 60.66987228393555 415.5 60.0 413.0 C 60.66987228393555 410.5 62.5 408.66986083984375 65.0 408.0 C 67.5 408.66986083984375 69.33012390136719 410.5 70.0 413.0" fill="rgb(131, 164, 183)" opacity="1.0" stroke="rgb(44, 3, 152)" stroke-linecap="round" stroke-linejoin="round" stroke-opacity="0.34641784" stroke-width="0.0"/>
  </g>
</svg>
