<?xml version="1.0" ?>
<svg height="768" version="1.1" width="768" xmlns="http://www.w3.org/2000/svg">
  <defs/>
  <g>
    <path d="M 777.5552978515625 -6.639151573181152 C 780.0070190429688 89.8535385131836 780.8349609375 95.02655792236328 1022.0331420898438 259.24188232421875 C 988.3680419921875 423.4686584472656 998.67041015625 561.8829345703125 274.199462890625 612.2725219726562 C 223.14222717285156 102.7310562133789 194.22703552246094 76.02623748779297 191.102783203125 0.34958353638648987 C 775.9957885742188 -14.289613723754883 779.384765625 -13.219379425048828 777.5552978515625 -6.639151573181152" fill="rgb(119, 114, 119)" opacity="1.0" stroke="rgb(33, 155, 83)" stroke-linecap="round" stroke-linejoin="round" stroke-opacity="0.54668" stroke-width="0.0"/>
    <path d="M 204.25723266601562 19.984704971313477 C 212.8890380859375 286.64093017578125 245.70362854003906 141.5019989013672 337.91351318359375 325.9130554199219 C 405.37646484375 446.02099609375 475.3199462890625 583.457763671875 0.47794246673583984 675.4223022460938 C -28.529727935791016 45.56901550292969 -15.910719871520996 21.090900421142578 -13.318754196166992 -12.284516334533691 C 190.34829711914062 -15.709405899047852 198.18861389160156 -15.702615737915039 204.25723266601562 19.984704971313477" fill="rgb(155, 156, 154)" opacity="1.0" stroke="rgb(61, 9, 104)" stroke-linecap="round" stroke-linejoin="round" stroke-opacity="0.57338506" stroke-width="0.0"/>
    <path d="M 349.478759765625 466.04449462890625 C 349.8145446777344 464.384033203125 343.08087158203125 481.2648620605469 323.66229248046875 479.31781005859375 C 310.3875732421875 476.1540832519531 308.0112609863281 466.8421325683594 306.7012023925781 463.52032470703125 C 302.7371826171875 445.6798095703125 320.8212585449219 434.23504638671875 333.8954772949219 437.9987487792969 C 320.7928161621094 437.2656555175781 353.5749206542969 435.3147277832031 349.478759765625 466.04449462890625" fill="rgb(8, 10, 8)" opacity="0.9769454" stroke="rgb(120, 117, 208)" stroke-linecap="round" stroke-linejoin="round" stroke-opacity="0.08429858" stroke-width="0.0"/>
    <path d="M 767.3815307617188 493.6158142089844 C 784.41845703125 644.3826293945312 786.9334106445312 714.7448120117188 780.9559326171875 779.2969970703125 C 525.2655029296875 782.9794311523438 499.2872009277344 792.2889404296875 144.36648559570312 767.4293823242188 C 220.55430603027344 280.6998596191406 310.0108947753906 657.7169189453125 413.5205078125 564.8662109375 C 662.6559448242188 550.52978515625 672.6615600585938 541.0005493164062 767.3815307617188 493.6158142089844" fill="rgb(117, 124, 136)" opacity="1.0" stroke="rgb(164, 157, 86)" stroke-linecap="round" stroke-linejoin="round" stroke-opacity="0.44420275" stroke-width="0.0"/>
    <path d="M 517.4168090820312 494.3482360839844 C 524.1131591796875 504.4022521972656 418.3517761230469 581.95703125 313.3544006347656 520.4528198242188 C 548.1405029296875 490.4595642089844 435.377197265625 336.65972900390625 316.8300476074219 545.6190185546875 C 371.0624694824219 366.26751708984375 445.77783203125 367.9523620605469 483.65191650390625 388.2813720703125 C 505.86505126953125 396.6973571777344 546.3236694335938 439.7623291015625 517.4168090820312 494.3482360839844" fill="rgb(251, 241, 210)" opacity="0.7366388" stroke="rgb(41, 100, 244)" stroke-linecap="round" stroke-linejoin="round" stroke-opacity="0.8819606" stroke-width="0.0"/>
  </g>
</svg>
