<?xml version="1.0" ?>
<svg height="768" version="1.1" width="768" xmlns="http://www.w3.org/2000/svg">
  <defs/>
  <g>
    <path d="M 781.8795776367188 9.553422927856445 C 781.5901489257812 238.32537841796875 783.8214721679688 246.92596435546875 926.8677978515625 371.196044921875 C 983.6903076171875 531.6046752929688 1021.5274658203125 683.8611450195312 336.0559997558594 744.9816284179688 C 269.7374267578125 546.8727416992188 195.83363342285156 505.0039367675781 116.18072509765625 0.09004627913236618 C 788.6254272460938 -23.43840789794922 800.4483642578125 -10.90937328338623 781.8795776367188 9.553422927856445" fill="rgb(163, 143, 127)" opacity="0.9808727" stroke="rgb(180, 221, 221)" stroke-linecap="round" stroke-linejoin="round" stroke-opacity="0.6513702" stroke-width="0.0"/>
    <path d="M 453.545166015625 576.90380859375 C 452.7514953613281 635.61376953125 392.57952880859375 628.9246215820312 377.6939392089844 706.8594970703125 C 377.54632568359375 622.3646850585938 358.73553466796875 676.9756469726562 312.04486083984375 586.6217041015625 C 407.3912353515625 528.230712890625 361.9800109863281 689.0663452148438 385.3894958496094 177.63436889648438 C 428.8385009765625 547.4295654296875 354.5634765625 575.211181640625 453.545166015625 576.90380859375" fill="rgb(9, 5, 7)" opacity="0.9466114" stroke="rgb(244, 4, 62)" stroke-linecap="round" stroke-linejoin="round" stroke-opacity="0.9026404" stroke-width="0.0"/>
    <path d="M 258.3200378417969 132.39898681640625 C 135.88783264160156 150.9149169921875 120.49337005615234 134.45680236816406 295.1836853027344 624.9970092773438 C -400.8737487792969 564.8649291992188 -168.5648956298828 460.6376953125 -14.318355560302734 339.8768005371094 C -14.999022483825684 87.25175476074219 -15.208141326904297 80.36566925048828 28.316604614257812 -11.083854675292969 C 201.1203155517578 -23.541770935058594 15.787793159484863 -0.8002276420593262 258.3200378417969 132.39898681640625" fill="rgb(0, 29, 48)" opacity="0.5517133" stroke="rgb(110, 0, 231)" stroke-linecap="round" stroke-linejoin="round" stroke-opacity="0.6070661" stroke-width="0.0"/>
    <path d="M 765.2407836914062 250.9886474609375 C 795.69970703125 720.2305297851562 789.2463989257812 775.9158325195312 775.4030151367188 780.976806640625 C 513.0715942382812 782.2974243164062 477.3468322753906 850.2094116210938 317.5513916015625 753.5413818359375 C 488.1875 721.355224609375 395.0282287597656 631.9421997070312 487.09552001953125 633.91259765625 C 519.7874145507812 516.898681640625 330.2888488769531 395.7562561035156 765.2407836914062 250.9886474609375" fill="rgb(119, 134, 139)" opacity="0.8519796" stroke="rgb(53, 248, 227)" stroke-linecap="round" stroke-linejoin="round" stroke-opacity="0.69207186" stroke-width="0.0"/>
    <path d="M 248.0 626.0 C 247.3301239013672 628.5 245.5 630.3301391601562 243.0 631.0 C 240.5 630.3301391601562 238.6698760986328 628.5 238.0 626.0 C 238.6698760986328 623.5 240.5 621.6698608398438 243.0 621.0 C 245.5 621.6698608398438 247.3301239013672 623.5 248.0 626.0" fill="rgb(106, 136, 151)" opacity="1.0" stroke="rgb(137, 186, 244)" stroke-linecap="round" stroke-linejoin="round" stroke-opacity="0.69298315" stroke-width="0.0"/>
  </g>
</svg>
