<?xml version="1.0" ?>
<svg height="768" version="1.1" width="768" xmlns="http://www.w3.org/2000/svg">
  <defs/>
  <g>
    <path d="M 781.8795776367188 9.553422927856445 C 781.5901489257812 238.32537841796875 783.8214721679688 246.92596435546875 926.7597045898438 371.15069580078125 C 983.238525390625 531.2184448242188 1020.8865966796875 683.229736328125 334.66998291015625 744.92431640625 C 267.85040283203125 549.780029296875 194.98721313476562 506.366455078125 116.0491943359375 0.27567437291145325 C 788.6254272460938 -23.43985939025879 800.4483642578125 -10.90937328338623 781.8795776367188 9.553422927856445" fill="rgb(154, 142, 132)" opacity="0.9856907" stroke="rgb(180, 221, 221)" stroke-linecap="round" stroke-linejoin="round" stroke-opacity="0.6513702" stroke-width="0.0"/>
    <path d="M 453.63104248046875 576.1558837890625 C 451.8882751464844 637.2461547851562 393.4574279785156 627.5646362304688 377.6943359375 706.6436767578125 C 377.8371276855469 622.6126098632812 358.034423828125 676.2733764648438 312.089111328125 586.5142822265625 C 406.7494201660156 529.4137573242188 362.7674865722656 684.1287841796875 384.7957763671875 194.7085723876953 C 429.8121337890625 516.2283325195312 353.7559509277344 582.85888671875 453.63104248046875 576.1558837890625" fill="rgb(10, 5, 7)" opacity="0.9455239" stroke="rgb(244, 4, 62)" stroke-linecap="round" stroke-linejoin="round" stroke-opacity="0.9026404" stroke-width="0.0"/>
    <path d="M 244.76925659179688 130.83482360839844 C 141.70147705078125 165.32345581054688 127.40006256103516 107.1146469116211 279.95599365234375 613.75048828125 C -387.80224609375 554.6273803710938 -161.62814331054688 455.0393981933594 -14.267411231994629 338.44598388671875 C -15.00057315826416 87.25177764892578 -15.216103553771973 80.36196899414062 -0.23273101449012756 -10.172465324401855 C 165.3957977294922 -23.161256790161133 64.9367446899414 -3.4737627506256104 244.76925659179688 130.83482360839844" fill="rgb(19, 42, 56)" opacity="0.5956326" stroke="rgb(110, 0, 231)" stroke-linecap="round" stroke-linejoin="round" stroke-opacity="0.6070661" stroke-width="0.0"/>
    <path d="M 561.0 738.0 C 560.3301391601562 740.5 558.5 742.3301391601562 556.0 743.0 C 553.5 742.3301391601562 551.6698608398438 740.5 551.0 738.0 C 551.6698608398438 735.5 553.5 733.6698608398438 556.0 733.0 C 558.5 733.6698608398438 560.3301391601562 735.5 561.0 738.0" fill="rgb(106, 136, 151)" opacity="1.0" stroke="rgb(53, 248, 227)" stroke-linecap="round" stroke-linejoin="round" stroke-opacity="0.69207186" stroke-width="0.0"/>
  </g>
</svg>
