<?xml version="1.0" ?>
<svg height="768" version="1.1" width="768" xmlns="http://www.w3.org/2000/svg">
  <defs/>
  <g>
    <path d="M 797.2544555664062 70.61498260498047 C 784.4473266601562 672.9853515625 785.5181884765625 710.2080078125 782.1043701171875 777.9226684570312 C 526.1796264648438 782.2083129882812 498.4876708984375 784.6633911132812 246.9859161376953 947.1939697265625 C 159.39271545410156 769.4844360351562 90.08368682861328 688.0164184570312 54.445133209228516 133.9011993408203 C 324.75433349609375 72.9990463256836 697.8364868164062 38.856529235839844 797.2544555664062 70.61498260498047" fill="rgb(131, 144, 146)" opacity="0.9775905" stroke="rgb(11, 123, 192)" stroke-linecap="round" stroke-linejoin="round" stroke-opacity="0.8507443" stroke-width="0.0"/>
    <path d="M 386.0064697265625 -23.794551849365234 C 305.52154541015625 562.6907958984375 129.83740234375 385.0182800292969 213.15838623046875 785.1298828125 C -303.9347839355469 756.4893798828125 -106.0763931274414 665.828369140625 -15.817825317382812 577.01123046875 C -11.988444328308105 339.8542175292969 -13.7717866897583 332.8703918457031 -212.9495086669922 200.2795867919922 C -191.47715759277344 79.72775268554688 -175.63592529296875 -32.36493682861328 386.0064697265625 -23.794551849365234" fill="rgb(134, 169, 180)" opacity="0.96276224" stroke="rgb(113, 95, 191)" stroke-linecap="round" stroke-linejoin="round" stroke-opacity="0.9931798" stroke-width="0.0"/>
    <path d="M 561.8320922851562 322.80230712890625 C 564.451171875 367.60150146484375 613.2930908203125 414.7203674316406 495.8581237792969 629.2745971679688 C 487.28082275390625 509.8254699707031 469.6377868652344 493.3623046875 202.0712890625 344.8164978027344 C 121.3096694946289 -73.47257995605469 154.40777587890625 288.5838928222656 490.9180603027344 237.07179260253906 C 603.5552368164062 108.6014404296875 675.212646484375 118.8790512084961 561.8320922851562 322.80230712890625" fill="rgb(94, 24, 1)" opacity="0.4600971" stroke="rgb(62, 207, 221)" stroke-linecap="round" stroke-linejoin="round" stroke-opacity="0.6890213" stroke-width="0.0"/>
    <path d="M 231.20521545410156 285.6971435546875 C 227.94598388671875 291.9877014160156 207.48117065429688 262.92144775390625 181.35595703125 237.28756713867188 C 151.91026306152344 228.3782501220703 135.90989685058594 198.14926147460938 147.45765686035156 174.3501739501953 C 147.2119903564453 174.20590209960938 170.18203735351562 135.3086700439453 172.6485137939453 176.02349853515625 C 234.7832794189453 188.24493408203125 166.51182556152344 125.8067398071289 231.20521545410156 285.6971435546875" fill="rgb(8, 0, 2)" opacity="0.8887338" stroke="rgb(79, 207, 9)" stroke-linecap="round" stroke-linejoin="round" stroke-opacity="0.40038434" stroke-width="0.0"/>
    <path d="M 782.6561889648438 4.687595844268799 C 784.1107788085938 348.0768737792969 705.3861694335938 336.7337951660156 641.8880004882812 98.78516387939453 C 520.5394897460938 35.96212387084961 656.2461547851562 183.40652465820312 425.57513427734375 242.82347106933594 C 334.1094665527344 145.35928344726562 328.0305480957031 63.13364028930664 355.6536865234375 -7.701388359069824 C 661.8538818359375 -13.115880966186523 671.7240600585938 -26.617656707763672 782.6561889648438 4.687595844268799" fill="rgb(135, 173, 185)" opacity="0.9736527" stroke="rgb(134, 147, 196)" stroke-linecap="round" stroke-linejoin="round" stroke-opacity="0.23631054" stroke-width="0.0"/>
  </g>
</svg>
