<?xml version="1.0" ?>
<svg height="768" version="1.1" width="768" xmlns="http://www.w3.org/2000/svg">
  <defs/>
  <g>
    <path d="M 784.7955932617188 579.2120971679688 C 797.5472412109375 629.9478759765625 643.091552734375 614.9668579101562 79.73741912841797 550.7993774414062 C 50.18777084350586 286.9660949707031 96.03968048095703 7.081153392791748 228.72535705566406 -270.3979797363281 C 483.6202087402344 -28.22979736328125 494.6453552246094 -21.558963775634766 739.261474609375 -13.137572288513184 C 787.3477172851562 -14.588802337646484 787.4075317382812 -12.308146476745605 784.7955932617188 579.2120971679688" fill="rgb(105, 144, 161)" opacity="0.9839296" stroke="rgb(104, 43, 149)" stroke-linecap="round" stroke-linejoin="round" stroke-opacity="0.9905801" stroke-width="0.0"/>
    <path d="M 462.52899169921875 393.3809509277344 C 454.3684997558594 408.7077331542969 491.5074768066406 405.0712585449219 343.7402648925781 423.0245056152344 C 223.07923889160156 427.1979064941406 151.4468231201172 424.4501953125 166.33609008789062 409.5033264160156 C 312.6390686035156 409.2059631347656 333.3231506347656 418.39007568359375 274.342041015625 409.9620056152344 C 270.79437255859375 412.8057556152344 356.16778564453125 413.3941955566406 462.52899169921875 393.3809509277344" fill="rgb(254, 252, 252)" opacity="0.9883396" stroke="rgb(18, 123, 58)" stroke-linecap="round" stroke-linejoin="round" stroke-opacity="0.11030113" stroke-width="0.0"/>
    <path d="M 460.913330078125 419.65533447265625 C 414.28564453125 465.7215881347656 366.17138671875 467.69830322265625 328.1666564941406 474.41632080078125 C 310.49853515625 473.1444396972656 261.0663146972656 484.08868408203125 194.59649658203125 437.5130920410156 C 171.28651428222656 423.4002990722656 211.58734130859375 440.0230712890625 326.32989501953125 432.6578674316406 C 436.93426513671875 430.6466369628906 468.1626281738281 400.2937316894531 460.913330078125 419.65533447265625" fill="rgb(251, 251, 250)" opacity="0.97963613" stroke="rgb(124, 182, 1)" stroke-linecap="round" stroke-linejoin="round" stroke-opacity="0.660186" stroke-width="0.0"/>
    <path d="M 539.0935668945312 397.47540283203125 C 373.5132751464844 628.8096923828125 498.9694519042969 353.2550354003906 449.92218017578125 396.04229736328125 C 207.5774688720703 428.518798828125 125.24198913574219 403.4232482910156 117.39663696289062 381.8507385253906 C 302.97882080078125 218.92478942871094 645.7687377929688 208.4808807373047 716.9801635742188 295.1741943359375 C 674.325927734375 310.2967224121094 671.775390625 374.5383605957031 539.0935668945312 397.47540283203125" fill="rgb(0, 30, 72)" opacity="0.56489694" stroke="rgb(101, 68, 203)" stroke-linecap="round" stroke-linejoin="round" stroke-opacity="0.3888095" stroke-width="0.0"/>
    <path d="M 81.64405059814453 222.50193786621094 C 133.76712036132812 237.5809783935547 314.05657958984375 419.3909606933594 2.890576124191284 550.9224243164062 C -29.10042381286621 201.96142578125 -14.735492706298828 186.46875 -11.730502128601074 -8.403786659240723 C 7.115254878997803 -10.913013458251953 32.528263092041016 -12.87968921661377 128.70985412597656 -9.355857849121094 C 107.4119873046875 75.9302749633789 98.98606872558594 99.05157470703125 81.64405059814453 222.50193786621094" fill="rgb(81, 124, 143)" opacity="0.72136116" stroke="rgb(197, 164, 222)" stroke-linecap="round" stroke-linejoin="round" stroke-opacity="0.09425726" stroke-width="0.0"/>
  </g>
</svg>
