<?xml version="1.0" ?>
<svg height="768" version="1.1" width="768" xmlns="http://www.w3.org/2000/svg">
  <defs/>
  <g>
    <path d="M 784.7955932617188 579.2120971679688 C 797.5472412109375 629.9478759765625 643.091552734375 614.9668579101562 80.20317077636719 550.8034057617188 C 50.63746643066406 287.4562072753906 96.40486907958984 7.621745586395264 228.9089813232422 -270.0981140136719 C 483.6202087402344 -28.22979736328125 494.6453552246094 -21.558963775634766 739.261474609375 -13.137572288513184 C 787.3477172851562 -14.588802337646484 787.4075317382812 -12.308146476745605 784.7955932617188 579.2120971679688" fill="rgb(103, 142, 159)" opacity="0.98680615" stroke="rgb(104, 43, 149)" stroke-linecap="round" stroke-linejoin="round" stroke-opacity="0.9905801" stroke-width="0.0"/>
    <path d="M 462.4549865722656 392.259765625 C 455.4114990234375 409.4209899902344 488.78839111328125 405.2527160644531 344.0599060058594 423.0411682128906 C 224.24549865722656 427.0752868652344 152.6786651611328 424.8314208984375 168.572998046875 409.1732177734375 C 328.1905517578125 411.70404052734375 334.28228759765625 415.4064636230469 267.43157958984375 410.1637878417969 C 281.0157470703125 412.1015625 354.0174560546875 414.17706298828125 462.4549865722656 392.259765625" fill="rgb(253, 252, 252)" opacity="0.98768103" stroke="rgb(18, 123, 58)" stroke-linecap="round" stroke-linejoin="round" stroke-opacity="0.11030113" stroke-width="0.0"/>
    <path d="M 459.39508056640625 420.7076110839844 C 414.52703857421875 466.0644836425781 361.3976135253906 468.4369201660156 328.710693359375 474.4411926269531 C 309.0242004394531 473.24761962890625 261.007080078125 483.79083251953125 194.75155639648438 437.6955261230469 C 171.34591674804688 423.23138427734375 210.16847229003906 440.0201721191406 325.6531677246094 432.69976806640625 C 440.2927551269531 430.5554504394531 467.6295166015625 399.46295166015625 459.39508056640625 420.7076110839844" fill="rgb(251, 251, 250)" opacity="0.97938675" stroke="rgb(124, 182, 1)" stroke-linecap="round" stroke-linejoin="round" stroke-opacity="0.660186" stroke-width="0.0"/>
    <path d="M 554.4430541992188 392.7546691894531 C 303.47564697265625 652.3045043945312 528.0096435546875 358.1719055175781 443.7218933105469 397.9366760253906 C 203.5870361328125 424.8135070800781 133.57711791992188 408.3601379394531 120.93073272705078 381.5557861328125 C 283.422119140625 224.50929260253906 649.6654663085938 206.18121337890625 712.7733764648438 293.69989013671875 C 680.059814453125 319.1943664550781 645.548583984375 381.3523864746094 554.4430541992188 392.7546691894531" fill="rgb(0, 29, 71)" opacity="0.5105369" stroke="rgb(101, 68, 203)" stroke-linecap="round" stroke-linejoin="round" stroke-opacity="0.3888095" stroke-width="0.0"/>
  </g>
</svg>
