<?xml version="1.0" ?>
<svg height="768" version="1.1" width="768" xmlns="http://www.w3.org/2000/svg">
  <defs/>
  <g>
    <path d="M 676.9638061523438 609.140625 C -207.05372619628906 594.082275390625 -172.27342224121094 497.9714050292969 -81.12350463867188 361.76239013671875 C -23.97528076171875 145.40907287597656 -12.114876747131348 98.69737243652344 13.6703462600708 -97.5602035522461 C 111.66980743408203 -19.086069107055664 118.88002014160156 -14.538126945495605 481.6185607910156 -16.475072860717773 C 630.0407104492188 -190.63243103027344 675.52587890625 -388.45294189453125 676.9638061523438 609.140625" fill="rgb(116, 91, 127)" opacity="1.0" stroke="rgb(186, 73, 103)" stroke-linecap="round" stroke-linejoin="round" stroke-opacity="0.104184605" stroke-width="0.0"/>
    <path d="M 700.779052734375 501.7225036621094 C 479.9131774902344 3.8401901721954346 176.7458038330078 105.09368133544922 21.298545837402344 232.86297607421875 C 9.16989803314209 152.859130859375 -39.590919494628906 240.2110137939453 -7.298471450805664 -31.86302947998047 C 121.7973403930664 -14.518567085266113 126.76689910888672 -14.352761268615723 436.8529968261719 -15.549742698669434 C 606.5859375 -207.62225341796875 712.0410766601562 -421.1663818359375 700.779052734375 501.7225036621094" fill="rgb(169, 188, 200)" opacity="1.0" stroke="rgb(27, 35, 35)" stroke-linecap="round" stroke-linejoin="round" stroke-opacity="0.88818324" stroke-width="0.0"/>
    <path d="M 806.556640625 404.1705322265625 C 819.1798095703125 923.4071655273438 808.0254516601562 827.1295776367188 31.942533493041992 778.0179443359375 C 20.04734992980957 673.4854125976562 72.32071685791016 547.3612060546875 215.63510131835938 202.8321533203125 C 563.8242797851562 616.4797973632812 279.72064208984375 574.4273681640625 629.2263793945312 577.1290893554688 C 629.4449462890625 342.2385559082031 788.5628051757812 263.8912353515625 806.556640625 404.1705322265625" fill="rgb(69, 62, 87)" opacity="0.5261164" stroke="rgb(159, 117, 124)" stroke-linecap="round" stroke-linejoin="round" stroke-opacity="0.21626683" stroke-width="0.0"/>
    <path d="M 781.7149047851562 141.3074951171875 C 781.3839111328125 292.0581970214844 781.4129638671875 298.44818115234375 847.3015747070312 383.2294921875 C 675.5136108398438 430.1865234375 641.0562744140625 427.9708557128906 664.3638916015625 385.9732360839844 C 676.7886352539062 198.3552703857422 663.2008056640625 192.1339569091797 680.373291015625 -13.694644927978516 C 912.3394165039062 0.6637631058692932 808.71044921875 73.14002227783203 781.7149047851562 141.3074951171875" fill="rgb(171, 192, 203)" opacity="1.0" stroke="rgb(210, 125, 39)" stroke-linecap="round" stroke-linejoin="round" stroke-opacity="0.63843644" stroke-width="0.0"/>
    <path d="M 775.1302490234375 481.7682189941406 C 777.0325927734375 778.593994140625 727.5506591796875 703.4156494140625 728.4329223632812 588.2577514648438 C 659.113037109375 570.532470703125 555.1177368164062 577.7041625976562 412.5049743652344 575.1842041015625 C 457.98834228515625 467.19781494140625 397.2301940917969 497.6335144042969 537.9735717773438 485.34674072265625 C 643.3526000976562 519.0455932617188 511.07000732421875 439.9605712890625 775.1302490234375 481.7682189941406" fill="rgb(173, 194, 204)" opacity="0.9825179" stroke="rgb(70, 208, 223)" stroke-linecap="round" stroke-linejoin="round" stroke-opacity="0.80849737" stroke-width="0.0"/>
  </g>
</svg>
