<?xml version="1.0" ?>
<svg height="768" version="1.1" width="768" xmlns="http://www.w3.org/2000/svg">
  <defs/>
  <g>
    <path d="M 676.3465576171875 609.5764770507812 C -209.0958709716797 595.10595703125 -173.9095916748047 499.03765869140625 -81.36602020263672 362.04327392578125 C -23.97528076171875 145.40907287597656 -12.114876747131348 98.69737243652344 13.6703462600708 -97.5602035522461 C 111.66980743408203 -19.086069107055664 118.88002014160156 -14.538126945495605 481.56048583984375 -16.475072860717773 C 629.7754516601562 -190.6053009033203 675.013427734375 -388.34918212890625 676.3465576171875 609.5764770507812" fill="rgb(117, 98, 128)" opacity="0.9924734" stroke="rgb(186, 73, 103)" stroke-linecap="round" stroke-linejoin="round" stroke-opacity="0.104184605" stroke-width="0.0"/>
    <path d="M 702.6243896484375 496.3091735839844 C 476.35888671875 7.719945430755615 179.93515014648438 103.6309585571289 22.742300033569336 231.66082763671875 C 2.0256290435791016 155.8659210205078 -37.15653610229492 213.110107421875 -6.678659439086914 -44.35592269897461 C 121.7973403930664 -14.518567085266113 126.76689910888672 -14.352761268615723 431.7010192871094 -15.458794593811035 C 600.0380249023438 -203.28207397460938 707.1463012695312 -416.804931640625 702.6243896484375 496.3091735839844" fill="rgb(171, 191, 203)" opacity="0.9811007" stroke="rgb(27, 35, 35)" stroke-linecap="round" stroke-linejoin="round" stroke-opacity="0.88818324" stroke-width="0.0"/>
    <path d="M 804.5408935546875 415.4496154785156 C 814.7258911132812 914.9047241210938 800.8460083007812 823.7215576171875 45.48579788208008 779.7863159179688 C 27.54684066772461 680.9818115234375 76.90310668945312 555.5582885742188 212.05563354492188 237.0420684814453 C 481.5560302734375 590.4330444335938 372.0120544433594 612.1974487304688 682.9425048828125 572.2651977539062 C 614.1844482421875 346.0393371582031 779.5164184570312 269.2024230957031 804.5408935546875 415.4496154785156" fill="rgb(72, 72, 98)" opacity="0.45811224" stroke="rgb(159, 117, 124)" stroke-linecap="round" stroke-linejoin="round" stroke-opacity="0.21626683" stroke-width="0.0"/>
  </g>
</svg>
