<?xml version="1.0" ?>
<svg height="768" version="1.1" width="768" xmlns="http://www.w3.org/2000/svg">
  <defs/>
  <g>
    <path d="M 676.3751831054688 609.3045654296875 C -207.832763671875 594.4691162109375 -172.90528869628906 498.3768615722656 -81.21856689453125 361.870361328125 C -23.97528076171875 145.40907287597656 -12.114876747131348 98.69737243652344 13.6703462600708 -97.5602035522461 C 111.66980743408203 -19.086069107055664 118.88002014160156 -14.538126945495605 481.59417724609375 -16.475072860717773 C 629.9096069335938 -190.62100219726562 675.1753540039062 -388.39996337890625 676.3751831054688 609.3045654296875" fill="rgb(123, 112, 142)" opacity="0.94009244" stroke="rgb(186, 73, 103)" stroke-linecap="round" stroke-linejoin="round" stroke-opacity="0.104184605" stroke-width="0.0"/>
    <path d="M 705.8303833007812 495.343994140625 C 470.66339111328125 5.672510623931885 181.3109893798828 103.97362518310547 21.693748474121094 231.73670959472656 C 7.586163520812988 153.9178466796875 -39.151092529296875 233.8331756591797 -7.151364803314209 -35.23108673095703 C 121.7973403930664 -14.518567085266113 126.76689910888672 -14.352761268615723 436.8502197265625 -15.549605369567871 C 606.5939331054688 -207.61830139160156 712.0325317382812 -421.1737976074219 705.8303833007812 495.343994140625" fill="rgb(169, 188, 200)" opacity="1.0" stroke="rgb(27, 35, 35)" stroke-linecap="round" stroke-linejoin="round" stroke-opacity="0.88818324" stroke-width="0.0"/>
    <path d="M 806.4202880859375 403.4338073730469 C 819.1798095703125 923.4071655273438 808.0254516601562 827.1295776367188 32.59041213989258 778.2196044921875 C 20.250682830810547 673.420166015625 72.21791076660156 546.9513549804688 214.93051147460938 204.262451171875 C 550.6732177734375 612.4998779296875 279.30938720703125 584.0723876953125 679.1848754882812 577.4979248046875 C 650.744384765625 343.9402160644531 791.8399047851562 263.1366271972656 806.4202880859375 403.4338073730469" fill="rgb(29, 7, 38)" opacity="0.36038113" stroke="rgb(159, 117, 124)" stroke-linecap="round" stroke-linejoin="round" stroke-opacity="0.21626683" stroke-width="0.0"/>
    <path d="M 781.7149047851562 141.3074951171875 C 781.3839111328125 292.0581970214844 781.4129638671875 298.44818115234375 807.8155517578125 370.0552978515625 C 664.1340942382812 387.8760070800781 677.6314697265625 370.5213623046875 684.9801635742188 332.3321838378906 C 681.5381469726562 198.04629516601562 672.7599487304688 192.38302612304688 684.80517578125 -13.674530982971191 C 912.3394165039062 0.6637631058692932 808.71044921875 73.14002227783203 781.7149047851562 141.3074951171875" fill="rgb(171, 192, 203)" opacity="0.9817769" stroke="rgb(210, 125, 39)" stroke-linecap="round" stroke-linejoin="round" stroke-opacity="0.63843644" stroke-width="0.0"/>
  </g>
</svg>
