<?xml version="1.0" ?>
<svg height="768" version="1.1" width="768" xmlns="http://www.w3.org/2000/svg">
  <defs/>
  <g>
    <path d="M 292.92315673828125 894.3091430664062 C 145.0909423828125 783.5782470703125 133.60562133789062 780.5917358398438 -12.36651611328125 779.4637451171875 C -14.921255111694336 749.3291625976562 -14.139986991882324 741.1248168945312 -16.784482955932617 360.28240966796875 C -249.5587921142578 249.70835876464844 -365.2960205078125 194.20616149902344 653.0162963867188 195.08795166015625 C 592.4959716796875 1010.7787475585938 457.26751708984375 974.99169921875 292.92315673828125 894.3091430664062" fill="rgb(115, 164, 175)" opacity="0.9473035" stroke="rgb(234, 185, 59)" stroke-linecap="round" stroke-linejoin="round" stroke-opacity="0.45887268" stroke-width="0.0"/>
    <path d="M 785.2551879882812 31.76271629333496 C 782.7216796875 403.0257873535156 782.760009765625 411.19061279296875 928.7681884765625 586.7733764648438 C 936.9596557617188 671.1409912109375 853.939697265625 767.7180786132812 569.9825439453125 825.7653198242188 C 513.599853515625 463.691650390625 284.4580383300781 571.1460571289062 143.65048217773438 0.7128106951713562 C 730.0051879882812 -23.452482223510742 855.20458984375 -11.94580364227295 785.2551879882812 31.76271629333496" fill="rgb(104, 136, 147)" opacity="0.84426093" stroke="rgb(73, 138, 205)" stroke-linecap="round" stroke-linejoin="round" stroke-opacity="0.46606448" stroke-width="0.0"/>
    <path d="M 376.62030029296875 -19.467905044555664 C 431.7684631347656 89.86267852783203 343.9856262207031 8.56472110748291 260.0882263183594 221.36354064941406 C 156.3378448486328 230.2860565185547 97.9975357055664 233.19232177734375 -11.741731643676758 233.50340270996094 C -13.830174446105957 -20.254451751708984 -9.799503326416016 -25.179187774658203 7.9930219650268555 -15.106690406799316 C 212.4846649169922 -14.012441635131836 204.31869506835938 -5.526943206787109 376.62030029296875 -19.467905044555664" fill="rgb(108, 127, 137)" opacity="1.0" stroke="rgb(106, 200, 45)" stroke-linecap="round" stroke-linejoin="round" stroke-opacity="0.3756914" stroke-width="0.0"/>
    <path d="M 462.7734375 260.5385437011719 C 425.7521667480469 624.664794921875 541.75439453125 338.2024841308594 482.2037048339844 615.13916015625 C 294.98291015625 518.2998046875 333.6669921875 547.1303100585938 369.9548645019531 280.4845886230469 C 139.4741973876953 332.421630859375 249.88970947265625 456.43463134765625 268.6129150390625 200.45269775390625 C 338.2932434082031 48.603065490722656 497.957763671875 76.0050048828125 462.7734375 260.5385437011719" fill="rgb(107, 219, 242)" opacity="0.92125744" stroke="rgb(37, 206, 134)" stroke-linecap="round" stroke-linejoin="round" stroke-opacity="0.15225805" stroke-width="0.0"/>
    <path d="M 432.652099609375 306.8340148925781 C 437.1314392089844 349.2306213378906 433.55908203125 372.7275695800781 358.0008850097656 366.3175964355469 C 350.5947265625 345.9370422363281 442.4364013671875 390.7098693847656 425.76025390625 308.60162353515625 C 378.66461181640625 317.8138122558594 317.02874755859375 302.422607421875 426.953857421875 304.55780029296875 C 448.21630859375 248.69776916503906 466.990234375 236.38983154296875 432.652099609375 306.8340148925781" fill="rgb(245, 255, 254)" opacity="0.9439752" stroke="rgb(205, 81, 47)" stroke-linecap="round" stroke-linejoin="round" stroke-opacity="0.9258731" stroke-width="0.0"/>
  </g>
</svg>
