<?xml version="1.0" ?>
<svg height="768" version="1.1" width="768" xmlns="http://www.w3.org/2000/svg">
  <defs/>
  <g>
    <path d="M 292.9112854003906 894.28173828125 C 145.0909423828125 783.5782470703125 133.60562133789062 780.5917358398438 -12.36651611328125 779.4637451171875 C -14.921255111694336 749.3291625976562 -14.139986991882324 741.1248168945312 -16.784482955932617 360.28240966796875 C -249.5587921142578 249.70835876464844 -365.2960205078125 194.2119598388672 653.0162963867188 195.0956268310547 C 592.4654541015625 1010.716552734375 457.2283630371094 974.9205322265625 292.9112854003906 894.28173828125" fill="rgb(110, 157, 169)" opacity="0.9590015" stroke="rgb(234, 185, 59)" stroke-linecap="round" stroke-linejoin="round" stroke-opacity="0.45887268" stroke-width="0.0"/>
    <path d="M 785.2551879882812 31.76271629333496 C 782.7216796875 403.0257873535156 782.760009765625 411.19061279296875 928.6080322265625 586.742919921875 C 936.3442993164062 670.951416015625 853.2059936523438 767.2559814453125 575.1839599609375 825.030029296875 C 516.3169555664062 461.2303161621094 285.09991455078125 570.1804809570312 143.7628631591797 0.6291856169700623 C 730.0051879882812 -23.452482223510742 855.20458984375 -11.94580364227295 785.2551879882812 31.76271629333496" fill="rgb(105, 137, 149)" opacity="0.84516597" stroke="rgb(73, 138, 205)" stroke-linecap="round" stroke-linejoin="round" stroke-opacity="0.46606448" stroke-width="0.0"/>
    <path d="M 373.6971435546875 -25.990060806274414 C 430.1595153808594 81.4665298461914 348.32586669921875 13.615578651428223 259.4227294921875 220.30148315429688 C 155.07073974609375 228.91575622558594 97.30287170410156 231.70144653320312 -11.750165939331055 232.5037384033203 C -13.830174446105957 -20.254451751708984 -9.799503326416016 -25.179187774658203 7.9930219650268555 -15.106690406799316 C 212.4846649169922 -14.012441635131836 204.31869506835938 -5.526943206787109 373.6971435546875 -25.990060806274414" fill="rgb(108, 127, 137)" opacity="0.98728585" stroke="rgb(106, 200, 45)" stroke-linecap="round" stroke-linejoin="round" stroke-opacity="0.3756914" stroke-width="0.0"/>
    <path d="M 463.3205261230469 261.1593017578125 C 424.2099609375 615.3232421875 544.5728149414062 352.2203369140625 481.6484375 607.3458862304688 C 291.158935546875 538.5747680664062 337.6952819824219 520.2255249023438 370.0487365722656 279.8606262207031 C 185.159912109375 318.2401123046875 229.62864685058594 460.9624328613281 272.63018798828125 189.86715698242188 C 353.3498229980469 46.713592529296875 494.8240966796875 84.6166763305664 463.3205261230469 261.1593017578125" fill="rgb(109, 229, 254)" opacity="0.77987117" stroke="rgb(37, 206, 134)" stroke-linecap="round" stroke-linejoin="round" stroke-opacity="0.15225805" stroke-width="0.0"/>
  </g>
</svg>
