<?xml version="1.0" ?>
<svg height="768" version="1.1" width="768" xmlns="http://www.w3.org/2000/svg">
  <defs/>
  <g>
    <path d="M 292.8749694824219 894.1998901367188 C 145.0909423828125 783.5782470703125 133.60562133789062 780.5917358398438 -12.36651611328125 779.4637451171875 C -14.921255111694336 749.3291625976562 -14.139986991882324 741.1248168945312 -16.784482955932617 360.2779846191406 C -249.56369018554688 249.6962890625 -365.3087463378906 194.19073486328125 652.9700317382812 195.06057739257812 C 592.3372192382812 1010.4774169921875 457.07769775390625 974.6552734375 292.8749694824219 894.1998901367188" fill="rgb(106, 125, 135)" opacity="0.99986076" stroke="rgb(234, 185, 59)" stroke-linecap="round" stroke-linejoin="round" stroke-opacity="0.45887268" stroke-width="0.0"/>
    <path d="M 785.2551879882812 31.76271629333496 C 782.7216796875 403.0257873535156 782.760009765625 411.19061279296875 928.56494140625 586.7379760742188 C 936.1729736328125 670.89892578125 852.9996948242188 767.1260986328125 578.5092163085938 824.7005004882812 C 517.6978149414062 457.608642578125 285.3094787597656 569.599609375 143.74575805664062 0.6450595259666443 C 730.0051879882812 -23.45210075378418 855.20458984375 -11.94580364227295 785.2551879882812 31.76271629333496" fill="rgb(109, 160, 175)" opacity="0.9984452" stroke="rgb(73, 138, 205)" stroke-linecap="round" stroke-linejoin="round" stroke-opacity="0.46606448" stroke-width="0.0"/>
    <path d="M 357.6177062988281 -61.68244171142578 C 411.5450134277344 63.32355499267578 360.7627258300781 45.01103210449219 258.2817077636719 210.34312438964844 C 149.68890380859375 222.09242248535156 95.17401123046875 223.07916259765625 -11.780720710754395 222.6414794921875 C -13.830174446105957 -20.254451751708984 -9.799503326416016 -25.179187774658203 7.993038654327393 -15.10775375366211 C 212.4845733642578 -14.008805274963379 204.32867431640625 -5.509476661682129 357.6177062988281 -61.68244171142578" fill="rgb(109, 126, 135)" opacity="0.8692304" stroke="rgb(106, 200, 45)" stroke-linecap="round" stroke-linejoin="round" stroke-opacity="0.3756914" stroke-width="0.0"/>
  </g>
</svg>
