<?xml version="1.0" ?>
<svg height="768" version="1.1" width="768" xmlns="http://www.w3.org/2000/svg">
  <defs/>
  <g>
    <path d="M 767.8602905273438 130.07786560058594 C 781.379638671875 936.3087158203125 772.2905883789062 855.9923706054688 727.4328002929688 783.5123901367188 C 422.6979064941406 782.4649658203125 418.5091247558594 782.1798095703125 276.9805603027344 1000.6797485351562 C 109.8585205078125 983.8385620117188 -14.452591896057129 996.4899291992188 -54.92340087890625 318.9491271972656 C 77.53828430175781 222.85137939453125 163.8223419189453 163.86143493652344 767.8602905273438 130.07786560058594" fill="rgb(102, 137, 163)" opacity="0.9988264" stroke="rgb(174, 5, 196)" stroke-linecap="round" stroke-linejoin="round" stroke-opacity="0.55835325" stroke-width="0.0"/>
    <path d="M 228.46002197265625 -221.67759704589844 C 368.5989074707031 -162.7865447998047 507.23260498046875 -209.095703125 577.07861328125 178.669677734375 C -22.200021743774414 273.85760498046875 -12.737089157104492 298.8372497558594 -11.880284309387207 290.33660888671875 C -14.619240760803223 -27.18704605102539 -4.918259143829346 -16.320629119873047 28.8984432220459 -11.958702087402344 C 87.42816162109375 -13.304203987121582 106.72502136230469 -24.367252349853516 228.46002197265625 -221.67759704589844" fill="rgb(106, 145, 174)" opacity="1.0" stroke="rgb(141, 49, 196)" stroke-linecap="round" stroke-linejoin="round" stroke-opacity="0.621821" stroke-width="0.0"/>
    <path d="M 519.4411010742188 441.9862976074219 C 73.06250762939453 427.3865051269531 736.7208251953125 635.7012329101562 296.9876403808594 581.5009155273438 C 512.4541015625 330.91351318359375 206.40969848632812 486.268798828125 208.3287811279297 444.5628662109375 C 377.4447326660156 336.6113586425781 276.030517578125 227.35386657714844 389.0624084472656 166.4420166015625 C 473.81158447265625 491.71600341796875 552.3781127929688 378.0668640136719 519.4411010742188 441.9862976074219" fill="rgb(58, 78, 93)" opacity="0.897374" stroke="rgb(116, 30, 223)" stroke-linecap="round" stroke-linejoin="round" stroke-opacity="0.13596645" stroke-width="0.0"/>
    <path d="M 341.46746826171875 232.35687255859375 C 342.97509765625 242.6483917236328 339.82904052734375 255.6354217529297 338.85516357421875 253.33270263671875 C 331.8749084472656 254.66305541992188 332.3778076171875 247.1712646484375 331.77850341796875 239.6682891845703 C 328.722900390625 263.2505798339844 330.8311767578125 217.8562469482422 342.1557312011719 231.92860412597656 C 338.80670166015625 226.29541015625 338.8067932128906 226.64256286621094 341.46746826171875 232.35687255859375" fill="rgb(244, 218, 217)" opacity="0.9158961" stroke="rgb(116, 95, 84)" stroke-linecap="round" stroke-linejoin="round" stroke-opacity="0.5378877" stroke-width="0.0"/>
  </g>
</svg>
