<?xml version="1.0" ?>
<svg height="768" version="1.1" width="768" xmlns="http://www.w3.org/2000/svg">
  <defs/>
  <g>
    <path d="M 767.8414916992188 130.07786560058594 C 781.379638671875 936.3087158203125 772.2905883789062 855.9923706054688 727.4328002929688 783.5123901367188 C 422.6979064941406 782.4649658203125 418.5091247558594 782.1798095703125 277.0006103515625 1000.6224365234375 C 109.94818878173828 983.7145385742188 -14.358499526977539 996.3646850585938 -54.88760757446289 318.9351501464844 C 77.53828430175781 222.85137939453125 163.8223419189453 163.86143493652344 767.8414916992188 130.07786560058594" fill="rgb(104, 141, 168)" opacity="0.9926085" stroke="rgb(174, 5, 196)" stroke-linecap="round" stroke-linejoin="round" stroke-opacity="0.55835325" stroke-width="0.0"/>
    <path d="M 228.46002197265625 -221.67759704589844 C 368.5989074707031 -162.78515625 507.2298583984375 -209.0882568359375 576.9088134765625 177.42169189453125 C -27.859922409057617 272.5622863769531 -14.911972045898438 297.3265380859375 -12.087349891662598 288.2384338378906 C -14.619240760803223 -27.18704605102539 -4.918259143829346 -16.320629119873047 28.8984432220459 -11.958702087402344 C 87.42816162109375 -13.304203987121582 106.72502136230469 -24.367252349853516 228.46002197265625 -221.67759704589844" fill="rgb(106, 145, 174)" opacity="1.0" stroke="rgb(141, 49, 196)" stroke-linecap="round" stroke-linejoin="round" stroke-opacity="0.621821" stroke-width="0.0"/>
    <path d="M 536.239501953125 450.94091796875 C 156.79388427734375 411.6859130859375 691.5707397460938 654.1174926757812 300.0423278808594 580.9133911132812 C 453.70635986328125 349.73138427734375 215.54039001464844 479.45220947265625 203.2946014404297 447.4609069824219 C 378.7569274902344 332.91644287109375 271.041015625 227.41891479492188 393.98419189453125 162.96946716308594 C 462.0357360839844 472.5347595214844 590.2484741210938 420.7731018066406 536.239501953125 450.94091796875" fill="rgb(75, 100, 119)" opacity="0.91493815" stroke="rgb(116, 30, 223)" stroke-linecap="round" stroke-linejoin="round" stroke-opacity="0.13596645" stroke-width="0.0"/>
  </g>
</svg>
