<?xml version="1.0" ?>
<svg height="768" version="1.1" width="768" xmlns="http://www.w3.org/2000/svg">
  <defs/>
  <g>
    <path d="M 767.827880859375 129.8466796875 C 781.379638671875 936.3087158203125 772.2905883789062 855.9923706054688 727.4328002929688 783.5123901367188 C 422.6979064941406 782.4649658203125 418.5091247558594 782.1798095703125 276.97222900390625 1000.7095947265625 C 109.82137298583984 983.8884887695312 -14.491756439208984 996.5404663085938 -54.93842315673828 318.9491271972656 C 77.53645324707031 222.84645080566406 163.7969970703125 163.81170654296875 767.827880859375 129.8466796875" fill="rgb(103, 139, 164)" opacity="0.9987881" stroke="rgb(174, 5, 196)" stroke-linecap="round" stroke-linejoin="round" stroke-opacity="0.55835325" stroke-width="0.0"/>
    <path d="M 228.4691925048828 -221.71328735351562 C 368.7175598144531 -163.004150390625 507.66748046875 -209.70977783203125 578.0317993164062 179.2793426513672 C -18.463666915893555 274.7250671386719 -11.348564147949219 299.79498291015625 -11.741552352905273 291.71405029296875 C -14.619240760803223 -27.18704605102539 -4.918259143829346 -16.320629119873047 28.8984432220459 -11.958702087402344 C 87.42816162109375 -13.304203987121582 106.72502136230469 -24.367252349853516 228.4691925048828 -221.71328735351562" fill="rgb(106, 145, 174)" opacity="1.0" stroke="rgb(141, 49, 196)" stroke-linecap="round" stroke-linejoin="round" stroke-opacity="0.621821" stroke-width="0.0"/>
    <path d="M 533.7745971679688 449.742431640625 C 11.997118949890137 386.8849182128906 756.4050903320312 643.9256591796875 296.7731628417969 580.8636474609375 C 524.063720703125 327.20587158203125 197.24261474609375 489.9018859863281 209.76475524902344 443.0110168457031 C 375.45440673828125 338.91961669921875 277.18798828125 223.96640014648438 389.2337646484375 167.24281311035156 C 479.14471435546875 490.05859375 530.2124633789062 367.7743225097656 533.7745971679688 449.742431640625" fill="rgb(59, 78, 93)" opacity="0.8923714" stroke="rgb(116, 30, 223)" stroke-linecap="round" stroke-linejoin="round" stroke-opacity="0.13596645" stroke-width="0.0"/>
    <path d="M 341.2251892089844 230.816650390625 C 343.6617736816406 246.49339294433594 336.7499084472656 256.33282470703125 342.99603271484375 252.4918975830078 C 330.203857421875 256.8311462402344 333.24346923828125 246.38380432128906 331.8192138671875 240.55039978027344 C 329.54547119140625 266.9086608886719 329.3472595214844 218.6372833251953 342.2074890136719 231.11993408203125 C 338.2804870605469 225.86492919921875 338.958984375 229.8193359375 341.2251892089844 230.816650390625" fill="rgb(244, 217, 216)" opacity="0.9129061" stroke="rgb(116, 95, 84)" stroke-linecap="round" stroke-linejoin="round" stroke-opacity="0.5378877" stroke-width="0.0"/>
    <path d="M 780.74755859375 -13.9173002243042 C 784.1953735351562 193.26449584960938 771.643310546875 174.793212890625 741.5848388671875 165.9613037109375 C 568.7881469726562 170.69293212890625 564.4536743164062 166.16183471679688 553.2947998046875 159.04808044433594 C 541.9186401367188 44.3725471496582 534.711669921875 37.599464416503906 524.165771484375 -10.905892372131348 C 668.906982421875 -14.18963623046875 688.9548950195312 -14.718890190124512 780.74755859375 -13.9173002243042" fill="rgb(106, 145, 173)" opacity="1.0" stroke="rgb(51, 131, 198)" stroke-linecap="round" stroke-linejoin="round" stroke-opacity="0.88745385" stroke-width="0.0"/>
  </g>
</svg>
