<?xml version="1.0" ?>
<svg height="768" version="1.1" width="768" xmlns="http://www.w3.org/2000/svg">
  <defs/>
  <g>
    <path d="M 767.1314697265625 618.4249267578125 C 230.02198791503906 602.9188842773438 140.81265258789062 567.94189453125 -41.53232192993164 500.73565673828125 C -10.735854148864746 -235.4955291748047 116.6507339477539 -233.3264923095703 305.0450439453125 -282.6155700683594 C 464.10162353515625 -17.072294235229492 473.8721008300781 -13.6232271194458 776.8167724609375 -13.216102600097656 C 783.5891723632812 -33.92862319946289 786.1851196289062 -11.235902786254883 767.1314697265625 618.4249267578125" fill="rgb(131, 105, 94)" opacity="0.96604" stroke="rgb(189, 177, 45)" stroke-linecap="round" stroke-linejoin="round" stroke-opacity="0.0065255114" stroke-width="0.0"/>
    <path d="M 778.1146850585938 588.939208984375 C 782.64306640625 814.3651123046875 776.4285888671875 797.4237670898438 750.8416137695312 781.579833984375 C 570.003173828125 783.8289184570312 564.1392822265625 784.826904296875 447.0933837890625 955.532470703125 C 330.1412353515625 939.7069091796875 166.19174194335938 999.0593872070312 59.173744201660156 554.02099609375 C 710.0269165039062 551.98193359375 727.3143920898438 583.830322265625 778.1146850585938 588.939208984375" fill="rgb(133, 116, 116)" opacity="1.0" stroke="rgb(159, 64, 69)" stroke-linecap="round" stroke-linejoin="round" stroke-opacity="0.93210244" stroke-width="0.0"/>
    <path d="M 453.21258544921875 239.80201721191406 C 198.66305541992188 615.7606811523438 698.3314208984375 278.3099365234375 483.3367919921875 544.4993286132812 C 191.76834106445312 539.5501098632812 190.47784423828125 546.0396118164062 155.90353393554688 526.7642211914062 C 73.79786682128906 478.5628967285156 89.59024047851562 241.5533447265625 266.56427001953125 228.38079833984375 C 433.061279296875 225.04087829589844 391.1044921875 310.24237060546875 453.21258544921875 239.80201721191406" fill="rgb(72, 41, 23)" opacity="0.94230974" stroke="rgb(20, 82, 209)" stroke-linecap="round" stroke-linejoin="round" stroke-opacity="0.60177547" stroke-width="0.0"/>
    <path d="M 114.2955093383789 604.5457153320312 C 136.99314880371094 774.45361328125 144.66726684570312 778.7052612304688 113.45390319824219 781.3922119140625 C -25.658323287963867 784.5731201171875 -17.62748146057129 777.3887939453125 -11.607396125793457 752.9945678710938 C -13.717012405395508 637.345703125 -20.759326934814453 628.2788696289062 1.648535132408142 506.6839904785156 C 174.97015380859375 522.1658325195312 122.35704803466797 554.7076416015625 114.2955093383789 604.5457153320312" fill="rgb(132, 116, 116)" opacity="0.99100065" stroke="rgb(71, 170, 141)" stroke-linecap="round" stroke-linejoin="round" stroke-opacity="0.56989187" stroke-width="0.0"/>
    <path d="M 601.7018432617188 239.3088836669922 C 637.833740234375 328.49224853515625 675.9969482421875 291.6311340332031 587.576416015625 316.10052490234375 C 587.74462890625 350.48431396484375 556.5834350585938 189.93011474609375 414.4530944824219 301.05767822265625 C 426.11322021484375 216.59120178222656 577.8781127929688 235.2333984375 557.9959716796875 246.4051971435547 C 595.4234619140625 203.1728515625 570.0435791015625 262.1301574707031 601.7018432617188 239.3088836669922" fill="rgb(63, 35, 20)" opacity="0.96611995" stroke="rgb(105, 209, 235)" stroke-linecap="round" stroke-linejoin="round" stroke-opacity="0.31709114" stroke-width="0.0"/>
  </g>
</svg>
