<?xml version="1.0" ?>
<svg height="768" version="1.1" width="768" xmlns="http://www.w3.org/2000/svg">
  <defs/>
  <g>
    <path d="M 767.1348876953125 618.421630859375 C 230.1463165283203 602.8867797851562 141.1559295654297 567.8241577148438 -41.43352508544922 500.53717041015625 C -10.66175365447998 -235.41561889648438 116.72023010253906 -233.25350952148438 305.05908203125 -282.5782775878906 C 464.10162353515625 -17.072294235229492 473.8721008300781 -13.6232271194458 776.8167724609375 -13.216102600097656 C 783.5891723632812 -33.92862319946289 786.1851196289062 -11.235902786254883 767.1348876953125 618.421630859375" fill="rgb(127, 104, 97)" opacity="0.9624557" stroke="rgb(189, 177, 45)" stroke-linecap="round" stroke-linejoin="round" stroke-opacity="0.0065255114" stroke-width="0.0"/>
    <path d="M 778.1146850585938 589.3638305664062 C 782.64306640625 814.3651123046875 776.4285888671875 797.4237670898438 750.8416137695312 781.579833984375 C 570.003173828125 783.8289184570312 564.1392822265625 784.826904296875 447.1151123046875 955.4175415039062 C 330.4595642089844 939.0022583007812 167.3347930908203 997.6215209960938 60.86313247680664 555.5717163085938 C 709.9862670898438 552.6969604492188 727.2510375976562 583.9796142578125 778.1146850585938 589.3638305664062" fill="rgb(133, 116, 116)" opacity="1.0" stroke="rgb(159, 64, 69)" stroke-linecap="round" stroke-linejoin="round" stroke-opacity="0.93210244" stroke-width="0.0"/>
    <path d="M 454.5229187011719 249.34161376953125 C 219.3251190185547 618.3113403320312 654.4743041992188 274.87237548828125 499.0393371582031 542.9298706054688 C 208.12179565429688 541.957763671875 176.5279083251953 546.1006469726562 150.5322723388672 522.290771484375 C 82.49027252197266 481.2284240722656 81.49671173095703 250.727294921875 262.5162048339844 227.89346313476562 C 437.57183837890625 227.78146362304688 375.4912414550781 297.3670959472656 454.5229187011719 249.34161376953125" fill="rgb(78, 45, 25)" opacity="0.93116415" stroke="rgb(20, 82, 209)" stroke-linecap="round" stroke-linejoin="round" stroke-opacity="0.60177547" stroke-width="0.0"/>
  </g>
</svg>
