<?xml version="1.0" ?>
<svg height="768" version="1.1" width="768" xmlns="http://www.w3.org/2000/svg">
  <defs/>
  <g>
    <path d="M 767.9918823242188 815.4517211914062 C 654.185791015625 784.9880981445312 643.1788330078125 786.4727172851562 -30.541059494018555 767.1096801757812 C 7.591226577758789 380.721435546875 53.2965087890625 255.5532989501953 123.64527130126953 33.90451431274414 C 820.7369384765625 91.9212875366211 893.3115234375 192.5438995361328 863.86669921875 319.3174743652344 C 789.00244140625 532.7655029296875 784.6632690429688 594.298828125 767.9918823242188 815.4517211914062" fill="rgb(114, 120, 110)" opacity="0.9904599" stroke="rgb(196, 8, 111)" stroke-linecap="round" stroke-linejoin="round" stroke-opacity="0.7578672" stroke-width="0.0"/>
    <path d="M 780.740478515625 10.613191604614258 C 780.58447265625 138.2410125732422 780.4802856445312 143.66990661621094 780.1760864257812 163.5542755126953 C 707.2576904296875 162.75399780273438 708.4089965820312 165.8206024169922 611.8216552734375 237.1824188232422 C 538.2011108398438 200.7178192138672 420.3318786621094 285.6295166015625 236.85687255859375 2.194042444229126 C 799.310546875 -31.31501007080078 793.626708984375 -9.878089904785156 780.740478515625 10.613191604614258" fill="rgb(98, 103, 114)" opacity="0.9786454" stroke="rgb(87, 197, 245)" stroke-linecap="round" stroke-linejoin="round" stroke-opacity="0.62311494" stroke-width="0.0"/>
    <path d="M 32.79739761352539 365.24066162109375 C 76.65296936035156 429.77880859375 120.281005859375 458.73065185546875 19.614946365356445 535.2213134765625 C -106.34098052978516 482.3689880371094 -50.91355514526367 456.95477294921875 -160.35818481445312 149.6727752685547 C -369.9931945800781 68.64694213867188 -430.0272216796875 10.573310852050781 287.9158630371094 -14.46279525756836 C 199.12550354003906 408.1377868652344 14.993658065795898 271.3205871582031 32.79739761352539 365.24066162109375" fill="rgb(94, 100, 113)" opacity="0.9000086" stroke="rgb(7, 16, 49)" stroke-linecap="round" stroke-linejoin="round" stroke-opacity="0.8007389" stroke-width="0.0"/>
    <path d="M 463.15777587890625 548.8741455078125 C 465.1598205566406 551.9904174804688 459.2635803222656 555.5323486328125 434.0113220214844 558.1012573242188 C 415.59613037109375 557.6891479492188 406.9795837402344 553.4898071289062 407.8865966796875 551.835205078125 C 415.1711730957031 526.3958129882812 418.4751281738281 523.1821899414062 422.3920593261719 524.376220703125 C 458.6224670410156 525.3161010742188 448.1862487792969 519.9022827148438 463.15777587890625 548.8741455078125" fill="rgb(202, 133, 74)" opacity="0.9025613" stroke="rgb(129, 104, 58)" stroke-linecap="round" stroke-linejoin="round" stroke-opacity="0.5020814" stroke-width="0.0"/>
    <path d="M 294.0 425.0 C 293.33013916015625 427.5 291.5 429.33013916015625 289.0 430.0 C 286.5 429.33013916015625 284.66986083984375 427.5 284.0 425.0 C 284.66986083984375 422.5 286.5 420.66986083984375 289.0 420.0 C 291.5 420.66986083984375 293.33013916015625 422.5 294.0 425.0" fill="rgb(211, 157, 112)" opacity="1.0" stroke="rgb(77, 254, 133)" stroke-linecap="round" stroke-linejoin="round" stroke-opacity="0.23932783" stroke-width="0.0"/>
  </g>
</svg>
