<?xml version="1.0" ?>
<svg height="768" version="1.1" width="768" xmlns="http://www.w3.org/2000/svg">
  <defs/>
  <g>
    <path d="M 767.9918823242188 815.4517211914062 C 654.185791015625 784.9880981445312 643.2052612304688 786.3859252929688 -29.298795700073242 767.1461181640625 C 9.902859687805176 383.6319580078125 56.11640548706055 259.5905456542969 127.53716278076172 35.18716049194336 C 820.6525268554688 92.0895004272461 893.3038940429688 192.5620880126953 863.86669921875 319.3174743652344 C 789.00244140625 532.7655029296875 784.6632690429688 594.298828125 767.9918823242188 815.4517211914062" fill="rgb(100, 106, 114)" opacity="1.0" stroke="rgb(196, 8, 111)" stroke-linecap="round" stroke-linejoin="round" stroke-opacity="0.7578672" stroke-width="0.0"/>
    <path d="M 780.740478515625 10.615463256835938 C 780.58447265625 138.2410125732422 780.4802856445312 143.66990661621094 774.07958984375 159.4841766357422 C 699.3994750976562 155.36785888671875 696.5811157226562 150.6958770751953 610.0045776367188 249.21444702148438 C 538.5825805664062 187.8896942138672 424.5466613769531 271.64678955078125 252.4843292236328 1.884618878364563 C 800.718994140625 -29.78694725036621 793.6387329101562 -9.814811706542969 780.740478515625 10.615463256835938" fill="rgb(99, 105, 113)" opacity="1.0" stroke="rgb(87, 197, 245)" stroke-linecap="round" stroke-linejoin="round" stroke-opacity="0.62311494" stroke-width="0.0"/>
    <path d="M 7.0 406.0 C 6.330127239227295 408.5 4.5 410.33013916015625 2.0 411.0 C -0.5 410.33013916015625 -2.330127000808716 408.5 -3.0 406.0 C -2.330127000808716 403.5 -0.5 401.66986083984375 2.0 401.0 C 4.5 401.66986083984375 6.330127239227295 403.5 7.0 406.0" fill="rgb(96, 100, 115)" opacity="1.0" stroke="rgb(7, 16, 49)" stroke-linecap="round" stroke-linejoin="round" stroke-opacity="0.8007389" stroke-width="0.0"/>
  </g>
</svg>
