<?xml version="1.0" ?>
<svg height="768" version="1.1" width="768" xmlns="http://www.w3.org/2000/svg">
  <defs/>
  <g>
    <path d="M 767.9918823242188 815.4517211914062 C 654.185791015625 784.9880981445312 643.1788330078125 786.469482421875 -30.4825496673584 767.0736694335938 C 7.667387962341309 380.8002624511719 53.336849212646484 255.5950927734375 123.6488037109375 33.93192672729492 C 820.7328491210938 91.93297576904297 893.3115234375 192.54483032226562 863.86669921875 319.3174743652344 C 789.00244140625 532.7655029296875 784.6632690429688 594.298828125 767.9918823242188 815.4517211914062" fill="rgb(108, 114, 112)" opacity="0.9967833" stroke="rgb(196, 8, 111)" stroke-linecap="round" stroke-linejoin="round" stroke-opacity="0.7578672" stroke-width="0.0"/>
    <path d="M 780.740478515625 10.614105224609375 C 780.58447265625 138.2410125732422 780.4802856445312 143.66990661621094 774.7203979492188 160.05206298828125 C 700.6038208007812 156.4156036376953 698.0188598632812 152.63397216796875 610.2608642578125 239.20338439941406 C 538.3094482421875 192.87477111816406 420.7338562011719 282.3518981933594 237.469970703125 2.7939672470092773 C 799.5469360351562 -31.063684463500977 793.6290893554688 -9.859929084777832 780.740478515625 10.614105224609375" fill="rgb(98, 104, 114)" opacity="0.9919519" stroke="rgb(87, 197, 245)" stroke-linecap="round" stroke-linejoin="round" stroke-opacity="0.62311494" stroke-width="0.0"/>
    <path d="M 33.40799331665039 349.65545654296875 C 58.84900665283203 441.1803894042969 98.23136901855469 453.7784118652344 20.091245651245117 525.0843505859375 C -85.41584777832031 477.0032958984375 -44.285316467285156 454.8153991699219 -157.45521545410156 155.30728149414062 C -367.42327880859375 72.04752349853516 -428.9671325683594 11.984739303588867 280.52197265625 -14.59217643737793 C 178.23460388183594 425.0374755859375 22.034757614135742 301.7973327636719 33.40799331665039 349.65545654296875" fill="rgb(97, 102, 113)" opacity="0.907723" stroke="rgb(7, 16, 49)" stroke-linecap="round" stroke-linejoin="round" stroke-opacity="0.8007389" stroke-width="0.0"/>
    <path d="M 434.0 543.0 C 433.33013916015625 545.5 431.5 547.3301391601562 429.0 548.0 C 426.5 547.3301391601562 424.66986083984375 545.5 424.0 543.0 C 424.66986083984375 540.5 426.5 538.6698608398438 429.0 538.0 C 431.5 538.6698608398438 433.33013916015625 540.5 434.0 543.0" fill="rgb(214, 128, 59)" opacity="1.0" stroke="rgb(129, 104, 58)" stroke-linecap="round" stroke-linejoin="round" stroke-opacity="0.5020814" stroke-width="0.0"/>
  </g>
</svg>
