<?xml version="1.0" ?>
<svg height="768" version="1.1" width="768" xmlns="http://www.w3.org/2000/svg">
  <defs/>
  <g>
    <path d="M 760.7108154296875 814.4524536132812 C 293.2130432128906 768.7161254882812 381.19952392578125 775.981689453125 -16.751829147338867 774.3300170898438 C -42.87508010864258 410.09368896484375 -65.73810577392578 306.4184265136719 8.95305347442627 -39.651588439941406 C 202.8601531982422 -17.315845489501953 581.0956420898438 -13.088744163513184 791.0155029296875 1.6354150772094727 C 789.4703979492188 573.2273559570312 781.3129272460938 638.84521484375 760.7108154296875 814.4524536132812" fill="rgb(77, 101, 120)" opacity="1.0" stroke="rgb(23, 48, 16)" stroke-linecap="round" stroke-linejoin="round" stroke-opacity="0.0751464" stroke-width="0.0"/>
    <path d="M 512.7766723632812 604.4483642578125 C 119.00691986083984 645.21044921875 705.0988159179688 487.56524658203125 232.5293731689453 529.6324462890625 C 0.13073910772800446 39.75987243652344 332.7943115234375 84.43352508544922 229.71043395996094 291.89483642578125 C 294.83514404296875 488.0052795410156 266.8816833496094 263.7540283203125 513.318359375 346.3568420410156 C 620.8246459960938 471.71185302734375 567.56396484375 542.3059692382812 512.7766723632812 604.4483642578125" fill="rgb(176, 188, 195)" opacity="0.8019008" stroke="rgb(250, 109, 144)" stroke-linecap="round" stroke-linejoin="round" stroke-opacity="0.84716046" stroke-width="0.0"/>
    <path d="M 183.96456909179688 206.829345703125 C 268.43865966796875 430.329345703125 191.3418731689453 429.6061706542969 141.65829467773438 419.486328125 C 115.7831039428711 415.0669860839844 80.88524627685547 377.36932373046875 143.274169921875 324.328369140625 C 234.08851623535156 275.1771545410156 97.0135269165039 363.9148864746094 164.706298828125 358.33929443359375 C 169.2323455810547 431.1556701660156 153.1249237060547 400.37713623046875 183.96456909179688 206.829345703125" fill="rgb(222, 220, 216)" opacity="1.0" stroke="rgb(245, 246, 189)" stroke-linecap="round" stroke-linejoin="round" stroke-opacity="0.3132749" stroke-width="0.0"/>
    <path d="M 288.7058410644531 534.0819091796875 C 270.51434326171875 587.8782348632812 250.96615600585938 597.68017578125 230.76622009277344 606.9618530273438 C 209.50137329101562 616.3482666015625 176.84307861328125 614.3543090820312 182.80723571777344 595.0438232421875 C 199.4852752685547 572.2026977539062 235.3249969482422 582.2703247070312 234.55023193359375 529.5678100585938 C 308.8539123535156 524.9953002929688 306.54241943359375 519.5986938476562 288.7058410644531 534.0819091796875" fill="rgb(215, 226, 220)" opacity="0.8958308" stroke="rgb(116, 22, 35)" stroke-linecap="round" stroke-linejoin="round" stroke-opacity="0.585089" stroke-width="0.0"/>
  </g>
</svg>
