<?xml version="1.0" ?>
<svg height="768" version="1.1" width="768" xmlns="http://www.w3.org/2000/svg">
  <defs/>
  <g>
    <path d="M 760.7058715820312 814.4536743164062 C 293.2130432128906 768.7161254882812 381.19952392578125 775.981689453125 -16.751829147338867 774.3300170898438 C -42.87508010864258 410.09368896484375 -65.74250030517578 306.41796875 8.92940616607666 -39.65892791748047 C 202.8601531982422 -17.315845489501953 581.0956420898438 -13.088744163513184 791.0155029296875 1.6353639364242554 C 789.458251953125 573.2022705078125 781.2528076171875 638.7776489257812 760.7058715820312 814.4536743164062" fill="rgb(75, 99, 119)" opacity="1.0" stroke="rgb(23, 48, 16)" stroke-linecap="round" stroke-linejoin="round" stroke-opacity="0.0751464" stroke-width="0.0"/>
    <path d="M 512.5224609375 604.57373046875 C 118.38041687011719 644.318603515625 705.5275268554688 489.8280029296875 232.1845245361328 528.6073608398438 C -1.527522087097168 42.03616714477539 337.74237060546875 83.79507446289062 232.1675567626953 279.5247497558594 C 285.0521545410156 509.872314453125 256.37115478515625 262.2710266113281 508.9102783203125 344.9273986816406 C 619.9990844726562 452.4333190917969 564.882080078125 549.622802734375 512.5224609375 604.57373046875" fill="rgb(177, 189, 196)" opacity="0.8053889" stroke="rgb(250, 109, 144)" stroke-linecap="round" stroke-linejoin="round" stroke-opacity="0.84716046" stroke-width="0.0"/>
    <path d="M 183.97837829589844 206.97817993164062 C 267.3558349609375 428.69024658203125 193.5735321044922 430.19384765625 140.8551788330078 419.33160400390625 C 113.85599517822266 414.1148681640625 81.86836242675781 375.2345275878906 144.36827087402344 323.5516052246094 C 232.96775817871094 276.6234436035156 97.04859161376953 363.7527160644531 164.95010375976562 358.3291931152344 C 168.6383056640625 433.3102722167969 153.7781524658203 396.3564453125 183.97837829589844 206.97817993164062" fill="rgb(222, 220, 216)" opacity="1.0" stroke="rgb(245, 246, 189)" stroke-linecap="round" stroke-linejoin="round" stroke-opacity="0.3132749" stroke-width="0.0"/>
    <path d="M 288.6545104980469 534.1864624023438 C 270.6410217285156 588.3001098632812 250.1214599609375 598.3168334960938 230.72314453125 606.9489135742188 C 211.96890258789062 615.62548828125 176.7460174560547 615.337890625 182.81692504882812 594.9113159179688 C 199.85009765625 571.9586791992188 235.99314880371094 582.1913452148438 234.59312438964844 528.5021362304688 C 325.3726501464844 523.1867065429688 302.73699951171875 520.3515625 288.6545104980469 534.1864624023438" fill="rgb(213, 225, 219)" opacity="0.8927285" stroke="rgb(116, 22, 35)" stroke-linecap="round" stroke-linejoin="round" stroke-opacity="0.585089" stroke-width="0.0"/>
    <path d="M 657.2831420898438 499.0918273925781 C 658.975830078125 532.859619140625 640.5093994140625 553.3909912109375 612.3572387695312 558.7901000976562 C 569.8956298828125 559.6355590820312 579.7078247070312 538.7794189453125 532.4697265625 522.9354858398438 C 532.17333984375 377.35186767578125 548.9003295898438 430.56964111328125 582.4486083984375 488.1058044433594 C 633.967529296875 494.1884460449219 632.6345825195312 440.68701171875 657.2831420898438 499.0918273925781" fill="rgb(146, 170, 180)" opacity="1.0" stroke="rgb(67, 145, 113)" stroke-linecap="round" stroke-linejoin="round" stroke-opacity="0.7136847" stroke-width="0.0"/>
  </g>
</svg>
