<?xml version="1.0" ?>
<svg height="768" version="1.1" width="768" xmlns="http://www.w3.org/2000/svg">
  <defs/>
  <g>
    <path d="M 751.0226440429688 799.2755126953125 C 155.5643310546875 776.7554321289062 433.2417907714844 697.5811157226562 383.3912048339844 781.0226440429688 C -69.90967559814453 800.4874267578125 -46.43260192871094 789.6132202148438 -16.477617263793945 7.488737106323242 C 99.81631469726562 -45.29316711425781 127.56236267089844 -23.815067291259766 792.0646362304688 -8.681103706359863 C 796.0111694335938 605.7267456054688 816.976806640625 688.8667602539062 751.0226440429688 799.2755126953125" fill="rgb(86, 113, 112)" opacity="0.9997919" stroke="rgb(91, 246, 50)" stroke-linecap="round" stroke-linejoin="round" stroke-opacity="0.7262648" stroke-width="0.0"/>
    <path d="M 131.37603759765625 256.3778991699219 C 222.90382385253906 281.6234130859375 80.68711853027344 260.9881591796875 210.21351623535156 380.2236633300781 C 0.5394497513771057 298.8515930175781 46.74045181274414 392.0398864746094 55.737117767333984 285.72314453125 C 97.62157440185547 257.18377685546875 61.495750427246094 262.6586608886719 89.18698120117188 248.3302459716797 C 148.7978973388672 282.7290344238281 115.26949310302734 326.1785583496094 131.37603759765625 256.3778991699219" fill="rgb(231, 164, 97)" opacity="0.85085875" stroke="rgb(176, 164, 248)" stroke-linecap="round" stroke-linejoin="round" stroke-opacity="0.33275187" stroke-width="0.0"/>
    <path d="M 538.1896362304688 584.9002685546875 C 510.7916564941406 610.451416015625 516.2536010742188 608.7241821289062 488.8804016113281 608.5679321289062 C 488.0698547363281 608.9035034179688 468.62890625 606.12255859375 477.9792785644531 586.7288208007812 C 489.04595947265625 563.1635131835938 539.1250610351562 605.6151123046875 523.2686767578125 496.9430236816406 C 663.286376953125 515.6507568359375 465.2693786621094 575.2581176757812 538.1896362304688 584.9002685546875" fill="rgb(236, 173, 116)" opacity="0.8874836" stroke="rgb(127, 5, 116)" stroke-linecap="round" stroke-linejoin="round" stroke-opacity="0.5297591" stroke-width="0.0"/>
    <path d="M 283.15692138671875 531.2525634765625 C 297.2621154785156 613.9166259765625 278.3482666015625 612.2618408203125 229.40782165527344 612.3015747070312 C 223.486083984375 602.2931518554688 168.55133056640625 624.1538696289062 176.5876922607422 589.7526245117188 C 198.0935516357422 556.860107421875 215.70790100097656 604.8109741210938 284.8810119628906 557.5396118164062 C 229.71360778808594 531.702880859375 299.7161560058594 506.6967468261719 283.15692138671875 531.2525634765625" fill="rgb(245, 192, 136)" opacity="0.94312054" stroke="rgb(187, 41, 183)" stroke-linecap="round" stroke-linejoin="round" stroke-opacity="0.96377206" stroke-width="0.0"/>
  </g>
</svg>
