<?xml version="1.0" ?>
<svg height="768" version="1.1" width="768" xmlns="http://www.w3.org/2000/svg">
  <defs/>
  <g>
    <path d="M 751.0506591796875 799.2755126953125 C 155.51263427734375 776.7862548828125 433.1864013671875 697.6192016601562 383.35235595703125 781.0226440429688 C -69.92008972167969 800.4874267578125 -46.43803787231445 789.6132202148438 -16.47908592224121 7.472555637359619 C 99.81603240966797 -45.294151306152344 127.56236267089844 -23.815067291259766 792.0646362304688 -8.681103706359863 C 796.0111694335938 605.7267456054688 816.976806640625 688.8667602539062 751.0506591796875 799.2755126953125" fill="rgb(94, 113, 108)" opacity="0.98606175" stroke="rgb(91, 246, 50)" stroke-linecap="round" stroke-linejoin="round" stroke-opacity="0.7262648" stroke-width="0.0"/>
    <path d="M 131.58602905273438 256.6796875 C 221.86912536621094 280.334228515625 81.72329711914062 262.8021545410156 209.14541625976562 379.2606201171875 C 1.0241447687149048 299.2449035644531 46.67116165161133 391.902587890625 55.83938980102539 285.7618103027344 C 97.69153594970703 256.98797607421875 61.74707794189453 263.1359558105469 88.93164825439453 248.48681640625 C 149.11691284179688 282.7777099609375 115.08091735839844 326.43731689453125 131.58602905273438 256.6796875" fill="rgb(231, 165, 97)" opacity="0.85133845" stroke="rgb(176, 164, 248)" stroke-linecap="round" stroke-linejoin="round" stroke-opacity="0.33275187" stroke-width="0.0"/>
    <path d="M 537.7235717773438 585.5623779296875 C 510.847412109375 609.8412475585938 516.877197265625 608.7197875976562 489.1241149902344 608.5841064453125 C 487.6668701171875 608.74462890625 469.03515625 606.2530517578125 477.8475036621094 586.7960205078125 C 491.24664306640625 562.29296875 536.4326171875 606.8142700195312 524.6649169921875 497.28759765625 C 661.2396240234375 516.61181640625 466.7310485839844 573.10693359375 537.7235717773438 585.5623779296875" fill="rgb(237, 175, 118)" opacity="0.89187515" stroke="rgb(127, 5, 116)" stroke-linecap="round" stroke-linejoin="round" stroke-opacity="0.5297591" stroke-width="0.0"/>
    <path d="M 283.0032653808594 531.6368408203125 C 297.56646728515625 614.7210083007812 276.98822021484375 611.8319702148438 230.3849334716797 612.3443603515625 C 221.54605102539062 602.3538208007812 167.738037109375 623.36865234375 176.7972869873047 589.466064453125 C 197.58648681640625 557.3348999023438 217.7037353515625 604.9223022460938 285.5108642578125 557.1898803710938 C 229.58740234375 533.182373046875 299.6736755371094 505.92352294921875 283.0032653808594 531.6368408203125" fill="rgb(245, 192, 137)" opacity="0.9432575" stroke="rgb(187, 41, 183)" stroke-linecap="round" stroke-linejoin="round" stroke-opacity="0.96377206" stroke-width="0.0"/>
    <path d="M 420.0867919921875 350.20562744140625 C 423.14971923828125 359.0224609375 421.10296630859375 362.8072204589844 406.7776184082031 365.9672546386719 C 377.66400146484375 363.2915344238281 389.8701477050781 349.0753479003906 385.5321960449219 348.72906494140625 C 379.2857666015625 345.23077392578125 390.2095031738281 330.7100524902344 397.01361083984375 332.62982177734375 C 401.39154052734375 330.6990661621094 425.8709716796875 336.1348571777344 420.0867919921875 350.20562744140625" fill="rgb(20, 4, 0)" opacity="1.0" stroke="rgb(150, 14, 78)" stroke-linecap="round" stroke-linejoin="round" stroke-opacity="0.99349976" stroke-width="0.0"/>
  </g>
</svg>
