<?xml version="1.0" ?>
<svg height="768" version="1.1" width="768" xmlns="http://www.w3.org/2000/svg">
  <defs/>
  <g>
    <path d="M 750.9561767578125 799.2536010742188 C 155.68833923339844 776.6820678710938 433.3752746582031 697.4893798828125 383.4697570800781 781.0226440429688 C -69.88853454589844 800.4873657226562 -46.421634674072266 789.59716796875 -16.475208282470703 7.492957592010498 C 99.8171615600586 -45.29218292236328 127.56236267089844 -23.815067291259766 792.0646362304688 -8.681103706359863 C 796.0111694335938 605.7267456054688 816.9667358398438 688.8524169921875 750.9561767578125 799.2536010742188" fill="rgb(85, 113, 113)" opacity="0.9985135" stroke="rgb(91, 246, 50)" stroke-linecap="round" stroke-linejoin="round" stroke-opacity="0.7262648" stroke-width="0.0"/>
    <path d="M 131.39056396484375 256.32379150390625 C 222.73025512695312 281.5645751953125 80.93942260742188 261.1782531738281 210.0520477294922 380.0365905761719 C 0.3818013072013855 298.94390869140625 46.79045867919922 391.8080749511719 55.74431610107422 285.72894287109375 C 97.54825592041016 257.197021484375 61.47700881958008 262.53558349609375 89.27920532226562 248.2506103515625 C 148.529541015625 282.8954162597656 115.42762756347656 325.1036376953125 131.39056396484375 256.32379150390625" fill="rgb(231, 164, 97)" opacity="0.8512788" stroke="rgb(176, 164, 248)" stroke-linecap="round" stroke-linejoin="round" stroke-opacity="0.33275187" stroke-width="0.0"/>
    <path d="M 538.0416870117188 584.908447265625 C 510.768310546875 610.2409057617188 516.8731689453125 608.7512817382812 487.2405090332031 608.5299682617188 C 488.7190246582031 608.685791015625 468.8941345214844 606.4649658203125 477.92462158203125 586.6827392578125 C 489.93951416015625 562.9205322265625 538.5791625976562 605.7384643554688 523.4214477539062 496.86358642578125 C 662.9344482421875 515.5427856445312 465.51153564453125 575.0033569335938 538.0416870117188 584.908447265625" fill="rgb(237, 173, 116)" opacity="0.889896" stroke="rgb(127, 5, 116)" stroke-linecap="round" stroke-linejoin="round" stroke-opacity="0.5297591" stroke-width="0.0"/>
  </g>
</svg>
