<?xml version="1.0" ?>
<svg height="768" version="1.1" width="768" xmlns="http://www.w3.org/2000/svg">
  <defs/>
  <g>
    <path d="M 777.5552978515625 -6.639151573181152 C 780.0070190429688 89.8535385131836 780.8349609375 95.02655792236328 1021.78466796875 259.1559753417969 C 987.7849731445312 422.9799499511719 997.8411254882812 561.0380859375 274.1318054199219 611.0723876953125 C 223.1450958251953 102.72618103027344 194.22703552246094 76.02622985839844 191.102783203125 0.3624201714992523 C 775.9957885742188 -14.28885555267334 779.384765625 -13.219379425048828 777.5552978515625 -6.639151573181152" fill="rgb(116, 123, 136)" opacity="0.997498" stroke="rgb(33, 155, 83)" stroke-linecap="round" stroke-linejoin="round" stroke-opacity="0.54668" stroke-width="0.0"/>
    <path d="M 205.695068359375 14.653207778930664 C 216.80154418945312 235.3439483642578 239.5253448486328 156.28106689453125 339.1432189941406 326.0400695800781 C 421.2649230957031 440.67327880859375 471.9877014160156 582.1900634765625 0.5003678202629089 674.879150390625 C -28.515483856201172 45.55524826049805 -15.9107027053833 21.090900421142578 -13.318754196166992 -12.284516334533691 C 190.35569763183594 -15.709512710571289 198.26426696777344 -15.70855712890625 205.695068359375 14.653207778930664" fill="rgb(145, 148, 150)" opacity="1.0" stroke="rgb(61, 9, 104)" stroke-linecap="round" stroke-linejoin="round" stroke-opacity="0.57338506" stroke-width="0.0"/>
    <path d="M 349.39447021484375 463.70904541015625 C 346.2064208984375 466.91937255859375 344.1337890625 480.36956787109375 324.1334533691406 479.43695068359375 C 310.63909912109375 476.7033386230469 307.9601745605469 466.7580261230469 306.5772705078125 463.07440185546875 C 303.13189697265625 444.25299072265625 322.1033020019531 435.2989501953125 332.30548095703125 437.7005920410156 C 319.7624206542969 436.4059753417969 353.2920837402344 436.1378173828125 349.39447021484375 463.70904541015625" fill="rgb(8, 10, 8)" opacity="0.9773384" stroke="rgb(120, 117, 208)" stroke-linecap="round" stroke-linejoin="round" stroke-opacity="0.08429858" stroke-width="0.0"/>
    <path d="M 596.0 646.0 C 595.3301391601562 648.5 593.5 650.3301391601562 591.0 651.0 C 588.5 650.3301391601562 586.6698608398438 648.5 586.0 646.0 C 586.6698608398438 643.5 588.5 641.6698608398438 591.0 641.0 C 593.5 641.6698608398438 595.3301391601562 643.5 596.0 646.0" fill="rgb(118, 124, 136)" opacity="1.0" stroke="rgb(164, 157, 86)" stroke-linecap="round" stroke-linejoin="round" stroke-opacity="0.44420275" stroke-width="0.0"/>
  </g>
</svg>
