<?xml version="1.0" ?>
<svg height="768" version="1.1" width="768" xmlns="http://www.w3.org/2000/svg">
  <defs/>
  <g>
    <path d="M 777.5552978515625 -6.639151573181152 C 780.0070190429688 89.8535385131836 780.8349609375 95.02655792236328 1022.0331420898438 259.24188232421875 C 988.3680419921875 423.4686584472656 998.67041015625 561.8829345703125 274.199462890625 612.2725219726562 C 223.14222717285156 102.7310562133789 194.22703552246094 76.02623748779297 191.102783203125 0.3508464992046356 C 775.9957885742188 -14.289511680603027 779.384765625 -13.219379425048828 777.5552978515625 -6.639151573181152" fill="rgb(115, 123, 137)" opacity="0.9999234" stroke="rgb(33, 155, 83)" stroke-linecap="round" stroke-linejoin="round" stroke-opacity="0.54668" stroke-width="0.0"/>
    <path d="M 204.6570281982422 17.898887634277344 C 214.21429443359375 267.5394592285156 242.8441925048828 146.50350952148438 337.4766845703125 326.6474914550781 C 418.596923828125 443.6934509277344 475.7089538574219 583.1509399414062 0.8124168515205383 675.364990234375 C -28.53089141845703 45.57001876831055 -15.91079330444336 21.090900421142578 -13.318754196166992 -12.284516334533691 C 190.34829711914062 -15.709405899047852 198.19313049316406 -15.702906608581543 204.6570281982422 17.898887634277344" fill="rgb(151, 153, 152)" opacity="1.0" stroke="rgb(61, 9, 104)" stroke-linecap="round" stroke-linejoin="round" stroke-opacity="0.57338506" stroke-width="0.0"/>
    <path d="M 349.3990478515625 463.7735290527344 C 347.1553039550781 464.6614990234375 344.70831298828125 481.0859069824219 323.75146484375 479.3507995605469 C 310.48077392578125 476.24761962890625 307.9557189941406 466.8622741699219 306.6685485839844 463.3498840332031 C 302.8960876464844 445.43084716796875 321.1142272949219 434.2006530761719 333.90509033203125 437.9189147949219 C 319.98883056640625 436.87109375 353.07769775390625 436.08331298828125 349.3990478515625 463.7735290527344" fill="rgb(8, 10, 8)" opacity="0.97655857" stroke="rgb(120, 117, 208)" stroke-linecap="round" stroke-linejoin="round" stroke-opacity="0.08429858" stroke-width="0.0"/>
    <path d="M 767.6812133789062 502.63690185546875 C 784.41845703125 644.3826293945312 786.9334106445312 714.7448120117188 780.9559326171875 779.2969360351562 C 525.2747192382812 782.9746704101562 499.68927001953125 791.53125 155.95936584472656 766.0172729492188 C 229.94482421875 288.45361328125 317.3735656738281 648.2355346679688 411.7262268066406 573.9964599609375 C 668.7327270507812 556.959716796875 676.489990234375 548.8308715820312 767.6812133789062 502.63690185546875" fill="rgb(118, 124, 137)" opacity="1.0" stroke="rgb(164, 157, 86)" stroke-linecap="round" stroke-linejoin="round" stroke-opacity="0.44420275" stroke-width="0.0"/>
    <path d="M 487.0 428.0 C 486.33013916015625 430.5 484.5 432.33013916015625 482.0 433.0 C 479.5 432.33013916015625 477.66986083984375 430.5 477.0 428.0 C 477.66986083984375 425.5 479.5 423.66986083984375 482.0 423.0 C 484.5 423.66986083984375 486.33013916015625 425.5 487.0 428.0" fill="rgb(230, 222, 201)" opacity="1.0" stroke="rgb(41, 100, 244)" stroke-linecap="round" stroke-linejoin="round" stroke-opacity="0.8819606" stroke-width="0.0"/>
  </g>
</svg>
