<?xml version="1.0" ?>
<svg height="768" version="1.1" width="768" xmlns="http://www.w3.org/2000/svg">
  <defs/>
  <g>
    <path d="M 512.3966064453125 832.4443969726562 C -23.855506896972656 800.5108642578125 -61.99679946899414 713.7989501953125 253.2477264404297 573.3379516601562 C -12.630594253540039 628.027099609375 -42.91215896606445 900.0838012695312 2.457443952560425 -58.77257537841797 C 561.9701538085938 -13.101150512695312 625.5479736328125 39.168060302734375 819.4880981445312 86.82881164550781 C 788.9560546875 823.3135986328125 727.556884765625 833.8340454101562 512.3966064453125 832.4443969726562" fill="rgb(108, 110, 128)" opacity="0.9266156" stroke="rgb(72, 183, 9)" stroke-linecap="round" stroke-linejoin="round" stroke-opacity="0.6965117" stroke-width="0.0"/>
    <path d="M 418.94000244140625 167.66354370117188 C 340.8725891113281 179.6215362548828 493.3042907714844 255.7009735107422 376.0039367675781 236.8199005126953 C 261.9310607910156 249.97132873535156 416.9606018066406 177.21580505371094 331.0280456542969 165.9100341796875 C 264.1726379394531 266.95123291015625 243.6443634033203 148.30462646484375 366.407958984375 107.79237365722656 C 485.4291076660156 104.80652618408203 506.164794921875 288.46331787109375 418.94000244140625 167.66354370117188" fill="rgb(254, 254, 254)" opacity="0.97110033" stroke="rgb(176, 151, 54)" stroke-linecap="round" stroke-linejoin="round" stroke-opacity="0.37101653" stroke-width="0.0"/>
    <path d="M 342.845947265625 504.4317321777344 C 172.99131774902344 587.6281127929688 253.71371459960938 657.3731079101562 219.59912109375 535.6202392578125 C 117.45331573486328 512.5128173828125 135.91876220703125 561.4744262695312 155.7969512939453 458.8660583496094 C 154.423828125 467.65557861328125 140.67587280273438 456.2545471191406 272.8816833496094 467.3174743652344 C 278.4383544921875 483.25689697265625 303.6131896972656 470.798828125 342.845947265625 504.4317321777344" fill="rgb(253, 253, 252)" opacity="0.9966556" stroke="rgb(64, 103, 177)" stroke-linecap="round" stroke-linejoin="round" stroke-opacity="0.66076964" stroke-width="0.0"/>
    <path d="M 330.50665283203125 441.5460205078125 C 330.6914367675781 468.490966796875 311.00018310546875 486.42852783203125 284.2332458496094 477.0119323730469 C 255.0470428466797 447.9132995605469 135.6299591064453 476.5770263671875 160.5167999267578 448.82904052734375 C 223.51336669921875 257.3053283691406 220.03216552734375 248.7146759033203 403.4192199707031 271.883544921875 C 335.412353515625 330.2217712402344 350.3451843261719 355.3019714355469 330.50665283203125 441.5460205078125" fill="rgb(0, 0, 7)" opacity="0.7477405" stroke="rgb(247, 137, 227)" stroke-linecap="round" stroke-linejoin="round" stroke-opacity="0.751733" stroke-width="0.0"/>
    <path d="M 329.57696533203125 665.4220581054688 C 358.42584228515625 674.2244262695312 336.0296630859375 693.802734375 294.1926574707031 689.0452880859375 C 276.1087646484375 685.5846557617188 265.2513122558594 676.4920043945312 261.62628173828125 637.211669921875 C 276.5099182128906 635.8339233398438 282.58355712890625 636.3045654296875 330.1855773925781 622.549072265625 C 332.4508361816406 619.5390625 306.1075744628906 668.8887329101562 329.57696533203125 665.4220581054688" fill="rgb(1, 0, 1)" opacity="0.98272973" stroke="rgb(181, 40, 85)" stroke-linecap="round" stroke-linejoin="round" stroke-opacity="0.90462416" stroke-width="0.0"/>
  </g>
</svg>
