<?xml version="1.0" ?>
<svg height="768" version="1.1" width="768" xmlns="http://www.w3.org/2000/svg">
  <defs/>
  <g>
    <path d="M 764.365234375 792.4375610351562 C 350.388671875 820.512939453125 214.22267150878906 848.244873046875 180.25820922851562 617.1057739257812 C 611.6890258789062 341.4407043457031 732.0181274414062 245.77691650390625 19.67892074584961 550.3577880859375 C -17.488407135009766 -99.61408233642578 -2.147498846054077 -53.29404830932617 764.5042724609375 -12.559484481811523 C 764.3644409179688 260.75262451171875 764.562255859375 319.7413024902344 764.365234375 792.4375610351562" fill="rgb(44, 111, 137)" opacity="0.7369305" stroke="rgb(242, 217, 203)" stroke-linecap="round" stroke-linejoin="round" stroke-opacity="0.71962214" stroke-width="0.0"/>
    <path d="M 419.0157470703125 773.4053955078125 C 417.90032958984375 781.865966796875 412.3475341796875 782.13037109375 282.61907958984375 783.46142578125 C 292.4124755859375 802.7918090820312 249.54771423339844 771.2440795898438 249.6027374267578 688.37353515625 C 250.55718994140625 625.5975952148438 294.7870178222656 559.5615844726562 364.88934326171875 548.919677734375 C 428.1944885253906 625.2735595703125 414.6642150878906 654.7512817382812 419.0157470703125 773.4053955078125" fill="rgb(52, 0, 46)" opacity="0.9576618" stroke="rgb(52, 80, 13)" stroke-linecap="round" stroke-linejoin="round" stroke-opacity="0.118004136" stroke-width="0.0"/>
    <path d="M 736.5689697265625 583.6121215820312 C 808.9920043945312 944.5974731445312 745.396484375 855.3167724609375 639.16796875 783.4080810546875 C 383.5316467285156 780.7656860351562 386.5767517089844 774.1064453125 381.86676025390625 763.1468505859375 C 365.4404296875 666.2330322265625 312.28790283203125 694.2014770507812 360.07708740234375 551.8253173828125 C 595.9361572265625 555.9393920898438 372.28546142578125 591.028076171875 736.5689697265625 583.6121215820312" fill="rgb(49, 0, 46)" opacity="0.9603334" stroke="rgb(4, 38, 250)" stroke-linecap="round" stroke-linejoin="round" stroke-opacity="0.26343647" stroke-width="0.0"/>
    <path d="M 509.8046569824219 675.578369140625 C 445.1566467285156 636.3032836914062 439.4671630859375 629.5286865234375 429.89849853515625 619.4689331054688 C 414.7353515625 598.9879760742188 393.88604736328125 622.02734375 357.4813537597656 551.25341796875 C 358.9489440917969 548.4921875 409.07159423828125 539.1485595703125 462.019775390625 556.8197021484375 C 510.00152587890625 573.5942993164062 544.296875 584.4334716796875 509.8046569824219 675.578369140625" fill="rgb(50, 5, 48)" opacity="0.9791794" stroke="rgb(128, 50, 213)" stroke-linecap="round" stroke-linejoin="round" stroke-opacity="0.26315796" stroke-width="0.0"/>
    <path d="M 477.5944519042969 694.3372802734375 C 440.68206787109375 692.359130859375 438.14794921875 688.50439453125 344.97705078125 666.7676391601562 C 383.50946044921875 641.4994506835938 377.4669189453125 640.5064697265625 374.06256103515625 578.9302978515625 C 395.83563232421875 585.5725708007812 399.8674621582031 588.8517456054688 448.9873352050781 590.1295776367188 C 441.9034118652344 601.2164916992188 461.8592529296875 590.17822265625 477.5944519042969 694.3372802734375" fill="rgb(51, 6, 51)" opacity="1.0" stroke="rgb(43, 31, 31)" stroke-linecap="round" stroke-linejoin="round" stroke-opacity="0.971857" stroke-width="0.0"/>
    <path d="M 772.6754760742188 645.5720825195312 C 779.4932861328125 788.3673706054688 759.9293823242188 779.6956787109375 759.9092407226562 776.7083129882812 C 667.3804931640625 775.17529296875 664.4019165039062 775.1902465820312 631.3526000976562 798.4706420898438 C 618.013427734375 736.8675537109375 612.4754638671875 743.46142578125 510.9779968261719 662.8987426757812 C 744.8663940429688 589.8352661132812 697.793701171875 588.0708618164062 772.6754760742188 645.5720825195312" fill="rgb(51, 6, 50)" opacity="1.0" stroke="rgb(114, 58, 76)" stroke-linecap="round" stroke-linejoin="round" stroke-opacity="0.7408875" stroke-width="0.0"/>
    <path d="M 509.88360595703125 607.8319702148438 C 513.3353881835938 802.6416015625 475.8483581542969 785.5545654296875 463.1373596191406 778.73828125 C 399.4850769042969 777.9015502929688 396.3857421875 776.2881469726562 375.34124755859375 761.5513916015625 C 376.48858642578125 724.498291015625 381.1794738769531 722.0278930664062 362.3095703125 698.8377685546875 C 444.16778564453125 674.9484252929688 450.6131286621094 670.0169067382812 509.88360595703125 607.8319702148438" fill="rgb(51, 6, 51)" opacity="1.0" stroke="rgb(192, 160, 53)" stroke-linecap="round" stroke-linejoin="round" stroke-opacity="0.16767655" stroke-width="0.0"/>
    <path d="M 554.179931640625 467.4112548828125 C 572.0752563476562 639.9678955078125 505.1893615722656 552.8408203125 186.6117401123047 457.8988037109375 C 280.2059631347656 374.9264221191406 268.3579406738281 403.5079345703125 271.7913513183594 343.867431640625 C 324.6231384277344 332.3820495605469 277.47857666015625 308.6702575683594 349.61602783203125 268.8343200683594 C 312.0968322753906 269.89984130859375 572.7461547851562 279.97900390625 554.179931640625 467.4112548828125" fill="rgb(217, 227, 238)" opacity="0.9971413" stroke="rgb(29, 40, 109)" stroke-linecap="round" stroke-linejoin="round" stroke-opacity="0.9429024" stroke-width="0.0"/>
    <path d="M 358.8781433105469 430.720458984375 C 384.09405517578125 436.9111022949219 378.91290283203125 451.7501220703125 365.34002685546875 448.19927978515625 C 344.4808654785156 451.1464538574219 260.9219055175781 396.846923828125 208.0799102783203 481.7273254394531 C 143.6779022216797 379.021240234375 290.5966491699219 345.5404968261719 327.92572021484375 369.6575927734375 C 267.8872375488281 438.9975891113281 433.1709289550781 391.3821716308594 358.8781433105469 430.720458984375" fill="rgb(251, 197, 28)" opacity="0.9939569" stroke="rgb(236, 230, 114)" stroke-linecap="round" stroke-linejoin="round" stroke-opacity="0.5568124" stroke-width="0.0"/>
    <path d="M 224.3881072998047 599.0932006835938 C 220.14334106445312 617.1004638671875 218.026123046875 620.4246826171875 200.82534790039062 670.128173828125 C 95.5600357055664 661.26904296875 91.78675842285156 643.0958862304688 44.871986389160156 633.9175415039062 C 26.96507453918457 509.5146484375 33.87627410888672 496.9051208496094 62.809932708740234 487.8897705078125 C 198.0513916015625 507.587646484375 187.3364715576172 534.589599609375 224.3881072998047 599.0932006835938" fill="rgb(98, 148, 168)" opacity="0.998064" stroke="rgb(13, 101, 124)" stroke-linecap="round" stroke-linejoin="round" stroke-opacity="0.3704566" stroke-width="0.0"/>
    <path d="M 250.51168823242188 767.7998046875 C 130.63113403320312 785.9500732421875 102.27619934082031 780.6624145507812 2.2463080883026123 767.7350463867188 C 3.6062123775482178 719.3199462890625 1.0660555362701416 714.1600952148438 1.7951226234436035 262.865478515625 C 112.41261291503906 485.462646484375 55.117454528808594 530.7925415039062 172.67587280273438 574.1969604492188 C 193.3453826904297 605.7448120117188 221.56253051757812 579.0830078125 250.51168823242188 767.7998046875" fill="rgb(98, 149, 169)" opacity="0.61576307" stroke="rgb(220, 46, 219)" stroke-linecap="round" stroke-linejoin="round" stroke-opacity="0.5888399" stroke-width="0.0"/>
    <path d="M 91.71905517578125 769.4301147460938 C 41.49909210205078 781.872314453125 34.28742218017578 779.9769287109375 0.1385858803987503 780.1595458984375 C 1.269670844078064 774.859375 0.7226374745368958 750.8297729492188 0.7754195332527161 552.0479125976562 C 39.17523193359375 676.456787109375 -6.8225908279418945 677.071044921875 35.63526916503906 686.009765625 C 62.6407470703125 701.1349487304688 77.03741455078125 694.5667724609375 91.71905517578125 769.4301147460938" fill="rgb(100, 158, 187)" opacity="0.2602798" stroke="rgb(47, 198, 143)" stroke-linecap="round" stroke-linejoin="round" stroke-opacity="0.46955255" stroke-width="0.0"/>
    <path d="M 420.9021301269531 365.3497009277344 C 417.61004638671875 361.0068664550781 409.0567626953125 401.94207763671875 365.9566345214844 387.03729248046875 C 359.56365966796875 382.64410400390625 396.5029296875 393.4078674316406 362.2575378417969 374.59625244140625 C 363.2559509277344 460.4622497558594 258.2082824707031 383.5217590332031 249.56410217285156 367.622314453125 C 393.9513854980469 345.4834289550781 424.58721923828125 367.01654052734375 420.9021301269531 365.3497009277344" fill="rgb(20, 79, 114)" opacity="0.9804635" stroke="rgb(224, 79, 9)" stroke-linecap="round" stroke-linejoin="round" stroke-opacity="0.8877654" stroke-width="0.0"/>
    <path d="M 425.9300537109375 358.4328308105469 C 424.5220031738281 351.2424011230469 418.0595397949219 383.30133056640625 390.9765625 391.68280029296875 C 358.9258117675781 393.8309020996094 369.52996826171875 381.8659973144531 382.4228210449219 366.81365966796875 C 360.64422607421875 351.8738098144531 382.77215576171875 353.095947265625 406.1904296875 350.4779357910156 C 422.9466247558594 350.03192138671875 420.8525390625 349.78265380859375 425.9300537109375 358.4328308105469" fill="rgb(60, 19, 71)" opacity="0.66314787" stroke="rgb(213, 239, 89)" stroke-linecap="round" stroke-linejoin="round" stroke-opacity="0.4390413" stroke-width="0.0"/>
    <path d="M 288.2710876464844 442.80914306640625 C 326.64306640625 576.7255859375 292.75830078125 597.4832153320312 231.73739624023438 610.0824584960938 C 151.06573486328125 562.218994140625 136.78001403808594 565.1077270507812 112.44438171386719 489.642333984375 C 120.83863830566406 474.53289794921875 128.353271484375 449.7585144042969 214.0277099609375 477.7051696777344 C 194.86888122558594 449.6683654785156 264.7305908203125 426.0502014160156 288.2710876464844 442.80914306640625" fill="rgb(97, 148, 167)" opacity="1.0" stroke="rgb(77, 192, 18)" stroke-linecap="round" stroke-linejoin="round" stroke-opacity="0.75667703" stroke-width="0.0"/>
    <path d="M 53.792945861816406 29.4559268951416 C 52.95586013793945 41.64665222167969 52.57441711425781 45.30537796020508 33.215538024902344 49.27729034423828 C -4.696622848510742 45.14879608154297 5.689255714416504 44.84756851196289 2.0821480751037598 -13.37234878540039 C -4.259909629821777 -11.502629280090332 -0.2105046957731247 -11.74039363861084 5.109038829803467 -11.091684341430664 C 46.99081802368164 1.8849438428878784 51.23328399658203 2.1791985034942627 53.792945861816406 29.4559268951416" fill="rgb(141, 179, 199)" opacity="0.85287625" stroke="rgb(176, 108, 194)" stroke-linecap="round" stroke-linejoin="round" stroke-opacity="0.14983524" stroke-width="0.0"/>
    <path d="M 751.0263671875 614.2119140625 C 750.70703125 624.954345703125 750.4818725585938 627.103759765625 747.3550415039062 624.65869140625 C 724.203125 607.4513549804688 712.9323120117188 598.2970581054688 687.7952880859375 582.5377197265625 C 697.8822631835938 578.7798461914062 707.3182983398438 583.027587890625 734.811279296875 581.2720336914062 C 745.60400390625 581.8682861328125 747.0848388671875 584.1539916992188 751.0263671875 614.2119140625" fill="rgb(103, 150, 169)" opacity="0.97644717" stroke="rgb(38, 234, 218)" stroke-linecap="round" stroke-linejoin="round" stroke-opacity="0.90811515" stroke-width="0.0"/>
    <path d="M 689.7921752929688 584.1185913085938 C 629.2713623046875 614.9838256835938 620.0853881835938 611.1162719726562 548.203125 608.7647094726562 C 553.0964965820312 601.1365966796875 549.0403442382812 605.5451049804688 554.4093627929688 559.0176391601562 C 555.9564208984375 529.8313598632812 565.25927734375 519.1041259765625 666.5604248046875 569.8168334960938 C 645.2877197265625 561.227783203125 663.2548828125 566.7306518554688 689.7921752929688 584.1185913085938" fill="rgb(50, 5, 49)" opacity="1.0" stroke="rgb(77, 26, 204)" stroke-linecap="round" stroke-linejoin="round" stroke-opacity="0.34340128" stroke-width="0.0"/>
    <path d="M 41.60308074951172 139.56431579589844 C 29.28057289123535 147.68057250976562 31.758878707885742 153.35525512695312 12.733803749084473 170.91390991210938 C -1.283847451210022 178.31443786621094 2.3360819816589355 220.73025512695312 1.6509650945663452 142.0206756591797 C 4.2531843185424805 155.88818359375 1.7169082164764404 113.3628921508789 2.8699560165405273 103.11842346191406 C 24.106000900268555 117.5365219116211 37.7053337097168 96.0765151977539 41.60308074951172 139.56431579589844" fill="rgb(98, 150, 170)" opacity="0.6101327" stroke="rgb(172, 190, 31)" stroke-linecap="round" stroke-linejoin="round" stroke-opacity="0.37453917" stroke-width="0.0"/>
    <path d="M 378.6046142578125 442.9214172363281 C 372.898681640625 450.48468017578125 372.22796630859375 452.3973083496094 340.2365417480469 449.4717102050781 C 318.2572021484375 440.5782470703125 316.0680847167969 429.4801025390625 273.1063232421875 434.6315612792969 C 259.0461120605469 418.3367919921875 286.5703125 428.01092529296875 349.7704162597656 430.44525146484375 C 366.1435241699219 432.49871826171875 377.4849853515625 429.2972717285156 378.6046142578125 442.9214172363281" fill="rgb(32, 86, 108)" opacity="0.99635476" stroke="rgb(184, 183, 3)" stroke-linecap="round" stroke-linejoin="round" stroke-opacity="0.09350863" stroke-width="0.0"/>
    <path d="M 416.695068359375 537.4152221679688 C 382.0456237792969 525.42431640625 339.5238342285156 528.1085815429688 319.4226989746094 537.5792846679688 C 303.85809326171875 538.587646484375 310.31280517578125 558.8934936523438 303.4717712402344 557.5177612304688 C 300.7962646484375 434.7035827636719 275.6835632324219 398.0063171386719 317.1896057128906 500.4954528808594 C 354.23443603515625 513.9389038085938 373.4385986328125 519.8285522460938 416.695068359375 537.4152221679688" fill="rgb(215, 228, 238)" opacity="0.95933616" stroke="rgb(211, 140, 119)" stroke-linecap="round" stroke-linejoin="round" stroke-opacity="0.80919874" stroke-width="0.0"/>
    <path d="M 44.577354431152344 47.58809280395508 C 45.187286376953125 59.40657424926758 43.18516159057617 62.01929473876953 36.53507995605469 61.345027923583984 C -6.043923377990723 58.177303314208984 4.113861560821533 63.93167495727539 2.0636980533599854 10.675369262695312 C 1.4024600982666016 4.821021556854248 2.6053807735443115 -1.144521951675415 -1.4192382097244263 -6.136124134063721 C 30.087867736816406 7.208996295928955 29.730609893798828 11.344317436218262 44.577354431152344 47.58809280395508" fill="rgb(70, 120, 141)" opacity="0.5749856" stroke="rgb(27, 144, 88)" stroke-linecap="round" stroke-linejoin="round" stroke-opacity="0.4515706" stroke-width="0.0"/>
    <path d="M 54.90802001953125 70.8442611694336 C 47.57951736450195 104.66327667236328 45.730560302734375 106.08777618408203 29.546886444091797 110.11166381835938 C -9.72223949432373 106.42064666748047 6.775149345397949 102.26581573486328 2.522442579269409 79.17862701416016 C 3.3505287170410156 39.156620025634766 -3.8630855083465576 39.03407669067383 30.376150131225586 39.85456466674805 C 49.79935836791992 38.24147033691406 54.58376693725586 37.67912292480469 54.90802001953125 70.8442611694336" fill="rgb(98, 148, 166)" opacity="0.7343619" stroke="rgb(15, 37, 60)" stroke-linecap="round" stroke-linejoin="round" stroke-opacity="0.3673256" stroke-width="0.0"/>
    <path d="M 625.0802612304688 551.6439208984375 C 609.2081909179688 560.9976806640625 602.7734985351562 554.3401489257812 592.9113159179688 553.4157104492188 C 556.9613037109375 559.798095703125 552.0047607421875 565.9854736328125 554.39453125 579.430419921875 C 557.4188842773438 516.27978515625 553.1052856445312 529.4390869140625 557.7324829101562 527.2091064453125 C 582.5371704101562 533.2651977539062 597.2283325195312 538.2473754882812 625.0802612304688 551.6439208984375" fill="rgb(49, 3, 45)" opacity="0.96886307" stroke="rgb(118, 93, 52)" stroke-linecap="round" stroke-linejoin="round" stroke-opacity="0.1485946" stroke-width="0.0"/>
    <path d="M 531.2992553710938 600.2409057617188 C 527.3521728515625 601.04248046875 528.7625732421875 599.4832153320312 531.468994140625 606.3486328125 C 521.4912109375 583.454345703125 502.47222900390625 570.623046875 447.3822937011719 549.7806396484375 C 455.33209228515625 489.3576965332031 482.5903015136719 505.48370361328125 530.1102905273438 485.0137023925781 C 522.39501953125 526.2032470703125 533.3321533203125 555.9894409179688 531.2992553710938 600.2409057617188" fill="rgb(217, 227, 238)" opacity="0.99522537" stroke="rgb(5, 163, 37)" stroke-linecap="round" stroke-linejoin="round" stroke-opacity="0.3328018" stroke-width="0.0"/>
    <path d="M 31.17852783203125 166.9215087890625 C 45.5224723815918 193.216064453125 85.37797546386719 253.89239501953125 1.8156863451004028 280.3986511230469 C 1.7079756259918213 226.54788208007812 1.7856707572937012 201.49905395507812 1.7829227447509766 189.90872192382812 C 6.9505510330200195 153.24871826171875 -5.891529083251953 132.65757751464844 18.56510353088379 136.951904296875 C 26.475025177001953 150.10813903808594 23.55968475341797 157.65921020507812 31.17852783203125 166.9215087890625" fill="rgb(99, 148, 168)" opacity="0.89051557" stroke="rgb(195, 150, 131)" stroke-linecap="round" stroke-linejoin="round" stroke-opacity="0.76676005" stroke-width="0.0"/>
    <path d="M 282.6693420410156 407.78204345703125 C 254.27154541015625 446.6213073730469 310.58984375 437.0124816894531 257.3401794433594 438.6051025390625 C 196.59686279296875 453.1108703613281 219.44683837890625 466.9273376464844 211.5555877685547 480.783935546875 C 203.37576293945312 438.5635986328125 239.74188232421875 427.5106201171875 257.61181640625 425.4652099609375 C 283.8995056152344 425.2857360839844 267.62872314453125 427.4089660644531 282.6693420410156 407.78204345703125" fill="rgb(99, 85, 2)" opacity="0.7426763" stroke="rgb(218, 230, 219)" stroke-linecap="round" stroke-linejoin="round" stroke-opacity="0.6442795" stroke-width="0.0"/>
    <path d="M 29.68010711669922 94.12135314941406 C 17.46706199645996 130.22125244140625 23.965473175048828 134.11965942382812 6.0256876945495605 138.0040283203125 C 0.6462178230285645 147.12303161621094 1.5535743236541748 159.1331787109375 1.6049764156341553 80.35086059570312 C -2.4695818424224854 82.92314910888672 -9.361739158630371 79.92445373535156 31.677413940429688 79.63175201416016 C 40.13155746459961 84.03788757324219 38.35390853881836 88.26307678222656 29.68010711669922 94.12135314941406" fill="rgb(34, 97, 127)" opacity="0.39677432" stroke="rgb(80, 198, 12)" stroke-linecap="round" stroke-linejoin="round" stroke-opacity="0.5159796" stroke-width="0.0"/>
    <path d="M 37.144004821777344 60.68019485473633 C 36.45756530761719 64.20003509521484 32.777130126953125 64.86827087402344 35.98956298828125 70.31937408447266 C -3.9687442779541016 80.54292297363281 1.076470136642456 94.53825378417969 0.809012770652771 54.460758209228516 C 0.6065181493759155 9.206430435180664 1.1171941757202148 19.488161087036133 0.08686499297618866 -9.478351593017578 C 6.969124794006348 37.377464294433594 -7.246918201446533 42.94550323486328 37.144004821777344 60.68019485473633" fill="rgb(0, 77, 119)" opacity="0.18687527" stroke="rgb(239, 110, 43)" stroke-linecap="round" stroke-linejoin="round" stroke-opacity="0.09347746" stroke-width="0.0"/>
    <path d="M 112.5359878540039 -1.5852690935134888 C 88.2701416015625 60.31740188598633 79.79129791259766 58.06439208984375 45.585670471191406 68.4782485961914 C 23.354110717773438 64.39812469482422 21.878040313720703 61.913795471191406 23.79166603088379 53.710670471191406 C 32.77850341796875 7.2396979331970215 34.12171173095703 5.159553527832031 74.33789825439453 -10.596145629882812 C 95.77884674072266 -11.962004661560059 102.23175811767578 -12.627001762390137 112.5359878540039 -1.5852690935134888" fill="rgb(98, 149, 169)" opacity="0.9960292" stroke="rgb(42, 99, 241)" stroke-linecap="round" stroke-linejoin="round" stroke-opacity="0.16711089" stroke-width="0.0"/>
    <path d="M 73.97058868408203 10.095806121826172 C 61.50405502319336 24.6544132232666 59.52299118041992 25.987272262573242 43.13734817504883 26.792226791381836 C 22.069686889648438 20.017810821533203 19.807106018066406 18.993846893310547 9.889128684997559 -4.955662250518799 C 11.929935455322266 -17.40320587158203 16.633716583251953 -16.455724716186523 49.400550842285156 -16.11858367919922 C 70.9525146484375 -25.97745132446289 73.6424789428711 -27.016815185546875 73.97058868408203 10.095806121826172" fill="rgb(101, 148, 168)" opacity="0.99865294" stroke="rgb(209, 125, 179)" stroke-linecap="round" stroke-linejoin="round" stroke-opacity="0.44908255" stroke-width="0.0"/>
    <path d="M 302.4844665527344 394.736572265625 C 306.471435546875 416.564453125 304.17578125 415.1434020996094 300.60455322265625 412.19879150390625 C 267.30145263671875 401.4119873046875 267.4845275878906 401.3189697265625 250.79855346679688 368.950439453125 C 254.54922485351562 368.8069763183594 260.31585693359375 366.1850280761719 268.1607360839844 365.1526794433594 C 283.9494934082031 361.6283874511719 300.027587890625 368.53216552734375 302.4844665527344 394.736572265625" fill="rgb(250, 208, 28)" opacity="0.9898159" stroke="rgb(242, 163, 135)" stroke-linecap="round" stroke-linejoin="round" stroke-opacity="0.73419005" stroke-width="0.0"/>
    <path d="M 347.95928955078125 358.36688232421875 C 319.93701171875 365.58233642578125 307.3697204589844 373.9239501953125 329.6857604980469 364.2650451660156 C 282.9537658691406 381.1231384277344 317.30157470703125 375.2635803222656 279.77545166015625 361.6333923339844 C 252.6703338623047 369.9958190917969 289.25048828125 312.6070251464844 346.1387023925781 270.2553405761719 C 460.7488708496094 296.1319580078125 440.5461730957031 289.6893005371094 347.95928955078125 358.36688232421875" fill="rgb(246, 255, 249)" opacity="0.7440567" stroke="rgb(36, 247, 23)" stroke-linecap="round" stroke-linejoin="round" stroke-opacity="0.6125393" stroke-width="0.0"/>
    <path d="M 207.034423828125 397.87371826171875 C 208.8179168701172 397.0313720703125 187.91334533691406 417.7282409667969 194.84796142578125 451.6173400878906 C 198.98085021972656 469.67755126953125 180.47366333007812 447.8626403808594 194.97743225097656 409.42474365234375 C 196.2212371826172 412.63848876953125 200.0162353515625 391.3548278808594 225.90310668945312 378.5881042480469 C 264.0692443847656 369.0489501953125 225.434814453125 374.5848693847656 207.034423828125 397.87371826171875" fill="rgb(255, 255, 220)" opacity="0.86435515" stroke="rgb(229, 153, 75)" stroke-linecap="round" stroke-linejoin="round" stroke-opacity="0.7333528" stroke-width="0.0"/>
    <path d="M 553.0855102539062 564.1671752929688 C 550.3156127929688 578.4605102539062 553.3770141601562 585.8612670898438 547.8436279296875 584.1873779296875 C 547.65185546875 583.3563232421875 544.8240966796875 569.322021484375 527.30078125 548.8651123046875 C 538.68212890625 561.8009033203125 546.4900512695312 553.4942016601562 554.3729858398438 517.7990112304688 C 557.2491455078125 536.9576416015625 553.8460693359375 549.0423583984375 553.0855102539062 564.1671752929688" fill="rgb(223, 232, 244)" opacity="0.96466845" stroke="rgb(80, 216, 51)" stroke-linecap="round" stroke-linejoin="round" stroke-opacity="0.638194" stroke-width="0.0"/>
    <path d="M 545.6320190429688 580.7555541992188 C 545.8230590820312 590.5128784179688 551.3521118164062 582.0780639648438 536.4981689453125 580.4757080078125 C 527.5892333984375 590.919677734375 533.5135498046875 559.6448364257812 530.7741088867188 575.220458984375 C 530.1718139648438 547.3690185546875 531.26025390625 554.830078125 530.6647338867188 554.87890625 C 534.351806640625 557.7508544921875 544.1091918945312 574.1570434570312 545.6320190429688 580.7555541992188" fill="rgb(40, 0, 34)" opacity="0.97200215" stroke="rgb(160, 59, 109)" stroke-linecap="round" stroke-linejoin="round" stroke-opacity="0.6311856" stroke-width="0.0"/>
    <path d="M 373.578857421875 412.61578369140625 C 383.56146240234375 413.2686767578125 349.6052551269531 415.4908752441406 356.7812805175781 416.2624206542969 C 350.6040344238281 411.96380615234375 332.1412048339844 416.89447021484375 325.3259582519531 409.1553649902344 C 358.3772277832031 411.710205078125 354.5218200683594 404.61273193359375 352.1184997558594 410.2180480957031 C 366.9987487792969 411.2108459472656 374.46942138671875 409.17059326171875 373.578857421875 412.61578369140625" fill="rgb(0, 31, 50)" opacity="0.9205587" stroke="rgb(203, 177, 122)" stroke-linecap="round" stroke-linejoin="round" stroke-opacity="0.102846235" stroke-width="0.0"/>
    <path d="M 377.2406005859375 379.1858825683594 C 377.35809326171875 380.5001220703125 373.3031921386719 386.5556945800781 365.6175537109375 387.93072509765625 C 367.5961608886719 384.7828674316406 362.8873596191406 381.1673278808594 361.9372863769531 370.00079345703125 C 365.9852294921875 370.1070861816406 365.7375793457031 361.6051330566406 373.820068359375 366.927978515625 C 375.068603515625 369.0318603515625 378.69378662109375 365.0419921875 377.2406005859375 379.1858825683594" fill="rgb(252, 252, 252)" opacity="0.9995279" stroke="rgb(64, 169, 102)" stroke-linecap="round" stroke-linejoin="round" stroke-opacity="0.5910266" stroke-width="0.0"/>
    <path d="M 285.16802978515625 376.79364013671875 C 296.1218566894531 386.73388671875 290.74261474609375 386.6512145996094 267.9088439941406 386.5914306640625 C 264.25909423828125 386.8939514160156 260.5192565917969 387.3516540527344 267.2033996582031 378.935546875 C 273.3401184082031 375.1093444824219 275.4412841796875 373.6736145019531 268.59722900390625 377.7421569824219 C 266.6481018066406 376.020263671875 283.55224609375 375.61016845703125 285.16802978515625 376.79364013671875" fill="rgb(29, 32, 16)" opacity="0.9698385" stroke="rgb(65, 116, 228)" stroke-linecap="round" stroke-linejoin="round" stroke-opacity="0.8157138" stroke-width="0.0"/>
    <path d="M 365.6259460449219 430.6477966308594 C 385.6493835449219 417.2088928222656 379.018798828125 420.7033996582031 371.26116943359375 428.3587951660156 C 344.9301452636719 428.59332275390625 383.18646240234375 437.12060546875 299.3841857910156 425.1099548339844 C 361.7008361816406 429.2483215332031 380.45855712890625 424.9621887207031 375.02734375 413.3985595703125 C 378.3726806640625 412.5390319824219 384.0279541015625 421.72955322265625 365.6259460449219 430.6477966308594" fill="rgb(247, 235, 100)" opacity="0.77686274" stroke="rgb(18, 247, 131)" stroke-linecap="round" stroke-linejoin="round" stroke-opacity="0.43690374" stroke-width="0.0"/>
    <path d="M 417.0479431152344 350.8580322265625 C 434.75848388671875 349.7962646484375 364.9443054199219 349.5160217285156 318.3735046386719 366.29840087890625 C 399.05133056640625 347.0975341796875 421.2249450683594 351.3984069824219 404.63092041015625 351.7333679199219 C 413.303466796875 353.4384460449219 411.8542785644531 349.7422790527344 398.7792053222656 351.4306335449219 C 408.40325927734375 348.2278747558594 406.3259582519531 353.69110107421875 417.0479431152344 350.8580322265625" fill="rgb(134, 191, 211)" opacity="0.6159198" stroke="rgb(9, 79, 30)" stroke-linecap="round" stroke-linejoin="round" stroke-opacity="0.6815823" stroke-width="0.0"/>
    <path d="M 202.0322265625 472.4819641113281 C 208.37185668945312 479.2404479980469 219.7007598876953 485.82037353515625 203.2987823486328 470.3680419921875 C 199.75393676757812 463.9510498046875 196.9725799560547 461.7254333496094 203.1554718017578 469.4173278808594 C 194.04676818847656 461.9170227050781 189.01841735839844 420.0130615234375 191.36900329589844 449.367919921875 C 193.1284637451172 465.1963806152344 203.8621826171875 474.2756652832031 202.0322265625 472.4819641113281" fill="rgb(250, 253, 223)" opacity="0.9029864" stroke="rgb(224, 166, 25)" stroke-linecap="round" stroke-linejoin="round" stroke-opacity="0.24624003" stroke-width="0.0"/>
    <path d="M 304.37298583984375 551.7813720703125 C 302.4255676269531 494.5793151855469 299.9942626953125 467.5543212890625 287.582275390625 448.7196960449219 C 286.44427490234375 444.1080017089844 286.57916259765625 444.3333435058594 286.6673889160156 449.02655029296875 C 286.4281921386719 444.3258972167969 280.4323425292969 437.0099792480469 276.0796813964844 433.531494140625 C 285.05279541015625 419.8782043457031 342.4263916015625 492.0265808105469 304.37298583984375 551.7813720703125" fill="rgb(255, 255, 252)" opacity="0.9420247" stroke="rgb(170, 12, 22)" stroke-linecap="round" stroke-linejoin="round" stroke-opacity="0.4327145" stroke-width="0.0"/>
    <path d="M 515.74169921875 346.359619140625 C 525.1653442382812 360.9291076660156 559.3704833984375 409.47137451171875 523.0199584960938 350.3927307128906 C 393.6423034667969 282.5963134765625 300.68121337890625 419.16253662109375 418.5379333496094 289.01202392578125 C 499.7001647949219 318.144775390625 506.8946533203125 336.5702819824219 518.8099975585938 343.6402282714844 C 512.5611572265625 341.3968505859375 529.9697875976562 353.6923828125 515.74169921875 346.359619140625" fill="rgb(241, 245, 242)" opacity="0.6602256" stroke="rgb(56, 134, 250)" stroke-linecap="round" stroke-linejoin="round" stroke-opacity="0.4484792" stroke-width="0.0"/>
    <path d="M 370.238525390625 386.0273132324219 C 364.29388427734375 388.0312805175781 360.9049987792969 397.4559631347656 352.2651062011719 403.76031494140625 C 367.1511535644531 378.8813171386719 360.30303955078125 398.07366943359375 356.8206481933594 359.9377136230469 C 361.0120849609375 380.1048583984375 357.961181640625 384.7782897949219 357.9259948730469 369.01129150390625 C 365.45538330078125 381.5301513671875 363.0245056152344 386.08172607421875 370.238525390625 386.0273132324219" fill="rgb(13, 67, 103)" opacity="0.9752441" stroke="rgb(21, 1, 82)" stroke-linecap="round" stroke-linejoin="round" stroke-opacity="0.022372035" stroke-width="0.0"/>
    <path d="M 303.517333984375 406.9252624511719 C 304.4610290527344 416.2944641113281 294.1662902832031 411.5466003417969 366.4288635253906 416.2323913574219 C 365.9975280761719 414.3885498046875 329.7803955078125 413.4239196777344 321.9314880371094 408.5169372558594 C 330.05682373046875 412.4360656738281 338.396484375 411.5287170410156 328.9819030761719 412.14019775390625 C 316.6230773925781 411.3180236816406 321.7931823730469 414.45831298828125 303.517333984375 406.9252624511719" fill="rgb(149, 104, 26)" opacity="0.90536726" stroke="rgb(177, 58, 139)" stroke-linecap="round" stroke-linejoin="round" stroke-opacity="0.7601197" stroke-width="0.0"/>
    <path d="M 554.65673828125 440.81024169921875 C 556.03662109375 446.09478759765625 557.8739013671875 477.3535461425781 557.3390502929688 509.5770568847656 C 538.5928955078125 483.3376770019531 517.5806274414062 488.3870544433594 537.2341918945312 459.0246887207031 C 545.3272094726562 463.0433349609375 543.392822265625 453.23681640625 553.0718383789062 421.35357666015625 C 557.5941162109375 452.3354187011719 557.291748046875 468.2051696777344 554.65673828125 440.81024169921875" fill="rgb(216, 227, 240)" opacity="0.7727283" stroke="rgb(25, 22, 243)" stroke-linecap="round" stroke-linejoin="round" stroke-opacity="0.4674198" stroke-width="0.0"/>
    <path d="M 212.63519287109375 480.58612060546875 C 212.21160888671875 472.65802001953125 209.44485473632812 479.3753967285156 214.38490295410156 475.75189208984375 C 211.35174560546875 477.9559020996094 207.7630615234375 478.71484375 197.77606201171875 459.1293029785156 C 188.77566528320312 423.2717590332031 192.29505920410156 462.7847595214844 203.1915283203125 470.8875427246094 C 207.27159118652344 474.7083740234375 207.27854919433594 481.90533447265625 212.63519287109375 480.58612060546875" fill="rgb(254, 244, 103)" opacity="0.50592554" stroke="rgb(219, 141, 59)" stroke-linecap="round" stroke-linejoin="round" stroke-opacity="0.26088318" stroke-width="0.0"/>
    <path d="M 372.8627014160156 414.3587646484375 C 289.93975830078125 410.99591064453125 302.865478515625 414.57452392578125 308.7515869140625 408.8484191894531 C 300.83770751953125 415.9558410644531 305.5517578125 405.9538879394531 296.1392822265625 372.8895263671875 C 264.4847412109375 357.7668151855469 305.5848693847656 359.627197265625 303.4540710449219 389.1470947265625 C 315.7332763671875 422.01251220703125 286.1588439941406 402.05389404296875 372.8627014160156 414.3587646484375" fill="rgb(6, 0, 0)" opacity="0.79046917" stroke="rgb(191, 107, 172)" stroke-linecap="round" stroke-linejoin="round" stroke-opacity="0.63342905" stroke-width="0.0"/>
    <path d="M 308.4622497558594 301.9827880859375 C 280.42449951171875 348.7906799316406 307.6636962890625 330.335693359375 280.28619384765625 337.3831787109375 C 283.3074951171875 321.9434814453125 285.5582275390625 316.069580078125 277.1436462402344 327.7068786621094 C 279.5281066894531 319.8570556640625 284.7236633300781 323.203125 284.9969482421875 322.1957702636719 C 282.13897705078125 329.89422607421875 279.76727294921875 311.7496643066406 308.4622497558594 301.9827880859375" fill="rgb(95, 146, 163)" opacity="1.0" stroke="rgb(203, 166, 148)" stroke-linecap="round" stroke-linejoin="round" stroke-opacity="0.9937587" stroke-width="0.0"/>
    <path d="M 427.7258605957031 353.1033935546875 C 430.21258544921875 374.5944519042969 426.3647766113281 381.70843505859375 427.62139892578125 360.1183776855469 C 428.6095275878906 355.5553283691406 427.9998779296875 350.7666931152344 425.4146728515625 350.27593994140625 C 427.25738525390625 367.43560791015625 428.365234375 365.8924560546875 423.13958740234375 378.9165954589844 C 423.30120849609375 355.2790832519531 423.3482666015625 344.9590148925781 427.7258605957031 353.1033935546875" fill="rgb(228, 234, 246)" opacity="0.74298304" stroke="rgb(24, 163, 28)" stroke-linecap="round" stroke-linejoin="round" stroke-opacity="0.42265683" stroke-width="0.0"/>
    <path d="M 287.98614501953125 336.0754699707031 C 274.46282958984375 339.9852294921875 268.59796142578125 352.71014404296875 266.96221923828125 360.3019714355469 C 266.5802001953125 341.1034240722656 272.3805847167969 341.3835754394531 266.9306335449219 353.1690368652344 C 270.044921875 336.35870361328125 269.2950134277344 335.1448669433594 269.2252197265625 347.0340881347656 C 277.1238098144531 344.87908935546875 261.8946228027344 329.8356018066406 287.98614501953125 336.0754699707031" fill="rgb(92, 146, 160)" opacity="0.85937524" stroke="rgb(225, 131, 47)" stroke-linecap="round" stroke-linejoin="round" stroke-opacity="0.583548" stroke-width="0.0"/>
    <path d="M 363.3039855957031 385.81768798828125 C 364.1004943847656 381.4790954589844 362.967529296875 392.0554504394531 369.74432373046875 387.13177490234375 C 363.8198547363281 384.2089538574219 355.6138000488281 365.6533508300781 372.43267822265625 364.1560363769531 C 365.9055480957031 355.7637634277344 374.0582580566406 352.4082946777344 362.0347595214844 366.7873840332031 C 356.9898986816406 377.0301513671875 362.26422119140625 382.3169860839844 363.3039855957031 385.81768798828125" fill="rgb(4, 0, 0)" opacity="0.83698255" stroke="rgb(95, 165, 61)" stroke-linecap="round" stroke-linejoin="round" stroke-opacity="0.39840314" stroke-width="0.0"/>
    <path d="M 548.0306396484375 398.75042724609375 C 516.6166381835938 394.177978515625 541.1306762695312 391.6780700683594 505.98260498046875 398.9460144042969 C 504.39068603515625 356.6352844238281 508.4243469238281 355.53704833984375 508.3469543457031 343.20526123046875 C 514.9113159179688 349.812744140625 515.4649658203125 341.85601806640625 520.1133422851562 344.91595458984375 C 520.04541015625 346.0733337402344 536.744140625 363.6481018066406 548.0306396484375 398.75042724609375" fill="rgb(218, 228, 239)" opacity="0.6203194" stroke="rgb(200, 35, 220)" stroke-linecap="round" stroke-linejoin="round" stroke-opacity="0.679127" stroke-width="0.0"/>
    <path d="M 381.4745178222656 379.9649658203125 C 371.5492858886719 361.0741271972656 370.8204345703125 368.39752197265625 361.2185974121094 366.1563720703125 C 365.11529541015625 390.1834411621094 359.181884765625 381.4217224121094 364.8125305175781 368.1803283691406 C 355.5801086425781 364.0545959472656 376.3578186035156 356.14752197265625 359.31329345703125 357.6450500488281 C 378.1067199707031 353.63299560546875 391.84002685546875 351.471435546875 381.4745178222656 379.9649658203125" fill="rgb(23, 5, 48)" opacity="0.4475311" stroke="rgb(145, 81, 28)" stroke-linecap="round" stroke-linejoin="round" stroke-opacity="0.12488374" stroke-width="0.0"/>
    <path d="M 354.69378662109375 430.8995666503906 C 360.3641662597656 435.9922790527344 372.1567077636719 423.7265319824219 380.2936096191406 444.01300048828125 C 374.64813232421875 426.1749572753906 383.9482116699219 433.13385009765625 283.2598571777344 424.12677001953125 C 294.1629943847656 447.4156494140625 411.5594787597656 428.72576904296875 339.3629455566406 430.0514221191406 C 368.65985107421875 428.21978759765625 357.88262939453125 432.69805908203125 354.69378662109375 430.8995666503906" fill="rgb(0, 43, 37)" opacity="0.43686858" stroke="rgb(105, 176, 19)" stroke-linecap="round" stroke-linejoin="round" stroke-opacity="0.70400345" stroke-width="0.0"/>
    <path d="M 345.89178466796875 450.4828186035156 C 287.4951477050781 426.6300048828125 313.2299499511719 438.75830078125 274.7615966796875 432.265625 C 282.3461608886719 432.2587890625 273.15740966796875 439.30218505859375 270.2386169433594 432.7701416015625 C 272.46197509765625 425.41534423828125 265.9250183105469 426.1234436035156 279.9581298828125 426.53424072265625 C 233.99839782714844 417.43634033203125 369.43853759765625 442.98504638671875 345.89178466796875 450.4828186035156" fill="rgb(0, 0, 0)" opacity="0.6950328" stroke="rgb(9, 204, 62)" stroke-linecap="round" stroke-linejoin="round" stroke-opacity="0.9754387" stroke-width="0.0"/>
    <path d="M 199.92356872558594 477.35845947265625 C 189.08773803710938 446.03839111328125 184.6161651611328 433.06707763671875 181.69793701171875 465.7459716796875 C 193.849853515625 462.2305908203125 191.52330017089844 463.6036376953125 182.60513305664062 463.4005432128906 C 183.54800415039062 434.9290771484375 179.9800262451172 424.05029296875 176.3910675048828 460.92840576171875 C 186.14991760253906 466.23681640625 183.2135467529297 480.80419921875 199.92356872558594 477.35845947265625" fill="rgb(93, 148, 165)" opacity="0.9311967" stroke="rgb(189, 105, 112)" stroke-linecap="round" stroke-linejoin="round" stroke-opacity="0.796068" stroke-width="0.0"/>
    <path d="M 423.1513366699219 357.9377136230469 C 406.41510009765625 393.0154724121094 384.5013122558594 395.17901611328125 369.34405517578125 387.6883544921875 C 381.3269958496094 381.8276062011719 376.78936767578125 375.76953125 377.8077697753906 371.51690673828125 C 381.4095764160156 374.3433532714844 377.0246887207031 372.7810974121094 368.3271789550781 356.9888610839844 C 413.5533142089844 349.0278015136719 424.766845703125 349.3339538574219 423.1513366699219 357.9377136230469" fill="rgb(39, 0, 34)" opacity="0.99308467" stroke="rgb(163, 6, 247)" stroke-linecap="round" stroke-linejoin="round" stroke-opacity="0.3158491" stroke-width="0.0"/>
    <path d="M 359.724365234375 390.1075744628906 C 359.3032531738281 368.42132568359375 358.2276306152344 375.9419250488281 359.7635803222656 385.3276062011719 C 360.3557434082031 376.75506591796875 356.9581298828125 377.7867126464844 365.89776611328125 391.02685546875 C 360.160400390625 357.0177917480469 369.04962158203125 376.8079833984375 375.8206481933594 354.34698486328125 C 348.7599792480469 357.75152587890625 363.28350830078125 384.74560546875 359.724365234375 390.1075744628906" fill="rgb(0, 1, 49)" opacity="0.296704" stroke="rgb(73, 183, 156)" stroke-linecap="round" stroke-linejoin="round" stroke-opacity="0.38655186" stroke-width="0.0"/>
    <path d="M 365.23590087890625 383.6298828125 C 364.93145751953125 382.2967529296875 374.3111572265625 391.9957275390625 378.4576416015625 377.63250732421875 C 380.11865234375 362.82330322265625 378.88134765625 382.186767578125 369.51080322265625 388.24737548828125 C 382.4613037109375 391.4079895019531 394.5966491699219 397.5608215332031 366.8100280761719 388.0583190917969 C 359.93707275390625 391.6131896972656 373.8158874511719 388.8276062011719 365.23590087890625 383.6298828125" fill="rgb(147, 123, 129)" opacity="0.5571048" stroke="rgb(202, 195, 209)" stroke-linecap="round" stroke-linejoin="round" stroke-opacity="0.90098315" stroke-width="0.0"/>
    <path d="M 280.53399658203125 438.5548095703125 C 273.6535339355469 430.8766174316406 278.8897705078125 435.4380187988281 316.31317138671875 437.8634033203125 C 282.5772399902344 430.00897216796875 265.54681396484375 431.5482177734375 281.9683532714844 438.7337646484375 C 282.02728271484375 437.8927001953125 280.7071228027344 438.310546875 276.01556396484375 433.5512390136719 C 278.4354248046875 436.7239074707031 280.2056579589844 433.8092346191406 280.53399658203125 438.5548095703125" fill="rgb(227, 217, 108)" opacity="0.5123029" stroke="rgb(160, 94, 164)" stroke-linecap="round" stroke-linejoin="round" stroke-opacity="0.71143514" stroke-width="0.0"/>
    <path d="M 288.2118835449219 360.3653564453125 C 264.5046081542969 333.5672912597656 269.5291442871094 363.0254211425781 270.8039245605469 364.8119201660156 C 271.2993469238281 362.8320617675781 255.479736328125 367.0569152832031 257.1643981933594 366.3824462890625 C 256.5473327636719 369.09613037109375 264.5504455566406 359.1990661621094 216.4814453125 382.8192443847656 C 226.9028778076172 378.1773376464844 250.27728271484375 371.8114013671875 288.2118835449219 360.3653564453125" fill="rgb(251, 255, 250)" opacity="0.645531" stroke="rgb(121, 154, 199)" stroke-linecap="round" stroke-linejoin="round" stroke-opacity="0.75525033" stroke-width="0.0"/>
    <path d="M 602.7398071289062 474.4609069824219 C 604.7846069335938 466.3328857421875 601.736328125 471.7529602050781 595.7544555664062 472.5953369140625 C 593.6676025390625 478.1073303222656 594.5504760742188 470.4356994628906 587.0724487304688 466.43951416015625 C 586.7071533203125 460.190673828125 588.646240234375 459.6397705078125 598.4508056640625 460.8624267578125 C 611.5352783203125 474.84124755859375 596.5784912109375 458.9244384765625 602.7398071289062 474.4609069824219" fill="rgb(91, 143, 163)" opacity="0.35412762" stroke="rgb(29, 216, 60)" stroke-linecap="round" stroke-linejoin="round" stroke-opacity="0.4142938" stroke-width="0.0"/>
    <path d="M 641.0576782226562 382.0681457519531 C 621.436279296875 389.4262390136719 629.7836303710938 394.3928527832031 612.8939819335938 399.93463134765625 C 630.3792114257812 387.0304260253906 626.2214965820312 383.2194519042969 615.5061645507812 398.97747802734375 C 612.6246337890625 387.70770263671875 621.5988159179688 391.2738952636719 624.9310302734375 380.4306335449219 C 622.0159301757812 391.04486083984375 622.3733520507812 385.8824157714844 641.0576782226562 382.0681457519531" fill="rgb(101, 153, 175)" opacity="0.32642385" stroke="rgb(162, 43, 178)" stroke-linecap="round" stroke-linejoin="round" stroke-opacity="0.5782795" stroke-width="0.0"/>
    <path d="M 590.8098754882812 757.2025756835938 C 544.1610107421875 766.0070190429688 546.5594482421875 760.4454345703125 533.2217407226562 763.82080078125 C 542.1287841796875 765.9931030273438 535.210693359375 764.2285766601562 517.7084350585938 757.64794921875 C 528.1640014648438 748.4420776367188 533.9956665039062 752.1624145507812 539.4361572265625 749.0034790039062 C 541.0769653320312 760.5866088867188 549.5970458984375 745.4763793945312 590.8098754882812 757.2025756835938" fill="rgb(50, 6, 52)" opacity="0.92969346" stroke="rgb(1, 201, 247)" stroke-linecap="round" stroke-linejoin="round" stroke-opacity="0.44212517" stroke-width="0.0"/>
    <path d="M 591.6063842773438 313.98095703125 C 600.0321655273438 312.238037109375 593.2041015625 312.6029052734375 592.4277954101562 319.2722473144531 C 586.9314575195312 321.61865234375 587.3683471679688 315.4649658203125 591.2706909179688 310.8216857910156 C 586.6544189453125 313.9483642578125 588.9882202148438 307.0585021972656 591.4616088867188 305.0996398925781 C 595.2756958007812 305.2178955078125 594.8615112304688 312.8127746582031 591.6063842773438 313.98095703125" fill="rgb(97, 150, 170)" opacity="0.706644" stroke="rgb(61, 181, 164)" stroke-linecap="round" stroke-linejoin="round" stroke-opacity="0.7479025" stroke-width="0.0"/>
    <path d="M 465.4568786621094 206.31109619140625 C 462.28509521484375 201.50718688964844 460.1578674316406 200.17901611328125 461.48809814453125 207.64642333984375 C 455.95965576171875 207.61074829101562 456.2240905761719 206.28504943847656 453.66644287109375 199.87112426757812 C 456.80548095703125 201.25973510742188 460.19775390625 196.34259033203125 456.257080078125 190.02084350585938 C 464.0262145996094 194.2915802001953 464.9447021484375 193.049560546875 465.4568786621094 206.31109619140625" fill="rgb(97, 147, 167)" opacity="0.593389" stroke="rgb(66, 200, 177)" stroke-linecap="round" stroke-linejoin="round" stroke-opacity="0.09595889" stroke-width="0.0"/>
    <path d="M 540.0511474609375 691.40673828125 C 542.5887451171875 692.6564331054688 541.2623291015625 696.0540161132812 539.3753662109375 702.49365234375 C 531.6200561523438 698.645263671875 536.5208740234375 694.8235473632812 532.976318359375 689.4951171875 C 530.2908325195312 683.0882568359375 535.0179443359375 680.5303344726562 538.2559814453125 688.8848876953125 C 540.8483276367188 689.4373779296875 543.8776245117188 689.52197265625 540.0511474609375 691.40673828125" fill="rgb(50, 7, 50)" opacity="0.90096223" stroke="rgb(25, 238, 26)" stroke-linecap="round" stroke-linejoin="round" stroke-opacity="0.93469447" stroke-width="0.0"/>
    <path d="M 115.50733947753906 11.847433090209961 C 104.5103530883789 13.791607856750488 104.26935577392578 12.92266845703125 116.07537841796875 16.954235076904297 C 103.24742126464844 12.095136642456055 111.45221710205078 17.191938400268555 102.66700744628906 11.3496732711792 C 110.98067474365234 20.131864547729492 92.77787780761719 38.66618728637695 44.467525482177734 0.36521998047828674 C 133.6016082763672 -12.63261604309082 120.52725219726562 -5.1070237159729 115.50733947753906 11.847433090209961" fill="rgb(103, 146, 164)" opacity="0.44453627" stroke="rgb(51, 217, 193)" stroke-linecap="round" stroke-linejoin="round" stroke-opacity="0.0946266" stroke-width="0.0"/>
    <path d="M 582.207275390625 708.1167602539062 C 578.4784545898438 706.5260620117188 573.6798706054688 709.771728515625 578.2088012695312 720.3546752929688 C 568.3569946289062 706.7711791992188 567.6093139648438 717.545654296875 558.9940795898438 708.1376342773438 C 570.008056640625 694.4805908203125 569.6370849609375 698.2853393554688 576.758544921875 700.7527465820312 C 570.3268432617188 704.1932983398438 575.0824584960938 708.013671875 582.207275390625 708.1167602539062" fill="rgb(53, 6, 54)" opacity="0.7674487" stroke="rgb(244, 66, 104)" stroke-linecap="round" stroke-linejoin="round" stroke-opacity="0.82406" stroke-width="0.0"/>
    <path d="M 126.47039794921875 340.1016845703125 C 128.11244201660156 344.98614501953125 126.14494323730469 345.8575134277344 122.27002716064453 345.41546630859375 C 123.91121673583984 340.5462646484375 119.80530548095703 347.09698486328125 114.42079162597656 340.906005859375 C 122.29855346679688 333.9625549316406 116.73751831054688 337.9654846191406 123.35503387451172 337.4049072265625 C 126.2884521484375 334.67864990234375 128.03097534179688 337.1568603515625 126.47039794921875 340.1016845703125" fill="rgb(98, 150, 169)" opacity="0.903" stroke="rgb(155, 189, 250)" stroke-linecap="round" stroke-linejoin="round" stroke-opacity="0.2523355" stroke-width="0.0"/>
    <path d="M 249.94195556640625 731.52392578125 C 262.65802001953125 783.9813232421875 282.06280517578125 776.3714599609375 242.736083984375 779.7637939453125 C 191.7090301513672 780.2515258789062 172.73193359375 796.8201293945312 159.02638244628906 757.7505493164062 C 170.23843383789062 689.564208984375 191.6570281982422 680.0049438476562 195.69891357421875 687.6112670898438 C 230.57408142089844 767.496337890625 232.78355407714844 746.1746826171875 249.94195556640625 731.52392578125" fill="rgb(95, 146, 166)" opacity="0.92327356" stroke="rgb(195, 145, 94)" stroke-linecap="round" stroke-linejoin="round" stroke-opacity="0.8039385" stroke-width="0.0"/>
    <path d="M 715.8938598632812 30.60126304626465 C 705.7789306640625 67.8068618774414 679.7804565429688 74.32369232177734 596.5362548828125 116.77311706542969 C 580.6976928710938 57.520179748535156 616.306884765625 53.484840393066406 627.85107421875 33.561073303222656 C 635.6353759765625 39.75578308105469 632.0084228515625 39.712623596191406 632.5120849609375 27.92287826538086 C 636.5280151367188 30.689266204833984 640.51318359375 28.365421295166016 715.8938598632812 30.60126304626465" fill="rgb(97, 149, 169)" opacity="0.5359297" stroke="rgb(22, 90, 161)" stroke-linecap="round" stroke-linejoin="round" stroke-opacity="0.9688631" stroke-width="0.0"/>
    <path d="M 146.71829223632812 149.482177734375 C 139.1964874267578 158.78675842285156 139.21546936035156 160.68458557128906 128.20684814453125 164.60801696777344 C 137.64620971679688 157.31509399414062 129.73756408691406 163.70106506347656 137.08721923828125 150.805908203125 C 123.3678207397461 154.69300842285156 128.07850646972656 154.65811157226562 145.96502685546875 148.72105407714844 C 133.6531982421875 154.25872802734375 136.63917541503906 153.75315856933594 146.71829223632812 149.482177734375" fill="rgb(99, 149, 170)" opacity="0.6186737" stroke="rgb(149, 200, 242)" stroke-linecap="round" stroke-linejoin="round" stroke-opacity="0.13011344" stroke-width="0.0"/>
    <path d="M 66.97472381591797 484.3244934082031 C 71.47622680664062 494.01324462890625 63.9462890625 488.94091796875 69.13448333740234 495.4341125488281 C 61.63518524169922 492.9506530761719 59.90526580810547 488.5074462890625 59.52357482910156 481.2425842285156 C 34.706398010253906 482.2026062011719 26.188941955566406 472.6907958984375 40.41781234741211 463.0836486816406 C 76.390869140625 476.5623779296875 74.25877380371094 472.25054931640625 66.97472381591797 484.3244934082031" fill="rgb(96, 147, 167)" opacity="0.9018496" stroke="rgb(75, 91, 86)" stroke-linecap="round" stroke-linejoin="round" stroke-opacity="0.4801437" stroke-width="0.0"/>
    <path d="M 376.93145751953125 439.81939697265625 C 337.24542236328125 419.8639221191406 344.3407897949219 456.3547058105469 354.595458984375 447.7796936035156 C 353.7871398925781 430.18109130859375 347.4449462890625 433.2201843261719 345.753662109375 446.810791015625 C 314.32220458984375 435.3655090332031 315.00762939453125 432.6622314453125 323.60400390625 431.2968444824219 C 362.40057373046875 433.8315124511719 378.6508483886719 430.40228271484375 376.93145751953125 439.81939697265625" fill="rgb(19, 75, 101)" opacity="0.9219293" stroke="rgb(232, 66, 226)" stroke-linecap="round" stroke-linejoin="round" stroke-opacity="0.5689348" stroke-width="0.0"/>
    <path d="M 540.9453125 621.0069580078125 C 535.824462890625 625.543212890625 555.573974609375 625.0467529296875 540.054443359375 637.4100952148438 C 528.3395385742188 622.8097534179688 529.2456665039062 626.5493774414062 522.5284423828125 620.0028076171875 C 527.89013671875 608.8085327148438 525.3052368164062 610.1163940429688 538.4796142578125 611.59228515625 C 532.9359741210938 618.8132934570312 534.16943359375 620.4522705078125 540.9453125 621.0069580078125" fill="rgb(53, 6, 53)" opacity="0.8604398" stroke="rgb(154, 208, 17)" stroke-linecap="round" stroke-linejoin="round" stroke-opacity="0.95171696" stroke-width="0.0"/>
    <path d="M 482.7709655761719 179.07757568359375 C 463.39385986328125 163.24424743652344 464.8887634277344 165.8624725341797 487.0760498046875 182.92257690429688 C 462.5738525390625 174.2192840576172 471.1517333984375 168.42835998535156 456.5780334472656 158.0058135986328 C 466.57122802734375 164.4761505126953 473.9528503417969 161.79002380371094 467.6094970703125 149.03067016601562 C 466.7687072753906 165.43768310546875 478.4875793457031 151.40663146972656 482.7709655761719 179.07757568359375" fill="rgb(97, 150, 171)" opacity="0.6719045" stroke="rgb(6, 4, 205)" stroke-linecap="round" stroke-linejoin="round" stroke-opacity="0.6982334" stroke-width="0.0"/>
    <path d="M 119.51066589355469 234.76992797851562 C 89.31199645996094 253.6925048828125 73.9657974243164 244.08831787109375 87.37812042236328 225.7890167236328 C 74.47431182861328 221.00035095214844 82.97162628173828 223.46710205078125 68.1038589477539 215.86328125 C 83.05204010009766 210.33201599121094 71.36721801757812 207.78443908691406 85.04576110839844 187.33294677734375 C 95.91551208496094 204.56488037109375 94.85668182373047 203.79306030273438 119.51066589355469 234.76992797851562" fill="rgb(97, 150, 170)" opacity="0.5515448" stroke="rgb(13, 237, 205)" stroke-linecap="round" stroke-linejoin="round" stroke-opacity="0.5818342" stroke-width="0.0"/>
    <path d="M 398.6714172363281 384.7728271484375 C 375.11566162109375 384.609375 384.5210876464844 384.3477783203125 385.4207458496094 387.99420166015625 C 377.5370178222656 387.9989929199219 383.9666442871094 388.01470947265625 376.1271057128906 387.99078369140625 C 374.76361083984375 382.576904296875 383.8641662597656 388.6962585449219 381.71417236328125 371.32086181640625 C 384.7821044921875 386.4580383300781 386.37371826171875 377.1516418457031 398.6714172363281 384.7728271484375" fill="rgb(42, 0, 38)" opacity="0.9062146" stroke="rgb(70, 173, 230)" stroke-linecap="round" stroke-linejoin="round" stroke-opacity="0.8798826" stroke-width="0.0"/>
    <path d="M 122.55027770996094 157.3155975341797 C 120.71622467041016 165.87713623046875 117.09077453613281 158.2781219482422 116.4576187133789 169.87576293945312 C 110.44820404052734 160.0972137451172 114.8076400756836 163.4060516357422 108.33284759521484 155.67242431640625 C 112.87864685058594 157.07518005371094 113.37743377685547 154.3616485595703 117.80552673339844 153.38221740722656 C 119.98643493652344 153.5797119140625 122.18730163574219 155.5690460205078 122.55027770996094 157.3155975341797" fill="rgb(96, 149, 168)" opacity="0.7111036" stroke="rgb(208, 124, 83)" stroke-linecap="round" stroke-linejoin="round" stroke-opacity="0.730382" stroke-width="0.0"/>
    <path d="M 598.4735107421875 484.6243591308594 C 597.9220581054688 484.4425354003906 594.2290649414062 488.3668212890625 593.7805786132812 490.65533447265625 C 594.8985595703125 487.77166748046875 587.7520751953125 485.666015625 588.1387939453125 480.7530212402344 C 597.8428955078125 486.4939270019531 599.146484375 485.15264892578125 588.494384765625 480.6007995605469 C 598.4824829101562 475.82904052734375 592.2713012695312 482.7538146972656 598.4735107421875 484.6243591308594" fill="rgb(100, 151, 175)" opacity="0.5342551" stroke="rgb(113, 96, 155)" stroke-linecap="round" stroke-linejoin="round" stroke-opacity="0.8015438" stroke-width="0.0"/>
    <path d="M 762.736083984375 390.5029296875 C 737.76611328125 222.8654327392578 765.0858154296875 161.10520935058594 752.0474853515625 143.3871612548828 C 738.649169921875 139.00253295898438 749.4697875976562 139.8249053955078 731.4495239257812 155.58314514160156 C 779.280517578125 113.14861297607422 730.3897705078125 69.35224914550781 762.7951049804688 -39.9076042175293 C 762.6727905273438 57.539859771728516 762.7633666992188 100.45497131347656 762.736083984375 390.5029296875" fill="rgb(92, 146, 166)" opacity="1.0" stroke="rgb(9, 179, 192)" stroke-linecap="round" stroke-linejoin="round" stroke-opacity="0.73051995" stroke-width="0.0"/>
    <path d="M 420.67626953125 618.6517333984375 C 409.2226257324219 618.28125 410.078125 618.7022094726562 413.9185791015625 627.9761352539062 C 408.9927978515625 617.568115234375 409.0787048339844 623.0761108398438 400.0367736816406 623.63720703125 C 412.1664123535156 617.6292724609375 404.6967468261719 617.9080200195312 410.9460754394531 607.2198486328125 C 424.3620910644531 610.4319458007812 419.042724609375 608.8099365234375 420.67626953125 618.6517333984375" fill="rgb(50, 6, 48)" opacity="0.8973261" stroke="rgb(12, 241, 9)" stroke-linecap="round" stroke-linejoin="round" stroke-opacity="0.6951893" stroke-width="0.0"/>
    <path d="M 641.6599731445312 15.134982109069824 C 636.613037109375 16.91002655029297 635.6076049804688 17.872556686401367 637.6360473632812 13.95134162902832 C 631.0843505859375 16.705547332763672 634.5120239257812 9.936965942382812 630.2814331054688 8.980891227722168 C 630.2788696289062 14.319456100463867 634.0064086914062 11.949660301208496 633.4356079101562 9.159491539001465 C 640.262451171875 8.94882869720459 635.012451171875 10.094478607177734 641.6599731445312 15.134982109069824" fill="rgb(98, 149, 166)" opacity="0.7186945" stroke="rgb(148, 123, 43)" stroke-linecap="round" stroke-linejoin="round" stroke-opacity="0.40124664" stroke-width="0.0"/>
    <path d="M 764.5689697265625 719.136962890625 C 743.8287353515625 700.1644897460938 743.0675048828125 695.1162719726562 744.967041015625 721.019287109375 C 756.1919555664062 708.7791137695312 741.2572021484375 705.8796997070312 731.595458984375 699.6339111328125 C 730.25732421875 692.5117797851562 736.3960571289062 691.033203125 749.0274047851562 693.345458984375 C 749.9692993164062 698.802001953125 757.2855224609375 688.043212890625 764.5689697265625 719.136962890625" fill="rgb(52, 4, 52)" opacity="0.8751251" stroke="rgb(213, 167, 156)" stroke-linecap="round" stroke-linejoin="round" stroke-opacity="0.7575792" stroke-width="0.0"/>
    <path d="M 744.8740234375 499.2970886230469 C 740.0634155273438 507.79425048828125 732.7423706054688 504.7953186035156 748.6934814453125 511.7706604003906 C 724.5386962890625 509.6951904296875 733.0411987304688 512.1166381835938 711.973388671875 493.67889404296875 C 732.8198852539062 491.55670166015625 737.416748046875 496.0418701171875 734.1890869140625 500.6167907714844 C 742.1417846679688 496.4698791503906 735.2738037109375 504.7620849609375 744.8740234375 499.2970886230469" fill="rgb(94, 145, 164)" opacity="0.4590725" stroke="rgb(235, 69, 118)" stroke-linecap="round" stroke-linejoin="round" stroke-opacity="0.17410101" stroke-width="0.0"/>
    <path d="M 206.31773376464844 655.827392578125 C 184.6236114501953 775.4307250976562 187.61488342285156 781.6991577148438 30.429931640625 788.2708129882812 C -9.308194160461426 860.3603515625 5.65329122543335 961.9176635742188 2.9240777492523193 250.11366271972656 C 83.96858978271484 476.023193359375 5.985682487487793 566.0152587890625 55.933433532714844 634.5302734375 C 176.5768585205078 686.2673950195312 198.526611328125 658.1509399414062 206.31773376464844 655.827392578125" fill="rgb(101, 148, 167)" opacity="0.96976733" stroke="rgb(174, 106, 71)" stroke-linecap="round" stroke-linejoin="round" stroke-opacity="0.83334565" stroke-width="0.0"/>
    <path d="M 406.04217529296875 654.9452514648438 C 398.9888610839844 660.1762084960938 406.62384033203125 654.40869140625 396.18511962890625 663.7132568359375 C 407.15032958984375 654.5176391601562 399.3773193359375 654.9232788085938 384.1210632324219 658.6586303710938 C 392.5211181640625 651.1822509765625 395.6665954589844 652.69775390625 398.56658935546875 652.994384765625 C 400.5267333984375 654.16748046875 401.7428283691406 655.3304443359375 406.04217529296875 654.9452514648438" fill="rgb(52, 6, 53)" opacity="0.9038639" stroke="rgb(215, 163, 5)" stroke-linecap="round" stroke-linejoin="round" stroke-opacity="0.4411598" stroke-width="0.0"/>
    <path d="M 363.6588439941406 378.1405334472656 C 361.81365966796875 368.2583312988281 363.4111022949219 376.90673828125 364.0482177734375 372.8428039550781 C 363.27764892578125 376.7904052734375 361.3772888183594 370.4021911621094 362.6808166503906 374.9701843261719 C 368.1765441894531 386.85516357421875 368.12835693359375 388.04034423828125 363.92596435546875 381.3839111328125 C 360.8826599121094 375.320068359375 363.3522033691406 373.7129211425781 363.6588439941406 378.1405334472656" fill="rgb(128, 149, 143)" opacity="0.5846711" stroke="rgb(201, 74, 187)" stroke-linecap="round" stroke-linejoin="round" stroke-opacity="0.48942572" stroke-width="0.0"/>
    <path d="M 529.9613647460938 599.04736328125 C 527.5643310546875 601.3016357421875 531.8445434570312 596.1939086914062 511.92327880859375 579.383544921875 C 533.1688232421875 590.8599853515625 524.57373046875 606.228759765625 527.3531494140625 568.0958251953125 C 529.5422973632812 612.3796997070312 525.4827880859375 599.0601196289062 528.1072387695312 546.05419921875 C 527.4443969726562 556.4695434570312 530.849365234375 565.2520141601562 529.9613647460938 599.04736328125" fill="rgb(249, 253, 253)" opacity="0.89316964" stroke="rgb(12, 157, 219)" stroke-linecap="round" stroke-linejoin="round" stroke-opacity="0.7558568" stroke-width="0.0"/>
    <path d="M 540.1607055664062 745.786865234375 C 513.9951171875 751.6293334960938 528.9706420898438 750.20556640625 521.0125732421875 758.361328125 C 513.6965942382812 761.950439453125 515.8504638671875 753.74267578125 519.9987182617188 752.885986328125 C 518.7280883789062 749.262451171875 514.76025390625 744.2913818359375 519.0222778320312 730.71484375 C 521.4393920898438 750.20751953125 520.3903198242188 742.3983154296875 540.1607055664062 745.786865234375" fill="rgb(51, 6, 54)" opacity="0.86527807" stroke="rgb(141, 114, 231)" stroke-linecap="round" stroke-linejoin="round" stroke-opacity="0.60202366" stroke-width="0.0"/>
    <path d="M 433.068603515625 700.2115478515625 C 430.87249755859375 697.5132446289062 426.4315490722656 699.3753051757812 428.06903076171875 713.6427612304688 C 432.1060485839844 701.8794555664062 415.3049011230469 709.5562744140625 411.50341796875 696.283935546875 C 417.9533996582031 681.4489135742188 421.86944580078125 686.63916015625 431.8570556640625 694.6724853515625 C 425.23150634765625 694.4851684570312 428.1175537109375 694.0861206054688 433.068603515625 700.2115478515625" fill="rgb(53, 6, 54)" opacity="0.85959154" stroke="rgb(131, 34, 206)" stroke-linecap="round" stroke-linejoin="round" stroke-opacity="0.738122" stroke-width="0.0"/>
    <path d="M 139.52035522460938 243.7014923095703 C 127.67774200439453 257.3406066894531 124.80657196044922 252.8091583251953 121.91448211669922 235.90859985351562 C 120.47125244140625 249.32460021972656 121.86495208740234 244.78973388671875 112.19940948486328 238.61007690429688 C 128.7919464111328 240.10476684570312 120.92552185058594 239.4927978515625 94.2518310546875 200.46900939941406 C 140.36907958984375 211.93727111816406 116.51222229003906 234.0720672607422 139.52035522460938 243.7014923095703" fill="rgb(94, 148, 170)" opacity="0.4712825" stroke="rgb(147, 86, 208)" stroke-linecap="round" stroke-linejoin="round" stroke-opacity="0.3549631" stroke-width="0.0"/>
    <path d="M 343.431396484375 121.86444854736328 C 345.1344909667969 105.81327056884766 340.03106689453125 112.3407211303711 330.8167419433594 118.19281768798828 C 335.1871643066406 109.87371826171875 331.91107177734375 106.9765396118164 320.86907958984375 116.41202545166016 C 324.9570617675781 104.28118896484375 328.21417236328125 109.98017883300781 335.6767883300781 93.66120147705078 C 336.9647216796875 106.95996856689453 337.9425354003906 98.75062561035156 343.431396484375 121.86444854736328" fill="rgb(96, 146, 165)" opacity="0.5174574" stroke="rgb(225, 230, 144)" stroke-linecap="round" stroke-linejoin="round" stroke-opacity="0.4895661" stroke-width="0.0"/>
    <path d="M 369.6308288574219 81.6335220336914 C 377.07806396484375 92.78792572021484 380.8478088378906 106.55690002441406 369.8894348144531 100.1694564819336 C 369.63922119140625 82.24674987792969 364.02081298828125 80.00944519042969 357.8998718261719 83.49503326416016 C 369.7830810546875 78.55809020996094 356.65655517578125 75.25591278076172 383.1805419921875 62.384342193603516 C 380.3243103027344 92.13692474365234 378.0729064941406 76.60963439941406 369.6308288574219 81.6335220336914" fill="rgb(98, 155, 178)" opacity="0.23056029" stroke="rgb(48, 69, 229)" stroke-linecap="round" stroke-linejoin="round" stroke-opacity="0.45647445" stroke-width="0.0"/>
    <path d="M 190.6403350830078 187.47169494628906 C 189.06649780273438 185.4532928466797 189.6544189453125 190.42613220214844 186.3187713623047 192.55816650390625 C 187.68687438964844 191.2672576904297 184.7490234375 188.06504821777344 176.5568084716797 186.1735382080078 C 184.34115600585938 187.94053649902344 187.15113830566406 184.29135131835938 179.65423583984375 174.23709106445312 C 191.40390014648438 181.11239624023438 192.5885009765625 185.5969696044922 190.6403350830078 187.47169494628906" fill="rgb(99, 150, 171)" opacity="0.67466277" stroke="rgb(200, 124, 31)" stroke-linecap="round" stroke-linejoin="round" stroke-opacity="0.46860373" stroke-width="0.0"/>
    <path d="M 760.7462158203125 134.46112060546875 C 758.9097290039062 126.95072174072266 757.5453491210938 129.34425354003906 758.2772216796875 133.85324096679688 C 757.6617431640625 134.22657775878906 757.6318969726562 131.89874267578125 756.0623779296875 130.73162841796875 C 757.731201171875 122.7254867553711 758.3826904296875 121.90059661865234 757.127685546875 130.2130584716797 C 758.65380859375 127.83744049072266 756.6945190429688 134.16412353515625 760.7462158203125 134.46112060546875" fill="rgb(89, 141, 161)" opacity="0.9368205" stroke="rgb(189, 168, 21)" stroke-linecap="round" stroke-linejoin="round" stroke-opacity="0.24374104" stroke-width="0.0"/>
    <path d="M 439.5785827636719 698.4783325195312 C 452.55059814453125 693.9808349609375 449.8503723144531 698.4014282226562 442.15557861328125 701.5406494140625 C 431.5782775878906 702.5250854492188 432.6821594238281 702.4255981445312 433.65625 697.297119140625 C 438.2974853515625 691.6989135742188 441.109375 689.5462646484375 437.9481506347656 696.5699462890625 C 442.7755432128906 691.81298828125 442.10321044921875 693.6324462890625 439.5785827636719 698.4783325195312" fill="rgb(52, 5, 53)" opacity="0.9014162" stroke="rgb(251, 186, 83)" stroke-linecap="round" stroke-linejoin="round" stroke-opacity="0.36514845" stroke-width="0.0"/>
    <path d="M 762.8952026367188 505.072509765625 C 761.7420654296875 626.5009765625 765.8739624023438 671.4033813476562 756.4940795898438 606.9755859375 C 743.1104736328125 488.2256774902344 750.4290161132812 469.89044189453125 753.0756225585938 490.1277770996094 C 740.7639770507812 478.1238098144531 759.4139404296875 475.4969482421875 752.2449340820312 338.8871154785156 C 766.0272827148438 348.4031982421875 761.7137451171875 390.5926208496094 762.8952026367188 505.072509765625" fill="rgb(93, 146, 167)" opacity="1.0" stroke="rgb(47, 186, 151)" stroke-linecap="round" stroke-linejoin="round" stroke-opacity="0.7757877" stroke-width="0.0"/>
    <path d="M 422.9911193847656 19.485687255859375 C 431.5332946777344 21.981189727783203 425.2230529785156 31.126506805419922 418.9981689453125 35.5167121887207 C 418.8159484863281 20.193065643310547 410.71429443359375 41.25757598876953 380.4785461425781 12.731019020080566 C 397.47320556640625 -16.29610824584961 400.70013427734375 -3.1136486530303955 482.0182189941406 0.629988968372345 C 452.6815490722656 35.71015548706055 425.43060302734375 40.04524230957031 422.9911193847656 19.485687255859375" fill="rgb(94, 146, 166)" opacity="0.32920453" stroke="rgb(79, 33, 154)" stroke-linecap="round" stroke-linejoin="round" stroke-opacity="0.22325519" stroke-width="0.0"/>
    <path d="M 446.2237243652344 439.96099853515625 C 431.35723876953125 449.9960021972656 443.69647216796875 452.0963439941406 406.9884948730469 502.3542785644531 C 344.9411315917969 491.2754211425781 339.8250732421875 476.0001220703125 402.7626037597656 428.9434814453125 C 415.26068115234375 434.58819580078125 414.5516052246094 434.2365417480469 400.9694519042969 422.5715637207031 C 437.78363037109375 413.9884033203125 428.7317199707031 433.8608703613281 446.2237243652344 439.96099853515625" fill="rgb(215, 225, 237)" opacity="0.85300034" stroke="rgb(60, 236, 224)" stroke-linecap="round" stroke-linejoin="round" stroke-opacity="0.2918937" stroke-width="0.0"/>
    <path d="M 692.050048828125 216.9593963623047 C 690.8403930664062 220.77432250976562 688.7615966796875 221.9993896484375 686.5128784179688 217.7440948486328 C 687.3007202148438 223.8474578857422 683.3245239257812 218.89120483398438 680.2000732421875 216.75343322753906 C 681.4766235351562 213.2718963623047 682.6007690429688 210.54150390625 685.538818359375 214.12779235839844 C 688.5216064453125 211.63967895507812 688.2933349609375 217.85768127441406 692.050048828125 216.9593963623047" fill="rgb(99, 149, 168)" opacity="0.77646196" stroke="rgb(172, 135, 173)" stroke-linecap="round" stroke-linejoin="round" stroke-opacity="0.023386307" stroke-width="0.0"/>
    <path d="M 516.7071533203125 456.0457458496094 C 508.3255310058594 472.90655517578125 504.5622863769531 466.4976501464844 488.42620849609375 461.8157043457031 C 489.1998596191406 473.54522705078125 478.5092468261719 496.7626647949219 415.3381042480469 448.5850524902344 C 447.6999206542969 374.3826904296875 470.64990234375 410.47747802734375 494.92559814453125 438.7360534667969 C 497.6954040527344 447.3057556152344 501.3080139160156 437.3045654296875 516.7071533203125 456.0457458496094" fill="rgb(216, 225, 237)" opacity="0.9870128" stroke="rgb(120, 136, 111)" stroke-linecap="round" stroke-linejoin="round" stroke-opacity="0.010133673" stroke-width="0.0"/>
    <path d="M 204.94100952148438 81.08264923095703 C 204.89138793945312 95.8710708618164 201.99984741210938 95.75933837890625 198.4503173828125 83.16236877441406 C 194.6436309814453 89.5911865234375 196.836181640625 82.55851745605469 186.07696533203125 80.72425079345703 C 195.73480224609375 79.4521484375 190.8216094970703 76.45790100097656 192.5931396484375 49.982994079589844 C 213.07711791992188 67.0745620727539 212.78761291503906 76.59734344482422 204.94100952148438 81.08264923095703" fill="rgb(85, 147, 169)" opacity="0.19471528" stroke="rgb(44, 135, 254)" stroke-linecap="round" stroke-linejoin="round" stroke-opacity="0.1264931" stroke-width="0.0"/>
    <path d="M 202.3406219482422 253.59886169433594 C 195.97242736816406 246.78128051757812 196.03305053710938 249.38755798339844 200.1203155517578 259.7769470214844 C 196.85421752929688 251.51144409179688 192.51405334472656 249.6917266845703 190.9358367919922 254.23947143554688 C 201.66925048828125 249.0006866455078 192.19285583496094 250.7091064453125 200.8621826171875 244.75177001953125 C 193.6636199951172 245.5529327392578 200.22247314453125 247.20443725585938 202.3406219482422 253.59886169433594" fill="rgb(105, 156, 175)" opacity="0.45425752" stroke="rgb(146, 18, 36)" stroke-linecap="round" stroke-linejoin="round" stroke-opacity="0.22661033" stroke-width="0.0"/>
    <path d="M 674.2177734375 269.97869873046875 C 667.8585205078125 271.2142028808594 666.5615844726562 273.75714111328125 665.7294921875 280.6683349609375 C 667.522216796875 277.393310546875 653.6117553710938 292.09625244140625 649.3575439453125 263.4632873535156 C 658.6051635742188 247.65640258789062 670.365234375 255.48670959472656 661.9937133789062 269.7799377441406 C 667.96240234375 265.51165771484375 671.2764892578125 266.5188293457031 674.2177734375 269.97869873046875" fill="rgb(92, 144, 166)" opacity="0.26562595" stroke="rgb(53, 73, 232)" stroke-linecap="round" stroke-linejoin="round" stroke-opacity="0.012905164" stroke-width="0.0"/>
    <path d="M 572.7725830078125 749.509033203125 C 559.060302734375 746.1143188476562 557.2265014648438 747.106201171875 551.292236328125 746.0252075195312 C 548.7913208007812 748.0574951171875 547.9088134765625 745.9342651367188 547.4437866210938 739.8433227539062 C 540.8399047851562 734.5464477539062 546.3267211914062 737.5667114257812 551.4954833984375 737.7459106445312 C 557.0661010742188 733.8406982421875 570.6397094726562 732.4213256835938 572.7725830078125 749.509033203125" fill="rgb(53, 5, 52)" opacity="0.893601" stroke="rgb(132, 194, 123)" stroke-linecap="round" stroke-linejoin="round" stroke-opacity="0.13744587" stroke-width="0.0"/>
    <path d="M 258.66070556640625 636.22900390625 C 265.1348571777344 625.9313354492188 235.75413513183594 665.8896484375 255.70689392089844 747.1815185546875 C 229.9512176513672 664.318359375 268.7508544921875 629.3557739257812 252.40977478027344 633.88134765625 C 265.8373718261719 632.2899780273438 245.79190063476562 646.5887451171875 277.83935546875 599.895751953125 C 267.1280517578125 619.708740234375 262.62115478515625 624.677001953125 258.66070556640625 636.22900390625" fill="rgb(143, 170, 221)" opacity="0.29114726" stroke="rgb(10, 209, 46)" stroke-linecap="round" stroke-linejoin="round" stroke-opacity="0.14247428" stroke-width="0.0"/>
    <path d="M 187.31463623046875 342.164794921875 C 181.2535400390625 341.0408020019531 190.905517578125 360.03857421875 165.979736328125 357.82867431640625 C 170.62171936035156 341.72564697265625 175.83509826660156 345.75567626953125 177.44857788085938 348.7185974121094 C 173.44078063964844 341.29803466796875 176.03268432617188 338.08935546875 183.24639892578125 337.1084289550781 C 177.82102966308594 343.73480224609375 180.07540893554688 341.42169189453125 187.31463623046875 342.164794921875" fill="rgb(95, 148, 168)" opacity="0.45273656" stroke="rgb(243, 207, 86)" stroke-linecap="round" stroke-linejoin="round" stroke-opacity="0.06679997" stroke-width="0.0"/>
    <path d="M 520.3331298828125 348.2828674316406 C 524.710693359375 360.77728271484375 520.5092163085938 331.5657653808594 442.2433776855469 328.5726623535156 C 458.79815673828125 331.7357177734375 425.7969665527344 319.3540344238281 359.8077392578125 349.6397399902344 C 381.7333984375 246.30120849609375 426.0489196777344 299.2396240234375 466.9527587890625 307.6714782714844 C 446.2478942871094 304.84185791015625 487.3852233886719 312.3168029785156 520.3331298828125 348.2828674316406" fill="rgb(255, 255, 249)" opacity="0.95867324" stroke="rgb(206, 72, 247)" stroke-linecap="round" stroke-linejoin="round" stroke-opacity="0.08724409" stroke-width="0.0"/>
    <path d="M 714.1151733398438 247.20462036132812 C 717.7384643554688 248.72653198242188 712.087890625 247.7742156982422 710.3755493164062 247.23744201660156 C 708.6155395507812 254.6765594482422 709.9722290039062 246.1542510986328 707.1588134765625 244.86227416992188 C 705.77783203125 242.07052612304688 708.6104125976562 242.3534698486328 710.028076171875 244.16720581054688 C 712.6983642578125 240.89454650878906 714.93505859375 244.3208770751953 714.1151733398438 247.20462036132812" fill="rgb(103, 152, 172)" opacity="0.4566742" stroke="rgb(19, 82, 158)" stroke-linecap="round" stroke-linejoin="round" stroke-opacity="0.9753281" stroke-width="0.0"/>
    <path d="M 538.7577514648438 152.224853515625 C 520.6763305664062 152.09970092773438 519.8743286132812 152.3380889892578 525.2111206054688 158.33758544921875 C 519.9024047851562 159.34158325195312 517.2744140625 155.8601837158203 511.7351379394531 149.0754852294922 C 518.1409912109375 151.59051513671875 520.4384765625 152.2490997314453 519.3742065429688 142.160888671875 C 520.7257080078125 155.6625213623047 525.781982421875 149.8174591064453 538.7577514648438 152.224853515625" fill="rgb(98, 149, 170)" opacity="0.6920922" stroke="rgb(42, 244, 142)" stroke-linecap="round" stroke-linejoin="round" stroke-opacity="0.7386491" stroke-width="0.0"/>
    <path d="M 681.9747924804688 349.0608825683594 C 674.61474609375 356.00421142578125 680.7332153320312 351.02362060546875 668.4639282226562 364.56976318359375 C 674.6967163085938 352.39447021484375 675.34423828125 351.0365905761719 666.680419921875 351.9422912597656 C 665.3429565429688 345.40277099609375 671.4871826171875 351.64947509765625 673.71484375 346.14697265625 C 671.5698852539062 350.4567565917969 674.6602172851562 349.4667663574219 681.9747924804688 349.0608825683594" fill="rgb(98, 152, 170)" opacity="0.4709793" stroke="rgb(114, 127, 109)" stroke-linecap="round" stroke-linejoin="round" stroke-opacity="0.036749758" stroke-width="0.0"/>
    <path d="M 418.2542419433594 293.6150207519531 C 359.7174377441406 363.3101501464844 343.427978515625 354.61798095703125 300.6057434082031 374.5148620605469 C 301.9275817871094 363.5080871582031 244.30938720703125 351.859130859375 294.3667297363281 335.1830749511719 C 306.2273254394531 298.9208984375 313.1660461425781 302.2721252441406 313.9333190917969 297.0186462402344 C 319.5422668457031 300.02374267578125 331.742431640625 247.13339233398438 418.2542419433594 293.6150207519531" fill="rgb(254, 255, 249)" opacity="0.97999024" stroke="rgb(252, 31, 56)" stroke-linecap="round" stroke-linejoin="round" stroke-opacity="0.067564145" stroke-width="0.0"/>
    <path d="M 658.2369384765625 213.12290954589844 C 655.8072509765625 203.93426513671875 656.7279663085938 210.3849334716797 647.8367919921875 211.74673461914062 C 654.498291015625 205.3620147705078 648.3529663085938 211.59036254882812 655.5975341796875 206.11019897460938 C 643.8402099609375 201.1422882080078 648.1168212890625 202.48655700683594 656.8536987304688 202.22337341308594 C 653.3634643554688 193.42800903320312 653.786376953125 198.52587890625 658.2369384765625 213.12290954589844" fill="rgb(100, 150, 168)" opacity="0.64871234" stroke="rgb(156, 220, 12)" stroke-linecap="round" stroke-linejoin="round" stroke-opacity="0.67905605" stroke-width="0.0"/>
    <path d="M 650.4902954101562 760.328125 C 635.6602783203125 741.7097778320312 642.880126953125 753.1007690429688 631.336181640625 757.4031372070312 C 624.5321044921875 762.2344970703125 628.8140258789062 754.9456787109375 627.1112670898438 749.8350830078125 C 632.852783203125 746.5568237304688 617.058349609375 744.0957641601562 630.6775512695312 736.3140869140625 C 660.8197631835938 724.749755859375 666.4789428710938 747.09228515625 650.4902954101562 760.328125" fill="rgb(52, 6, 53)" opacity="0.87658596" stroke="rgb(49, 167, 107)" stroke-linecap="round" stroke-linejoin="round" stroke-opacity="0.5282748" stroke-width="0.0"/>
    <path d="M 590.212890625 304.5057067871094 C 585.5674438476562 303.5570068359375 580.1104125976562 309.12860107421875 584.1734619140625 310.0209045410156 C 576.3975830078125 308.4419860839844 582.5660400390625 308.4555969238281 574.6898803710938 302.8532409667969 C 575.328857421875 305.4916076660156 579.91943359375 300.0117492675781 581.81787109375 294.73516845703125 C 583.4676513671875 299.71734619140625 588.102783203125 300.1970520019531 590.212890625 304.5057067871094" fill="rgb(97, 148, 168)" opacity="0.72087044" stroke="rgb(0, 11, 219)" stroke-linecap="round" stroke-linejoin="round" stroke-opacity="0.76776445" stroke-width="0.0"/>
    <path d="M 207.4881134033203 303.5306701660156 C 208.6617431640625 310.2545471191406 203.90902709960938 305.6123962402344 204.48377990722656 311.12939453125 C 197.91087341308594 308.2703857421875 199.06204223632812 306.2544250488281 199.06808471679688 302.05816650390625 C 201.11553955078125 306.2672119140625 198.88485717773438 300.6470642089844 205.17562866210938 301.5063171386719 C 206.91905212402344 295.5750427246094 205.78826904296875 301.7663879394531 207.4881134033203 303.5306701660156" fill="rgb(98, 152, 168)" opacity="0.6546011" stroke="rgb(167, 29, 192)" stroke-linecap="round" stroke-linejoin="round" stroke-opacity="0.14579675" stroke-width="0.0"/>
    <path d="M 527.8499755859375 493.87158203125 C 528.878662109375 496.19384765625 521.44140625 490.4422912597656 508.0141906738281 539.7755126953125 C 487.280029296875 503.3741760253906 503.989013671875 504.4664611816406 497.6545715332031 488.9477233886719 C 514.5250244140625 482.66650390625 508.4085693359375 490.4310302734375 524.6279907226562 485.0487365722656 C 517.2655029296875 486.96893310546875 522.7445678710938 485.9037170410156 527.8499755859375 493.87158203125" fill="rgb(216, 226, 237)" opacity="0.9573351" stroke="rgb(237, 181, 3)" stroke-linecap="round" stroke-linejoin="round" stroke-opacity="0.7560975" stroke-width="0.0"/>
    <path d="M 305.8280029296875 725.4099731445312 C 354.99700927734375 635.3378295898438 407.8020935058594 610.5465087890625 428.7367858886719 765.619873046875 C 259.384521484375 763.73486328125 254.99427795410156 773.658447265625 267.501708984375 748.3623046875 C 280.39886474609375 712.3585815429688 276.25042724609375 719.2608642578125 305.2213439941406 715.813232421875 C 306.0386962890625 735.6423950195312 306.4501037597656 745.2141723632812 305.8280029296875 725.4099731445312" fill="rgb(50, 6, 50)" opacity="1.0" stroke="rgb(91, 79, 147)" stroke-linecap="round" stroke-linejoin="round" stroke-opacity="0.3780646" stroke-width="0.0"/>
    <path d="M 216.59754943847656 187.7899627685547 C 214.5876007080078 194.82305908203125 204.15719604492188 190.8288116455078 200.4645233154297 191.72047424316406 C 199.15518188476562 197.3506622314453 195.68206787109375 196.04493713378906 194.68321228027344 183.18896484375 C 199.30776977539062 193.56259155273438 203.3963623046875 185.04522705078125 214.27330017089844 187.74664306640625 C 199.51319885253906 187.67352294921875 201.4773712158203 187.6851348876953 216.59754943847656 187.7899627685547" fill="rgb(103, 151, 173)" opacity="0.49070224" stroke="rgb(67, 198, 30)" stroke-linecap="round" stroke-linejoin="round" stroke-opacity="0.72867393" stroke-width="0.0"/>
    <path d="M 226.27645874023438 93.63899230957031 C 229.07749938964844 95.75607299804688 223.91795349121094 95.55598449707031 224.0602264404297 97.97924041748047 C 218.6539764404297 98.42073822021484 222.64842224121094 95.53578186035156 219.87196350097656 92.55207824707031 C 225.3054962158203 92.30864715576172 220.2099609375 90.28315734863281 221.10922241210938 81.93833923339844 C 226.7371063232422 87.89033508300781 228.11367797851562 90.69693756103516 226.27645874023438 93.63899230957031" fill="rgb(98, 150, 168)" opacity="0.6438901" stroke="rgb(2, 33, 141)" stroke-linecap="round" stroke-linejoin="round" stroke-opacity="0.7966864" stroke-width="0.0"/>
    <path d="M 87.01828002929688 190.60011291503906 C 80.85175323486328 185.75096130371094 83.85794067382812 190.08184814453125 77.5467758178711 190.55845642089844 C 77.98057556152344 187.9506378173828 75.99009704589844 183.0228729248047 73.04164123535156 186.46424865722656 C 75.73013305664062 182.44102478027344 78.08389282226562 179.66049194335938 75.7793197631836 184.0160675048828 C 81.9701919555664 181.44883728027344 81.51605224609375 183.11209106445312 87.01828002929688 190.60011291503906" fill="rgb(100, 150, 172)" opacity="0.7342603" stroke="rgb(69, 230, 116)" stroke-linecap="round" stroke-linejoin="round" stroke-opacity="0.21785922" stroke-width="0.0"/>
    <path d="M 132.16671752929688 457.90411376953125 C 132.18650817871094 462.14501953125 131.85931396484375 465.44281005859375 128.29718017578125 462.962158203125 C 123.11309814453125 463.3964538574219 128.61044311523438 462.02288818359375 122.54782104492188 458.8651428222656 C 122.88221740722656 453.09185791015625 123.13542938232422 451.1067810058594 129.031005859375 454.71612548828125 C 120.92141723632812 454.51971435546875 129.34930419921875 455.70294189453125 132.16671752929688 457.90411376953125" fill="rgb(98, 149, 167)" opacity="0.7367523" stroke="rgb(82, 81, 67)" stroke-linecap="round" stroke-linejoin="round" stroke-opacity="0.040256426" stroke-width="0.0"/>
    <path d="M 512.009765625 309.4674987792969 C 512.615966796875 309.8341979980469 509.6326904296875 316.9537658691406 499.86724853515625 320.2655944824219 C 508.26123046875 313.5644836425781 506.8972473144531 312.3568115234375 499.11846923828125 311.41387939453125 C 502.83624267578125 304.51019287109375 504.3493957519531 306.4739074707031 508.0070495605469 305.83465576171875 C 512.2279052734375 306.1626281738281 513.8416137695312 306.3271484375 512.009765625 309.4674987792969" fill="rgb(99, 149, 167)" opacity="0.7080431" stroke="rgb(187, 165, 249)" stroke-linecap="round" stroke-linejoin="round" stroke-opacity="0.5431762" stroke-width="0.0"/>
    <path d="M 146.1687469482422 677.6357421875 C 145.49887084960938 680.1357421875 143.6687469482422 681.9658813476562 141.1687469482422 682.6357421875 C 138.6687469482422 681.9658813476562 136.838623046875 680.1357421875 136.1687469482422 677.6357421875 C 136.838623046875 675.1357421875 138.6687469482422 673.3056030273438 141.1687469482422 672.6357421875 C 143.6687469482422 673.3056030273438 145.49887084960938 675.1357421875 146.1687469482422 677.6357421875" fill="rgb(95, 148, 168)" opacity="1.0" stroke="rgb(12, 135, 241)" stroke-linecap="round" stroke-linejoin="round" stroke-opacity="0.84764385" stroke-width="0.0"/>
  </g>
</svg>
