<?xml version="1.0" ?>
<svg height="768" version="1.1" width="768" xmlns="http://www.w3.org/2000/svg">
  <defs/>
  <g>
    <path d="M 764.3734741210938 792.4121704101562 C 351.26141357421875 820.29833984375 215.313232421875 847.6236572265625 179.72018432617188 609.0668334960938 C 598.2913818359375 327.96746826171875 731.9088134765625 247.39710998535156 21.684343338012695 549.3986206054688 C -16.03325653076172 -99.2318344116211 -1.1446503400802612 -53.10165786743164 764.5142211914062 -12.522013664245605 C 764.3738403320312 260.75262451171875 764.570068359375 319.7415771484375 764.3734741210938 792.4121704101562" fill="rgb(51, 103, 124)" opacity="0.7101385" stroke="rgb(242, 217, 203)" stroke-linecap="round" stroke-linejoin="round" stroke-opacity="0.71962214" stroke-width="0.0"/>
    <path d="M 418.9911193847656 773.4177856445312 C 417.90032958984375 781.865966796875 412.3475341796875 782.13037109375 282.99755859375 783.5355224609375 C 292.7841796875 802.124755859375 248.6685791015625 771.3284301757812 249.71107482910156 685.822265625 C 251.5689239501953 626.516845703125 293.376953125 559.7214965820312 365.9253234863281 548.6760864257812 C 428.1286926269531 625.2786254882812 414.5922546386719 654.7587890625 418.9911193847656 773.4177856445312" fill="rgb(50, 0, 47)" opacity="0.9547444" stroke="rgb(52, 80, 13)" stroke-linecap="round" stroke-linejoin="round" stroke-opacity="0.118004136" stroke-width="0.0"/>
    <path d="M 743.0802612304688 583.7328491210938 C 810.0530395507812 939.4070434570312 745.5087280273438 855.0822143554688 639.1676025390625 783.4080810546875 C 383.4914855957031 780.7656860351562 386.3518371582031 774.1371459960938 381.8109436035156 763.6128540039062 C 365.4210205078125 666.2643432617188 312.28363037109375 694.2014770507812 362.133056640625 551.0757446289062 C 598.4442138671875 555.5203247070312 366.10125732421875 596.2711181640625 743.0802612304688 583.7328491210938" fill="rgb(51, 6, 50)" opacity="0.9847721" stroke="rgb(4, 38, 250)" stroke-linecap="round" stroke-linejoin="round" stroke-opacity="0.26343647" stroke-width="0.0"/>
    <path d="M 491.11572265625 691.4971313476562 C 445.15985107421875 636.3003540039062 439.46661376953125 629.5286865234375 430.6388854980469 619.3780517578125 C 417.6718444824219 596.7698364257812 404.0362243652344 609.5021362304688 363.9315490722656 548.8802490234375 C 364.4000244140625 549.1990966796875 407.0867004394531 539.6321411132812 458.87158203125 555.822509765625 C 499.3426208496094 570.8880004882812 507.1361389160156 563.5517578125 491.11572265625 691.4971313476562" fill="rgb(50, 5, 49)" opacity="0.9735391" stroke="rgb(128, 50, 213)" stroke-linecap="round" stroke-linejoin="round" stroke-opacity="0.26315796" stroke-width="0.0"/>
    <path d="M 477.9043273925781 687.696533203125 C 443.5467224121094 682.6702270507812 444.2689514160156 678.13330078125 374.299560546875 663.0977783203125 C 391.4310302734375 643.6635131835938 387.3328552246094 641.9378662109375 384.9168701171875 586.2938232421875 C 396.0360412597656 585.5536499023438 400.0101013183594 588.711181640625 449.0897521972656 590.0934448242188 C 441.9034118652344 601.2164916992188 461.8592529296875 590.17822265625 477.9043273925781 687.696533203125" fill="rgb(51, 6, 51)" opacity="1.0" stroke="rgb(43, 31, 31)" stroke-linecap="round" stroke-linejoin="round" stroke-opacity="0.971857" stroke-width="0.0"/>
    <path d="M 773.3820190429688 647.0239868164062 C 776.3601684570312 786.422119140625 755.8401489257812 778.585205078125 754.9200439453125 776.6016235351562 C 667.3804931640625 775.17529296875 664.4019165039062 775.1902465820312 635.1956787109375 779.9470825195312 C 626.4848022460938 725.060302734375 621.1798706054688 732.093994140625 535.7874145507812 670.8628540039062 C 721.309326171875 636.0787353515625 713.2039794921875 590.4951171875 773.3820190429688 647.0239868164062" fill="rgb(51, 5, 50)" opacity="1.0" stroke="rgb(114, 58, 76)" stroke-linecap="round" stroke-linejoin="round" stroke-opacity="0.7408875" stroke-width="0.0"/>
    <path d="M 501.3030700683594 661.976806640625 C 497.2639465332031 795.7324829101562 467.09222412109375 783.0145874023438 455.80877685546875 778.5596923828125 C 399.2577819824219 778.0394287109375 395.2492370605469 777.53466796875 383.7457580566406 766.4143676757812 C 385.923583984375 724.57470703125 388.542236328125 721.7225952148438 391.4837951660156 702.4736938476562 C 449.6228942871094 685.4842529296875 454.6543273925781 681.6837768554688 501.3030700683594 661.976806640625" fill="rgb(51, 6, 51)" opacity="0.95281875" stroke="rgb(192, 160, 53)" stroke-linecap="round" stroke-linejoin="round" stroke-opacity="0.16767655" stroke-width="0.0"/>
    <path d="M 344.0 325.0 C 343.33013916015625 327.5 341.5 329.33013916015625 339.0 330.0 C 336.5 329.33013916015625 334.66986083984375 327.5 334.0 325.0 C 334.66986083984375 322.5 336.5 320.66986083984375 339.0 320.0 C 341.5 320.66986083984375 343.33013916015625 322.5 344.0 325.0" fill="rgb(255, 255, 247)" opacity="1.0" stroke="rgb(29, 40, 109)" stroke-linecap="round" stroke-linejoin="round" stroke-opacity="0.9429024" stroke-width="0.0"/>
    <path d="M 336.0 417.0 C 335.33013916015625 419.5 333.5 421.33013916015625 331.0 422.0 C 328.5 421.33013916015625 326.66986083984375 419.5 326.0 417.0 C 326.66986083984375 414.5 328.5 412.66986083984375 331.0 412.0 C 333.5 412.66986083984375 335.33013916015625 414.5 336.0 417.0" fill="rgb(252, 199, 18)" opacity="1.0" stroke="rgb(236, 230, 114)" stroke-linecap="round" stroke-linejoin="round" stroke-opacity="0.5568124" stroke-width="0.0"/>
    <path d="M 164.0 563.0 C 163.3301239013672 565.5 161.5 567.3301391601562 159.0 568.0 C 156.5 567.3301391601562 154.6698760986328 565.5 154.0 563.0 C 154.6698760986328 560.5 156.5 558.6698608398438 159.0 558.0 C 161.5 558.6698608398438 163.3301239013672 560.5 164.0 563.0" fill="rgb(99, 149, 167)" opacity="1.0" stroke="rgb(13, 101, 124)" stroke-linecap="round" stroke-linejoin="round" stroke-opacity="0.3704566" stroke-width="0.0"/>
    <path d="M 72.0 678.0 C 71.33012390136719 680.5 69.5 682.3301391601562 67.0 683.0 C 64.5 682.3301391601562 62.66987228393555 680.5 62.0 678.0 C 62.66987228393555 675.5 64.5 673.6698608398438 67.0 673.0 C 69.5 673.6698608398438 71.33012390136719 675.5 72.0 678.0" fill="rgb(96, 150, 171)" opacity="1.0" stroke="rgb(220, 46, 219)" stroke-linecap="round" stroke-linejoin="round" stroke-opacity="0.5888399" stroke-width="0.0"/>
    <path d="M 9.0 749.0 C 8.330126762390137 751.5 6.5 753.3301391601562 4.0 754.0 C 1.5 753.3301391601562 -0.3301270306110382 751.5 -1.0 749.0 C -0.3301270306110382 746.5 1.5 744.6698608398438 4.0 744.0 C 6.5 744.6698608398438 8.330126762390137 746.5 9.0 749.0" fill="rgb(101, 145, 168)" opacity="1.0" stroke="rgb(47, 198, 143)" stroke-linecap="round" stroke-linejoin="round" stroke-opacity="0.46955255" stroke-width="0.0"/>
    <path d="M 417.0 358.0 C 416.33013916015625 360.5 414.5 362.33013916015625 412.0 363.0 C 409.5 362.33013916015625 407.66986083984375 360.5 407.0 358.0 C 407.66986083984375 355.5 409.5 353.66986083984375 412.0 353.0 C 414.5 353.66986083984375 416.33013916015625 355.5 417.0 358.0" fill="rgb(38, 0, 34)" opacity="1.0" stroke="rgb(224, 79, 9)" stroke-linecap="round" stroke-linejoin="round" stroke-opacity="0.8877654" stroke-width="0.0"/>
    <path d="M 421.0 358.0 C 420.33013916015625 360.5 418.5 362.33013916015625 416.0 363.0 C 413.5 362.33013916015625 411.66986083984375 360.5 411.0 358.0 C 411.66986083984375 355.5 413.5 353.66986083984375 416.0 353.0 C 418.5 353.66986083984375 420.33013916015625 355.5 421.0 358.0" fill="rgb(39, 0, 34)" opacity="1.0" stroke="rgb(213, 239, 89)" stroke-linecap="round" stroke-linejoin="round" stroke-opacity="0.4390413" stroke-width="0.0"/>
    <path d="M 184.0 537.0 C 183.3301239013672 539.5 181.5 541.3301391601562 179.0 542.0 C 176.5 541.3301391601562 174.6698760986328 539.5 174.0 537.0 C 174.6698760986328 534.5 176.5 532.6698608398438 179.0 532.0 C 181.5 532.6698608398438 183.3301239013672 534.5 184.0 537.0" fill="rgb(99, 150, 166)" opacity="1.0" stroke="rgb(77, 192, 18)" stroke-linecap="round" stroke-linejoin="round" stroke-opacity="0.75667703" stroke-width="0.0"/>
  </g>
</svg>
