<?xml version="1.0" ?>
<svg height="768" version="1.1" width="768" xmlns="http://www.w3.org/2000/svg">
  <defs/>
  <g>
    <path d="M 764.3706665039062 792.4375610351562 C 350.39404296875 820.512939453125 214.23065185546875 848.244873046875 180.25804138183594 617.0953369140625 C 611.6873168945312 341.4386291503906 732.0177001953125 245.7644500732422 19.76246452331543 550.3562622070312 C -17.41299819946289 -99.614013671875 -2.1070406436920166 -53.29404830932617 764.5136108398438 -12.559484481811523 C 764.3635864257812 260.75262451171875 764.5625 319.7413024902344 764.3706665039062 792.4375610351562" fill="rgb(46, 111, 137)" opacity="0.73189586" stroke="rgb(242, 217, 203)" stroke-linecap="round" stroke-linejoin="round" stroke-opacity="0.71962214" stroke-width="0.0"/>
    <path d="M 419.0157470703125 773.4053955078125 C 417.90032958984375 781.865966796875 412.3475341796875 782.13037109375 282.4928283691406 783.4928588867188 C 292.527587890625 802.7272338867188 249.33192443847656 771.1607666015625 249.5866241455078 687.9962768554688 C 250.750244140625 625.7970581054688 294.5174560546875 559.54248046875 365.1190490722656 548.8933715820312 C 428.1944885253906 625.2735595703125 414.6642150878906 654.7512817382812 419.0157470703125 773.4053955078125" fill="rgb(51, 0, 46)" opacity="0.9552062" stroke="rgb(52, 80, 13)" stroke-linecap="round" stroke-linejoin="round" stroke-opacity="0.118004136" stroke-width="0.0"/>
    <path d="M 736.5652465820312 583.6727294921875 C 808.9920043945312 944.5982055664062 745.396484375 855.3167724609375 639.16796875 783.4080810546875 C 383.5223083496094 780.7656860351562 386.5101013183594 774.1064453125 381.855224609375 763.2824096679688 C 365.4377746582031 666.239501953125 312.28729248046875 694.2014770507812 360.37030029296875 551.7745971679688 C 597.7236328125 555.6544799804688 372.60284423828125 591.0769653320312 736.5652465820312 583.6727294921875" fill="rgb(49, 0, 44)" opacity="0.9461658" stroke="rgb(4, 38, 250)" stroke-linecap="round" stroke-linejoin="round" stroke-opacity="0.26343647" stroke-width="0.0"/>
    <path d="M 509.4563903808594 674.5827026367188 C 445.1566467285156 636.3032836914062 439.4671630859375 629.5286865234375 429.913818359375 619.4689331054688 C 414.9576416015625 598.855712890625 395.441162109375 620.5281982421875 356.7243957519531 550.9264526367188 C 360.71771240234375 548.5624389648438 407.6396789550781 539.08984375 462.00311279296875 556.7067260742188 C 508.08880615234375 576.685302734375 544.6937255859375 582.0556640625 509.4563903808594 674.5827026367188" fill="rgb(49, 4, 48)" opacity="0.9748797" stroke="rgb(128, 50, 213)" stroke-linecap="round" stroke-linejoin="round" stroke-opacity="0.26315796" stroke-width="0.0"/>
    <path d="M 477.5944519042969 694.2772827148438 C 440.7254638671875 692.1764526367188 438.3055114746094 688.16845703125 346.1828308105469 666.6558227539062 C 383.62615966796875 641.6197509765625 377.5462341308594 640.5377807617188 374.2336120605469 578.5360717773438 C 395.8956604003906 585.4064331054688 399.8754577636719 588.8102416992188 448.991455078125 590.1295776367188 C 441.9034118652344 601.2164916992188 461.8592529296875 590.17822265625 477.5944519042969 694.2772827148438" fill="rgb(51, 6, 51)" opacity="1.0" stroke="rgb(43, 31, 31)" stroke-linecap="round" stroke-linejoin="round" stroke-opacity="0.971857" stroke-width="0.0"/>
    <path d="M 772.6972045898438 645.5490112304688 C 779.4932861328125 788.3673706054688 759.9293823242188 779.6956787109375 759.9092407226562 776.7083129882812 C 667.3804931640625 775.17529296875 664.4019165039062 775.1902465820312 631.3526000976562 798.499755859375 C 617.9761962890625 736.9754028320312 612.3179931640625 743.7108154296875 510.7436828613281 663.0889282226562 C 745.2360229492188 590.030517578125 697.9212646484375 588.1022338867188 772.6972045898438 645.5490112304688" fill="rgb(51, 6, 50)" opacity="1.0" stroke="rgb(114, 58, 76)" stroke-linecap="round" stroke-linejoin="round" stroke-opacity="0.7408875" stroke-width="0.0"/>
    <path d="M 510.5450439453125 614.58642578125 C 513.2026977539062 802.6500854492188 475.8532409667969 785.5541381835938 463.14788818359375 778.73828125 C 399.39532470703125 777.9588012695312 395.9815673828125 776.7952880859375 376.1080017089844 761.8751831054688 C 377.13702392578125 724.5330200195312 381.58123779296875 722.0128784179688 363.5870056152344 699.132568359375 C 444.45574951171875 675.478515625 451.1239318847656 670.8564453125 510.5450439453125 614.58642578125" fill="rgb(51, 6, 51)" opacity="0.9756067" stroke="rgb(192, 160, 53)" stroke-linecap="round" stroke-linejoin="round" stroke-opacity="0.16767655" stroke-width="0.0"/>
    <path d="M 554.5728149414062 465.889404296875 C 574.9353637695312 638.8804321289062 504.4731750488281 552.6170654296875 190.58062744140625 460.3772888183594 C 277.4554748535156 375.25927734375 261.1407470703125 403.12127685546875 272.8906555175781 343.5218811035156 C 318.2202453613281 326.7814025878906 273.4400634765625 317.05584716796875 352.7920227050781 265.4290466308594 C 313.2419128417969 278.28253173828125 572.09326171875 272.0060119628906 554.5728149414062 465.889404296875" fill="rgb(220, 229, 238)" opacity="1.0" stroke="rgb(29, 40, 109)" stroke-linecap="round" stroke-linejoin="round" stroke-opacity="0.9429024" stroke-width="0.0"/>
    <path d="M 363.022216796875 430.3011474609375 C 384.2567138671875 435.46563720703125 378.9239196777344 451.732666015625 364.21795654296875 448.992431640625 C 340.7854919433594 452.8118591308594 257.42626953125 395.9064636230469 207.7475128173828 482.9394226074219 C 142.91510009765625 375.7396545410156 286.3086853027344 348.5697021484375 340.4399719238281 368.61602783203125 C 269.552978515625 439.7761535644531 416.68994140625 386.2370910644531 363.022216796875 430.3011474609375" fill="rgb(248, 205, 55)" opacity="1.0" stroke="rgb(236, 230, 114)" stroke-linecap="round" stroke-linejoin="round" stroke-opacity="0.5568124" stroke-width="0.0"/>
    <path d="M 224.41366577148438 599.136962890625 C 220.14219665527344 617.0942993164062 218.0108642578125 620.4199829101562 201.10166931152344 670.0809936523438 C 95.73090362548828 661.1468505859375 91.9188461303711 642.8049926757812 44.931610107421875 633.1980590820312 C 27.002674102783203 509.4327392578125 33.896549224853516 496.8895263671875 63.00664520263672 487.6725158691406 C 198.25621032714844 507.2294921875 187.35235595703125 534.5237426757812 224.41366577148438 599.136962890625" fill="rgb(98, 149, 169)" opacity="0.98715454" stroke="rgb(13, 101, 124)" stroke-linecap="round" stroke-linejoin="round" stroke-opacity="0.3704566" stroke-width="0.0"/>
    <path d="M 250.43112182617188 767.7969360351562 C 130.6309814453125 785.9500732421875 102.31039428710938 780.6401977539062 1.7339731454849243 767.7720336914062 C 3.8180034160614014 721.8118286132812 1.1591435670852661 716.3819580078125 1.8537240028381348 262.3900146484375 C 111.92721557617188 485.5158386230469 54.862701416015625 530.7943725585938 172.6619873046875 574.1969604492188 C 193.34548950195312 605.7355346679688 221.5272216796875 579.1807250976562 250.43112182617188 767.7969360351562" fill="rgb(99, 148, 168)" opacity="0.89264804" stroke="rgb(220, 46, 219)" stroke-linecap="round" stroke-linejoin="round" stroke-opacity="0.5888399" stroke-width="0.0"/>
    <path d="M 91.7109375 769.4974365234375 C 41.49909210205078 781.872314453125 34.28742218017578 779.9769287109375 0.9544767141342163 780.1588134765625 C 0.6819334626197815 774.8619995117188 0.9758313894271851 750.9984130859375 0.7298787236213684 583.3482666015625 C 34.02255630493164 677.6533813476562 -7.4770941734313965 677.1095581054688 35.46775436401367 686.0335693359375 C 62.62092971801758 701.1903686523438 77.02401733398438 694.6244506835938 91.7109375 769.4974365234375" fill="rgb(75, 128, 156)" opacity="0.22753991" stroke="rgb(47, 198, 143)" stroke-linecap="round" stroke-linejoin="round" stroke-opacity="0.46955255" stroke-width="0.0"/>
    <path d="M 421.69091796875 363.4364929199219 C 413.49462890625 363.6006774902344 415.5335388183594 396.6924743652344 364.88995361328125 388.2454528808594 C 360.7452087402344 380.072998046875 396.2263488769531 395.7005310058594 367.9957580566406 372.9645690917969 C 356.8511047363281 457.3888854980469 256.7756042480469 386.69525146484375 245.7058868408203 387.7913818359375 C 404.2104187011719 343.5416564941406 416.4365234375 352.3974304199219 421.69091796875 363.4364929199219" fill="rgb(0, 45, 82)" opacity="0.85226524" stroke="rgb(224, 79, 9)" stroke-linecap="round" stroke-linejoin="round" stroke-opacity="0.8877654" stroke-width="0.0"/>
    <path d="M 426.97381591796875 359.05224609375 C 422.50872802734375 351.6148986816406 418.7110290527344 382.80718994140625 390.30718994140625 391.5752258300781 C 359.62811279296875 392.7363586425781 372.2470703125 384.7760009765625 390.4042663574219 370.22412109375 C 380.3137512207031 350.5681457519531 392.4119873046875 351.23040771484375 413.23028564453125 352.6520080566406 C 420.6263122558594 350.89031982421875 421.2386474609375 352.8621826171875 426.97381591796875 359.05224609375" fill="rgb(42, 0, 30)" opacity="0.9163619" stroke="rgb(213, 239, 89)" stroke-linecap="round" stroke-linejoin="round" stroke-opacity="0.4390413" stroke-width="0.0"/>
    <path d="M 288.2411193847656 444.6407165527344 C 327.0413513183594 576.7867431640625 293.3824768066406 596.8999633789062 231.525390625 609.8673095703125 C 151.03114318847656 562.269287109375 136.81640625 565.0960083007812 112.6778793334961 489.903564453125 C 120.84468078613281 475.0140075683594 128.0341796875 451.106689453125 214.06631469726562 477.91619873046875 C 195.3858184814453 452.8496398925781 265.18182373046875 423.3560485839844 288.2411193847656 444.6407165527344" fill="rgb(98, 149, 167)" opacity="1.0" stroke="rgb(77, 192, 18)" stroke-linecap="round" stroke-linejoin="round" stroke-opacity="0.75667703" stroke-width="0.0"/>
    <path d="M 53.78895950317383 29.458648681640625 C 52.95586013793945 41.64665222167969 52.57441711425781 45.30537796020508 38.26607131958008 48.97259521484375 C 5.473932266235352 41.795875549316406 6.471579551696777 39.111732482910156 1.7682887315750122 -15.206822395324707 C -4.259909629821777 -11.502629280090332 -0.2105046957731247 -11.74039363861084 5.106070518493652 -11.088715553283691 C 46.9940071105957 1.8770430088043213 51.24320983886719 2.1777567863464355 53.78895950317383 29.458648681640625" fill="rgb(204, 224, 236)" opacity="0.7914843" stroke="rgb(176, 108, 194)" stroke-linecap="round" stroke-linejoin="round" stroke-opacity="0.14983524" stroke-width="0.0"/>
    <path d="M 750.9547729492188 613.8707275390625 C 750.8711547851562 624.5205688476562 750.7880249023438 627.248046875 746.95458984375 624.2534790039062 C 723.9629516601562 607.0834350585938 714.33837890625 599.3585205078125 687.6616821289062 582.5618896484375 C 698.8547973632812 578.9317626953125 708.245361328125 582.8684692382812 736.4458618164062 581.2540893554688 C 745.3798828125 582.428466796875 747.0916748046875 584.1982421875 750.9547729492188 613.8707275390625" fill="rgb(103, 150, 169)" opacity="0.9770822" stroke="rgb(38, 234, 218)" stroke-linecap="round" stroke-linejoin="round" stroke-opacity="0.90811515" stroke-width="0.0"/>
    <path d="M 689.90234375 584.1333618164062 C 628.89990234375 614.9987182617188 620.1790161132812 611.449951171875 545.2703857421875 609.22900390625 C 550.407958984375 600.4769287109375 549.471923828125 605.8158569335938 554.549072265625 557.7708740234375 C 556.2568969726562 529.757568359375 565.412353515625 519.337890625 666.2576904296875 569.5298461914062 C 645.5731811523438 561.3629150390625 662.9782104492188 566.6994018554688 689.90234375 584.1333618164062" fill="rgb(50, 5, 49)" opacity="1.0" stroke="rgb(77, 26, 204)" stroke-linecap="round" stroke-linejoin="round" stroke-opacity="0.34340128" stroke-width="0.0"/>
    <path d="M 37.47372817993164 143.0789031982422 C 29.34047508239746 147.7133331298828 31.421085357666016 152.9497833251953 7.493501663208008 165.5722198486328 C -0.4468482434749603 166.61402893066406 2.251445770263672 181.76036071777344 1.6393755674362183 135.48104858398438 C 4.894885540008545 130.80120849609375 -0.05718312785029411 107.07202911376953 4.604462623596191 99.34707641601562 C 25.812030792236328 108.2676010131836 30.548381805419922 105.1146011352539 37.47372817993164 143.0789031982422" fill="rgb(96, 149, 170)" opacity="0.6334796" stroke="rgb(172, 190, 31)" stroke-linecap="round" stroke-linejoin="round" stroke-opacity="0.37453917" stroke-width="0.0"/>
    <path d="M 378.43603515625 443.3578796386719 C 372.551025390625 451.0060119628906 370.9192810058594 451.8605651855469 340.53521728515625 449.79425048828125 C 317.4697265625 439.0604553222656 309.11602783203125 431.5869140625 271.3908996582031 433.6984558105469 C 260.5990295410156 420.16973876953125 293.1465148925781 426.1144104003906 350.1060485839844 430.532958984375 C 367.1766662597656 430.4658203125 379.8434753417969 430.5621643066406 378.43603515625 443.3578796386719" fill="rgb(26, 66, 78)" opacity="1.0" stroke="rgb(184, 183, 3)" stroke-linecap="round" stroke-linejoin="round" stroke-opacity="0.09350863" stroke-width="0.0"/>
    <path d="M 414.7839050292969 536.2921752929688 C 375.2830810546875 525.1366577148438 337.48040771484375 528.8270263671875 319.1712646484375 537.52099609375 C 304.1943359375 538.1895141601562 310.3005065917969 557.7665405273438 303.5573425292969 557.634033203125 C 300.9190368652344 437.6578369140625 274.35723876953125 394.1512145996094 324.3614196777344 504.7615051269531 C 354.63616943359375 513.9608764648438 373.07318115234375 520.603271484375 414.7839050292969 536.2921752929688" fill="rgb(241, 246, 249)" opacity="0.82955945" stroke="rgb(211, 140, 119)" stroke-linecap="round" stroke-linejoin="round" stroke-opacity="0.80919874" stroke-width="0.0"/>
    <path d="M 44.577354431152344 47.588130950927734 C 45.187286376953125 59.40657424926758 43.18516159057617 62.01929473876953 36.747623443603516 61.70969009399414 C -5.865708827972412 67.68766021728516 3.8111331462860107 62.438011169433594 2.2770135402679443 4.52267599105835 C 1.1111153364181519 3.368891716003418 2.24491024017334 -1.1351486444473267 -0.06165076047182083 -6.128310680389404 C 30.083904266357422 7.213972091674805 29.729955673217773 11.345934867858887 44.577354431152344 47.588130950927734" fill="rgb(34, 94, 119)" opacity="0.584388" stroke="rgb(27, 144, 88)" stroke-linecap="round" stroke-linejoin="round" stroke-opacity="0.4515706" stroke-width="0.0"/>
    <path d="M 54.62809753417969 69.83710479736328 C 47.707157135009766 104.4656753540039 45.43632125854492 105.61261749267578 28.685823440551758 108.71878814697266 C -9.201640129089355 107.7616958618164 6.766007900238037 101.45413208007812 2.430039167404175 78.36215209960938 C 3.437868118286133 41.719791412353516 -4.991785049438477 39.90562057495117 31.669450759887695 40.02513122558594 C 49.8041877746582 38.24332046508789 54.619625091552734 37.67700958251953 54.62809753417969 69.83710479736328" fill="rgb(98, 148, 167)" opacity="0.8292366" stroke="rgb(15, 37, 60)" stroke-linecap="round" stroke-linejoin="round" stroke-opacity="0.3673256" stroke-width="0.0"/>
    <path d="M 624.0315551757812 551.3158569335938 C 608.8372192382812 563.657470703125 601.9783935546875 559.7669677734375 594.9310913085938 558.2764282226562 C 556.7225341796875 561.6282958984375 551.0579223632812 565.6888427734375 554.614013671875 575.6558227539062 C 557.4785766601562 516.287841796875 551.93896484375 527.0643310546875 560.805419921875 527.76904296875 C 583.3974609375 533.8284912109375 594.6174926757812 537.2056274414062 624.0315551757812 551.3158569335938" fill="rgb(49, 3, 45)" opacity="0.9600567" stroke="rgb(118, 93, 52)" stroke-linecap="round" stroke-linejoin="round" stroke-opacity="0.1485946" stroke-width="0.0"/>
    <path d="M 531.3442993164062 599.8113403320312 C 527.68798828125 600.500244140625 529.58154296875 601.4420776367188 531.4679565429688 605.9202880859375 C 520.2761840820312 582.9552001953125 503.8411865234375 571.486328125 447.2461242675781 549.7311401367188 C 461.0155334472656 498.7115478515625 485.5057067871094 517.4761962890625 521.4839477539062 498.500244140625 C 520.5684814453125 529.0464477539062 533.231201171875 559.1851806640625 531.3442993164062 599.8113403320312" fill="rgb(219, 229, 239)" opacity="1.0" stroke="rgb(5, 163, 37)" stroke-linecap="round" stroke-linejoin="round" stroke-opacity="0.3328018" stroke-width="0.0"/>
    <path d="M 32.22595977783203 164.51690673828125 C 45.438262939453125 192.3263702392578 82.9250717163086 251.3091278076172 1.8217582702636719 281.92901611328125 C 1.7983338832855225 226.36573791503906 1.7376738786697388 203.36561584472656 1.8553019762039185 169.43954467773438 C 6.880313396453857 141.28892517089844 -4.731950759887695 134.33627319335938 15.030739784240723 136.94601440429688 C 27.799102783203125 149.79600524902344 24.836830139160156 157.0633544921875 32.22595977783203 164.51690673828125" fill="rgb(99, 148, 168)" opacity="0.8939488" stroke="rgb(195, 150, 131)" stroke-linecap="round" stroke-linejoin="round" stroke-opacity="0.76676005" stroke-width="0.0"/>
    <path d="M 289.06915283203125 417.4208068847656 C 253.93673706054688 441.917724609375 308.2668762207031 438.7424011230469 259.6280212402344 438.343017578125 C 195.0225372314453 452.18463134765625 220.1767578125 468.9927978515625 211.26548767089844 479.2217102050781 C 203.82029724121094 438.8363952636719 240.29315185546875 427.480712890625 256.01416015625 425.650390625 C 292.70697021484375 424.3617858886719 271.97393798828125 428.3945617675781 289.06915283203125 417.4208068847656" fill="rgb(77, 63, 0)" opacity="0.66870713" stroke="rgb(218, 230, 219)" stroke-linecap="round" stroke-linejoin="round" stroke-opacity="0.6442795" stroke-width="0.0"/>
    <path d="M 29.15938949584961 93.322021484375 C 19.242233276367188 130.54859924316406 24.89182472229004 134.6619415283203 10.262467384338379 136.59751892089844 C -0.8797069191932678 138.0208740234375 2.035654306411743 146.52297973632812 1.7168982028961182 80.63650512695312 C -3.5494697093963623 80.69391632080078 -9.535575866699219 80.45201873779297 32.320953369140625 80.51789093017578 C 40.558616638183594 84.1056900024414 38.75812911987305 88.43255615234375 29.15938949584961 93.322021484375" fill="rgb(71, 123, 147)" opacity="0.49764383" stroke="rgb(80, 198, 12)" stroke-linecap="round" stroke-linejoin="round" stroke-opacity="0.5159796" stroke-width="0.0"/>
    <path d="M 37.6411018371582 59.10543441772461 C 36.45756530761719 64.20003509521484 32.777130126953125 64.86827087402344 23.61974334716797 68.1473159790039 C -0.7129389047622681 78.35569763183594 0.6995047330856323 97.91040802001953 0.8523797392845154 52.916744232177734 C 0.4815874695777893 11.021049499511719 1.0884088277816772 20.058183670043945 0.2593379318714142 -3.0772745609283447 C 8.063342094421387 29.596527099609375 14.51667594909668 29.8857479095459 37.6411018371582 59.10543441772461" fill="rgb(67, 126, 157)" opacity="0.25065905" stroke="rgb(239, 110, 43)" stroke-linecap="round" stroke-linejoin="round" stroke-opacity="0.09347746" stroke-width="0.0"/>
    <path d="M 112.93428039550781 -0.3743828535079956 C 89.15644836425781 59.19283676147461 79.0572509765625 55.81414031982422 46.25559997558594 69.11550903320312 C 23.354110717773438 64.39812469482422 21.878040313720703 61.913795471191406 23.79166603088379 53.710670471191406 C 32.77850341796875 7.239770412445068 34.121971130371094 5.1598052978515625 74.34048461914062 -10.591653823852539 C 95.7780532836914 -11.966529846191406 102.2398910522461 -12.63293170928955 112.93428039550781 -0.3743828535079956" fill="rgb(99, 149, 169)" opacity="0.98474413" stroke="rgb(42, 99, 241)" stroke-linecap="round" stroke-linejoin="round" stroke-opacity="0.16711089" stroke-width="0.0"/>
    <path d="M 73.9130630493164 9.966185569763184 C 61.469154357910156 24.63064956665039 59.51394271850586 25.98401641845703 43.13578796386719 26.792226791381836 C 22.069705963134766 20.017810821533203 19.80994415283203 18.99197769165039 9.892509460449219 -4.9729766845703125 C 11.929935455322266 -17.40320587158203 16.633716583251953 -16.455724716186523 49.3992805480957 -16.11858367919922 C 70.9476547241211 -25.976795196533203 73.62702941894531 -27.01438331604004 73.9130630493164 9.966185569763184" fill="rgb(103, 146, 160)" opacity="1.0" stroke="rgb(209, 125, 179)" stroke-linecap="round" stroke-linejoin="round" stroke-opacity="0.44908255" stroke-width="0.0"/>
    <path d="M 288.0 392.0 C 287.33013916015625 394.5 285.5 396.33013916015625 283.0 397.0 C 280.5 396.33013916015625 278.66986083984375 394.5 278.0 392.0 C 278.66986083984375 389.5 280.5 387.66986083984375 283.0 387.0 C 285.5 387.66986083984375 287.33013916015625 389.5 288.0 392.0" fill="rgb(255, 197, 1)" opacity="1.0" stroke="rgb(242, 163, 135)" stroke-linecap="round" stroke-linejoin="round" stroke-opacity="0.73419005" stroke-width="0.0"/>
    <path d="M 326.0 364.0 C 325.33013916015625 366.5 323.5 368.33013916015625 321.0 369.0 C 318.5 368.33013916015625 316.66986083984375 366.5 316.0 364.0 C 316.66986083984375 361.5 318.5 359.66986083984375 321.0 359.0 C 323.5 359.66986083984375 325.33013916015625 361.5 326.0 364.0" fill="rgb(255, 255, 246)" opacity="1.0" stroke="rgb(36, 247, 23)" stroke-linecap="round" stroke-linejoin="round" stroke-opacity="0.6125393" stroke-width="0.0"/>
    <path d="M 207.0 403.0 C 206.3301239013672 405.5 204.5 407.33013916015625 202.0 408.0 C 199.5 407.33013916015625 197.6698760986328 405.5 197.0 403.0 C 197.6698760986328 400.5 199.5 398.66986083984375 202.0 398.0 C 204.5 398.66986083984375 206.3301239013672 400.5 207.0 403.0" fill="rgb(251, 254, 173)" opacity="1.0" stroke="rgb(229, 153, 75)" stroke-linecap="round" stroke-linejoin="round" stroke-opacity="0.7333528" stroke-width="0.0"/>
    <path d="M 552.0 565.0 C 551.3301391601562 567.5 549.5 569.3301391601562 547.0 570.0 C 544.5 569.3301391601562 542.6698608398438 567.5 542.0 565.0 C 542.6698608398438 562.5 544.5 560.6698608398438 547.0 560.0 C 549.5 560.6698608398438 551.3301391601562 562.5 552.0 565.0" fill="rgb(211, 230, 238)" opacity="1.0" stroke="rgb(80, 216, 51)" stroke-linecap="round" stroke-linejoin="round" stroke-opacity="0.638194" stroke-width="0.0"/>
    <path d="M 541.0 570.0 C 540.3301391601562 572.5 538.5 574.3301391601562 536.0 575.0 C 533.5 574.3301391601562 531.6698608398438 572.5 531.0 570.0 C 531.6698608398438 567.5 533.5 565.6698608398438 536.0 565.0 C 538.5 565.6698608398438 540.3301391601562 567.5 541.0 570.0" fill="rgb(36, 0, 37)" opacity="1.0" stroke="rgb(160, 59, 109)" stroke-linecap="round" stroke-linejoin="round" stroke-opacity="0.6311856" stroke-width="0.0"/>
    <path d="M 361.0 412.0 C 360.33013916015625 414.5 358.5 416.33013916015625 356.0 417.0 C 353.5 416.33013916015625 351.66986083984375 414.5 351.0 412.0 C 351.66986083984375 409.5 353.5 407.66986083984375 356.0 407.0 C 358.5 407.66986083984375 360.33013916015625 409.5 361.0 412.0" fill="rgb(0, 17, 27)" opacity="1.0" stroke="rgb(203, 177, 122)" stroke-linecap="round" stroke-linejoin="round" stroke-opacity="0.102846235" stroke-width="0.0"/>
    <path d="M 375.0 373.0 C 374.33013916015625 375.5 372.5 377.33013916015625 370.0 378.0 C 367.5 377.33013916015625 365.66986083984375 375.5 365.0 373.0 C 365.66986083984375 370.5 367.5 368.66986083984375 370.0 368.0 C 372.5 368.66986083984375 374.33013916015625 370.5 375.0 373.0" fill="rgb(254, 254, 254)" opacity="1.0" stroke="rgb(64, 169, 102)" stroke-linecap="round" stroke-linejoin="round" stroke-opacity="0.5910266" stroke-width="0.0"/>
    <path d="M 278.0 378.0 C 277.33013916015625 380.5 275.5 382.33013916015625 273.0 383.0 C 270.5 382.33013916015625 268.66986083984375 380.5 268.0 378.0 C 268.66986083984375 375.5 270.5 373.66986083984375 273.0 373.0 C 275.5 373.66986083984375 277.33013916015625 375.5 278.0 378.0" fill="rgb(15, 70, 48)" opacity="1.0" stroke="rgb(65, 116, 228)" stroke-linecap="round" stroke-linejoin="round" stroke-opacity="0.8157138" stroke-width="0.0"/>
    <path d="M 379.0 420.0 C 378.33013916015625 422.5 376.5 424.33013916015625 374.0 425.0 C 371.5 424.33013916015625 369.66986083984375 422.5 369.0 420.0 C 369.66986083984375 417.5 371.5 415.66986083984375 374.0 415.0 C 376.5 415.66986083984375 378.33013916015625 417.5 379.0 420.0" fill="rgb(255, 234, 47)" opacity="1.0" stroke="rgb(18, 247, 131)" stroke-linecap="round" stroke-linejoin="round" stroke-opacity="0.43690374" stroke-width="0.0"/>
    <path d="M 415.0 351.0 C 414.33013916015625 353.5 412.5 355.33013916015625 410.0 356.0 C 407.5 355.33013916015625 405.66986083984375 353.5 405.0 351.0 C 405.66986083984375 348.5 407.5 346.66986083984375 410.0 346.0 C 412.5 346.66986083984375 414.33013916015625 348.5 415.0 351.0" fill="rgb(76, 44, 89)" opacity="1.0" stroke="rgb(9, 79, 30)" stroke-linecap="round" stroke-linejoin="round" stroke-opacity="0.6815823" stroke-width="0.0"/>
    <path d="M 205.0 468.0 C 204.3301239013672 470.5 202.5 472.33013916015625 200.0 473.0 C 197.5 472.33013916015625 195.6698760986328 470.5 195.0 468.0 C 195.6698760986328 465.5 197.5 463.66986083984375 200.0 463.0 C 202.5 463.66986083984375 204.3301239013672 465.5 205.0 468.0" fill="rgb(255, 255, 206)" opacity="1.0" stroke="rgb(224, 166, 25)" stroke-linecap="round" stroke-linejoin="round" stroke-opacity="0.24624003" stroke-width="0.0"/>
    <path d="M 292.0 446.0 C 291.33013916015625 448.5 289.5 450.33013916015625 287.0 451.0 C 284.5 450.33013916015625 282.66986083984375 448.5 282.0 446.0 C 282.66986083984375 443.5 284.5 441.66986083984375 287.0 441.0 C 289.5 441.66986083984375 291.33013916015625 443.5 292.0 446.0" fill="rgb(233, 244, 235)" opacity="1.0" stroke="rgb(170, 12, 22)" stroke-linecap="round" stroke-linejoin="round" stroke-opacity="0.4327145" stroke-width="0.0"/>
    <path d="M 521.0 344.0 C 520.3301391601562 346.5 518.5 348.33013916015625 516.0 349.0 C 513.5 348.33013916015625 511.66986083984375 346.5 511.0 344.0 C 511.66986083984375 341.5 513.5 339.66986083984375 516.0 339.0 C 518.5 339.66986083984375 520.3301391601562 341.5 521.0 344.0" fill="rgb(228, 246, 249)" opacity="1.0" stroke="rgb(56, 134, 250)" stroke-linecap="round" stroke-linejoin="round" stroke-opacity="0.4484792" stroke-width="0.0"/>
    <path d="M 369.0 387.0 C 368.33013916015625 389.5 366.5 391.33013916015625 364.0 392.0 C 361.5 391.33013916015625 359.66986083984375 389.5 359.0 387.0 C 359.66986083984375 384.5 361.5 382.66986083984375 364.0 382.0 C 366.5 382.66986083984375 368.33013916015625 384.5 369.0 387.0" fill="rgb(2, 32, 63)" opacity="1.0" stroke="rgb(21, 1, 82)" stroke-linecap="round" stroke-linejoin="round" stroke-opacity="0.022372035" stroke-width="0.0"/>
    <path d="M 330.0 413.0 C 329.33013916015625 415.5 327.5 417.33013916015625 325.0 418.0 C 322.5 417.33013916015625 320.66986083984375 415.5 320.0 413.0 C 320.66986083984375 410.5 322.5 408.66986083984375 325.0 408.0 C 327.5 408.66986083984375 329.33013916015625 410.5 330.0 413.0" fill="rgb(159, 114, 24)" opacity="1.0" stroke="rgb(177, 58, 139)" stroke-linecap="round" stroke-linejoin="round" stroke-opacity="0.7601197" stroke-width="0.0"/>
    <path d="M 560.0 465.0 C 559.3301391601562 467.5 557.5 469.33013916015625 555.0 470.0 C 552.5 469.33013916015625 550.6698608398438 467.5 550.0 465.0 C 550.6698608398438 462.5 552.5 460.66986083984375 555.0 460.0 C 557.5 460.66986083984375 559.3301391601562 462.5 560.0 465.0" fill="rgb(205, 220, 235)" opacity="1.0" stroke="rgb(25, 22, 243)" stroke-linecap="round" stroke-linejoin="round" stroke-opacity="0.4674198" stroke-width="0.0"/>
    <path d="M 214.0 477.0 C 213.3301239013672 479.5 211.5 481.33013916015625 209.0 482.0 C 206.5 481.33013916015625 204.6698760986328 479.5 204.0 477.0 C 204.6698760986328 474.5 206.5 472.66986083984375 209.0 472.0 C 211.5 472.66986083984375 213.3301239013672 474.5 214.0 477.0" fill="rgb(248, 246, 154)" opacity="1.0" stroke="rgb(219, 141, 59)" stroke-linecap="round" stroke-linejoin="round" stroke-opacity="0.26088318" stroke-width="0.0"/>
    <path d="M 311.0 412.0 C 310.33013916015625 414.5 308.5 416.33013916015625 306.0 417.0 C 303.5 416.33013916015625 301.66986083984375 414.5 301.0 412.0 C 301.66986083984375 409.5 303.5 407.66986083984375 306.0 407.0 C 308.5 407.66986083984375 310.33013916015625 409.5 311.0 412.0" fill="rgb(92, 63, 6)" opacity="1.0" stroke="rgb(191, 107, 172)" stroke-linecap="round" stroke-linejoin="round" stroke-opacity="0.63342905" stroke-width="0.0"/>
    <path d="M 297.0 333.0 C 296.33013916015625 335.5 294.5 337.33013916015625 292.0 338.0 C 289.5 337.33013916015625 287.66986083984375 335.5 287.0 333.0 C 287.66986083984375 330.5 289.5 328.66986083984375 292.0 328.0 C 294.5 328.66986083984375 296.33013916015625 330.5 297.0 333.0" fill="rgb(67, 139, 147)" opacity="1.0" stroke="rgb(203, 166, 148)" stroke-linecap="round" stroke-linejoin="round" stroke-opacity="0.9937587" stroke-width="0.0"/>
    <path d="M 429.0 357.0 C 428.33013916015625 359.5 426.5 361.33013916015625 424.0 362.0 C 421.5 361.33013916015625 419.66986083984375 359.5 419.0 357.0 C 419.66986083984375 354.5 421.5 352.66986083984375 424.0 352.0 C 426.5 352.66986083984375 428.33013916015625 354.5 429.0 357.0" fill="rgb(208, 212, 227)" opacity="1.0" stroke="rgb(24, 163, 28)" stroke-linecap="round" stroke-linejoin="round" stroke-opacity="0.42265683" stroke-width="0.0"/>
    <path d="M 278.0 344.0 C 277.33013916015625 346.5 275.5 348.33013916015625 273.0 349.0 C 270.5 348.33013916015625 268.66986083984375 346.5 268.0 344.0 C 268.66986083984375 341.5 270.5 339.66986083984375 273.0 339.0 C 275.5 339.66986083984375 277.33013916015625 341.5 278.0 344.0" fill="rgb(94, 151, 159)" opacity="1.0" stroke="rgb(225, 131, 47)" stroke-linecap="round" stroke-linejoin="round" stroke-opacity="0.583548" stroke-width="0.0"/>
    <path d="M 367.0 382.0 C 366.33013916015625 384.5 364.5 386.33013916015625 362.0 387.0 C 359.5 386.33013916015625 357.66986083984375 384.5 357.0 382.0 C 357.66986083984375 379.5 359.5 377.66986083984375 362.0 377.0 C 364.5 377.66986083984375 366.33013916015625 379.5 367.0 382.0" fill="rgb(0, 2, 21)" opacity="1.0" stroke="rgb(95, 165, 61)" stroke-linecap="round" stroke-linejoin="round" stroke-opacity="0.39840314" stroke-width="0.0"/>
    <path d="M 526.0 350.0 C 525.3301391601562 352.5 523.5 354.33013916015625 521.0 355.0 C 518.5 354.33013916015625 516.6698608398438 352.5 516.0 350.0 C 516.6698608398438 347.5 518.5 345.66986083984375 521.0 345.0 C 523.5 345.66986083984375 525.3301391601562 347.5 526.0 350.0" fill="rgb(218, 228, 239)" opacity="1.0" stroke="rgb(200, 35, 220)" stroke-linecap="round" stroke-linejoin="round" stroke-opacity="0.679127" stroke-width="0.0"/>
    <path d="M 371.0 363.0 C 370.33013916015625 365.5 368.5 367.33013916015625 366.0 368.0 C 363.5 367.33013916015625 361.66986083984375 365.5 361.0 363.0 C 361.66986083984375 360.5 363.5 358.66986083984375 366.0 358.0 C 368.5 358.66986083984375 370.33013916015625 360.5 371.0 363.0" fill="rgb(13, 0, 17)" opacity="1.0" stroke="rgb(145, 81, 28)" stroke-linecap="round" stroke-linejoin="round" stroke-opacity="0.12488374" stroke-width="0.0"/>
    <path d="M 368.0 431.0 C 367.33013916015625 433.5 365.5 435.33013916015625 363.0 436.0 C 360.5 435.33013916015625 358.66986083984375 433.5 358.0 431.0 C 358.66986083984375 428.5 360.5 426.66986083984375 363.0 426.0 C 365.5 426.66986083984375 367.33013916015625 428.5 368.0 431.0" fill="rgb(97, 141, 133)" opacity="1.0" stroke="rgb(105, 176, 19)" stroke-linecap="round" stroke-linejoin="round" stroke-opacity="0.70400345" stroke-width="0.0"/>
    <path d="M 278.0 433.0 C 277.33013916015625 435.5 275.5 437.33013916015625 273.0 438.0 C 270.5 437.33013916015625 268.66986083984375 435.5 268.0 433.0 C 268.66986083984375 430.5 270.5 428.66986083984375 273.0 428.0 C 275.5 428.66986083984375 277.33013916015625 430.5 278.0 433.0" fill="rgb(0, 0, 3)" opacity="1.0" stroke="rgb(9, 204, 62)" stroke-linecap="round" stroke-linejoin="round" stroke-opacity="0.9754387" stroke-width="0.0"/>
    <path d="M 197.0 460.0 C 196.3301239013672 462.5 194.5 464.33013916015625 192.0 465.0 C 189.5 464.33013916015625 187.6698760986328 462.5 187.0 460.0 C 187.6698760986328 457.5 189.5 455.66986083984375 192.0 455.0 C 194.5 455.66986083984375 196.3301239013672 457.5 197.0 460.0" fill="rgb(93, 147, 172)" opacity="1.0" stroke="rgb(189, 105, 112)" stroke-linecap="round" stroke-linejoin="round" stroke-opacity="0.796068" stroke-width="0.0"/>
    <path d="M 384.0 373.0 C 383.33013916015625 375.5 381.5 377.33013916015625 379.0 378.0 C 376.5 377.33013916015625 374.66986083984375 375.5 374.0 373.0 C 374.66986083984375 370.5 376.5 368.66986083984375 379.0 368.0 C 381.5 368.66986083984375 383.33013916015625 370.5 384.0 373.0" fill="rgb(26, 0, 16)" opacity="1.0" stroke="rgb(163, 6, 247)" stroke-linecap="round" stroke-linejoin="round" stroke-opacity="0.3158491" stroke-width="0.0"/>
    <path d="M 366.0 377.0 C 365.33013916015625 379.5 363.5 381.33013916015625 361.0 382.0 C 358.5 381.33013916015625 356.66986083984375 379.5 356.0 377.0 C 356.66986083984375 374.5 358.5 372.66986083984375 361.0 372.0 C 363.5 372.66986083984375 365.33013916015625 374.5 366.0 377.0" fill="rgb(0, 4, 19)" opacity="1.0" stroke="rgb(73, 183, 156)" stroke-linecap="round" stroke-linejoin="round" stroke-opacity="0.38655186" stroke-width="0.0"/>
    <path d="M 375.0 386.0 C 374.33013916015625 388.5 372.5 390.33013916015625 370.0 391.0 C 367.5 390.33013916015625 365.66986083984375 388.5 365.0 386.0 C 365.66986083984375 383.5 367.5 381.66986083984375 370.0 381.0 C 372.5 381.66986083984375 374.33013916015625 383.5 375.0 386.0" fill="rgb(139, 120, 130)" opacity="1.0" stroke="rgb(202, 195, 209)" stroke-linecap="round" stroke-linejoin="round" stroke-opacity="0.90098315" stroke-width="0.0"/>
    <path d="M 284.0 433.0 C 283.33013916015625 435.5 281.5 437.33013916015625 279.0 438.0 C 276.5 437.33013916015625 274.66986083984375 435.5 274.0 433.0 C 274.66986083984375 430.5 276.5 428.66986083984375 279.0 428.0 C 281.5 428.66986083984375 283.33013916015625 430.5 284.0 433.0" fill="rgb(205, 220, 180)" opacity="1.0" stroke="rgb(160, 94, 164)" stroke-linecap="round" stroke-linejoin="round" stroke-opacity="0.71143514" stroke-width="0.0"/>
    <path d="M 270.0 365.0 C 269.33013916015625 367.5 267.5 369.33013916015625 265.0 370.0 C 262.5 369.33013916015625 260.66986083984375 367.5 260.0 365.0 C 260.66986083984375 362.5 262.5 360.66986083984375 265.0 360.0 C 267.5 360.66986083984375 269.33013916015625 362.5 270.0 365.0" fill="rgb(202, 216, 187)" opacity="1.0" stroke="rgb(121, 154, 199)" stroke-linecap="round" stroke-linejoin="round" stroke-opacity="0.75525033" stroke-width="0.0"/>
  </g>
</svg>
