<?xml version="1.0" ?>
<svg height="768" version="1.1" width="768" xmlns="http://www.w3.org/2000/svg">
  <defs/>
  <g>
    <path d="M 770.72412109375 792.0848999023438 C 362.6084899902344 817.532470703125 230.92254638671875 839.0140991210938 195.30096435546875 625.0556030273438 C 547.7249755859375 299.84393310546875 718.5587158203125 248.9757080078125 32.613101959228516 535.1409301757812 C -1.9967687129974365 -90.12435150146484 14.140769958496094 -48.90924835205078 763.7974853515625 -11.563272476196289 C 768.751220703125 258.53106689453125 758.0548706054688 298.00506591796875 770.72412109375 792.0848999023438" fill="rgb(117, 154, 166)" opacity="0.9999545" stroke="rgb(242, 217, 203)" stroke-linecap="round" stroke-linejoin="round" stroke-opacity="0.71962214" stroke-width="0.0"/>
    <path d="M 364.0 724.0 C 363.33013916015625 726.5 361.5 728.3301391601562 359.0 729.0 C 356.5 728.3301391601562 354.66986083984375 726.5 354.0 724.0 C 354.66986083984375 721.5 356.5 719.6698608398438 359.0 719.0 C 361.5 719.6698608398438 363.33013916015625 721.5 364.0 724.0" fill="rgb(50, 7, 50)" opacity="1.0" stroke="rgb(52, 80, 13)" stroke-linecap="round" stroke-linejoin="round" stroke-opacity="0.118004136" stroke-width="0.0"/>
    <path d="M 442.0 706.0 C 441.33013916015625 708.5 439.5 710.3301391601562 437.0 711.0 C 434.5 710.3301391601562 432.66986083984375 708.5 432.0 706.0 C 432.66986083984375 703.5 434.5 701.6698608398438 437.0 701.0 C 439.5 701.6698608398438 441.33013916015625 703.5 442.0 706.0" fill="rgb(49, 6, 52)" opacity="1.0" stroke="rgb(4, 38, 250)" stroke-linecap="round" stroke-linejoin="round" stroke-opacity="0.26343647" stroke-width="0.0"/>
  </g>
</svg>
