<?xml version="1.0" ?>
<svg height="768" version="1.1" width="768" xmlns="http://www.w3.org/2000/svg">
  <defs/>
  <g>
    <path d="M 764.3662109375 792.4375610351562 C 350.388671875 820.512939453125 214.2230224609375 848.244873046875 180.25820922851562 617.1057739257812 C 611.6890258789062 341.4407043457031 732.0181274414062 245.76649475097656 19.718181610107422 550.357421875 C -17.451648712158203 -99.61408233642578 -2.1272096633911133 -53.29404830932617 764.5075073242188 -12.559484481811523 C 764.3599853515625 260.75262451171875 764.5570068359375 319.7413024902344 764.3662109375 792.4375610351562" fill="rgb(44, 111, 136)" opacity="0.7389049" stroke="rgb(242, 217, 203)" stroke-linecap="round" stroke-linejoin="round" stroke-opacity="0.71962214" stroke-width="0.0"/>
    <path d="M 419.0157470703125 773.4053955078125 C 417.90032958984375 781.865966796875 412.3475341796875 782.13037109375 282.58221435546875 783.4746704101562 C 292.468505859375 802.7559204101562 249.45803833007812 771.2028198242188 249.6074981689453 688.2228393554688 C 250.63018798828125 625.6840209960938 294.6845397949219 559.5418090820312 364.9593505859375 548.9056396484375 C 428.1944885253906 625.2735595703125 414.6642150878906 654.7512817382812 419.0157470703125 773.4053955078125" fill="rgb(51, 0, 46)" opacity="0.9554903" stroke="rgb(52, 80, 13)" stroke-linecap="round" stroke-linejoin="round" stroke-opacity="0.118004136" stroke-width="0.0"/>
    <path d="M 736.5689697265625 583.6323852539062 C 808.9920043945312 944.5974731445312 745.396484375 855.3167724609375 639.16796875 783.4080810546875 C 383.5316467285156 780.7656860351562 386.5458068847656 774.1064453125 381.86480712890625 763.2124633789062 C 365.4377746582031 666.239501953125 312.28729248046875 694.2014770507812 360.2352294921875 551.75390625 C 596.779541015625 555.735595703125 372.4678955078125 590.9857177734375 736.5689697265625 583.6323852539062" fill="rgb(49, 0, 45)" opacity="0.95573884" stroke="rgb(4, 38, 250)" stroke-linecap="round" stroke-linejoin="round" stroke-opacity="0.26343647" stroke-width="0.0"/>
    <path d="M 509.99578857421875 675.2025756835938 C 445.1566467285156 636.3032836914062 439.4671630859375 629.5286865234375 429.89849853515625 619.4689331054688 C 414.81341552734375 598.9435424804688 394.4744567871094 621.4880981445312 357.1483459472656 551.187744140625 C 359.7088928222656 548.501953125 408.26593017578125 539.1453247070312 462.1820983886719 556.8164672851562 C 508.9388732910156 575.4471435546875 544.4161987304688 584.2101440429688 509.99578857421875 675.2025756835938" fill="rgb(50, 4, 48)" opacity="0.97606325" stroke="rgb(128, 50, 213)" stroke-linecap="round" stroke-linejoin="round" stroke-opacity="0.26315796" stroke-width="0.0"/>
    <path d="M 477.5944519042969 694.2772827148438 C 440.7254638671875 692.1890869140625 438.2869873046875 688.20654296875 346.08087158203125 666.69482421875 C 383.6048278808594 641.6197509765625 377.4935302734375 640.5377807617188 374.11517333984375 578.7384033203125 C 395.858154296875 585.5101928710938 399.86956787109375 588.8302612304688 448.987548828125 590.1295776367188 C 441.9034118652344 601.2164916992188 461.8592529296875 590.17822265625 477.5944519042969 694.2772827148438" fill="rgb(51, 6, 51)" opacity="1.0" stroke="rgb(43, 31, 31)" stroke-linecap="round" stroke-linejoin="round" stroke-opacity="0.971857" stroke-width="0.0"/>
    <path d="M 772.6942138671875 645.5494995117188 C 779.4932861328125 788.3673706054688 759.9293823242188 779.6956787109375 759.9092407226562 776.7083129882812 C 667.3804931640625 775.17529296875 664.4019165039062 775.1902465820312 631.3526000976562 798.4968872070312 C 617.9761962890625 736.9754028320312 612.3179931640625 743.71337890625 510.77716064453125 662.9937744140625 C 745.04833984375 589.8164672851562 697.8450317382812 588.0585327148438 772.6942138671875 645.5494995117188" fill="rgb(51, 6, 50)" opacity="1.0" stroke="rgb(114, 58, 76)" stroke-linecap="round" stroke-linejoin="round" stroke-opacity="0.7408875" stroke-width="0.0"/>
    <path d="M 509.8348083496094 608.1780395507812 C 513.274658203125 802.6420288085938 475.8513488769531 785.5545654296875 463.1403503417969 778.73828125 C 399.44708251953125 777.9268798828125 396.2154541015625 776.5067138671875 375.640625 761.7586059570312 C 376.77239990234375 724.5025024414062 381.3789367675781 722.0128784179688 363.4772644042969 699.132568359375 C 444.4152526855469 675.4612426757812 450.7080993652344 670.2756958007812 509.8348083496094 608.1780395507812" fill="rgb(51, 6, 51)" opacity="0.97752035" stroke="rgb(192, 160, 53)" stroke-linecap="round" stroke-linejoin="round" stroke-opacity="0.16767655" stroke-width="0.0"/>
    <path d="M 554.0635986328125 467.3016052246094 C 572.4508056640625 639.7035522460938 505.2049255371094 552.7608032226562 186.16395568847656 458.2616882324219 C 279.946533203125 374.9432678222656 267.7585754394531 403.51361083984375 271.7897033691406 344.11029052734375 C 323.8450622558594 331.1933288574219 277.0478820800781 309.9315185546875 349.7107238769531 268.6178894042969 C 312.36016845703125 270.5859680175781 572.905517578125 279.3625183105469 554.0635986328125 467.3016052246094" fill="rgb(217, 227, 237)" opacity="1.0" stroke="rgb(29, 40, 109)" stroke-linecap="round" stroke-linejoin="round" stroke-opacity="0.9429024" stroke-width="0.0"/>
    <path d="M 360.9991149902344 430.9787902832031 C 384.1023864746094 436.7804260253906 378.912841796875 451.7611999511719 365.1376647949219 448.353271484375 C 343.80908203125 451.49017333984375 260.4005432128906 396.7530212402344 207.79718017578125 482.6404724121094 C 143.58563232421875 378.8957824707031 290.3052673339844 345.3163757324219 329.7099914550781 369.38287353515625 C 268.00653076171875 441.41156005859375 428.70855712890625 389.658935546875 360.9991149902344 430.9787902832031" fill="rgb(250, 197, 28)" opacity="0.9960076" stroke="rgb(236, 230, 114)" stroke-linecap="round" stroke-linejoin="round" stroke-opacity="0.5568124" stroke-width="0.0"/>
    <path d="M 224.4070587158203 599.13134765625 C 220.16265869140625 617.1055908203125 218.0489044189453 620.4246826171875 201.1185760498047 670.0809936523438 C 95.73090362548828 661.1468505859375 91.9188461303711 642.8049926757812 44.931610107421875 633.1980590820312 C 27.002609252929688 509.4327392578125 33.89646911621094 496.8895263671875 62.92003631591797 487.76312255859375 C 198.1342010498047 507.42333984375 187.34078979492188 534.5687255859375 224.4070587158203 599.13134765625" fill="rgb(98, 149, 169)" opacity="0.98227125" stroke="rgb(13, 101, 124)" stroke-linecap="round" stroke-linejoin="round" stroke-opacity="0.3704566" stroke-width="0.0"/>
    <path d="M 250.49241638183594 767.8027954101562 C 130.63113403320312 785.9500732421875 102.28651428222656 780.6563110351562 1.710480809211731 767.7108154296875 C 3.9125852584838867 720.0728759765625 1.1940758228302002 714.8104248046875 1.8609532117843628 262.6661071777344 C 112.24263000488281 485.4831237792969 55.061988830566406 530.7925415039062 172.67420959472656 574.1969604492188 C 193.34104919433594 605.7525634765625 221.54986572265625 579.1331176757812 250.49241638183594 767.8027954101562" fill="rgb(99, 148, 168)" opacity="0.89425915" stroke="rgb(220, 46, 219)" stroke-linecap="round" stroke-linejoin="round" stroke-opacity="0.5888399" stroke-width="0.0"/>
    <path d="M 91.7109375 769.4974365234375 C 41.49909210205078 781.872314453125 34.28742218017578 779.9769287109375 0.2855021357536316 780.1571655273438 C 1.148362159729004 774.7973022460938 0.7719116806983948 750.9649658203125 0.7857447266578674 564.7239379882812 C 38.03950119018555 676.7054443359375 -7.054197788238525 677.0823974609375 35.4784049987793 686.0335693359375 C 62.62092971801758 701.1903686523438 77.02401733398438 694.6244506835938 91.7109375 769.4974365234375" fill="rgb(76, 129, 156)" opacity="0.2274067" stroke="rgb(47, 198, 143)" stroke-linecap="round" stroke-linejoin="round" stroke-opacity="0.46955255" stroke-width="0.0"/>
    <path d="M 420.47564697265625 365.39947509765625 C 415.08856201171875 360.8542175292969 410.08502197265625 402.2598876953125 365.8870849609375 387.1614685058594 C 359.6032409667969 381.8083190917969 396.4387512207031 392.7571105957031 363.4783935546875 373.92608642578125 C 360.86260986328125 461.5943603515625 261.35791015625 382.4106750488281 249.4389190673828 367.5108337402344 C 395.2409973144531 345.8841247558594 424.495361328125 366.1316833496094 420.47564697265625 365.39947509765625" fill="rgb(14, 75, 112)" opacity="0.9527182" stroke="rgb(224, 79, 9)" stroke-linecap="round" stroke-linejoin="round" stroke-opacity="0.8877654" stroke-width="0.0"/>
    <path d="M 425.70770263671875 358.38714599609375 C 424.2857666015625 350.9776611328125 418.02227783203125 383.2020568847656 390.7657165527344 391.48333740234375 C 358.8158264160156 393.5094299316406 369.7555236816406 382.1882019042969 381.6502380371094 366.38116455078125 C 357.8658142089844 353.0042419433594 381.7883605957031 353.3094787597656 405.44378662109375 350.56634521484375 C 422.6250915527344 350.03118896484375 420.525634765625 349.84014892578125 425.70770263671875 358.38714599609375" fill="rgb(48, 2, 47)" opacity="0.8129575" stroke="rgb(213, 239, 89)" stroke-linecap="round" stroke-linejoin="round" stroke-opacity="0.4390413" stroke-width="0.0"/>
    <path d="M 288.3880920410156 443.15594482421875 C 326.4576416015625 576.120849609375 292.2019348144531 597.3840942382812 231.1904296875 610.202392578125 C 151.0434112548828 562.2492065429688 136.7917938232422 565.107666015625 112.51944732666016 489.6970520019531 C 120.84286499023438 474.6794128417969 128.47021484375 449.6644592285156 214.26748657226562 477.7542419433594 C 193.94610595703125 450.92535400390625 265.0452880859375 425.0707092285156 288.3880920410156 443.15594482421875" fill="rgb(97, 148, 167)" opacity="1.0" stroke="rgb(77, 192, 18)" stroke-linecap="round" stroke-linejoin="round" stroke-opacity="0.75667703" stroke-width="0.0"/>
    <path d="M 53.792945861816406 29.4559268951416 C 52.95586013793945 41.64665222167969 52.57441711425781 45.30537796020508 38.01325607299805 48.9787712097168 C 3.8230795860290527 41.945640563964844 3.614290952682495 39.76054763793945 2.405667304992676 -15.016169548034668 C -4.259909629821777 -11.502629280090332 -0.2105046957731247 -11.74039363861084 5.109038829803467 -11.091684341430664 C 46.99081802368164 1.8849438428878784 51.23328399658203 2.1791985034942627 53.792945861816406 29.4559268951416" fill="rgb(163, 195, 214)" opacity="0.82141316" stroke="rgb(176, 108, 194)" stroke-linecap="round" stroke-linejoin="round" stroke-opacity="0.14983524" stroke-width="0.0"/>
    <path d="M 751.0322265625 614.0655517578125 C 750.6876220703125 624.7564697265625 750.7749633789062 626.9649658203125 747.2388305664062 624.47119140625 C 724.0305786132812 607.3936767578125 713.5236206054688 598.6351928710938 687.7859497070312 582.4859619140625 C 698.296875 578.7058715820312 707.7051391601562 583.1599731445312 735.4122314453125 581.234375 C 745.502685546875 582.108154296875 747.20263671875 584.1719360351562 751.0322265625 614.0655517578125" fill="rgb(102, 150, 169)" opacity="0.97538435" stroke="rgb(38, 234, 218)" stroke-linecap="round" stroke-linejoin="round" stroke-opacity="0.90811515" stroke-width="0.0"/>
    <path d="M 689.8511352539062 584.0259399414062 C 629.1813354492188 615.107666015625 620.1656494140625 611.352783203125 546.835693359375 609.0625610351562 C 552.300048828125 600.9769287109375 549.0811767578125 605.6707153320312 554.5451049804688 557.9281616210938 C 556.1459350585938 530.0671997070312 565.3323974609375 519.219482421875 666.317138671875 569.8350830078125 C 645.4611206054688 561.1323852539062 663.1217041015625 566.6419677734375 689.8511352539062 584.0259399414062" fill="rgb(50, 5, 49)" opacity="1.0" stroke="rgb(77, 26, 204)" stroke-linecap="round" stroke-linejoin="round" stroke-opacity="0.34340128" stroke-width="0.0"/>
    <path d="M 39.946128845214844 140.72479248046875 C 29.3670597076416 147.74513244628906 31.731534957885742 153.3174591064453 8.210118293762207 168.65325927734375 C -0.09729240089654922 172.62547302246094 2.2663094997406006 202.56520080566406 1.6244713068008423 137.76016235351562 C 4.202875137329102 153.2235107421875 1.746465802192688 110.43683624267578 2.8860764503479004 103.15727233886719 C 26.83890151977539 113.7732925415039 36.00387954711914 99.40950775146484 39.946128845214844 140.72479248046875" fill="rgb(98, 150, 171)" opacity="0.6215815" stroke="rgb(172, 190, 31)" stroke-linecap="round" stroke-linejoin="round" stroke-opacity="0.37453917" stroke-width="0.0"/>
    <path d="M 378.5334777832031 443.1971740722656 C 372.6181640625 450.63873291015625 372.3590393066406 452.1949157714844 340.4228515625 449.5361328125 C 316.6384582519531 439.7256164550781 313.8750915527344 429.8560791015625 272.6734619140625 435.0174865722656 C 260.02398681640625 418.7120056152344 287.59765625 427.28289794921875 348.28570556640625 430.8036193847656 C 365.6451416015625 431.6324768066406 379.3004455566406 430.8024597167969 378.5334777832031 443.1971740722656" fill="rgb(25, 78, 100)" opacity="1.0" stroke="rgb(184, 183, 3)" stroke-linecap="round" stroke-linejoin="round" stroke-opacity="0.09350863" stroke-width="0.0"/>
    <path d="M 415.72271728515625 537.039794921875 C 379.5502624511719 525.1808471679688 338.8234558105469 528.4262084960938 319.2823486328125 537.5804443359375 C 303.7593078613281 538.3908081054688 310.2550964355469 558.8701782226562 303.3839416503906 557.5406494140625 C 300.8962097167969 436.8341369628906 275.9643249511719 396.4287109375 319.1197814941406 501.4234619140625 C 354.15887451171875 514.033447265625 373.3453674316406 519.9340209960938 415.72271728515625 537.039794921875" fill="rgb(215, 228, 237)" opacity="0.95733905" stroke="rgb(211, 140, 119)" stroke-linecap="round" stroke-linejoin="round" stroke-opacity="0.80919874" stroke-width="0.0"/>
    <path d="M 44.577354431152344 47.588130950927734 C 45.187286376953125 59.40657424926758 43.18516159057617 62.01929473876953 36.77701187133789 61.54684066772461 C -5.558269500732422 62.854618072509766 3.883521795272827 63.00252151489258 2.182952404022217 8.616327285766602 C 0.9910808801651001 4.82489013671875 2.80159068107605 -1.011904239654541 -1.4656929969787598 -6.09329080581665 C 30.08380699157715 7.214134216308594 29.729955673217773 11.345977783203125 44.577354431152344 47.588130950927734" fill="rgb(57, 111, 133)" opacity="0.5964996" stroke="rgb(27, 144, 88)" stroke-linecap="round" stroke-linejoin="round" stroke-opacity="0.4515706" stroke-width="0.0"/>
    <path d="M 54.826507568359375 70.59619140625 C 47.68849182128906 104.59335327148438 45.62040328979492 105.88941955566406 29.843685150146484 109.21196746826172 C -9.808497428894043 106.61103820800781 6.871677398681641 101.56001281738281 2.518462896347046 79.1771011352539 C 3.1058349609375 40.05280685424805 -4.108136177062988 39.18459701538086 30.87100601196289 39.871360778808594 C 49.802490234375 38.24147033691406 54.60698318481445 37.67776107788086 54.826507568359375 70.59619140625" fill="rgb(99, 148, 167)" opacity="0.74751663" stroke="rgb(15, 37, 60)" stroke-linecap="round" stroke-linejoin="round" stroke-opacity="0.3673256" stroke-width="0.0"/>
    <path d="M 624.7943725585938 551.3069458007812 C 608.9933471679688 562.4164428710938 602.3267822265625 557.0811767578125 594.55712890625 555.732177734375 C 557.0867309570312 560.6361083984375 552.4402465820312 565.84521484375 554.3423461914062 577.1449584960938 C 557.6065673828125 517.270751953125 552.9835205078125 529.1380615234375 557.6803588867188 527.0908203125 C 582.9456176757812 533.4712524414062 596.2168579101562 537.8226928710938 624.7943725585938 551.3069458007812" fill="rgb(49, 3, 45)" opacity="0.96973395" stroke="rgb(118, 93, 52)" stroke-linecap="round" stroke-linejoin="round" stroke-opacity="0.1485946" stroke-width="0.0"/>
    <path d="M 531.2935180664062 600.25732421875 C 527.6630249023438 600.6732177734375 528.8429565429688 600.2019653320312 531.4406127929688 606.1911010742188 C 521.096435546875 583.2846069335938 502.9688415527344 570.9161987304688 447.3943786621094 549.80078125 C 457.18585205078125 490.0964660644531 482.41473388671875 505.1596984863281 531.4315185546875 485.4833984375 C 522.4686279296875 525.9664306640625 533.1397094726562 556.873779296875 531.2935180664062 600.25732421875" fill="rgb(218, 228, 239)" opacity="1.0" stroke="rgb(5, 163, 37)" stroke-linecap="round" stroke-linejoin="round" stroke-opacity="0.3328018" stroke-width="0.0"/>
    <path d="M 31.220598220825195 167.6612091064453 C 45.977638244628906 192.94119262695312 84.62892150878906 252.2536163330078 1.820555567741394 281.0700378417969 C 1.7901448011398315 226.45680236816406 1.7204612493515015 202.3120880126953 1.8486672639846802 180.83106994628906 C 6.6757025718688965 144.93211364746094 -4.43449592590332 132.89608764648438 15.995033264160156 136.7327423095703 C 27.022565841674805 149.98423767089844 24.152664184570312 157.38156127929688 31.220598220825195 167.6612091064453" fill="rgb(100, 148, 168)" opacity="0.89963895" stroke="rgb(195, 150, 131)" stroke-linecap="round" stroke-linejoin="round" stroke-opacity="0.76676005" stroke-width="0.0"/>
    <path d="M 285.7637023925781 412.89251708984375 C 253.31825256347656 445.3467712402344 309.9808044433594 437.2823181152344 257.6449890136719 438.6063537597656 C 196.40078735351562 453.1885986328125 219.58470153808594 467.0703125 211.591796875 480.99078369140625 C 203.30287170410156 438.45037841796875 239.8348388671875 427.5302429199219 257.22467041015625 425.4869079589844 C 285.76812744140625 425.196533203125 270.190673828125 427.906005859375 285.7637023925781 412.89251708984375" fill="rgb(96, 82, 2)" opacity="0.7255447" stroke="rgb(218, 230, 219)" stroke-linecap="round" stroke-linejoin="round" stroke-opacity="0.6442795" stroke-width="0.0"/>
    <path d="M 29.668363571166992 93.83525085449219 C 18.141773223876953 130.4706268310547 23.860736846923828 135.0409698486328 5.68820858001709 136.675048828125 C 0.666339099407196 142.33987426757812 1.547550916671753 153.25987243652344 1.6684294939041138 80.53300476074219 C -3.0133440494537354 82.10572052001953 -9.369817733764648 80.12003326416016 31.96737289428711 79.88185119628906 C 40.2846565246582 84.06205749511719 38.502105712890625 88.32466888427734 29.668363571166992 93.83525085449219" fill="rgb(41, 102, 130)" opacity="0.410985" stroke="rgb(80, 198, 12)" stroke-linecap="round" stroke-linejoin="round" stroke-opacity="0.5159796" stroke-width="0.0"/>
    <path d="M 37.423091888427734 59.680030822753906 C 36.45756530761719 64.20003509521484 32.777130126953125 64.86827087402344 32.453033447265625 69.4346694946289 C -1.9303394556045532 80.01631927490234 0.7189182639122009 96.2880859375 0.8361801505088806 53.131813049316406 C 0.602297842502594 10.069404602050781 1.0988975763320923 19.65599822998047 0.1781972348690033 -7.294303894042969 C 6.048669338226318 35.620723724365234 1.5249207019805908 37.04683303833008 37.423091888427734 59.680030822753906" fill="rgb(15, 89, 129)" opacity="0.2016588" stroke="rgb(239, 110, 43)" stroke-linecap="round" stroke-linejoin="round" stroke-opacity="0.09347746" stroke-width="0.0"/>
    <path d="M 112.59435272216797 -1.3415066003799438 C 88.93541717529297 60.290164947509766 79.79839324951172 57.364845275878906 46.01157760620117 68.84510803222656 C 23.354110717773438 64.39812469482422 21.878040313720703 61.913795471191406 23.79166603088379 53.710670471191406 C 32.77850341796875 7.239770412445068 34.121971130371094 5.1598052978515625 74.33839416503906 -10.596016883850098 C 95.77884674072266 -11.962004661560059 102.23175811767578 -12.627001762390137 112.59435272216797 -1.3415066003799438" fill="rgb(99, 149, 169)" opacity="0.97195286" stroke="rgb(42, 99, 241)" stroke-linecap="round" stroke-linejoin="round" stroke-opacity="0.16711089" stroke-width="0.0"/>
    <path d="M 73.9130630493164 9.966185569763184 C 61.469154357910156 24.63064956665039 59.51394271850586 25.98401641845703 43.13578796386719 26.792226791381836 C 22.069705963134766 20.017810821533203 19.808330535888672 18.99297523498535 9.890815734863281 -4.96410608291626 C 11.929935455322266 -17.40320587158203 16.633716583251953 -16.455724716186523 49.3992805480957 -16.11858367919922 C 70.9476547241211 -25.976795196533203 73.62702941894531 -27.01438331604004 73.9130630493164 9.966185569763184" fill="rgb(103, 146, 160)" opacity="1.0" stroke="rgb(209, 125, 179)" stroke-linecap="round" stroke-linejoin="round" stroke-opacity="0.44908255" stroke-width="0.0"/>
    <path d="M 302.5099182128906 395.1408386230469 C 306.630126953125 416.8511657714844 305.26885986328125 415.3908996582031 298.5217590332031 411.3197021484375 C 269.85296630859375 403.1727600097656 268.909423828125 401.05743408203125 249.39227294921875 369.4058532714844 C 254.73428344726562 368.3966979980469 261.2336730957031 366.1913757324219 269.1358337402344 365.09759521484375 C 282.498046875 361.4735412597656 301.0993347167969 369.8374328613281 302.5099182128906 395.1408386230469" fill="rgb(250, 208, 28)" opacity="0.9921116" stroke="rgb(242, 163, 135)" stroke-linecap="round" stroke-linejoin="round" stroke-opacity="0.73419005" stroke-width="0.0"/>
    <path d="M 345.7289733886719 358.697265625 C 322.7514343261719 364.53497314453125 312.077880859375 371.3722229003906 327.137451171875 365.13818359375 C 287.0783386230469 378.7370300292969 312.963134765625 376.4208068847656 286.066650390625 363.42645263671875 C 252.7904815673828 361.7763671875 287.164794921875 316.8670654296875 345.8662414550781 270.2779846191406 C 462.410400390625 295.6274108886719 452.88568115234375 296.27301025390625 345.7289733886719 358.697265625" fill="rgb(254, 255, 250)" opacity="0.9472661" stroke="rgb(36, 247, 23)" stroke-linecap="round" stroke-linejoin="round" stroke-opacity="0.6125393" stroke-width="0.0"/>
    <path d="M 207.55673217773438 397.488525390625 C 209.56053161621094 395.7064208984375 187.69114685058594 417.0736389160156 194.9128875732422 452.23455810546875 C 200.59347534179688 471.43804931640625 180.0516357421875 450.0602111816406 194.83065795898438 410.03460693359375 C 197.6129913330078 408.947509765625 199.85142517089844 394.3758544921875 221.8516082763672 380.6418151855469 C 264.8364562988281 366.69573974609375 222.52719116210938 377.394287109375 207.55673217773438 397.488525390625" fill="rgb(255, 255, 220)" opacity="0.87306434" stroke="rgb(229, 153, 75)" stroke-linecap="round" stroke-linejoin="round" stroke-opacity="0.7333528" stroke-width="0.0"/>
    <path d="M 553.1760864257812 564.4239501953125 C 549.8409423828125 581.9266357421875 553.4422607421875 585.7810668945312 548.4666748046875 584.2919311523438 C 545.8487548828125 583.2650756835938 545.6297607421875 567.0930786132812 527.4898071289062 551.894775390625 C 530.3504028320312 553.802001953125 535.196044921875 546.2337036132812 554.56689453125 525.1990356445312 C 556.6754760742188 535.5989990234375 554.1573486328125 549.4590454101562 553.1760864257812 564.4239501953125" fill="rgb(220, 229, 241)" opacity="0.9922444" stroke="rgb(80, 216, 51)" stroke-linecap="round" stroke-linejoin="round" stroke-opacity="0.638194" stroke-width="0.0"/>
    <path d="M 545.4710693359375 579.9791870117188 C 547.52490234375 592.8031005859375 550.914794921875 588.5999755859375 542.6688842773438 580.9423828125 C 526.7655639648438 585.1383666992188 533.5176391601562 575.447998046875 530.7211303710938 573.6113891601562 C 530.4435424804688 547.55908203125 530.82763671875 555.674560546875 530.4002075195312 554.2227172851562 C 535.8129272460938 559.438720703125 543.2761840820312 573.2169189453125 545.4710693359375 579.9791870117188" fill="rgb(40, 0, 34)" opacity="0.9719809" stroke="rgb(160, 59, 109)" stroke-linecap="round" stroke-linejoin="round" stroke-opacity="0.6311856" stroke-width="0.0"/>
    <path d="M 372.7785339355469 412.2742004394531 C 382.8870849609375 413.8875427246094 350.9705505371094 415.3227233886719 356.9550476074219 415.8846130371094 C 353.3834228515625 413.79766845703125 334.361083984375 415.5783996582031 325.00189208984375 409.2861022949219 C 355.095458984375 411.9507751464844 355.9621887207031 405.31793212890625 351.8572998046875 410.0589294433594 C 360.5003662109375 411.357421875 376.5703430175781 409.4180908203125 372.7785339355469 412.2742004394531" fill="rgb(0, 21, 39)" opacity="0.9182322" stroke="rgb(203, 177, 122)" stroke-linecap="round" stroke-linejoin="round" stroke-opacity="0.102846235" stroke-width="0.0"/>
    <path d="M 377.1289367675781 380.7079772949219 C 377.1654052734375 379.76202392578125 373.69940185546875 387.2024230957031 366.8555603027344 386.9643249511719 C 367.6410827636719 384.31512451171875 360.74407958984375 382.6820983886719 362.0812072753906 370.6562805175781 C 364.6402587890625 371.0635681152344 364.0311584472656 363.1302795410156 374.67877197265625 365.1630554199219 C 374.322021484375 367.78369140625 378.8762512207031 366.5074157714844 377.1289367675781 380.7079772949219" fill="rgb(249, 249, 249)" opacity="0.9995373" stroke="rgb(64, 169, 102)" stroke-linecap="round" stroke-linejoin="round" stroke-opacity="0.5910266" stroke-width="0.0"/>
    <path d="M 285.59918212890625 377.011962890625 C 296.0759582519531 386.44207763671875 291.03582763671875 387.5311584472656 268.4150695800781 386.4009704589844 C 263.6646728515625 387.1349792480469 260.6009521484375 387.15435791015625 267.03314208984375 378.9460144042969 C 273.3429870605469 375.1129150390625 275.4376525878906 373.66949462890625 268.6008605957031 377.7436828613281 C 266.64495849609375 376.0218505859375 283.36767578125 375.66595458984375 285.59918212890625 377.011962890625" fill="rgb(29, 32, 16)" opacity="0.96648514" stroke="rgb(65, 116, 228)" stroke-linecap="round" stroke-linejoin="round" stroke-opacity="0.8157138" stroke-width="0.0"/>
    <path d="M 373.33154296875 426.5714111328125 C 382.1601867675781 417.8989562988281 379.4829406738281 421.7129211425781 371.43475341796875 427.6878662109375 C 349.2402648925781 432.475830078125 379.1066589355469 434.7004089355469 296.8742370605469 423.9971618652344 C 360.1040954589844 430.7225646972656 382.9026184082031 424.3119201660156 373.8717956542969 412.5599365234375 C 378.8185119628906 414.648681640625 382.096435546875 417.5068664550781 373.33154296875 426.5714111328125" fill="rgb(245, 238, 107)" opacity="0.72959465" stroke="rgb(18, 247, 131)" stroke-linecap="round" stroke-linejoin="round" stroke-opacity="0.43690374" stroke-width="0.0"/>
    <path d="M 419.7168273925781 350.95159912109375 C 431.9755554199219 349.777099609375 371.25 348.4952087402344 321.6565856933594 365.1163635253906 C 402.2807922363281 348.1104736328125 417.6237487792969 351.6695861816406 407.003662109375 352.16461181640625 C 413.69268798828125 352.7835388183594 412.3576965332031 352.01495361328125 397.13427734375 349.70550537109375 C 404.3766784667969 350.7871398925781 404.00634765625 352.062255859375 419.7168273925781 350.95159912109375" fill="rgb(142, 191, 213)" opacity="0.6048161" stroke="rgb(9, 79, 30)" stroke-linecap="round" stroke-linejoin="round" stroke-opacity="0.6815823" stroke-width="0.0"/>
    <path d="M 201.70401000976562 472.5069274902344 C 208.22735595703125 479.0587463378906 218.9329833984375 485.6389465332031 203.80245971679688 471.0338439941406 C 200.88922119140625 465.5318908691406 198.11595153808594 462.86077880859375 203.24954223632812 470.0027160644531 C 197.76551818847656 465.99102783203125 189.30470275878906 433.4305725097656 191.9624786376953 453.8722229003906 C 194.6610565185547 465.77984619140625 203.68460083007812 474.5321350097656 201.70401000976562 472.5069274902344" fill="rgb(244, 250, 222)" opacity="0.9104556" stroke="rgb(224, 166, 25)" stroke-linecap="round" stroke-linejoin="round" stroke-opacity="0.24624003" stroke-width="0.0"/>
    <path d="M 304.4536437988281 551.602294921875 C 302.4986877441406 495.6725158691406 300.2053527832031 467.8004455566406 287.56787109375 448.63616943359375 C 286.3868103027344 443.976318359375 286.1604309082031 444.4071044921875 286.75457763671875 449.0379333496094 C 286.22021484375 444.53466796875 280.7806701660156 437.32794189453125 276.80322265625 434.55694580078125 C 283.2778015136719 418.5721740722656 342.8105773925781 491.1459655761719 304.4536437988281 551.602294921875" fill="rgb(255, 255, 251)" opacity="0.9435438" stroke="rgb(170, 12, 22)" stroke-linecap="round" stroke-linejoin="round" stroke-opacity="0.4327145" stroke-width="0.0"/>
    <path d="M 514.5211181640625 345.1981506347656 C 523.6174926757812 355.042236328125 554.4363403320312 400.3797302246094 521.0003051757812 348.3248596191406 C 392.8227844238281 285.4273986816406 315.56353759765625 410.4105529785156 421.3136291503906 290.0312805175781 C 501.3421325683594 320.85723876953125 505.5428771972656 335.2586975097656 517.3179321289062 343.2853088378906 C 516.6546020507812 345.8675537109375 527.7970581054688 351.6159362792969 514.5211181640625 345.1981506347656" fill="rgb(255, 255, 249)" opacity="0.9083791" stroke="rgb(56, 134, 250)" stroke-linecap="round" stroke-linejoin="round" stroke-opacity="0.4484792" stroke-width="0.0"/>
    <path d="M 370.2861328125 386.531005859375 C 363.8076171875 387.9474792480469 361.5443420410156 397.8346862792969 353.7216491699219 401.05255126953125 C 366.73480224609375 384.4775085449219 359.3215026855469 386.2345275878906 358.3320617675781 371.3299560546875 C 360.5751647949219 385.388671875 360.3399353027344 384.9161376953125 358.2055358886719 374.8312683105469 C 365.8805847167969 382.0609436035156 364.0557556152344 386.05816650390625 370.2861328125 386.531005859375" fill="rgb(14, 66, 103)" opacity="0.9904085" stroke="rgb(21, 1, 82)" stroke-linecap="round" stroke-linejoin="round" stroke-opacity="0.022372035" stroke-width="0.0"/>
    <path d="M 303.71142578125 406.9701843261719 C 303.5991516113281 416.0579833984375 296.53997802734375 411.70062255859375 367.4457092285156 416.46478271484375 C 355.35308837890625 413.1308898925781 329.08441162109375 413.4837646484375 319.9967956542969 411.0357360839844 C 329.3228759765625 413.5361328125 331.8742980957031 414.3058166503906 325.7279968261719 412.44805908203125 C 319.1665954589844 410.8149108886719 322.8079528808594 414.9339904785156 303.71142578125 406.9701843261719" fill="rgb(148, 101, 23)" opacity="0.84946406" stroke="rgb(177, 58, 139)" stroke-linecap="round" stroke-linejoin="round" stroke-opacity="0.7601197" stroke-width="0.0"/>
    <path d="M 553.7318725585938 435.6988525390625 C 556.4181518554688 447.4470520019531 557.8338012695312 473.479248046875 557.3919677734375 509.50103759765625 C 540.109130859375 480.24859619140625 521.0609130859375 486.0936279296875 536.9930419921875 459.2502136230469 C 542.5802612304688 460.95123291015625 541.7075805664062 452.12652587890625 553.1430053710938 420.7121887207031 C 557.670654296875 460.195556640625 558.1991577148438 467.7790832519531 553.7318725585938 435.6988525390625" fill="rgb(215, 227, 240)" opacity="0.7821477" stroke="rgb(25, 22, 243)" stroke-linecap="round" stroke-linejoin="round" stroke-opacity="0.4674198" stroke-width="0.0"/>
    <path d="M 212.7632293701172 480.5131530761719 C 211.61463928222656 473.6245422363281 212.47311401367188 479.9099426269531 213.8114013671875 476.1451416015625 C 213.42442321777344 479.0751037597656 209.1407012939453 477.96600341796875 200.8235321044922 466.1078796386719 C 187.7029571533203 431.5617370605469 193.4806671142578 462.4089050292969 204.3180389404297 472.477783203125 C 206.9281463623047 475.2188415527344 208.2169647216797 482.20916748046875 212.7632293701172 480.5131530761719" fill="rgb(255, 247, 113)" opacity="0.5537513" stroke="rgb(219, 141, 59)" stroke-linecap="round" stroke-linejoin="round" stroke-opacity="0.26088318" stroke-width="0.0"/>
    <path d="M 353.04718017578125 413.12518310546875 C 298.80218505859375 412.1289367675781 299.5414123535156 413.3034973144531 310.1659240722656 410.0582275390625 C 300.1468200683594 413.6999206542969 306.5553894042969 412.0054931640625 296.3526306152344 373.0971374511719 C 266.648681640625 358.1993408203125 304.6109924316406 359.22772216796875 303.668212890625 388.8555603027344 C 313.9183349609375 420.44671630859375 292.822509765625 403.4220886230469 353.04718017578125 413.12518310546875" fill="rgb(7, 0, 0)" opacity="0.82169664" stroke="rgb(191, 107, 172)" stroke-linecap="round" stroke-linejoin="round" stroke-opacity="0.63342905" stroke-width="0.0"/>
    <path d="M 308.3043212890625 303.2783508300781 C 281.7369689941406 346.6466369628906 306.2404479980469 331.4963073730469 280.055908203125 337.0159606933594 C 283.81341552734375 322.3948059082031 285.034423828125 316.9927978515625 277.9951477050781 326.3180236816406 C 279.7303466796875 320.23797607421875 284.8833312988281 322.8809509277344 286.6173400878906 322.86248779296875 C 281.6462097167969 325.1686096191406 279.6883239746094 316.4213562011719 308.3043212890625 303.2783508300781" fill="rgb(96, 147, 163)" opacity="1.0" stroke="rgb(203, 166, 148)" stroke-linecap="round" stroke-linejoin="round" stroke-opacity="0.9937587" stroke-width="0.0"/>
    <path d="M 428.02130126953125 353.20135498046875 C 428.85760498046875 364.48760986328125 428.6524963378906 368.1854248046875 427.66680908203125 358.5788269042969 C 428.3143310546875 355.1011047363281 428.7716064453125 350.36041259765625 426.02545166015625 351.3153076171875 C 427.07733154296875 367.2091369628906 427.3265075683594 364.6181945800781 423.6388244628906 371.3819885253906 C 422.4556579589844 356.5204772949219 423.6114196777344 344.88238525390625 428.02130126953125 353.20135498046875" fill="rgb(227, 235, 246)" opacity="0.7594035" stroke="rgb(24, 163, 28)" stroke-linecap="round" stroke-linejoin="round" stroke-opacity="0.42265683" stroke-width="0.0"/>
    <path d="M 288.495849609375 336.1146545410156 C 273.5502624511719 340.87872314453125 270.1925964355469 352.0281677246094 266.6137390136719 357.88494873046875 C 269.79925537109375 339.30426025390625 270.0365905761719 338.5745544433594 268.01116943359375 351.9554138183594 C 269.533203125 336.4086608886719 269.7651062011719 335.82086181640625 268.80963134765625 346.88641357421875 C 274.83685302734375 348.6813049316406 263.3017578125 328.7022705078125 288.495849609375 336.1146545410156" fill="rgb(92, 147, 161)" opacity="0.8629127" stroke="rgb(225, 131, 47)" stroke-linecap="round" stroke-linejoin="round" stroke-opacity="0.583548" stroke-width="0.0"/>
    <path d="M 362.9883728027344 386.2624206542969 C 364.43463134765625 380.5770263671875 362.39068603515625 392.79705810546875 370.1634216308594 386.8289489746094 C 364.5310363769531 384.8320617675781 361.45550537109375 374.7070617675781 363.1005554199219 365.8309631347656 C 355.37139892578125 379.8638000488281 361.83172607421875 367.88507080078125 360.17822265625 371.0303649902344 C 359.1644592285156 380.9096984863281 362.30999755859375 381.6431579589844 362.9883728027344 386.2624206542969" fill="rgb(0, 0, 0)" opacity="0.65004736" stroke="rgb(95, 165, 61)" stroke-linecap="round" stroke-linejoin="round" stroke-opacity="0.39840314" stroke-width="0.0"/>
    <path d="M 547.3356323242188 396.7825012207031 C 515.50390625 397.4119567871094 540.0958251953125 390.9565734863281 505.1938781738281 391.5712585449219 C 504.4540100097656 356.7900085449219 509.55096435546875 355.7524108886719 509.42303466796875 345.20843505859375 C 510.9325256347656 349.8361511230469 515.891357421875 342.37066650390625 520.10400390625 344.73486328125 C 520.763671875 347.13287353515625 535.3477172851562 362.012939453125 547.3356323242188 396.7825012207031" fill="rgb(217, 227, 239)" opacity="0.65324306" stroke="rgb(200, 35, 220)" stroke-linecap="round" stroke-linejoin="round" stroke-opacity="0.679127" stroke-width="0.0"/>
    <path d="M 386.982421875 375.9305419921875 C 368.9852294921875 361.3622131347656 368.6664733886719 368.8948974609375 361.9035949707031 365.4749755859375 C 358.8600769042969 385.09832763671875 359.81341552734375 382.9813232421875 364.63568115234375 366.62408447265625 C 356.7027587890625 365.8069763183594 376.94140625 355.8789367675781 362.0830078125 357.2369384765625 C 373.60943603515625 353.3315124511719 389.0394592285156 353.9807434082031 386.982421875 375.9305419921875" fill="rgb(1, 0, 35)" opacity="0.57553244" stroke="rgb(145, 81, 28)" stroke-linecap="round" stroke-linejoin="round" stroke-opacity="0.12488374" stroke-width="0.0"/>
    <path d="M 362.7361755371094 434.3972473144531 C 356.6442565917969 433.7319030761719 367.6919860839844 425.7322998046875 380.240478515625 442.1308288574219 C 372.4014892578125 426.3931884765625 385.9173278808594 433.3009948730469 280.09820556640625 423.93804931640625 C 350.6055908203125 442.4355163574219 392.351806640625 428.4582824707031 340.3388977050781 429.89935302734375 C 364.6293029785156 427.25787353515625 359.0584716796875 433.65362548828125 362.7361755371094 434.3972473144531" fill="rgb(18, 66, 65)" opacity="0.47011635" stroke="rgb(105, 176, 19)" stroke-linecap="round" stroke-linejoin="round" stroke-opacity="0.70400345" stroke-width="0.0"/>
    <path d="M 351.4554443359375 452.4818420410156 C 281.5950622558594 422.58160400390625 285.99932861328125 438.59332275390625 276.6885681152344 431.92437744140625 C 278.68365478515625 434.07745361328125 273.1607360839844 438.6451721191406 269.7697448730469 432.2949523925781 C 273.1569519042969 430.92108154296875 268.0224609375 426.48199462890625 272.41265869140625 425.0517272949219 C 287.60821533203125 430.6067810058594 290.86932373046875 416.0736999511719 351.4554443359375 452.4818420410156" fill="rgb(0, 0, 0)" opacity="0.5722171" stroke="rgb(9, 204, 62)" stroke-linecap="round" stroke-linejoin="round" stroke-opacity="0.9754387" stroke-width="0.0"/>
    <path d="M 198.35731506347656 473.9549865722656 C 189.7187957763672 445.7559509277344 183.3223114013672 433.80413818359375 181.49880981445312 467.60272216796875 C 193.50547790527344 462.5081481933594 190.63868713378906 463.43017578125 182.59132385253906 463.3885498046875 C 183.3961181640625 435.9768981933594 180.1312713623047 423.5654296875 176.5480499267578 461.1471252441406 C 187.46046447753906 461.78118896484375 184.4477996826172 472.3995361328125 198.35731506347656 473.9549865722656" fill="rgb(92, 149, 165)" opacity="0.93921757" stroke="rgb(189, 105, 112)" stroke-linecap="round" stroke-linejoin="round" stroke-opacity="0.796068" stroke-width="0.0"/>
    <path d="M 422.948486328125 357.1139221191406 C 407.94903564453125 393.0218505859375 382.3191833496094 394.74871826171875 371.462158203125 388.2559814453125 C 380.9664306640625 376.0246276855469 379.1978759765625 374.5743408203125 377.9175109863281 370.6674499511719 C 379.2602844238281 376.5513916015625 378.4512939453125 371.16925048828125 365.26702880859375 358.265380859375 C 403.08294677734375 349.8291320800781 425.34649658203125 348.62786865234375 422.948486328125 357.1139221191406" fill="rgb(39, 0, 32)" opacity="0.94247955" stroke="rgb(163, 6, 247)" stroke-linecap="round" stroke-linejoin="round" stroke-opacity="0.3158491" stroke-width="0.0"/>
    <path d="M 359.858154296875 388.5012512207031 C 359.3100280761719 368.1744079589844 358.49847412109375 375.02392578125 362.22308349609375 385.1819152832031 C 358.172119140625 377.4173278808594 357.77783203125 375.3606872558594 365.4535827636719 391.2627868652344 C 359.6120910644531 362.7117614746094 367.81201171875 372.737060546875 374.22772216796875 355.3665771484375 C 350.0462951660156 362.32220458984375 362.0021667480469 383.7741394042969 359.858154296875 388.5012512207031" fill="rgb(3, 0, 23)" opacity="0.40024626" stroke="rgb(73, 183, 156)" stroke-linecap="round" stroke-linejoin="round" stroke-opacity="0.38655186" stroke-width="0.0"/>
    <path d="M 365.047119140625 383.5738525390625 C 364.686767578125 382.9446716308594 375.11285400390625 391.39312744140625 378.1378173828125 377.7582092285156 C 380.3966064453125 364.80755615234375 376.6506042480469 385.3689880371094 368.9322814941406 388.4042053222656 C 379.2915344238281 389.82098388671875 397.6341247558594 398.9792175292969 366.5806579589844 388.3040771484375 C 359.38848876953125 392.39080810546875 374.1041259765625 387.86322021484375 365.047119140625 383.5738525390625" fill="rgb(152, 130, 141)" opacity="0.54949325" stroke="rgb(202, 195, 209)" stroke-linecap="round" stroke-linejoin="round" stroke-opacity="0.90098315" stroke-width="0.0"/>
    <path d="M 280.5746765136719 435.0987243652344 C 275.7261047363281 430.3595886230469 277.3815002441406 436.3744812011719 309.310546875 435.6747131347656 C 277.92034912109375 431.94989013671875 268.9178161621094 429.52545166015625 281.2032775878906 439.2108459472656 C 281.87811279296875 438.1391906738281 280.83038330078125 438.4295654296875 276.1085510253906 432.8794250488281 C 277.4445495605469 435.8443908691406 279.00848388671875 432.9694519042969 280.5746765136719 435.0987243652344" fill="rgb(188, 182, 92)" opacity="0.62386763" stroke="rgb(160, 94, 164)" stroke-linecap="round" stroke-linejoin="round" stroke-opacity="0.71143514" stroke-width="0.0"/>
    <path d="M 286.8062744140625 360.6426696777344 C 264.092041015625 334.91400146484375 269.97296142578125 363.07159423828125 270.8089599609375 364.8853454589844 C 271.0947265625 363.0459289550781 261.1026611328125 366.1314392089844 259.5230407714844 365.83447265625 C 264.10272216796875 368.9684753417969 264.86541748046875 358.06634521484375 217.38638305664062 382.4057922363281 C 226.6091766357422 378.7879333496094 249.90835571289062 371.8287048339844 286.8062744140625 360.6426696777344" fill="rgb(250, 255, 250)" opacity="0.6591833" stroke="rgb(121, 154, 199)" stroke-linecap="round" stroke-linejoin="round" stroke-opacity="0.75525033" stroke-width="0.0"/>
    <path d="M 602.0774536132812 468.8171691894531 C 601.4075927734375 471.3171691894531 599.5774536132812 473.1473083496094 597.0774536132812 473.8171691894531 C 594.5774536132812 473.1473083496094 592.747314453125 471.3171691894531 592.0774536132812 468.8171691894531 C 592.747314453125 466.3171691894531 594.5774536132812 464.4870300292969 597.0774536132812 463.8171691894531 C 599.5774536132812 464.4870300292969 601.4075927734375 466.3171691894531 602.0774536132812 468.8171691894531" fill="rgb(97, 148, 168)" opacity="1.0" stroke="rgb(29, 216, 60)" stroke-linecap="round" stroke-linejoin="round" stroke-opacity="0.4142938" stroke-width="0.0"/>
    <path d="M 629.2247924804688 390.892578125 C 628.554931640625 393.392578125 626.7247924804688 395.22271728515625 624.2247924804688 395.892578125 C 621.7247924804688 395.22271728515625 619.8946533203125 393.392578125 619.2247924804688 390.892578125 C 619.8946533203125 388.392578125 621.7247924804688 386.56243896484375 624.2247924804688 385.892578125 C 626.7247924804688 386.56243896484375 628.554931640625 388.392578125 629.2247924804688 390.892578125" fill="rgb(98, 149, 168)" opacity="1.0" stroke="rgb(162, 43, 178)" stroke-linecap="round" stroke-linejoin="round" stroke-opacity="0.5782795" stroke-width="0.0"/>
    <path d="M 544.2703857421875 759.1235961914062 C 543.6005249023438 761.6235961914062 541.7703857421875 763.4537353515625 539.2703857421875 764.1235961914062 C 536.7703857421875 763.4537353515625 534.9402465820312 761.6235961914062 534.2703857421875 759.1235961914062 C 534.9402465820312 756.6235961914062 536.7703857421875 754.79345703125 539.2703857421875 754.1235961914062 C 541.7703857421875 754.79345703125 543.6005249023438 756.6235961914062 544.2703857421875 759.1235961914062" fill="rgb(51, 7, 54)" opacity="1.0" stroke="rgb(1, 201, 247)" stroke-linecap="round" stroke-linejoin="round" stroke-opacity="0.44212517" stroke-width="0.0"/>
    <path d="M 596.64990234375 313.03466796875 C 595.9800415039062 315.53466796875 594.14990234375 317.36480712890625 591.64990234375 318.03466796875 C 589.14990234375 317.36480712890625 587.3197631835938 315.53466796875 586.64990234375 313.03466796875 C 587.3197631835938 310.53466796875 589.14990234375 308.70452880859375 591.64990234375 308.03466796875 C 594.14990234375 308.70452880859375 595.9800415039062 310.53466796875 596.64990234375 313.03466796875" fill="rgb(98, 151, 170)" opacity="1.0" stroke="rgb(61, 181, 164)" stroke-linecap="round" stroke-linejoin="round" stroke-opacity="0.7479025" stroke-width="0.0"/>
    <path d="M 465.3553771972656 200.32528686523438 C 464.6855163574219 202.82528686523438 462.8553771972656 204.65541076660156 460.3553771972656 205.32528686523438 C 457.8553771972656 204.65541076660156 456.0252380371094 202.82528686523438 455.3553771972656 200.32528686523438 C 456.0252380371094 197.82528686523438 457.8553771972656 195.9951629638672 460.3553771972656 195.32528686523438 C 462.8553771972656 195.9951629638672 464.6855163574219 197.82528686523438 465.3553771972656 200.32528686523438" fill="rgb(95, 148, 166)" opacity="1.0" stroke="rgb(66, 200, 177)" stroke-linecap="round" stroke-linejoin="round" stroke-opacity="0.09595889" stroke-width="0.0"/>
    <path d="M 543.706298828125 691.4077758789062 C 543.0364379882812 693.9077758789062 541.206298828125 695.7379150390625 538.706298828125 696.4077758789062 C 536.206298828125 695.7379150390625 534.3761596679688 693.9077758789062 533.706298828125 691.4077758789062 C 534.3761596679688 688.9077758789062 536.206298828125 687.07763671875 538.706298828125 686.4077758789062 C 541.206298828125 687.07763671875 543.0364379882812 688.9077758789062 543.706298828125 691.4077758789062" fill="rgb(50, 9, 52)" opacity="1.0" stroke="rgb(25, 238, 26)" stroke-linecap="round" stroke-linejoin="round" stroke-opacity="0.93469447" stroke-width="0.0"/>
    <path d="M 113.807373046875 12.316263198852539 C 113.13749694824219 14.816263198852539 111.307373046875 16.646390914916992 108.807373046875 17.31626319885254 C 106.307373046875 16.646390914916992 104.47724914550781 14.816263198852539 103.807373046875 12.316263198852539 C 104.47724914550781 9.816263198852539 106.307373046875 7.986135959625244 108.807373046875 7.316263198852539 C 111.307373046875 7.986135959625244 113.13749694824219 9.816263198852539 113.807373046875 12.316263198852539" fill="rgb(102, 150, 168)" opacity="1.0" stroke="rgb(51, 217, 193)" stroke-linecap="round" stroke-linejoin="round" stroke-opacity="0.0946266" stroke-width="0.0"/>
    <path d="M 581.9300537109375 707.4680786132812 C 581.2601928710938 709.9680786132812 579.4300537109375 711.7982177734375 576.9300537109375 712.4680786132812 C 574.4300537109375 711.7982177734375 572.5999145507812 709.9680786132812 571.9300537109375 707.4680786132812 C 572.5999145507812 704.9680786132812 574.4300537109375 703.137939453125 576.9300537109375 702.4680786132812 C 579.4300537109375 703.137939453125 581.2601928710938 704.9680786132812 581.9300537109375 707.4680786132812" fill="rgb(53, 7, 53)" opacity="1.0" stroke="rgb(244, 66, 104)" stroke-linecap="round" stroke-linejoin="round" stroke-opacity="0.82406" stroke-width="0.0"/>
    <path d="M 128.00100708007812 341.0238037109375 C 127.33112335205078 343.5238037109375 125.5009994506836 345.35394287109375 123.0009994506836 346.0238037109375 C 120.5009994506836 345.35394287109375 118.6708755493164 343.5238037109375 118.0009994506836 341.0238037109375 C 118.6708755493164 338.5238037109375 120.5009994506836 336.69366455078125 123.0009994506836 336.0238037109375 C 125.5009994506836 336.69366455078125 127.33112335205078 338.5238037109375 128.00100708007812 341.0238037109375" fill="rgb(97, 151, 171)" opacity="1.0" stroke="rgb(155, 189, 250)" stroke-linecap="round" stroke-linejoin="round" stroke-opacity="0.2523355" stroke-width="0.0"/>
    <path d="M 237.60421752929688 751.190673828125 C 236.93434143066406 753.690673828125 235.10421752929688 755.5208129882812 232.60421752929688 756.190673828125 C 230.10421752929688 755.5208129882812 228.2740936279297 753.690673828125 227.60421752929688 751.190673828125 C 228.2740936279297 748.690673828125 230.10421752929688 746.8605346679688 232.60421752929688 746.190673828125 C 235.10421752929688 746.8605346679688 236.93434143066406 748.690673828125 237.60421752929688 751.190673828125" fill="rgb(97, 149, 171)" opacity="1.0" stroke="rgb(195, 145, 94)" stroke-linecap="round" stroke-linejoin="round" stroke-opacity="0.8039385" stroke-width="0.0"/>
    <path d="M 640.2349243164062 42.18175506591797 C 639.5650634765625 44.68175506591797 637.7349243164062 46.51188278198242 635.2349243164062 47.18175506591797 C 632.7349243164062 46.51188278198242 630.90478515625 44.68175506591797 630.2349243164062 42.18175506591797 C 630.90478515625 39.68175506591797 632.7349243164062 37.851627349853516 635.2349243164062 37.18175506591797 C 637.7349243164062 37.851627349853516 639.5650634765625 39.68175506591797 640.2349243164062 42.18175506591797" fill="rgb(97, 149, 169)" opacity="1.0" stroke="rgb(22, 90, 161)" stroke-linecap="round" stroke-linejoin="round" stroke-opacity="0.9688631" stroke-width="0.0"/>
    <path d="M 141.19662475585938 155.60694885253906 C 140.52674865722656 158.10694885253906 138.69662475585938 159.93707275390625 136.19662475585938 160.60694885253906 C 133.69662475585938 159.93707275390625 131.8665008544922 158.10694885253906 131.19662475585938 155.60694885253906 C 131.8665008544922 153.10694885253906 133.69662475585938 151.27682495117188 136.19662475585938 150.60694885253906 C 138.69662475585938 151.27682495117188 140.52674865722656 153.10694885253906 141.19662475585938 155.60694885253906" fill="rgb(100, 149, 170)" opacity="1.0" stroke="rgb(149, 200, 242)" stroke-linecap="round" stroke-linejoin="round" stroke-opacity="0.13011344" stroke-width="0.0"/>
    <path d="M 70.08209991455078 486.4636535644531 C 69.41222381591797 488.9636535644531 67.58209991455078 490.7937927246094 65.08209991455078 491.4636535644531 C 62.58209991455078 490.7937927246094 60.75197219848633 488.9636535644531 60.08209991455078 486.4636535644531 C 60.75197219848633 483.9636535644531 62.58209991455078 482.1335144042969 65.08209991455078 481.4636535644531 C 67.58209991455078 482.1335144042969 69.41222381591797 483.9636535644531 70.08209991455078 486.4636535644531" fill="rgb(97, 150, 169)" opacity="1.0" stroke="rgb(75, 91, 86)" stroke-linecap="round" stroke-linejoin="round" stroke-opacity="0.4801437" stroke-width="0.0"/>
    <path d="M 340.1087341308594 440.0596923828125 C 339.4388732910156 442.5596923828125 337.6087341308594 444.38983154296875 335.1087341308594 445.0596923828125 C 332.6087341308594 444.38983154296875 330.7785949707031 442.5596923828125 330.1087341308594 440.0596923828125 C 330.7785949707031 437.5596923828125 332.6087341308594 435.72955322265625 335.1087341308594 435.0596923828125 C 337.6087341308594 435.72955322265625 339.4388732910156 437.5596923828125 340.1087341308594 440.0596923828125" fill="rgb(23, 75, 103)" opacity="1.0" stroke="rgb(232, 66, 226)" stroke-linecap="round" stroke-linejoin="round" stroke-opacity="0.5689348" stroke-width="0.0"/>
    <path d="M 538.073486328125 619.6896362304688 C 537.4036254882812 622.1896362304688 535.573486328125 624.019775390625 533.073486328125 624.6896362304688 C 530.573486328125 624.019775390625 528.7433471679688 622.1896362304688 528.073486328125 619.6896362304688 C 528.7433471679688 617.1896362304688 530.573486328125 615.3594970703125 533.073486328125 614.6896362304688 C 535.573486328125 615.3594970703125 537.4036254882812 617.1896362304688 538.073486328125 619.6896362304688" fill="rgb(53, 5, 50)" opacity="1.0" stroke="rgb(154, 208, 17)" stroke-linecap="round" stroke-linejoin="round" stroke-opacity="0.95171696" stroke-width="0.0"/>
    <path d="M 472.0434875488281 162.52139282226562 C 471.3736267089844 165.02139282226562 469.5434875488281 166.8515167236328 467.0434875488281 167.52139282226562 C 464.5434875488281 166.8515167236328 462.7133483886719 165.02139282226562 462.0434875488281 162.52139282226562 C 462.7133483886719 160.02139282226562 464.5434875488281 158.19126892089844 467.0434875488281 157.52139282226562 C 469.5434875488281 158.19126892089844 471.3736267089844 160.02139282226562 472.0434875488281 162.52139282226562" fill="rgb(100, 152, 171)" opacity="1.0" stroke="rgb(6, 4, 205)" stroke-linecap="round" stroke-linejoin="round" stroke-opacity="0.6982334" stroke-width="0.0"/>
    <path d="M 90.62469482421875 217.97946166992188 C 89.95481872558594 220.47946166992188 88.12469482421875 222.30958557128906 85.62469482421875 222.97946166992188 C 83.12469482421875 222.30958557128906 81.29457092285156 220.47946166992188 80.62469482421875 217.97946166992188 C 81.29457092285156 215.47946166992188 83.12469482421875 213.6493377685547 85.62469482421875 212.97946166992188 C 88.12469482421875 213.6493377685547 89.95481872558594 215.47946166992188 90.62469482421875 217.97946166992188" fill="rgb(99, 150, 168)" opacity="1.0" stroke="rgb(13, 237, 205)" stroke-linecap="round" stroke-linejoin="round" stroke-opacity="0.5818342" stroke-width="0.0"/>
    <path d="M 386.226318359375 383.6904602050781 C 385.55645751953125 386.1904602050781 383.726318359375 388.0205993652344 381.226318359375 388.6904602050781 C 378.726318359375 388.0205993652344 376.89617919921875 386.1904602050781 376.226318359375 383.6904602050781 C 376.89617919921875 381.1904602050781 378.726318359375 379.3603210449219 381.226318359375 378.6904602050781 C 383.726318359375 379.3603210449219 385.55645751953125 381.1904602050781 386.226318359375 383.6904602050781" fill="rgb(40, 0, 35)" opacity="1.0" stroke="rgb(70, 173, 230)" stroke-linecap="round" stroke-linejoin="round" stroke-opacity="0.8798826" stroke-width="0.0"/>
    <path d="M 121.36083984375 159.060546875 C 120.69096374511719 161.560546875 118.86083984375 163.3906707763672 116.36083984375 164.060546875 C 113.86083984375 163.3906707763672 112.03071594238281 161.560546875 111.36083984375 159.060546875 C 112.03071594238281 156.560546875 113.86083984375 154.7304229736328 116.36083984375 154.060546875 C 118.86083984375 154.7304229736328 120.69096374511719 156.560546875 121.36083984375 159.060546875" fill="rgb(96, 148, 167)" opacity="1.0" stroke="rgb(208, 124, 83)" stroke-linecap="round" stroke-linejoin="round" stroke-opacity="0.730382" stroke-width="0.0"/>
    <path d="M 597.6801147460938 483.7242431640625 C 597.01025390625 486.2242431640625 595.1801147460938 488.05438232421875 592.6801147460938 488.7242431640625 C 590.1801147460938 488.05438232421875 588.3499755859375 486.2242431640625 587.6801147460938 483.7242431640625 C 588.3499755859375 481.2242431640625 590.1801147460938 479.39410400390625 592.6801147460938 478.7242431640625 C 595.1801147460938 479.39410400390625 597.01025390625 481.2242431640625 597.6801147460938 483.7242431640625" fill="rgb(100, 149, 171)" opacity="1.0" stroke="rgb(113, 96, 155)" stroke-linecap="round" stroke-linejoin="round" stroke-opacity="0.8015438" stroke-width="0.0"/>
    <path d="M 750.8193969726562 137.52056884765625 C 750.1495361328125 140.02056884765625 748.3193969726562 141.85069274902344 745.8193969726562 142.52056884765625 C 743.3193969726562 141.85069274902344 741.4892578125 140.02056884765625 740.8193969726562 137.52056884765625 C 741.4892578125 135.02056884765625 743.3193969726562 133.19044494628906 745.8193969726562 132.52056884765625 C 748.3193969726562 133.19044494628906 750.1495361328125 135.02056884765625 750.8193969726562 137.52056884765625" fill="rgb(98, 151, 169)" opacity="1.0" stroke="rgb(9, 179, 192)" stroke-linecap="round" stroke-linejoin="round" stroke-opacity="0.73051995" stroke-width="0.0"/>
    <path d="M 414.42657470703125 619.5540161132812 C 413.7567138671875 622.0540161132812 411.92657470703125 623.8841552734375 409.42657470703125 624.5540161132812 C 406.92657470703125 623.8841552734375 405.096435546875 622.0540161132812 404.42657470703125 619.5540161132812 C 405.096435546875 617.0540161132812 406.92657470703125 615.223876953125 409.42657470703125 614.5540161132812 C 411.92657470703125 615.223876953125 413.7567138671875 617.0540161132812 414.42657470703125 619.5540161132812" fill="rgb(50, 6, 51)" opacity="1.0" stroke="rgb(12, 241, 9)" stroke-linecap="round" stroke-linejoin="round" stroke-opacity="0.6951893" stroke-width="0.0"/>
    <path d="M 640.8557739257812 14.320111274719238 C 640.1859130859375 16.820110321044922 638.3557739257812 18.650238037109375 635.8557739257812 19.320110321044922 C 633.3557739257812 18.650238037109375 631.525634765625 16.820110321044922 630.8557739257812 14.320111274719238 C 631.525634765625 11.820111274719238 633.3557739257812 9.989984512329102 635.8557739257812 9.320111274719238 C 638.3557739257812 9.989984512329102 640.1859130859375 11.820111274719238 640.8557739257812 14.320111274719238" fill="rgb(96, 148, 165)" opacity="1.0" stroke="rgb(148, 123, 43)" stroke-linecap="round" stroke-linejoin="round" stroke-opacity="0.40124664" stroke-width="0.0"/>
    <path d="M 748.8541259765625 701.6915283203125 C 748.1842651367188 704.1915283203125 746.3541259765625 706.0216674804688 743.8541259765625 706.6915283203125 C 741.3541259765625 706.0216674804688 739.5239868164062 704.1915283203125 738.8541259765625 701.6915283203125 C 739.5239868164062 699.1915283203125 741.3541259765625 697.3613891601562 743.8541259765625 696.6915283203125 C 746.3541259765625 697.3613891601562 748.1842651367188 699.1915283203125 748.8541259765625 701.6915283203125" fill="rgb(54, 6, 52)" opacity="1.0" stroke="rgb(213, 167, 156)" stroke-linecap="round" stroke-linejoin="round" stroke-opacity="0.7575792" stroke-width="0.0"/>
    <path d="M 741.3184204101562 502.7632751464844 C 740.6485595703125 505.2632751464844 738.8184204101562 507.0934143066406 736.3184204101562 507.7632751464844 C 733.8184204101562 507.0934143066406 731.98828125 505.2632751464844 731.3184204101562 502.7632751464844 C 731.98828125 500.2632751464844 733.8184204101562 498.4331359863281 736.3184204101562 497.7632751464844 C 738.8184204101562 498.4331359863281 740.6485595703125 500.2632751464844 741.3184204101562 502.7632751464844" fill="rgb(96, 148, 168)" opacity="1.0" stroke="rgb(235, 69, 118)" stroke-linecap="round" stroke-linejoin="round" stroke-opacity="0.17410101" stroke-width="0.0"/>
    <path d="M 129.30308532714844 713.5333862304688 C 128.63320922851562 716.0333862304688 126.80308532714844 717.863525390625 124.30308532714844 718.5333862304688 C 121.80308532714844 717.863525390625 119.97296142578125 716.0333862304688 119.30308532714844 713.5333862304688 C 119.97296142578125 711.0333862304688 121.80308532714844 709.2032470703125 124.30308532714844 708.5333862304688 C 126.80308532714844 709.2032470703125 128.63320922851562 711.0333862304688 129.30308532714844 713.5333862304688" fill="rgb(98, 149, 169)" opacity="1.0" stroke="rgb(174, 106, 71)" stroke-linecap="round" stroke-linejoin="round" stroke-opacity="0.83334565" stroke-width="0.0"/>
    <path d="M 403.9471435546875 655.8284912109375 C 403.27728271484375 658.3284912109375 401.4471435546875 660.1586303710938 398.9471435546875 660.8284912109375 C 396.4471435546875 660.1586303710938 394.61700439453125 658.3284912109375 393.9471435546875 655.8284912109375 C 394.61700439453125 653.3284912109375 396.4471435546875 651.4983520507812 398.9471435546875 650.8284912109375 C 401.4471435546875 651.4983520507812 403.27728271484375 653.3284912109375 403.9471435546875 655.8284912109375" fill="rgb(52, 7, 53)" opacity="1.0" stroke="rgb(215, 163, 5)" stroke-linecap="round" stroke-linejoin="round" stroke-opacity="0.4411598" stroke-width="0.0"/>
    <path d="M 368.2370910644531 377.48687744140625 C 367.5672302246094 379.98687744140625 365.7370910644531 381.8170166015625 363.2370910644531 382.48687744140625 C 360.7370910644531 381.8170166015625 358.9069519042969 379.98687744140625 358.2370910644531 377.48687744140625 C 358.9069519042969 374.98687744140625 360.7370910644531 373.15673828125 363.2370910644531 372.48687744140625 C 365.7370910644531 373.15673828125 367.5672302246094 374.98687744140625 368.2370910644531 377.48687744140625" fill="rgb(146, 157, 163)" opacity="1.0" stroke="rgb(201, 74, 187)" stroke-linecap="round" stroke-linejoin="round" stroke-opacity="0.48942572" stroke-width="0.0"/>
    <path d="M 529.7398071289062 587.1830444335938 C 529.0699462890625 589.6830444335938 527.2398071289062 591.51318359375 524.7398071289062 592.1830444335938 C 522.2398071289062 591.51318359375 520.40966796875 589.6830444335938 519.7398071289062 587.1830444335938 C 520.40966796875 584.6830444335938 522.2398071289062 582.8529052734375 524.7398071289062 582.1830444335938 C 527.2398071289062 582.8529052734375 529.0699462890625 584.6830444335938 529.7398071289062 587.1830444335938" fill="rgb(220, 234, 237)" opacity="1.0" stroke="rgb(12, 157, 219)" stroke-linecap="round" stroke-linejoin="round" stroke-opacity="0.7558568" stroke-width="0.0"/>
    <path d="M 523.9823608398438 750.2789306640625 C 523.3125 752.7789306640625 521.4823608398438 754.6090698242188 518.9823608398438 755.2789306640625 C 516.4823608398438 754.6090698242188 514.6522216796875 752.7789306640625 513.9823608398438 750.2789306640625 C 514.6522216796875 747.7789306640625 516.4823608398438 745.9487915039062 518.9823608398438 745.2789306640625 C 521.4823608398438 745.9487915039062 523.3125 747.7789306640625 523.9823608398438 750.2789306640625" fill="rgb(51, 5, 52)" opacity="1.0" stroke="rgb(141, 114, 231)" stroke-linecap="round" stroke-linejoin="round" stroke-opacity="0.60202366" stroke-width="0.0"/>
    <path d="M 434.0321960449219 698.0433959960938 C 433.3623352050781 700.5433959960938 431.5321960449219 702.37353515625 429.0321960449219 703.0433959960938 C 426.5321960449219 702.37353515625 424.7020568847656 700.5433959960938 424.0321960449219 698.0433959960938 C 424.7020568847656 695.5433959960938 426.5321960449219 693.7132568359375 429.0321960449219 693.0433959960938 C 431.5321960449219 693.7132568359375 433.3623352050781 695.5433959960938 434.0321960449219 698.0433959960938" fill="rgb(52, 7, 55)" opacity="1.0" stroke="rgb(131, 34, 206)" stroke-linecap="round" stroke-linejoin="round" stroke-opacity="0.738122" stroke-width="0.0"/>
    <path d="M 127.97886657714844 239.1686553955078 C 127.30899047851562 241.6686553955078 125.47886657714844 243.498779296875 122.97886657714844 244.1686553955078 C 120.47886657714844 243.498779296875 118.64874267578125 241.6686553955078 117.97886657714844 239.1686553955078 C 118.64874267578125 236.6686553955078 120.47886657714844 234.83853149414062 122.97886657714844 234.1686553955078 C 125.47886657714844 234.83853149414062 127.30899047851562 236.6686553955078 127.97886657714844 239.1686553955078" fill="rgb(99, 149, 167)" opacity="1.0" stroke="rgb(147, 86, 208)" stroke-linecap="round" stroke-linejoin="round" stroke-opacity="0.3549631" stroke-width="0.0"/>
  </g>
</svg>
