<?xml version="1.0" ?>
<svg height="768" version="1.1" width="768" xmlns="http://www.w3.org/2000/svg">
  <defs/>
  <g>
    <path d="M 764.3659057617188 792.4375610351562 C 350.388671875 820.512939453125 214.22267150878906 848.244873046875 180.25820922851562 617.1057739257812 C 611.6890258789062 341.4407043457031 732.0181274414062 245.7716827392578 19.68168067932129 550.357421875 C -17.482961654663086 -99.61408233642578 -2.1434621810913086 -53.29404830932617 764.5057983398438 -12.559484481811523 C 764.361572265625 260.75262451171875 764.5606079101562 319.7413024902344 764.3659057617188 792.4375610351562" fill="rgb(44, 111, 137)" opacity="0.73783535" stroke="rgb(242, 217, 203)" stroke-linecap="round" stroke-linejoin="round" stroke-opacity="0.71962214" stroke-width="0.0"/>
    <path d="M 419.0157470703125 773.4053955078125 C 417.90032958984375 781.865966796875 412.3475341796875 782.13037109375 282.6082763671875 783.4658813476562 C 292.4317626953125 802.7801513671875 249.5257110595703 771.22900390625 249.59898376464844 688.3129272460938 C 250.57473754882812 625.6282958984375 294.76055908203125 559.560791015625 364.9166564941406 548.9178466796875 C 428.1944885253906 625.2735595703125 414.6642150878906 654.7512817382812 419.0157470703125 773.4053955078125" fill="rgb(51, 0, 46)" opacity="0.95573413" stroke="rgb(52, 80, 13)" stroke-linecap="round" stroke-linejoin="round" stroke-opacity="0.118004136" stroke-width="0.0"/>
    <path d="M 736.5689697265625 583.6534423828125 C 808.9920043945312 944.5974731445312 745.396484375 855.3167724609375 639.16796875 783.4080810546875 C 383.5316467285156 780.7656860351562 386.5614929199219 774.1064453125 381.86480712890625 763.1819458007812 C 365.4377746582031 666.239501953125 312.28729248046875 694.2014770507812 360.2077331542969 551.7246704101562 C 596.52294921875 555.7451782226562 372.40875244140625 590.9752807617188 736.5689697265625 583.6534423828125" fill="rgb(49, 0, 45)" opacity="0.95893204" stroke="rgb(4, 38, 250)" stroke-linecap="round" stroke-linejoin="round" stroke-opacity="0.26343647" stroke-width="0.0"/>
    <path d="M 510.3680725097656 674.5989990234375 C 445.1566467285156 636.3032836914062 439.4671630859375 629.5286865234375 429.89849853515625 619.4689331054688 C 414.76055908203125 598.9740600585938 394.0834045410156 621.8517456054688 357.47381591796875 551.27490234375 C 359.2583923339844 548.4495849609375 408.5420837402344 539.1693725585938 462.1799621582031 556.8089599609375 C 509.96807861328125 574.3689575195312 545.1268310546875 584.1591796875 510.3680725097656 674.5989990234375" fill="rgb(50, 5, 48)" opacity="0.9769596" stroke="rgb(128, 50, 213)" stroke-linecap="round" stroke-linejoin="round" stroke-opacity="0.26315796" stroke-width="0.0"/>
    <path d="M 477.5944519042969 694.2980346679688 C 440.71063232421875 692.2491455078125 438.238037109375 688.3101806640625 345.9703674316406 666.7479248046875 C 383.6034240722656 641.6197509765625 377.48150634765625 640.5377807617188 374.0791320800781 578.8396606445312 C 395.8470153808594 585.5413208007812 399.8694152832031 588.8388671875 448.9873352050781 590.1295776367188 C 441.9034118652344 601.2164916992188 461.8592529296875 590.17822265625 477.5944519042969 694.2980346679688" fill="rgb(51, 6, 51)" opacity="1.0" stroke="rgb(43, 31, 31)" stroke-linecap="round" stroke-linejoin="round" stroke-opacity="0.971857" stroke-width="0.0"/>
    <path d="M 772.6871948242188 645.5551147460938 C 779.4932861328125 788.3673706054688 759.9293823242188 779.6956787109375 759.9092407226562 776.7083129882812 C 667.3804931640625 775.17529296875 664.4019165039062 775.1902465820312 631.3526000976562 798.4706420898438 C 618.0065307617188 736.8984985351562 612.4348754882812 743.5307006835938 511.01751708984375 662.888671875 C 744.9476928710938 589.7505493164062 697.793212890625 588.0567016601562 772.6871948242188 645.5551147460938" fill="rgb(51, 6, 50)" opacity="1.0" stroke="rgb(114, 58, 76)" stroke-linecap="round" stroke-linejoin="round" stroke-opacity="0.7408875" stroke-width="0.0"/>
    <path d="M 509.8513488769531 607.8089599609375 C 513.3214111328125 802.6416015625 475.8483581542969 785.5545654296875 463.1373596191406 778.73828125 C 399.4739074707031 777.9015502929688 396.3370361328125 776.35009765625 375.4136962890625 761.71826171875 C 376.59130859375 724.4921875 381.28118896484375 722.0128784179688 363.0038757324219 699.001708984375 C 444.2906494140625 675.209228515625 450.64398193359375 670.1237182617188 509.8513488769531 607.8089599609375" fill="rgb(51, 6, 51)" opacity="0.98847324" stroke="rgb(192, 160, 53)" stroke-linecap="round" stroke-linejoin="round" stroke-opacity="0.16767655" stroke-width="0.0"/>
    <path d="M 554.1524658203125 467.35028076171875 C 572.2415161132812 639.9213256835938 505.1872863769531 552.8519897460938 186.54437255859375 457.96636962890625 C 280.1147155761719 374.9345397949219 268.1100769042969 403.5089416503906 271.8100280761719 343.8577575683594 C 324.4971008300781 332.111083984375 277.412353515625 308.9228515625 349.6307678222656 268.7989196777344 C 312.2569885253906 270.1016540527344 572.8561401367188 279.7466125488281 554.1524658203125 467.35028076171875" fill="rgb(217, 227, 238)" opacity="1.0" stroke="rgb(29, 40, 109)" stroke-linecap="round" stroke-linejoin="round" stroke-opacity="0.9429024" stroke-width="0.0"/>
    <path d="M 359.1744689941406 430.9899597167969 C 384.07757568359375 437.05169677734375 378.912841796875 451.7610168457031 365.3714904785156 448.1957092285156 C 344.4815673828125 451.18914794921875 260.82965087890625 396.90740966796875 207.99476623535156 481.73712158203125 C 143.57073974609375 378.9799499511719 290.4526672363281 345.53741455078125 328.5002746582031 369.59912109375 C 267.94232177734375 439.5726623535156 431.7142028808594 390.6364440917969 359.1744689941406 430.9899597167969" fill="rgb(251, 197, 28)" opacity="0.9947257" stroke="rgb(236, 230, 114)" stroke-linecap="round" stroke-linejoin="round" stroke-opacity="0.5568124" stroke-width="0.0"/>
    <path d="M 224.3944091796875 599.1067504882812 C 220.15550231933594 617.103271484375 218.04991149902344 620.4246826171875 201.01431274414062 670.0990600585938 C 95.66047668457031 661.1954345703125 91.85841369628906 642.9388427734375 44.89935302734375 633.6106567382812 C 26.983795166015625 509.47174072265625 33.88551330566406 496.8935852050781 62.82846450805664 487.86328125 C 198.05313110351562 507.5721740722656 187.33604431152344 534.5896606445312 224.3944091796875 599.1067504882812" fill="rgb(97, 148, 168)" opacity="1.0" stroke="rgb(13, 101, 124)" stroke-linecap="round" stroke-linejoin="round" stroke-opacity="0.3704566" stroke-width="0.0"/>
    <path d="M 250.5074462890625 767.7999267578125 C 130.63113403320312 785.9500732421875 102.27619934082031 780.6624145507812 2.067309856414795 767.7311401367188 C 4.068077564239502 719.34521484375 0.9502812623977661 714.1251220703125 1.8537859916687012 262.81317138671875 C 112.36439514160156 485.4678649902344 55.096717834472656 530.7925415039062 172.66917419433594 574.1969604492188 C 193.34103393554688 605.7512817382812 221.55838012695312 579.1093139648438 250.5074462890625 767.7999267578125" fill="rgb(100, 150, 169)" opacity="0.71190697" stroke="rgb(220, 46, 219)" stroke-linecap="round" stroke-linejoin="round" stroke-opacity="0.5888399" stroke-width="0.0"/>
    <path d="M 91.71905517578125 769.4301147460938 C 41.49909210205078 781.872314453125 34.28742218017578 779.9769287109375 0.15332989394664764 780.158203125 C 1.2655665874481201 774.8110961914062 0.7318539023399353 750.859375 0.7890703678131104 555.6467895507812 C 38.976654052734375 676.5089721679688 -6.825563907623291 677.071044921875 35.63526916503906 686.009765625 C 62.6407470703125 701.1349487304688 77.03741455078125 694.5667724609375 91.71905517578125 769.4301147460938" fill="rgb(104, 159, 188)" opacity="0.27117518" stroke="rgb(47, 198, 143)" stroke-linecap="round" stroke-linejoin="round" stroke-opacity="0.46955255" stroke-width="0.0"/>
    <path d="M 420.88970947265625 365.3572998046875 C 417.55523681640625 360.9773864746094 409.2497253417969 401.9049377441406 365.8857727050781 387.05426025390625 C 359.5950927734375 382.38336181640625 396.5118103027344 393.18243408203125 362.5717468261719 374.427734375 C 362.69879150390625 460.75189208984375 258.9969177246094 383.2621765136719 249.44912719726562 367.6156311035156 C 394.2369689941406 345.5536193847656 424.3244934082031 366.8734130859375 420.88970947265625 365.3572998046875" fill="rgb(19, 79, 113)" opacity="0.97489095" stroke="rgb(224, 79, 9)" stroke-linecap="round" stroke-linejoin="round" stroke-opacity="0.8877654" stroke-width="0.0"/>
    <path d="M 425.9557189941406 358.3809509277344 C 424.53582763671875 351.2303466796875 418.0941467285156 383.2880554199219 390.94049072265625 391.66082763671875 C 358.865234375 393.78948974609375 369.4718017578125 381.8973693847656 381.95086669921875 366.5616455078125 C 360.6163330078125 352.49029541015625 382.8072814941406 352.8807067871094 406.2358703613281 350.4862365722656 C 422.9559020996094 350.1029357910156 420.9106140136719 349.78656005859375 425.9557189941406 358.3809509277344" fill="rgb(59, 17, 69)" opacity="0.6750058" stroke="rgb(213, 239, 89)" stroke-linecap="round" stroke-linejoin="round" stroke-opacity="0.4390413" stroke-width="0.0"/>
    <path d="M 288.3007507324219 442.90899658203125 C 326.57470703125 576.44580078125 292.5283203125 597.3893432617188 231.436279296875 610.10791015625 C 151.05691528320312 562.2250366210938 136.7821807861328 565.1077270507812 112.4710693359375 489.6803283691406 C 120.84571075439453 474.58270263671875 128.41270446777344 449.6810607910156 214.0584716796875 477.7227478027344 C 194.5279998779297 450.06842041015625 264.8315734863281 425.71453857421875 288.3007507324219 442.90899658203125" fill="rgb(97, 148, 167)" opacity="1.0" stroke="rgb(77, 192, 18)" stroke-linecap="round" stroke-linejoin="round" stroke-opacity="0.75667703" stroke-width="0.0"/>
    <path d="M 53.792945861816406 29.4559268951416 C 52.95586013793945 41.64665222167969 52.57441711425781 45.30537796020508 35.501976013183594 49.15309524536133 C -0.9316381812095642 43.81549072265625 4.38534688949585 42.713558197021484 2.427208662033081 -14.234678268432617 C -4.259909629821777 -11.502629280090332 -0.2105046957731247 -11.74039363861084 5.109038829803467 -11.091684341430664 C 46.99081802368164 1.8849438428878784 51.23328399658203 2.1791985034942627 53.792945861816406 29.4559268951416" fill="rgb(150, 187, 206)" opacity="0.83394295" stroke="rgb(176, 108, 194)" stroke-linecap="round" stroke-linejoin="round" stroke-opacity="0.14983524" stroke-width="0.0"/>
    <path d="M 751.0252685546875 614.1676025390625 C 750.7136840820312 624.8956909179688 750.5224609375 627.1310424804688 747.3589477539062 624.56689453125 C 724.1448364257812 607.43798828125 713.0973510742188 598.4199829101562 687.8214721679688 582.4888305664062 C 698.0169067382812 578.7434692382812 707.4534301757812 583.0731811523438 734.9866943359375 581.2529296875 C 745.5578002929688 581.9334106445312 747.1417236328125 584.1548461914062 751.0252685546875 614.1676025390625" fill="rgb(102, 150, 169)" opacity="0.9763079" stroke="rgb(38, 234, 218)" stroke-linecap="round" stroke-linejoin="round" stroke-opacity="0.90811515" stroke-width="0.0"/>
    <path d="M 689.7984619140625 584.1348266601562 C 629.252197265625 615.0374145507812 620.1159057617188 611.2008666992188 547.7449951171875 608.8662719726562 C 552.8516235351562 601.09228515625 549.0162963867188 605.5639038085938 554.4077758789062 558.5809936523438 C 555.9313354492188 529.9490966796875 565.30078125 519.1405639648438 666.4988403320312 569.8095092773438 C 645.3450317382812 561.1915893554688 663.2291870117188 566.6585693359375 689.7984619140625 584.1348266601562" fill="rgb(50, 5, 49)" opacity="1.0" stroke="rgb(77, 26, 204)" stroke-linecap="round" stroke-linejoin="round" stroke-opacity="0.34340128" stroke-width="0.0"/>
    <path d="M 41.10154724121094 139.853759765625 C 29.2902774810791 147.6814422607422 31.70159149169922 153.32041931152344 11.154139518737793 170.2092742919922 C -0.9523354768753052 176.3885498046875 2.2768023014068604 214.9466094970703 1.589817762374878 140.32647705078125 C 4.199868679046631 154.6676025390625 1.7363618612289429 112.31664276123047 2.9427692890167236 103.04615783691406 C 25.233417510986328 115.85322570800781 37.12025451660156 96.44921112060547 41.10154724121094 139.853759765625" fill="rgb(98, 150, 171)" opacity="0.6118655" stroke="rgb(172, 190, 31)" stroke-linecap="round" stroke-linejoin="round" stroke-opacity="0.37453917" stroke-width="0.0"/>
    <path d="M 378.55865478515625 443.0533752441406 C 372.4971008300781 450.66351318359375 372.223388671875 452.3055114746094 340.17877197265625 449.4817199707031 C 317.599853515625 440.1944274902344 315.4748840332031 429.5256652832031 273.1217346191406 434.64288330078125 C 258.997802734375 418.4851379394531 286.1800231933594 427.823486328125 349.39404296875 430.4790344238281 C 366.2519226074219 432.58306884765625 377.69976806640625 429.3677978515625 378.55865478515625 443.0533752441406" fill="rgb(32, 85, 106)" opacity="1.0" stroke="rgb(184, 183, 3)" stroke-linecap="round" stroke-linejoin="round" stroke-opacity="0.09350863" stroke-width="0.0"/>
    <path d="M 416.4610290527344 537.3178100585938 C 381.2033386230469 525.3792114257812 339.37078857421875 528.2297973632812 319.51837158203125 537.541259765625 C 303.855224609375 538.4642333984375 310.2889404296875 559.026123046875 303.41424560546875 557.5028076171875 C 300.86578369140625 435.36151123046875 275.72808837890625 397.4300842285156 317.5756530761719 500.7069091796875 C 354.2694091796875 513.9050903320312 373.41473388671875 519.8418579101562 416.4610290527344 537.3178100585938" fill="rgb(215, 228, 238)" opacity="0.958901" stroke="rgb(211, 140, 119)" stroke-linecap="round" stroke-linejoin="round" stroke-opacity="0.80919874" stroke-width="0.0"/>
    <path d="M 44.577354431152344 47.58809280395508 C 45.187286376953125 59.40657424926758 43.18516159057617 62.01929473876953 36.64965057373047 61.36672592163086 C -6.051848888397217 58.478641510009766 4.066636562347412 63.05807876586914 2.169666051864624 9.946761131286621 C 1.2034832239151 4.78285551071167 2.7735753059387207 -1.1069393157958984 -1.3710858821868896 -6.120702743530273 C 30.087867736816406 7.208829879760742 29.730609893798828 11.344317436218262 44.577354431152344 47.58809280395508" fill="rgb(65, 116, 138)" opacity="0.5898935" stroke="rgb(27, 144, 88)" stroke-linecap="round" stroke-linejoin="round" stroke-opacity="0.4515706" stroke-width="0.0"/>
    <path d="M 54.87189865112305 70.70161437988281 C 47.58525848388672 104.62346649169922 45.68181228637695 106.0296630859375 30.13076400756836 109.3738021850586 C -9.906706809997559 106.19526672363281 6.819129467010498 102.23107147216797 2.542356252670288 79.17093658447266 C 3.2994399070739746 39.499210357666016 -4.037917613983154 39.14858627319336 30.549537658691406 39.87128448486328 C 49.80070495605469 38.24147033691406 54.59355163574219 37.678741455078125 54.87189865112305 70.70161437988281" fill="rgb(99, 148, 167)" opacity="0.73695767" stroke="rgb(15, 37, 60)" stroke-linecap="round" stroke-linejoin="round" stroke-opacity="0.3673256" stroke-width="0.0"/>
    <path d="M 625.0223999023438 551.4866333007812 C 609.1329956054688 561.60595703125 602.6268310546875 555.3099975585938 593.7915649414062 554.3243408203125 C 557.0201416015625 560.1655883789062 552.1025390625 565.9310913085938 554.3955078125 578.5789184570312 C 557.4443969726562 516.5083618164062 553.0468139648438 529.4376220703125 557.7008056640625 527.215087890625 C 582.65087890625 533.3499145507812 596.9636840820312 538.0985107421875 625.0223999023438 551.4866333007812" fill="rgb(49, 3, 45)" opacity="0.96959573" stroke="rgb(118, 93, 52)" stroke-linecap="round" stroke-linejoin="round" stroke-opacity="0.1485946" stroke-width="0.0"/>
    <path d="M 531.2975463867188 600.2571411132812 C 527.4529418945312 600.9058837890625 528.6871948242188 599.66796875 531.5278930664062 606.2509765625 C 521.4082641601562 583.330810546875 502.65472412109375 570.7088012695312 447.3772888183594 549.8325805664062 C 455.9853210449219 489.6087646484375 482.5521240234375 505.38409423828125 530.389892578125 485.56939697265625 C 522.34228515625 526.1588745117188 533.2828369140625 556.3165893554688 531.2975463867188 600.2571411132812" fill="rgb(217, 227, 238)" opacity="1.0" stroke="rgb(5, 163, 37)" stroke-linecap="round" stroke-linejoin="round" stroke-opacity="0.3328018" stroke-width="0.0"/>
    <path d="M 31.161678314208984 167.26576232910156 C 45.41452407836914 193.3613739013672 85.42705535888672 253.86546325683594 1.7765215635299683 281.50897216796875 C 1.7216989994049072 226.50917053222656 1.7708743810653687 201.56251525878906 1.8130722045898438 186.7714385986328 C 6.908705711364746 150.06785583496094 -5.449066638946533 132.6145782470703 17.54912757873535 136.81695556640625 C 26.758657455444336 150.04953002929688 23.90863800048828 157.5050506591797 31.161678314208984 167.26576232910156" fill="rgb(100, 148, 168)" opacity="0.9014475" stroke="rgb(195, 150, 131)" stroke-linecap="round" stroke-linejoin="round" stroke-opacity="0.76676005" stroke-width="0.0"/>
    <path d="M 283.0525207519531 408.9817810058594 C 253.46035766601562 445.6473083496094 310.9566650390625 437.2041931152344 257.53472900390625 438.595703125 C 196.4979705810547 453.1264953613281 219.5096435546875 467.064208984375 211.57681274414062 480.8622741699219 C 203.3350067138672 438.53497314453125 239.78677368164062 427.5674743652344 257.49853515625 425.4779052734375 C 283.79473876953125 425.3710021972656 267.68206787109375 427.3686828613281 283.0525207519531 408.9817810058594" fill="rgb(99, 85, 2)" opacity="0.7440257" stroke="rgb(218, 230, 219)" stroke-linecap="round" stroke-linejoin="round" stroke-opacity="0.6442795" stroke-width="0.0"/>
    <path d="M 29.693483352661133 94.05609893798828 C 17.50358772277832 130.283935546875 23.854055404663086 134.49679565429688 5.905035018920898 137.34756469726562 C 0.6766619682312012 145.0905303955078 1.5848594903945923 156.85597229003906 1.6307326555252075 80.30999755859375 C -2.5926284790039062 82.79515838623047 -9.347014427185059 79.97149658203125 31.753149032592773 79.68848419189453 C 40.170562744140625 84.04412841796875 38.392723083496094 88.27993774414062 29.693483352661133 94.05609893798828" fill="rgb(36, 98, 127)" opacity="0.4002649" stroke="rgb(80, 198, 12)" stroke-linecap="round" stroke-linejoin="round" stroke-opacity="0.5159796" stroke-width="0.0"/>
    <path d="M 37.30250549316406 60.016658782958984 C 36.45756530761719 64.20003509521484 32.777130126953125 64.86827087402344 34.93289566040039 70.02557373046875 C -3.4460854530334473 80.3736343383789 0.958428144454956 95.08039855957031 0.8148114681243896 54.02671813964844 C 0.5972036123275757 9.551676750183105 1.0796434879302979 19.572738647460938 0.09516257792711258 -8.908166885375977 C 6.523057460784912 36.328529357910156 -4.209233283996582 39.58852767944336 37.30250549316406 60.016658782958984" fill="rgb(0, 78, 119)" opacity="0.18813713" stroke="rgb(239, 110, 43)" stroke-linecap="round" stroke-linejoin="round" stroke-opacity="0.09347746" stroke-width="0.0"/>
    <path d="M 112.56331634521484 -1.4724687337875366 C 88.5909423828125 60.34292984008789 79.78887939453125 57.77525329589844 45.727901458740234 68.61400604248047 C 23.354110717773438 64.39812469482422 21.878040313720703 61.913795471191406 23.79166603088379 53.710670471191406 C 32.77850341796875 7.239770412445068 34.121971130371094 5.1598052978515625 74.33839416503906 -10.596016883850098 C 95.77884674072266 -11.962004661560059 102.23175811767578 -12.627001762390137 112.56331634521484 -1.4724687337875366" fill="rgb(98, 149, 169)" opacity="0.99660546" stroke="rgb(42, 99, 241)" stroke-linecap="round" stroke-linejoin="round" stroke-opacity="0.16711089" stroke-width="0.0"/>
    <path d="M 73.95045471191406 10.04063606262207 C 61.48281478881836 24.639575958251953 59.516136169433594 25.98475456237793 43.1358642578125 26.792226791381836 C 22.069686889648438 20.017810821533203 19.807106018066406 18.993846893310547 9.889382362365723 -4.95691442489624 C 11.929935455322266 -17.40320587158203 16.633716583251953 -16.455724716186523 49.400550842285156 -16.11858367919922 C 70.95249938964844 -25.97745132446289 73.639404296875 -27.016782760620117 73.95045471191406 10.04063606262207" fill="rgb(101, 147, 167)" opacity="0.9994907" stroke="rgb(209, 125, 179)" stroke-linecap="round" stroke-linejoin="round" stroke-opacity="0.44908255" stroke-width="0.0"/>
    <path d="M 302.40521240234375 394.7341003417969 C 306.4446716308594 416.5699157714844 304.2891540527344 415.1255798339844 300.048583984375 411.9520263671875 C 268.16217041015625 401.9061584472656 267.64056396484375 401.4966125488281 250.76577758789062 369.0391540527344 C 254.66778564453125 368.7308044433594 260.97186279296875 366.02166748046875 268.4556579589844 365.0948181152344 C 283.35443115234375 361.6799621582031 300.2888488769531 369.0028991699219 302.40521240234375 394.7341003417969" fill="rgb(250, 208, 29)" opacity="0.988954" stroke="rgb(242, 163, 135)" stroke-linecap="round" stroke-linejoin="round" stroke-opacity="0.73419005" stroke-width="0.0"/>
    <path d="M 346.6217041015625 358.4970397949219 C 319.8597412109375 365.52789306640625 307.29644775390625 373.50494384765625 328.5415954589844 364.7431945800781 C 283.3690490722656 380.20135498046875 317.3145751953125 375.7274475097656 280.1623229980469 361.4544982910156 C 252.62100219726562 371.69757080078125 288.3837585449219 313.11151123046875 346.0493469238281 270.3612060546875 C 461.0058288574219 295.1631164550781 444.20819091796875 293.7530822753906 346.6217041015625 358.4970397949219" fill="rgb(255, 255, 250)" opacity="0.9528764" stroke="rgb(36, 247, 23)" stroke-linecap="round" stroke-linejoin="round" stroke-opacity="0.6125393" stroke-width="0.0"/>
    <path d="M 207.2758331298828 397.6899108886719 C 209.0232391357422 396.5747375488281 187.67127990722656 417.6181335449219 194.8259735107422 451.9497985839844 C 199.53224182128906 470.3569641113281 180.31654357910156 448.6702575683594 194.9226837158203 409.58056640625 C 196.6100311279297 411.7023620605469 199.9364013671875 392.65997314453125 224.18075561523438 379.42144775390625 C 264.79656982421875 368.0425109863281 224.1505126953125 375.53436279296875 207.2758331298828 397.6899108886719" fill="rgb(255, 255, 221)" opacity="0.8654957" stroke="rgb(229, 153, 75)" stroke-linecap="round" stroke-linejoin="round" stroke-opacity="0.7333528" stroke-width="0.0"/>
    <path d="M 553.1242065429688 564.344482421875 C 550.361083984375 578.382080078125 553.2743530273438 585.343017578125 548.3696899414062 584.45556640625 C 546.5086669921875 583.1631469726562 545.7222900390625 568.1048583984375 526.5983276367188 550.0758666992188 C 535.4535522460938 558.1026000976562 544.8305053710938 551.1234741210938 554.4804077148438 520.2783203125 C 557.1788940429688 536.1039428710938 553.87451171875 549.0452880859375 553.1242065429688 564.344482421875" fill="rgb(222, 231, 242)" opacity="0.97565776" stroke="rgb(80, 216, 51)" stroke-linecap="round" stroke-linejoin="round" stroke-opacity="0.638194" stroke-width="0.0"/>
    <path d="M 545.6172485351562 580.5115356445312 C 546.1914672851562 591.5238037109375 551.6578369140625 585.0941772460938 538.73193359375 580.5009765625 C 527.2623291015625 589.258544921875 533.3193359375 564.3175048828125 530.7125854492188 574.4168701171875 C 530.2593994140625 546.4898681640625 531.31689453125 554.6849975585938 530.6253051757812 554.7137451171875 C 534.800048828125 558.2005615234375 543.8772583007812 573.96435546875 545.6172485351562 580.5115356445312" fill="rgb(40, 0, 35)" opacity="0.9738592" stroke="rgb(160, 59, 109)" stroke-linecap="round" stroke-linejoin="round" stroke-opacity="0.6311856" stroke-width="0.0"/>
    <path d="M 373.5396728515625 412.4723205566406 C 383.1962585449219 413.47076416015625 350.2144775390625 415.44970703125 357.83416748046875 416.0262145996094 C 351.0920715332031 413.1856994628906 333.8691101074219 415.9041748046875 325.0481262207031 409.2084045410156 C 357.2933654785156 411.67462158203125 354.91070556640625 404.7964782714844 352.1126708984375 410.1581726074219 C 364.7520446777344 411.3126220703125 375.0674133300781 409.1241760253906 373.5396728515625 412.4723205566406" fill="rgb(0, 26, 45)" opacity="0.9161116" stroke="rgb(203, 177, 122)" stroke-linecap="round" stroke-linejoin="round" stroke-opacity="0.102846235" stroke-width="0.0"/>
    <path d="M 377.1976318359375 379.2743225097656 C 377.3786315917969 379.7661437988281 373.1634826660156 386.7124938964844 366.4657287597656 387.64434814453125 C 368.8136291503906 383.9926452636719 362.67816162109375 381.07843017578125 361.78875732421875 369.6763916015625 C 365.98443603515625 370.43072509765625 365.4513244628906 361.73760986328125 373.4405822753906 366.4693298339844 C 374.7127685546875 368.53582763671875 378.9426574707031 365.7244873046875 377.1976318359375 379.2743225097656" fill="rgb(253, 252, 253)" opacity="0.99694306" stroke="rgb(64, 169, 102)" stroke-linecap="round" stroke-linejoin="round" stroke-opacity="0.5910266" stroke-width="0.0"/>
    <path d="M 285.2873229980469 376.7313232421875 C 296.1183166503906 386.58953857421875 290.884521484375 386.5623474121094 268.1465148925781 386.5063171386719 C 264.2089538574219 386.9941711425781 260.607666015625 387.4966735839844 267.1890563964844 378.9715576171875 C 273.3401184082031 375.1093444824219 275.4412841796875 373.6736145019531 268.59722900390625 377.7421569824219 C 266.6483154296875 376.0201416015625 283.54644775390625 375.6053466796875 285.2873229980469 376.7313232421875" fill="rgb(29, 33, 16)" opacity="0.9692457" stroke="rgb(65, 116, 228)" stroke-linecap="round" stroke-linejoin="round" stroke-opacity="0.8157138" stroke-width="0.0"/>
    <path d="M 367.7120056152344 430.0613708496094 C 383.7983703613281 415.8367919921875 378.84918212890625 421.21527099609375 371.41607666015625 428.2300109863281 C 346.1073303222656 428.95782470703125 383.69073486328125 437.01513671875 298.7216491699219 424.99053955078125 C 362.07293701171875 429.5494689941406 382.7478942871094 424.9520263671875 374.7701721191406 413.2762145996094 C 378.929931640625 413.2445068359375 383.2615051269531 419.9017333984375 367.7120056152344 430.0613708496094" fill="rgb(247, 235, 102)" opacity="0.79262656" stroke="rgb(18, 247, 131)" stroke-linecap="round" stroke-linejoin="round" stroke-opacity="0.43690374" stroke-width="0.0"/>
    <path d="M 417.8941650390625 350.76959228515625 C 435.9589538574219 350.512939453125 362.7455139160156 348.6551208496094 319.66033935546875 366.2908630371094 C 399.0193786621094 346.68328857421875 420.4315490722656 351.9167785644531 406.43902587890625 351.81622314453125 C 413.55780029296875 352.9734802246094 412.3157958984375 350.1786193847656 398.67523193359375 351.04229736328125 C 407.2492370605469 348.29443359375 405.8966369628906 353.5012512207031 417.8941650390625 350.76959228515625" fill="rgb(141, 196, 214)" opacity="0.6079665" stroke="rgb(9, 79, 30)" stroke-linecap="round" stroke-linejoin="round" stroke-opacity="0.6815823" stroke-width="0.0"/>
    <path d="M 201.768310546875 472.4520263671875 C 208.34715270996094 479.08038330078125 219.7491455078125 485.89019775390625 203.23675537109375 470.43902587890625 C 200.14305114746094 464.0877380371094 196.905029296875 461.8078918457031 202.79364013671875 469.2543640136719 C 195.77040100097656 463.93389892578125 188.62619018554688 424.2075500488281 191.60617065429688 450.4262390136719 C 193.53781127929688 465.5392150878906 203.83607482910156 474.0406188964844 201.768310546875 472.4520263671875" fill="rgb(249, 252, 222)" opacity="0.9081355" stroke="rgb(224, 166, 25)" stroke-linecap="round" stroke-linejoin="round" stroke-opacity="0.24624003" stroke-width="0.0"/>
    <path d="M 304.437255859375 551.8270263671875 C 302.316650390625 494.7396545410156 300.0747985839844 467.8237609863281 287.5955810546875 448.73565673828125 C 286.304443359375 443.92230224609375 286.3151550292969 443.93994140625 286.6956481933594 448.9226989746094 C 286.1963806152344 444.5215759277344 280.5273132324219 436.93231201171875 276.25408935546875 433.67083740234375 C 284.5675048828125 419.6866455078125 342.4883728027344 491.3785705566406 304.437255859375 551.8270263671875" fill="rgb(255, 255, 251)" opacity="0.94241464" stroke="rgb(170, 12, 22)" stroke-linecap="round" stroke-linejoin="round" stroke-opacity="0.4327145" stroke-width="0.0"/>
    <path d="M 515.0996704101562 345.86041259765625 C 525.9369506835938 357.5606689453125 557.4793701171875 406.9709167480469 522.1751098632812 349.52069091796875 C 395.4659729003906 281.6357727050781 300.45904541015625 418.7627868652344 418.5099182128906 289.03338623046875 C 500.0440673828125 319.3226623535156 506.4173889160156 336.1274719238281 517.9633178710938 343.596923828125 C 513.6859741210938 342.65496826171875 529.6183471679688 353.6809997558594 515.0996704101562 345.86041259765625" fill="rgb(255, 255, 249)" opacity="0.9131417" stroke="rgb(56, 134, 250)" stroke-linecap="round" stroke-linejoin="round" stroke-opacity="0.4484792" stroke-width="0.0"/>
    <path d="M 370.0877685546875 386.21490478515625 C 364.2323303222656 388.104736328125 361.1581115722656 397.702392578125 352.7862854003906 403.0850524902344 C 367.2997131347656 380.219970703125 360.5736083984375 395.37249755859375 356.709228515625 363.21435546875 C 360.7637023925781 380.3963623046875 358.02593994140625 383.60736083984375 358.15606689453125 370.76971435546875 C 365.306884765625 381.5119323730469 363.3529357910156 386.23016357421875 370.0877685546875 386.21490478515625" fill="rgb(12, 65, 102)" opacity="0.9735694" stroke="rgb(21, 1, 82)" stroke-linecap="round" stroke-linejoin="round" stroke-opacity="0.022372035" stroke-width="0.0"/>
    <path d="M 303.6302795410156 406.8716125488281 C 304.29718017578125 416.4297180175781 293.9670104980469 411.6145324707031 367.3370666503906 416.3175048828125 C 361.64801025390625 414.1524658203125 328.5290222167969 412.53326416015625 320.0422668457031 409.87213134765625 C 330.1925048828125 412.36273193359375 334.8016052246094 411.70135498046875 327.7164001464844 412.120849609375 C 317.62567138671875 411.1366271972656 322.11260986328125 414.6513366699219 303.6302795410156 406.8716125488281" fill="rgb(150, 105, 26)" opacity="0.89693004" stroke="rgb(177, 58, 139)" stroke-linecap="round" stroke-linejoin="round" stroke-opacity="0.7601197" stroke-width="0.0"/>
    <path d="M 554.4596557617188 438.9301452636719 C 556.028564453125 446.2301940917969 557.8648071289062 476.17181396484375 557.3458862304688 510.7591552734375 C 539.5267333984375 481.5316467285156 519.6033325195312 486.30731201171875 537.5361938476562 459.00482177734375 C 544.9168090820312 462.8334655761719 542.7181396484375 452.9073181152344 552.6930541992188 421.21234130859375 C 558.1780395507812 454.19000244140625 556.850830078125 467.8405456542969 554.4596557617188 438.9301452636719" fill="rgb(216, 227, 240)" opacity="0.7764987" stroke="rgb(25, 22, 243)" stroke-linecap="round" stroke-linejoin="round" stroke-opacity="0.4674198" stroke-width="0.0"/>
    <path d="M 212.66481018066406 480.5757141113281 C 211.94581604003906 473.50543212890625 210.39012145996094 479.11651611328125 214.9812469482422 476.2060546875 C 211.86508178710938 478.3662109375 208.1759796142578 478.6028137207031 198.6803741455078 461.8707275390625 C 187.7072296142578 424.7524719238281 193.43441772460938 463.6759033203125 203.0666961669922 470.8860168457031 C 207.21844482421875 474.497314453125 207.53439331054688 481.8746337890625 212.66481018066406 480.5757141113281" fill="rgb(254, 246, 110)" opacity="0.53315693" stroke="rgb(219, 141, 59)" stroke-linecap="round" stroke-linejoin="round" stroke-opacity="0.26088318" stroke-width="0.0"/>
    <path d="M 366.1244812011719 414.16290283203125 C 293.48956298828125 411.1702880859375 301.77435302734375 414.2362365722656 309.0086669921875 409.1112976074219 C 300.5071105957031 415.1812438964844 305.9920654296875 408.500244140625 296.090087890625 373.0854187011719 C 264.5624084472656 357.7110290527344 305.219970703125 359.3930358886719 303.5422668457031 388.9010009765625 C 314.915283203125 421.9288635253906 288.948974609375 402.08905029296875 366.1244812011719 414.16290283203125" fill="rgb(5, 0, 0)" opacity="0.7980295" stroke="rgb(191, 107, 172)" stroke-linecap="round" stroke-linejoin="round" stroke-opacity="0.63342905" stroke-width="0.0"/>
    <path d="M 308.5843811035156 302.30810546875 C 281.16656494140625 348.2724914550781 306.9605712890625 330.5865478515625 280.3233337402344 337.4145202636719 C 283.4369201660156 322.0449523925781 285.4133605957031 316.2687683105469 277.26806640625 327.4694519042969 C 279.4613342285156 320.0875549316406 284.83282470703125 322.97564697265625 285.52886962890625 322.3521423339844 C 282.1778564453125 328.420166015625 279.3545227050781 312.7548522949219 308.5843811035156 302.30810546875" fill="rgb(96, 147, 163)" opacity="1.0" stroke="rgb(203, 166, 148)" stroke-linecap="round" stroke-linejoin="round" stroke-opacity="0.9937587" stroke-width="0.0"/>
    <path d="M 427.5636901855469 352.924560546875 C 430.5569152832031 372.5920715332031 426.13177490234375 379.1512451171875 427.7058410644531 359.8653259277344 C 428.28509521484375 355.4854736328125 428.03704833984375 350.7336730957031 425.4352111816406 350.2728576660156 C 427.02764892578125 367.4541015625 428.5741882324219 365.60394287109375 423.22674560546875 376.849609375 C 423.29107666015625 355.31060791015625 423.1401672363281 344.7319641113281 427.5636901855469 352.924560546875" fill="rgb(228, 234, 246)" opacity="0.7448636" stroke="rgb(24, 163, 28)" stroke-linecap="round" stroke-linejoin="round" stroke-opacity="0.42265683" stroke-width="0.0"/>
    <path d="M 288.7550048828125 336.2071533203125 C 274.338134765625 340.23773193359375 268.7198486328125 352.47637939453125 266.9490966796875 359.3395690917969 C 267.9278869628906 340.0821533203125 271.46337890625 340.1893615722656 267.7918701171875 352.4552917480469 C 269.374267578125 336.6155090332031 269.53143310546875 335.6271057128906 269.2101135253906 346.97265625 C 277.1583251953125 344.9842529296875 261.57696533203125 329.7614440917969 288.7550048828125 336.2071533203125" fill="rgb(92, 146, 160)" opacity="0.8246927" stroke="rgb(225, 131, 47)" stroke-linecap="round" stroke-linejoin="round" stroke-opacity="0.583548" stroke-width="0.0"/>
    <path d="M 363.2318420410156 385.7159729003906 C 363.9395446777344 381.5323791503906 363.0675048828125 392.2188720703125 369.9516906738281 387.0457458496094 C 364.09210205078125 383.3248291015625 356.6800537109375 372.63555908203125 369.4784240722656 361.2992248535156 C 354.8263244628906 369.1341247558594 367.1186218261719 362.54400634765625 360.7554626464844 369.22247314453125 C 358.580322265625 379.1648864746094 362.1338195800781 382.3344421386719 363.2318420410156 385.7159729003906" fill="rgb(0, 0, 0)" opacity="0.77748585" stroke="rgb(95, 165, 61)" stroke-linecap="round" stroke-linejoin="round" stroke-opacity="0.39840314" stroke-width="0.0"/>
    <path d="M 548.0337524414062 398.6600036621094 C 516.1113891601562 395.65142822265625 540.4607543945312 392.6667785644531 505.3115234375 395.2156066894531 C 504.0533142089844 356.6490173339844 508.6543884277344 355.5931091308594 508.5281982421875 344.7718811035156 C 514.09375 351.480224609375 516.0072021484375 341.9424133300781 519.953369140625 344.7492980957031 C 520.30517578125 346.3436584472656 536.4729614257812 363.0805969238281 548.0337524414062 398.6600036621094" fill="rgb(217, 227, 239)" opacity="0.6423206" stroke="rgb(200, 35, 220)" stroke-linecap="round" stroke-linejoin="round" stroke-opacity="0.679127" stroke-width="0.0"/>
    <path d="M 381.9208679199219 379.5813903808594 C 370.2621765136719 360.7899475097656 371.9981994628906 368.3717956542969 361.2196350097656 366.3223571777344 C 362.5699768066406 390.9615783691406 359.1106262207031 383.14495849609375 364.8525085449219 367.61505126953125 C 356.1260070800781 365.6410827636719 376.45184326171875 355.76611328125 359.6136169433594 357.608154296875 C 377.458740234375 353.6695861816406 390.21954345703125 351.7192687988281 381.9208679199219 379.5813903808594" fill="rgb(9, 0, 29)" opacity="0.46519127" stroke="rgb(145, 81, 28)" stroke-linecap="round" stroke-linejoin="round" stroke-opacity="0.12488374" stroke-width="0.0"/>
    <path d="M 355.2373962402344 430.9315185546875 C 360.5020751953125 435.7712707519531 371.81610107421875 424.30694580078125 380.2702331542969 443.87493896484375 C 374.4629211425781 426.4433288574219 384.6332702636719 432.9688720703125 282.27734375 424.0714111328125 C 307.81573486328125 447.0689392089844 405.2959899902344 427.8869934082031 339.2795715332031 430.1156005859375 C 368.4911193847656 427.6590576171875 357.8658752441406 433.2721252441406 355.2373962402344 430.9315185546875" fill="rgb(1, 46, 39)" opacity="0.43223408" stroke="rgb(105, 176, 19)" stroke-linecap="round" stroke-linejoin="round" stroke-opacity="0.70400345" stroke-width="0.0"/>
    <path d="M 348.68707275390625 451.099609375 C 284.6610107421875 426.5844421386719 316.6270751953125 438.7747497558594 275.27252197265625 432.4084777832031 C 281.7926330566406 432.32244873046875 273.2166748046875 439.2000732421875 270.2701721191406 433.03173828125 C 272.40380859375 426.0094909667969 266.4633483886719 426.1060485839844 278.1151123046875 426.3644104003906 C 233.29940795898438 419.9485778808594 340.4402770996094 433.047607421875 348.68707275390625 451.099609375" fill="rgb(0, 0, 0)" opacity="0.6926026" stroke="rgb(9, 204, 62)" stroke-linecap="round" stroke-linejoin="round" stroke-opacity="0.9754387" stroke-width="0.0"/>
    <path d="M 199.3860626220703 476.6769714355469 C 189.41403198242188 445.9062194824219 184.1186981201172 433.69256591796875 181.6858673095703 465.970703125 C 193.79611206054688 462.0853576660156 191.4717559814453 463.6328430175781 182.62164306640625 463.375 C 183.49317932128906 435.28729248046875 180.0316162109375 423.9131774902344 176.3814239501953 460.89849853515625 C 185.45913696289062 465.7022705078125 182.65213012695312 478.8846435546875 199.3860626220703 476.6769714355469" fill="rgb(93, 148, 165)" opacity="0.9321882" stroke="rgb(189, 105, 112)" stroke-linecap="round" stroke-linejoin="round" stroke-opacity="0.796068" stroke-width="0.0"/>
    <path d="M 423.1386413574219 357.8514404296875 C 406.42926025390625 393.14739990234375 384.49749755859375 395.0897521972656 369.59912109375 387.84130859375 C 381.1726379394531 381.7938232421875 377.99298095703125 373.9933166503906 377.3988342285156 370.6596374511719 C 380.99298095703125 374.8763732910156 378.0846862792969 371.876953125 366.4034729003906 357.4895935058594 C 409.815185546875 349.18902587890625 425.608642578125 348.9034118652344 423.1386413574219 357.8514404296875" fill="rgb(39, 0, 34)" opacity="0.99363965" stroke="rgb(163, 6, 247)" stroke-linecap="round" stroke-linejoin="round" stroke-opacity="0.3158491" stroke-width="0.0"/>
    <path d="M 359.7169494628906 390.0174865722656 C 360.0264892578125 368.2926940917969 358.75048828125 375.64385986328125 360.50799560546875 384.8390197753906 C 359.73870849609375 376.4761047363281 357.17950439453125 377.36669921875 365.96832275390625 391.1939697265625 C 359.9541931152344 356.70892333984375 369.22698974609375 377.0682678222656 376.05621337890625 354.1903381347656 C 349.1472473144531 360.0308837890625 362.98382568359375 385.11785888671875 359.7169494628906 390.0174865722656" fill="rgb(3, 0, 33)" opacity="0.32760534" stroke="rgb(73, 183, 156)" stroke-linecap="round" stroke-linejoin="round" stroke-opacity="0.38655186" stroke-width="0.0"/>
    <path d="M 365.1839904785156 383.8296813964844 C 364.7950134277344 382.64056396484375 374.6351013183594 391.7811584472656 378.3135986328125 377.79083251953125 C 380.0154113769531 363.5517578125 378.2717590332031 383.1025695800781 369.4586486816406 388.19915771484375 C 381.0498046875 391.142333984375 395.36376953125 397.7532043457031 366.8466796875 388.028564453125 C 359.9303283691406 391.2169189453125 373.7796936035156 389.2320251464844 365.1839904785156 383.8296813964844" fill="rgb(154, 128, 132)" opacity="0.5425418" stroke="rgb(202, 195, 209)" stroke-linecap="round" stroke-linejoin="round" stroke-opacity="0.90098315" stroke-width="0.0"/>
    <path d="M 280.2315368652344 437.2520751953125 C 274.48272705078125 431.5614929199219 278.38665771484375 435.09619140625 316.4442138671875 437.90191650390625 C 281.5936279296875 429.947509765625 266.08197021484375 431.31170654296875 282.0863342285156 438.812744140625 C 282.0218505859375 438.64971923828125 280.7807312011719 438.4373779296875 276.56634521484375 433.1794738769531 C 278.64208984375 436.1897277832031 278.6472473144531 433.8404541015625 280.2315368652344 437.2520751953125" fill="rgb(224, 215, 111)" opacity="0.5269052" stroke="rgb(160, 94, 164)" stroke-linecap="round" stroke-linejoin="round" stroke-opacity="0.71143514" stroke-width="0.0"/>
    <path d="M 287.934814453125 360.528564453125 C 264.33740234375 334.00543212890625 269.6181640625 363.0823669433594 270.83148193359375 364.8735656738281 C 271.2406005859375 362.9376525878906 256.0497131347656 366.92388916015625 257.1970520019531 366.37078857421875 C 256.3272705078125 369.0885009765625 264.8995056152344 359.1604919433594 217.15066528320312 382.51397705078125 C 226.5074462890625 378.5155029296875 250.1075897216797 371.7949523925781 287.934814453125 360.528564453125" fill="rgb(248, 255, 249)" opacity="0.65057105" stroke="rgb(121, 154, 199)" stroke-linecap="round" stroke-linejoin="round" stroke-opacity="0.75525033" stroke-width="0.0"/>
    <path d="M 602.6578369140625 474.3919677734375 C 604.7837524414062 466.8150939941406 601.9136962890625 471.6243591308594 595.5842895507812 472.4898986816406 C 593.8174438476562 478.0117492675781 595.1753540039062 470.2787780761719 588.4769287109375 467.02386474609375 C 589.4954223632812 463.8380126953125 591.759521484375 461.8216552734375 598.078125 460.5246887207031 C 609.9439086914062 472.77374267578125 597.2399291992188 460.0870361328125 602.6578369140625 474.3919677734375" fill="rgb(92, 144, 164)" opacity="0.4008948" stroke="rgb(29, 216, 60)" stroke-linecap="round" stroke-linejoin="round" stroke-opacity="0.4142938" stroke-width="0.0"/>
    <path d="M 640.2399291992188 381.93682861328125 C 623.50732421875 389.5185241699219 628.7128295898438 393.09014892578125 615.1613159179688 399.3765869140625 C 628.6967163085938 385.36798095703125 627.9700317382812 384.7644348144531 614.12255859375 398.8731689453125 C 616.6824951171875 386.3786926269531 621.4176025390625 388.4159851074219 626.2142333984375 380.8818054199219 C 620.6007690429688 389.58660888671875 622.2754516601562 386.9875183105469 640.2399291992188 381.93682861328125" fill="rgb(102, 154, 177)" opacity="0.2564342" stroke="rgb(162, 43, 178)" stroke-linecap="round" stroke-linejoin="round" stroke-opacity="0.5782795" stroke-width="0.0"/>
    <path d="M 583.8583374023438 757.3912353515625 C 543.6752319335938 766.3928833007812 546.1715698242188 760.4444580078125 532.222412109375 763.5316162109375 C 542.291259765625 766.3353271484375 535.5870971679688 763.448486328125 517.3591918945312 757.78515625 C 528.3281860351562 749.1494750976562 534.1568603515625 751.802978515625 539.60791015625 749.2443237304688 C 540.9171752929688 760.7118530273438 548.4322509765625 745.1817016601562 583.8583374023438 757.3912353515625" fill="rgb(50, 6, 53)" opacity="0.923401" stroke="rgb(1, 201, 247)" stroke-linecap="round" stroke-linejoin="round" stroke-opacity="0.44212517" stroke-width="0.0"/>
    <path d="M 591.449951171875 313.85308837890625 C 597.7894287109375 312.86553955078125 593.1214599609375 313.77593994140625 592.4253540039062 319.3376770019531 C 587.0380249023438 321.4812927246094 587.3638916015625 315.63671875 591.3236694335938 310.9263916015625 C 586.8897705078125 313.7003479003906 588.454345703125 307.488037109375 591.9518432617188 304.7254638671875 C 594.6876220703125 307.3291931152344 594.965087890625 312.9396667480469 591.449951171875 313.85308837890625" fill="rgb(97, 151, 170)" opacity="0.65786684" stroke="rgb(61, 181, 164)" stroke-linecap="round" stroke-linejoin="round" stroke-opacity="0.7479025" stroke-width="0.0"/>
    <path d="M 465.8748474121094 206.34695434570312 C 462.1090087890625 201.39663696289062 460.122802734375 199.97802734375 461.4407958984375 207.8723602294922 C 454.6030578613281 206.71263122558594 456.6860656738281 205.9078369140625 453.54656982421875 199.80825805664062 C 456.9023132324219 201.1602020263672 459.3755798339844 197.06790161132812 457.29010009765625 190.7178955078125 C 464.0303955078125 193.8668975830078 464.43072509765625 193.54556274414062 465.8748474121094 206.34695434570312" fill="rgb(97, 147, 167)" opacity="0.57506526" stroke="rgb(66, 200, 177)" stroke-linecap="round" stroke-linejoin="round" stroke-opacity="0.09595889" stroke-width="0.0"/>
    <path d="M 540.3892822265625 691.3448486328125 C 542.2645874023438 692.7772216796875 541.548095703125 696.2645263671875 539.0935668945312 702.2969970703125 C 532.415283203125 698.63818359375 535.7747802734375 694.9447021484375 533.3997192382812 689.9898681640625 C 531.8217163085938 684.380126953125 535.1553344726562 682.2070922851562 538.4583129882812 688.8411865234375 C 540.56201171875 689.1349487304688 543.2070922851562 689.5785522460938 540.3892822265625 691.3448486328125" fill="rgb(50, 7, 50)" opacity="0.90725857" stroke="rgb(25, 238, 26)" stroke-linecap="round" stroke-linejoin="round" stroke-opacity="0.93469447" stroke-width="0.0"/>
    <path d="M 115.47274780273438 11.967937469482422 C 105.75304412841797 13.144153594970703 105.46859741210938 13.24867057800293 116.5111312866211 16.8829402923584 C 103.15794372558594 12.224940299987793 112.63077545166016 15.44778823852539 102.00785827636719 9.217309951782227 C 110.3244400024414 22.917247772216797 96.44216918945312 37.08746337890625 53.446102142333984 1.3327925205230713 C 132.31759643554688 -12.244869232177734 120.14440155029297 -3.8868606090545654 115.47274780273438 11.967937469482422" fill="rgb(102, 147, 165)" opacity="0.49608514" stroke="rgb(51, 217, 193)" stroke-linecap="round" stroke-linejoin="round" stroke-opacity="0.0946266" stroke-width="0.0"/>
    <path d="M 582.780517578125 708.1431274414062 C 577.791259765625 706.8248291015625 574.3776245117188 709.0743408203125 577.802001953125 720.154052734375 C 569.54345703125 707.3417358398438 567.288330078125 717.2364501953125 558.9951782226562 708.2257080078125 C 569.479248046875 694.5768432617188 570.7469482421875 698.2218627929688 576.35986328125 700.7952880859375 C 570.5469970703125 705.232177734375 574.6937866210938 707.9593505859375 582.780517578125 708.1431274414062" fill="rgb(53, 6, 54)" opacity="0.799353" stroke="rgb(244, 66, 104)" stroke-linecap="round" stroke-linejoin="round" stroke-opacity="0.82406" stroke-width="0.0"/>
    <path d="M 126.4642105102539 340.1653747558594 C 128.121337890625 344.8387756347656 126.11304473876953 345.9049377441406 122.30744934082031 345.54962158203125 C 123.79244232177734 339.7988586425781 119.61979675292969 347.7686462402344 114.50965881347656 340.1332702636719 C 122.43470764160156 336.2843017578125 115.9341049194336 339.6788635253906 123.5920639038086 336.98553466796875 C 126.57945251464844 334.91461181640625 127.9496078491211 337.1902160644531 126.4642105102539 340.1653747558594" fill="rgb(98, 150, 169)" opacity="0.8554964" stroke="rgb(155, 189, 250)" stroke-linecap="round" stroke-linejoin="round" stroke-opacity="0.2523355" stroke-width="0.0"/>
    <path d="M 250.04856872558594 731.5553588867188 C 262.53643798828125 783.3231811523438 281.9959716796875 776.8602294921875 242.2014923095703 779.8591918945312 C 191.70986938476562 780.3245239257812 172.68153381347656 796.8496704101562 159.04237365722656 757.7171020507812 C 170.18685913085938 689.7393798828125 190.65687561035156 681.4945678710938 196.5846405029297 689.0511474609375 C 230.2312774658203 765.7384033203125 231.0452880859375 746.6390991210938 250.04856872558594 731.5553588867188" fill="rgb(95, 146, 166)" opacity="0.90004253" stroke="rgb(195, 145, 94)" stroke-linecap="round" stroke-linejoin="round" stroke-opacity="0.8039385" stroke-width="0.0"/>
    <path d="M 713.6219482421875 30.748624801635742 C 704.6192626953125 66.39808654785156 679.1006469726562 74.87210083007812 596.98095703125 116.56733703613281 C 581.4203491210938 57.93592071533203 616.0875244140625 52.86528778076172 628.2651977539062 33.39468002319336 C 633.7901611328125 40.48737716674805 632.9154052734375 39.16106033325195 632.470458984375 27.797061920166016 C 636.098388671875 31.248706817626953 640.5125122070312 27.73426055908203 713.6219482421875 30.748624801635742" fill="rgb(97, 150, 170)" opacity="0.41862512" stroke="rgb(22, 90, 161)" stroke-linecap="round" stroke-linejoin="round" stroke-opacity="0.9688631" stroke-width="0.0"/>
    <path d="M 146.57577514648438 149.58908081054688 C 139.5333251953125 158.9870147705078 138.93113708496094 159.6656951904297 129.50575256347656 164.6182861328125 C 137.2526092529297 155.68846130371094 130.2421112060547 163.44125366210938 137.0186767578125 150.76055908203125 C 124.05252838134766 154.9441375732422 128.57029724121094 154.01455688476562 144.7142791748047 149.29782104492188 C 134.00167846679688 154.11959838867188 136.99452209472656 153.66534423828125 146.57577514648438 149.58908081054688" fill="rgb(99, 149, 170)" opacity="0.57459486" stroke="rgb(149, 200, 242)" stroke-linecap="round" stroke-linejoin="round" stroke-opacity="0.13011344" stroke-width="0.0"/>
    <path d="M 66.7869873046875 483.7463073730469 C 71.57820892333984 491.6679382324219 65.37446594238281 489.4626770019531 68.69092559814453 495.34765625 C 60.955482482910156 492.6283874511719 60.43113327026367 488.9111328125 59.17112731933594 481.1484069824219 C 34.33562469482422 483.8067626953125 26.648853302001953 473.8114318847656 40.76082229614258 463.18328857421875 C 77.89994049072266 475.70037841796875 74.52848052978516 474.659912109375 66.7869873046875 483.7463073730469" fill="rgb(96, 147, 167)" opacity="0.91762143" stroke="rgb(75, 91, 86)" stroke-linecap="round" stroke-linejoin="round" stroke-opacity="0.4801437" stroke-width="0.0"/>
    <path d="M 376.724365234375 438.0254821777344 C 329.0904846191406 422.8205261230469 341.6158447265625 454.88629150390625 353.60565185546875 448.2652893066406 C 354.7774658203125 426.8653869628906 340.9422302246094 433.65716552734375 342.664794921875 446.34124755859375 C 316.4996643066406 434.7423095703125 311.8853759765625 435.0615539550781 322.7263488769531 431.4441223144531 C 355.21173095703125 433.2475280761719 377.8154296875 431.1928405761719 376.724365234375 438.0254821777344" fill="rgb(18, 74, 99)" opacity="0.91939306" stroke="rgb(232, 66, 226)" stroke-linecap="round" stroke-linejoin="round" stroke-opacity="0.5689348" stroke-width="0.0"/>
    <path d="M 542.481689453125 621.171875 C 536.46826171875 621.0691528320312 550.3941650390625 626.265625 541.9478149414062 638.9791870117188 C 528.0144653320312 623.504638671875 529.2020874023438 625.67041015625 522.4931640625 620.30029296875 C 525.7320556640625 609.9989624023438 527.0508422851562 609.69384765625 538.6224365234375 611.4873657226562 C 532.8287963867188 618.91064453125 533.8713989257812 620.572021484375 542.481689453125 621.171875" fill="rgb(52, 6, 53)" opacity="0.8713022" stroke="rgb(154, 208, 17)" stroke-linecap="round" stroke-linejoin="round" stroke-opacity="0.95171696" stroke-width="0.0"/>
    <path d="M 482.7480163574219 179.2489471435547 C 463.1890563964844 163.10711669921875 465.0160217285156 165.06503295898438 485.406494140625 182.32806396484375 C 463.5629577636719 174.85154724121094 470.1557922363281 166.97457885742188 456.2305603027344 157.94900512695312 C 466.6662292480469 164.45497131347656 473.8861083984375 162.0983123779297 467.554443359375 148.90614318847656 C 466.8529968261719 165.59913635253906 478.3196105957031 151.1569061279297 482.7480163574219 179.2489471435547" fill="rgb(97, 150, 171)" opacity="0.6263563" stroke="rgb(6, 4, 205)" stroke-linecap="round" stroke-linejoin="round" stroke-opacity="0.6982334" stroke-width="0.0"/>
    <path d="M 119.78724670410156 234.65731811523438 C 89.18820190429688 253.81375122070312 73.46641540527344 243.91465759277344 87.14144897460938 226.53915405273438 C 75.77572631835938 220.09300231933594 83.47445678710938 224.4607391357422 68.29365539550781 215.87254333496094 C 83.0875473022461 210.13763427734375 70.974853515625 208.0942840576172 85.36802673339844 187.3530731201172 C 94.82039642333984 206.4679718017578 97.89470672607422 201.20257568359375 119.78724670410156 234.65731811523438" fill="rgb(96, 150, 171)" opacity="0.47310963" stroke="rgb(13, 237, 205)" stroke-linecap="round" stroke-linejoin="round" stroke-opacity="0.5818342" stroke-width="0.0"/>
    <path d="M 398.6739501953125 384.71807861328125 C 374.89154052734375 384.4444580078125 384.7580871582031 384.68511962890625 385.4708251953125 388.0087890625 C 377.532470703125 388.0044250488281 383.9488525390625 387.98583984375 376.29803466796875 387.9915466308594 C 374.16259765625 383.36920166015625 383.6180419921875 388.1365966796875 381.8509826660156 372.3448791503906 C 384.6473388671875 385.9502868652344 387.5108642578125 377.4949645996094 398.6739501953125 384.71807861328125" fill="rgb(42, 0, 38)" opacity="0.94214296" stroke="rgb(70, 173, 230)" stroke-linecap="round" stroke-linejoin="round" stroke-opacity="0.8798826" stroke-width="0.0"/>
    <path d="M 122.3541488647461 156.85348510742188 C 122.03107452392578 165.31097412109375 117.20560455322266 158.05409240722656 116.32545471191406 169.60171508789062 C 111.26322174072266 160.16697692871094 113.7829360961914 164.19314575195312 109.35575103759766 155.7555694580078 C 111.27348327636719 157.24037170410156 113.78884887695312 154.31056213378906 117.93809509277344 153.2167510986328 C 119.7223129272461 153.61337280273438 122.36066436767578 155.7954559326172 122.3541488647461 156.85348510742188" fill="rgb(96, 149, 168)" opacity="0.68199253" stroke="rgb(208, 124, 83)" stroke-linecap="round" stroke-linejoin="round" stroke-opacity="0.730382" stroke-width="0.0"/>
    <path d="M 598.5178833007812 484.6041564941406 C 597.8294067382812 484.2763977050781 594.3219604492188 488.4786682128906 593.6655883789062 490.34503173828125 C 594.7669677734375 488.1571044921875 588.5448608398438 486.0948486328125 587.971435546875 480.855712890625 C 596.5272216796875 485.1007080078125 597.1766967773438 484.9576110839844 588.646484375 480.3301086425781 C 598.485107421875 476.34234619140625 592.2572631835938 482.46893310546875 598.5178833007812 484.6041564941406" fill="rgb(100, 151, 175)" opacity="0.47942924" stroke="rgb(113, 96, 155)" stroke-linecap="round" stroke-linejoin="round" stroke-opacity="0.8015438" stroke-width="0.0"/>
    <path d="M 762.6738891601562 338.2765197753906 C 737.3001708984375 225.4630126953125 765.9918212890625 170.98928833007812 751.5454711914062 141.02859497070312 C 740.3963012695312 144.12059020996094 751.23583984375 141.11431884765625 736.1543579101562 150.56991577148438 C 776.0718994140625 126.66634368896484 731.5384521484375 84.30513763427734 762.7938232421875 -38.67152786254883 C 762.6009521484375 57.58377456665039 762.7630004882812 100.35676574707031 762.6738891601562 338.2765197753906" fill="rgb(92, 146, 166)" opacity="1.0" stroke="rgb(9, 179, 192)" stroke-linecap="round" stroke-linejoin="round" stroke-opacity="0.73051995" stroke-width="0.0"/>
    <path d="M 420.61724853515625 618.8250122070312 C 409.2682189941406 617.9690551757812 410.2136535644531 619.075927734375 413.9968566894531 628.27978515625 C 409.5867614746094 618.3208618164062 409.098876953125 622.3825073242188 399.7026062011719 624.0313110351562 C 409.8873596191406 618.3748168945312 406.3852844238281 617.5869750976562 411.0013732910156 607.1417846679688 C 422.9105529785156 609.708740234375 419.8440246582031 610.7109375 420.61724853515625 618.8250122070312" fill="rgb(51, 5, 48)" opacity="0.89946735" stroke="rgb(12, 241, 9)" stroke-linecap="round" stroke-linejoin="round" stroke-opacity="0.6951893" stroke-width="0.0"/>
    <path d="M 641.1553955078125 15.197746276855469 C 636.7418823242188 17.10004997253418 635.3934326171875 17.325349807739258 637.98046875 13.8794527053833 C 631.3861083984375 16.61396026611328 634.494384765625 10.558412551879883 630.2473754882812 8.96780014038086 C 630.649169921875 14.083223342895508 633.6286010742188 12.196773529052734 633.5399169921875 9.100728988647461 C 639.5896606445312 8.853625297546387 636.0165405273438 10.816540718078613 641.1553955078125 15.197746276855469" fill="rgb(98, 149, 166)" opacity="0.71235925" stroke="rgb(148, 123, 43)" stroke-linecap="round" stroke-linejoin="round" stroke-opacity="0.40124664" stroke-width="0.0"/>
    <path d="M 764.39892578125 719.3304443359375 C 744.9164428710938 699.7938842773438 741.2697143554688 696.2022705078125 745.9688720703125 720.0341186523438 C 752.1844482421875 705.1444702148438 740.9971313476562 705.5375366210938 731.6373901367188 700.1236572265625 C 730.8988037109375 692.051025390625 736.1199951171875 691.075439453125 749.00537109375 693.4041137695312 C 749.38232421875 698.2769775390625 757.9819946289062 688.8850708007812 764.39892578125 719.3304443359375" fill="rgb(52, 4, 52)" opacity="0.8798131" stroke="rgb(213, 167, 156)" stroke-linecap="round" stroke-linejoin="round" stroke-opacity="0.7575792" stroke-width="0.0"/>
    <path d="M 744.9703369140625 500.1971740722656 C 739.2092895507812 505.0003662109375 734.905029296875 508.62554931640625 742.021484375 509.8437194824219 C 726.05224609375 508.3309326171875 735.1495361328125 508.9678039550781 722.7340698242188 498.2650451660156 C 731.2117309570312 498.69036865234375 737.9639282226562 499.4284362792969 733.2410888671875 500.76751708984375 C 739.2544555664062 498.1674499511719 736.3470458984375 502.9034118652344 744.9703369140625 500.1971740722656" fill="rgb(94, 145, 164)" opacity="0.50986737" stroke="rgb(235, 69, 118)" stroke-linecap="round" stroke-linejoin="round" stroke-opacity="0.17410101" stroke-width="0.0"/>
    <path d="M 207.53890991210938 654.6720581054688 C 186.724853515625 775.9700927734375 187.9454803466797 781.7542724609375 42.24626159667969 787.6119384765625 C -13.416402816772461 845.8449096679688 6.816110134124756 915.9646606445312 2.855480194091797 266.2572937011719 C 100.4565200805664 478.1018981933594 12.718019485473633 566.701171875 50.39802932739258 633.261474609375 C 180.24159240722656 680.1559448242188 197.4258575439453 657.7301025390625 207.53890991210938 654.6720581054688" fill="rgb(100, 148, 168)" opacity="0.9537438" stroke="rgb(174, 106, 71)" stroke-linecap="round" stroke-linejoin="round" stroke-opacity="0.83334565" stroke-width="0.0"/>
    <path d="M 406.6832275390625 654.1098022460938 C 398.8971862792969 659.7189331054688 406.8517761230469 655.083740234375 394.9336242675781 664.0137939453125 C 401.7244873046875 655.2158203125 396.9964294433594 656.6844482421875 386.3705139160156 657.3240966796875 C 392.97467041015625 651.5496215820312 395.7463684082031 652.0034790039062 398.794189453125 653.209228515625 C 401.3567199707031 652.3141479492188 402.55364990234375 653.6348266601562 406.6832275390625 654.1098022460938" fill="rgb(52, 6, 52)" opacity="0.9060644" stroke="rgb(215, 163, 5)" stroke-linecap="round" stroke-linejoin="round" stroke-opacity="0.4411598" stroke-width="0.0"/>
    <path d="M 362.2752685546875 379.4786071777344 C 364.2669677734375 369.2942199707031 362.9035949707031 377.8837585449219 363.2480163574219 373.4031982421875 C 363.65130615234375 376.8454895019531 362.3018798828125 370.265625 362.931884765625 375.3408203125 C 367.5287170410156 387.2855224609375 368.00030517578125 388.2967834472656 363.5157775878906 380.7632751464844 C 363.54302978515625 378.17425537109375 363.45416259765625 373.9436340332031 362.2752685546875 379.4786071777344" fill="rgb(125, 142, 135)" opacity="0.6958048" stroke="rgb(201, 74, 187)" stroke-linecap="round" stroke-linejoin="round" stroke-opacity="0.48942572" stroke-width="0.0"/>
    <path d="M 529.9932250976562 595.8679809570312 C 530.2842407226562 602.2682495117188 528.6814575195312 599.3807373046875 526.5623168945312 594.461181640625 C 529.6139526367188 589.0778198242188 527.0094604492188 583.2894287109375 527.888671875 574.05615234375 C 528.9700927734375 604.1788330078125 526.4586181640625 592.2498168945312 527.9832763671875 546.0592041015625 C 527.5289916992188 555.2271118164062 530.6757202148438 566.937744140625 529.9932250976562 595.8679809570312" fill="rgb(252, 253, 253)" opacity="0.9017335" stroke="rgb(12, 157, 219)" stroke-linecap="round" stroke-linejoin="round" stroke-opacity="0.7558568" stroke-width="0.0"/>
    <path d="M 540.3477172851562 745.727294921875 C 514.5197143554688 751.1644897460938 528.5553588867188 750.5504150390625 520.9110107421875 758.4758911132812 C 513.2908935546875 761.3381958007812 515.9942016601562 754.515625 520.2247924804688 752.5303344726562 C 516.0218505859375 748.5597534179688 517.4566650390625 746.946044921875 518.9133911132812 732.6898193359375 C 521.1822509765625 749.1143798828125 521.7473754882812 742.880126953125 540.3477172851562 745.727294921875" fill="rgb(51, 6, 54)" opacity="0.9073669" stroke="rgb(141, 114, 231)" stroke-linecap="round" stroke-linejoin="round" stroke-opacity="0.60202366" stroke-width="0.0"/>
    <path d="M 433.3844909667969 700.193603515625 C 430.7092590332031 697.5472412109375 427.4293212890625 699.224365234375 427.4781494140625 711.7993774414062 C 430.1490783691406 701.9557495117188 416.1507568359375 709.7708740234375 411.16949462890625 696.0903930664062 C 418.14013671875 681.3846435546875 422.6502685546875 686.5913696289062 432.0498352050781 694.9843139648438 C 425.6736755371094 693.7537841796875 427.7326354980469 694.5064086914062 433.3844909667969 700.193603515625" fill="rgb(53, 6, 54)" opacity="0.8669727" stroke="rgb(131, 34, 206)" stroke-linecap="round" stroke-linejoin="round" stroke-opacity="0.738122" stroke-width="0.0"/>
    <path d="M 139.46444702148438 243.71517944335938 C 126.8134536743164 257.4395751953125 127.20572662353516 252.93563842773438 121.67426300048828 236.42974853515625 C 121.2281265258789 249.09823608398438 121.02204895019531 244.8679962158203 112.96187591552734 238.54721069335938 C 127.35429382324219 240.3438720703125 121.1272201538086 238.6730194091797 99.80623626708984 201.48904418945312 C 138.77552795410156 215.0884552001953 117.86759948730469 235.26663208007812 139.46444702148438 243.71517944335938" fill="rgb(95, 148, 171)" opacity="0.48177952" stroke="rgb(147, 86, 208)" stroke-linecap="round" stroke-linejoin="round" stroke-opacity="0.3549631" stroke-width="0.0"/>
    <path d="M 338.5216979980469 108.34162139892578 C 337.8518371582031 110.84162139892578 336.0216979980469 112.67174530029297 333.5216979980469 113.34162139892578 C 331.0216979980469 112.67174530029297 329.1915588378906 110.84162139892578 328.5216979980469 108.34162139892578 C 329.1915588378906 105.84162139892578 331.0216979980469 104.0114974975586 333.5216979980469 103.34162139892578 C 336.0216979980469 104.0114974975586 337.8518371582031 105.84162139892578 338.5216979980469 108.34162139892578" fill="rgb(98, 146, 162)" opacity="1.0" stroke="rgb(225, 230, 144)" stroke-linecap="round" stroke-linejoin="round" stroke-opacity="0.4895661" stroke-width="0.0"/>
    <path d="M 372.03369140625 81.84306335449219 C 371.36383056640625 84.34306335449219 369.53369140625 86.17318725585938 367.03369140625 86.84306335449219 C 364.53369140625 86.17318725585938 362.70355224609375 84.34306335449219 362.03369140625 81.84306335449219 C 362.70355224609375 79.34306335449219 364.53369140625 77.512939453125 367.03369140625 76.84306335449219 C 369.53369140625 77.512939453125 371.36383056640625 79.34306335449219 372.03369140625 81.84306335449219" fill="rgb(97, 150, 169)" opacity="1.0" stroke="rgb(48, 69, 229)" stroke-linecap="round" stroke-linejoin="round" stroke-opacity="0.45647445" stroke-width="0.0"/>
    <path d="M 193.32418823242188 186.76412963867188 C 192.65431213378906 189.26412963867188 190.82418823242188 191.09425354003906 188.32418823242188 191.76412963867188 C 185.82418823242188 191.09425354003906 183.9940643310547 189.26412963867188 183.32418823242188 186.76412963867188 C 183.9940643310547 184.26412963867188 185.82418823242188 182.4340057373047 188.32418823242188 181.76412963867188 C 190.82418823242188 182.4340057373047 192.65431213378906 184.26412963867188 193.32418823242188 186.76412963867188" fill="rgb(97, 149, 168)" opacity="1.0" stroke="rgb(200, 124, 31)" stroke-linecap="round" stroke-linejoin="round" stroke-opacity="0.46860373" stroke-width="0.0"/>
    <path d="M 765.6118774414062 130.14511108398438 C 764.9420166015625 132.64511108398438 763.1118774414062 134.47523498535156 760.6118774414062 135.14511108398438 C 758.1118774414062 134.47523498535156 756.28173828125 132.64511108398438 755.6118774414062 130.14511108398438 C 756.28173828125 127.64511108398438 758.1118774414062 125.81498718261719 760.6118774414062 125.14511108398438 C 763.1118774414062 125.81498718261719 764.9420166015625 127.64511108398438 765.6118774414062 130.14511108398438" fill="rgb(91, 144, 166)" opacity="1.0" stroke="rgb(189, 168, 21)" stroke-linecap="round" stroke-linejoin="round" stroke-opacity="0.24374104" stroke-width="0.0"/>
    <path d="M 445.9693298339844 694.2587280273438 C 445.2994689941406 696.7587280273438 443.4693298339844 698.5888671875 440.9693298339844 699.2587280273438 C 438.4693298339844 698.5888671875 436.6391906738281 696.7587280273438 435.9693298339844 694.2587280273438 C 436.6391906738281 691.7587280273438 438.4693298339844 689.9285888671875 440.9693298339844 689.2587280273438 C 443.4693298339844 689.9285888671875 445.2994689941406 691.7587280273438 445.9693298339844 694.2587280273438" fill="rgb(52, 5, 51)" opacity="1.0" stroke="rgb(251, 186, 83)" stroke-linecap="round" stroke-linejoin="round" stroke-opacity="0.36514845" stroke-width="0.0"/>
    <path d="M 755.5443725585938 484.20556640625 C 754.87451171875 486.70556640625 753.0443725585938 488.53570556640625 750.5443725585938 489.20556640625 C 748.0443725585938 488.53570556640625 746.2142333984375 486.70556640625 745.5443725585938 484.20556640625 C 746.2142333984375 481.70556640625 748.0443725585938 479.87542724609375 750.5443725585938 479.20556640625 C 753.0443725585938 479.87542724609375 754.87451171875 481.70556640625 755.5443725585938 484.20556640625" fill="rgb(97, 148, 168)" opacity="1.0" stroke="rgb(47, 186, 151)" stroke-linecap="round" stroke-linejoin="round" stroke-opacity="0.7757877" stroke-width="0.0"/>
    <path d="M 424.7543029785156 24.810571670532227 C 424.0844421386719 27.310571670532227 422.2543029785156 29.14069938659668 419.7543029785156 29.810571670532227 C 417.2543029785156 29.14069938659668 415.4241638183594 27.310571670532227 414.7543029785156 24.810571670532227 C 415.4241638183594 22.310571670532227 417.2543029785156 20.480443954467773 419.7543029785156 19.810571670532227 C 422.2543029785156 20.480443954467773 424.0844421386719 22.310571670532227 424.7543029785156 24.810571670532227" fill="rgb(100, 151, 172)" opacity="1.0" stroke="rgb(79, 33, 154)" stroke-linecap="round" stroke-linejoin="round" stroke-opacity="0.22325519" stroke-width="0.0"/>
    <path d="M 431.51153564453125 443.5276794433594 C 430.8416748046875 446.0276794433594 429.01153564453125 447.8578186035156 426.51153564453125 448.5276794433594 C 424.01153564453125 447.8578186035156 422.181396484375 446.0276794433594 421.51153564453125 443.5276794433594 C 422.181396484375 441.0276794433594 424.01153564453125 439.1975402832031 426.51153564453125 438.5276794433594 C 429.01153564453125 439.1975402832031 430.8416748046875 441.0276794433594 431.51153564453125 443.5276794433594" fill="rgb(215, 226, 237)" opacity="1.0" stroke="rgb(60, 236, 224)" stroke-linecap="round" stroke-linejoin="round" stroke-opacity="0.2918937" stroke-width="0.0"/>
    <path d="M 691.5606689453125 217.33201599121094 C 690.8908081054688 219.83201599121094 689.0606689453125 221.66213989257812 686.5606689453125 222.33201599121094 C 684.0606689453125 221.66213989257812 682.2305297851562 219.83201599121094 681.5606689453125 217.33201599121094 C 682.2305297851562 214.83201599121094 684.0606689453125 213.00189208984375 686.5606689453125 212.33201599121094 C 689.0606689453125 213.00189208984375 690.8908081054688 214.83201599121094 691.5606689453125 217.33201599121094" fill="rgb(103, 151, 171)" opacity="1.0" stroke="rgb(172, 135, 173)" stroke-linecap="round" stroke-linejoin="round" stroke-opacity="0.023386307" stroke-width="0.0"/>
    <path d="M 499.2414855957031 454.7529602050781 C 498.5716247558594 457.2529602050781 496.7414855957031 459.0830993652344 494.2414855957031 459.7529602050781 C 491.7414855957031 459.0830993652344 489.9113464355469 457.2529602050781 489.2414855957031 454.7529602050781 C 489.9113464355469 452.2529602050781 491.7414855957031 450.4228210449219 494.2414855957031 449.7529602050781 C 496.7414855957031 450.4228210449219 498.5716247558594 452.2529602050781 499.2414855957031 454.7529602050781" fill="rgb(214, 224, 235)" opacity="1.0" stroke="rgb(120, 136, 111)" stroke-linecap="round" stroke-linejoin="round" stroke-opacity="0.010133673" stroke-width="0.0"/>
    <path d="M 202.7677001953125 78.8764877319336 C 202.0978240966797 81.3764877319336 200.2677001953125 83.20661163330078 197.7677001953125 83.8764877319336 C 195.2677001953125 83.20661163330078 193.4375762939453 81.3764877319336 192.7677001953125 78.8764877319336 C 193.4375762939453 76.3764877319336 195.2677001953125 74.5463638305664 197.7677001953125 73.8764877319336 C 200.2677001953125 74.5463638305664 202.0978240966797 76.3764877319336 202.7677001953125 78.8764877319336" fill="rgb(96, 150, 169)" opacity="1.0" stroke="rgb(44, 135, 254)" stroke-linecap="round" stroke-linejoin="round" stroke-opacity="0.1264931" stroke-width="0.0"/>
    <path d="M 202.0488739013672 251.27780151367188 C 201.37899780273438 253.77780151367188 199.5488739013672 255.60792541503906 197.0488739013672 256.2778015136719 C 194.5488739013672 255.60792541503906 192.71875 253.77780151367188 192.0488739013672 251.27780151367188 C 192.71875 248.77780151367188 194.5488739013672 246.9476776123047 197.0488739013672 246.27780151367188 C 199.5488739013672 246.9476776123047 201.37899780273438 248.77780151367188 202.0488739013672 251.27780151367188" fill="rgb(100, 150, 169)" opacity="1.0" stroke="rgb(146, 18, 36)" stroke-linecap="round" stroke-linejoin="round" stroke-opacity="0.22661033" stroke-width="0.0"/>
    <path d="M 671.126220703125 271.363525390625 C 670.4563598632812 273.863525390625 668.626220703125 275.69366455078125 666.126220703125 276.363525390625 C 663.626220703125 275.69366455078125 661.7960815429688 273.863525390625 661.126220703125 271.363525390625 C 661.7960815429688 268.863525390625 663.626220703125 267.03338623046875 666.126220703125 266.363525390625 C 668.626220703125 267.03338623046875 670.4563598632812 268.863525390625 671.126220703125 271.363525390625" fill="rgb(100, 152, 170)" opacity="1.0" stroke="rgb(53, 73, 232)" stroke-linecap="round" stroke-linejoin="round" stroke-opacity="0.012905164" stroke-width="0.0"/>
    <path d="M 557.0191040039062 742.5598754882812 C 556.3492431640625 745.0598754882812 554.5191040039062 746.8900146484375 552.0191040039062 747.5598754882812 C 549.5191040039062 746.8900146484375 547.68896484375 745.0598754882812 547.0191040039062 742.5598754882812 C 547.68896484375 740.0598754882812 549.5191040039062 738.229736328125 552.0191040039062 737.5598754882812 C 554.5191040039062 738.229736328125 556.3492431640625 740.0598754882812 557.0191040039062 742.5598754882812" fill="rgb(54, 6, 55)" opacity="1.0" stroke="rgb(132, 194, 123)" stroke-linecap="round" stroke-linejoin="round" stroke-opacity="0.13744587" stroke-width="0.0"/>
    <path d="M 258.1745910644531 635.7092895507812 C 257.5047302246094 638.2092895507812 255.67459106445312 640.0394287109375 253.17459106445312 640.7092895507812 C 250.67459106445312 640.0394287109375 248.84446716308594 638.2092895507812 248.17459106445312 635.7092895507812 C 248.84446716308594 633.2092895507812 250.67459106445312 631.379150390625 253.17459106445312 630.7092895507812 C 255.67459106445312 631.379150390625 257.5047302246094 633.2092895507812 258.1745910644531 635.7092895507812" fill="rgb(97, 147, 170)" opacity="1.0" stroke="rgb(10, 209, 46)" stroke-linecap="round" stroke-linejoin="round" stroke-opacity="0.14247428" stroke-width="0.0"/>
    <path d="M 185.06101989746094 344.1673278808594 C 184.39114379882812 346.6673278808594 182.56101989746094 348.4974670410156 180.06101989746094 349.1673278808594 C 177.56101989746094 348.4974670410156 175.73089599609375 346.6673278808594 175.06101989746094 344.1673278808594 C 175.73089599609375 341.6673278808594 177.56101989746094 339.8371887207031 180.06101989746094 339.1673278808594 C 182.56101989746094 339.8371887207031 184.39114379882812 341.6673278808594 185.06101989746094 344.1673278808594" fill="rgb(101, 149, 168)" opacity="1.0" stroke="rgb(243, 207, 86)" stroke-linecap="round" stroke-linejoin="round" stroke-opacity="0.06679997" stroke-width="0.0"/>
    <path d="M 470.1610412597656 317.02410888671875 C 469.4911804199219 319.52410888671875 467.6610412597656 321.354248046875 465.1610412597656 322.02410888671875 C 462.6610412597656 321.354248046875 460.8309020996094 319.52410888671875 460.1610412597656 317.02410888671875 C 460.8309020996094 314.52410888671875 462.6610412597656 312.6939697265625 465.1610412597656 312.02410888671875 C 467.6610412597656 312.6939697265625 469.4911804199219 314.52410888671875 470.1610412597656 317.02410888671875" fill="rgb(255, 255, 245)" opacity="1.0" stroke="rgb(206, 72, 247)" stroke-linecap="round" stroke-linejoin="round" stroke-opacity="0.08724409" stroke-width="0.0"/>
    <path d="M 716.0071411132812 246.164306640625 C 715.3372802734375 248.664306640625 713.5071411132812 250.4944305419922 711.0071411132812 251.164306640625 C 708.5071411132812 250.4944305419922 706.677001953125 248.664306640625 706.0071411132812 246.164306640625 C 706.677001953125 243.664306640625 708.5071411132812 241.8341827392578 711.0071411132812 241.164306640625 C 713.5071411132812 241.8341827392578 715.3372802734375 243.664306640625 716.0071411132812 246.164306640625" fill="rgb(100, 149, 170)" opacity="1.0" stroke="rgb(19, 82, 158)" stroke-linecap="round" stroke-linejoin="round" stroke-opacity="0.9753281" stroke-width="0.0"/>
    <path d="M 525.5634155273438 152.25439453125 C 524.8935546875 154.75439453125 523.0634155273438 156.5845184326172 520.5634155273438 157.25439453125 C 518.0634155273438 156.5845184326172 516.2332763671875 154.75439453125 515.5634155273438 152.25439453125 C 516.2332763671875 149.75439453125 518.0634155273438 147.9242706298828 520.5634155273438 147.25439453125 C 523.0634155273438 147.9242706298828 524.8935546875 149.75439453125 525.5634155273438 152.25439453125" fill="rgb(99, 150, 170)" opacity="1.0" stroke="rgb(42, 244, 142)" stroke-linecap="round" stroke-linejoin="round" stroke-opacity="0.7386491" stroke-width="0.0"/>
    <path d="M 678.1565551757812 351.64898681640625 C 677.4866943359375 354.14898681640625 675.6565551757812 355.9791259765625 673.1565551757812 356.64898681640625 C 670.6565551757812 355.9791259765625 668.826416015625 354.14898681640625 668.1565551757812 351.64898681640625 C 668.826416015625 349.14898681640625 670.6565551757812 347.31884765625 673.1565551757812 346.64898681640625 C 675.6565551757812 347.31884765625 677.4866943359375 349.14898681640625 678.1565551757812 351.64898681640625" fill="rgb(99, 148, 167)" opacity="1.0" stroke="rgb(114, 127, 109)" stroke-linecap="round" stroke-linejoin="round" stroke-opacity="0.036749758" stroke-width="0.0"/>
    <path d="M 331.9113464355469 326.4027404785156 C 331.2414855957031 328.9027404785156 329.4113464355469 330.7328796386719 326.9113464355469 331.4027404785156 C 324.4113464355469 330.7328796386719 322.5812072753906 328.9027404785156 321.9113464355469 326.4027404785156 C 322.5812072753906 323.9027404785156 324.4113464355469 322.0726013183594 326.9113464355469 321.4027404785156 C 329.4113464355469 322.0726013183594 331.2414855957031 323.9027404785156 331.9113464355469 326.4027404785156" fill="rgb(255, 255, 246)" opacity="1.0" stroke="rgb(252, 31, 56)" stroke-linecap="round" stroke-linejoin="round" stroke-opacity="0.067564145" stroke-width="0.0"/>
    <path d="M 657.6785278320312 204.9215545654297 C 657.0086669921875 207.4215545654297 655.1785278320312 209.25167846679688 652.6785278320312 209.9215545654297 C 650.1785278320312 209.25167846679688 648.348388671875 207.4215545654297 647.6785278320312 204.9215545654297 C 648.348388671875 202.4215545654297 650.1785278320312 200.5914306640625 652.6785278320312 199.9215545654297 C 655.1785278320312 200.5914306640625 657.0086669921875 202.4215545654297 657.6785278320312 204.9215545654297" fill="rgb(98, 148, 167)" opacity="1.0" stroke="rgb(156, 220, 12)" stroke-linecap="round" stroke-linejoin="round" stroke-opacity="0.67905605" stroke-width="0.0"/>
    <path d="M 634.4562377929688 751.2196044921875 C 633.786376953125 753.7196044921875 631.9562377929688 755.5497436523438 629.4562377929688 756.2196044921875 C 626.9562377929688 755.5497436523438 625.1260986328125 753.7196044921875 624.4562377929688 751.2196044921875 C 625.1260986328125 748.7196044921875 626.9562377929688 746.8894653320312 629.4562377929688 746.2196044921875 C 631.9562377929688 746.8894653320312 633.786376953125 748.7196044921875 634.4562377929688 751.2196044921875" fill="rgb(54, 5, 51)" opacity="1.0" stroke="rgb(49, 167, 107)" stroke-linecap="round" stroke-linejoin="round" stroke-opacity="0.5282748" stroke-width="0.0"/>
    <path d="M 586.7756958007812 303.346435546875 C 586.1058349609375 305.846435546875 584.2756958007812 307.67657470703125 581.7756958007812 308.346435546875 C 579.2756958007812 307.67657470703125 577.445556640625 305.846435546875 576.7756958007812 303.346435546875 C 577.445556640625 300.846435546875 579.2756958007812 299.01629638671875 581.7756958007812 298.346435546875 C 584.2756958007812 299.01629638671875 586.1058349609375 300.846435546875 586.7756958007812 303.346435546875" fill="rgb(103, 150, 169)" opacity="1.0" stroke="rgb(0, 11, 219)" stroke-linecap="round" stroke-linejoin="round" stroke-opacity="0.76776445" stroke-width="0.0"/>
    <path d="M 207.5463409423828 303.73779296875 C 206.87646484375 306.23779296875 205.0463409423828 308.06793212890625 202.5463409423828 308.73779296875 C 200.0463409423828 308.06793212890625 198.21621704101562 306.23779296875 197.5463409423828 303.73779296875 C 198.21621704101562 301.23779296875 200.0463409423828 299.40765380859375 202.5463409423828 298.73779296875 C 205.0463409423828 299.40765380859375 206.87646484375 301.23779296875 207.5463409423828 303.73779296875" fill="rgb(101, 153, 168)" opacity="1.0" stroke="rgb(167, 29, 192)" stroke-linecap="round" stroke-linejoin="round" stroke-opacity="0.14579675" stroke-width="0.0"/>
    <path d="M 521.6919555664062 491.393310546875 C 521.0220947265625 493.893310546875 519.1919555664062 495.72344970703125 516.6919555664062 496.393310546875 C 514.1919555664062 495.72344970703125 512.36181640625 493.893310546875 511.69195556640625 491.393310546875 C 512.36181640625 488.893310546875 514.1919555664062 487.06317138671875 516.6919555664062 486.393310546875 C 519.1919555664062 487.06317138671875 521.0220947265625 488.893310546875 521.6919555664062 491.393310546875" fill="rgb(218, 227, 239)" opacity="1.0" stroke="rgb(237, 181, 3)" stroke-linecap="round" stroke-linejoin="round" stroke-opacity="0.7560975" stroke-width="0.0"/>
    <path d="M 301.9609069824219 748.2578735351562 C 301.2910461425781 750.7578735351562 299.4609069824219 752.5880126953125 296.9609069824219 753.2578735351562 C 294.4609069824219 752.5880126953125 292.6307678222656 750.7578735351562 291.9609069824219 748.2578735351562 C 292.6307678222656 745.7578735351562 294.4609069824219 743.927734375 296.9609069824219 743.2578735351562 C 299.4609069824219 743.927734375 301.2910461425781 745.7578735351562 301.9609069824219 748.2578735351562" fill="rgb(53, 7, 53)" opacity="1.0" stroke="rgb(91, 79, 147)" stroke-linecap="round" stroke-linejoin="round" stroke-opacity="0.3780646" stroke-width="0.0"/>
    <path d="M 207.3695526123047 190.1844024658203 C 206.69967651367188 192.6844024658203 204.8695526123047 194.5145263671875 202.3695526123047 195.1844024658203 C 199.8695526123047 194.5145263671875 198.0394287109375 192.6844024658203 197.3695526123047 190.1844024658203 C 198.0394287109375 187.6844024658203 199.8695526123047 185.85427856445312 202.3695526123047 185.1844024658203 C 204.8695526123047 185.85427856445312 206.69967651367188 187.6844024658203 207.3695526123047 190.1844024658203" fill="rgb(103, 152, 172)" opacity="1.0" stroke="rgb(67, 198, 30)" stroke-linecap="round" stroke-linejoin="round" stroke-opacity="0.72867393" stroke-width="0.0"/>
    <path d="M 228.60360717773438 93.12255859375 C 227.93373107910156 95.62255859375 226.10360717773438 97.45268249511719 223.60360717773438 98.12255859375 C 221.10360717773438 97.45268249511719 219.2734832763672 95.62255859375 218.60360717773438 93.12255859375 C 219.2734832763672 90.62255859375 221.10360717773438 88.79243469238281 223.60360717773438 88.12255859375 C 226.10360717773438 88.79243469238281 227.93373107910156 90.62255859375 228.60360717773438 93.12255859375" fill="rgb(101, 151, 170)" opacity="1.0" stroke="rgb(2, 33, 141)" stroke-linecap="round" stroke-linejoin="round" stroke-opacity="0.7966864" stroke-width="0.0"/>
    <path d="M 83.63220977783203 185.10400390625 C 82.96233367919922 187.60400390625 81.13220977783203 189.4341278076172 78.63220977783203 190.10400390625 C 76.13220977783203 189.4341278076172 74.30208587646484 187.60400390625 73.63220977783203 185.10400390625 C 74.30208587646484 182.60400390625 76.13220977783203 180.7738800048828 78.63220977783203 180.10400390625 C 81.13220977783203 180.7738800048828 82.96233367919922 182.60400390625 83.63220977783203 185.10400390625" fill="rgb(99, 149, 171)" opacity="1.0" stroke="rgb(69, 230, 116)" stroke-linecap="round" stroke-linejoin="round" stroke-opacity="0.21785922" stroke-width="0.0"/>
    <path d="M 132.15835571289062 457.8822326660156 C 131.48849487304688 460.3822326660156 129.65835571289062 462.2123718261719 127.15836334228516 462.8822326660156 C 124.65836334228516 462.2123718261719 122.82823944091797 460.3822326660156 122.15836334228516 457.8822326660156 C 122.82823944091797 455.3822326660156 124.65836334228516 453.5520935058594 127.15836334228516 452.8822326660156 C 129.65835571289062 453.5520935058594 131.48849487304688 455.3822326660156 132.15835571289062 457.8822326660156" fill="rgb(98, 150, 169)" opacity="1.0" stroke="rgb(82, 81, 67)" stroke-linecap="round" stroke-linejoin="round" stroke-opacity="0.040256426" stroke-width="0.0"/>
    <path d="M 512.2796630859375 310.5072326660156 C 511.6097717285156 313.0072326660156 509.7796325683594 314.8373718261719 507.2796325683594 315.5072326660156 C 504.7796325683594 314.8373718261719 502.9494934082031 313.0072326660156 502.2796325683594 310.5072326660156 C 502.9494934082031 308.0072326660156 504.7796325683594 306.1770935058594 507.2796325683594 305.5072326660156 C 509.7796325683594 306.1770935058594 511.6097717285156 308.0072326660156 512.2796630859375 310.5072326660156" fill="rgb(100, 149, 169)" opacity="1.0" stroke="rgb(187, 165, 249)" stroke-linecap="round" stroke-linejoin="round" stroke-opacity="0.5431762" stroke-width="0.0"/>
  </g>
</svg>
