<?xml version="1.0" ?>
<svg height="768" version="1.1" width="768" xmlns="http://www.w3.org/2000/svg">
  <defs/>
  <g>
    <path d="M 766.820068359375 808.001953125 C 305.90283203125 772.7732543945312 161.35580444335938 713.3961791992188 -42.62118148803711 664.7394409179688 C -3.975795030593872 270.17303466796875 8.319100379943848 339.2752685546875 -3.0696935653686523 -18.85575294494629 C 538.4714965820312 -23.474950790405273 612.673095703125 -16.914928436279297 794.1691284179688 2.3782613277435303 C 788.5914306640625 284.9244079589844 779.7975463867188 338.8821105957031 766.820068359375 808.001953125" fill="rgb(132, 161, 165)" opacity="0.98581475" stroke="rgb(12, 77, 72)" stroke-linecap="round" stroke-linejoin="round" stroke-opacity="0.61874783" stroke-width="0.0"/>
    <path d="M 410.6768493652344 327.3447570800781 C 542.7216796875 406.12799072265625 626.619384765625 367.6959533691406 828.7228393554688 642.118896484375 C 760.126953125 665.0166625976562 419.984130859375 428.7884521484375 164.9429168701172 559.87255859375 C 438.281005859375 221.57118225097656 47.89023971557617 481.86322021484375 119.6543960571289 218.1875457763672 C 264.6595153808594 117.491943359375 310.48602294921875 325.0111389160156 410.6768493652344 327.3447570800781" fill="rgb(14, 97, 50)" opacity="0.74637336" stroke="rgb(142, 239, 62)" stroke-linecap="round" stroke-linejoin="round" stroke-opacity="0.6742211" stroke-width="0.0"/>
    <path d="M 188.94468688964844 226.86483764648438 C 187.7230224609375 233.88246154785156 185.22373962402344 233.45101928710938 182.6758270263672 234.81663513183594 C 179.0126190185547 235.60595703125 178.2401123046875 232.748291015625 178.59764099121094 231.0550537109375 C 178.42501831054688 228.97496032714844 184.14773559570312 226.00595092773438 185.4430389404297 226.71578979492188 C 180.82650756835938 226.4427490234375 188.98573303222656 225.1729278564453 188.94468688964844 226.86483764648438" fill="rgb(4, 0, 3)" opacity="1.0" stroke="rgb(108, 227, 103)" stroke-linecap="round" stroke-linejoin="round" stroke-opacity="0.5134671" stroke-width="0.0"/>
    <path d="M 310.0078125 537.0283203125 C 280.2208557128906 561.0953369140625 348.2988586425781 496.1111145019531 210.67030334472656 535.9296875 C 209.02899169921875 556.8556518554688 122.44527435302734 648.1215209960938 158.56431579589844 569.113037109375 C 260.6522216796875 451.1029357910156 148.94361877441406 550.8668823242188 188.72042846679688 499.3758544921875 C 193.4341278076172 493.77423095703125 335.0487060546875 483.8678894042969 310.0078125 537.0283203125" fill="rgb(18, 15, 17)" opacity="1.0" stroke="rgb(4, 45, 250)" stroke-linecap="round" stroke-linejoin="round" stroke-opacity="0.9083855" stroke-width="0.0"/>
    <path d="M 695.7794189453125 485.22174072265625 C 762.3111572265625 566.09619140625 791.2275390625 519.7437133789062 475.97991943359375 496.3958740234375 C 264.2823181152344 478.5445251464844 346.96649169921875 500.6496887207031 350.8455505371094 456.5952453613281 C 406.26513671875 477.2703552246094 393.5765075683594 469.8436279296875 445.91546630859375 478.26885986328125 C 508.636962890625 481.4725646972656 503.7893981933594 487.03955078125 695.7794189453125 485.22174072265625" fill="rgb(172, 154, 148)" opacity="0.8410029" stroke="rgb(18, 228, 169)" stroke-linecap="round" stroke-linejoin="round" stroke-opacity="0.1384647" stroke-width="0.0"/>
    <path d="M 357.1170959472656 767.056396484375 C 128.69789123535156 794.5836791992188 118.65939331054688 783.0560302734375 11.796472549438477 777.82763671875 C -11.87857723236084 786.9454345703125 -15.19631576538086 788.1581420898438 -11.822647094726562 661.9742431640625 C -2.2421112060546875 649.8419799804688 7.1760759353637695 651.60400390625 76.04202270507812 657.8350830078125 C 178.80931091308594 631.3406982421875 259.59625244140625 532.6173095703125 357.1170959472656 767.056396484375" fill="rgb(133, 167, 178)" opacity="1.0" stroke="rgb(159, 206, 116)" stroke-linecap="round" stroke-linejoin="round" stroke-opacity="0.08451085" stroke-width="0.0"/>
  </g>
</svg>
