<?xml version="1.0" ?>
<svg height="768" version="1.1" width="768" xmlns="http://www.w3.org/2000/svg">
  <defs/>
  <g>
    <path d="M 766.820068359375 808.0113525390625 C 305.8843078613281 772.7876586914062 161.3442840576172 713.4049072265625 -42.621829986572266 664.7394409179688 C -3.981785535812378 270.17303466796875 8.310309410095215 339.2752685546875 -3.0756165981292725 -18.85575294494629 C 538.4714965820312 -23.474950790405273 612.673095703125 -16.914928436279297 794.1691284179688 2.3782613277435303 C 788.5914306640625 284.9244079589844 779.7975463867188 338.8821105957031 766.820068359375 808.0113525390625" fill="rgb(127, 163, 171)" opacity="0.9892887" stroke="rgb(12, 77, 72)" stroke-linecap="round" stroke-linejoin="round" stroke-opacity="0.61874783" stroke-width="0.0"/>
    <path d="M 407.3262634277344 326.2816162109375 C 543.647705078125 405.3998107910156 629.6909790039062 370.1343994140625 830.9578857421875 644.1178588867188 C 764.10791015625 665.3330688476562 425.91644287109375 432.7247314453125 169.0586395263672 554.9150390625 C 444.1147155761719 222.63351440429688 47.76529312133789 479.3665466308594 124.71452331542969 215.15106201171875 C 263.97857666015625 121.40001678466797 313.496826171875 325.2541809082031 407.3262634277344 326.2816162109375" fill="rgb(11, 97, 46)" opacity="0.75651467" stroke="rgb(142, 239, 62)" stroke-linecap="round" stroke-linejoin="round" stroke-opacity="0.6742211" stroke-width="0.0"/>
    <path d="M 189.08042907714844 226.8799591064453 C 187.87722778320312 234.1179656982422 185.38894653320312 233.64810180664062 182.73965454101562 234.79261779785156 C 178.94769287109375 235.6402130126953 178.238525390625 232.816650390625 178.5872344970703 230.93153381347656 C 178.3285369873047 228.87416076660156 184.03623962402344 225.94752502441406 185.34214782714844 226.67935180664062 C 180.7220001220703 226.22409057617188 188.91236877441406 224.9595947265625 189.08042907714844 226.8799591064453" fill="rgb(0, 0, 1)" opacity="1.0" stroke="rgb(108, 227, 103)" stroke-linecap="round" stroke-linejoin="round" stroke-opacity="0.5134671" stroke-width="0.0"/>
    <path d="M 310.3851013183594 536.7870483398438 C 279.35955810546875 561.1463012695312 348.9859924316406 497.02874755859375 211.90623474121094 535.3511352539062 C 208.51657104492188 555.8795776367188 122.01146697998047 649.2735595703125 158.84991455078125 568.3005981445312 C 261.89312744140625 453.16375732421875 149.69000244140625 548.767578125 188.9399871826172 499.0765380859375 C 194.87701416015625 494.404052734375 332.8883056640625 481.83905029296875 310.3851013183594 536.7870483398438" fill="rgb(17, 14, 16)" opacity="1.0" stroke="rgb(4, 45, 250)" stroke-linecap="round" stroke-linejoin="round" stroke-opacity="0.9083855" stroke-width="0.0"/>
    <path d="M 696.891845703125 485.3363342285156 C 763.1847534179688 567.7500610351562 801.016845703125 520.7758178710938 474.0917663574219 496.2537841796875 C 265.0005187988281 478.7931823730469 346.81976318359375 500.46923828125 350.8360595703125 456.8243103027344 C 406.09912109375 475.6183776855469 381.1624450683594 470.1274108886719 446.564208984375 478.7445373535156 C 528.5867309570312 484.9695739746094 513.2191772460938 485.9885559082031 696.891845703125 485.3363342285156" fill="rgb(145, 172, 179)" opacity="0.90178496" stroke="rgb(18, 228, 169)" stroke-linecap="round" stroke-linejoin="round" stroke-opacity="0.1384647" stroke-width="0.0"/>
    <path d="M 367.9647521972656 767.4453125 C 128.74644470214844 795.0968627929688 118.65943908691406 783.0560302734375 11.796472549438477 777.82763671875 C -11.87857723236084 786.9454345703125 -15.19631576538086 788.1581420898438 -11.842219352722168 658.1759643554688 C -2.4566776752471924 644.1454467773438 7.418712139129639 644.7808837890625 59.211971282958984 650.5400390625 C 178.89984130859375 621.166259765625 261.7273254394531 516.9124755859375 367.9647521972656 767.4453125" fill="rgb(133, 167, 178)" opacity="1.0" stroke="rgb(159, 206, 116)" stroke-linecap="round" stroke-linejoin="round" stroke-opacity="0.08451085" stroke-width="0.0"/>
    <path d="M 253.56930541992188 347.6651916503906 C 337.9201354980469 432.64990234375 312.6628112792969 326.7390441894531 318.4457702636719 508.3453369140625 C 122.5506820678711 470.4277648925781 314.2279357910156 492.5627136230469 214.86720275878906 417.4210205078125 C 127.92017364501953 282.7120666503906 247.82852172851562 340.0121154785156 146.0338897705078 218.20053100585938 C 270.3581237792969 199.00201416015625 189.7314910888672 284.44110107421875 253.56930541992188 347.6651916503906" fill="rgb(229, 136, 68)" opacity="0.997375" stroke="rgb(0, 105, 147)" stroke-linecap="round" stroke-linejoin="round" stroke-opacity="0.3611284" stroke-width="0.0"/>
    <path d="M 176.22354125976562 257.0622863769531 C 164.96473693847656 246.2333984375 103.08226776123047 311.47271728515625 164.4342498779297 344.3027038574219 C 125.24236297607422 344.4606018066406 109.32569122314453 309.01593017578125 112.56867218017578 274.264404296875 C 116.41927337646484 242.0506134033203 135.21762084960938 219.42198181152344 157.39210510253906 216.35647583007812 C 169.21011352539062 230.13235473632812 159.39797973632812 243.82366943359375 176.22354125976562 257.0622863769531" fill="rgb(10, 10, 12)" opacity="1.0" stroke="rgb(123, 164, 252)" stroke-linecap="round" stroke-linejoin="round" stroke-opacity="0.8283837" stroke-width="0.0"/>
    <path d="M 601.271240234375 485.33807373046875 C 543.1273193359375 492.56219482421875 518.9174194335938 498.4822998046875 483.5977783203125 493.6389465332031 C 465.57373046875 494.4532165527344 411.0443115234375 488.8768310546875 383.9067077636719 469.4478759765625 C 389.4190979003906 468.60223388671875 408.4565124511719 475.31036376953125 479.9342346191406 480.49041748046875 C 477.4489440917969 479.5892028808594 541.7872314453125 486.6021728515625 601.271240234375 485.33807373046875" fill="rgb(225, 80, 19)" opacity="0.83457226" stroke="rgb(129, 124, 169)" stroke-linecap="round" stroke-linejoin="round" stroke-opacity="0.75878716" stroke-width="0.0"/>
    <path d="M 192.72581481933594 278.80218505859375 C 189.5101318359375 323.8748474121094 192.6320037841797 310.53900146484375 181.36428833007812 312.7642517089844 C 143.88148498535156 316.2643737792969 158.26699829101562 307.68658447265625 129.67454528808594 305.2544250488281 C 164.40875244140625 274.9347229003906 135.07537841796875 294.25579833984375 162.95263671875 263.2888488769531 C 170.2760009765625 261.97271728515625 192.9258270263672 273.0314025878906 192.72581481933594 278.80218505859375" fill="rgb(6, 0, 5)" opacity="0.936451" stroke="rgb(90, 232, 236)" stroke-linecap="round" stroke-linejoin="round" stroke-opacity="0.40865332" stroke-width="0.0"/>
    <path d="M 188.4869384765625 344.6505432128906 C 187.15643310546875 381.2569885253906 207.87303161621094 393.7955322265625 175.7499542236328 364.1242980957031 C 158.19442749023438 339.76873779296875 157.9194793701172 348.0184326171875 137.6844024658203 315.0987854003906 C 131.8392333984375 297.3788146972656 135.86997985839844 309.0110168457031 159.88905334472656 313.17010498046875 C 201.4605712890625 317.6141357421875 187.29949951171875 297.1441650390625 188.4869384765625 344.6505432128906" fill="rgb(134, 168, 178)" opacity="0.9903496" stroke="rgb(120, 37, 112)" stroke-linecap="round" stroke-linejoin="round" stroke-opacity="0.62810665" stroke-width="0.0"/>
    <path d="M 678.9486694335938 459.1658630371094 C 662.3128051757812 465.2386474609375 649.7235717773438 459.2986145019531 608.2803344726562 455.3568420410156 C 581.6954345703125 451.8029479980469 554.7076416015625 448.9216613769531 520.4518432617188 446.7900695800781 C 588.8295288085938 438.6557922363281 618.3438110351562 438.1783752441406 619.3837280273438 428.2935485839844 C 638.7744750976562 384.4554748535156 676.8204345703125 377.972412109375 678.9486694335938 459.1658630371094" fill="rgb(133, 169, 177)" opacity="0.94206285" stroke="rgb(114, 52, 147)" stroke-linecap="round" stroke-linejoin="round" stroke-opacity="0.060832683" stroke-width="0.0"/>
    <path d="M 253.42152404785156 492.7137145996094 C 255.99192810058594 492.4923095703125 256.2755126953125 494.6634216308594 239.38092041015625 494.2853088378906 C 198.29273986816406 494.0956726074219 197.36605834960938 500.7467346191406 187.795654296875 470.8183288574219 C 202.98243713378906 459.4480285644531 162.04788208007812 421.27789306640625 238.0552215576172 437.4812316894531 C 254.07229614257812 450.4874572753906 246.21170043945312 429.2016906738281 253.42152404785156 492.7137145996094" fill="rgb(131, 167, 178)" opacity="0.9875993" stroke="rgb(236, 81, 72)" stroke-linecap="round" stroke-linejoin="round" stroke-opacity="0.22636518" stroke-width="0.0"/>
    <path d="M 778.2725830078125 543.2471923828125 C 788.0613403320312 561.7599487304688 784.4290161132812 565.6912231445312 771.5487060546875 619.04541015625 C 698.5053100585938 632.6295776367188 608.0911865234375 556.09765625 412.4426574707031 492.9665832519531 C 693.2307739257812 511.88482666015625 768.3219604492188 542.129638671875 755.5054931640625 535.9959106445312 C 769.9265747070312 542.3509521484375 771.0142822265625 537.6670532226562 778.2725830078125 543.2471923828125" fill="rgb(16, 109, 77)" opacity="0.9006928" stroke="rgb(203, 237, 151)" stroke-linecap="round" stroke-linejoin="round" stroke-opacity="0.023405533" stroke-width="0.0"/>
    <path d="M 206.55650329589844 256.1597595214844 C 187.9982147216797 215.57601928710938 220.2710418701172 238.9627227783203 193.2207489013672 269.7564697265625 C 151.76817321777344 237.35939025878906 166.3616485595703 210.3766632080078 186.30186462402344 247.6769256591797 C 199.339111328125 195.09732055664062 169.1309051513672 256.3169860839844 163.0882110595703 215.97145080566406 C 218.09884643554688 201.47547912597656 242.43829345703125 267.9308166503906 206.55650329589844 256.1597595214844" fill="rgb(245, 255, 233)" opacity="0.9198707" stroke="rgb(169, 187, 192)" stroke-linecap="round" stroke-linejoin="round" stroke-opacity="0.68430656" stroke-width="0.0"/>
    <path d="M 210.3577117919922 247.84056091308594 C 177.5041961669922 253.31192016601562 227.77145385742188 246.6253204345703 209.9868621826172 256.29931640625 C 194.32659912109375 255.58316040039062 203.90542602539062 260.7974853515625 198.34017944335938 245.001220703125 C 182.86111450195312 237.00137329101562 223.647216796875 231.5756378173828 200.0684356689453 243.21229553222656 C 202.45140075683594 245.45498657226562 215.50718688964844 239.8131103515625 210.3577117919922 247.84056091308594" fill="rgb(2, 3, 4)" opacity="0.9329853" stroke="rgb(156, 238, 232)" stroke-linecap="round" stroke-linejoin="round" stroke-opacity="0.48303482" stroke-width="0.0"/>
    <path d="M 699.02392578125 479.25341796875 C 698.4532470703125 478.3217468261719 697.6386108398438 486.2365417480469 688.2212524414062 483.3269958496094 C 444.1861267089844 487.4869384765625 284.7076416015625 472.7503356933594 322.97601318359375 398.1216125488281 C 641.828125 484.56927490234375 651.3858642578125 452.8232116699219 660.3341064453125 464.04486083984375 C 691.937744140625 460.71807861328125 701.3480224609375 471.23529052734375 699.02392578125 479.25341796875" fill="rgb(17, 92, 49)" opacity="0.8617459" stroke="rgb(225, 215, 138)" stroke-linecap="round" stroke-linejoin="round" stroke-opacity="0.46836582" stroke-width="0.0"/>
  </g>
</svg>
