<?xml version="1.0" ?>
<svg height="768" version="1.1" width="768" xmlns="http://www.w3.org/2000/svg">
  <defs/>
  <g>
    <path d="M 766.820068359375 808.0113525390625 C 305.8843078613281 772.7876586914062 161.3442840576172 713.4049072265625 -42.621829986572266 664.7394409179688 C -3.9817862510681152 270.17303466796875 8.310309410095215 339.2752685546875 -3.075618028640747 -18.85575294494629 C 538.4714965820312 -23.474950790405273 612.673095703125 -16.914928436279297 794.1691284179688 2.3782613277435303 C 788.5914306640625 284.9244079589844 779.7975463867188 338.8821105957031 766.820068359375 808.0113525390625" fill="rgb(127, 163, 171)" opacity="0.9892887" stroke="rgb(12, 77, 72)" stroke-linecap="round" stroke-linejoin="round" stroke-opacity="0.61874783" stroke-width="0.0"/>
    <path d="M 407.3262634277344 326.2816162109375 C 543.647705078125 405.3998107910156 629.6909790039062 370.1343994140625 830.9578857421875 644.1178588867188 C 764.10791015625 665.3330688476562 425.91644287109375 432.7247314453125 169.0586395263672 554.9150390625 C 444.1147155761719 222.63351440429688 47.76529312133789 479.3665466308594 124.71452331542969 215.15106201171875 C 263.97857666015625 121.40001678466797 313.496826171875 325.2541809082031 407.3262634277344 326.2816162109375" fill="rgb(11, 97, 46)" opacity="0.75651467" stroke="rgb(142, 239, 62)" stroke-linecap="round" stroke-linejoin="round" stroke-opacity="0.6742211" stroke-width="0.0"/>
    <path d="M 189.08042907714844 226.8799591064453 C 187.87722778320312 234.1179656982422 185.38894653320312 233.64810180664062 182.73965454101562 234.79261779785156 C 178.94769287109375 235.6402130126953 178.238525390625 232.816650390625 178.5872344970703 230.93153381347656 C 178.3285369873047 228.87416076660156 184.03623962402344 225.94752502441406 185.34214782714844 226.67935180664062 C 180.7220001220703 226.22409057617188 188.91236877441406 224.9595947265625 189.08042907714844 226.8799591064453" fill="rgb(0, 0, 1)" opacity="1.0" stroke="rgb(108, 227, 103)" stroke-linecap="round" stroke-linejoin="round" stroke-opacity="0.5134671" stroke-width="0.0"/>
    <path d="M 310.3851013183594 536.7870483398438 C 279.35955810546875 561.1463012695312 348.9859924316406 497.02874755859375 211.90623474121094 535.3511352539062 C 208.51657104492188 555.8795776367188 122.01146697998047 649.2735595703125 158.84991455078125 568.3005981445312 C 261.89312744140625 453.16375732421875 149.69000244140625 548.767578125 188.9399871826172 499.0765380859375 C 194.87701416015625 494.404052734375 332.8883056640625 481.83905029296875 310.3851013183594 536.7870483398438" fill="rgb(17, 14, 16)" opacity="1.0" stroke="rgb(4, 45, 250)" stroke-linecap="round" stroke-linejoin="round" stroke-opacity="0.9083855" stroke-width="0.0"/>
    <path d="M 696.891845703125 485.3363342285156 C 763.1847534179688 567.7500610351562 801.016845703125 520.7758178710938 474.0917663574219 496.2537841796875 C 265.0005187988281 478.7931823730469 346.81976318359375 500.46923828125 350.8360595703125 456.8243103027344 C 406.09912109375 475.6183776855469 381.1624450683594 470.1274108886719 446.564208984375 478.7445373535156 C 528.5867309570312 484.9695739746094 513.2191772460938 485.9885559082031 696.891845703125 485.3363342285156" fill="rgb(145, 172, 179)" opacity="0.90179694" stroke="rgb(18, 228, 169)" stroke-linecap="round" stroke-linejoin="round" stroke-opacity="0.1384647" stroke-width="0.0"/>
    <path d="M 367.9647521972656 767.4453125 C 128.74644470214844 795.0968627929688 118.65943908691406 783.0560302734375 11.796472549438477 777.82763671875 C -11.87857723236084 786.9454345703125 -15.19631576538086 788.1581420898438 -11.842219352722168 658.1759643554688 C -2.4567434787750244 644.1454467773438 7.418712139129639 644.7808837890625 59.211971282958984 650.5400390625 C 178.89984130859375 621.166259765625 261.7273254394531 516.9124755859375 367.9647521972656 767.4453125" fill="rgb(133, 167, 178)" opacity="1.0" stroke="rgb(159, 206, 116)" stroke-linecap="round" stroke-linejoin="round" stroke-opacity="0.08451085" stroke-width="0.0"/>
    <path d="M 253.5773162841797 347.66900634765625 C 337.92498779296875 432.64935302734375 312.67425537109375 326.7381896972656 318.4477844238281 508.3457946777344 C 122.54898071289062 470.42242431640625 314.21343994140625 492.5787658691406 214.86952209472656 417.4200134277344 C 127.92072296142578 282.7132568359375 247.86135864257812 339.9825134277344 146.0619354248047 218.2209014892578 C 270.3432922363281 199.0229034423828 189.734619140625 284.4412536621094 253.5773162841797 347.66900634765625" fill="rgb(229, 136, 68)" opacity="0.99749166" stroke="rgb(0, 105, 147)" stroke-linecap="round" stroke-linejoin="round" stroke-opacity="0.3611284" stroke-width="0.0"/>
    <path d="M 176.3302001953125 257.174560546875 C 165.093994140625 246.36004638671875 103.20292663574219 311.59442138671875 164.49375915527344 344.314453125 C 125.24249267578125 344.46209716796875 109.32649230957031 309.0142517089844 112.5666732788086 274.2662353515625 C 116.41888427734375 242.0276641845703 135.1985626220703 219.4324493408203 157.40548706054688 216.3827362060547 C 169.2032012939453 230.13375854492188 159.3864288330078 243.82699584960938 176.3302001953125 257.174560546875" fill="rgb(10, 10, 11)" opacity="1.0" stroke="rgb(123, 164, 252)" stroke-linecap="round" stroke-linejoin="round" stroke-opacity="0.8283837" stroke-width="0.0"/>
    <path d="M 601.2666625976562 485.3370361328125 C 543.11083984375 492.5623779296875 518.9183959960938 498.48236083984375 483.59808349609375 493.6384582519531 C 465.5721740722656 494.4525146484375 411.0462341308594 488.875 383.9079895019531 469.4479675292969 C 389.4056701660156 468.6142272949219 408.43426513671875 475.3244934082031 479.92132568359375 480.50555419921875 C 477.4422912597656 479.59466552734375 541.7840576171875 486.6119384765625 601.2666625976562 485.3370361328125" fill="rgb(225, 80, 19)" opacity="0.834883" stroke="rgb(129, 124, 169)" stroke-linecap="round" stroke-linejoin="round" stroke-opacity="0.75878716" stroke-width="0.0"/>
    <path d="M 192.71849060058594 278.8132019042969 C 189.50970458984375 323.87786865234375 192.63333129882812 310.53900146484375 181.3741455078125 312.7602233886719 C 143.88941955566406 316.2590026855469 158.2211456298828 307.7616882324219 129.365234375 305.0388488769531 C 164.33900451660156 274.72088623046875 134.88092041015625 293.99029541015625 162.69143676757812 263.1750793457031 C 170.45562744140625 261.8287048339844 192.98715209960938 272.9129943847656 192.71849060058594 278.8132019042969" fill="rgb(6, 0, 5)" opacity="0.93483484" stroke="rgb(90, 232, 236)" stroke-linecap="round" stroke-linejoin="round" stroke-opacity="0.40865332" stroke-width="0.0"/>
    <path d="M 188.47976684570312 344.6761169433594 C 187.13995361328125 381.2532958984375 207.8867645263672 393.8321533203125 175.74655151367188 364.099853515625 C 158.18978881835938 339.7454833984375 157.92657470703125 348.0413818359375 137.68182373046875 315.10931396484375 C 131.8413848876953 297.38433837890625 135.84780883789062 309.01470947265625 159.88816833496094 313.1668395996094 C 201.4630126953125 317.61566162109375 187.30960083007812 297.1408386230469 188.47976684570312 344.6761169433594" fill="rgb(134, 168, 178)" opacity="0.990362" stroke="rgb(120, 37, 112)" stroke-linecap="round" stroke-linejoin="round" stroke-opacity="0.62810665" stroke-width="0.0"/>
    <path d="M 678.94677734375 459.11767578125 C 662.4072265625 465.1617736816406 649.7489624023438 459.2742614746094 608.2398071289062 455.3582763671875 C 581.6011352539062 451.9127502441406 554.7252807617188 448.6788330078125 520.3667602539062 446.9261474609375 C 588.9344482421875 438.6017761230469 618.3225708007812 438.0784912109375 619.3585205078125 428.3751220703125 C 638.4246215820312 384.2217712402344 676.9450073242188 377.84271240234375 678.94677734375 459.11767578125" fill="rgb(133, 169, 177)" opacity="0.9414079" stroke="rgb(114, 52, 147)" stroke-linecap="round" stroke-linejoin="round" stroke-opacity="0.060832683" stroke-width="0.0"/>
    <path d="M 253.4259796142578 492.69781494140625 C 256.0423278808594 492.4945983886719 256.22314453125 494.6593933105469 239.41026306152344 494.2890625 C 197.4752197265625 494.0708312988281 196.94471740722656 500.9257507324219 187.59376525878906 471.58770751953125 C 202.80911254882812 459.178955078125 162.4119110107422 420.1993713378906 238.08641052246094 437.46917724609375 C 254.06199645996094 450.4858093261719 246.20022583007812 429.22955322265625 253.4259796142578 492.69781494140625" fill="rgb(131, 167, 178)" opacity="0.9874148" stroke="rgb(236, 81, 72)" stroke-linecap="round" stroke-linejoin="round" stroke-opacity="0.22636518" stroke-width="0.0"/>
    <path d="M 778.2579345703125 543.6522216796875 C 788.0613403320312 561.7599487304688 784.4290161132812 565.6912231445312 771.94091796875 618.9713745117188 C 697.4815673828125 632.7700805664062 608.944580078125 555.6505126953125 409.98797607421875 492.82373046875 C 690.850830078125 511.2910461425781 769.9401245117188 542.4513549804688 755.1091918945312 535.8640747070312 C 769.779296875 542.3441162109375 771.3685913085938 537.6922607421875 778.2579345703125 543.6522216796875" fill="rgb(17, 110, 78)" opacity="0.9083201" stroke="rgb(203, 237, 151)" stroke-linecap="round" stroke-linejoin="round" stroke-opacity="0.023405533" stroke-width="0.0"/>
    <path d="M 206.55441284179688 255.6848907470703 C 187.8565216064453 216.00804138183594 220.37554931640625 238.7133331298828 193.22723388671875 269.64056396484375 C 151.3966064453125 237.39016723632812 166.6433868408203 210.0871124267578 186.1981964111328 247.7566680908203 C 199.53749084472656 195.150146484375 168.9558563232422 256.2237854003906 163.1292266845703 215.9437255859375 C 219.35829162597656 201.5791778564453 242.90635681152344 268.5094299316406 206.55441284179688 255.6848907470703" fill="rgb(246, 255, 233)" opacity="0.9239392" stroke="rgb(169, 187, 192)" stroke-linecap="round" stroke-linejoin="round" stroke-opacity="0.68430656" stroke-width="0.0"/>
    <path d="M 210.34066772460938 247.75831604003906 C 177.88107299804688 253.27093505859375 226.96142578125 246.6895294189453 210.11004638671875 256.03857421875 C 194.2091522216797 255.8384246826172 203.91921997070312 260.0753173828125 198.33714294433594 244.9922332763672 C 182.91934204101562 237.09242248535156 223.65774536132812 231.5387725830078 200.13760375976562 243.12091064453125 C 202.3928680419922 245.46127319335938 215.26718139648438 239.7637481689453 210.34066772460938 247.75831604003906" fill="rgb(1, 3, 4)" opacity="0.9319406" stroke="rgb(156, 238, 232)" stroke-linecap="round" stroke-linejoin="round" stroke-opacity="0.48303482" stroke-width="0.0"/>
    <path d="M 698.574951171875 481.4729919433594 C 699.23681640625 471.00958251953125 699.302978515625 486.97808837890625 690.8434448242188 483.2870788574219 C 434.3027648925781 486.7416076660156 289.4042053222656 473.553955078125 321.9239501953125 395.99652099609375 C 511.7386779785156 473.03741455078125 594.321533203125 437.5924987792969 635.173828125 467.4769287109375 C 687.6676025390625 456.76654052734375 703.4903564453125 468.9789123535156 698.574951171875 481.4729919433594" fill="rgb(15, 85, 45)" opacity="0.83381623" stroke="rgb(225, 215, 138)" stroke-linecap="round" stroke-linejoin="round" stroke-opacity="0.46836582" stroke-width="0.0"/>
    <path d="M 157.35792541503906 266.3320617675781 C 136.58535766601562 288.4892578125 159.4084930419922 277.253173828125 132.38018798828125 298.4500732421875 C 145.24560546875 299.018798828125 151.29058837890625 274.82598876953125 151.74636840820312 274.75457763671875 C 163.29566955566406 268.7904357910156 153.9434356689453 249.3756866455078 195.00265502929688 276.8227233886719 C 182.2128448486328 259.2799377441406 156.5869903564453 255.00978088378906 157.35792541503906 266.3320617675781" fill="rgb(218, 221, 232)" opacity="0.95096993" stroke="rgb(241, 24, 224)" stroke-linecap="round" stroke-linejoin="round" stroke-opacity="0.9624787" stroke-width="0.0"/>
    <path d="M 546.5108032226562 547.2295532226562 C 397.5847473144531 519.5645141601562 352.7921447753906 525.0303344726562 392.1812744140625 523.800537109375 C 367.1190185546875 524.0374145507812 382.7727966308594 522.5696411132812 320.2248229980469 520.5335693359375 C 317.4853515625 469.9783935546875 330.6092224121094 491.5058288574219 435.8988037109375 494.3028869628906 C 460.5125427246094 502.0613098144531 557.18701171875 485.53900146484375 546.5108032226562 547.2295532226562" fill="rgb(16, 106, 74)" opacity="0.8688838" stroke="rgb(91, 46, 159)" stroke-linecap="round" stroke-linejoin="round" stroke-opacity="0.64249396" stroke-width="0.0"/>
    <path d="M 655.3167114257812 31.930774688720703 C 582.6272583007812 512.8804321289062 438.51922607421875 197.33958435058594 137.54608154296875 189.228759765625 C 66.52020263671875 457.9477844238281 -64.454345703125 456.3720397949219 -33.13942337036133 -8.465649604797363 C 222.6123504638672 25.818578720092773 239.6333465576172 40.051353454589844 26.82413101196289 -0.4922672510147095 C 171.35903930664062 -34.14146041870117 339.0083923339844 -99.36954498291016 655.3167114257812 31.930774688720703" fill="rgb(133, 167, 178)" opacity="0.8574593" stroke="rgb(97, 216, 91)" stroke-linecap="round" stroke-linejoin="round" stroke-opacity="0.16990633" stroke-width="0.0"/>
    <path d="M 461.93133544921875 352.2831115722656 C 694.6412963867188 445.5950012207031 495.4297790527344 495.7070007324219 277.3615417480469 370.0369873046875 C 253.640625 352.25225830078125 256.04058837890625 352.7655029296875 232.042236328125 313.7664794921875 C 206.6627655029297 254.6421661376953 255.86465454101562 234.5009002685547 164.70993041992188 203.681884765625 C 333.52301025390625 242.01466369628906 188.68411254882812 246.99610900878906 461.93133544921875 352.2831115722656" fill="rgb(6, 132, 45)" opacity="0.47215143" stroke="rgb(133, 2, 66)" stroke-linecap="round" stroke-linejoin="round" stroke-opacity="0.031605467" stroke-width="0.0"/>
    <path d="M 533.5606079101562 11.883035659790039 C 521.3106689453125 -3.714218854904175 516.646240234375 -2.31258225440979 525.8873901367188 20.466419219970703 C 531.53515625 0.600130558013916 525.5911865234375 -3.795029640197754 514.217041015625 6.0304741859436035 C 518.3114013671875 -2.818315029144287 521.7811279296875 -3.541813373565674 524.8761596679688 -3.901001214981079 C 528.5838012695312 -3.7333741188049316 534.32568359375 -2.847874879837036 533.5606079101562 11.883035659790039" fill="rgb(134, 167, 177)" opacity="0.89508605" stroke="rgb(195, 229, 134)" stroke-linecap="round" stroke-linejoin="round" stroke-opacity="0.19052486" stroke-width="0.0"/>
    <path d="M 419.45709228515625 371.2589111328125 C 213.8791961669922 406.27874755859375 220.79547119140625 283.7543640136719 225.46142578125 231.1878204345703 C 231.6329345703125 289.6639709472656 224.7473907470703 270.32025146484375 227.97471618652344 227.88235473632812 C 255.67645263671875 189.00323486328125 137.6987762451172 240.6041717529297 175.76644897460938 191.70323181152344 C 281.36468505859375 191.5984344482422 271.633056640625 244.23683166503906 419.45709228515625 371.2589111328125" fill="rgb(21, 120, 54)" opacity="0.86732155" stroke="rgb(220, 171, 170)" stroke-linecap="round" stroke-linejoin="round" stroke-opacity="0.5647737" stroke-width="0.0"/>
    <path d="M 169.31736755371094 544.4766235351562 C 116.88198852539062 598.5609130859375 210.66671752929688 658.819580078125 62.01714324951172 672.5770874023438 C -72.06424713134766 545.742919921875 -15.962158203125 506.3912658691406 -17.908876419067383 470.4441223144531 C 4.893157958984375 467.74310302734375 -28.725181579589844 452.5140380859375 -5.4778313636779785 316.1684265136719 C 172.95338439941406 330.692138671875 247.49493408203125 344.5625305175781 169.31736755371094 544.4766235351562" fill="rgb(133, 168, 180)" opacity="0.5676128" stroke="rgb(253, 60, 97)" stroke-linecap="round" stroke-linejoin="round" stroke-opacity="0.5251322" stroke-width="0.0"/>
    <path d="M 634.4053344726562 131.4977569580078 C 578.205322265625 142.5143585205078 563.5474243164062 151.11842346191406 581.4072265625 141.40380859375 C 577.546875 126.03338623046875 577.7811889648438 126.40283966064453 567.019775390625 164.67987060546875 C 559.8843383789062 121.35736083984375 568.5411376953125 110.39105987548828 585.1998901367188 120.068115234375 C 584.3248291015625 127.77452850341797 599.7958374023438 93.67703247070312 634.4053344726562 131.4977569580078" fill="rgb(134, 169, 179)" opacity="0.8806025" stroke="rgb(77, 35, 218)" stroke-linecap="round" stroke-linejoin="round" stroke-opacity="0.98377246" stroke-width="0.0"/>
    <path d="M 757.839111328125 804.8717651367188 C 273.5525817871094 715.4337158203125 272.64862060546875 710.8169555664062 557.6519775390625 767.8507080078125 C 381.1947937011719 791.787353515625 113.15808868408203 676.0181884765625 168.30209350585938 586.9813232421875 C 240.8313751220703 534.6806640625 273.92742919921875 557.3973999023438 374.91619873046875 523.4913330078125 C 638.1385498046875 544.6557006835938 773.2699584960938 627.1660766601562 757.839111328125 804.8717651367188" fill="rgb(133, 167, 177)" opacity="0.970674" stroke="rgb(254, 119, 95)" stroke-linecap="round" stroke-linejoin="round" stroke-opacity="0.6296265" stroke-width="0.0"/>
    <path d="M 206.43568420410156 797.3739013671875 C 107.4439468383789 764.8642578125 106.11406707763672 766.3013916015625 104.44097137451172 783.5800170898438 C 113.0741195678711 766.5908813476562 109.19660186767578 769.500732421875 90.94473266601562 767.5791015625 C 97.88348388671875 769.599609375 76.25 760.328369140625 120.4434585571289 730.7543334960938 C 261.1490478515625 716.0171508789062 306.1573791503906 780.478759765625 206.43568420410156 797.3739013671875" fill="rgb(132, 166, 176)" opacity="0.90457284" stroke="rgb(56, 95, 224)" stroke-linecap="round" stroke-linejoin="round" stroke-opacity="0.6731263" stroke-width="0.0"/>
    <path d="M 921.7769775390625 287.1988830566406 C 738.94482421875 556.0699462890625 740.2720947265625 532.6048583984375 715.4461059570312 524.9116821289062 C 684.451416015625 521.3356323242188 699.5867919921875 521.8649291992188 631.2974243164062 510.81121826171875 C 580.3602905273438 486.72735595703125 723.7064208984375 500.0479736328125 697.8994140625 470.2482604980469 C 384.0109558105469 160.94686889648438 665.653564453125 88.36914825439453 921.7769775390625 287.1988830566406" fill="rgb(133, 167, 177)" opacity="0.9825101" stroke="rgb(90, 198, 180)" stroke-linecap="round" stroke-linejoin="round" stroke-opacity="0.02875976" stroke-width="0.0"/>
    <path d="M 345.1861267089844 453.8936767578125 C 353.6418151855469 453.7264404296875 350.66290283203125 473.8741760253906 320.39349365234375 491.3540954589844 C 313.2139587402344 492.15411376953125 317.6822204589844 481.91314697265625 317.5056457519531 463.407958984375 C 317.47430419921875 430.65313720703125 318.0143127441406 402.46160888671875 318.1719665527344 424.48577880859375 C 323.0788879394531 444.2112121582031 343.5987548828125 452.0914001464844 345.1861267089844 453.8936767578125" fill="rgb(9, 116, 8)" opacity="0.40826228" stroke="rgb(105, 226, 47)" stroke-linecap="round" stroke-linejoin="round" stroke-opacity="0.5291555" stroke-width="0.0"/>
  </g>
</svg>
