<?xml version="1.0" ?>
<svg height="768" version="1.1" width="768" xmlns="http://www.w3.org/2000/svg">
  <defs/>
  <g>
    <path d="M 766.820068359375 808.0113525390625 C 305.8843078613281 772.7876586914062 161.3442840576172 713.4049072265625 -42.621829986572266 664.7394409179688 C -3.9817862510681152 270.17303466796875 8.310309410095215 339.2752685546875 -3.075618028640747 -18.85575294494629 C 538.4714965820312 -23.474950790405273 612.673095703125 -16.914928436279297 794.1691284179688 2.3782613277435303 C 788.5914306640625 284.9244079589844 779.7975463867188 338.8821105957031 766.820068359375 808.0113525390625" fill="rgb(127, 163, 171)" opacity="0.9892887" stroke="rgb(12, 77, 72)" stroke-linecap="round" stroke-linejoin="round" stroke-opacity="0.61874783" stroke-width="0.0"/>
    <path d="M 407.3262634277344 326.2816162109375 C 543.647705078125 405.3998107910156 629.6909790039062 370.1343994140625 830.9578857421875 644.1178588867188 C 764.10791015625 665.3330688476562 425.91644287109375 432.7247314453125 169.0586395263672 554.9150390625 C 444.1147155761719 222.63351440429688 47.76529312133789 479.3665466308594 124.71452331542969 215.15106201171875 C 263.97857666015625 121.40001678466797 313.496826171875 325.2541809082031 407.3262634277344 326.2816162109375" fill="rgb(11, 97, 46)" opacity="0.75651467" stroke="rgb(142, 239, 62)" stroke-linecap="round" stroke-linejoin="round" stroke-opacity="0.6742211" stroke-width="0.0"/>
    <path d="M 189.08042907714844 226.8799591064453 C 187.87722778320312 234.1179656982422 185.38894653320312 233.64810180664062 182.73965454101562 234.79261779785156 C 178.94769287109375 235.6402130126953 178.238525390625 232.816650390625 178.5872344970703 230.93153381347656 C 178.3285369873047 228.87416076660156 184.03623962402344 225.94752502441406 185.34214782714844 226.67935180664062 C 180.7220001220703 226.22409057617188 188.91236877441406 224.9595947265625 189.08042907714844 226.8799591064453" fill="rgb(0, 0, 1)" opacity="1.0" stroke="rgb(108, 227, 103)" stroke-linecap="round" stroke-linejoin="round" stroke-opacity="0.5134671" stroke-width="0.0"/>
    <path d="M 310.3851013183594 536.7870483398438 C 279.35955810546875 561.1463012695312 348.9859924316406 497.02874755859375 211.90623474121094 535.3511352539062 C 208.51657104492188 555.8795776367188 122.01146697998047 649.2735595703125 158.84991455078125 568.3005981445312 C 261.89312744140625 453.16375732421875 149.69000244140625 548.767578125 188.9399871826172 499.0765380859375 C 194.87701416015625 494.404052734375 332.8883056640625 481.83905029296875 310.3851013183594 536.7870483398438" fill="rgb(17, 14, 16)" opacity="1.0" stroke="rgb(4, 45, 250)" stroke-linecap="round" stroke-linejoin="round" stroke-opacity="0.9083855" stroke-width="0.0"/>
    <path d="M 696.891845703125 485.3363342285156 C 763.1847534179688 567.7500610351562 801.016845703125 520.7758178710938 474.0917663574219 496.2537841796875 C 265.0005187988281 478.7931823730469 346.81976318359375 500.46923828125 350.8360595703125 456.8243103027344 C 406.09912109375 475.6183776855469 381.1624450683594 470.1274108886719 446.564208984375 478.7445373535156 C 528.5867309570312 484.9695739746094 513.2191772460938 485.9885559082031 696.891845703125 485.3363342285156" fill="rgb(145, 172, 179)" opacity="0.90179694" stroke="rgb(18, 228, 169)" stroke-linecap="round" stroke-linejoin="round" stroke-opacity="0.1384647" stroke-width="0.0"/>
    <path d="M 367.9647521972656 767.4453125 C 128.74644470214844 795.0968627929688 118.65943908691406 783.0560302734375 11.796472549438477 777.82763671875 C -11.87857723236084 786.9454345703125 -15.19631576538086 788.1581420898438 -11.842219352722168 658.1759643554688 C -2.4567434787750244 644.1454467773438 7.418712139129639 644.7808837890625 59.211971282958984 650.5400390625 C 178.89984130859375 621.166259765625 261.7273254394531 516.9124755859375 367.9647521972656 767.4453125" fill="rgb(133, 167, 178)" opacity="1.0" stroke="rgb(159, 206, 116)" stroke-linecap="round" stroke-linejoin="round" stroke-opacity="0.08451085" stroke-width="0.0"/>
    <path d="M 253.5773162841797 347.66900634765625 C 337.92498779296875 432.64935302734375 312.67425537109375 326.7381896972656 318.4477844238281 508.3457946777344 C 122.54898071289062 470.42242431640625 314.21343994140625 492.5787658691406 214.86952209472656 417.4200134277344 C 127.92072296142578 282.7132568359375 247.86135864257812 339.9825134277344 146.0619354248047 218.2209014892578 C 270.3432922363281 199.0229034423828 189.734619140625 284.4412536621094 253.5773162841797 347.66900634765625" fill="rgb(229, 136, 68)" opacity="0.99749166" stroke="rgb(0, 105, 147)" stroke-linecap="round" stroke-linejoin="round" stroke-opacity="0.3611284" stroke-width="0.0"/>
    <path d="M 176.3302001953125 257.174560546875 C 165.093994140625 246.36004638671875 103.20292663574219 311.59442138671875 164.49375915527344 344.314453125 C 125.24249267578125 344.46209716796875 109.32649230957031 309.0142517089844 112.5666732788086 274.2662353515625 C 116.41888427734375 242.0276641845703 135.1985626220703 219.4324493408203 157.40548706054688 216.3827362060547 C 169.2032012939453 230.13375854492188 159.3864288330078 243.82699584960938 176.3302001953125 257.174560546875" fill="rgb(10, 10, 11)" opacity="1.0" stroke="rgb(123, 164, 252)" stroke-linecap="round" stroke-linejoin="round" stroke-opacity="0.8283837" stroke-width="0.0"/>
    <path d="M 601.2666625976562 485.3370361328125 C 543.11083984375 492.5623779296875 518.9183959960938 498.48236083984375 483.59808349609375 493.6384582519531 C 465.5721740722656 494.4525146484375 411.0462341308594 488.875 383.9079895019531 469.4479675292969 C 389.4056701660156 468.6142272949219 408.43426513671875 475.3244934082031 479.92132568359375 480.50555419921875 C 477.4422912597656 479.59466552734375 541.7840576171875 486.6119384765625 601.2666625976562 485.3370361328125" fill="rgb(225, 80, 19)" opacity="0.834883" stroke="rgb(129, 124, 169)" stroke-linecap="round" stroke-linejoin="round" stroke-opacity="0.75878716" stroke-width="0.0"/>
    <path d="M 192.71849060058594 278.8132019042969 C 189.50970458984375 323.87786865234375 192.63333129882812 310.53900146484375 181.3741455078125 312.7602233886719 C 143.88941955566406 316.2590026855469 158.2211456298828 307.7616882324219 129.365234375 305.0388488769531 C 164.33900451660156 274.72088623046875 134.88092041015625 293.99029541015625 162.69143676757812 263.1750793457031 C 170.45562744140625 261.8287048339844 192.98715209960938 272.9129943847656 192.71849060058594 278.8132019042969" fill="rgb(6, 0, 5)" opacity="0.93483484" stroke="rgb(90, 232, 236)" stroke-linecap="round" stroke-linejoin="round" stroke-opacity="0.40865332" stroke-width="0.0"/>
    <path d="M 188.47976684570312 344.6761169433594 C 187.13995361328125 381.2532958984375 207.8867645263672 393.8321533203125 175.74655151367188 364.099853515625 C 158.18978881835938 339.7454833984375 157.92657470703125 348.0413818359375 137.68182373046875 315.10931396484375 C 131.8413848876953 297.38433837890625 135.84780883789062 309.01470947265625 159.88816833496094 313.1668395996094 C 201.4630126953125 317.61566162109375 187.30960083007812 297.1408386230469 188.47976684570312 344.6761169433594" fill="rgb(134, 168, 178)" opacity="0.9903619" stroke="rgb(120, 37, 112)" stroke-linecap="round" stroke-linejoin="round" stroke-opacity="0.62810665" stroke-width="0.0"/>
    <path d="M 678.94677734375 459.11767578125 C 662.4072265625 465.1617736816406 649.7489624023438 459.2742614746094 608.2398071289062 455.3582763671875 C 581.6011352539062 451.9127502441406 554.7252807617188 448.6788330078125 520.3667602539062 446.9261474609375 C 588.9344482421875 438.6017761230469 618.3225708007812 438.0784912109375 619.3585205078125 428.3751220703125 C 638.4246215820312 384.2217712402344 676.9450073242188 377.84271240234375 678.94677734375 459.11767578125" fill="rgb(133, 169, 177)" opacity="0.9414102" stroke="rgb(114, 52, 147)" stroke-linecap="round" stroke-linejoin="round" stroke-opacity="0.060832683" stroke-width="0.0"/>
    <path d="M 253.4258270263672 492.697509765625 C 256.042236328125 492.4945983886719 256.22314453125 494.6592712402344 239.4099578857422 494.2886047363281 C 197.48048400878906 494.0707702636719 196.94688415527344 500.925537109375 187.5973663330078 471.5873718261719 C 202.8161163330078 459.178955078125 162.41677856445312 420.210205078125 238.08668518066406 437.4693908691406 C 254.0621337890625 450.4859619140625 246.20021057128906 429.229736328125 253.4258270263672 492.697509765625" fill="rgb(131, 167, 178)" opacity="0.9874164" stroke="rgb(236, 81, 72)" stroke-linecap="round" stroke-linejoin="round" stroke-opacity="0.22636518" stroke-width="0.0"/>
    <path d="M 778.2579345703125 543.6519775390625 C 788.0613403320312 561.7599487304688 784.4290161132812 565.6912231445312 771.9398803710938 618.9713134765625 C 697.4840087890625 632.7693481445312 608.9436645507812 555.6513061523438 409.9817810058594 492.8226318359375 C 690.8547973632812 511.29266357421875 769.9374389648438 542.4503784179688 755.110595703125 535.864501953125 C 769.7805786132812 542.3436889648438 771.3685913085938 537.69189453125 778.2579345703125 543.6519775390625" fill="rgb(17, 110, 78)" opacity="0.9082548" stroke="rgb(203, 237, 151)" stroke-linecap="round" stroke-linejoin="round" stroke-opacity="0.023405533" stroke-width="0.0"/>
    <path d="M 206.54664611816406 255.67681884765625 C 187.84750366210938 215.99761962890625 220.37257385253906 238.71559143066406 193.2252197265625 269.64764404296875 C 151.39492797851562 237.39627075195312 166.646728515625 210.0895538330078 186.20497131347656 247.74891662597656 C 199.53785705566406 195.15525817871094 168.96878051757812 256.2248840332031 163.0972900390625 215.94088745117188 C 219.19049072265625 201.6749725341797 242.79437255859375 268.64422607421875 206.54664611816406 255.67681884765625" fill="rgb(246, 255, 233)" opacity="0.92378837" stroke="rgb(169, 187, 192)" stroke-linecap="round" stroke-linejoin="round" stroke-opacity="0.68430656" stroke-width="0.0"/>
    <path d="M 210.33876037597656 247.7447509765625 C 177.8695068359375 253.27145385742188 226.96229553222656 246.69393920898438 210.1006622314453 256.0463562011719 C 194.21241760253906 255.82546997070312 203.9169921875 260.0853271484375 198.33384704589844 244.9982452392578 C 182.92202758789062 237.095947265625 223.65359497070312 231.54150390625 200.13978576660156 243.1154327392578 C 202.41026306152344 245.46009826660156 215.27682495117188 239.76368713378906 210.33876037597656 247.7447509765625" fill="rgb(1, 3, 4)" opacity="0.93189" stroke="rgb(156, 238, 232)" stroke-linecap="round" stroke-linejoin="round" stroke-opacity="0.48303482" stroke-width="0.0"/>
    <path d="M 698.5584106445312 481.4938659667969 C 699.24658203125 471.03204345703125 699.2911987304688 486.96002197265625 690.84375 483.2873840332031 C 434.4276428222656 486.7515869140625 289.406005859375 473.5340270996094 321.9238586425781 396.0921630859375 C 512.5525512695312 473.4345397949219 595.030517578125 437.5265197753906 635.2014770507812 467.4394836425781 C 687.7237548828125 456.8057861328125 703.4461059570312 468.959716796875 698.5584106445312 481.4938659667969" fill="rgb(15, 85, 45)" opacity="0.8339628" stroke="rgb(225, 215, 138)" stroke-linecap="round" stroke-linejoin="round" stroke-opacity="0.46836582" stroke-width="0.0"/>
    <path d="M 157.37936401367188 266.34869384765625 C 136.57699584960938 288.5008239746094 159.4102325439453 277.24737548828125 132.38040161132812 298.42645263671875 C 145.24649047851562 299.0108642578125 151.2916259765625 274.82440185546875 151.76138305664062 274.74798583984375 C 163.33470153808594 268.78778076171875 153.96307373046875 249.3627166748047 195.00880432128906 276.8233337402344 C 182.10516357421875 259.2003173828125 156.5717010498047 255.0850067138672 157.37936401367188 266.34869384765625" fill="rgb(218, 221, 232)" opacity="0.9507053" stroke="rgb(241, 24, 224)" stroke-linecap="round" stroke-linejoin="round" stroke-opacity="0.9624787" stroke-width="0.0"/>
    <path d="M 545.7040405273438 547.111083984375 C 397.39697265625 519.5298461914062 353.27777099609375 524.836181640625 392.4518737792969 523.7479248046875 C 367.2550354003906 524.0293579101562 382.6525573730469 522.564208984375 320.20697021484375 520.5166015625 C 317.4617614746094 469.95648193359375 330.5937194824219 491.5045471191406 435.9312438964844 494.3016052246094 C 459.29876708984375 502.1170654296875 556.2828979492188 485.2577209472656 545.7040405273438 547.111083984375" fill="rgb(16, 106, 74)" opacity="0.86964667" stroke="rgb(91, 46, 159)" stroke-linecap="round" stroke-linejoin="round" stroke-opacity="0.64249396" stroke-width="0.0"/>
    <path d="M 653.4724731445312 31.135103225708008 C 583.2908325195312 509.75213623046875 441.5450744628906 196.62960815429688 137.5828094482422 188.66641235351562 C 66.071533203125 459.0411071777344 -61.455135345458984 459.633056640625 -32.94340515136719 -7.802854537963867 C 222.60423278808594 25.90220069885254 239.56207275390625 40.359100341796875 26.729923248291016 0.05500844493508339 C 171.35821533203125 -34.13679885864258 338.85003662109375 -99.13893127441406 653.4724731445312 31.135103225708008" fill="rgb(133, 167, 178)" opacity="0.8727224" stroke="rgb(97, 216, 91)" stroke-linecap="round" stroke-linejoin="round" stroke-opacity="0.16990633" stroke-width="0.0"/>
    <path d="M 465.8673400878906 353.6387023925781 C 685.0910034179688 443.4698486328125 503.1661682128906 497.1843566894531 277.4218444824219 370.13665771484375 C 254.95999145507812 353.435791015625 255.5177459716797 352.42431640625 232.00685119628906 314.2824401855469 C 206.14837646484375 246.65924072265625 255.08985900878906 250.80455017089844 172.5550994873047 196.81854248046875 C 344.14727783203125 231.20135498046875 197.71795654296875 254.9861602783203 465.8673400878906 353.6387023925781" fill="rgb(0, 134, 38)" opacity="0.4069935" stroke="rgb(133, 2, 66)" stroke-linecap="round" stroke-linejoin="round" stroke-opacity="0.031605467" stroke-width="0.0"/>
    <path d="M 532.2991333007812 12.155939102172852 C 521.5151977539062 -4.101133823394775 517.77099609375 -2.7138636112213135 524.7252807617188 17.95420265197754 C 530.36962890625 0.14335617423057556 525.9952392578125 -3.3838493824005127 514.1118774414062 5.976399898529053 C 518.3735961914062 -2.820564031600952 521.7418212890625 -3.5827648639678955 524.9549560546875 -3.9432764053344727 C 529.1702880859375 -3.928518772125244 535.3276977539062 -3.260016441345215 532.2991333007812 12.155939102172852" fill="rgb(134, 167, 177)" opacity="0.8958485" stroke="rgb(195, 229, 134)" stroke-linecap="round" stroke-linejoin="round" stroke-opacity="0.19052486" stroke-width="0.0"/>
    <path d="M 414.56103515625 373.26446533203125 C 210.7056427001953 388.3707275390625 218.01795959472656 286.6139831542969 231.7664794921875 243.1278839111328 C 224.9962615966797 281.00689697265625 228.01129150390625 264.028564453125 227.64100646972656 237.79444885253906 C 243.01710510253906 253.91033935546875 233.3711395263672 247.96669006347656 178.76779174804688 191.61065673828125 C 275.1684265136719 192.02854919433594 274.9430236816406 239.33392333984375 414.56103515625 373.26446533203125" fill="rgb(20, 120, 54)" opacity="0.8182" stroke="rgb(220, 171, 170)" stroke-linecap="round" stroke-linejoin="round" stroke-opacity="0.5647737" stroke-width="0.0"/>
  </g>
</svg>
