<?xml version="1.0" ?>
<svg height="768" version="1.1" width="768" xmlns="http://www.w3.org/2000/svg">
  <defs/>
  <g>
    <path d="M 766.820068359375 808.0113525390625 C 305.8843078613281 772.7876586914062 161.3442840576172 713.4049072265625 -42.621829986572266 664.7394409179688 C -3.9817862510681152 270.17303466796875 8.310309410095215 339.2752685546875 -3.075618028640747 -18.85575294494629 C 538.4714965820312 -23.474950790405273 612.673095703125 -16.914928436279297 794.1691284179688 2.3782613277435303 C 788.5914306640625 284.9244079589844 779.7975463867188 338.8821105957031 766.820068359375 808.0113525390625" fill="rgb(127, 163, 171)" opacity="0.9892887" stroke="rgb(12, 77, 72)" stroke-linecap="round" stroke-linejoin="round" stroke-opacity="0.61874783" stroke-width="0.0"/>
    <path d="M 407.3262634277344 326.2816162109375 C 543.647705078125 405.3998107910156 629.6909790039062 370.1343994140625 830.9578857421875 644.1178588867188 C 764.10791015625 665.3330688476562 425.91644287109375 432.7247314453125 169.0586395263672 554.9150390625 C 444.1147155761719 222.63351440429688 47.76529312133789 479.3665466308594 124.71452331542969 215.15106201171875 C 263.97857666015625 121.40001678466797 313.496826171875 325.2541809082031 407.3262634277344 326.2816162109375" fill="rgb(11, 97, 46)" opacity="0.75651467" stroke="rgb(142, 239, 62)" stroke-linecap="round" stroke-linejoin="round" stroke-opacity="0.6742211" stroke-width="0.0"/>
    <path d="M 189.08042907714844 226.8799591064453 C 187.87722778320312 234.1179656982422 185.38894653320312 233.64810180664062 182.73965454101562 234.79261779785156 C 178.94769287109375 235.6402130126953 178.238525390625 232.816650390625 178.5872344970703 230.93153381347656 C 178.3285369873047 228.87416076660156 184.03623962402344 225.94752502441406 185.34214782714844 226.67935180664062 C 180.7220001220703 226.22409057617188 188.91236877441406 224.9595947265625 189.08042907714844 226.8799591064453" fill="rgb(0, 0, 1)" opacity="1.0" stroke="rgb(108, 227, 103)" stroke-linecap="round" stroke-linejoin="round" stroke-opacity="0.5134671" stroke-width="0.0"/>
    <path d="M 310.3851013183594 536.7870483398438 C 279.35955810546875 561.1463012695312 348.9859924316406 497.02874755859375 211.90623474121094 535.3511352539062 C 208.51657104492188 555.8795776367188 122.01146697998047 649.2735595703125 158.84991455078125 568.3005981445312 C 261.89312744140625 453.16375732421875 149.69000244140625 548.767578125 188.9399871826172 499.0765380859375 C 194.87701416015625 494.404052734375 332.8883056640625 481.83905029296875 310.3851013183594 536.7870483398438" fill="rgb(17, 14, 16)" opacity="1.0" stroke="rgb(4, 45, 250)" stroke-linecap="round" stroke-linejoin="round" stroke-opacity="0.9083855" stroke-width="0.0"/>
    <path d="M 696.891845703125 485.3363342285156 C 763.1847534179688 567.7500610351562 801.016845703125 520.7758178710938 474.0917663574219 496.2537841796875 C 265.0005187988281 478.7931823730469 346.81976318359375 500.46923828125 350.8360595703125 456.8243103027344 C 406.09912109375 475.6183776855469 381.1624450683594 470.1274108886719 446.564208984375 478.7445373535156 C 528.5867309570312 484.9695739746094 513.2191772460938 485.9885559082031 696.891845703125 485.3363342285156" fill="rgb(145, 172, 179)" opacity="0.90179694" stroke="rgb(18, 228, 169)" stroke-linecap="round" stroke-linejoin="round" stroke-opacity="0.1384647" stroke-width="0.0"/>
    <path d="M 367.9647521972656 767.4453125 C 128.74644470214844 795.0968627929688 118.65943908691406 783.0560302734375 11.796472549438477 777.82763671875 C -11.87857723236084 786.9454345703125 -15.19631576538086 788.1581420898438 -11.842219352722168 658.1759643554688 C -2.4567434787750244 644.1454467773438 7.418712139129639 644.7808837890625 59.211971282958984 650.5400390625 C 178.89984130859375 621.166259765625 261.7273254394531 516.9124755859375 367.9647521972656 767.4453125" fill="rgb(133, 167, 178)" opacity="1.0" stroke="rgb(159, 206, 116)" stroke-linecap="round" stroke-linejoin="round" stroke-opacity="0.08451085" stroke-width="0.0"/>
    <path d="M 253.5773162841797 347.66900634765625 C 337.92498779296875 432.64935302734375 312.67425537109375 326.7381896972656 318.4477844238281 508.3457946777344 C 122.54898071289062 470.42242431640625 314.21343994140625 492.5787658691406 214.86952209472656 417.4200134277344 C 127.92072296142578 282.7132568359375 247.86135864257812 339.9825134277344 146.0619354248047 218.2209014892578 C 270.3432922363281 199.0229034423828 189.734619140625 284.4412536621094 253.5773162841797 347.66900634765625" fill="rgb(229, 136, 68)" opacity="0.99749166" stroke="rgb(0, 105, 147)" stroke-linecap="round" stroke-linejoin="round" stroke-opacity="0.3611284" stroke-width="0.0"/>
    <path d="M 176.3302001953125 257.174560546875 C 165.093994140625 246.36004638671875 103.20292663574219 311.59442138671875 164.49375915527344 344.314453125 C 125.24249267578125 344.46209716796875 109.32649230957031 309.0142517089844 112.5666732788086 274.2662353515625 C 116.41888427734375 242.0276641845703 135.1985626220703 219.4324493408203 157.40548706054688 216.3827362060547 C 169.2032012939453 230.13375854492188 159.3864288330078 243.82699584960938 176.3302001953125 257.174560546875" fill="rgb(10, 10, 11)" opacity="1.0" stroke="rgb(123, 164, 252)" stroke-linecap="round" stroke-linejoin="round" stroke-opacity="0.8283837" stroke-width="0.0"/>
    <path d="M 601.2666625976562 485.3370361328125 C 543.11083984375 492.5623779296875 518.9183959960938 498.48236083984375 483.59808349609375 493.6384582519531 C 465.5721740722656 494.4525146484375 411.0462341308594 488.875 383.9079895019531 469.4479675292969 C 389.4056701660156 468.6142272949219 408.43426513671875 475.3244934082031 479.92132568359375 480.50555419921875 C 477.4422912597656 479.59466552734375 541.7840576171875 486.6119384765625 601.2666625976562 485.3370361328125" fill="rgb(225, 80, 19)" opacity="0.834883" stroke="rgb(129, 124, 169)" stroke-linecap="round" stroke-linejoin="round" stroke-opacity="0.75878716" stroke-width="0.0"/>
    <path d="M 192.71849060058594 278.8132019042969 C 189.50970458984375 323.87786865234375 192.63333129882812 310.53900146484375 181.3741455078125 312.7602233886719 C 143.88941955566406 316.2590026855469 158.2211456298828 307.7616882324219 129.365234375 305.0388488769531 C 164.33900451660156 274.72088623046875 134.88092041015625 293.99029541015625 162.69143676757812 263.1750793457031 C 170.45562744140625 261.8287048339844 192.98715209960938 272.9129943847656 192.71849060058594 278.8132019042969" fill="rgb(6, 0, 5)" opacity="0.93483484" stroke="rgb(90, 232, 236)" stroke-linecap="round" stroke-linejoin="round" stroke-opacity="0.40865332" stroke-width="0.0"/>
    <path d="M 188.47976684570312 344.6761169433594 C 187.13995361328125 381.2532958984375 207.8867645263672 393.8321533203125 175.74655151367188 364.099853515625 C 158.18978881835938 339.7454833984375 157.92657470703125 348.0413818359375 137.68182373046875 315.10931396484375 C 131.8413848876953 297.38433837890625 135.84780883789062 309.01470947265625 159.88816833496094 313.1668395996094 C 201.4630126953125 317.61566162109375 187.30960083007812 297.1408386230469 188.47976684570312 344.6761169433594" fill="rgb(134, 168, 178)" opacity="0.990362" stroke="rgb(120, 37, 112)" stroke-linecap="round" stroke-linejoin="round" stroke-opacity="0.62810665" stroke-width="0.0"/>
    <path d="M 678.94677734375 459.11767578125 C 662.4072265625 465.1617736816406 649.7489624023438 459.2742614746094 608.2398071289062 455.3582763671875 C 581.6011352539062 451.9127502441406 554.7252807617188 448.6788330078125 520.3667602539062 446.9261474609375 C 588.9344482421875 438.6017761230469 618.3225708007812 438.0784912109375 619.3585205078125 428.3751220703125 C 638.4246215820312 384.2217712402344 676.9450073242188 377.84271240234375 678.94677734375 459.11767578125" fill="rgb(133, 169, 177)" opacity="0.9414079" stroke="rgb(114, 52, 147)" stroke-linecap="round" stroke-linejoin="round" stroke-opacity="0.060832683" stroke-width="0.0"/>
    <path d="M 253.4259796142578 492.69781494140625 C 256.0423278808594 492.4945983886719 256.22314453125 494.6593933105469 239.41026306152344 494.2890625 C 197.4752197265625 494.0708312988281 196.94471740722656 500.9257507324219 187.59376525878906 471.58770751953125 C 202.80911254882812 459.178955078125 162.4119110107422 420.1993713378906 238.08641052246094 437.46917724609375 C 254.06199645996094 450.4858093261719 246.20022583007812 429.22955322265625 253.4259796142578 492.69781494140625" fill="rgb(131, 167, 178)" opacity="0.9874148" stroke="rgb(236, 81, 72)" stroke-linecap="round" stroke-linejoin="round" stroke-opacity="0.22636518" stroke-width="0.0"/>
    <path d="M 778.2579345703125 543.6522216796875 C 788.0613403320312 561.7599487304688 784.4290161132812 565.6912231445312 771.94091796875 618.9713745117188 C 697.4815673828125 632.7700805664062 608.944580078125 555.6505126953125 409.98797607421875 492.82373046875 C 690.850830078125 511.2910461425781 769.9401245117188 542.4513549804688 755.1091918945312 535.8640747070312 C 769.779296875 542.3441162109375 771.3685913085938 537.6922607421875 778.2579345703125 543.6522216796875" fill="rgb(17, 110, 78)" opacity="0.9083201" stroke="rgb(203, 237, 151)" stroke-linecap="round" stroke-linejoin="round" stroke-opacity="0.023405533" stroke-width="0.0"/>
    <path d="M 206.55441284179688 255.6848907470703 C 187.8565216064453 216.00804138183594 220.37554931640625 238.7133331298828 193.22723388671875 269.64056396484375 C 151.3966064453125 237.39016723632812 166.6433868408203 210.0871124267578 186.1981964111328 247.7566680908203 C 199.53749084472656 195.150146484375 168.9558563232422 256.2237854003906 163.1292266845703 215.9437255859375 C 219.35829162597656 201.5791778564453 242.90635681152344 268.5094299316406 206.55441284179688 255.6848907470703" fill="rgb(246, 255, 233)" opacity="0.9239392" stroke="rgb(169, 187, 192)" stroke-linecap="round" stroke-linejoin="round" stroke-opacity="0.68430656" stroke-width="0.0"/>
    <path d="M 210.34066772460938 247.75831604003906 C 177.88107299804688 253.27093505859375 226.96142578125 246.6895294189453 210.11004638671875 256.03857421875 C 194.2091522216797 255.8384246826172 203.91921997070312 260.0753173828125 198.33714294433594 244.9922332763672 C 182.91934204101562 237.09242248535156 223.65774536132812 231.5387725830078 200.13760375976562 243.12091064453125 C 202.3928680419922 245.46127319335938 215.26718139648438 239.7637481689453 210.34066772460938 247.75831604003906" fill="rgb(1, 3, 4)" opacity="0.9319406" stroke="rgb(156, 238, 232)" stroke-linecap="round" stroke-linejoin="round" stroke-opacity="0.48303482" stroke-width="0.0"/>
    <path d="M 698.574951171875 481.4729919433594 C 699.23681640625 471.00958251953125 699.302978515625 486.97808837890625 690.8434448242188 483.2870788574219 C 434.3027648925781 486.7416076660156 289.4042053222656 473.553955078125 321.9239501953125 395.99652099609375 C 511.7386779785156 473.03741455078125 594.321533203125 437.5924987792969 635.173828125 467.4769287109375 C 687.6676025390625 456.76654052734375 703.4903564453125 468.9789123535156 698.574951171875 481.4729919433594" fill="rgb(15, 85, 45)" opacity="0.833845" stroke="rgb(225, 215, 138)" stroke-linecap="round" stroke-linejoin="round" stroke-opacity="0.46836582" stroke-width="0.0"/>
    <path d="M 157.35800170898438 266.3320617675781 C 136.58551025390625 288.4892883300781 159.4084930419922 277.253173828125 132.3800811767578 298.4500732421875 C 145.24578857421875 299.018798828125 151.29071044921875 274.82598876953125 151.74667358398438 274.75457763671875 C 163.29554748535156 268.7904357910156 153.9433135986328 249.37551879882812 195.00265502929688 276.8227233886719 C 182.21282958984375 259.2799377441406 156.5870819091797 255.00982666015625 157.35800170898438 266.3320617675781" fill="rgb(218, 221, 232)" opacity="0.9509695" stroke="rgb(241, 24, 224)" stroke-linecap="round" stroke-linejoin="round" stroke-opacity="0.9624787" stroke-width="0.0"/>
    <path d="M 546.5108032226562 547.2295532226562 C 397.58551025390625 519.5645141601562 352.7890319824219 525.0303344726562 392.1737365722656 523.8003540039062 C 367.1193542480469 524.0374145507812 382.77301025390625 522.5696411132812 320.2248229980469 520.5335693359375 C 317.48553466796875 469.9782409667969 330.6095275878906 491.5056457519531 435.89892578125 494.3027038574219 C 460.5125427246094 502.06134033203125 557.18701171875 485.5390625 546.5108032226562 547.2295532226562" fill="rgb(16, 106, 74)" opacity="0.8687416" stroke="rgb(91, 46, 159)" stroke-linecap="round" stroke-linejoin="round" stroke-opacity="0.64249396" stroke-width="0.0"/>
    <path d="M 655.3385009765625 31.933820724487305 C 582.6272583007812 512.8909912109375 438.5106201171875 197.33477783203125 137.5464630126953 189.22691345214844 C 66.52490234375 457.9449157714844 -64.47285461425781 456.3529357910156 -33.14166259765625 -8.472176551818848 C 222.6123504638672 25.81853675842285 239.6333465576172 40.050567626953125 26.825191497802734 -0.49825146794319153 C 171.35903930664062 -34.14146041870117 339.0083923339844 -99.37079620361328 655.3385009765625 31.933820724487305" fill="rgb(133, 167, 178)" opacity="0.8574941" stroke="rgb(97, 216, 91)" stroke-linecap="round" stroke-linejoin="round" stroke-opacity="0.16990633" stroke-width="0.0"/>
    <path d="M 461.91693115234375 352.2821960449219 C 694.7092895507812 445.6195068359375 495.3627014160156 495.69189453125 277.3650207519531 370.0333251953125 C 253.6370086669922 352.24542236328125 256.0407409667969 352.7671813964844 232.036865234375 313.75885009765625 C 206.658203125 254.6654815673828 255.86465454101562 234.50050354003906 164.7053680419922 203.68148803710938 C 333.4722900390625 242.00758361816406 188.638671875 246.9691162109375 461.91693115234375 352.2821960449219" fill="rgb(6, 131, 45)" opacity="0.47228748" stroke="rgb(133, 2, 66)" stroke-linecap="round" stroke-linejoin="round" stroke-opacity="0.031605467" stroke-width="0.0"/>
    <path d="M 533.5606079101562 11.882725715637207 C 521.3106689453125 -3.714686393737793 516.646240234375 -2.312080144882202 525.8873901367188 20.485021591186523 C 531.53515625 0.6013927459716797 525.5911865234375 -3.797513723373413 514.217041015625 6.031634330749512 C 518.3114013671875 -2.8187038898468018 521.7811279296875 -3.541712522506714 524.8761596679688 -3.900879144668579 C 528.5838012695312 -3.7328929901123047 534.32568359375 -2.8470535278320312 533.5606079101562 11.882725715637207" fill="rgb(134, 167, 177)" opacity="0.89508474" stroke="rgb(195, 229, 134)" stroke-linecap="round" stroke-linejoin="round" stroke-opacity="0.19052486" stroke-width="0.0"/>
    <path d="M 419.4761047363281 371.24896240234375 C 213.8685302734375 406.26531982421875 220.7959442138672 283.7615051269531 225.4608917236328 231.1613006591797 C 231.6446990966797 289.7326965332031 224.7394256591797 270.3885803222656 227.9710235595703 228.0560760498047 C 255.27609252929688 189.00466918945312 137.01197814941406 240.56707763671875 175.77053833007812 191.70086669921875 C 281.3846130371094 191.5991973876953 271.64874267578125 244.26290893554688 419.4761047363281 371.24896240234375" fill="rgb(21, 120, 54)" opacity="0.8666738" stroke="rgb(220, 171, 170)" stroke-linecap="round" stroke-linejoin="round" stroke-opacity="0.5647737" stroke-width="0.0"/>
    <path d="M 169.29005432128906 544.5437622070312 C 116.88453674316406 598.9188842773438 210.72291564941406 658.63037109375 62.15141296386719 671.6260986328125 C -72.07610321044922 545.7481689453125 -15.96445369720459 506.3912658691406 -17.908876419067383 470.4441223144531 C 4.893157958984375 467.74310302734375 -28.725181579589844 452.5140380859375 -5.493717193603516 316.09124755859375 C 172.97113037109375 330.7145080566406 247.48876953125 344.58123779296875 169.29005432128906 544.5437622070312" fill="rgb(133, 168, 180)" opacity="0.5677214" stroke="rgb(253, 60, 97)" stroke-linecap="round" stroke-linejoin="round" stroke-opacity="0.5251322" stroke-width="0.0"/>
    <path d="M 634.4069213867188 131.49884033203125 C 578.2091064453125 142.4884796142578 563.5166625976562 151.19888305664062 581.4041748046875 141.39842224121094 C 577.5537719726562 125.9931869506836 577.7115478515625 126.3738784790039 567.0726318359375 164.91893005371094 C 559.8184814453125 121.38166046142578 568.5752563476562 110.36592864990234 585.1927490234375 120.07453155517578 C 584.330810546875 127.74846649169922 599.8136596679688 93.68926239013672 634.4069213867188 131.49884033203125" fill="rgb(134, 169, 179)" opacity="0.8805936" stroke="rgb(77, 35, 218)" stroke-linecap="round" stroke-linejoin="round" stroke-opacity="0.98377246" stroke-width="0.0"/>
    <path d="M 759.2374267578125 804.6458740234375 C 273.3970642089844 716.08203125 272.560302734375 711.189208984375 557.5640869140625 767.8174438476562 C 382.281982421875 792.735595703125 113.4657211303711 674.22705078125 168.38397216796875 586.9440307617188 C 241.41775512695312 534.4713134765625 273.3935546875 557.5859375 374.6199035644531 523.4602661132812 C 637.958740234375 544.4901123046875 773.5577392578125 627.4898071289062 759.2374267578125 804.6458740234375" fill="rgb(133, 167, 177)" opacity="0.9717759" stroke="rgb(254, 119, 95)" stroke-linecap="round" stroke-linejoin="round" stroke-opacity="0.6296265" stroke-width="0.0"/>
    <path d="M 206.7100830078125 797.8822021484375 C 107.4439468383789 764.8642578125 106.11406707763672 766.3013916015625 104.44097137451172 783.5800170898438 C 113.0741195678711 766.5908813476562 109.2054443359375 769.3858642578125 89.35308837890625 767.8566284179688 C 95.2728500366211 770.1588745117188 74.47711944580078 761.6157836914062 120.55406188964844 730.7763061523438 C 261.4973449707031 715.9424438476562 306.03314208984375 780.7987060546875 206.7100830078125 797.8822021484375" fill="rgb(132, 166, 176)" opacity="0.9063777" stroke="rgb(56, 95, 224)" stroke-linecap="round" stroke-linejoin="round" stroke-opacity="0.6731263" stroke-width="0.0"/>
    <path d="M 919.7482299804688 284.9686584472656 C 734.9852905273438 555.3199462890625 743.6486206054688 533.0017700195312 714.435302734375 524.7882690429688 C 682.6880493164062 521.0496215820312 698.7254028320312 521.6024169921875 629.9815673828125 510.6396789550781 C 582.4130859375 486.5843200683594 723.4292602539062 499.8520812988281 697.8772583007812 470.2149658203125 C 381.13543701171875 165.1344757080078 666.5554809570312 86.86604309082031 919.7482299804688 284.9686584472656" fill="rgb(133, 167, 177)" opacity="0.973106" stroke="rgb(90, 198, 180)" stroke-linecap="round" stroke-linejoin="round" stroke-opacity="0.02875976" stroke-width="0.0"/>
    <path d="M 346.8598327636719 454.5919494628906 C 352.11151123046875 454.5061950683594 351.0987243652344 473.41253662109375 320.4076843261719 491.59674072265625 C 313.7286376953125 491.50579833984375 317.2831726074219 485.0007629394531 317.6091003417969 465.3961486816406 C 317.30322265625 430.7490539550781 318.1748046875 401.58642578125 317.96710205078125 422.8699951171875 C 321.9950256347656 443.6385803222656 344.4129943847656 452.5637512207031 346.8598327636719 454.5919494628906" fill="rgb(11, 116, 10)" opacity="0.41684607" stroke="rgb(105, 226, 47)" stroke-linecap="round" stroke-linejoin="round" stroke-opacity="0.5291555" stroke-width="0.0"/>
    <path d="M 714.18359375 459.45465087890625 C 731.2590942382812 468.90435791015625 741.0745239257812 462.36474609375 727.0851440429688 454.3538818359375 C 712.744384765625 443.598876953125 728.5535278320312 459.051513671875 710.9404907226562 446.5680236816406 C 716.3257446289062 452.67230224609375 727.0762329101562 453.1423034667969 736.8829345703125 438.01800537109375 C 713.6021728515625 454.62738037109375 733.2548828125 442.5271911621094 714.18359375 459.45465087890625" fill="rgb(132, 166, 179)" opacity="0.85888916" stroke="rgb(145, 241, 184)" stroke-linecap="round" stroke-linejoin="round" stroke-opacity="0.038196556" stroke-width="0.0"/>
    <path d="M 525.284423828125 112.07701110839844 C 517.291748046875 103.93534851074219 517.3963012695312 105.02922058105469 525.0045166015625 114.37512969970703 C 516.3656005859375 120.273193359375 516.0927734375 112.08980560302734 513.0632934570312 107.45304870605469 C 507.2260437011719 102.08123016357422 510.5274658203125 99.94769287109375 519.2451171875 81.70792388916016 C 527.3561401367188 90.05315399169922 527.7273559570312 98.23189544677734 525.284423828125 112.07701110839844" fill="rgb(133, 167, 180)" opacity="0.87920713" stroke="rgb(181, 50, 94)" stroke-linecap="round" stroke-linejoin="round" stroke-opacity="0.14883813" stroke-width="0.0"/>
  </g>
</svg>
