<?xml version="1.0" ?>
<svg height="768" version="1.1" width="768" xmlns="http://www.w3.org/2000/svg">
  <defs/>
  <g>
    <path d="M 766.820068359375 808.0113525390625 C 305.8843078613281 772.7876586914062 161.3442840576172 713.4049072265625 -42.621829986572266 664.7394409179688 C -3.9810385704040527 270.17303466796875 8.311235427856445 339.2752685546875 -3.074882745742798 -18.85575294494629 C 538.4714965820312 -23.474950790405273 612.673095703125 -16.914928436279297 794.1691284179688 2.3782613277435303 C 788.5914306640625 284.9244079589844 779.7975463867188 338.8821105957031 766.820068359375 808.0113525390625" fill="rgb(127, 163, 171)" opacity="0.98976296" stroke="rgb(12, 77, 72)" stroke-linecap="round" stroke-linejoin="round" stroke-opacity="0.61874783" stroke-width="0.0"/>
    <path d="M 407.51910400390625 326.38104248046875 C 543.456298828125 405.49310302734375 629.2885131835938 370.2155456542969 830.626708984375 644.07861328125 C 763.8097534179688 665.2874145507812 425.5214538574219 432.3739318847656 168.9444122314453 555.1621704101562 C 443.7283020019531 222.1393280029297 47.451011657714844 479.4230041503906 124.33751678466797 215.44044494628906 C 263.95355224609375 121.00135803222656 313.21673583984375 325.2373046875 407.51910400390625 326.38104248046875" fill="rgb(11, 96, 45)" opacity="0.758419" stroke="rgb(142, 239, 62)" stroke-linecap="round" stroke-linejoin="round" stroke-opacity="0.6742211" stroke-width="0.0"/>
    <path d="M 189.07473754882812 226.88197326660156 C 187.8761749267578 234.11741638183594 185.3885955810547 233.64810180664062 182.73965454101562 234.79261779785156 C 178.94769287109375 235.6402130126953 178.238525390625 232.816650390625 178.5874786376953 230.93226623535156 C 178.32952880859375 228.8753204345703 184.03732299804688 225.94920349121094 185.34442138671875 226.6840362548828 C 180.7284698486328 226.23101806640625 188.91299438476562 224.96331787109375 189.07473754882812 226.88197326660156" fill="rgb(0, 0, 1)" opacity="1.0" stroke="rgb(108, 227, 103)" stroke-linecap="round" stroke-linejoin="round" stroke-opacity="0.5134671" stroke-width="0.0"/>
    <path d="M 310.3690490722656 536.8281860351562 C 279.4005126953125 561.14404296875 348.9523620605469 497.0184326171875 211.82643127441406 535.3566284179688 C 208.571533203125 555.8878173828125 122.0123291015625 649.2450561523438 158.822265625 568.358642578125 C 261.9153747558594 453.1190490722656 149.6658172607422 548.808837890625 188.92489624023438 499.09356689453125 C 195.104248046875 494.55194091796875 332.8246154785156 481.88250732421875 310.3690490722656 536.8281860351562" fill="rgb(17, 14, 16)" opacity="1.0" stroke="rgb(4, 45, 250)" stroke-linecap="round" stroke-linejoin="round" stroke-opacity="0.9083855" stroke-width="0.0"/>
    <path d="M 696.4950561523438 485.3250427246094 C 762.9108276367188 567.603515625 799.9853515625 520.6705932617188 474.2550354003906 496.27508544921875 C 264.8927307128906 478.77484130859375 346.8360290527344 500.45294189453125 350.838623046875 456.8022155761719 C 405.94482421875 475.6500549316406 381.6402587890625 470.0838623046875 446.63055419921875 478.6423034667969 C 527.328125 484.8524169921875 513.396240234375 486.076416015625 696.4950561523438 485.3250427246094" fill="rgb(146, 173, 180)" opacity="0.89411587" stroke="rgb(18, 228, 169)" stroke-linecap="round" stroke-linejoin="round" stroke-opacity="0.1384647" stroke-width="0.0"/>
    <path d="M 367.9042663574219 767.4387817382812 C 128.74644470214844 795.0968627929688 118.65943908691406 783.0560302734375 11.796472549438477 777.82763671875 C -11.87857723236084 786.9454345703125 -15.19631576538086 788.1581420898438 -11.840224266052246 658.48681640625 C -2.4283480644226074 644.5791625976562 7.427586555480957 645.2306518554688 59.22209930419922 650.8165283203125 C 178.87940979003906 621.185302734375 261.69403076171875 517.0652465820312 367.9042663574219 767.4387817382812" fill="rgb(133, 167, 178)" opacity="1.0" stroke="rgb(159, 206, 116)" stroke-linecap="round" stroke-linejoin="round" stroke-opacity="0.08451085" stroke-width="0.0"/>
    <path d="M 253.6282196044922 347.712890625 C 337.9425964355469 432.4944763183594 312.620361328125 326.8682861328125 318.4709777832031 507.91534423828125 C 121.67224884033203 472.2238464355469 314.372802734375 489.28155517578125 213.4640350341797 416.5262756347656 C 128.73390197753906 273.9014587402344 257.8925476074219 335.078857421875 141.57131958007812 218.8776397705078 C 272.45037841796875 194.4606475830078 189.4690399169922 284.9452819824219 253.6282196044922 347.712890625" fill="rgb(218, 143, 84)" opacity="1.0" stroke="rgb(0, 105, 147)" stroke-linecap="round" stroke-linejoin="round" stroke-opacity="0.3611284" stroke-width="0.0"/>
    <path d="M 174.72079467773438 255.69126892089844 C 168.3921661376953 250.911376953125 102.131591796875 300.671875 159.80958557128906 343.9153137207031 C 125.69414520263672 342.5357971191406 108.42390441894531 308.585693359375 112.80421447753906 272.0599365234375 C 116.27833557128906 247.2863311767578 132.41009521484375 218.591064453125 157.322265625 216.2802734375 C 168.2713623046875 228.24681091308594 160.34442138671875 243.96815490722656 174.72079467773438 255.69126892089844" fill="rgb(10, 10, 11)" opacity="0.99958646" stroke="rgb(123, 164, 252)" stroke-linecap="round" stroke-linejoin="round" stroke-opacity="0.8283837" stroke-width="0.0"/>
    <path d="M 601.431640625 485.4317932128906 C 556.45361328125 490.26983642578125 519.8771362304688 499.0078125 485.59423828125 493.6271667480469 C 467.7471923828125 494.5315246582031 412.0788879394531 489.6364440917969 383.5790100097656 469.23297119140625 C 389.99945068359375 468.9309997558594 418.8162536621094 476.40509033203125 480.25238037109375 480.6599426269531 C 485.41351318359375 480.28570556640625 531.9022827148438 485.51446533203125 601.431640625 485.4317932128906" fill="rgb(226, 79, 16)" opacity="0.8098906" stroke="rgb(129, 124, 169)" stroke-linecap="round" stroke-linejoin="round" stroke-opacity="0.75878716" stroke-width="0.0"/>
  </g>
</svg>
