<?xml version="1.0" ?>
<svg height="768" version="1.1" width="768" xmlns="http://www.w3.org/2000/svg">
  <defs/>
  <g>
    <path d="M 766.820068359375 808.0113525390625 C 305.8843078613281 772.7876586914062 161.3442840576172 713.4049072265625 -42.621829986572266 664.7394409179688 C -3.9817862510681152 270.17303466796875 8.310309410095215 339.2752685546875 -3.075618028640747 -18.85575294494629 C 538.4714965820312 -23.474950790405273 612.673095703125 -16.914928436279297 794.1691284179688 2.3782613277435303 C 788.5914306640625 284.9244079589844 779.7975463867188 338.8821105957031 766.820068359375 808.0113525390625" fill="rgb(127, 163, 171)" opacity="0.9892887" stroke="rgb(12, 77, 72)" stroke-linecap="round" stroke-linejoin="round" stroke-opacity="0.61874783" stroke-width="0.0"/>
    <path d="M 407.3262634277344 326.2816162109375 C 543.647705078125 405.3998107910156 629.6909790039062 370.1343994140625 830.9578857421875 644.1178588867188 C 764.10791015625 665.3330688476562 425.91644287109375 432.7247314453125 169.0586395263672 554.9150390625 C 444.1147155761719 222.63351440429688 47.76529312133789 479.3665466308594 124.71452331542969 215.15106201171875 C 263.97857666015625 121.40001678466797 313.496826171875 325.2541809082031 407.3262634277344 326.2816162109375" fill="rgb(11, 97, 46)" opacity="0.75651467" stroke="rgb(142, 239, 62)" stroke-linecap="round" stroke-linejoin="round" stroke-opacity="0.6742211" stroke-width="0.0"/>
    <path d="M 189.08042907714844 226.8799591064453 C 187.87722778320312 234.1179656982422 185.38894653320312 233.64810180664062 182.73965454101562 234.79261779785156 C 178.94769287109375 235.6402130126953 178.238525390625 232.816650390625 178.5872344970703 230.93153381347656 C 178.3285369873047 228.87416076660156 184.03623962402344 225.94752502441406 185.34214782714844 226.67935180664062 C 180.7220001220703 226.22409057617188 188.91236877441406 224.9595947265625 189.08042907714844 226.8799591064453" fill="rgb(0, 0, 1)" opacity="1.0" stroke="rgb(108, 227, 103)" stroke-linecap="round" stroke-linejoin="round" stroke-opacity="0.5134671" stroke-width="0.0"/>
    <path d="M 310.3851013183594 536.7870483398438 C 279.35955810546875 561.1463012695312 348.9859924316406 497.02874755859375 211.90623474121094 535.3511352539062 C 208.51657104492188 555.8795776367188 122.01146697998047 649.2735595703125 158.84991455078125 568.3005981445312 C 261.89312744140625 453.16375732421875 149.69000244140625 548.767578125 188.9399871826172 499.0765380859375 C 194.87701416015625 494.404052734375 332.8883056640625 481.83905029296875 310.3851013183594 536.7870483398438" fill="rgb(17, 14, 16)" opacity="1.0" stroke="rgb(4, 45, 250)" stroke-linecap="round" stroke-linejoin="round" stroke-opacity="0.9083855" stroke-width="0.0"/>
    <path d="M 696.891845703125 485.3363342285156 C 763.1847534179688 567.7500610351562 801.016845703125 520.7758178710938 474.0917663574219 496.2537841796875 C 265.0005187988281 478.7931823730469 346.81976318359375 500.46923828125 350.8360595703125 456.8243103027344 C 406.09912109375 475.6183776855469 381.1624450683594 470.1274108886719 446.564208984375 478.7445373535156 C 528.5867309570312 484.9695739746094 513.2191772460938 485.9885559082031 696.891845703125 485.3363342285156" fill="rgb(145, 172, 179)" opacity="0.90179694" stroke="rgb(18, 228, 169)" stroke-linecap="round" stroke-linejoin="round" stroke-opacity="0.1384647" stroke-width="0.0"/>
    <path d="M 367.9647521972656 767.4453125 C 128.74644470214844 795.0968627929688 118.65943908691406 783.0560302734375 11.796472549438477 777.82763671875 C -11.87857723236084 786.9454345703125 -15.19631576538086 788.1581420898438 -11.842219352722168 658.1759643554688 C -2.4567434787750244 644.1454467773438 7.418712139129639 644.7808837890625 59.211971282958984 650.5400390625 C 178.89984130859375 621.166259765625 261.7273254394531 516.9124755859375 367.9647521972656 767.4453125" fill="rgb(133, 167, 178)" opacity="1.0" stroke="rgb(159, 206, 116)" stroke-linecap="round" stroke-linejoin="round" stroke-opacity="0.08451085" stroke-width="0.0"/>
    <path d="M 253.5773162841797 347.66900634765625 C 337.92498779296875 432.64935302734375 312.67425537109375 326.7381896972656 318.4477844238281 508.3457946777344 C 122.54898071289062 470.42242431640625 314.21343994140625 492.5787658691406 214.86952209472656 417.4200134277344 C 127.92072296142578 282.7132568359375 247.86135864257812 339.9825134277344 146.0619354248047 218.2209014892578 C 270.3432922363281 199.0229034423828 189.734619140625 284.4412536621094 253.5773162841797 347.66900634765625" fill="rgb(229, 136, 68)" opacity="0.99749166" stroke="rgb(0, 105, 147)" stroke-linecap="round" stroke-linejoin="round" stroke-opacity="0.3611284" stroke-width="0.0"/>
    <path d="M 176.3302001953125 257.174560546875 C 165.093994140625 246.36004638671875 103.20292663574219 311.59442138671875 164.49375915527344 344.314453125 C 125.24249267578125 344.46209716796875 109.32649230957031 309.0142517089844 112.5666732788086 274.2662353515625 C 116.41889190673828 242.0276641845703 135.1985626220703 219.4324493408203 157.40548706054688 216.3827362060547 C 169.2032012939453 230.13375854492188 159.3864288330078 243.82699584960938 176.3302001953125 257.174560546875" fill="rgb(10, 10, 11)" opacity="1.0" stroke="rgb(123, 164, 252)" stroke-linecap="round" stroke-linejoin="round" stroke-opacity="0.8283837" stroke-width="0.0"/>
    <path d="M 601.2666625976562 485.3370361328125 C 543.11083984375 492.5623779296875 518.9183959960938 498.48236083984375 483.59808349609375 493.6384582519531 C 465.5721740722656 494.4525146484375 411.0462341308594 488.875 383.9079895019531 469.4479675292969 C 389.4056701660156 468.6142272949219 408.43426513671875 475.3244934082031 479.92132568359375 480.50555419921875 C 477.4422912597656 479.59466552734375 541.7840576171875 486.6119384765625 601.2666625976562 485.3370361328125" fill="rgb(225, 80, 19)" opacity="0.8348829" stroke="rgb(129, 124, 169)" stroke-linecap="round" stroke-linejoin="round" stroke-opacity="0.75878716" stroke-width="0.0"/>
    <path d="M 192.718505859375 278.8132019042969 C 189.50990295410156 323.87786865234375 192.63339233398438 310.53900146484375 181.37408447265625 312.7602233886719 C 143.88937377929688 316.2590026855469 158.22154235839844 307.7616882324219 129.36557006835938 305.0388488769531 C 164.33670043945312 274.72088623046875 134.88232421875 293.99029541015625 162.6924285888672 263.1750793457031 C 170.4545440673828 261.8287048339844 192.98687744140625 272.9129943847656 192.718505859375 278.8132019042969" fill="rgb(6, 0, 5)" opacity="0.9348703" stroke="rgb(90, 232, 236)" stroke-linecap="round" stroke-linejoin="round" stroke-opacity="0.40865332" stroke-width="0.0"/>
    <path d="M 188.4796142578125 344.6759033203125 C 187.13975524902344 381.25396728515625 207.88592529296875 393.83209228515625 175.7460174560547 364.1004333496094 C 158.18942260742188 339.7461853027344 157.92611694335938 348.04156494140625 137.68154907226562 315.1093444824219 C 131.84129333496094 297.38372802734375 135.84864807128906 309.0140075683594 159.8882293701172 313.16668701171875 C 201.4629669189453 317.6159362792969 187.30909729003906 297.1407775878906 188.4796142578125 344.6759033203125" fill="rgb(134, 168, 178)" opacity="0.99036664" stroke="rgb(120, 37, 112)" stroke-linecap="round" stroke-linejoin="round" stroke-opacity="0.62810665" stroke-width="0.0"/>
    <path d="M 678.94677734375 459.1175231933594 C 662.4073486328125 465.1613464355469 649.7492065429688 459.27392578125 608.239990234375 455.3589782714844 C 581.5996704101562 451.91162109375 554.7283325195312 448.67657470703125 520.3522338867188 446.92828369140625 C 588.9324951171875 438.5999450683594 618.3242797851562 438.07843017578125 619.3589477539062 428.3752136230469 C 638.4256591796875 384.22698974609375 676.9450073242188 377.84271240234375 678.94677734375 459.1175231933594" fill="rgb(133, 169, 177)" opacity="0.9414197" stroke="rgb(114, 52, 147)" stroke-linecap="round" stroke-linejoin="round" stroke-opacity="0.060832683" stroke-width="0.0"/>
    <path d="M 253.4251251220703 492.69744873046875 C 256.0420227050781 492.4951477050781 256.2247314453125 494.6606140136719 239.41000366210938 494.2876281738281 C 197.51588439941406 494.0697326660156 196.9681854248047 500.9198303222656 187.607666015625 471.5575256347656 C 202.82180786132812 459.18548583984375 162.40196228027344 420.25421142578125 238.08688354492188 437.4681396484375 C 254.06304931640625 450.4840087890625 246.2015838623047 429.227294921875 253.4251251220703 492.69744873046875" fill="rgb(131, 167, 178)" opacity="0.98742" stroke="rgb(236, 81, 72)" stroke-linecap="round" stroke-linejoin="round" stroke-opacity="0.22636518" stroke-width="0.0"/>
    <path d="M 778.258056640625 543.6378173828125 C 788.0613403320312 561.7599487304688 784.4290161132812 565.6912231445312 771.9161376953125 618.9780883789062 C 697.5172729492188 632.7645874023438 608.93359375 555.6598510742188 409.94268798828125 492.8161926269531 C 690.9126586914062 511.2974853515625 769.9058837890625 542.4463500976562 755.1243896484375 535.863525390625 C 769.7779541015625 542.3458862304688 771.357421875 537.6886596679688 778.258056640625 543.6378173828125" fill="rgb(17, 110, 78)" opacity="0.90787846" stroke="rgb(203, 237, 151)" stroke-linecap="round" stroke-linejoin="round" stroke-opacity="0.023405533" stroke-width="0.0"/>
    <path d="M 206.61447143554688 255.71002197265625 C 187.84017944335938 215.9319610595703 220.33197021484375 238.72552490234375 193.2277069091797 269.6605529785156 C 151.39883422851562 237.39942932128906 166.62442016601562 210.1094207763672 186.19200134277344 247.77114868164062 C 199.53994750976562 195.17083740234375 168.96397399902344 256.2235107421875 163.0697784423828 215.9621124267578 C 219.12652587890625 201.65731811523438 242.64454650878906 268.6886291503906 206.61447143554688 255.71002197265625" fill="rgb(245, 255, 233)" opacity="0.922577" stroke="rgb(169, 187, 192)" stroke-linecap="round" stroke-linejoin="round" stroke-opacity="0.68430656" stroke-width="0.0"/>
    <path d="M 210.36196899414062 247.76016235351562 C 177.8622589111328 253.2780303955078 227.0144805908203 246.6839141845703 210.07369995117188 256.0727233886719 C 194.22738647460938 255.79541015625 203.90834045410156 260.1759338378906 198.31875610351562 244.99745178222656 C 182.91165161132812 237.0862579345703 223.63522338867188 231.53067016601562 200.15432739257812 243.09857177734375 C 202.43472290039062 245.4630584716797 215.30992126464844 239.78317260742188 210.36196899414062 247.76016235351562" fill="rgb(1, 3, 4)" opacity="0.93197995" stroke="rgb(156, 238, 232)" stroke-linecap="round" stroke-linejoin="round" stroke-opacity="0.48303482" stroke-width="0.0"/>
    <path d="M 698.5499267578125 481.5757141113281 C 699.2346801757812 471.1553649902344 699.2012329101562 486.9200744628906 690.864501953125 483.2866516113281 C 434.9321594238281 486.7906494140625 289.4363098144531 473.49468994140625 321.91339111328125 396.3907470703125 C 517.9080810546875 473.7808837890625 599.6010131835938 438.5578918457031 636.5648803710938 466.99591064453125 C 688.0704345703125 457.2135009765625 703.3314208984375 468.90283203125 698.5499267578125 481.5757141113281" fill="rgb(15, 85, 46)" opacity="0.8368727" stroke="rgb(225, 215, 138)" stroke-linecap="round" stroke-linejoin="round" stroke-opacity="0.46836582" stroke-width="0.0"/>
    <path d="M 157.45213317871094 266.3295593261719 C 136.48297119140625 288.5484924316406 159.4488067626953 277.3008117675781 132.38931274414062 298.3884582519531 C 145.3038330078125 298.98114013671875 151.25448608398438 274.82513427734375 151.77113342285156 274.7559814453125 C 163.42926025390625 268.7255554199219 153.86019897460938 249.36056518554688 195.01881408691406 276.85211181640625 C 181.6315155029297 258.8115539550781 156.49964904785156 255.36578369140625 157.45213317871094 266.3295593261719" fill="rgb(218, 221, 232)" opacity="0.94971156" stroke="rgb(241, 24, 224)" stroke-linecap="round" stroke-linejoin="round" stroke-opacity="0.9624787" stroke-width="0.0"/>
    <path d="M 543.9390258789062 546.72314453125 C 396.74456787109375 519.587158203125 354.65484619140625 524.896728515625 392.6614990234375 523.6720581054688 C 368.2418212890625 524.0504150390625 382.2011413574219 522.598388671875 320.2004089355469 520.5216064453125 C 317.4711608886719 469.9098205566406 330.2945251464844 491.572021484375 436.19268798828125 494.30694580078125 C 454.97052001953125 502.771484375 553.489501953125 483.5537109375 543.9390258789062 546.72314453125" fill="rgb(16, 106, 74)" opacity="0.86870784" stroke="rgb(91, 46, 159)" stroke-linecap="round" stroke-linejoin="round" stroke-opacity="0.64249396" stroke-width="0.0"/>
    <path d="M 650.6992797851562 29.95718002319336 C 596.6168212890625 485.4646911621094 451.26324462890625 204.9041290283203 138.34873962402344 186.27484130859375 C 65.2723617553711 460.2829284667969 -54.957557678222656 456.9342956542969 -33.06865310668945 -8.370362281799316 C 222.34024047851562 27.512372970581055 239.2292938232422 41.60595703125 26.81325912475586 0.04575951397418976 C 171.20191955566406 -33.98244094848633 336.2546691894531 -96.11006927490234 650.6992797851562 29.95718002319336" fill="rgb(133, 167, 178)" opacity="0.8579525" stroke="rgb(97, 216, 91)" stroke-linecap="round" stroke-linejoin="round" stroke-opacity="0.16990633" stroke-width="0.0"/>
    <path d="M 508.51495361328125 370.5435791015625 C 630.0387573242188 458.1679382324219 479.957275390625 480.1056213378906 278.9304504394531 371.4007873535156 C 255.05865478515625 353.97393798828125 254.5296173095703 351.48077392578125 233.2498016357422 316.4936828613281 C 207.86614990234375 264.5631408691406 250.43569946289062 265.2543640136719 188.75350952148438 189.60694885253906 C 342.40985107421875 214.947021484375 210.50238037109375 271.8402099609375 508.51495361328125 370.5435791015625" fill="rgb(0, 134, 32)" opacity="0.3775331" stroke="rgb(133, 2, 66)" stroke-linecap="round" stroke-linejoin="round" stroke-opacity="0.031605467" stroke-width="0.0"/>
  </g>
</svg>
