<?xml version="1.0" ?>
<svg height="768" version="1.1" width="768" xmlns="http://www.w3.org/2000/svg">
  <defs/>
  <g>
    <path d="M 766.820068359375 808.0113525390625 C 305.8843078613281 772.7876586914062 161.3442840576172 713.4049072265625 -42.621829986572266 664.7394409179688 C -3.9817862510681152 270.17303466796875 8.310309410095215 339.2752685546875 -3.075618028640747 -18.85575294494629 C 538.4714965820312 -23.474950790405273 612.673095703125 -16.914928436279297 794.1691284179688 2.3782613277435303 C 788.5914306640625 284.9244079589844 779.7975463867188 338.8821105957031 766.820068359375 808.0113525390625" fill="rgb(127, 163, 171)" opacity="0.9892887" stroke="rgb(12, 77, 72)" stroke-linecap="round" stroke-linejoin="round" stroke-opacity="0.61874783" stroke-width="0.0"/>
    <path d="M 407.3262634277344 326.2816162109375 C 543.647705078125 405.3998107910156 629.6909790039062 370.1343994140625 830.9578857421875 644.1178588867188 C 764.10791015625 665.3330688476562 425.91644287109375 432.7247314453125 169.0586395263672 554.9150390625 C 444.1147155761719 222.63351440429688 47.76529312133789 479.3665466308594 124.71452331542969 215.15106201171875 C 263.97857666015625 121.40001678466797 313.496826171875 325.2541809082031 407.3262634277344 326.2816162109375" fill="rgb(11, 97, 46)" opacity="0.75651467" stroke="rgb(142, 239, 62)" stroke-linecap="round" stroke-linejoin="round" stroke-opacity="0.6742211" stroke-width="0.0"/>
    <path d="M 189.08042907714844 226.8799591064453 C 187.87722778320312 234.1179656982422 185.38894653320312 233.64810180664062 182.73965454101562 234.79261779785156 C 178.94769287109375 235.6402130126953 178.238525390625 232.816650390625 178.5872344970703 230.93153381347656 C 178.3285369873047 228.87416076660156 184.03623962402344 225.94752502441406 185.34214782714844 226.67935180664062 C 180.7220001220703 226.22409057617188 188.91236877441406 224.9595947265625 189.08042907714844 226.8799591064453" fill="rgb(0, 0, 1)" opacity="1.0" stroke="rgb(108, 227, 103)" stroke-linecap="round" stroke-linejoin="round" stroke-opacity="0.5134671" stroke-width="0.0"/>
    <path d="M 310.3851013183594 536.7870483398438 C 279.35955810546875 561.1463012695312 348.9859924316406 497.02874755859375 211.90623474121094 535.3511352539062 C 208.51657104492188 555.8795776367188 122.01146697998047 649.2735595703125 158.84991455078125 568.3005981445312 C 261.89312744140625 453.16375732421875 149.69000244140625 548.767578125 188.9399871826172 499.0765380859375 C 194.87701416015625 494.404052734375 332.8883056640625 481.83905029296875 310.3851013183594 536.7870483398438" fill="rgb(17, 14, 16)" opacity="1.0" stroke="rgb(4, 45, 250)" stroke-linecap="round" stroke-linejoin="round" stroke-opacity="0.9083855" stroke-width="0.0"/>
    <path d="M 696.891845703125 485.3363342285156 C 763.1847534179688 567.7500610351562 801.016845703125 520.7758178710938 474.0917663574219 496.2537841796875 C 265.0005187988281 478.7931823730469 346.81976318359375 500.46923828125 350.8360595703125 456.8243103027344 C 406.09912109375 475.6183776855469 381.1624450683594 470.1274108886719 446.564208984375 478.7445373535156 C 528.5867309570312 484.9695739746094 513.2191772460938 485.9885559082031 696.891845703125 485.3363342285156" fill="rgb(145, 172, 179)" opacity="0.90179694" stroke="rgb(18, 228, 169)" stroke-linecap="round" stroke-linejoin="round" stroke-opacity="0.1384647" stroke-width="0.0"/>
    <path d="M 367.9647521972656 767.4453125 C 128.74644470214844 795.0968627929688 118.65943908691406 783.0560302734375 11.796472549438477 777.82763671875 C -11.87857723236084 786.9454345703125 -15.19631576538086 788.1581420898438 -11.842219352722168 658.1759643554688 C -2.4567434787750244 644.1454467773438 7.418712139129639 644.7808837890625 59.211971282958984 650.5400390625 C 178.89984130859375 621.166259765625 261.7273254394531 516.9124755859375 367.9647521972656 767.4453125" fill="rgb(133, 167, 178)" opacity="1.0" stroke="rgb(159, 206, 116)" stroke-linecap="round" stroke-linejoin="round" stroke-opacity="0.08451085" stroke-width="0.0"/>
    <path d="M 253.5773162841797 347.66900634765625 C 337.92498779296875 432.64935302734375 312.67425537109375 326.7381896972656 318.4477844238281 508.3457946777344 C 122.54898071289062 470.42242431640625 314.21343994140625 492.5787658691406 214.86952209472656 417.4200134277344 C 127.92072296142578 282.7132568359375 247.86135864257812 339.9825134277344 146.0619354248047 218.2209014892578 C 270.3432922363281 199.0229034423828 189.734619140625 284.4412536621094 253.5773162841797 347.66900634765625" fill="rgb(229, 136, 68)" opacity="0.99749166" stroke="rgb(0, 105, 147)" stroke-linecap="round" stroke-linejoin="round" stroke-opacity="0.3611284" stroke-width="0.0"/>
    <path d="M 176.3302001953125 257.174560546875 C 165.093994140625 246.36004638671875 103.20292663574219 311.59442138671875 164.49375915527344 344.314453125 C 125.24249267578125 344.46209716796875 109.32649230957031 309.0142517089844 112.5666732788086 274.2662353515625 C 116.41888427734375 242.0276641845703 135.1985626220703 219.4324493408203 157.40548706054688 216.3827362060547 C 169.2032012939453 230.13375854492188 159.3864288330078 243.82699584960938 176.3302001953125 257.174560546875" fill="rgb(10, 10, 11)" opacity="1.0" stroke="rgb(123, 164, 252)" stroke-linecap="round" stroke-linejoin="round" stroke-opacity="0.8283837" stroke-width="0.0"/>
    <path d="M 601.2666625976562 485.3370361328125 C 543.11083984375 492.5623779296875 518.9183959960938 498.48236083984375 483.59808349609375 493.6384582519531 C 465.5721740722656 494.4525146484375 411.0462341308594 488.875 383.9079895019531 469.4479675292969 C 389.4056701660156 468.6142272949219 408.43426513671875 475.3244934082031 479.92132568359375 480.50555419921875 C 477.4422912597656 479.59466552734375 541.7840576171875 486.6119384765625 601.2666625976562 485.3370361328125" fill="rgb(225, 80, 19)" opacity="0.834883" stroke="rgb(129, 124, 169)" stroke-linecap="round" stroke-linejoin="round" stroke-opacity="0.75878716" stroke-width="0.0"/>
    <path d="M 192.71849060058594 278.8132019042969 C 189.50970458984375 323.87786865234375 192.63333129882812 310.53900146484375 181.3741455078125 312.7602233886719 C 143.88941955566406 316.2590026855469 158.2211456298828 307.7616882324219 129.365234375 305.0388488769531 C 164.33900451660156 274.72088623046875 134.88092041015625 293.99029541015625 162.69143676757812 263.1750793457031 C 170.45562744140625 261.8287048339844 192.98715209960938 272.9129943847656 192.71849060058594 278.8132019042969" fill="rgb(6, 0, 5)" opacity="0.93483484" stroke="rgb(90, 232, 236)" stroke-linecap="round" stroke-linejoin="round" stroke-opacity="0.40865332" stroke-width="0.0"/>
    <path d="M 188.47976684570312 344.6761169433594 C 187.13995361328125 381.2532958984375 207.8867645263672 393.8321533203125 175.74655151367188 364.099853515625 C 158.18978881835938 339.7454833984375 157.92657470703125 348.0413818359375 137.68182373046875 315.10931396484375 C 131.8413848876953 297.38433837890625 135.84780883789062 309.01470947265625 159.88816833496094 313.1668395996094 C 201.4630126953125 317.61566162109375 187.30960083007812 297.1408386230469 188.47976684570312 344.6761169433594" fill="rgb(134, 168, 178)" opacity="0.990362" stroke="rgb(120, 37, 112)" stroke-linecap="round" stroke-linejoin="round" stroke-opacity="0.62810665" stroke-width="0.0"/>
    <path d="M 678.94677734375 459.11767578125 C 662.4072265625 465.1617736816406 649.7489624023438 459.2742614746094 608.2398071289062 455.3582763671875 C 581.6011352539062 451.9127502441406 554.7252807617188 448.6788330078125 520.3667602539062 446.9261474609375 C 588.9344482421875 438.6017761230469 618.3225708007812 438.0784912109375 619.3585205078125 428.3751220703125 C 638.4246215820312 384.2217712402344 676.9450073242188 377.84271240234375 678.94677734375 459.11767578125" fill="rgb(133, 169, 177)" opacity="0.9414079" stroke="rgb(114, 52, 147)" stroke-linecap="round" stroke-linejoin="round" stroke-opacity="0.060832683" stroke-width="0.0"/>
    <path d="M 253.4259796142578 492.69781494140625 C 256.0423278808594 492.4945983886719 256.22314453125 494.6593933105469 239.41026306152344 494.2890625 C 197.4752197265625 494.0708312988281 196.94471740722656 500.9257507324219 187.59376525878906 471.58770751953125 C 202.80911254882812 459.178955078125 162.4119110107422 420.1993713378906 238.08641052246094 437.46917724609375 C 254.06199645996094 450.4858093261719 246.20022583007812 429.22955322265625 253.4259796142578 492.69781494140625" fill="rgb(131, 167, 178)" opacity="0.9874148" stroke="rgb(236, 81, 72)" stroke-linecap="round" stroke-linejoin="round" stroke-opacity="0.22636518" stroke-width="0.0"/>
    <path d="M 778.2579345703125 543.6522216796875 C 788.0613403320312 561.7599487304688 784.4290161132812 565.6912231445312 771.94091796875 618.9713745117188 C 697.4815673828125 632.7700805664062 608.944580078125 555.6505126953125 409.98797607421875 492.82373046875 C 690.850830078125 511.2910461425781 769.9401245117188 542.4513549804688 755.1091918945312 535.8640747070312 C 769.779296875 542.3441162109375 771.3685913085938 537.6922607421875 778.2579345703125 543.6522216796875" fill="rgb(17, 110, 78)" opacity="0.9083201" stroke="rgb(203, 237, 151)" stroke-linecap="round" stroke-linejoin="round" stroke-opacity="0.023405533" stroke-width="0.0"/>
    <path d="M 206.55441284179688 255.6848907470703 C 187.8565216064453 216.00804138183594 220.37554931640625 238.7133331298828 193.22723388671875 269.64056396484375 C 151.3966064453125 237.39016723632812 166.6433868408203 210.0871124267578 186.1981964111328 247.7566680908203 C 199.53749084472656 195.150146484375 168.9558563232422 256.2237854003906 163.1292266845703 215.9437255859375 C 219.35829162597656 201.5791778564453 242.90635681152344 268.5094299316406 206.55441284179688 255.6848907470703" fill="rgb(246, 255, 233)" opacity="0.9239386" stroke="rgb(169, 187, 192)" stroke-linecap="round" stroke-linejoin="round" stroke-opacity="0.68430656" stroke-width="0.0"/>
    <path d="M 210.34066772460938 247.75831604003906 C 177.88107299804688 253.27093505859375 226.96142578125 246.6895294189453 210.11004638671875 256.03857421875 C 194.2091522216797 255.8384246826172 203.91921997070312 260.0753173828125 198.33714294433594 244.9922332763672 C 182.91934204101562 237.09242248535156 223.65774536132812 231.5387725830078 200.13760375976562 243.12091064453125 C 202.3928680419922 245.46127319335938 215.26718139648438 239.7637481689453 210.34066772460938 247.75831604003906" fill="rgb(1, 3, 4)" opacity="0.9319401" stroke="rgb(156, 238, 232)" stroke-linecap="round" stroke-linejoin="round" stroke-opacity="0.48303482" stroke-width="0.0"/>
    <path d="M 698.574951171875 481.4729919433594 C 699.23681640625 471.00958251953125 699.302978515625 486.97808837890625 690.8434448242188 483.2870788574219 C 434.30126953125 486.7416076660156 289.40264892578125 473.5548095703125 321.9239501953125 395.9996337890625 C 511.73919677734375 473.03741455078125 594.321533203125 437.5924987792969 635.173828125 467.4769287109375 C 687.6676025390625 456.76654052734375 703.4903564453125 468.9789123535156 698.574951171875 481.4729919433594" fill="rgb(15, 85, 45)" opacity="0.83371735" stroke="rgb(225, 215, 138)" stroke-linecap="round" stroke-linejoin="round" stroke-opacity="0.46836582" stroke-width="0.0"/>
    <path d="M 157.3574676513672 266.3315734863281 C 136.58480834960938 288.4886779785156 159.40811157226562 277.2535095214844 132.38031005859375 298.450439453125 C 145.24542236328125 299.0184020996094 151.29000854492188 274.82562255859375 151.74623107910156 274.7539367675781 C 163.29617309570312 268.791015625 153.94338989257812 249.3760528564453 195.00294494628906 276.8227233886719 C 182.21194458007812 259.2797546386719 156.586181640625 255.0100555419922 157.3574676513672 266.3315734863281" fill="rgb(218, 221, 232)" opacity="0.9509693" stroke="rgb(241, 24, 224)" stroke-linecap="round" stroke-linejoin="round" stroke-opacity="0.9624787" stroke-width="0.0"/>
    <path d="M 546.5054321289062 547.23046875 C 397.5803527832031 519.5628662109375 352.8055114746094 525.0198364257812 392.20166015625 523.8045043945312 C 367.11883544921875 524.0338134765625 382.7711181640625 522.5695190429688 320.2245788574219 520.5333862304688 C 317.4834899902344 469.9795837402344 330.60784912109375 491.5072326660156 435.8978576660156 494.3042297363281 C 460.4999084472656 502.0614318847656 557.1865234375 485.5374755859375 546.5054321289062 547.23046875" fill="rgb(16, 106, 74)" opacity="0.8691191" stroke="rgb(91, 46, 159)" stroke-linecap="round" stroke-linejoin="round" stroke-opacity="0.64249396" stroke-width="0.0"/>
    <path d="M 655.2752075195312 31.92140007019043 C 582.6245727539062 512.84912109375 438.5378112792969 197.34677124023438 137.54440307617188 189.230712890625 C 66.5112533569336 457.95281982421875 -64.42412567138672 456.4075927734375 -33.13624954223633 -8.454782485961914 C 222.6123504638672 25.81888771057129 239.6333465576172 40.053401947021484 26.82210922241211 -0.48223763704299927 C 171.35903930664062 -34.14146041870117 339.0083923339844 -99.36573028564453 655.2752075195312 31.92140007019043" fill="rgb(133, 167, 178)" opacity="0.85740227" stroke="rgb(97, 216, 91)" stroke-linecap="round" stroke-linejoin="round" stroke-opacity="0.16990633" stroke-width="0.0"/>
    <path d="M 461.95147705078125 352.2898254394531 C 694.5372924804688 445.5558776855469 495.5372314453125 495.7339172363281 277.3597412109375 370.0401306152344 C 253.64990234375 352.2606506347656 256.0421447753906 352.7603759765625 232.0457763671875 313.78631591796875 C 206.6639862060547 254.6022186279297 255.8597869873047 234.5029754638672 164.7165069580078 203.68385314941406 C 333.5940246582031 242.02365112304688 188.75987243652344 247.0443115234375 461.95147705078125 352.2898254394531" fill="rgb(6, 132, 44)" opacity="0.4718898" stroke="rgb(133, 2, 66)" stroke-linecap="round" stroke-linejoin="round" stroke-opacity="0.031605467" stroke-width="0.0"/>
    <path d="M 533.5603637695312 11.883543968200684 C 521.3106689453125 -3.7135021686553955 516.646240234375 -2.313483953475952 525.8873291015625 20.436878204345703 C 531.5325927734375 0.5979796648025513 525.5911865234375 -3.7908973693847656 514.217041015625 6.028849124908447 C 518.3114013671875 -2.8176639080047607 521.7811279296875 -3.542022943496704 524.8761596679688 -3.901258945465088 C 528.5838012695312 -3.734251022338867 534.32568359375 -2.849409580230713 533.5603637695312 11.883543968200684" fill="rgb(134, 167, 177)" opacity="0.89508533" stroke="rgb(195, 229, 134)" stroke-linecap="round" stroke-linejoin="round" stroke-opacity="0.19052486" stroke-width="0.0"/>
    <path d="M 419.44219970703125 371.2608337402344 C 213.89559936523438 406.2972106933594 220.79489135742188 283.7408752441406 225.45909118652344 231.22683715820312 C 231.60887145996094 289.5432434082031 224.7679443359375 270.20428466796875 227.9805145263672 227.53219604492188 C 256.4131774902344 189.00341796875 138.97825622558594 240.6717987060547 175.7620391845703 191.6951446533203 C 281.3408203125 191.59046936035156 271.6203918457031 244.18141174316406 419.44219970703125 371.2608337402344" fill="rgb(21, 120, 54)" opacity="0.8685828" stroke="rgb(220, 171, 170)" stroke-linecap="round" stroke-linejoin="round" stroke-opacity="0.5647737" stroke-width="0.0"/>
    <path d="M 169.37405395507812 544.3573608398438 C 116.90179443359375 598.0162963867188 210.6067352294922 658.9913940429688 61.81167984008789 673.7669067382812 C -72.03174591064453 545.7135009765625 -15.957562446594238 506.3912048339844 -17.908876419067383 470.4441223144531 C 4.893157958984375 467.74310302734375 -28.725181579589844 452.5140380859375 -5.444385051727295 316.2960510253906 C 172.93092346191406 330.6497497558594 247.5151824951172 344.5239562988281 169.37405395507812 544.3573608398438" fill="rgb(133, 168, 180)" opacity="0.5676597" stroke="rgb(253, 60, 97)" stroke-linecap="round" stroke-linejoin="round" stroke-opacity="0.5251322" stroke-width="0.0"/>
    <path d="M 634.3826904296875 131.49964904785156 C 578.1880493164062 142.53662109375 563.6014404296875 150.98756408691406 581.4219970703125 141.41842651367188 C 577.5379638671875 126.09864807128906 577.8972778320312 126.45275115966797 566.9533081054688 164.28790283203125 C 560.0117797851562 121.3191146850586 568.4852294921875 110.44683837890625 585.2050170898438 120.0714111328125 C 584.306640625 127.81399536132812 599.7527465820312 93.66077423095703 634.3826904296875 131.49964904785156" fill="rgb(134, 169, 179)" opacity="0.88064295" stroke="rgb(77, 35, 218)" stroke-linecap="round" stroke-linejoin="round" stroke-opacity="0.98377246" stroke-width="0.0"/>
    <path d="M 755.8319702148438 805.3475952148438 C 273.8240661621094 714.36181640625 272.8243408203125 710.11083984375 557.69873046875 767.8912353515625 C 379.6338806152344 790.2882690429688 113.18834686279297 679.1734008789062 168.1999969482422 587.1181030273438 C 240.0223846435547 534.9751586914062 274.83154296875 557.0933837890625 375.4068908691406 523.4812622070312 C 638.4671630859375 544.9656372070312 772.7569580078125 626.5602416992188 755.8319702148438 805.3475952148438" fill="rgb(133, 167, 177)" opacity="0.97098863" stroke="rgb(254, 119, 95)" stroke-linecap="round" stroke-linejoin="round" stroke-opacity="0.6296265" stroke-width="0.0"/>
    <path d="M 205.82815551757812 796.4462280273438 C 107.4439468383789 764.8642578125 106.11406707763672 766.3013916015625 104.44097137451172 783.5800170898438 C 113.0750961303711 766.5654296875 109.1984634399414 769.4154052734375 91.46268463134766 767.6200561523438 C 99.57901000976562 769.9102172851562 78.29298400878906 759.30859375 120.52449798583984 730.7243041992188 C 260.6392822265625 716.5123901367188 306.15435791015625 779.380859375 205.82815551757812 796.4462280273438" fill="rgb(132, 166, 176)" opacity="0.90213734" stroke="rgb(56, 95, 224)" stroke-linecap="round" stroke-linejoin="round" stroke-opacity="0.6731263" stroke-width="0.0"/>
    <path d="M 916.6994018554688 310.65777587890625 C 748.1666259765625 557.9713745117188 741.1624145507812 532.1595458984375 717.2660522460938 525.5628051757812 C 687.541015625 521.3925170898438 701.040771484375 522.4658203125 639.437744140625 512.3405151367188 C 583.8480224609375 478.0476989746094 717.9765014648438 502.8581237792969 697.3102416992188 471.8658142089844 C 419.7754821777344 144.2091522216797 679.9362182617188 107.5589828491211 916.6994018554688 310.65777587890625" fill="rgb(132, 167, 177)" opacity="0.9154599" stroke="rgb(90, 198, 180)" stroke-linecap="round" stroke-linejoin="round" stroke-opacity="0.02875976" stroke-width="0.0"/>
  </g>
</svg>
