<?xml version="1.0" ?>
<svg height="768" version="1.1" width="768" xmlns="http://www.w3.org/2000/svg">
  <defs/>
  <g>
    <path d="M 766.820068359375 808.0113525390625 C 305.8843078613281 772.7876586914062 161.3442840576172 713.4049072265625 -42.621829986572266 664.7394409179688 C -3.980282783508301 270.17303466796875 8.312370300292969 339.2752685546875 -3.07413911819458 -18.85575294494629 C 538.4714965820312 -23.474950790405273 612.673095703125 -16.914928436279297 794.1691284179688 2.3782613277435303 C 788.5914306640625 284.9244079589844 779.7975463867188 338.8821105957031 766.820068359375 808.0113525390625" fill="rgb(127, 163, 171)" opacity="0.98928136" stroke="rgb(12, 77, 72)" stroke-linecap="round" stroke-linejoin="round" stroke-opacity="0.61874783" stroke-width="0.0"/>
    <path d="M 407.8062744140625 326.4413757324219 C 543.3638916015625 405.42120361328125 628.7891235351562 370.1468505859375 830.2243041992188 643.9439697265625 C 763.3218383789062 665.3126220703125 424.8846740722656 431.8887023925781 168.6719512939453 555.583740234375 C 443.0189514160156 221.3043212890625 46.89860534667969 479.8479309082031 123.68346405029297 215.92189025878906 C 263.9965515136719 120.2928237915039 312.74188232421875 325.203857421875 407.8062744140625 326.4413757324219" fill="rgb(12, 96, 46)" opacity="0.7554081" stroke="rgb(142, 239, 62)" stroke-linecap="round" stroke-linejoin="round" stroke-opacity="0.6742211" stroke-width="0.0"/>
    <path d="M 189.07473754882812 226.88197326660156 C 187.8761749267578 234.11741638183594 185.3885955810547 233.64810180664062 182.73965454101562 234.79261779785156 C 178.94769287109375 235.6402130126953 178.238525390625 232.816650390625 178.5874786376953 230.93226623535156 C 178.32952880859375 228.8753204345703 184.03732299804688 225.94920349121094 185.34442138671875 226.6840362548828 C 180.7284698486328 226.23101806640625 188.91299438476562 224.96331787109375 189.07473754882812 226.88197326660156" fill="rgb(0, 0, 1)" opacity="1.0" stroke="rgb(108, 227, 103)" stroke-linecap="round" stroke-linejoin="round" stroke-opacity="0.5134671" stroke-width="0.0"/>
    <path d="M 310.3382873535156 536.8834228515625 C 279.49493408203125 561.115478515625 348.87750244140625 496.9797058105469 211.76437377929688 535.392333984375 C 208.61949157714844 555.8636474609375 122.07073974609375 649.178955078125 158.7881317138672 568.449462890625 C 261.8719787597656 452.9109802246094 149.62046813964844 548.9638671875 188.95091247558594 499.0566101074219 C 195.32994079589844 494.58721923828125 332.7991638183594 481.8357849121094 310.3382873535156 536.8834228515625" fill="rgb(17, 14, 16)" opacity="1.0" stroke="rgb(4, 45, 250)" stroke-linecap="round" stroke-linejoin="round" stroke-opacity="0.9083855" stroke-width="0.0"/>
    <path d="M 695.8091430664062 485.2590026855469 C 762.3429565429688 567.3738403320312 798.4826049804688 520.3850708007812 474.424072265625 496.31646728515625 C 264.659912109375 478.68414306640625 346.95306396484375 500.52520751953125 350.8250732421875 456.66937255859375 C 405.0549011230469 475.97821044921875 383.0522766113281 469.0704345703125 447.22723388671875 478.25897216796875 C 526.63427734375 483.2989196777344 514.3892211914062 486.5847473144531 695.8091430664062 485.2590026855469" fill="rgb(174, 154, 150)" opacity="0.8312617" stroke="rgb(18, 228, 169)" stroke-linecap="round" stroke-linejoin="round" stroke-opacity="0.1384647" stroke-width="0.0"/>
    <path d="M 367.8216247558594 767.43408203125 C 128.74644470214844 795.0960693359375 118.65943908691406 783.0560302734375 11.796472549438477 777.82763671875 C -11.87857723236084 786.9454345703125 -15.19631576538086 788.1581420898438 -11.837738990783691 658.8366088867188 C -2.3974316120147705 645.05810546875 7.437128067016602 645.7294311523438 59.18864059448242 651.1505126953125 C 178.8482208251953 621.2294921875 261.6476745605469 517.2704467773438 367.8216247558594 767.43408203125" fill="rgb(133, 167, 178)" opacity="1.0" stroke="rgb(159, 206, 116)" stroke-linecap="round" stroke-linejoin="round" stroke-opacity="0.08451085" stroke-width="0.0"/>
    <path d="M 254.3275909423828 348.49932861328125 C 338.06402587890625 431.84814453125 312.5562438964844 327.5895690917969 318.435791015625 508.01629638671875 C 121.2265396118164 471.644775390625 314.30133056640625 491.8390197753906 211.756103515625 414.2656555175781 C 130.60780334472656 272.17388916015625 256.9269104003906 336.8988037109375 142.12451171875 218.349365234375 C 273.19305419921875 195.90223693847656 188.46005249023438 284.1387634277344 254.3275909423828 348.49932861328125" fill="rgb(218, 143, 84)" opacity="1.0" stroke="rgb(0, 105, 147)" stroke-linecap="round" stroke-linejoin="round" stroke-opacity="0.3611284" stroke-width="0.0"/>
    <path d="M 174.34002685546875 255.5935821533203 C 167.4691162109375 251.46481323242188 102.82257080078125 301.27960205078125 159.6339111328125 343.6330871582031 C 125.78858947753906 342.881103515625 107.5657730102539 307.90643310546875 113.13067626953125 269.4690856933594 C 119.11548614501953 243.33912658691406 128.16433715820312 225.46905517578125 156.02882385253906 215.11337280273438 C 168.98719787597656 226.655517578125 159.46629333496094 242.57879638671875 174.34002685546875 255.5935821533203" fill="rgb(9, 9, 10)" opacity="0.988883" stroke="rgb(123, 164, 252)" stroke-linecap="round" stroke-linejoin="round" stroke-opacity="0.8283837" stroke-width="0.0"/>
  </g>
</svg>
