<?xml version="1.0" ?>
<svg height="768" version="1.1" width="768" xmlns="http://www.w3.org/2000/svg">
  <defs/>
  <g>
    <path d="M 766.820068359375 808.0113525390625 C 305.8843078613281 772.7876586914062 161.3442840576172 713.4049072265625 -42.621829986572266 664.7394409179688 C -3.981785535812378 270.17303466796875 8.310309410095215 339.2752685546875 -3.0756165981292725 -18.85575294494629 C 538.4714965820312 -23.474950790405273 612.673095703125 -16.914928436279297 794.1691284179688 2.3782613277435303 C 788.5914306640625 284.9244079589844 779.7975463867188 338.8821105957031 766.820068359375 808.0113525390625" fill="rgb(127, 163, 171)" opacity="0.9892887" stroke="rgb(12, 77, 72)" stroke-linecap="round" stroke-linejoin="round" stroke-opacity="0.61874783" stroke-width="0.0"/>
    <path d="M 407.3262634277344 326.2816162109375 C 543.647705078125 405.3998107910156 629.6909790039062 370.1343994140625 830.9578857421875 644.1178588867188 C 764.10791015625 665.3330688476562 425.91644287109375 432.7247314453125 169.0586395263672 554.9150390625 C 444.1147155761719 222.63351440429688 47.76497268676758 479.3665466308594 124.71452331542969 215.15106201171875 C 263.97857666015625 121.40001678466797 313.496826171875 325.2541809082031 407.3262634277344 326.2816162109375" fill="rgb(11, 97, 46)" opacity="0.75651467" stroke="rgb(142, 239, 62)" stroke-linecap="round" stroke-linejoin="round" stroke-opacity="0.6742211" stroke-width="0.0"/>
    <path d="M 189.0799560546875 226.8799591064453 C 187.87722778320312 234.1179656982422 185.38894653320312 233.64810180664062 182.73965454101562 234.79261779785156 C 178.94769287109375 235.6402130126953 178.238525390625 232.816650390625 178.5872344970703 230.93153381347656 C 178.3285369873047 228.87416076660156 184.03623962402344 225.94752502441406 185.34230041503906 226.67935180664062 C 180.7225341796875 226.2242889404297 188.91236877441406 224.9595947265625 189.0799560546875 226.8799591064453" fill="rgb(0, 0, 1)" opacity="1.0" stroke="rgb(108, 227, 103)" stroke-linecap="round" stroke-linejoin="round" stroke-opacity="0.5134671" stroke-width="0.0"/>
    <path d="M 310.3851013183594 536.7870483398438 C 279.35955810546875 561.1463012695312 348.9859924316406 497.02874755859375 211.90625 535.3511352539062 C 208.51666259765625 555.8795776367188 122.01146697998047 649.2735595703125 158.84988403320312 568.3005981445312 C 261.89312744140625 453.16375732421875 149.6902313232422 548.767578125 188.9399871826172 499.0765380859375 C 194.87635803222656 494.40411376953125 332.8883056640625 481.83953857421875 310.3851013183594 536.7870483398438" fill="rgb(17, 14, 16)" opacity="1.0" stroke="rgb(4, 45, 250)" stroke-linecap="round" stroke-linejoin="round" stroke-opacity="0.9083855" stroke-width="0.0"/>
    <path d="M 696.891845703125 485.3363952636719 C 763.1847534179688 567.7500610351562 801.016845703125 520.7758178710938 474.0918884277344 496.2537536621094 C 265.0007019042969 478.7930603027344 346.8203430175781 500.4693298339844 350.8356628417969 456.8246154785156 C 406.0992431640625 475.61822509765625 381.1627502441406 470.1274108886719 446.564208984375 478.7445373535156 C 528.5867309570312 484.9695739746094 513.2191772460938 485.9886779785156 696.891845703125 485.3363952636719" fill="rgb(145, 172, 179)" opacity="0.9017229" stroke="rgb(18, 228, 169)" stroke-linecap="round" stroke-linejoin="round" stroke-opacity="0.1384647" stroke-width="0.0"/>
    <path d="M 367.9647521972656 767.4453125 C 128.74644470214844 795.0968627929688 118.65943908691406 783.0560302734375 11.796472549438477 777.82763671875 C -11.87857723236084 786.9454345703125 -15.19631576538086 788.1581420898438 -11.842219352722168 658.1759643554688 C -2.45633602142334 644.1454467773438 7.418712139129639 644.7808837890625 59.211971282958984 650.5400390625 C 178.89984130859375 621.166259765625 261.7273254394531 516.9124755859375 367.9647521972656 767.4453125" fill="rgb(133, 167, 178)" opacity="1.0" stroke="rgb(159, 206, 116)" stroke-linecap="round" stroke-linejoin="round" stroke-opacity="0.08451085" stroke-width="0.0"/>
    <path d="M 253.51124572753906 347.6194763183594 C 337.931640625 432.6463623046875 312.6634826660156 326.75775146484375 318.4438781738281 508.32391357421875 C 122.5643081665039 470.4740905761719 314.32147216796875 492.4442443847656 214.85073852539062 417.43743896484375 C 127.97966003417969 282.62274169921875 247.7164306640625 340.1240539550781 145.9674072265625 218.0506591796875 C 270.46661376953125 198.85450744628906 189.71820068359375 284.4169921875 253.51124572753906 347.6194763183594" fill="rgb(229, 137, 69)" opacity="0.9971882" stroke="rgb(0, 105, 147)" stroke-linecap="round" stroke-linejoin="round" stroke-opacity="0.3611284" stroke-width="0.0"/>
    <path d="M 176.18728637695312 257.0415954589844 C 165.0369415283203 246.24925231933594 103.07189178466797 311.3713073730469 164.3994598388672 344.3074645996094 C 125.23650360107422 344.4483337402344 109.32054138183594 309.0245056152344 112.56558990478516 274.2393798828125 C 116.38660430908203 242.15298461914062 135.30328369140625 219.36773681640625 157.31092834472656 216.20277404785156 C 169.22637939453125 230.14437866210938 159.4418487548828 243.8363037109375 176.18728637695312 257.0415954589844" fill="rgb(10, 11, 12)" opacity="1.0" stroke="rgb(123, 164, 252)" stroke-linecap="round" stroke-linejoin="round" stroke-opacity="0.8283837" stroke-width="0.0"/>
    <path d="M 601.269775390625 485.3356018066406 C 543.2257690429688 492.55438232421875 518.91015625 498.49127197265625 483.6129455566406 493.6427001953125 C 465.5858154296875 494.4588623046875 411.04302978515625 488.88336181640625 383.906982421875 469.4534606933594 C 389.43084716796875 468.6097717285156 408.5006408691406 475.3190612792969 479.9234924316406 480.49639892578125 C 477.4529113769531 479.6068115234375 541.7527465820312 486.5975646972656 601.269775390625 485.3356018066406" fill="rgb(224, 80, 19)" opacity="0.8338649" stroke="rgb(129, 124, 169)" stroke-linecap="round" stroke-linejoin="round" stroke-opacity="0.75878716" stroke-width="0.0"/>
    <path d="M 192.70465087890625 278.7943115234375 C 189.53829956054688 323.868896484375 192.6446990966797 310.5483093261719 181.3726043701172 312.7746276855469 C 143.88465881347656 316.2674560546875 158.24513244628906 307.6866149902344 129.65936279296875 305.2542419433594 C 164.40562438964844 274.93133544921875 135.0818328857422 294.25238037109375 162.95448303222656 263.287841796875 C 170.29217529296875 261.95587158203125 192.91043090820312 273.0215148925781 192.70465087890625 278.7943115234375" fill="rgb(6, 0, 5)" opacity="0.936489" stroke="rgb(90, 232, 236)" stroke-linecap="round" stroke-linejoin="round" stroke-opacity="0.40865332" stroke-width="0.0"/>
    <path d="M 188.49609375 344.5986633300781 C 187.18858337402344 381.2898864746094 207.83126831054688 393.6341857910156 175.87437438964844 364.1461181640625 C 158.27536010742188 339.8161926269531 157.88536071777344 347.8899230957031 137.69313049316406 315.0752258300781 C 131.79742431640625 297.3399963378906 135.8616485595703 309.0171813964844 159.9198455810547 313.1721496582031 C 201.45330810546875 317.6151123046875 187.29937744140625 297.1611328125 188.49609375 344.5986633300781" fill="rgb(134, 168, 178)" opacity="0.990401" stroke="rgb(120, 37, 112)" stroke-linecap="round" stroke-linejoin="round" stroke-opacity="0.62810665" stroke-width="0.0"/>
    <path d="M 678.9564208984375 459.24072265625 C 662.333251953125 465.1467590332031 649.5345458984375 459.27532958984375 608.3035278320312 455.352294921875 C 581.4976806640625 451.8325500488281 554.9240112304688 448.82354736328125 521.0313110351562 446.89202880859375 C 588.23193359375 438.5797119140625 618.6932373046875 438.19476318359375 619.3619384765625 428.2107238769531 C 639.9104614257812 385.2291259765625 676.4052734375 378.42779541015625 678.9564208984375 459.24072265625" fill="rgb(133, 169, 177)" opacity="0.9392654" stroke="rgb(114, 52, 147)" stroke-linecap="round" stroke-linejoin="round" stroke-opacity="0.060832683" stroke-width="0.0"/>
    <path d="M 253.44825744628906 492.6639404296875 C 255.81912231445312 492.4576416015625 256.4808654785156 494.636962890625 239.10755920410156 494.2814636230469 C 200.21604919433594 494.199951171875 198.45420837402344 500.3974609375 188.6825714111328 469.2657165527344 C 203.564453125 460.3943176269531 161.06405639648438 424.7405700683594 237.90185546875 437.49566650390625 C 254.0641632080078 450.5679626464844 246.3139190673828 428.93682861328125 253.44825744628906 492.6639404296875" fill="rgb(131, 167, 178)" opacity="0.9879722" stroke="rgb(236, 81, 72)" stroke-linecap="round" stroke-linejoin="round" stroke-opacity="0.22636518" stroke-width="0.0"/>
    <path d="M 778.2972412109375 541.9637451171875 C 788.0613403320312 561.7599487304688 784.4290161132812 565.6912231445312 771.8929443359375 620.1470947265625 C 702.7377319335938 631.6954345703125 603.0042114257812 558.5927124023438 427.43560791015625 493.8489685058594 C 704.5327758789062 514.579345703125 759.1336059570312 539.8914184570312 756.5953369140625 536.3370971679688 C 770.544921875 542.13916015625 769.7694702148438 537.7968139648438 778.2972412109375 541.9637451171875" fill="rgb(16, 109, 77)" opacity="0.9013305" stroke="rgb(203, 237, 151)" stroke-linecap="round" stroke-linejoin="round" stroke-opacity="0.023405533" stroke-width="0.0"/>
    <path d="M 216.70867919921875 256.9912109375 C 184.1870880126953 196.48728942871094 208.61959838867188 272.5141296386719 192.06459045410156 268.5165710449219 C 152.62289428710938 238.8761749267578 165.86419677734375 209.72891235351562 186.2847442626953 247.54486083984375 C 198.87088012695312 195.29893493652344 170.59925842285156 255.9895477294922 162.38490295410156 215.99681091308594 C 216.76535034179688 203.15013122558594 234.6076202392578 257.4810791015625 216.70867919921875 256.9912109375" fill="rgb(242, 255, 234)" opacity="0.89918834" stroke="rgb(169, 187, 192)" stroke-linecap="round" stroke-linejoin="round" stroke-opacity="0.68430656" stroke-width="0.0"/>
  </g>
</svg>
