<?xml version="1.0" ?>
<svg height="768" version="1.1" width="768" xmlns="http://www.w3.org/2000/svg">
  <defs/>
  <g>
    <path d="M 766.820068359375 808.0113525390625 C 305.8843078613281 772.7876586914062 161.3442840576172 713.4049072265625 -42.621829986572266 664.7394409179688 C -3.981785535812378 270.17303466796875 8.310309410095215 339.2752685546875 -3.0756165981292725 -18.85575294494629 C 538.4714965820312 -23.474950790405273 612.673095703125 -16.914928436279297 794.1691284179688 2.3782613277435303 C 788.5914306640625 284.9244079589844 779.7975463867188 338.8821105957031 766.820068359375 808.0113525390625" fill="rgb(127, 163, 171)" opacity="0.9892887" stroke="rgb(12, 77, 72)" stroke-linecap="round" stroke-linejoin="round" stroke-opacity="0.61874783" stroke-width="0.0"/>
    <path d="M 407.3262634277344 326.2816162109375 C 543.647705078125 405.3998107910156 629.6909790039062 370.1343994140625 830.9578857421875 644.1178588867188 C 764.10791015625 665.3330688476562 425.91644287109375 432.7247314453125 169.0586395263672 554.9150390625 C 444.1147155761719 222.63351440429688 47.76529312133789 479.3665466308594 124.71452331542969 215.15106201171875 C 263.97857666015625 121.40001678466797 313.496826171875 325.2541809082031 407.3262634277344 326.2816162109375" fill="rgb(11, 97, 46)" opacity="0.75651467" stroke="rgb(142, 239, 62)" stroke-linecap="round" stroke-linejoin="round" stroke-opacity="0.6742211" stroke-width="0.0"/>
    <path d="M 189.08042907714844 226.8799591064453 C 187.87722778320312 234.1179656982422 185.38894653320312 233.64810180664062 182.73965454101562 234.79261779785156 C 178.94769287109375 235.6402130126953 178.238525390625 232.816650390625 178.5872344970703 230.93153381347656 C 178.3285369873047 228.87416076660156 184.03623962402344 225.94752502441406 185.34214782714844 226.67935180664062 C 180.7220001220703 226.22409057617188 188.91236877441406 224.9595947265625 189.08042907714844 226.8799591064453" fill="rgb(0, 0, 1)" opacity="1.0" stroke="rgb(108, 227, 103)" stroke-linecap="round" stroke-linejoin="round" stroke-opacity="0.5134671" stroke-width="0.0"/>
    <path d="M 310.3851013183594 536.7870483398438 C 279.35955810546875 561.1463012695312 348.9859924316406 497.02874755859375 211.90623474121094 535.3511352539062 C 208.51657104492188 555.8795776367188 122.01146697998047 649.2735595703125 158.84991455078125 568.3005981445312 C 261.89312744140625 453.16375732421875 149.69000244140625 548.767578125 188.9399871826172 499.0765380859375 C 194.87701416015625 494.404052734375 332.8883056640625 481.83905029296875 310.3851013183594 536.7870483398438" fill="rgb(17, 14, 16)" opacity="1.0" stroke="rgb(4, 45, 250)" stroke-linecap="round" stroke-linejoin="round" stroke-opacity="0.9083855" stroke-width="0.0"/>
    <path d="M 696.891845703125 485.3363342285156 C 763.1847534179688 567.7500610351562 801.016845703125 520.7758178710938 474.0917663574219 496.2537841796875 C 265.0005187988281 478.7931823730469 346.81976318359375 500.46923828125 350.8360595703125 456.82489013671875 C 406.09912109375 475.6183776855469 381.1624450683594 470.1274108886719 446.564208984375 478.7445373535156 C 528.5867309570312 484.9695739746094 513.2191772460938 485.9885559082031 696.891845703125 485.3363342285156" fill="rgb(145, 172, 179)" opacity="0.90179896" stroke="rgb(18, 228, 169)" stroke-linecap="round" stroke-linejoin="round" stroke-opacity="0.1384647" stroke-width="0.0"/>
    <path d="M 367.9647521972656 767.4453125 C 128.74644470214844 795.0968627929688 118.65943908691406 783.0560302734375 11.796472549438477 777.82763671875 C -11.87857723236084 786.9454345703125 -15.19631576538086 788.1581420898438 -11.842219352722168 658.1759643554688 C -2.4565584659576416 644.1454467773438 7.418712139129639 644.7808837890625 59.211971282958984 650.5400390625 C 178.89984130859375 621.166259765625 261.7273254394531 516.9124755859375 367.9647521972656 767.4453125" fill="rgb(133, 167, 178)" opacity="1.0" stroke="rgb(159, 206, 116)" stroke-linecap="round" stroke-linejoin="round" stroke-opacity="0.08451085" stroke-width="0.0"/>
    <path d="M 253.55465698242188 347.6517028808594 C 337.9220275878906 432.6508483886719 312.6628112792969 326.7455749511719 318.4450988769531 508.33978271484375 C 122.55403137207031 470.4427795410156 314.255859375 492.5281982421875 214.86265563964844 417.42547607421875 C 127.9391860961914 282.6854553222656 247.7989044189453 340.0413513183594 146.01583862304688 218.16146850585938 C 270.38751220703125 198.96438598632812 189.72666931152344 284.440185546875 253.55465698242188 347.6517028808594" fill="rgb(229, 136, 68)" opacity="0.9972965" stroke="rgb(0, 105, 147)" stroke-linecap="round" stroke-linejoin="round" stroke-opacity="0.3611284" stroke-width="0.0"/>
    <path d="M 176.21302795410156 257.0539245605469 C 164.9839630126953 246.23623657226562 103.07815551757812 311.4429016113281 164.42269897460938 344.3056640625 C 125.23969268798828 344.4580383300781 109.3234634399414 309.0194091796875 112.56816101074219 274.2575988769531 C 116.40827941894531 242.0792236328125 135.241943359375 219.4039306640625 157.36769104003906 216.31216430664062 C 169.2157745361328 230.1351318359375 159.40957641601562 243.82752990722656 176.21302795410156 257.0539245605469" fill="rgb(10, 10, 12)" opacity="1.0" stroke="rgb(123, 164, 252)" stroke-linecap="round" stroke-linejoin="round" stroke-opacity="0.8283837" stroke-width="0.0"/>
    <path d="M 601.271240234375 485.33447265625 C 543.1558837890625 492.5601806640625 518.9144897460938 498.48638916015625 483.6017150878906 493.640625 C 465.57891845703125 494.4524230957031 411.04473876953125 488.8771667480469 383.90679931640625 469.4497375488281 C 389.42022705078125 468.60797119140625 408.4616394042969 475.32196044921875 479.9193420410156 480.5037841796875 C 477.44110107421875 479.6023254394531 541.7736206054688 486.60137939453125 601.271240234375 485.33447265625" fill="rgb(224, 80, 19)" opacity="0.83395165" stroke="rgb(129, 124, 169)" stroke-linecap="round" stroke-linejoin="round" stroke-opacity="0.75878716" stroke-width="0.0"/>
    <path d="M 192.7176513671875 278.8017272949219 C 189.5138702392578 323.86846923828125 192.6307373046875 310.54156494140625 181.36227416992188 312.7695617675781 C 143.89268493652344 316.26397705078125 158.2748260498047 307.6782531738281 129.67076110839844 305.2528381347656 C 164.4054412841797 274.9310607910156 135.07809448242188 294.2550048828125 162.9539794921875 263.2879638671875 C 170.27716064453125 261.97064208984375 192.91778564453125 273.0323181152344 192.7176513671875 278.8017272949219" fill="rgb(6, 0, 5)" opacity="0.93644345" stroke="rgb(90, 232, 236)" stroke-linecap="round" stroke-linejoin="round" stroke-opacity="0.40865332" stroke-width="0.0"/>
    <path d="M 188.49436950683594 344.6234130859375 C 187.17567443847656 381.2626037597656 207.852294921875 393.7460021972656 175.7885284423828 364.12506103515625 C 158.2260284423828 339.7746276855469 157.91082763671875 347.977294921875 137.68582153320312 315.093994140625 C 131.81259155273438 297.3756103515625 135.85696411132812 309.0157470703125 159.89730834960938 313.17425537109375 C 201.45574951171875 317.62847900390625 187.28887939453125 297.1596984863281 188.49436950683594 344.6234130859375" fill="rgb(134, 168, 178)" opacity="0.9902997" stroke="rgb(120, 37, 112)" stroke-linecap="round" stroke-linejoin="round" stroke-opacity="0.62810665" stroke-width="0.0"/>
    <path d="M 678.9942626953125 459.1930236816406 C 662.386962890625 465.15057373046875 649.6832275390625 459.26287841796875 608.2799072265625 455.3655090332031 C 581.6088256835938 451.8467102050781 554.7964477539062 448.81011962890625 521.0153198242188 446.8927917480469 C 588.6090698242188 438.5557556152344 618.4895629882812 438.15447998046875 619.3941650390625 428.29656982421875 C 639.1475219726562 384.70477294921875 676.68603515625 378.1172180175781 678.9942626953125 459.1930236816406" fill="rgb(133, 169, 177)" opacity="0.9390728" stroke="rgb(114, 52, 147)" stroke-linecap="round" stroke-linejoin="round" stroke-opacity="0.060832683" stroke-width="0.0"/>
    <path d="M 253.44935607910156 492.7276306152344 C 255.9553680419922 492.4747619628906 256.3571472167969 494.6336364746094 239.33645629882812 494.2868347167969 C 199.03924560546875 494.1417541503906 197.7762908935547 500.5743713378906 188.0308074951172 470.1217346191406 C 203.16419982910156 459.74530029296875 161.68360900878906 422.3982849121094 238.01104736328125 437.4890441894531 C 254.04444885253906 450.4991455078125 246.2611846923828 429.1617736816406 253.44935607910156 492.7276306152344" fill="rgb(131, 167, 178)" opacity="0.98780364" stroke="rgb(236, 81, 72)" stroke-linecap="round" stroke-linejoin="round" stroke-opacity="0.22636518" stroke-width="0.0"/>
    <path d="M 778.281982421875 542.8234252929688 C 788.0613403320312 561.7599487304688 784.4290161132812 565.6912231445312 771.5224609375 619.2689208984375 C 699.6908569335938 632.4262084960938 606.695068359375 556.7885131835938 416.9764099121094 493.19677734375 C 696.5298461914062 512.6454467773438 765.8408813476562 541.4566040039062 755.8624877929688 536.1319580078125 C 770.2430419921875 542.26904296875 770.6027221679688 537.7189331054688 778.281982421875 542.8234252929688" fill="rgb(16, 109, 77)" opacity="0.90000004" stroke="rgb(203, 237, 151)" stroke-linecap="round" stroke-linejoin="round" stroke-opacity="0.023405533" stroke-width="0.0"/>
    <path d="M 206.6044158935547 256.69903564453125 C 187.99993896484375 214.93338012695312 220.26812744140625 239.45828247070312 193.1898193359375 269.5241394042969 C 151.9983673095703 237.7103729248047 165.86959838867188 210.21075439453125 186.51046752929688 247.64833068847656 C 199.09576416015625 195.2315673828125 169.38430786132812 256.1238708496094 163.08966064453125 216.1170196533203 C 216.63345336914062 201.33546447753906 243.12619018554688 266.36138916015625 206.6044158935547 256.69903564453125" fill="rgb(245, 255, 233)" opacity="0.9182366" stroke="rgb(169, 187, 192)" stroke-linecap="round" stroke-linejoin="round" stroke-opacity="0.68430656" stroke-width="0.0"/>
    <path d="M 210.17111206054688 247.87351989746094 C 177.57144165039062 253.34445190429688 228.24453735351562 246.3939971923828 209.683349609375 256.34295654296875 C 194.1880645751953 255.35977172851562 203.8822021484375 261.2017822265625 198.38436889648438 244.83871459960938 C 182.95277404785156 237.09512329101562 223.95799255371094 231.5200653076172 199.8460235595703 243.47219848632812 C 204.73312377929688 245.07098388671875 215.24700927734375 240.15628051757812 210.17111206054688 247.87351989746094" fill="rgb(6, 8, 8)" opacity="0.94619584" stroke="rgb(156, 238, 232)" stroke-linecap="round" stroke-linejoin="round" stroke-opacity="0.48303482" stroke-width="0.0"/>
  </g>
</svg>
