<?xml version="1.0" ?>
<svg height="768" version="1.1" width="768" xmlns="http://www.w3.org/2000/svg">
  <defs/>
  <g>
    <path d="M 766.820068359375 808.0113525390625 C 305.8843078613281 772.7876586914062 161.3442840576172 713.4049072265625 -42.621829986572266 664.7394409179688 C -3.9817862510681152 270.17303466796875 8.310309410095215 339.2752685546875 -3.075618028640747 -18.85575294494629 C 538.4714965820312 -23.474950790405273 612.673095703125 -16.914928436279297 794.1691284179688 2.3782613277435303 C 788.5914306640625 284.9244079589844 779.7975463867188 338.8821105957031 766.820068359375 808.0113525390625" fill="rgb(127, 163, 171)" opacity="0.9892887" stroke="rgb(12, 77, 72)" stroke-linecap="round" stroke-linejoin="round" stroke-opacity="0.61874783" stroke-width="0.0"/>
    <path d="M 407.3262634277344 326.2816162109375 C 543.647705078125 405.3998107910156 629.6909790039062 370.1343994140625 830.9578857421875 644.1178588867188 C 764.10791015625 665.3330688476562 425.91644287109375 432.7247314453125 169.0586395263672 554.9150390625 C 444.1147155761719 222.63351440429688 47.76529312133789 479.3665466308594 124.71452331542969 215.15106201171875 C 263.97857666015625 121.40001678466797 313.496826171875 325.2541809082031 407.3262634277344 326.2816162109375" fill="rgb(11, 97, 46)" opacity="0.75651467" stroke="rgb(142, 239, 62)" stroke-linecap="round" stroke-linejoin="round" stroke-opacity="0.6742211" stroke-width="0.0"/>
    <path d="M 189.08042907714844 226.8799591064453 C 187.87722778320312 234.1179656982422 185.38894653320312 233.64810180664062 182.73965454101562 234.79261779785156 C 178.94769287109375 235.6402130126953 178.238525390625 232.816650390625 178.5872344970703 230.93153381347656 C 178.3285369873047 228.87416076660156 184.03623962402344 225.94752502441406 185.34214782714844 226.67935180664062 C 180.7220001220703 226.22409057617188 188.91236877441406 224.9595947265625 189.08042907714844 226.8799591064453" fill="rgb(0, 0, 1)" opacity="1.0" stroke="rgb(108, 227, 103)" stroke-linecap="round" stroke-linejoin="round" stroke-opacity="0.5134671" stroke-width="0.0"/>
    <path d="M 310.3851013183594 536.7870483398438 C 279.35955810546875 561.1463012695312 348.9859924316406 497.02874755859375 211.90623474121094 535.3511352539062 C 208.51657104492188 555.8795776367188 122.01146697998047 649.2735595703125 158.84991455078125 568.3005981445312 C 261.89312744140625 453.16375732421875 149.69000244140625 548.767578125 188.9399871826172 499.0765380859375 C 194.87701416015625 494.404052734375 332.8883056640625 481.83905029296875 310.3851013183594 536.7870483398438" fill="rgb(17, 14, 16)" opacity="1.0" stroke="rgb(4, 45, 250)" stroke-linecap="round" stroke-linejoin="round" stroke-opacity="0.9083855" stroke-width="0.0"/>
    <path d="M 696.891845703125 485.3363342285156 C 763.1847534179688 567.7500610351562 801.016845703125 520.7758178710938 474.0917663574219 496.2537841796875 C 265.0005187988281 478.7931823730469 346.81976318359375 500.46923828125 350.8360595703125 456.8243103027344 C 406.09912109375 475.6183776855469 381.1624450683594 470.1274108886719 446.564208984375 478.7445373535156 C 528.5867309570312 484.9695739746094 513.2191772460938 485.9885559082031 696.891845703125 485.3363342285156" fill="rgb(145, 172, 179)" opacity="0.90179694" stroke="rgb(18, 228, 169)" stroke-linecap="round" stroke-linejoin="round" stroke-opacity="0.1384647" stroke-width="0.0"/>
    <path d="M 367.9647521972656 767.4453125 C 128.74644470214844 795.0968627929688 118.65943908691406 783.0560302734375 11.796472549438477 777.82763671875 C -11.87857723236084 786.9454345703125 -15.19631576538086 788.1581420898438 -11.842219352722168 658.1759643554688 C -2.4567434787750244 644.1454467773438 7.418712139129639 644.7808837890625 59.211971282958984 650.5400390625 C 178.89984130859375 621.166259765625 261.7273254394531 516.9124755859375 367.9647521972656 767.4453125" fill="rgb(133, 167, 178)" opacity="1.0" stroke="rgb(159, 206, 116)" stroke-linecap="round" stroke-linejoin="round" stroke-opacity="0.08451085" stroke-width="0.0"/>
    <path d="M 253.5773162841797 347.66900634765625 C 337.92498779296875 432.64935302734375 312.67425537109375 326.7381896972656 318.4477844238281 508.3457946777344 C 122.54898071289062 470.42242431640625 314.21343994140625 492.5787658691406 214.86952209472656 417.4200134277344 C 127.92072296142578 282.7132568359375 247.86135864257812 339.9825134277344 146.0619354248047 218.2209014892578 C 270.3432922363281 199.0229034423828 189.734619140625 284.4412536621094 253.5773162841797 347.66900634765625" fill="rgb(229, 136, 68)" opacity="0.99749166" stroke="rgb(0, 105, 147)" stroke-linecap="round" stroke-linejoin="round" stroke-opacity="0.3611284" stroke-width="0.0"/>
    <path d="M 176.3302001953125 257.174560546875 C 165.093994140625 246.36004638671875 103.20292663574219 311.59442138671875 164.49375915527344 344.314453125 C 125.24249267578125 344.46209716796875 109.32649230957031 309.0142517089844 112.5666732788086 274.2662353515625 C 116.41888427734375 242.0276641845703 135.1985626220703 219.4324493408203 157.40548706054688 216.3827362060547 C 169.2032012939453 230.13375854492188 159.3864288330078 243.82699584960938 176.3302001953125 257.174560546875" fill="rgb(10, 10, 11)" opacity="1.0" stroke="rgb(123, 164, 252)" stroke-linecap="round" stroke-linejoin="round" stroke-opacity="0.8283837" stroke-width="0.0"/>
    <path d="M 601.2666625976562 485.3370361328125 C 543.11083984375 492.5623779296875 518.9183959960938 498.48236083984375 483.59808349609375 493.6384582519531 C 465.5721740722656 494.4525146484375 411.0462341308594 488.875 383.9079895019531 469.4479675292969 C 389.4056701660156 468.6142272949219 408.43426513671875 475.3244934082031 479.92132568359375 480.50555419921875 C 477.4422912597656 479.59466552734375 541.7840576171875 486.6119384765625 601.2666625976562 485.3370361328125" fill="rgb(225, 80, 19)" opacity="0.834883" stroke="rgb(129, 124, 169)" stroke-linecap="round" stroke-linejoin="round" stroke-opacity="0.75878716" stroke-width="0.0"/>
    <path d="M 192.71849060058594 278.8132019042969 C 189.50970458984375 323.87786865234375 192.63333129882812 310.53900146484375 181.3741455078125 312.7602233886719 C 143.88941955566406 316.2590026855469 158.2211456298828 307.7616882324219 129.365234375 305.0388488769531 C 164.33900451660156 274.72088623046875 134.88092041015625 293.99029541015625 162.69143676757812 263.1750793457031 C 170.45562744140625 261.8287048339844 192.98715209960938 272.9129943847656 192.71849060058594 278.8132019042969" fill="rgb(6, 0, 5)" opacity="0.93483484" stroke="rgb(90, 232, 236)" stroke-linecap="round" stroke-linejoin="round" stroke-opacity="0.40865332" stroke-width="0.0"/>
    <path d="M 188.47976684570312 344.6761169433594 C 187.13995361328125 381.2532958984375 207.8867645263672 393.8321533203125 175.74655151367188 364.099853515625 C 158.18978881835938 339.7454833984375 157.92657470703125 348.0413818359375 137.68182373046875 315.10931396484375 C 131.8413848876953 297.38433837890625 135.84780883789062 309.01470947265625 159.88816833496094 313.1668395996094 C 201.4630126953125 317.61566162109375 187.30960083007812 297.1408386230469 188.47976684570312 344.6761169433594" fill="rgb(134, 168, 178)" opacity="0.990362" stroke="rgb(120, 37, 112)" stroke-linecap="round" stroke-linejoin="round" stroke-opacity="0.62810665" stroke-width="0.0"/>
    <path d="M 678.94677734375 459.11767578125 C 662.4072265625 465.1617736816406 649.7489624023438 459.2742614746094 608.2398071289062 455.3582763671875 C 581.6011352539062 451.9127502441406 554.7252807617188 448.6788330078125 520.3667602539062 446.9261474609375 C 588.9344482421875 438.6017761230469 618.3225708007812 438.0784912109375 619.3585205078125 428.3751220703125 C 638.4246215820312 384.2217712402344 676.9450073242188 377.84271240234375 678.94677734375 459.11767578125" fill="rgb(133, 169, 177)" opacity="0.9414079" stroke="rgb(114, 52, 147)" stroke-linecap="round" stroke-linejoin="round" stroke-opacity="0.060832683" stroke-width="0.0"/>
    <path d="M 253.4259796142578 492.69781494140625 C 256.0423278808594 492.4945983886719 256.22314453125 494.6593933105469 239.41026306152344 494.2890625 C 197.4752197265625 494.0708312988281 196.94471740722656 500.9257507324219 187.59376525878906 471.58770751953125 C 202.80911254882812 459.178955078125 162.4119110107422 420.1993713378906 238.08641052246094 437.46917724609375 C 254.06199645996094 450.4858093261719 246.20022583007812 429.22955322265625 253.4259796142578 492.69781494140625" fill="rgb(131, 167, 178)" opacity="0.98741466" stroke="rgb(236, 81, 72)" stroke-linecap="round" stroke-linejoin="round" stroke-opacity="0.22636518" stroke-width="0.0"/>
    <path d="M 778.2579345703125 543.6522216796875 C 788.0613403320312 561.7599487304688 784.4290161132812 565.6912231445312 771.94091796875 618.9713745117188 C 697.4815673828125 632.7700805664062 608.944580078125 555.6505126953125 409.98797607421875 492.82373046875 C 690.850830078125 511.2910461425781 769.9401245117188 542.4513549804688 755.1091918945312 535.8640747070312 C 769.779296875 542.3441162109375 771.3685913085938 537.6922607421875 778.2579345703125 543.6522216796875" fill="rgb(17, 110, 78)" opacity="0.90831304" stroke="rgb(203, 237, 151)" stroke-linecap="round" stroke-linejoin="round" stroke-opacity="0.023405533" stroke-width="0.0"/>
    <path d="M 206.5516815185547 255.68238830566406 C 187.85601806640625 216.0068359375 220.37535095214844 238.71356201171875 193.226806640625 269.6410827636719 C 151.39663696289062 237.390625 166.64332580566406 210.08743286132812 186.197998046875 247.75579833984375 C 199.5368194580078 195.15032958984375 168.95755004882812 256.22412109375 163.12677001953125 215.9488983154297 C 219.33837890625 201.5968475341797 242.89125061035156 268.52301025390625 206.5516815185547 255.68238830566406" fill="rgb(246, 255, 233)" opacity="0.9238852" stroke="rgb(169, 187, 192)" stroke-linecap="round" stroke-linejoin="round" stroke-opacity="0.68430656" stroke-width="0.0"/>
    <path d="M 210.3403778076172 247.75726318359375 C 177.88023376464844 253.2710723876953 226.96163940429688 246.68936157226562 210.10842895507812 256.038330078125 C 194.21029663085938 255.83567810058594 203.91897583007812 260.07574462890625 198.33702087402344 244.99346923828125 C 182.9203338623047 237.09388732910156 223.6570281982422 231.5399932861328 200.13626098632812 243.11976623535156 C 202.39463806152344 245.46133422851562 215.2678680419922 239.76388549804688 210.3403778076172 247.75726318359375" fill="rgb(1, 3, 4)" opacity="0.9319233" stroke="rgb(156, 238, 232)" stroke-linecap="round" stroke-linejoin="round" stroke-opacity="0.48303482" stroke-width="0.0"/>
    <path d="M 698.572998046875 481.47515869140625 C 699.238037109375 471.0124206542969 699.302490234375 486.9751892089844 690.8441162109375 483.2861328125 C 434.3212585449219 486.7442932128906 289.4036865234375 473.55206298828125 321.92578125 396.01422119140625 C 511.86578369140625 473.109130859375 594.4265747070312 437.569091796875 635.1704711914062 467.47369384765625 C 687.675048828125 456.7677307128906 703.4849243164062 468.9739685058594 698.572998046875 481.47515869140625" fill="rgb(15, 85, 45)" opacity="0.8337323" stroke="rgb(225, 215, 138)" stroke-linecap="round" stroke-linejoin="round" stroke-opacity="0.46836582" stroke-width="0.0"/>
    <path d="M 157.35806274414062 266.330078125 C 136.57533264160156 288.4834899902344 159.4034423828125 277.2504577636719 132.37884521484375 298.4451904296875 C 145.24510192871094 299.0168151855469 151.2896728515625 274.82476806640625 151.74945068359375 274.75439453125 C 163.30624389648438 268.7972412109375 153.9505157470703 249.3792724609375 195.00430297851562 276.8259582519531 C 182.19252014160156 259.26666259765625 156.5814208984375 255.01885986328125 157.35806274414062 266.330078125" fill="rgb(218, 221, 232)" opacity="0.9509695" stroke="rgb(241, 24, 224)" stroke-linecap="round" stroke-linejoin="round" stroke-opacity="0.9624787" stroke-width="0.0"/>
    <path d="M 546.3433227539062 547.2244873046875 C 397.54315185546875 519.5061645507812 353.01580810546875 524.8341674804688 392.420654296875 523.759765625 C 367.1207275390625 524.0032958984375 382.7305603027344 522.5790405273438 320.22265625 520.5347900390625 C 317.4753112792969 469.9793701171875 330.6076965332031 491.5090637207031 435.9044494628906 494.30413818359375 C 460.2801818847656 502.0662536621094 556.9802856445312 485.4908447265625 546.3433227539062 547.2244873046875" fill="rgb(16, 106, 74)" opacity="0.8696779" stroke="rgb(91, 46, 159)" stroke-linecap="round" stroke-linejoin="round" stroke-opacity="0.64249396" stroke-width="0.0"/>
    <path d="M 654.50830078125 31.605497360229492 C 582.5472412109375 512.3159790039062 438.9086608886719 197.41815185546875 137.5303497314453 189.26425170898438 C 66.34630584716797 458.1050720214844 -63.83689880371094 457.1805419921875 -33.091487884521484 -8.234034538269043 C 222.61134338378906 25.838848114013672 239.62503051757812 40.10380935668945 26.78305435180664 -0.2879185974597931 C 171.35903930664062 -34.13945388793945 338.967041015625 -99.29175567626953 654.50830078125 31.605497360229492" fill="rgb(133, 167, 178)" opacity="0.8572683" stroke="rgb(97, 216, 91)" stroke-linecap="round" stroke-linejoin="round" stroke-opacity="0.16990633" stroke-width="0.0"/>
    <path d="M 462.3818359375 352.4442138671875 C 692.6708374023438 444.9773864746094 497.41815185546875 496.1759948730469 277.36700439453125 370.0462341308594 C 253.86862182617188 352.4562683105469 256.0164794921875 352.67181396484375 232.03152465820312 314.17559814453125 C 206.5669708251953 253.26202392578125 255.7648162841797 235.1256561279297 164.89779663085938 203.64324951171875 C 335.0606384277344 241.13458251953125 190.2138671875 248.1351318359375 462.3818359375 352.4442138671875" fill="rgb(5, 132, 44)" opacity="0.46348497" stroke="rgb(133, 2, 66)" stroke-linecap="round" stroke-linejoin="round" stroke-opacity="0.031605467" stroke-width="0.0"/>
    <path d="M 533.499267578125 11.878361701965332 C 521.3154296875 -3.7231931686401367 516.7066650390625 -2.3441715240478516 525.8555908203125 19.902141571044922 C 531.3743286132812 0.5471804141998291 525.6519165039062 -3.7052578926086426 514.20703125 6.005105495452881 C 518.3353881835938 -2.8077566623687744 521.7810668945312 -3.5478451251983643 524.8761596679688 -3.9070916175842285 C 528.6268310546875 -3.7554728984832764 534.3998413085938 -2.889608144760132 533.499267578125 11.878361701965332" fill="rgb(134, 167, 177)" opacity="0.8951332" stroke="rgb(195, 229, 134)" stroke-linecap="round" stroke-linejoin="round" stroke-opacity="0.19052486" stroke-width="0.0"/>
    <path d="M 418.9101867675781 371.3932800292969 C 214.09359741210938 406.3446350097656 220.82334899902344 283.6192932128906 225.4122314453125 231.3589324951172 C 230.79811096191406 287.3931579589844 225.57994079589844 268.2934875488281 227.9179229736328 221.36700439453125 C 270.0896301269531 194.8809051513672 176.92088317871094 243.79714965820312 175.32760620117188 191.7023162841797 C 280.7058410644531 191.51829528808594 271.3264465332031 243.22235107421875 418.9101867675781 371.3932800292969" fill="rgb(21, 120, 54)" opacity="0.87524605" stroke="rgb(220, 171, 170)" stroke-linecap="round" stroke-linejoin="round" stroke-opacity="0.5647737" stroke-width="0.0"/>
    <path d="M 171.7591552734375 539.5546264648438 C 124.65424346923828 606.23974609375 184.40611267089844 664.476806640625 19.612171173095703 682.9412231445312 C -65.9967041015625 541.803955078125 -15.232622146606445 505.898681640625 -17.891185760498047 470.431640625 C 4.893157958984375 467.74310302734375 -28.725181579589844 452.5140380859375 -4.609708309173584 320.68463134765625 C 173.50161743164062 330.2413635253906 243.98931884765625 342.0525817871094 171.7591552734375 539.5546264648438" fill="rgb(133, 168, 179)" opacity="0.69426733" stroke="rgb(253, 60, 97)" stroke-linecap="round" stroke-linejoin="round" stroke-opacity="0.5251322" stroke-width="0.0"/>
    <path d="M 634.2720947265625 131.302001953125 C 578.98095703125 144.79930114746094 563.4144287109375 146.96676635742188 581.1079711914062 141.8587646484375 C 579.3818969726562 128.0188751220703 578.960693359375 127.95603942871094 565.6967163085938 153.27154541015625 C 563.2053833007812 119.93563079833984 565.5761108398438 111.55089569091797 587.4557495117188 120.3233871459961 C 584.976806640625 128.66107177734375 598.9159545898438 93.29705047607422 634.2720947265625 131.302001953125" fill="rgb(134, 169, 179)" opacity="0.8861173" stroke="rgb(77, 35, 218)" stroke-linecap="round" stroke-linejoin="round" stroke-opacity="0.98377246" stroke-width="0.0"/>
  </g>
</svg>
