<?xml version="1.0" ?>
<svg height="768" version="1.1" width="768" xmlns="http://www.w3.org/2000/svg">
  <defs/>
  <g>
    <path d="M 766.820068359375 808.0113525390625 C 305.8843078613281 772.7876586914062 161.3442840576172 713.4049072265625 -42.621829986572266 664.7394409179688 C -3.9817862510681152 270.17303466796875 8.310309410095215 339.2752685546875 -3.075618028640747 -18.85575294494629 C 538.4714965820312 -23.474950790405273 612.673095703125 -16.914928436279297 794.1691284179688 2.3782613277435303 C 788.5914306640625 284.9244079589844 779.7975463867188 338.8821105957031 766.820068359375 808.0113525390625" fill="rgb(127, 163, 171)" opacity="0.9892887" stroke="rgb(12, 77, 72)" stroke-linecap="round" stroke-linejoin="round" stroke-opacity="0.61874783" stroke-width="0.0"/>
    <path d="M 407.3262634277344 326.2816162109375 C 543.647705078125 405.3998107910156 629.6909790039062 370.1343994140625 830.9578857421875 644.1178588867188 C 764.10791015625 665.3330688476562 425.91644287109375 432.7247314453125 169.0586395263672 554.9150390625 C 444.1147155761719 222.63351440429688 47.76529312133789 479.3665466308594 124.71452331542969 215.15106201171875 C 263.97857666015625 121.40001678466797 313.496826171875 325.2541809082031 407.3262634277344 326.2816162109375" fill="rgb(11, 97, 46)" opacity="0.75651467" stroke="rgb(142, 239, 62)" stroke-linecap="round" stroke-linejoin="round" stroke-opacity="0.6742211" stroke-width="0.0"/>
    <path d="M 189.08042907714844 226.8799591064453 C 187.87722778320312 234.1179656982422 185.38894653320312 233.64810180664062 182.73965454101562 234.79261779785156 C 178.94769287109375 235.6402130126953 178.238525390625 232.816650390625 178.5872344970703 230.93153381347656 C 178.3285369873047 228.87416076660156 184.03623962402344 225.94752502441406 185.34214782714844 226.67935180664062 C 180.7220001220703 226.22409057617188 188.91236877441406 224.9595947265625 189.08042907714844 226.8799591064453" fill="rgb(0, 0, 1)" opacity="1.0" stroke="rgb(108, 227, 103)" stroke-linecap="round" stroke-linejoin="round" stroke-opacity="0.5134671" stroke-width="0.0"/>
    <path d="M 310.3851013183594 536.7870483398438 C 279.35955810546875 561.1463012695312 348.9859924316406 497.02874755859375 211.90623474121094 535.3511352539062 C 208.51657104492188 555.8795776367188 122.01146697998047 649.2735595703125 158.84991455078125 568.3005981445312 C 261.89312744140625 453.16375732421875 149.69000244140625 548.767578125 188.9399871826172 499.0765380859375 C 194.87701416015625 494.404052734375 332.8883056640625 481.83905029296875 310.3851013183594 536.7870483398438" fill="rgb(17, 14, 16)" opacity="1.0" stroke="rgb(4, 45, 250)" stroke-linecap="round" stroke-linejoin="round" stroke-opacity="0.9083855" stroke-width="0.0"/>
    <path d="M 696.891845703125 485.3363342285156 C 763.1847534179688 567.7500610351562 801.016845703125 520.7758178710938 474.0917663574219 496.2537841796875 C 265.0005187988281 478.7931823730469 346.81976318359375 500.46923828125 350.8360595703125 456.8243103027344 C 406.09912109375 475.6183776855469 381.1624450683594 470.1274108886719 446.564208984375 478.7445373535156 C 528.5867309570312 484.9695739746094 513.2191772460938 485.9885559082031 696.891845703125 485.3363342285156" fill="rgb(145, 172, 179)" opacity="0.90179694" stroke="rgb(18, 228, 169)" stroke-linecap="round" stroke-linejoin="round" stroke-opacity="0.1384647" stroke-width="0.0"/>
    <path d="M 367.9647521972656 767.4453125 C 128.74644470214844 795.0968627929688 118.65943908691406 783.0560302734375 11.796472549438477 777.82763671875 C -11.87857723236084 786.9454345703125 -15.19631576538086 788.1581420898438 -11.842219352722168 658.1759643554688 C -2.4567434787750244 644.1454467773438 7.418712139129639 644.7808837890625 59.211971282958984 650.5400390625 C 178.89984130859375 621.166259765625 261.7273254394531 516.9124755859375 367.9647521972656 767.4453125" fill="rgb(133, 167, 178)" opacity="1.0" stroke="rgb(159, 206, 116)" stroke-linecap="round" stroke-linejoin="round" stroke-opacity="0.08451085" stroke-width="0.0"/>
    <path d="M 253.57595825195312 347.66900634765625 C 337.92498779296875 432.64935302734375 312.67425537109375 326.7381896972656 318.4477844238281 508.3457946777344 C 122.54898071289062 470.42242431640625 314.21343994140625 492.5787658691406 214.86952209472656 417.4200134277344 C 127.92072296142578 282.7132568359375 247.86135864257812 339.9825134277344 146.0619354248047 218.2209014892578 C 270.3432922363281 199.0229034423828 189.73350524902344 284.4412536621094 253.57595825195312 347.66900634765625" fill="rgb(229, 136, 68)" opacity="0.99748015" stroke="rgb(0, 105, 147)" stroke-linecap="round" stroke-linejoin="round" stroke-opacity="0.3611284" stroke-width="0.0"/>
    <path d="M 176.3302001953125 257.174560546875 C 165.093994140625 246.3600311279297 103.19988250732422 311.59442138671875 164.49375915527344 344.314453125 C 125.24249267578125 344.46209716796875 109.32649230957031 309.0142517089844 112.56780242919922 274.2662353515625 C 116.42283630371094 242.03070068359375 135.20065307617188 219.4324493408203 157.40548706054688 216.3827362060547 C 169.2032012939453 230.13375854492188 159.3864288330078 243.82699584960938 176.3302001953125 257.174560546875" fill="rgb(10, 10, 11)" opacity="1.0" stroke="rgb(123, 164, 252)" stroke-linecap="round" stroke-linejoin="round" stroke-opacity="0.8283837" stroke-width="0.0"/>
    <path d="M 601.2666625976562 485.3370361328125 C 543.11083984375 492.5623779296875 518.9183959960938 498.48236083984375 483.59808349609375 493.6384582519531 C 465.5721740722656 494.4525146484375 411.0462341308594 488.875 383.9079895019531 469.4479675292969 C 389.4056701660156 468.6142272949219 408.43426513671875 475.3244934082031 479.92132568359375 480.50555419921875 C 477.4422912597656 479.59466552734375 541.7840576171875 486.6119384765625 601.2666625976562 485.3370361328125" fill="rgb(225, 80, 19)" opacity="0.8348749" stroke="rgb(129, 124, 169)" stroke-linecap="round" stroke-linejoin="round" stroke-opacity="0.75878716" stroke-width="0.0"/>
    <path d="M 192.71849060058594 278.81268310546875 C 189.5100555419922 323.8779296875 192.6335906982422 310.538818359375 181.37342834472656 312.76043701171875 C 143.8881378173828 316.2589111328125 158.2227325439453 307.75994873046875 129.36846923828125 305.03900146484375 C 164.3292694091797 274.7184143066406 134.88877868652344 293.994384765625 162.69757080078125 263.17413330078125 C 170.4488983154297 261.829833984375 192.9849395751953 272.9150390625 192.71849060058594 278.81268310546875" fill="rgb(6, 0, 5)" opacity="0.93493986" stroke="rgb(90, 232, 236)" stroke-linecap="round" stroke-linejoin="round" stroke-opacity="0.40865332" stroke-width="0.0"/>
    <path d="M 188.47894287109375 344.67559814453125 C 187.13967895507812 381.2545471191406 207.8852081298828 393.83050537109375 175.74600219726562 364.1022644042969 C 158.18939208984375 339.74749755859375 157.92581176757812 348.0409851074219 137.68157958984375 315.1086120605469 C 131.84136962890625 297.3829650878906 135.85032653808594 309.0130310058594 159.88873291015625 313.1666259765625 C 201.4630126953125 317.61541748046875 187.30886840820312 297.14013671875 188.47894287109375 344.67559814453125" fill="rgb(134, 168, 178)" opacity="0.9903686" stroke="rgb(120, 37, 112)" stroke-linecap="round" stroke-linejoin="round" stroke-opacity="0.62810665" stroke-width="0.0"/>
    <path d="M 678.94677734375 459.1187438964844 C 662.4080810546875 465.1606750488281 649.7492065429688 459.27191162109375 608.2411499023438 455.35699462890625 C 581.5986328125 451.9082336425781 554.7386474609375 448.6725158691406 520.3142700195312 446.9357604980469 C 588.923828125 438.59552001953125 618.3299560546875 438.0781555175781 619.3616333007812 428.3749694824219 C 638.4515991210938 384.24224853515625 676.9450073242188 377.85211181640625 678.94677734375 459.1187438964844" fill="rgb(133, 169, 177)" opacity="0.9414037" stroke="rgb(114, 52, 147)" stroke-linecap="round" stroke-linejoin="round" stroke-opacity="0.060832683" stroke-width="0.0"/>
    <path d="M 253.42431640625 492.6952819824219 C 256.0420227050781 492.49420166015625 256.2278137207031 494.66094970703125 239.40994262695312 494.287109375 C 197.56741333007812 494.0708923339844 196.99644470214844 500.9105529785156 187.62106323242188 471.5111999511719 C 202.8311309814453 459.20074462890625 162.380859375 420.31793212890625 238.08367919921875 437.4688720703125 C 254.06190490722656 450.4851379394531 246.2021484375 429.2251281738281 253.42431640625 492.6952819824219" fill="rgb(131, 167, 178)" opacity="0.9874322" stroke="rgb(236, 81, 72)" stroke-linecap="round" stroke-linejoin="round" stroke-opacity="0.22636518" stroke-width="0.0"/>
    <path d="M 778.2586059570312 543.619873046875 C 788.0613403320312 561.7599487304688 784.4290161132812 565.6912231445312 771.8768920898438 618.9910278320312 C 697.57080078125 632.7592163085938 608.9119262695312 555.6768188476562 409.89031982421875 492.81585693359375 C 691.0048217773438 511.306884765625 769.8435668945312 542.445556640625 755.1502075195312 535.863525390625 C 769.770751953125 542.3567504882812 771.335205078125 537.6909790039062 778.2586059570312 543.619873046875" fill="rgb(17, 110, 78)" opacity="0.9071351" stroke="rgb(203, 237, 151)" stroke-linecap="round" stroke-linejoin="round" stroke-opacity="0.023405533" stroke-width="0.0"/>
    <path d="M 206.4639434814453 255.89183044433594 C 188.0281524658203 215.8475341796875 220.27806091308594 238.7294158935547 193.22003173828125 269.6746520996094 C 151.39962768554688 237.4010467529297 166.59732055664062 210.121826171875 186.1862335205078 247.76324462890625 C 199.53627014160156 195.16641235351562 168.9339599609375 256.2294006347656 163.0655517578125 215.98365783691406 C 218.91656494140625 201.47982788085938 242.14398193359375 268.6956481933594 206.4639434814453 255.89183044433594" fill="rgb(245, 255, 233)" opacity="0.9197226" stroke="rgb(169, 187, 192)" stroke-linecap="round" stroke-linejoin="round" stroke-opacity="0.68430656" stroke-width="0.0"/>
    <path d="M 210.35520935058594 247.77171325683594 C 177.88734436035156 253.28567504882812 227.0561065673828 246.6497802734375 210.02566528320312 256.13165283203125 C 194.21156311035156 255.76321411132812 203.88775634765625 260.2136535644531 198.32354736328125 244.95086669921875 C 182.8892822265625 237.09413146972656 223.64622497558594 231.52455139160156 200.15037536621094 243.0952911376953 C 202.41847229003906 245.48312377929688 215.3252410888672 239.7838897705078 210.35520935058594 247.77171325683594" fill="rgb(1, 3, 4)" opacity="0.9313456" stroke="rgb(156, 238, 232)" stroke-linecap="round" stroke-linejoin="round" stroke-opacity="0.48303482" stroke-width="0.0"/>
    <path d="M 698.533935546875 481.50128173828125 C 699.2286987304688 471.43231201171875 699.118408203125 486.72314453125 691.026611328125 483.36920166015625 C 435.4136047363281 486.6611022949219 289.41461181640625 473.6690368652344 321.8743896484375 396.39227294921875 C 528.1537475585938 472.29595947265625 606.4519653320312 441.2475280761719 637.895751953125 466.4573974609375 C 688.2450561523438 457.5369567871094 703.4093627929688 469.01043701171875 698.533935546875 481.50128173828125" fill="rgb(16, 88, 47)" opacity="0.8479007" stroke="rgb(225, 215, 138)" stroke-linecap="round" stroke-linejoin="round" stroke-opacity="0.46836582" stroke-width="0.0"/>
    <path d="M 157.4667205810547 266.2657165527344 C 136.43771362304688 288.5531311035156 159.4479522705078 277.3664855957031 132.354248046875 298.3766784667969 C 145.3813018798828 298.9431457519531 151.31561279296875 274.8954772949219 151.83413696289062 274.7830810546875 C 163.50550842285156 268.68756103515625 153.77627563476562 249.44546508789062 195.0647735595703 276.918701171875 C 180.85400390625 258.1682434082031 156.38729858398438 255.75425720214844 157.4667205810547 266.2657165527344" fill="rgb(219, 221, 232)" opacity="0.9488297" stroke="rgb(241, 24, 224)" stroke-linecap="round" stroke-linejoin="round" stroke-opacity="0.9624787" stroke-width="0.0"/>
    <path d="M 541.1529541015625 546.19580078125 C 395.7896728515625 519.71337890625 356.69927978515625 525.0077514648438 392.6920471191406 523.6278076171875 C 371.1679992675781 524.1505126953125 382.1186218261719 522.5604248046875 320.2207946777344 520.4544677734375 C 317.6795959472656 469.8944396972656 330.3171691894531 491.5924072265625 436.9744567871094 494.3693542480469 C 449.0769958496094 504.1521301269531 549.2726440429688 480.822265625 541.1529541015625 546.19580078125" fill="rgb(16, 106, 73)" opacity="0.8677689" stroke="rgb(91, 46, 159)" stroke-linecap="round" stroke-linejoin="round" stroke-opacity="0.64249396" stroke-width="0.0"/>
    <path d="M 637.61572265625 34.03129959106445 C 603.3627319335938 440.91192626953125 445.2437438964844 217.34823608398438 139.218017578125 182.96511840820312 C 66.87035369873047 457.5787658691406 -41.84613037109375 432.87725830078125 -30.713768005371094 -12.435868263244629 C 219.4685821533203 39.982017517089844 238.52122497558594 43.95752716064453 31.51576042175293 0.5076740980148315 C 169.6625213623047 -33.709598541259766 324.68756103515625 -83.86969757080078 637.61572265625 34.03129959106445" fill="rgb(133, 167, 178)" opacity="0.8566955" stroke="rgb(97, 216, 91)" stroke-linecap="round" stroke-linejoin="round" stroke-opacity="0.16990633" stroke-width="0.0"/>
  </g>
</svg>
