<?xml version="1.0" ?>
<svg height="768" version="1.1" width="768" xmlns="http://www.w3.org/2000/svg">
  <defs/>
  <g>
    <path d="M 766.7965087890625 807.8953247070312 C 306.2375793457031 772.5292358398438 161.8038787841797 713.1507568359375 -42.507999420166016 664.5433349609375 C -3.9206905364990234 270.1817626953125 8.404458999633789 339.328857421875 -3.011230945587158 -18.853490829467773 C 538.4714965820312 -23.474950790405273 612.673095703125 -16.914928436279297 794.1691284179688 2.3782613277435303 C 788.5914306640625 284.9244079589844 779.7975463867188 338.8821105957031 766.7965087890625 807.8953247070312" fill="rgb(131, 160, 163)" opacity="0.9881305" stroke="rgb(12, 77, 72)" stroke-linecap="round" stroke-linejoin="round" stroke-opacity="0.61874783" stroke-width="0.0"/>
    <path d="M 441.2615661621094 340.11480712890625 C 536.416015625 402.7327575683594 612.3270874023438 364.9632873535156 818.2039794921875 629.8432006835938 C 711.3871459960938 663.3606567382812 419.7491455078125 401.7086486816406 140.27127075195312 595.1152954101562 C 416.9131164550781 230.09255981445312 79.67508697509766 477.2675476074219 108.41925048828125 228.42185974121094 C 264.1191711425781 103.84650421142578 288.0362243652344 317.4491882324219 441.2615661621094 340.11480712890625" fill="rgb(19, 97, 61)" opacity="0.7185217" stroke="rgb(142, 239, 62)" stroke-linecap="round" stroke-linejoin="round" stroke-opacity="0.6742211" stroke-width="0.0"/>
    <path d="M 188.92538452148438 225.949951171875 C 188.76483154296875 232.4696044921875 185.3206787109375 234.0626678466797 181.85244750976562 234.8439178466797 C 179.0105743408203 235.0501708984375 178.2454071044922 233.13372802734375 178.4920196533203 230.87086486816406 C 178.4307861328125 229.19393920898438 184.09002685546875 225.4597930908203 185.78878784179688 227.07398986816406 C 181.32275390625 225.2587890625 189.68972778320312 226.57305908203125 188.92538452148438 225.949951171875" fill="rgb(4, 0, 2)" opacity="1.0" stroke="rgb(108, 227, 103)" stroke-linecap="round" stroke-linejoin="round" stroke-opacity="0.5134671" stroke-width="0.0"/>
  </g>
</svg>
