<?xml version="1.0" ?>
<svg height="768" version="1.1" width="768" xmlns="http://www.w3.org/2000/svg">
  <defs/>
  <g>
    <path d="M 766.820068359375 808.0113525390625 C 305.8843078613281 772.7876586914062 161.3442840576172 713.4049072265625 -42.621829986572266 664.7394409179688 C -3.981785535812378 270.17303466796875 8.310309410095215 339.2752685546875 -3.0756165981292725 -18.85575294494629 C 538.4714965820312 -23.474950790405273 612.673095703125 -16.914928436279297 794.1691284179688 2.3782613277435303 C 788.5914306640625 284.9244079589844 779.7975463867188 338.8821105957031 766.820068359375 808.0113525390625" fill="rgb(127, 163, 171)" opacity="0.9892887" stroke="rgb(12, 77, 72)" stroke-linecap="round" stroke-linejoin="round" stroke-opacity="0.61874783" stroke-width="0.0"/>
    <path d="M 407.3262634277344 326.2816162109375 C 543.647705078125 405.3998107910156 629.6909790039062 370.1343994140625 830.9578857421875 644.1178588867188 C 764.10791015625 665.3330688476562 425.91644287109375 432.7247314453125 169.0586395263672 554.9150390625 C 444.1147155761719 222.63351440429688 47.76529312133789 479.3665466308594 124.71452331542969 215.15106201171875 C 263.97857666015625 121.40001678466797 313.496826171875 325.2541809082031 407.3262634277344 326.2816162109375" fill="rgb(11, 97, 46)" opacity="0.75651467" stroke="rgb(142, 239, 62)" stroke-linecap="round" stroke-linejoin="round" stroke-opacity="0.6742211" stroke-width="0.0"/>
    <path d="M 189.08042907714844 226.8799591064453 C 187.87722778320312 234.1179656982422 185.38894653320312 233.64810180664062 182.73965454101562 234.79261779785156 C 178.94769287109375 235.6402130126953 178.238525390625 232.816650390625 178.5872344970703 230.93153381347656 C 178.3285369873047 228.87416076660156 184.03623962402344 225.94752502441406 185.34214782714844 226.67935180664062 C 180.7220001220703 226.22409057617188 188.91236877441406 224.9595947265625 189.08042907714844 226.8799591064453" fill="rgb(0, 0, 1)" opacity="1.0" stroke="rgb(108, 227, 103)" stroke-linecap="round" stroke-linejoin="round" stroke-opacity="0.5134671" stroke-width="0.0"/>
    <path d="M 310.3851013183594 536.7870483398438 C 279.35955810546875 561.1463012695312 348.9859924316406 497.02874755859375 211.90623474121094 535.3511352539062 C 208.51657104492188 555.8795776367188 122.01146697998047 649.2735595703125 158.84991455078125 568.3005981445312 C 261.89312744140625 453.16375732421875 149.69000244140625 548.767578125 188.9399871826172 499.0765380859375 C 194.87701416015625 494.404052734375 332.8883056640625 481.83905029296875 310.3851013183594 536.7870483398438" fill="rgb(17, 14, 16)" opacity="1.0" stroke="rgb(4, 45, 250)" stroke-linecap="round" stroke-linejoin="round" stroke-opacity="0.9083855" stroke-width="0.0"/>
    <path d="M 696.891845703125 485.3363342285156 C 763.1847534179688 567.7500610351562 801.016845703125 520.7758178710938 474.0917663574219 496.2537841796875 C 265.0005187988281 478.7931823730469 346.81976318359375 500.46923828125 350.8360595703125 456.8243103027344 C 406.09912109375 475.6183776855469 381.1624450683594 470.1274108886719 446.564208984375 478.7445373535156 C 528.5867309570312 484.9695739746094 513.2191772460938 485.9885559082031 696.891845703125 485.3363342285156" fill="rgb(145, 172, 179)" opacity="0.9017884" stroke="rgb(18, 228, 169)" stroke-linecap="round" stroke-linejoin="round" stroke-opacity="0.1384647" stroke-width="0.0"/>
    <path d="M 367.9647521972656 767.4453125 C 128.74644470214844 795.0968627929688 118.65943908691406 783.0560302734375 11.796472549438477 777.82763671875 C -11.87857723236084 786.9454345703125 -15.19631576538086 788.1581420898438 -11.842219352722168 658.1759643554688 C -2.4567434787750244 644.1454467773438 7.418712139129639 644.7808837890625 59.211971282958984 650.5400390625 C 178.89984130859375 621.166259765625 261.7273254394531 516.9124755859375 367.9647521972656 767.4453125" fill="rgb(133, 167, 178)" opacity="1.0" stroke="rgb(159, 206, 116)" stroke-linecap="round" stroke-linejoin="round" stroke-opacity="0.08451085" stroke-width="0.0"/>
    <path d="M 253.57476806640625 347.66900634765625 C 337.92498779296875 432.64935302734375 312.6742248535156 326.7381896972656 318.4477844238281 508.3457946777344 C 122.54936981201172 470.42242431640625 314.21343994140625 492.5779724121094 214.869384765625 417.4200134277344 C 127.92045593261719 282.7132568359375 247.8529815673828 339.9884338378906 146.0545196533203 218.21420288085938 C 270.34454345703125 199.0160675048828 189.73358154296875 284.4412536621094 253.57476806640625 347.66900634765625" fill="rgb(229, 136, 68)" opacity="0.9974349" stroke="rgb(0, 105, 147)" stroke-linecap="round" stroke-linejoin="round" stroke-opacity="0.3611284" stroke-width="0.0"/>
    <path d="M 176.30325317382812 257.1465148925781 C 165.06509399414062 246.33164978027344 103.17109680175781 311.5672607421875 164.47149658203125 344.31121826171875 C 125.24300384521484 344.46185302734375 109.32659912109375 309.0143737792969 112.56877136230469 274.2665710449219 C 116.42394256591797 242.03939819335938 135.20777893066406 219.42941284179688 157.40139770507812 216.3737030029297 C 169.2055206298828 230.13327026367188 159.3904571533203 243.8251495361328 176.30325317382812 257.1465148925781" fill="rgb(10, 10, 12)" opacity="1.0" stroke="rgb(123, 164, 252)" stroke-linecap="round" stroke-linejoin="round" stroke-opacity="0.8283837" stroke-width="0.0"/>
    <path d="M 601.26806640625 485.3377685546875 C 543.1134643554688 492.5621643066406 518.9180297851562 498.4820861816406 483.5980224609375 493.63861083984375 C 465.5726013183594 494.4525451660156 411.0453186035156 488.8756408691406 383.90771484375 469.44805908203125 C 389.408935546875 468.61175537109375 408.4394836425781 475.3222961425781 479.9222106933594 480.5042419433594 C 477.4432678222656 479.5940856933594 541.7832641601562 486.6099548339844 601.26806640625 485.3377685546875" fill="rgb(225, 80, 19)" opacity="0.83477235" stroke="rgb(129, 124, 169)" stroke-linecap="round" stroke-linejoin="round" stroke-opacity="0.75878716" stroke-width="0.0"/>
    <path d="M 192.71905517578125 278.7992858886719 C 189.50930786132812 323.8769226074219 192.6332550048828 310.53814697265625 181.3674774169922 312.76275634765625 C 143.87838745117188 316.2654113769531 158.24172973632812 307.72418212890625 129.4248809814453 305.0677490234375 C 164.2771759033203 274.7105407714844 134.9341583251953 294.0334777832031 162.7428741455078 263.15447998046875 C 170.403076171875 261.8536071777344 192.9728240966797 272.9460144042969 192.71905517578125 278.7992858886719" fill="rgb(6, 0, 5)" opacity="0.9356348" stroke="rgb(90, 232, 236)" stroke-linecap="round" stroke-linejoin="round" stroke-opacity="0.40865332" stroke-width="0.0"/>
    <path d="M 188.47988891601562 344.66693115234375 C 187.1444091796875 381.25604248046875 207.882568359375 393.8166198730469 175.7467498779297 364.112060546875 C 158.1894073486328 339.75726318359375 157.92221069335938 348.0345153808594 137.68148803710938 315.1061096191406 C 131.84161376953125 297.3790588378906 135.86317443847656 309.0087585449219 159.88963317871094 313.1685485839844 C 201.4616241455078 317.6148681640625 187.30560302734375 297.14007568359375 188.47988891601562 344.66693115234375" fill="rgb(134, 168, 178)" opacity="0.99038756" stroke="rgb(120, 37, 112)" stroke-linecap="round" stroke-linejoin="round" stroke-opacity="0.62810665" stroke-width="0.0"/>
    <path d="M 678.9502563476562 459.1001892089844 C 662.3856811523438 465.15264892578125 649.7186889648438 459.28076171875 608.2329711914062 455.36614990234375 C 581.6382446289062 451.8412780761719 554.778076171875 448.7326965332031 520.1514282226562 446.96484375 C 588.8778076171875 438.6166076660156 618.345947265625 438.0563659667969 619.3861083984375 428.34515380859375 C 638.5849609375 384.3330993652344 676.8928833007812 377.9026184082031 678.9502563476562 459.1001892089844" fill="rgb(133, 169, 177)" opacity="0.94116646" stroke="rgb(114, 52, 147)" stroke-linecap="round" stroke-linejoin="round" stroke-opacity="0.060832683" stroke-width="0.0"/>
    <path d="M 253.41790771484375 492.682373046875 C 256.0181579589844 492.47528076171875 256.2333068847656 494.65875244140625 239.38943481445312 494.2835388183594 C 197.8819122314453 494.0765380859375 197.15505981445312 500.8442077636719 187.6953125 471.2192687988281 C 202.89512634277344 459.3027648925781 162.2393798828125 420.7223815917969 238.07797241210938 437.4715881347656 C 254.07554626464844 450.4705810546875 246.2053680419922 429.1980895996094 253.41790771484375 492.682373046875" fill="rgb(131, 167, 178)" opacity="0.9875109" stroke="rgb(236, 81, 72)" stroke-linecap="round" stroke-linejoin="round" stroke-opacity="0.22636518" stroke-width="0.0"/>
    <path d="M 778.2656860351562 543.4602661132812 C 788.0613403320312 561.7599487304688 784.4290161132812 565.6912231445312 771.70361328125 618.99755859375 C 697.9459838867188 632.7018432617188 608.6881713867188 555.7722778320312 410.2703552246094 492.87872314453125 C 691.79345703125 511.4521484375 769.2634887695312 542.3910522460938 755.2697143554688 535.9041748046875 C 769.7567138671875 542.4108276367188 771.189453125 537.6890869140625 778.2656860351562 543.4602661132812" fill="rgb(16, 109, 77)" opacity="0.9004866" stroke="rgb(203, 237, 151)" stroke-linecap="round" stroke-linejoin="round" stroke-opacity="0.023405533" stroke-width="0.0"/>
    <path d="M 206.47781372070312 256.0332946777344 C 187.98809814453125 215.744384765625 220.26193237304688 238.74400329589844 193.2167510986328 269.68359375 C 151.54566955566406 237.2698211669922 166.45510864257812 210.14532470703125 186.19456481933594 247.72024536132812 C 199.5843505859375 195.10142517089844 169.0045166015625 256.2327575683594 163.06338500976562 215.978759765625 C 218.6055145263672 201.49417114257812 242.19711303710938 268.3732604980469 206.47781372070312 256.0332946777344" fill="rgb(245, 255, 233)" opacity="0.91986537" stroke="rgb(169, 187, 192)" stroke-linecap="round" stroke-linejoin="round" stroke-opacity="0.68430656" stroke-width="0.0"/>
    <path d="M 210.3257293701172 247.78213500976562 C 177.65553283691406 253.27389526367188 227.25692749023438 246.6420135498047 209.97373962402344 256.2033386230469 C 194.3381805419922 255.7118682861328 203.98036193847656 260.5893859863281 198.31324768066406 244.9431915283203 C 182.7689208984375 237.0409393310547 223.6961212158203 231.50466918945312 200.1060791015625 243.17758178710938 C 202.4037322998047 245.4105224609375 215.26748657226562 239.74252319335938 210.3257293701172 247.78213500976562" fill="rgb(1, 3, 4)" opacity="0.9315836" stroke="rgb(156, 238, 232)" stroke-linecap="round" stroke-linejoin="round" stroke-opacity="0.48303482" stroke-width="0.0"/>
    <path d="M 698.748046875 479.74517822265625 C 699.4939575195312 474.7126770019531 698.2281494140625 486.3976135253906 690.6402587890625 483.37860107421875 C 439.5439147949219 486.6531066894531 288.97332763671875 474.16748046875 321.88629150390625 396.90521240234375 C 576.285400390625 478.73492431640625 629.9404907226562 442.12286376953125 637.1644897460938 467.9551086425781 C 688.007568359375 455.847412109375 702.876708984375 470.19000244140625 698.748046875 479.74517822265625" fill="rgb(16, 90, 48)" opacity="0.85383964" stroke="rgb(225, 215, 138)" stroke-linecap="round" stroke-linejoin="round" stroke-opacity="0.46836582" stroke-width="0.0"/>
    <path d="M 157.71058654785156 265.9765319824219 C 136.2279052734375 288.5993957519531 159.68994140625 277.09356689453125 132.38429260253906 298.6611633300781 C 146.51161193847656 298.0570983886719 150.19654846191406 275.02130126953125 152.5089569091797 274.1581726074219 C 162.9499969482422 268.4897766113281 154.00927734375 249.32554626464844 195.66287231445312 277.14892578125 C 174.28756713867188 252.9707489013672 155.28439331054688 259.6800231933594 157.71058654785156 265.9765319824219" fill="rgb(220, 222, 234)" opacity="0.94389427" stroke="rgb(241, 24, 224)" stroke-linecap="round" stroke-linejoin="round" stroke-opacity="0.9624787" stroke-width="0.0"/>
  </g>
</svg>
