<?xml version="1.0" ?>
<svg height="768" version="1.1" width="768" xmlns="http://www.w3.org/2000/svg">
  <defs/>
  <g>
    <path d="M 766.820068359375 808.0113525390625 C 305.8843078613281 772.7876586914062 161.3442840576172 713.4049072265625 -42.621829986572266 664.7394409179688 C -3.9817862510681152 270.17303466796875 8.310309410095215 339.2752685546875 -3.075618028640747 -18.85575294494629 C 538.4714965820312 -23.474950790405273 612.673095703125 -16.914928436279297 794.1691284179688 2.3782613277435303 C 788.5914306640625 284.9244079589844 779.7975463867188 338.8821105957031 766.820068359375 808.0113525390625" fill="rgb(127, 163, 171)" opacity="0.9892887" stroke="rgb(12, 77, 72)" stroke-linecap="round" stroke-linejoin="round" stroke-opacity="0.61874783" stroke-width="0.0"/>
    <path d="M 407.3262634277344 326.2816162109375 C 543.647705078125 405.3998107910156 629.6909790039062 370.1343994140625 830.9578857421875 644.1178588867188 C 764.10791015625 665.3330688476562 425.91644287109375 432.7247314453125 169.0586395263672 554.9150390625 C 444.1147155761719 222.63351440429688 47.76529312133789 479.3665466308594 124.71452331542969 215.15106201171875 C 263.97857666015625 121.40001678466797 313.496826171875 325.2541809082031 407.3262634277344 326.2816162109375" fill="rgb(11, 97, 46)" opacity="0.75651467" stroke="rgb(142, 239, 62)" stroke-linecap="round" stroke-linejoin="round" stroke-opacity="0.6742211" stroke-width="0.0"/>
    <path d="M 189.08042907714844 226.8799591064453 C 187.87722778320312 234.1179656982422 185.38894653320312 233.64810180664062 182.73965454101562 234.79261779785156 C 178.94769287109375 235.6402130126953 178.238525390625 232.816650390625 178.5872344970703 230.93153381347656 C 178.3285369873047 228.87416076660156 184.03623962402344 225.94752502441406 185.34214782714844 226.67935180664062 C 180.7220001220703 226.22409057617188 188.91236877441406 224.9595947265625 189.08042907714844 226.8799591064453" fill="rgb(0, 0, 1)" opacity="1.0" stroke="rgb(108, 227, 103)" stroke-linecap="round" stroke-linejoin="round" stroke-opacity="0.5134671" stroke-width="0.0"/>
    <path d="M 310.3851013183594 536.7870483398438 C 279.35955810546875 561.1463012695312 348.9859924316406 497.02874755859375 211.90623474121094 535.3511352539062 C 208.51657104492188 555.8795776367188 122.01146697998047 649.2735595703125 158.84991455078125 568.3005981445312 C 261.89312744140625 453.16375732421875 149.69000244140625 548.767578125 188.9399871826172 499.0765380859375 C 194.87701416015625 494.404052734375 332.8883056640625 481.83905029296875 310.3851013183594 536.7870483398438" fill="rgb(17, 14, 16)" opacity="1.0" stroke="rgb(4, 45, 250)" stroke-linecap="round" stroke-linejoin="round" stroke-opacity="0.9083855" stroke-width="0.0"/>
    <path d="M 696.891845703125 485.3363342285156 C 763.1847534179688 567.7500610351562 801.016845703125 520.7758178710938 474.0917663574219 496.2537841796875 C 265.0005187988281 478.7931823730469 346.81976318359375 500.46923828125 350.8360595703125 456.8243103027344 C 406.09912109375 475.6183776855469 381.1624450683594 470.1274108886719 446.564208984375 478.7445373535156 C 528.5867309570312 484.9695739746094 513.2191772460938 485.9885559082031 696.891845703125 485.3363342285156" fill="rgb(145, 172, 179)" opacity="0.90179694" stroke="rgb(18, 228, 169)" stroke-linecap="round" stroke-linejoin="round" stroke-opacity="0.1384647" stroke-width="0.0"/>
    <path d="M 367.9647521972656 767.4453125 C 128.74644470214844 795.0968627929688 118.65943908691406 783.0560302734375 11.796472549438477 777.82763671875 C -11.87857723236084 786.9454345703125 -15.19631576538086 788.1581420898438 -11.842219352722168 658.1759643554688 C -2.4567434787750244 644.1454467773438 7.418712139129639 644.7808837890625 59.211971282958984 650.5400390625 C 178.89984130859375 621.166259765625 261.7273254394531 516.9124755859375 367.9647521972656 767.4453125" fill="rgb(133, 167, 178)" opacity="1.0" stroke="rgb(159, 206, 116)" stroke-linecap="round" stroke-linejoin="round" stroke-opacity="0.08451085" stroke-width="0.0"/>
    <path d="M 253.5773162841797 347.66900634765625 C 337.92498779296875 432.64935302734375 312.67425537109375 326.7381896972656 318.4477844238281 508.3457946777344 C 122.54898071289062 470.42242431640625 314.21343994140625 492.5787658691406 214.86952209472656 417.4200134277344 C 127.92072296142578 282.7132568359375 247.86135864257812 339.9825134277344 146.0619354248047 218.2209014892578 C 270.3432922363281 199.0229034423828 189.734619140625 284.4412536621094 253.5773162841797 347.66900634765625" fill="rgb(229, 136, 68)" opacity="0.99749166" stroke="rgb(0, 105, 147)" stroke-linecap="round" stroke-linejoin="round" stroke-opacity="0.3611284" stroke-width="0.0"/>
    <path d="M 176.3302001953125 257.174560546875 C 165.093994140625 246.36004638671875 103.20292663574219 311.59442138671875 164.49375915527344 344.314453125 C 125.24249267578125 344.46209716796875 109.32649230957031 309.0142517089844 112.5666732788086 274.2662353515625 C 116.41888427734375 242.0276641845703 135.1985626220703 219.4324493408203 157.40548706054688 216.3827362060547 C 169.2032012939453 230.13375854492188 159.3864288330078 243.82699584960938 176.3302001953125 257.174560546875" fill="rgb(10, 10, 11)" opacity="1.0" stroke="rgb(123, 164, 252)" stroke-linecap="round" stroke-linejoin="round" stroke-opacity="0.8283837" stroke-width="0.0"/>
    <path d="M 601.2666625976562 485.3370361328125 C 543.11083984375 492.5623779296875 518.9183959960938 498.48236083984375 483.59808349609375 493.6384582519531 C 465.5721740722656 494.4525146484375 411.0462341308594 488.875 383.9079895019531 469.4479675292969 C 389.4056701660156 468.6142272949219 408.43426513671875 475.3244934082031 479.92132568359375 480.50555419921875 C 477.4422912597656 479.59466552734375 541.7840576171875 486.6119384765625 601.2666625976562 485.3370361328125" fill="rgb(225, 80, 19)" opacity="0.834883" stroke="rgb(129, 124, 169)" stroke-linecap="round" stroke-linejoin="round" stroke-opacity="0.75878716" stroke-width="0.0"/>
    <path d="M 192.71849060058594 278.8132019042969 C 189.50970458984375 323.87786865234375 192.63333129882812 310.53900146484375 181.3741455078125 312.7602233886719 C 143.88941955566406 316.2590026855469 158.2211456298828 307.7616882324219 129.365234375 305.0388488769531 C 164.33900451660156 274.72088623046875 134.88092041015625 293.99029541015625 162.69143676757812 263.1750793457031 C 170.45562744140625 261.8287048339844 192.98715209960938 272.9129943847656 192.71849060058594 278.8132019042969" fill="rgb(6, 0, 5)" opacity="0.93483484" stroke="rgb(90, 232, 236)" stroke-linecap="round" stroke-linejoin="round" stroke-opacity="0.40865332" stroke-width="0.0"/>
    <path d="M 188.47976684570312 344.6761169433594 C 187.13995361328125 381.2532958984375 207.8867645263672 393.8321533203125 175.74655151367188 364.099853515625 C 158.18978881835938 339.7454833984375 157.92657470703125 348.0413818359375 137.68182373046875 315.10931396484375 C 131.8413848876953 297.38433837890625 135.84780883789062 309.01470947265625 159.88816833496094 313.1668395996094 C 201.4630126953125 317.61566162109375 187.30960083007812 297.1408386230469 188.47976684570312 344.6761169433594" fill="rgb(134, 168, 178)" opacity="0.990362" stroke="rgb(120, 37, 112)" stroke-linecap="round" stroke-linejoin="round" stroke-opacity="0.62810665" stroke-width="0.0"/>
    <path d="M 678.94677734375 459.11767578125 C 662.4072265625 465.1617736816406 649.7489624023438 459.2742614746094 608.2398071289062 455.3582763671875 C 581.6011352539062 451.9127502441406 554.7252807617188 448.6788330078125 520.3667602539062 446.9261474609375 C 588.9344482421875 438.6017761230469 618.3225708007812 438.0784912109375 619.3585205078125 428.3751220703125 C 638.4246215820312 384.2217712402344 676.9450073242188 377.84271240234375 678.94677734375 459.11767578125" fill="rgb(133, 169, 177)" opacity="0.9414079" stroke="rgb(114, 52, 147)" stroke-linecap="round" stroke-linejoin="round" stroke-opacity="0.060832683" stroke-width="0.0"/>
    <path d="M 253.4259796142578 492.69781494140625 C 256.0423278808594 492.4945983886719 256.22314453125 494.6593933105469 239.41026306152344 494.2890625 C 197.4752197265625 494.0708312988281 196.94471740722656 500.9257507324219 187.59376525878906 471.58770751953125 C 202.80911254882812 459.178955078125 162.4119110107422 420.1993713378906 238.08641052246094 437.46917724609375 C 254.06199645996094 450.4858093261719 246.20022583007812 429.22955322265625 253.4259796142578 492.69781494140625" fill="rgb(131, 167, 178)" opacity="0.9874148" stroke="rgb(236, 81, 72)" stroke-linecap="round" stroke-linejoin="round" stroke-opacity="0.22636518" stroke-width="0.0"/>
    <path d="M 778.2579345703125 543.6522216796875 C 788.0613403320312 561.7599487304688 784.4290161132812 565.6912231445312 771.94091796875 618.9713745117188 C 697.4815673828125 632.7700805664062 608.944580078125 555.6505126953125 409.98797607421875 492.82373046875 C 690.850830078125 511.2910461425781 769.9401245117188 542.4513549804688 755.1091918945312 535.8640747070312 C 769.779296875 542.3441162109375 771.3685913085938 537.6922607421875 778.2579345703125 543.6522216796875" fill="rgb(17, 110, 78)" opacity="0.9083201" stroke="rgb(203, 237, 151)" stroke-linecap="round" stroke-linejoin="round" stroke-opacity="0.023405533" stroke-width="0.0"/>
    <path d="M 206.55441284179688 255.6848907470703 C 187.8565216064453 216.00804138183594 220.37554931640625 238.7133331298828 193.22723388671875 269.64056396484375 C 151.3966064453125 237.39016723632812 166.6433868408203 210.0871124267578 186.1981964111328 247.7566680908203 C 199.53749084472656 195.150146484375 168.9558563232422 256.2237854003906 163.1292266845703 215.9437255859375 C 219.35829162597656 201.57952880859375 242.90635681152344 268.5094299316406 206.55441284179688 255.6848907470703" fill="rgb(246, 255, 233)" opacity="0.92391425" stroke="rgb(169, 187, 192)" stroke-linecap="round" stroke-linejoin="round" stroke-opacity="0.68430656" stroke-width="0.0"/>
    <path d="M 210.34056091308594 247.75811767578125 C 177.88095092773438 253.2709197998047 226.96144104003906 246.68955993652344 210.10997009277344 256.03857421875 C 194.20928955078125 255.8383026123047 203.91925048828125 260.0753173828125 198.33714294433594 244.99221801757812 C 182.91932678222656 237.09251403808594 223.65782165527344 231.5388946533203 200.13760375976562 243.12091064453125 C 202.39303588867188 245.46128845214844 215.26707458496094 239.7637481689453 210.34056091308594 247.75811767578125" fill="rgb(1, 3, 4)" opacity="0.9319373" stroke="rgb(156, 238, 232)" stroke-linecap="round" stroke-linejoin="round" stroke-opacity="0.48303482" stroke-width="0.0"/>
    <path d="M 698.574951171875 481.4729919433594 C 699.23681640625 471.00970458984375 699.302978515625 486.97772216796875 690.8434448242188 483.2869873046875 C 434.3021545410156 486.74169921875 289.4031677246094 473.5545654296875 321.92498779296875 396.0000915527344 C 511.75445556640625 473.04425048828125 594.3262939453125 437.59136962890625 635.173828125 467.4770202636719 C 687.6676025390625 456.76678466796875 703.4903564453125 468.97869873046875 698.574951171875 481.4729919433594" fill="rgb(15, 85, 45)" opacity="0.83366865" stroke="rgb(225, 215, 138)" stroke-linecap="round" stroke-linejoin="round" stroke-opacity="0.46836582" stroke-width="0.0"/>
    <path d="M 157.3570556640625 266.33056640625 C 136.58360290527344 288.48748779296875 159.40809631347656 277.25396728515625 132.38101196289062 298.4513244628906 C 145.2447967529297 299.01788330078125 151.2891845703125 274.8249206542969 151.74594116210938 274.75360107421875 C 163.2970428466797 268.79150390625 153.9434051513672 249.37677001953125 195.00355529785156 276.8231201171875 C 182.20999145507812 259.2781677246094 156.5855255126953 255.01051330566406 157.3570556640625 266.33056640625" fill="rgb(218, 221, 232)" opacity="0.95096844" stroke="rgb(241, 24, 224)" stroke-linecap="round" stroke-linejoin="round" stroke-opacity="0.9624787" stroke-width="0.0"/>
    <path d="M 546.4808349609375 547.2392578125 C 397.5680236816406 519.557861328125 352.83880615234375 524.9909057617188 392.2516784667969 523.8232421875 C 367.1161193847656 524.0244750976562 382.7647399902344 522.571533203125 320.2220764160156 520.5317993164062 C 317.4805908203125 469.9805603027344 330.6069641113281 491.50848388671875 435.89752197265625 494.3052978515625 C 460.4764099121094 502.0604248046875 557.1566162109375 485.5312805175781 546.4808349609375 547.2392578125" fill="rgb(16, 106, 74)" opacity="0.86959773" stroke="rgb(91, 46, 159)" stroke-linecap="round" stroke-linejoin="round" stroke-opacity="0.64249396" stroke-width="0.0"/>
    <path d="M 655.1755981445312 31.882858276367188 C 582.6109619140625 512.7781982421875 438.5791320800781 197.36102294921875 137.5388641357422 189.23265075683594 C 66.48627471923828 457.9624938964844 -64.35645294189453 456.491455078125 -33.129905700683594 -8.428472518920898 C 222.6123504638672 25.820676803588867 239.6333465576172 40.05887222290039 26.817157745361328 -0.457731157541275 C 171.35903930664062 -34.14146041870117 339.0083923339844 -99.35688018798828 655.1755981445312 31.882858276367188" fill="rgb(133, 167, 178)" opacity="0.8572768" stroke="rgb(97, 216, 91)" stroke-linecap="round" stroke-linejoin="round" stroke-opacity="0.16990633" stroke-width="0.0"/>
    <path d="M 461.9967956542969 352.3088073730469 C 694.2994995117188 445.4798889160156 495.775390625 495.802734375 277.3604736328125 370.0427551269531 C 253.67465209960938 352.28033447265625 256.0495300292969 352.74383544921875 232.05067443847656 313.8419494628906 C 206.6611785888672 254.50196838378906 255.8380126953125 234.50985717773438 164.7296905517578 203.68710327148438 C 333.7445373535156 242.03164672851562 188.94297790527344 247.15298461914062 461.9967956542969 352.3088073730469" fill="rgb(6, 132, 44)" opacity="0.47121626" stroke="rgb(133, 2, 66)" stroke-linecap="round" stroke-linejoin="round" stroke-opacity="0.031605467" stroke-width="0.0"/>
    <path d="M 533.5573120117188 11.883724212646484 C 521.3106689453125 -3.7129173278808594 516.6463623046875 -2.315711498260498 525.8771362304688 20.37308120727539 C 531.5028686523438 0.5933072566986084 525.5911865234375 -3.780590772628784 514.217041015625 6.025634765625 C 518.3114013671875 -2.816403865814209 521.7811279296875 -3.5426065921783447 524.8761596679688 -3.9018707275390625 C 528.5838012695312 -3.7363805770874023 534.3270874023438 -2.853178024291992 533.5573120117188 11.883724212646484" fill="rgb(134, 167, 177)" opacity="0.8950882" stroke="rgb(195, 229, 134)" stroke-linecap="round" stroke-linejoin="round" stroke-opacity="0.19052486" stroke-width="0.0"/>
    <path d="M 419.38421630859375 371.28662109375 C 213.93128967285156 406.3280334472656 220.79566955566406 283.709228515625 225.45350646972656 231.30807495117188 C 231.54405212402344 289.25018310546875 224.8413543701172 269.9267578125 227.967529296875 226.5718994140625 C 258.192626953125 189.0264434814453 142.26010131835938 240.830322265625 175.71600341796875 191.68179321289062 C 281.256591796875 191.5817108154297 271.55810546875 244.07955932617188 419.38421630859375 371.28662109375" fill="rgb(21, 120, 54)" opacity="0.8705187" stroke="rgb(220, 171, 170)" stroke-linecap="round" stroke-linejoin="round" stroke-opacity="0.5647737" stroke-width="0.0"/>
    <path d="M 169.4660186767578 543.989990234375 C 116.92932891845703 596.9698486328125 210.393798828125 659.2816772460938 60.95332336425781 675.7529296875 C -72.1468505859375 545.83056640625 -15.958884239196777 506.39227294921875 -17.908876419067383 470.4441223144531 C 4.893157958984375 467.74310302734375 -28.725181579589844 452.5140380859375 -5.315119743347168 316.5672302246094 C 172.93646240234375 330.5101318359375 247.57752990722656 344.3750305175781 169.4660186767578 543.989990234375" fill="rgb(133, 168, 180)" opacity="0.5668607" stroke="rgb(253, 60, 97)" stroke-linecap="round" stroke-linejoin="round" stroke-opacity="0.5251322" stroke-width="0.0"/>
    <path d="M 634.3766479492188 131.49703979492188 C 578.1731567382812 142.67518615722656 563.7261962890625 150.73910522460938 581.437255859375 141.43536376953125 C 577.5433349609375 126.24711608886719 578.146484375 126.56544494628906 566.8084106445312 163.37840270996094 C 560.2769165039062 121.2138671875 568.3045654296875 110.56101989746094 585.2178344726562 120.06585693359375 C 584.2781372070312 127.91717529296875 599.6762084960938 93.61627197265625 634.3766479492188 131.49703979492188" fill="rgb(134, 169, 179)" opacity="0.8808037" stroke="rgb(77, 35, 218)" stroke-linecap="round" stroke-linejoin="round" stroke-opacity="0.98377246" stroke-width="0.0"/>
    <path d="M 750.2163696289062 807.0401000976562 C 274.953857421875 710.203857421875 273.7185363769531 706.8402099609375 557.625244140625 767.8407592773438 C 374.95635986328125 787.886962890625 111.91280364990234 685.2108764648438 168.07916259765625 587.3342895507812 C 238.56842041015625 535.6334228515625 276.8886413574219 556.4501953125 376.6352233886719 523.4616088867188 C 639.41259765625 545.8594970703125 770.7640380859375 624.702392578125 750.2163696289062 807.0401000976562" fill="rgb(133, 167, 177)" opacity="0.97070867" stroke="rgb(254, 119, 95)" stroke-linecap="round" stroke-linejoin="round" stroke-opacity="0.6296265" stroke-width="0.0"/>
    <path d="M 199.479736328125 792.3366088867188 C 107.4439468383789 764.8642578125 106.11406707763672 766.3013916015625 104.44322204589844 783.5698852539062 C 113.09809875488281 766.3662719726562 109.24082946777344 768.8466796875 93.27545928955078 767.2171630859375 C 105.60482788085938 771.5752563476562 91.03591918945312 762.031982421875 119.80823516845703 729.8237915039062 C 255.20306396484375 720.2445068359375 297.6803283691406 769.5299072265625 199.479736328125 792.3366088867188" fill="rgb(132, 166, 176)" opacity="0.9010698" stroke="rgb(56, 95, 224)" stroke-linecap="round" stroke-linejoin="round" stroke-opacity="0.6731263" stroke-width="0.0"/>
  </g>
</svg>
