<?xml version="1.0" ?>
<svg height="768" version="1.1" width="768" xmlns="http://www.w3.org/2000/svg">
  <defs/>
  <g>
    <path d="M 766.820068359375 808.0113525390625 C 305.8843078613281 772.7876586914062 161.3442840576172 713.4049072265625 -42.621829986572266 664.7394409179688 C -3.981785535812378 270.17303466796875 8.310309410095215 339.2752685546875 -3.0756165981292725 -18.85575294494629 C 538.4714965820312 -23.474950790405273 612.673095703125 -16.914928436279297 794.1691284179688 2.3782613277435303 C 788.5914306640625 284.9244079589844 779.7975463867188 338.8821105957031 766.820068359375 808.0113525390625" fill="rgb(127, 163, 171)" opacity="0.9892887" stroke="rgb(12, 77, 72)" stroke-linecap="round" stroke-linejoin="round" stroke-opacity="0.61874783" stroke-width="0.0"/>
    <path d="M 407.3262634277344 326.2816162109375 C 543.647705078125 405.3998107910156 629.6909790039062 370.1343994140625 830.9578857421875 644.1178588867188 C 764.10791015625 665.3330688476562 425.91644287109375 432.7247314453125 169.0586395263672 554.9150390625 C 444.1147155761719 222.63351440429688 47.76529312133789 479.3665466308594 124.71452331542969 215.15106201171875 C 263.97857666015625 121.40001678466797 313.496826171875 325.2541809082031 407.3262634277344 326.2816162109375" fill="rgb(11, 97, 46)" opacity="0.75651467" stroke="rgb(142, 239, 62)" stroke-linecap="round" stroke-linejoin="round" stroke-opacity="0.6742211" stroke-width="0.0"/>
    <path d="M 189.08042907714844 226.8799591064453 C 187.87722778320312 234.1179656982422 185.38894653320312 233.64810180664062 182.73965454101562 234.79261779785156 C 178.94769287109375 235.6402130126953 178.238525390625 232.816650390625 178.5872344970703 230.93153381347656 C 178.3285369873047 228.87416076660156 184.03623962402344 225.94752502441406 185.34214782714844 226.67935180664062 C 180.7220001220703 226.22409057617188 188.91236877441406 224.9595947265625 189.08042907714844 226.8799591064453" fill="rgb(0, 0, 1)" opacity="1.0" stroke="rgb(108, 227, 103)" stroke-linecap="round" stroke-linejoin="round" stroke-opacity="0.5134671" stroke-width="0.0"/>
    <path d="M 310.3851013183594 536.7870483398438 C 279.35955810546875 561.1463012695312 348.9859924316406 497.02874755859375 211.90623474121094 535.3511352539062 C 208.51657104492188 555.8795776367188 122.01146697998047 649.2735595703125 158.84991455078125 568.3005981445312 C 261.89312744140625 453.16375732421875 149.69000244140625 548.767578125 188.9399871826172 499.0765380859375 C 194.87701416015625 494.404052734375 332.8883056640625 481.83905029296875 310.3851013183594 536.7870483398438" fill="rgb(17, 14, 16)" opacity="1.0" stroke="rgb(4, 45, 250)" stroke-linecap="round" stroke-linejoin="round" stroke-opacity="0.9083855" stroke-width="0.0"/>
    <path d="M 696.891845703125 485.3363342285156 C 763.1847534179688 567.7500610351562 801.016845703125 520.7758178710938 474.0917663574219 496.2537841796875 C 265.0005187988281 478.7931823730469 346.81976318359375 500.46923828125 350.8360595703125 456.8243103027344 C 406.09912109375 475.6183776855469 381.1624450683594 470.1274108886719 446.564208984375 478.7445373535156 C 528.5867309570312 484.9695739746094 513.2191772460938 485.9885559082031 696.891845703125 485.3363342285156" fill="rgb(145, 172, 179)" opacity="0.90179694" stroke="rgb(18, 228, 169)" stroke-linecap="round" stroke-linejoin="round" stroke-opacity="0.1384647" stroke-width="0.0"/>
    <path d="M 367.9647521972656 767.4453125 C 128.74644470214844 795.0968627929688 118.65943908691406 783.0560302734375 11.796472549438477 777.82763671875 C -11.87857723236084 786.9454345703125 -15.19631576538086 788.1581420898438 -11.842219352722168 658.1759643554688 C -2.4567434787750244 644.1454467773438 7.418712139129639 644.7808837890625 59.211971282958984 650.5400390625 C 178.89984130859375 621.166259765625 261.7273254394531 516.9124755859375 367.9647521972656 767.4453125" fill="rgb(133, 167, 178)" opacity="1.0" stroke="rgb(159, 206, 116)" stroke-linecap="round" stroke-linejoin="round" stroke-opacity="0.08451085" stroke-width="0.0"/>
    <path d="M 253.57595825195312 347.66900634765625 C 337.92498779296875 432.64935302734375 312.67425537109375 326.7381896972656 318.4477844238281 508.3457946777344 C 122.54899597167969 470.42242431640625 314.21343994140625 492.5787658691406 214.86952209472656 417.4200134277344 C 127.92072296142578 282.7132568359375 247.86090087890625 339.9825134277344 146.06173706054688 218.2209014892578 C 270.3432922363281 199.0229034423828 189.73350524902344 284.4412536621094 253.57595825195312 347.66900634765625" fill="rgb(229, 136, 68)" opacity="0.9974647" stroke="rgb(0, 105, 147)" stroke-linecap="round" stroke-linejoin="round" stroke-opacity="0.3611284" stroke-width="0.0"/>
    <path d="M 176.32269287109375 257.1676940917969 C 165.08641052246094 246.3524169921875 103.1929931640625 311.58843994140625 164.48788452148438 344.314453125 C 125.24248504638672 344.46209716796875 109.32655334472656 309.0142517089844 112.56888580322266 274.2671203613281 C 116.42607116699219 242.03506469726562 135.20411682128906 219.43231201171875 157.4052734375 216.38104248046875 C 169.2032928466797 230.13375854492188 159.38699340820312 243.82693481445312 176.32269287109375 257.1676940917969" fill="rgb(10, 10, 11)" opacity="1.0" stroke="rgb(123, 164, 252)" stroke-linecap="round" stroke-linejoin="round" stroke-opacity="0.8283837" stroke-width="0.0"/>
    <path d="M 601.2666625976562 485.33758544921875 C 543.1109008789062 492.56243896484375 518.9183959960938 498.4822692871094 483.59796142578125 493.6384582519531 C 465.57220458984375 494.452392578125 411.0460205078125 488.8751220703125 383.9078369140625 469.4479064941406 C 389.4065246582031 468.6134033203125 408.4353332519531 475.3239440917969 479.9214172363281 480.5054931640625 C 477.44244384765625 479.59466552734375 541.7840576171875 486.61187744140625 601.2666625976562 485.33758544921875" fill="rgb(225, 80, 19)" opacity="0.83484966" stroke="rgb(129, 124, 169)" stroke-linecap="round" stroke-linejoin="round" stroke-opacity="0.75878716" stroke-width="0.0"/>
    <path d="M 192.71881103515625 278.80908203125 C 189.51022338867188 323.8778381347656 192.6336669921875 310.5385437011719 181.3716583251953 312.7615661621094 C 143.8842315673828 316.2611389160156 158.22671508789062 307.7508239746094 129.3800811767578 305.0434875488281 C 164.31243896484375 274.71124267578125 134.90283203125 294.0050354003906 162.70924377441406 263.1678771972656 C 170.43618774414062 261.83575439453125 192.9812469482422 272.9241027832031 192.71881103515625 278.80908203125" fill="rgb(6, 0, 5)" opacity="0.93512595" stroke="rgb(90, 232, 236)" stroke-linecap="round" stroke-linejoin="round" stroke-opacity="0.40865332" stroke-width="0.0"/>
    <path d="M 188.47799682617188 344.6742248535156 C 187.1402130126953 381.25567626953125 207.88381958007812 393.8270568847656 175.74624633789062 364.1050109863281 C 158.18948364257812 339.75048828125 157.92477416992188 348.0390625 137.68133544921875 315.1082458496094 C 131.84274291992188 297.380615234375 135.85549926757812 309.0110778808594 159.8896484375 313.1664123535156 C 201.4623260498047 317.6155090332031 187.3079071044922 297.1409606933594 188.47799682617188 344.6742248535156" fill="rgb(134, 168, 178)" opacity="0.9903721" stroke="rgb(120, 37, 112)" stroke-linecap="round" stroke-linejoin="round" stroke-opacity="0.62810665" stroke-width="0.0"/>
    <path d="M 678.9468383789062 459.11785888671875 C 662.4059448242188 465.1578369140625 649.7459716796875 459.2705078125 608.2395629882812 455.3599853515625 C 581.5989379882812 451.89794921875 554.761962890625 448.66796875 520.2421875 446.9512939453125 C 588.9037475585938 438.5889587402344 618.3414916992188 438.0762634277344 619.36474609375 428.3716735839844 C 638.492919921875 384.2725524902344 676.9234008789062 377.86737060546875 678.9468383789062 459.11785888671875" fill="rgb(133, 169, 177)" opacity="0.94135964" stroke="rgb(114, 52, 147)" stroke-linecap="round" stroke-linejoin="round" stroke-opacity="0.060832683" stroke-width="0.0"/>
    <path d="M 253.41932678222656 492.69403076171875 C 256.03485107421875 492.48651123046875 256.2279357910156 494.6585388183594 239.40167236328125 494.2850341796875 C 197.6723175048828 494.0702819824219 197.0509033203125 500.8875427246094 187.6475830078125 471.4132995605469 C 202.85189819335938 459.2337646484375 162.33538818359375 420.44940185546875 238.08016967773438 437.4669494628906 C 254.0648193359375 450.4820556640625 246.20448303222656 429.2174987792969 253.41932678222656 492.69403076171875" fill="rgb(131, 167, 178)" opacity="0.9874625" stroke="rgb(236, 81, 72)" stroke-linecap="round" stroke-linejoin="round" stroke-opacity="0.22636518" stroke-width="0.0"/>
    <path d="M 778.261474609375 543.5684814453125 C 788.0613403320312 561.7599487304688 784.4290161132812 565.6912231445312 771.8068237304688 618.9976196289062 C 697.6934814453125 632.7396850585938 608.8474731445312 555.719482421875 409.81585693359375 492.8350524902344 C 691.2218017578125 511.3199462890625 769.687255859375 542.4385986328125 755.1948852539062 535.8690185546875 C 769.7451171875 542.3859252929688 771.2867431640625 537.6893920898438 778.261474609375 543.5684814453125" fill="rgb(17, 110, 78)" opacity="0.9044849" stroke="rgb(203, 237, 151)" stroke-linecap="round" stroke-linejoin="round" stroke-opacity="0.023405533" stroke-width="0.0"/>
    <path d="M 206.46670532226562 255.9502410888672 C 188.01809692382812 215.81854248046875 220.28074645996094 238.7400665283203 193.2252197265625 269.6698913574219 C 151.44393920898438 237.33567810058594 166.54202270507812 210.0938262939453 186.14938354492188 247.7794952392578 C 199.565673828125 195.1513671875 168.96127319335938 256.2244567871094 163.08192443847656 215.9852294921875 C 218.82366943359375 201.4860382080078 242.16395568847656 268.6069641113281 206.46670532226562 255.9502410888672" fill="rgb(245, 255, 233)" opacity="0.919666" stroke="rgb(169, 187, 192)" stroke-linecap="round" stroke-linejoin="round" stroke-opacity="0.68430656" stroke-width="0.0"/>
    <path d="M 210.34080505371094 247.78704833984375 C 177.79383850097656 253.27081298828125 227.07437133789062 246.6297149658203 210.01181030273438 256.1509094238281 C 194.2410888671875 255.79563903808594 203.9283447265625 260.3056945800781 198.34014892578125 244.9521484375 C 182.85926818847656 237.04843139648438 223.6795196533203 231.5128936767578 200.1580810546875 243.11831665039062 C 202.35520935058594 245.4395294189453 215.29830932617188 239.7495880126953 210.34080505371094 247.78704833984375" fill="rgb(1, 3, 4)" opacity="0.9306157" stroke="rgb(156, 238, 232)" stroke-linecap="round" stroke-linejoin="round" stroke-opacity="0.48303482" stroke-width="0.0"/>
    <path d="M 698.4645385742188 481.1966552734375 C 699.3811645507812 472.44293212890625 698.7374267578125 486.676025390625 690.964111328125 483.4071350097656 C 436.6813659667969 486.67181396484375 289.21771240234375 473.8736877441406 321.900390625 396.5270690917969 C 543.8599853515625 474.328125 615.8863525390625 441.657958984375 636.9678955078125 466.96038818359375 C 688.0304565429688 457.0057678222656 703.431396484375 469.305419921875 698.4645385742188 481.1966552734375" fill="rgb(16, 89, 47)" opacity="0.8495374" stroke="rgb(225, 215, 138)" stroke-linecap="round" stroke-linejoin="round" stroke-opacity="0.46836582" stroke-width="0.0"/>
    <path d="M 157.5659637451172 266.18695068359375 C 136.3890380859375 288.69818115234375 159.56985473632812 277.2216796875 132.42161560058594 298.5011901855469 C 145.50624084472656 298.7451171875 151.14527893066406 274.8167724609375 151.69786071777344 274.70806884765625 C 163.31813049316406 268.46185302734375 153.55882263183594 249.28439331054688 195.34449768066406 276.91510009765625 C 179.09671020507812 256.7656555175781 156.22317504882812 256.7308349609375 157.5659637451172 266.18695068359375" fill="rgb(219, 222, 233)" opacity="0.94675916" stroke="rgb(241, 24, 224)" stroke-linecap="round" stroke-linejoin="round" stroke-opacity="0.9624787" stroke-width="0.0"/>
    <path d="M 528.455322265625 543.5333862304688 C 393.0733642578125 520.7718505859375 359.4876708984375 524.4068603515625 389.27703857421875 523.9007568359375 C 378.3800964355469 524.2611694335938 385.6904296875 522.9692993164062 320.20843505859375 520.4193725585938 C 317.585205078125 469.6266784667969 330.8943786621094 491.8211975097656 439.302490234375 494.5670166015625 C 437.8831481933594 505.7648010253906 535.8994140625 477.1611022949219 528.455322265625 543.5333862304688" fill="rgb(16, 106, 73)" opacity="0.86134547" stroke="rgb(91, 46, 159)" stroke-linecap="round" stroke-linejoin="round" stroke-opacity="0.64249396" stroke-width="0.0"/>
  </g>
</svg>
