<?xml version="1.0" ?>
<svg height="768" version="1.1" width="768" xmlns="http://www.w3.org/2000/svg">
  <defs/>
  <g>
    <path d="M 767.1089477539062 786.992919921875 C 127.14165496826172 763.6699829101562 51.10171127319336 713.2462158203125 -43.541229248046875 619.8244018554688 C -15.664983749389648 -151.67796325683594 71.46330261230469 -150.8824920654297 207.41134643554688 -61.09711837768555 C 493.5363464355469 -18.159574508666992 557.69482421875 -12.953939437866211 793.4483032226562 -3.753028392791748 C 788.2908935546875 284.116455078125 779.1922607421875 343.3482971191406 767.1089477539062 786.992919921875" fill="rgb(159, 171, 135)" opacity="0.9665526" stroke="rgb(154, 81, 138)" stroke-linecap="round" stroke-linejoin="round" stroke-opacity="0.28446054" stroke-width="0.0"/>
    <path d="M 161.95924377441406 549.0488891601562 C 234.90957641601562 696.9874877929688 287.04278564453125 683.4378662109375 433.04876708984375 766.91748046875 C -31.250076293945312 788.3463134765625 -17.716510772705078 770.9262084960938 -13.503893852233887 746.1631469726562 C -11.62237548828125 680.8173217773438 -11.76181411743164 668.7573852539062 -10.767165184020996 642.2779541015625 C 55.71552276611328 644.0315551757812 58.08650207519531 656.1909790039062 161.95924377441406 549.0488891601562" fill="rgb(135, 141, 129)" opacity="1.0" stroke="rgb(210, 18, 238)" stroke-linecap="round" stroke-linejoin="round" stroke-opacity="0.0005594696" stroke-width="0.0"/>
    <path d="M 444.7662353515625 351.6464538574219 C 454.84014892578125 377.75323486328125 464.4094543457031 453.5915832519531 387.5953369140625 474.86480712890625 C 383.71148681640625 479.61322021484375 330.1452331542969 457.64154052734375 318.5702209472656 427.5616455078125 C 296.9803771972656 358.10540771484375 342.8064270019531 306.5038146972656 374.4368591308594 309.259033203125 C 400.06573486328125 306.9215393066406 426.1584167480469 309.6285705566406 444.7662353515625 351.6464538574219" fill="rgb(10, 149, 140)" opacity="0.94347227" stroke="rgb(173, 159, 99)" stroke-linecap="round" stroke-linejoin="round" stroke-opacity="0.82691187" stroke-width="0.0"/>
    <path d="M 12.0 31.0 C 11.330126762390137 33.5 9.5 35.33012771606445 7.0 36.0 C 4.5 35.33012771606445 2.669872999191284 33.5 2.0 31.0 C 2.669872999191284 28.5 4.5 26.669872283935547 7.0 26.0 C 9.5 26.669872283935547 11.330126762390137 28.5 12.0 31.0" fill="rgb(136, 141, 131)" opacity="1.0" stroke="rgb(237, 119, 232)" stroke-linecap="round" stroke-linejoin="round" stroke-opacity="0.43150994" stroke-width="0.0"/>
  </g>
</svg>
