<?xml version="1.0" ?>
<svg height="768" version="1.1" width="768" xmlns="http://www.w3.org/2000/svg">
  <defs/>
  <g>
    <path d="M 767.2886962890625 786.7797241210938 C 127.30953216552734 763.423095703125 51.142601013183594 713.1558227539062 -43.4671630859375 619.8460693359375 C -15.490769386291504 -151.4733428955078 71.6108169555664 -150.73423767089844 207.44468688964844 -61.08436965942383 C 493.5363464355469 -18.159574508666992 557.69482421875 -12.953939437866211 793.4483032226562 -3.753028392791748 C 788.2908935546875 284.116455078125 779.2174072265625 343.3572082519531 767.2886962890625 786.7797241210938" fill="rgb(135, 140, 129)" opacity="1.0" stroke="rgb(154, 81, 138)" stroke-linecap="round" stroke-linejoin="round" stroke-opacity="0.28446054" stroke-width="0.0"/>
    <path d="M 161.4906768798828 576.5760498046875 C 233.80990600585938 708.9420166015625 283.261962890625 704.6759643554688 412.796142578125 767.7169799804688 C -31.629222869873047 786.6755981445312 -17.71963882446289 770.8789672851562 -13.503893852233887 746.1631469726562 C -11.62237548828125 680.8173217773438 -11.76181411743164 668.7573852539062 -13.052799224853516 652.373291015625 C 59.54195785522461 659.6892700195312 61.872955322265625 666.966064453125 161.4906768798828 576.5760498046875" fill="rgb(135, 141, 129)" opacity="1.0" stroke="rgb(210, 18, 238)" stroke-linecap="round" stroke-linejoin="round" stroke-opacity="0.0005594696" stroke-width="0.0"/>
    <path d="M 385.0 327.0 C 384.33013916015625 329.5 382.5 331.33013916015625 380.0 332.0 C 377.5 331.33013916015625 375.66986083984375 329.5 375.0 327.0 C 375.66986083984375 324.5 377.5 322.66986083984375 380.0 322.0 C 382.5 322.66986083984375 384.33013916015625 324.5 385.0 327.0" fill="rgb(8, 157, 147)" opacity="1.0" stroke="rgb(173, 159, 99)" stroke-linecap="round" stroke-linejoin="round" stroke-opacity="0.82691187" stroke-width="0.0"/>
  </g>
</svg>
