<?xml version="1.0" ?>
<svg height="768" version="1.1" width="768" xmlns="http://www.w3.org/2000/svg">
  <defs/>
  <g>
    <path d="M 775.0864868164062 698.828857421875 C 189.55654907226562 679.1384887695312 18.244905471801758 612.5826416015625 -112.72334289550781 521.7085571289062 C -22.192554473876953 230.1912384033203 -15.129977226257324 144.99185180664062 4.650335788726807 -66.13924407958984 C 144.52130126953125 -18.71041488647461 158.45343017578125 -15.998766899108887 596.4016723632812 -18.630756378173828 C 722.1806640625 -168.67877197265625 773.0933227539062 -295.11273193359375 775.0864868164062 698.828857421875" fill="rgb(132, 156, 166)" opacity="0.99425286" stroke="rgb(240, 204, 204)" stroke-linecap="round" stroke-linejoin="round" stroke-opacity="0.5067139" stroke-width="0.0"/>
    <path d="M 617.5897216796875 767.1185913085938 C 282.9970397949219 806.1969604492188 269.39849853515625 782.7200317382812 28.583860397338867 781.729248046875 C -1.2788413763046265 809.3958129882812 -10.699273109436035 839.7127075195312 -10.190855026245117 562.3767700195312 C 140.20599365234375 606.311767578125 150.36843872070312 618.1637573242188 333.4339904785156 628.0645751953125 C 402.84326171875 591.5291748046875 497.256591796875 326.5237121582031 617.5897216796875 767.1185913085938" fill="rgb(130, 159, 172)" opacity="0.9967049" stroke="rgb(134, 51, 102)" stroke-linecap="round" stroke-linejoin="round" stroke-opacity="0.21901652" stroke-width="0.0"/>
    <path d="M 300.1946105957031 243.63795471191406 C 312.8836364746094 298.9107666015625 209.90879821777344 274.7362365722656 275.9333801269531 452.31976318359375 C 570.1015014648438 468.6775207519531 533.66357421875 619.7698974609375 243.49850463867188 563.485595703125 C 50.62969207763672 426.7371826171875 109.50141143798828 226.9704132080078 193.32894897460938 213.34727478027344 C 222.53334045410156 189.06971740722656 297.52410888671875 204.01744079589844 300.1946105957031 243.63795471191406" fill="rgb(168, 115, 80)" opacity="0.9855161" stroke="rgb(220, 11, 117)" stroke-linecap="round" stroke-linejoin="round" stroke-opacity="0.012414543" stroke-width="0.0"/>
  </g>
</svg>
