<?xml version="1.0" ?>
<svg height="768" version="1.1" width="768" xmlns="http://www.w3.org/2000/svg">
  <defs/>
  <g>
    <path d="M 775.0865478515625 699.3365478515625 C 189.5110321044922 679.23193359375 18.241561889648438 612.58984375 -112.72334289550781 521.7085571289062 C -22.192554473876953 230.1912384033203 -15.129977226257324 144.99185180664062 4.650335788726807 -66.13924407958984 C 144.52130126953125 -18.71041488647461 158.45343017578125 -15.998766899108887 596.4160766601562 -18.63079071044922 C 722.2267456054688 -168.70811462402344 773.1409301757812 -295.1711730957031 775.0865478515625 699.3365478515625" fill="rgb(128, 156, 169)" opacity="0.9863632" stroke="rgb(240, 204, 204)" stroke-linecap="round" stroke-linejoin="round" stroke-opacity="0.5067139" stroke-width="0.0"/>
    <path d="M 618.7515258789062 764.599365234375 C 283.04351806640625 806.3460083007812 269.3986511230469 782.7200317382812 28.583860397338867 781.729248046875 C -1.2788413763046265 809.3958129882812 -10.699273109436035 839.7127075195312 -10.185945510864258 562.0393676757812 C 140.26319885253906 606.2003173828125 150.59925842285156 617.8668212890625 336.7899169921875 627.7116088867188 C 403.7696533203125 589.9563598632812 497.9178466796875 322.59796142578125 618.7515258789062 764.599365234375" fill="rgb(128, 160, 176)" opacity="0.99842393" stroke="rgb(134, 51, 102)" stroke-linecap="round" stroke-linejoin="round" stroke-opacity="0.21901652" stroke-width="0.0"/>
    <path d="M 301.66448974609375 244.18331909179688 C 295.8885803222656 321.6318359375 228.12049865722656 252.4510955810547 267.24896240234375 439.01641845703125 C 559.5386352539062 435.2335510253906 535.1786499023438 670.580078125 220.5772705078125 549.0646362304688 C 120.41873168945312 479.6886291503906 48.090171813964844 257.5101318359375 208.84402465820312 205.0241241455078 C 243.70457458496094 194.82708740234375 294.01312255859375 207.07565307617188 301.66448974609375 244.18331909179688" fill="rgb(165, 118, 88)" opacity="1.0" stroke="rgb(220, 11, 117)" stroke-linecap="round" stroke-linejoin="round" stroke-opacity="0.012414543" stroke-width="0.0"/>
    <path d="M 776.8983764648438 654.9666137695312 C 780.1082153320312 769.6689453125 777.6100463867188 775.9493408203125 770.7144165039062 779.1359252929688 C 621.9801025390625 775.7337036132812 615.4437255859375 777.677001953125 594.1221923828125 777.4307861328125 C 586.0114135742188 642.4016723632812 588.1025390625 662.8462524414062 603.5018920898438 654.7070922851562 C 711.3917236328125 659.6410522460938 728.9901123046875 655.9611206054688 776.8983764648438 654.9666137695312" fill="rgb(128, 160, 176)" opacity="1.0" stroke="rgb(53, 119, 76)" stroke-linecap="round" stroke-linejoin="round" stroke-opacity="0.17295112" stroke-width="0.0"/>
    <path d="M 452.07464599609375 434.7116394042969 C 538.9002075195312 460.7001647949219 517.6756591796875 498.09808349609375 343.7794189453125 534.8510131835938 C 342.2103576660156 388.03643798828125 344.1825256347656 371.6867370605469 343.60321044921875 349.64581298828125 C 365.54864501953125 258.7939147949219 392.2090759277344 193.4807586669922 411.8980712890625 283.4396667480469 C 464.37152099609375 318.2496337890625 520.3945922851562 124.98989868164062 452.07464599609375 434.7116394042969" fill="rgb(200, 108, 39)" opacity="0.69956166" stroke="rgb(134, 252, 194)" stroke-linecap="round" stroke-linejoin="round" stroke-opacity="0.15058233" stroke-width="0.0"/>
  </g>
</svg>
