<?xml version="1.0" ?>
<svg height="768" version="1.1" width="768" xmlns="http://www.w3.org/2000/svg">
  <defs/>
  <g>
    <path d="M 722.8076171875 -107.12804412841797 C 763.502197265625 -26.355539321899414 786.4129028320312 -7.1199235916137695 839.5079956054688 307.9615783691406 C 950.4312133789062 458.306884765625 967.13720703125 579.7880249023438 73.21106719970703 644.1655883789062 C 63.82318878173828 -254.87489318847656 79.93140411376953 -169.1918487548828 128.48072814941406 -17.214765548706055 C 629.1373291015625 -13.134106636047363 632.4906616210938 -12.812317848205566 722.8076171875 -107.12804412841797" fill="rgb(108, 112, 87)" opacity="0.9579627" stroke="rgb(66, 199, 23)" stroke-linecap="round" stroke-linejoin="round" stroke-opacity="0.906607" stroke-width="0.0"/>
    <path d="M 550.5120239257812 588.74560546875 C 453.51611328125 1208.634521484375 341.60675048828125 947.84228515625 249.01589965820312 782.06201171875 C 44.53242492675781 781.8507080078125 40.39362335205078 781.8889770507812 -9.147679328918457 787.5625 C -14.781291007995605 672.35400390625 -38.90152359008789 637.1993408203125 3.216273069381714 321.70892333984375 C 473.614990234375 490.1152038574219 223.61488342285156 575.6256713867188 550.5120239257812 588.74560546875" fill="rgb(123, 85, 80)" opacity="0.9986194" stroke="rgb(208, 238, 127)" stroke-linecap="round" stroke-linejoin="round" stroke-opacity="0.29340884" stroke-width="0.0"/>
    <path d="M 91.80952453613281 325.1095275878906 C 82.63296508789062 316.2223205566406 89.44023132324219 313.54595947265625 100.1152572631836 351.29803466796875 C -69.03975677490234 352.6664123535156 -81.03172302246094 346.65948486328125 10.689835548400879 -24.32672691345215 C 132.52291870117188 -16.26850128173828 117.8753433227539 42.71952819824219 154.10133361816406 91.15899658203125 C 93.84293365478516 188.6699981689453 94.74458312988281 199.84762573242188 91.80952453613281 325.1095275878906" fill="rgb(123, 85, 80)" opacity="1.0" stroke="rgb(155, 118, 131)" stroke-linecap="round" stroke-linejoin="round" stroke-opacity="0.4426966" stroke-width="0.0"/>
    <path d="M 733.4462280273438 415.29241943359375 C 780.4052734375 539.6605224609375 792.6812133789062 606.81494140625 788.8795166015625 775.4728393554688 C 499.56402587890625 783.4749755859375 501.519287109375 781.809814453125 511.28314208984375 777.17822265625 C 500.2361755371094 600.4791259765625 442.4320983886719 573.3740234375 503.4576416015625 567.1277465820312 C 619.2222290039062 560.2849731445312 625.061279296875 553.234375 733.4462280273438 415.29241943359375" fill="rgb(123, 85, 80)" opacity="1.0" stroke="rgb(121, 190, 188)" stroke-linecap="round" stroke-linejoin="round" stroke-opacity="0.9920506" stroke-width="0.0"/>
    <path d="M 491.4393005371094 553.801025390625 C 305.43115234375 554.9922485351562 588.9523315429688 508.43914794921875 519.1353149414062 433.2276611328125 C 312.3398742675781 326.0495910644531 220.1705322265625 526.8128662109375 263.6578674316406 257.5294494628906 C 405.3009338378906 223.85147094726562 457.45318603515625 264.2674255371094 502.0046691894531 296.6163330078125 C 567.79736328125 341.79248046875 641.8702392578125 485.1387634277344 491.4393005371094 553.801025390625" fill="rgb(50, 198, 157)" opacity="0.80272096" stroke="rgb(1, 68, 193)" stroke-linecap="round" stroke-linejoin="round" stroke-opacity="0.50932455" stroke-width="0.0"/>
  </g>
</svg>
