<?xml version="1.0" ?>
<svg height="768" version="1.1" width="768" xmlns="http://www.w3.org/2000/svg">
  <defs/>
  <g>
    <path d="M 722.8076171875 -107.12804412841797 C 763.502197265625 -26.355539321899414 786.4129028320312 -7.1199235916137695 839.5079956054688 307.9615783691406 C 950.4312133789062 458.306884765625 967.13720703125 579.7880249023438 73.21106719970703 644.1655883789062 C 63.82318878173828 -254.87489318847656 79.93140411376953 -169.1918487548828 128.48072814941406 -17.214765548706055 C 629.1373291015625 -13.134106636047363 632.4906616210938 -12.812317848205566 722.8076171875 -107.12804412841797" fill="rgb(123, 85, 80)" opacity="0.99999946" stroke="rgb(66, 199, 23)" stroke-linecap="round" stroke-linejoin="round" stroke-opacity="0.906607" stroke-width="0.0"/>
    <path d="M 550.4823608398438 593.9729614257812 C 453.51611328125 1208.634521484375 341.60675048828125 947.84228515625 249.01589965820312 782.06201171875 C 44.53242492675781 781.8507080078125 40.39362335205078 781.8889770507812 -9.147679328918457 787.5625 C -14.780080795288086 672.35400390625 -38.82255172729492 637.2671508789062 3.235743761062622 321.9028015136719 C 472.89129638671875 490.3565673828125 220.4193115234375 576.9891357421875 550.4823608398438 593.9729614257812" fill="rgb(123, 85, 80)" opacity="1.0" stroke="rgb(208, 238, 127)" stroke-linecap="round" stroke-linejoin="round" stroke-opacity="0.29340884" stroke-width="0.0"/>
    <path d="M 83.60488891601562 308.4704895019531 C 79.32870483398438 318.1531066894531 81.61518859863281 317.2269592285156 86.37034606933594 350.2757568359375 C -68.3730239868164 352.3103332519531 -80.33605194091797 346.4145812988281 5.442348957061768 -23.77073097229004 C 124.20284271240234 -14.662348747253418 107.06261444091797 43.825279235839844 139.69049072265625 91.15644073486328 C 85.80113220214844 180.46990966796875 85.86842346191406 188.11935424804688 83.60488891601562 308.4704895019531" fill="rgb(123, 85, 80)" opacity="0.99020535" stroke="rgb(155, 118, 131)" stroke-linecap="round" stroke-linejoin="round" stroke-opacity="0.4426966" stroke-width="0.0"/>
    <path d="M 730.7310180664062 437.9303894042969 C 777.9017944335938 546.5184326171875 791.8165893554688 609.3262329101562 788.7533569335938 775.5045166015625 C 499.56402587890625 783.4749755859375 501.519287109375 781.809814453125 513.86376953125 777.5292358398438 C 527.5039672851562 614.9517211914062 500.28240966796875 585.6458740234375 579.8162841796875 573.4779052734375 C 625.891357421875 567.1072998046875 631.5325927734375 562.9934692382812 730.7310180664062 437.9303894042969" fill="rgb(123, 85, 80)" opacity="1.0" stroke="rgb(121, 190, 188)" stroke-linecap="round" stroke-linejoin="round" stroke-opacity="0.9920506" stroke-width="0.0"/>
  </g>
</svg>
