<?xml version="1.0" ?>
<svg height="768" version="1.1" width="768" xmlns="http://www.w3.org/2000/svg">
  <defs/>
  <g>
    <path d="M 722.8076171875 -107.12804412841797 C 763.502197265625 -26.355539321899414 786.4129028320312 -7.1199235916137695 839.4375 307.8578796386719 C 949.8324584960938 457.8747253417969 966.4838256835938 579.334228515625 73.16399383544922 643.9700927734375 C 63.82318878173828 -254.87489318847656 79.93140411376953 -169.1918487548828 128.48072814941406 -17.214765548706055 C 629.1373291015625 -13.134106636047363 632.4906616210938 -12.812317848205566 722.8076171875 -107.12804412841797" fill="rgb(123, 85, 80)" opacity="0.99999976" stroke="rgb(66, 199, 23)" stroke-linecap="round" stroke-linejoin="round" stroke-opacity="0.906607" stroke-width="0.0"/>
    <path d="M 549.1536865234375 593.4534912109375 C 452.72149658203125 1207.2030029296875 341.3292541503906 947.1915893554688 248.96315002441406 782.06005859375 C 44.53242492675781 781.8507080078125 40.39362335205078 781.8889770507812 -9.147679328918457 787.5625 C -14.780035972595215 672.35400390625 -38.821327209472656 637.2688598632812 3.2316951751708984 321.9028015136719 C 472.8874206542969 490.3568420410156 220.33309936523438 577.0733032226562 549.1536865234375 593.4534912109375" fill="rgb(123, 85, 80)" opacity="0.99880093" stroke="rgb(208, 238, 127)" stroke-linecap="round" stroke-linejoin="round" stroke-opacity="0.29340884" stroke-width="0.0"/>
    <path d="M 83.60344696044922 308.46673583984375 C 79.32672119140625 318.1531066894531 81.60272979736328 317.2269592285156 86.35131072998047 350.2688903808594 C -68.29105377197266 352.2984313964844 -80.25801849365234 346.3913879394531 5.450135707855225 -23.771852493286133 C 124.20928955078125 -14.664332389831543 107.06270599365234 43.82498550415039 139.65403747558594 91.15486145019531 C 85.79246520996094 180.45126342773438 85.8673324584961 188.11419677734375 83.60344696044922 308.46673583984375" fill="rgb(123, 85, 80)" opacity="0.99013954" stroke="rgb(155, 118, 131)" stroke-linecap="round" stroke-linejoin="round" stroke-opacity="0.4426966" stroke-width="0.0"/>
  </g>
</svg>
