<?xml version="1.0" ?>
<svg height="768" version="1.1" width="768" xmlns="http://www.w3.org/2000/svg">
  <defs/>
  <g>
    <path d="M 675.9659423828125 606.9666137695312 C -207.65467834472656 593.401611328125 -173.3811492919922 498.26727294921875 -81.337158203125 361.9459228515625 C -23.97528076171875 145.40907287597656 -12.114876747131348 98.69737243652344 13.6703462600708 -97.5602035522461 C 111.66980743408203 -19.086069107055664 118.88002014160156 -14.538126945495605 481.37982177734375 -16.4729061126709 C 629.3828125 -190.50131225585938 674.3890380859375 -388.1714172363281 675.9659423828125 606.9666137695312" fill="rgb(108, 107, 135)" opacity="0.9932227" stroke="rgb(186, 73, 103)" stroke-linecap="round" stroke-linejoin="round" stroke-opacity="0.104184605" stroke-width="0.0"/>
    <path d="M 693.6017456054688 440.3064880371094 C 425.801025390625 17.40374183654785 195.6416473388672 104.4902572631836 24.234600067138672 228.6134796142578 C -3.117501974105835 176.83126831054688 -24.81061363220215 151.3793487548828 -4.590776443481445 -69.36225891113281 C 121.7973403930664 -14.518567085266113 126.76689910888672 -14.352761268615723 421.5504455566406 -15.27873706817627 C 583.0807495117188 -192.64306640625 685.1753540039062 -402.9663391113281 693.6017456054688 440.3064880371094" fill="rgb(170, 189, 201)" opacity="1.0" stroke="rgb(27, 35, 35)" stroke-linecap="round" stroke-linejoin="round" stroke-opacity="0.88818324" stroke-width="0.0"/>
    <path d="M 562.0 655.0 C 561.3301391601562 657.5 559.5 659.3301391601562 557.0 660.0 C 554.5 659.3301391601562 552.6698608398438 657.5 552.0 655.0 C 552.6698608398438 652.5 554.5 650.6698608398438 557.0 650.0 C 559.5 650.6698608398438 561.3301391601562 652.5 562.0 655.0" fill="rgb(172, 193, 204)" opacity="1.0" stroke="rgb(159, 117, 124)" stroke-linecap="round" stroke-linejoin="round" stroke-opacity="0.21626683" stroke-width="0.0"/>
  </g>
</svg>
