<?xml version="1.0" ?>
<svg height="768" version="1.1" width="768" xmlns="http://www.w3.org/2000/svg">
  <defs/>
  <g>
    <path d="M 772.9077758789062 -25.637704849243164 C 781.9566040039062 210.49232482910156 786.5969848632812 264.3424072265625 880.0760498046875 475.5235290527344 C 853.3931884765625 601.454833984375 808.672119140625 673.5293579101562 138.76856994628906 709.3602905273438 C 66.79319763183594 552.9127197265625 12.215014457702637 472.81634521484375 -23.45386505126953 0.7005901336669922 C 617.3119506835938 -13.90225601196289 640.9307861328125 -16.422643661499023 772.9077758789062 -25.637704849243164" fill="rgb(127, 141, 135)" opacity="0.9739713" stroke="rgb(33, 185, 160)" stroke-linecap="round" stroke-linejoin="round" stroke-opacity="0.65745586" stroke-width="0.0"/>
    <path d="M 537.3721923828125 764.6680908203125 C 188.51243591308594 797.2587280273438 141.97337341308594 780.3931274414062 -16.241479873657227 778.5017700195312 C -14.3464994430542 723.954345703125 -19.143938064575195 715.6688232421875 0.5661678910255432 269.8878173828125 C 201.01913452148438 457.01910400390625 151.2115020751953 520.2908935546875 189.94839477539062 560.7767944335938 C 204.32083129882812 549.0835571289062 435.4830017089844 278.6283874511719 537.3721923828125 764.6680908203125" fill="rgb(137, 159, 147)" opacity="1.0" stroke="rgb(87, 242, 122)" stroke-linecap="round" stroke-linejoin="round" stroke-opacity="0.4958042" stroke-width="0.0"/>
    <path d="M 778.2841796875 749.8175659179688 C 776.4137573242188 782.8270874023438 767.0667114257812 795.1957397460938 495.6581726074219 767.355224609375 C 494.8551940917969 650.678955078125 528.1461791992188 643.14892578125 571.2256469726562 591.8325805664062 C 716.887451171875 604.391845703125 767.3173217773438 606.0281982421875 879.591064453125 632.4135131835938 C 781.0491333007812 728.9395141601562 779.542724609375 735.2160034179688 778.2841796875 749.8175659179688" fill="rgb(137, 159, 146)" opacity="1.0" stroke="rgb(48, 90, 235)" stroke-linecap="round" stroke-linejoin="round" stroke-opacity="0.3369719" stroke-width="0.0"/>
    <path d="M 563.281982421875 474.1693420410156 C 554.1276245117188 300.0567932128906 629.1495361328125 355.2440185546875 558.8111572265625 547.4561767578125 C 210.9238739013672 542.6539306640625 184.27439880371094 559.1951904296875 323.9029541015625 509.24365234375 C 237.87159729003906 99.98348999023438 258.1069030761719 157.26693725585938 361.62109375 320.98321533203125 C 485.051513671875 284.1240234375 554.8544311523438 344.3276062011719 563.281982421875 474.1693420410156" fill="rgb(33, 0, 51)" opacity="0.40560663" stroke="rgb(176, 90, 150)" stroke-linecap="round" stroke-linejoin="round" stroke-opacity="0.16809328" stroke-width="0.0"/>
  </g>
</svg>
