<?xml version="1.0" ?>
<svg height="768" version="1.1" width="768" xmlns="http://www.w3.org/2000/svg">
  <defs/>
  <g>
    <path d="M 772.9077758789062 -25.637704849243164 C 781.9566040039062 210.49232482910156 786.5969848632812 264.3424072265625 880.0760498046875 475.5235290527344 C 853.3931884765625 601.454833984375 808.672119140625 673.5293579101562 138.76856994628906 709.3602905273438 C 66.79319763183594 552.9127197265625 12.215014457702637 472.81634521484375 -23.454195022583008 0.6174417734146118 C 617.3119506835938 -13.90800666809082 640.9307861328125 -16.422643661499023 772.9077758789062 -25.637704849243164" fill="rgb(131, 146, 137)" opacity="0.95872074" stroke="rgb(33, 185, 160)" stroke-linecap="round" stroke-linejoin="round" stroke-opacity="0.65745586" stroke-width="0.0"/>
    <path d="M 537.366943359375 764.79541015625 C 188.50999450683594 797.2587280273438 141.97337341308594 780.3931274414062 -16.241479873657227 778.5017700195312 C -14.346505165100098 723.954345703125 -19.151897430419922 715.6661987304688 0.5139822363853455 269.71441650390625 C 201.23361206054688 456.9765625 151.3608856201172 520.2861328125 190.20132446289062 560.6057739257812 C 204.1637420654297 549.9498901367188 435.356201171875 279.153076171875 537.366943359375 764.79541015625" fill="rgb(138, 160, 147)" opacity="1.0" stroke="rgb(87, 242, 122)" stroke-linecap="round" stroke-linejoin="round" stroke-opacity="0.4958042" stroke-width="0.0"/>
    <path d="M 778.2841796875 749.8175659179688 C 776.4137573242188 782.827392578125 767.0715942382812 795.1782836914062 495.3700256347656 767.0875244140625 C 494.6312561035156 650.0977172851562 528.0494995117188 642.6995849609375 571.216796875 591.5946044921875 C 717.4765014648438 603.9049072265625 768.1985473632812 605.5592041015625 880.2112426757812 632.1869506835938 C 781.0491333007812 728.9395141601562 779.542724609375 735.2160034179688 778.2841796875 749.8175659179688" fill="rgb(137, 159, 146)" opacity="1.0" stroke="rgb(48, 90, 235)" stroke-linecap="round" stroke-linejoin="round" stroke-opacity="0.3369719" stroke-width="0.0"/>
    <path d="M 559.3367919921875 482.4757080078125 C 571.8261108398438 207.61770629882812 629.9073486328125 506.1078796386719 536.1649780273438 548.96240234375 C 231.22625732421875 539.594482421875 169.71728515625 562.9215698242188 333.1911926269531 506.66094970703125 C 236.89649963378906 103.24510955810547 258.6041564941406 154.8207244873047 359.7256774902344 321.5036315917969 C 475.4031677246094 284.5409240722656 562.9190063476562 337.9571228027344 559.3367919921875 482.4757080078125" fill="rgb(31, 0, 50)" opacity="0.46449533" stroke="rgb(176, 90, 150)" stroke-linecap="round" stroke-linejoin="round" stroke-opacity="0.16809328" stroke-width="0.0"/>
    <path d="M 314.4770812988281 480.42413330078125 C 270.834716796875 272.01531982421875 315.3616638183594 308.7362976074219 249.26318359375 311.72149658203125 C 231.6529998779297 309.51678466796875 247.07594299316406 307.2438659667969 230.85189819335938 292.5729064941406 C 258.0568542480469 251.29739379882812 297.06195068359375 253.5316619873047 337.8273010253906 200.14833068847656 C 388.1178894042969 221.63031005859375 313.6217041015625 220.9727020263672 314.4770812988281 480.42413330078125" fill="rgb(79, 68, 93)" opacity="0.96251136" stroke="rgb(182, 199, 227)" stroke-linecap="round" stroke-linejoin="round" stroke-opacity="0.84836954" stroke-width="0.0"/>
  </g>
</svg>
