<?xml version="1.0" ?>
<svg height="768" version="1.1" width="768" xmlns="http://www.w3.org/2000/svg">
  <defs/>
  <g>
    <path d="M 772.9077758789062 -25.637704849243164 C 781.9566040039062 210.49232482910156 786.5969848632812 264.3424072265625 880.0760498046875 475.5235290527344 C 853.3931884765625 601.454833984375 808.672119140625 673.5293579101562 138.76856994628906 709.3602905273438 C 66.79551696777344 552.9105834960938 12.222323417663574 472.8094787597656 -23.447290420532227 0.6358094215393066 C 617.3103637695312 -13.905932426452637 640.9307861328125 -16.422731399536133 772.9077758789062 -25.637704849243164" fill="rgb(137, 159, 146)" opacity="0.9999105" stroke="rgb(33, 185, 160)" stroke-linecap="round" stroke-linejoin="round" stroke-opacity="0.65745586" stroke-width="0.0"/>
    <path d="M 537.2437133789062 764.554931640625 C 188.49949645996094 797.2445068359375 141.97286987304688 780.3931274414062 -16.241479873657227 778.5017700195312 C -14.345147132873535 723.954345703125 -19.00395965576172 715.7722778320312 0.41790130734443665 272.33428955078125 C 186.14120483398438 458.8056945800781 127.72346496582031 521.4718017578125 180.8229217529297 566.6597900390625 C 215.78749084472656 575.5275268554688 436.20684814453125 279.42852783203125 537.2437133789062 764.554931640625" fill="rgb(134, 154, 143)" opacity="0.9735441" stroke="rgb(87, 242, 122)" stroke-linecap="round" stroke-linejoin="round" stroke-opacity="0.4958042" stroke-width="0.0"/>
    <path d="M 778.2841796875 749.8175659179688 C 776.4137573242188 782.8085327148438 767.2515258789062 794.458740234375 497.528564453125 767.7304077148438 C 497.7825622558594 660.5574340820312 530.199951171875 656.0170288085938 572.1802368164062 606.9033813476562 C 707.8141479492188 614.3148193359375 757.153564453125 612.4605102539062 873.18017578125 635.0617065429688 C 781.0491333007812 728.9395141601562 779.542724609375 735.2160034179688 778.2841796875 749.8175659179688" fill="rgb(137, 159, 146)" opacity="0.99748504" stroke="rgb(48, 90, 235)" stroke-linecap="round" stroke-linejoin="round" stroke-opacity="0.3369719" stroke-width="0.0"/>
  </g>
</svg>
