<?xml version="1.0" ?>
<svg height="768" version="1.1" width="768" xmlns="http://www.w3.org/2000/svg">
  <defs/>
  <g>
    <path d="M 767.7974243164062 622.5338134765625 C 200.89443969726562 572.018310546875 137.74444580078125 506.7293395996094 -46.498191833496094 447.94525146484375 C 3.917785882949829 -283.3785705566406 146.10191345214844 -244.82723999023438 329.989990234375 -229.1253662109375 C 455.46026611328125 -14.014605522155762 460.96343994140625 -13.517539024353027 746.6368408203125 -13.573888778686523 C 774.6422729492188 -68.17278289794922 783.3473510742188 -123.46053314208984 767.7974243164062 622.5338134765625" fill="rgb(111, 148, 168)" opacity="1.0" stroke="rgb(29, 213, 137)" stroke-linecap="round" stroke-linejoin="round" stroke-opacity="0.2991919" stroke-width="0.0"/>
    <path d="M 686.7185668945312 476.2619934082031 C 745.682861328125 566.7078857421875 782.8911743164062 596.6439208984375 791.45556640625 773.4373168945312 C 474.3034973144531 782.9032592773438 453.61236572265625 785.2664794921875 84.21232604980469 766.9028930664062 C 113.1385726928711 243.1603546142578 159.38375854492188 414.9914855957031 244.95379638671875 544.707763671875 C 600.5318603515625 589.1889038085938 606.365966796875 590.1046142578125 686.7185668945312 476.2619934082031" fill="rgb(114, 152, 171)" opacity="1.0" stroke="rgb(89, 133, 228)" stroke-linecap="round" stroke-linejoin="round" stroke-opacity="0.8862243" stroke-width="0.0"/>
    <path d="M 108.42416381835938 460.96246337890625 C 106.42362213134766 765.9566650390625 105.9473876953125 773.735107421875 94.60871124267578 780.8995361328125 C -48.918819427490234 783.4735107421875 -24.535200119018555 773.1734619140625 -12.595352172851562 752.317626953125 C -14.038419723510742 657.8284912109375 -25.43391990661621 639.6851196289062 -177.5227508544922 531.429931640625 C -40.296531677246094 467.56353759765625 41.79242706298828 444.82562255859375 108.42416381835938 460.96246337890625" fill="rgb(110, 148, 167)" opacity="1.0" stroke="rgb(210, 119, 91)" stroke-linecap="round" stroke-linejoin="round" stroke-opacity="0.99414617" stroke-width="0.0"/>
  </g>
</svg>
