<?xml version="1.0" ?>
<svg height="768" version="1.1" width="768" xmlns="http://www.w3.org/2000/svg">
  <defs/>
  <g>
    <path d="M 767.6768798828125 622.5338134765625 C 200.89443969726562 572.018310546875 137.74386596679688 506.7294616699219 -46.51967239379883 447.93890380859375 C 3.8739750385284424 -283.4278564453125 146.064453125 -244.87103271484375 329.9844665527344 -229.1428680419922 C 455.46026611328125 -14.014605522155762 460.96343994140625 -13.517539024353027 746.6368408203125 -13.573888778686523 C 774.6422729492188 -68.17278289794922 783.3473510742188 -123.46430969238281 767.6768798828125 622.5338134765625" fill="rgb(119, 157, 178)" opacity="0.9946055" stroke="rgb(29, 213, 137)" stroke-linecap="round" stroke-linejoin="round" stroke-opacity="0.2991919" stroke-width="0.0"/>
    <path d="M 687.3368530273438 451.17401123046875 C 747.0237426757812 561.5894775390625 783.620849609375 594.5408935546875 791.6519165039062 773.3802490234375 C 474.3034973144531 782.9032592773438 453.6117248535156 785.2664794921875 84.18185424804688 766.9185180664062 C 113.01648712158203 244.01773071289062 158.76559448242188 419.73516845703125 248.21681213378906 530.9869995117188 C 600.3252563476562 572.715576171875 601.442626953125 574.32373046875 687.3368530273438 451.17401123046875" fill="rgb(111, 148, 168)" opacity="1.0" stroke="rgb(89, 133, 228)" stroke-linecap="round" stroke-linejoin="round" stroke-opacity="0.8862243" stroke-width="0.0"/>
    <path d="M 110.94422912597656 454.5110778808594 C 107.59334564208984 766.2939453125 107.14401245117188 773.9393920898438 95.84451293945312 780.9097900390625 C -48.918819427490234 783.4735107421875 -24.535200119018555 773.1734619140625 -12.595352172851562 752.317626953125 C -14.038419723510742 657.8284912109375 -25.43391990661621 639.6851196289062 -178.14544677734375 531.1887817382812 C -41.805946350097656 466.4487609863281 39.743919372558594 442.0017395019531 110.94422912597656 454.5110778808594" fill="rgb(110, 148, 168)" opacity="1.0" stroke="rgb(210, 119, 91)" stroke-linecap="round" stroke-linejoin="round" stroke-opacity="0.99414617" stroke-width="0.0"/>
    <path d="M 557.2469482421875 381.0132141113281 C 220.17364501953125 453.3759765625 330.1883239746094 387.06951904296875 175.4104461669922 461.90179443359375 C 27.124296188354492 401.8138427734375 165.1453399658203 446.2534484863281 203.94430541992188 418.3736572265625 C 253.35769653320312 349.837646484375 318.9603576660156 338.0023498535156 375.50933837890625 320.9940185546875 C 373.63604736328125 295.6482849121094 567.5238647460938 287.8296813964844 557.2469482421875 381.0132141113281" fill="rgb(198, 236, 255)" opacity="0.8712038" stroke="rgb(47, 173, 151)" stroke-linecap="round" stroke-linejoin="round" stroke-opacity="0.8745499" stroke-width="0.0"/>
  </g>
</svg>
