<?xml version="1.0" ?>
<svg height="768" version="1.1" width="768" xmlns="http://www.w3.org/2000/svg">
  <defs/>
  <g>
    <path d="M 767.630126953125 622.5338134765625 C 200.89443969726562 572.018310546875 137.74386596679688 506.7294616699219 -46.52934646606445 447.93890380859375 C 3.854158639907837 -283.4500732421875 146.04727172851562 -244.89053344726562 329.9844665527344 -229.15049743652344 C 455.46026611328125 -14.014605522155762 460.96343994140625 -13.517539024353027 746.6368408203125 -13.573888778686523 C 774.6422729492188 -68.17278289794922 783.3473510742188 -123.46615600585938 767.630126953125 622.5338134765625" fill="rgb(117, 154, 175)" opacity="1.0" stroke="rgb(29, 213, 137)" stroke-linecap="round" stroke-linejoin="round" stroke-opacity="0.2991919" stroke-width="0.0"/>
    <path d="M 687.566650390625 449.5240173339844 C 747.3816528320312 560.3672485351562 783.85498046875 593.9201049804688 791.7191162109375 773.3648071289062 C 474.3034973144531 782.9032592773438 453.611572265625 785.2675170898438 84.17440795898438 766.9102172851562 C 112.99897003173828 244.1503448486328 158.7032470703125 420.3983459472656 248.7405242919922 528.8895874023438 C 600.5263061523438 572.122802734375 601.4379272460938 574.2594604492188 687.566650390625 449.5240173339844" fill="rgb(111, 148, 168)" opacity="1.0" stroke="rgb(89, 133, 228)" stroke-linecap="round" stroke-linejoin="round" stroke-opacity="0.8862243" stroke-width="0.0"/>
    <path d="M 111.28697204589844 452.9078674316406 C 107.63839721679688 766.3162231445312 107.19104766845703 773.9624633789062 95.94920349121094 780.9097900390625 C -48.918819427490234 783.4735107421875 -24.535200119018555 773.1734619140625 -12.595352172851562 752.317626953125 C -14.038419723510742 657.8284912109375 -25.43391990661621 639.6851196289062 -178.39503479003906 531.10107421875 C -42.4124870300293 466.0690002441406 38.88481140136719 441.1250305175781 111.28697204589844 452.9078674316406" fill="rgb(110, 148, 168)" opacity="1.0" stroke="rgb(210, 119, 91)" stroke-linecap="round" stroke-linejoin="round" stroke-opacity="0.99414617" stroke-width="0.0"/>
    <path d="M 557.2214965820312 382.1953430175781 C 143.4642333984375 452.4839782714844 327.23028564453125 398.4060363769531 173.9586944580078 461.3810729980469 C 31.674457550048828 403.05523681640625 158.15664672851562 445.0013732910156 203.05484008789062 419.5075378417969 C 265.41796875 332.5611267089844 351.30816650390625 337.45782470703125 382.9773864746094 314.8570251464844 C 352.0928039550781 303.5353088378906 568.8639526367188 279.85467529296875 557.2214965820312 382.1953430175781" fill="rgb(196, 235, 255)" opacity="0.899077" stroke="rgb(47, 173, 151)" stroke-linecap="round" stroke-linejoin="round" stroke-opacity="0.8745499" stroke-width="0.0"/>
    <path d="M 419.4120788574219 409.34454345703125 C 400.3443298339844 447.70672607421875 373.0543518066406 455.6061706542969 358.0862121582031 457.8315734863281 C 339.9005126953125 459.5935974121094 341.3365783691406 457.587890625 346.3650207519531 447.57586669921875 C 371.640625 421.4003601074219 390.25030517578125 428.00390625 331.2594909667969 332.10455322265625 C 471.8644104003906 408.7170104980469 479.23919677734375 395.1739807128906 419.4120788574219 409.34454345703125" fill="rgb(180, 227, 251)" opacity="1.0" stroke="rgb(87, 143, 83)" stroke-linecap="round" stroke-linejoin="round" stroke-opacity="0.7692329" stroke-width="0.0"/>
  </g>
</svg>
