<?xml version="1.0" ?>
<svg height="768" version="1.1" width="768" xmlns="http://www.w3.org/2000/svg">
  <defs/>
  <g>
    <path d="M 766.5419311523438 804.49951171875 C 440.64471435546875 822.6638793945312 321.97454833984375 814.15869140625 64.85509490966797 731.6282348632812 C 128.8890838623047 330.14361572265625 159.93289184570312 354.5104675292969 188.63296508789062 -33.18046951293945 C 691.6607666015625 -35.57390213012695 859.201904296875 -5.5142645835876465 883.98681640625 76.4728775024414 C 785.3821411132812 300.7633361816406 783.8414306640625 321.9205627441406 766.5419311523438 804.49951171875" fill="rgb(114, 122, 139)" opacity="0.9045694" stroke="rgb(191, 180, 93)" stroke-linecap="round" stroke-linejoin="round" stroke-opacity="0.43015158" stroke-width="0.0"/>
    <path d="M 205.55795288085938 -18.819862365722656 C 197.28143310546875 245.7349090576172 187.44638061523438 274.9371643066406 188.78482055664062 618.4215087890625 C -193.47557067871094 640.364990234375 -92.2155990600586 568.0653076171875 -14.636629104614258 463.4857177734375 C -13.50350284576416 152.1530303955078 -13.443854331970215 148.49197387695312 -102.714599609375 38.8411865234375 C -27.58142852783203 1.2891079187393188 3.8869595527648926 -18.60991096496582 205.55795288085938 -18.819862365722656" fill="rgb(126, 145, 168)" opacity="0.99992317" stroke="rgb(178, 187, 93)" stroke-linecap="round" stroke-linejoin="round" stroke-opacity="0.27192965" stroke-width="0.0"/>
    <path d="M 580.685546875 423.3835144042969 C 526.5772094726562 483.841796875 380.72467041015625 475.82818603515625 430.1266784667969 563.4093627929688 C 282.7042236328125 562.9669799804688 425.369140625 570.8870239257812 359.3726806640625 493.8540344238281 C 489.01214599609375 482.0091247558594 381.3080749511719 456.11566162109375 408.4494323730469 392.5835876464844 C 569.497314453125 496.142578125 561.5764770507812 343.15948486328125 580.685546875 423.3835144042969" fill="rgb(251, 249, 247)" opacity="0.9736951" stroke="rgb(95, 211, 37)" stroke-linecap="round" stroke-linejoin="round" stroke-opacity="0.6531062" stroke-width="0.0"/>
    <path d="M 590.9684448242188 463.9934387207031 C 586.9930419921875 539.3173217773438 605.9143676757812 507.0012512207031 555.4801635742188 557.4295043945312 C 441.9802551269531 558.9317016601562 484.2323303222656 554.2178344726562 471.5452880859375 562.202392578125 C 397.4765319824219 498.6585693359375 448.4374084472656 452.9629821777344 483.90179443359375 465.5724182128906 C 599.6504516601562 452.24884033203125 572.7521362304688 388.4542541503906 590.9684448242188 463.9934387207031" fill="rgb(8, 0, 15)" opacity="0.74458975" stroke="rgb(120, 249, 11)" stroke-linecap="round" stroke-linejoin="round" stroke-opacity="0.75945926" stroke-width="0.0"/>
    <path d="M 572.8890991210938 398.9208068847656 C 569.38623046875 402.6960754394531 556.95361328125 411.6426696777344 520.182861328125 434.6900939941406 C 438.72943115234375 425.7472839355469 381.9679260253906 388.49029541015625 434.95159912109375 355.1123046875 C 654.3587646484375 397.4623107910156 278.9100341796875 294.1882019042969 519.150390625 247.57630920410156 C 482.79583740234375 335.13623046875 511.14605712890625 237.2242431640625 572.8890991210938 398.9208068847656" fill="rgb(30, 22, 39)" opacity="0.8873196" stroke="rgb(142, 190, 229)" stroke-linecap="round" stroke-linejoin="round" stroke-opacity="0.4989664" stroke-width="0.0"/>
  </g>
</svg>
