<?xml version="1.0" ?>
<svg height="768" version="1.1" width="768" xmlns="http://www.w3.org/2000/svg">
  <defs/>
  <g>
    <path d="M 766.23681640625 804.4971313476562 C 440.6606140136719 822.6638793945312 322.0196228027344 814.1066284179688 64.86543273925781 731.5758666992188 C 128.8890838623047 330.14361572265625 159.93289184570312 354.5104675292969 188.63296508789062 -33.17835235595703 C 691.6251220703125 -35.563785552978516 859.161376953125 -5.498142242431641 883.9692993164062 76.48163604736328 C 785.3821411132812 300.7633361816406 783.8065795898438 321.8930969238281 766.23681640625 804.4971313476562" fill="rgb(100, 105, 123)" opacity="0.9996738" stroke="rgb(191, 180, 93)" stroke-linecap="round" stroke-linejoin="round" stroke-opacity="0.43015158" stroke-width="0.0"/>
    <path d="M 204.17654418945312 -18.881305694580078 C 196.93603515625 245.3270263671875 187.41366577148438 274.92620849609375 188.5204620361328 617.2879028320312 C -194.04910278320312 639.7728271484375 -92.26856231689453 567.8367919921875 -14.636826515197754 463.4278564453125 C -13.50350284576416 152.1530303955078 -13.443854331970215 148.49197387695312 -102.714599609375 38.8411865234375 C -27.58142852783203 1.2891079187393188 3.8869595527648926 -18.60991096496582 204.17654418945312 -18.881305694580078" fill="rgb(126, 145, 168)" opacity="0.99998885" stroke="rgb(178, 187, 93)" stroke-linecap="round" stroke-linejoin="round" stroke-opacity="0.27192965" stroke-width="0.0"/>
    <path d="M 581.8262329101562 424.3426513671875 C 477.1358337402344 513.415283203125 436.19598388671875 395.6662292480469 419.2913513183594 563.5671997070312 C 288.1750793457031 563.4571533203125 424.87017822265625 568.42333984375 358.47137451171875 493.91229248046875 C 490.4766845703125 481.1407165527344 379.13702392578125 457.42999267578125 408.76904296875 392.06707763671875 C 561.1461791992188 501.1278381347656 563.1769409179688 348.59014892578125 581.8262329101562 424.3426513671875" fill="rgb(247, 245, 243)" opacity="0.9628962" stroke="rgb(95, 211, 37)" stroke-linecap="round" stroke-linejoin="round" stroke-opacity="0.6531062" stroke-width="0.0"/>
  </g>
</svg>
