<?xml version="1.0" ?>
<svg height="768" version="1.1" width="768" xmlns="http://www.w3.org/2000/svg">
  <defs/>
  <g>
    <path d="M 601.4262084960938 71.43693542480469 C 604.3892211914062 1097.391357421875 561.1527709960938 940.7906494140625 443.9788513183594 786.6466064453125 C -6.17661714553833 784.2357788085938 -10.383135795593262 783.829345703125 -13.295954704284668 763.7592163085938 C -16.59838104248047 603.6614379882812 -17.7951602935791 595.8011474609375 -243.06141662597656 431.4584045410156 C -184.10838317871094 257.82598876953125 -182.14605712890625 124.28392028808594 601.4262084960938 71.43693542480469" fill="rgb(107, 109, 112)" opacity="0.99883145" stroke="rgb(229, 163, 161)" stroke-linecap="round" stroke-linejoin="round" stroke-opacity="0.5019234" stroke-width="0.0"/>
    <path d="M 782.5775756835938 9.088690757751465 C 779.977783203125 254.75193786621094 781.7876586914062 264.713134765625 962.1677856445312 386.0148010253906 C 936.9029541015625 502.441650390625 1014.7966918945312 657.0914916992188 589.7166137695312 760.1945190429688 C 551.2813720703125 372.135498046875 430.3407287597656 437.2715148925781 217.8706817626953 3.0923655033111572 C 835.74462890625 -24.46782684326172 830.7547607421875 -8.64793586730957 782.5775756835938 9.088690757751465" fill="rgb(126, 106, 93)" opacity="0.94136053" stroke="rgb(74, 86, 234)" stroke-linecap="round" stroke-linejoin="round" stroke-opacity="0.40407136" stroke-width="0.0"/>
    <path d="M 221.48281860351562 170.9451141357422 C 98.70718383789062 171.6686553955078 93.99329376220703 178.8494110107422 -20.117034912109375 172.7270965576172 C -49.27145767211914 142.71768188476562 -20.74094009399414 122.16522216796875 -10.526115417480469 7.525356292724609 C -26.277868270874023 -5.6971588134765625 -36.706443786621094 -13.90011215209961 290.7622375488281 -11.998668670654297 C 290.9755859375 50.01197814941406 273.4980773925781 129.76719665527344 221.48281860351562 170.9451141357422" fill="rgb(109, 118, 123)" opacity="0.99049914" stroke="rgb(102, 27, 174)" stroke-linecap="round" stroke-linejoin="round" stroke-opacity="0.068405606" stroke-width="0.0"/>
    <path d="M 209.0 266.0 C 208.3301239013672 268.5 206.5 270.33013916015625 204.0 271.0 C 201.5 270.33013916015625 199.6698760986328 268.5 199.0 266.0 C 199.6698760986328 263.5 201.5 261.66986083984375 204.0 261.0 C 206.5 261.66986083984375 208.3301239013672 263.5 209.0 266.0" fill="rgb(191, 123, 74)" opacity="1.0" stroke="rgb(160, 122, 226)" stroke-linecap="round" stroke-linejoin="round" stroke-opacity="0.74282646" stroke-width="0.0"/>
  </g>
</svg>
