<?xml version="1.0" ?>
<svg height="768" version="1.1" width="768" xmlns="http://www.w3.org/2000/svg">
  <defs/>
  <g>
    <path d="M 614.219482421875 -246.30819702148438 C 740.2695922851562 -112.07732391357422 807.119140625 -41.12754440307617 829.3618774414062 524.9501953125 C 710.7567749023438 612.7412719726562 590.199462890625 659.4039306640625 1.0490529537200928 680.3911743164062 C -14.052000999450684 -185.5797882080078 1.0877232551574707 -97.17042541503906 58.13934326171875 -15.851325035095215 C 439.0552062988281 -16.933881759643555 446.9502258300781 -18.955097198486328 614.219482421875 -246.30819702148438" fill="rgb(91, 183, 170)" opacity="0.9169418" stroke="rgb(186, 74, 237)" stroke-linecap="round" stroke-linejoin="round" stroke-opacity="0.41390306" stroke-width="0.0"/>
    <path d="M 532.467041015625 766.7916259765625 C 149.089111328125 793.8958740234375 125.71403503417969 783.2385864257812 -15.816697120666504 778.1204833984375 C -17.49167251586914 750.7085571289062 -13.434205055236816 748.1095581054688 -14.637238502502441 717.9243774414062 C -22.17508316040039 530.6864013671875 -60.818241119384766 485.92449951171875 187.67938232421875 417.14337158203125 C 374.2033386230469 400.18560791015625 460.8486022949219 232.72569274902344 532.467041015625 766.7916259765625" fill="rgb(66, 96, 162)" opacity="0.9872497" stroke="rgb(204, 228, 74)" stroke-linecap="round" stroke-linejoin="round" stroke-opacity="0.9638093" stroke-width="0.0"/>
    <path d="M 770.712890625 564.3335571289062 C 784.14892578125 782.39892578125 782.2929077148438 785.7186889648438 763.3697509765625 781.804931640625 C 611.4456787109375 782.26123046875 602.3466796875 782.6730346679688 505.78472900390625 837.9769287109375 C 484.18792724609375 656.13671875 460.4723205566406 615.3426513671875 451.075439453125 460.44366455078125 C 775.8275756835938 527.25830078125 666.3346557617188 621.133056640625 770.712890625 564.3335571289062" fill="rgb(113, 123, 118)" opacity="0.8678242" stroke="rgb(57, 58, 248)" stroke-linecap="round" stroke-linejoin="round" stroke-opacity="0.37919682" stroke-width="0.0"/>
    <path d="M 254.20204162597656 377.4966735839844 C 183.62306213378906 480.13922119140625 130.14666748046875 556.0111694335938 178.0634765625 699.2899780273438 C 199.17739868164062 775.3764038085938 291.91241455078125 792.1400756835938 1.670592188835144 795.93994140625 C -21.277753829956055 275.9965515136719 -96.57880401611328 146.0431365966797 198.95816040039062 138.128173828125 C 185.39450073242188 345.7571716308594 203.18214416503906 393.2351989746094 254.20204162597656 377.4966735839844" fill="rgb(115, 213, 180)" opacity="0.97608435" stroke="rgb(222, 83, 174)" stroke-linecap="round" stroke-linejoin="round" stroke-opacity="0.18938406" stroke-width="0.0"/>
    <path d="M 662.0 741.0 C 661.3301391601562 743.5 659.5 745.3301391601562 657.0 746.0 C 654.5 745.3301391601562 652.6698608398438 743.5 652.0 741.0 C 652.6698608398438 738.5 654.5 736.6698608398438 657.0 736.0 C 659.5 736.6698608398438 661.3301391601562 738.5 662.0 741.0" fill="rgb(115, 214, 178)" opacity="1.0" stroke="rgb(237, 176, 167)" stroke-linecap="round" stroke-linejoin="round" stroke-opacity="0.91552186" stroke-width="0.0"/>
  </g>
</svg>
