<?xml version="1.0" ?>
<svg height="768" version="1.1" width="768" xmlns="http://www.w3.org/2000/svg">
  <defs/>
  <g>
    <path d="M 550.1485595703125 721.1536254882812 C 581.7631225585938 728.382080078125 691.649169921875 652.218994140625 709.537109375 773.8126220703125 C -168.87625122070312 848.2203979492188 -94.70603942871094 870.1624145507812 -17.22606658935547 -11.40841293334961 C 245.03598022460938 -29.793582916259766 420.7847595214844 -27.86751937866211 805.3824462890625 3.2900941371917725 C 790.1713256835938 661.5409545898438 718.7079467773438 695.6822509765625 550.1485595703125 721.1536254882812" fill="rgb(138, 136, 139)" opacity="1.0" stroke="rgb(121, 243, 197)" stroke-linecap="round" stroke-linejoin="round" stroke-opacity="0.5690819" stroke-width="0.0"/>
    <path d="M 385.5641784667969 569.9546508789062 C 368.3100280761719 401.7867126464844 263.60235595703125 408.14892578125 319.31890869140625 528.6221313476562 C 316.1279602050781 585.9573974609375 272.03814697265625 456.2117004394531 265.41748046875 387.8519592285156 C 272.5055847167969 329.5874938964844 356.18359375 388.3189697265625 414.0357360839844 280.1500549316406 C 559.3894653320312 464.5145263671875 357.0840759277344 225.8580780029297 385.5641784667969 569.9546508789062" fill="rgb(49, 44, 53)" opacity="0.9317672" stroke="rgb(155, 50, 100)" stroke-linecap="round" stroke-linejoin="round" stroke-opacity="0.2088754" stroke-width="0.0"/>
    <path d="M 780.2211303710938 757.3802490234375 C 788.14013671875 775.6574096679688 790.8856811523438 782.2323608398438 659.5528564453125 777.4782104492188 C 641.5944213867188 760.2247314453125 618.142333984375 768.0274658203125 632.6569213867188 631.6477661132812 C 665.5886840820312 603.1967163085938 623.2919921875 569.2529296875 767.67919921875 494.40081787109375 C 791.7369995117188 648.3192749023438 782.3777465820312 656.1241455078125 780.2211303710938 757.3802490234375" fill="rgb(125, 131, 143)" opacity="1.0" stroke="rgb(122, 43, 101)" stroke-linecap="round" stroke-linejoin="round" stroke-opacity="0.7450818" stroke-width="0.0"/>
    <path d="M 433.0 462.0 C 432.33013916015625 464.5 430.5 466.33013916015625 428.0 467.0 C 425.5 466.33013916015625 423.66986083984375 464.5 423.0 462.0 C 423.66986083984375 459.5 425.5 457.66986083984375 428.0 457.0 C 430.5 457.66986083984375 432.33013916015625 459.5 433.0 462.0" fill="rgb(251, 204, 165)" opacity="1.0" stroke="rgb(66, 55, 42)" stroke-linecap="round" stroke-linejoin="round" stroke-opacity="0.19821793" stroke-width="0.0"/>
  </g>
</svg>
