<?xml version="1.0" ?>
<svg height="768" version="1.1" width="768" xmlns="http://www.w3.org/2000/svg">
  <defs/>
  <g>
    <path d="M 550.2213745117188 721.4440307617188 C 582.0027465820312 725.1222534179688 692.4625854492188 657.3865356445312 709.646240234375 773.9457397460938 C -168.9800262451172 848.2874755859375 -94.76231384277344 870.2854614257812 -17.235620498657227 -11.389496803283691 C 245.03598022460938 -29.79408073425293 420.79296875 -27.878070831298828 805.5225219726562 3.239776134490967 C 790.4461059570312 661.32958984375 718.7191772460938 694.0211181640625 550.2213745117188 721.4440307617188" fill="rgb(133, 133, 138)" opacity="1.0" stroke="rgb(121, 243, 197)" stroke-linecap="round" stroke-linejoin="round" stroke-opacity="0.5690819" stroke-width="0.0"/>
    <path d="M 379.5152282714844 589.1022338867188 C 384.642822265625 397.2860412597656 260.76007080078125 410.353759765625 317.27899169921875 521.1730346679688 C 322.150390625 592.6387329101562 274.5549011230469 471.9289245605469 265.5260925292969 388.6174011230469 C 270.3803405761719 330.2706604003906 359.7619934082031 386.0702819824219 409.72216796875 283.93505859375 C 572.10791015625 434.9606628417969 378.86676025390625 242.94146728515625 379.5152282714844 589.1022338867188" fill="rgb(47, 43, 52)" opacity="0.9371245" stroke="rgb(155, 50, 100)" stroke-linecap="round" stroke-linejoin="round" stroke-opacity="0.2088754" stroke-width="0.0"/>
    <path d="M 780.2211303710938 757.3802490234375 C 788.14013671875 775.6574096679688 790.8856811523438 782.2323608398438 652.1835327148438 777.6712036132812 C 634.5700073242188 763.3578491210938 612.4099731445312 771.4019165039062 628.57177734375 621.0584716796875 C 659.4451904296875 600.4313354492188 609.1878051757812 567.3262329101562 767.7666015625 489.714111328125 C 791.8843383789062 648.3070678710938 782.3777465820312 656.1241455078125 780.2211303710938 757.3802490234375" fill="rgb(126, 131, 143)" opacity="1.0" stroke="rgb(122, 43, 101)" stroke-linecap="round" stroke-linejoin="round" stroke-opacity="0.7450818" stroke-width="0.0"/>
    <path d="M 472.3760681152344 480.4506530761719 C 456.4591369628906 507.4896545410156 443.0047912597656 518.6337890625 387.231689453125 516.2230834960938 C 381.6894226074219 521.3544311523438 381.1031188964844 511.5689392089844 392.4215087890625 421.8809814453125 C 396.47576904296875 391.1208801269531 431.4364929199219 362.8316650390625 439.12677001953125 369.80499267578125 C 468.9685363769531 444.932861328125 482.5346374511719 450.61273193359375 472.3760681152344 480.4506530761719" fill="rgb(245, 213, 179)" opacity="1.0" stroke="rgb(66, 55, 42)" stroke-linecap="round" stroke-linejoin="round" stroke-opacity="0.19821793" stroke-width="0.0"/>
    <path d="M 328.0 528.0 C 327.33013916015625 530.5 325.5 532.3301391601562 323.0 533.0 C 320.5 532.3301391601562 318.66986083984375 530.5 318.0 528.0 C 318.66986083984375 525.5 320.5 523.6698608398438 323.0 523.0 C 325.5 523.6698608398438 327.33013916015625 525.5 328.0 528.0" fill="rgb(255, 255, 253)" opacity="1.0" stroke="rgb(223, 95, 194)" stroke-linecap="round" stroke-linejoin="round" stroke-opacity="0.93625855" stroke-width="0.0"/>
  </g>
</svg>
