<?xml version="1.0" ?>
<svg height="768" version="1.1" width="768" xmlns="http://www.w3.org/2000/svg">
  <defs/>
  <g>
    <path d="M 454.30804443359375 482.432373046875 C 483.5000915527344 568.26708984375 312.7264709472656 556.6002197265625 449.5469970703125 603.56591796875 C 97.81934356689453 602.081298828125 516.2075805664062 618.8754272460938 310.6533508300781 531.1064453125 C 308.370361328125 478.1139831542969 317.5147705078125 470.4972229003906 344.6180114746094 481.1634826660156 C 427.5164489746094 496.659912109375 438.3624267578125 462.9516296386719 454.30804443359375 482.432373046875" fill="rgb(20, 21, 24)" opacity="0.90106106" stroke="rgb(96, 55, 31)" stroke-linecap="round" stroke-linejoin="round" stroke-opacity="0.22151136" stroke-width="0.0"/>
    <path d="M 528.2671508789062 593.0372924804688 C 613.455078125 232.6416015625 581.8714599609375 131.5860595703125 543.619873046875 288.0596618652344 C 626.6777954101562 393.8472595214844 669.718017578125 442.85235595703125 11.026947021484375 544.9609375 C -4.005345821380615 -183.7244110107422 10.669412612915039 -77.46186065673828 766.3114624023438 -8.562092781066895 C 832.0263671875 394.9378662109375 919.2925415039062 523.57861328125 528.2671508789062 593.0372924804688" fill="rgb(77, 44, 0)" opacity="0.48323146" stroke="rgb(252, 103, 113)" stroke-linecap="round" stroke-linejoin="round" stroke-opacity="0.17671677" stroke-width="0.0"/>
    <path d="M 324.5791320800781 357.9085388183594 C 341.1973571777344 430.68243408203125 279.87744140625 478.569580078125 315.0378112792969 417.39788818359375 C 330.0327453613281 367.36785888671875 245.97691345214844 422.8267822265625 231.67630004882812 356.3025207519531 C 231.7678680419922 329.3119812011719 223.31463623046875 336.9766540527344 253.61251831054688 329.5115661621094 C 272.5251159667969 325.79339599609375 321.4330139160156 347.5819091796875 324.5791320800781 357.9085388183594" fill="rgb(7, 4, 3)" opacity="1.0" stroke="rgb(86, 247, 142)" stroke-linecap="round" stroke-linejoin="round" stroke-opacity="0.17833921" stroke-width="0.0"/>
    <path d="M 536.397216796875 335.06964111328125 C 538.5711059570312 373.73162841796875 522.2239990234375 391.9225769042969 481.6401062011719 393.3461608886719 C 408.8349914550781 384.44580078125 485.2491149902344 462.3310241699219 461.64794921875 449.114013671875 C 417.7812805175781 400.2885437011719 452.8643798828125 320.8535461425781 441.51861572265625 354.5088806152344 C 497.1010437011719 318.66204833984375 518.6699829101562 330.25311279296875 536.397216796875 335.06964111328125" fill="rgb(6, 3, 2)" opacity="1.0" stroke="rgb(207, 200, 10)" stroke-linecap="round" stroke-linejoin="round" stroke-opacity="0.28491223" stroke-width="0.0"/>
    <path d="M 560.0064086914062 347.8102111816406 C 686.9544067382812 158.775390625 594.1962890625 153.24288940429688 595.2725830078125 172.41184997558594 C 540.1854248046875 245.78695678710938 509.2098083496094 227.8740234375 506.2823791503906 192.76182556152344 C 304.94134521484375 131.7644805908203 267.26641845703125 128.29299926757812 564.2197875976562 170.78927612304688 C 590.2354736328125 116.96792602539062 743.2351684570312 173.14324951171875 560.0064086914062 347.8102111816406" fill="rgb(2, 10, 21)" opacity="0.7900016" stroke="rgb(46, 118, 85)" stroke-linecap="round" stroke-linejoin="round" stroke-opacity="0.8824958" stroke-width="0.0"/>
  </g>
</svg>
