<?xml version="1.0" ?>
<svg height="768" version="1.1" width="768" xmlns="http://www.w3.org/2000/svg">
  <defs/>
  <g>
    <path d="M 768.2207641601562 633.3023681640625 C 165.46083068847656 587.1864624023438 142.79669189453125 516.972412109375 13.061532974243164 417.239990234375 C 96.56114196777344 -295.9811096191406 259.0933532714844 -225.70663452148438 424.6383361816406 -149.8455810546875 C 535.8565063476562 -14.992713928222656 542.9514770507812 -14.982648849487305 748.3668212890625 -12.922706604003906 C 776.19873046875 -42.89540481567383 788.2655639648438 -56.536102294921875 768.2207641601562 633.3023681640625" fill="rgb(121, 115, 122)" opacity="0.997388" stroke="rgb(40, 7, 162)" stroke-linecap="round" stroke-linejoin="round" stroke-opacity="0.14963673" stroke-width="0.0"/>
    <path d="M 436.2928771972656 357.89178466796875 C 433.74169921875 454.8979797363281 465.61016845703125 415.91748046875 384.7356872558594 492.8045654296875 C 398.9335021972656 484.7877502441406 329.383544921875 461.30731201171875 331.72222900390625 410.3659973144531 C 347.2280578613281 286.20880126953125 323.2524108886719 397.7075500488281 307.30206298828125 290.1900939941406 C 388.841064453125 372.8221740722656 530.5658569335938 233.66026306152344 436.2928771972656 357.89178466796875" fill="rgb(247, 242, 240)" opacity="0.94530666" stroke="rgb(148, 223, 127)" stroke-linecap="round" stroke-linejoin="round" stroke-opacity="0.64688516" stroke-width="0.0"/>
    <path d="M 237.1389617919922 -17.991199493408203 C 292.32232666015625 367.5455322265625 467.4081115722656 437.03778076171875 2.999169111251831 552.0751342773438 C -32.54834747314453 231.27178955078125 -14.284278869628906 219.3724822998047 -12.29276180267334 118.69100952148438 C -11.2598295211792 109.89977264404297 -12.758524894714355 106.12730407714844 -42.45022201538086 -4.5108137130737305 C 86.88662719726562 -14.352983474731445 105.8904800415039 -16.394182205200195 237.1389617919922 -17.991199493408203" fill="rgb(125, 119, 125)" opacity="1.0" stroke="rgb(198, 179, 177)" stroke-linecap="round" stroke-linejoin="round" stroke-opacity="0.6956829" stroke-width="0.0"/>
    <path d="M 108.0 653.0 C 107.33012390136719 655.5 105.5 657.3301391601562 103.0 658.0 C 100.5 657.3301391601562 98.66987609863281 655.5 98.0 653.0 C 98.66987609863281 650.5 100.5 648.6698608398438 103.0 648.0 C 105.5 648.6698608398438 107.33012390136719 650.5 108.0 653.0" fill="rgb(123, 117, 124)" opacity="1.0" stroke="rgb(158, 190, 84)" stroke-linecap="round" stroke-linejoin="round" stroke-opacity="0.9612107" stroke-width="0.0"/>
  </g>
</svg>
