<?xml version="1.0" ?>
<svg height="768" version="1.1" width="768" xmlns="http://www.w3.org/2000/svg">
  <defs/>
  <g>
    <path d="M 767.8565063476562 633.74560546875 C 164.68115234375 587.9658813476562 142.2453155517578 517.6005249023438 13.036958694458008 417.5007629394531 C 96.56114196777344 -295.9811096191406 259.0933532714844 -225.70663452148438 424.6383361816406 -149.8455810546875 C 535.8565063476562 -14.992713928222656 542.9514770507812 -14.982648849487305 748.3668212890625 -12.922706604003906 C 776.19873046875 -42.89540481567383 788.2655639648438 -56.536102294921875 767.8565063476562 633.74560546875" fill="rgb(118, 113, 119)" opacity="0.99990666" stroke="rgb(40, 7, 162)" stroke-linecap="round" stroke-linejoin="round" stroke-opacity="0.14963673" stroke-width="0.0"/>
    <path d="M 436.392822265625 357.7567443847656 C 433.6776428222656 454.8468322753906 465.7692565917969 415.9232482910156 384.68182373046875 492.904541015625 C 399.4879150390625 484.2616882324219 325.9866943359375 460.89825439453125 332.0412292480469 406.22064208984375 C 346.8228454589844 286.0354309082031 324.1295166015625 405.4656677246094 302.30609130859375 274.4341735839844 C 361.43505859375 390.10009765625 538.4857788085938 226.25502014160156 436.392822265625 357.7567443847656" fill="rgb(247, 242, 240)" opacity="0.94443285" stroke="rgb(148, 223, 127)" stroke-linecap="round" stroke-linejoin="round" stroke-opacity="0.64688516" stroke-width="0.0"/>
    <path d="M 230.6781768798828 -18.883224487304688 C 288.3997497558594 388.2756652832031 489.603271484375 458.73828125 2.764512538909912 569.8602905273438 C -37.36637878417969 233.88539123535156 -14.340995788574219 219.44879150390625 -12.292967796325684 118.69185638427734 C -11.2598295211792 109.89977264404297 -12.758524894714355 106.12730407714844 -42.45259475708008 -4.5114641189575195 C 86.89371490478516 -14.351417541503906 105.89517211914062 -16.388118743896484 230.6781768798828 -18.883224487304688" fill="rgb(123, 117, 123)" opacity="1.0" stroke="rgb(198, 179, 177)" stroke-linecap="round" stroke-linejoin="round" stroke-opacity="0.6956829" stroke-width="0.0"/>
    <path d="M 418.4499816894531 890.388427734375 C 192.74093627929688 784.1098022460938 172.95486450195312 783.20654296875 -14.671348571777344 778.95947265625 C -15.92668342590332 742.8054809570312 -14.7764310836792 727.7893676757812 -11.517050743103027 543.1439819335938 C 21.661109924316406 533.3402709960938 37.742774963378906 520.4444580078125 543.3169555664062 517.173828125 C 568.6947021484375 681.9782104492188 517.2056274414062 905.5398559570312 418.4499816894531 890.388427734375" fill="rgb(116, 111, 118)" opacity="0.9905108" stroke="rgb(158, 190, 84)" stroke-linecap="round" stroke-linejoin="round" stroke-opacity="0.9612107" stroke-width="0.0"/>
    <path d="M 672.0 675.0 C 671.3301391601562 677.5 669.5 679.3301391601562 667.0 680.0 C 664.5 679.3301391601562 662.6698608398438 677.5 662.0 675.0 C 662.6698608398438 672.5 664.5 670.6698608398438 667.0 670.0 C 669.5 670.6698608398438 671.3301391601562 672.5 672.0 675.0" fill="rgb(123, 116, 123)" opacity="1.0" stroke="rgb(252, 92, 78)" stroke-linecap="round" stroke-linejoin="round" stroke-opacity="0.32476136" stroke-width="0.0"/>
  </g>
</svg>
