<?xml version="1.0" ?>
<svg height="768" version="1.1" width="768" xmlns="http://www.w3.org/2000/svg">
  <defs/>
  <g>
    <path d="M 756.3729248046875 672.3432006835938 C -146.03866577148438 596.9271850585938 -145.41517639160156 456.5749816894531 -78.1732406616211 299.5052185058594 C -18.775978088378906 -52.43062210083008 29.349706649780273 -75.17283630371094 90.13677978515625 -167.86807250976562 C 206.21160888671875 -14.138915061950684 212.06031799316406 -12.502212524414062 770.1006469726562 -11.637672424316406 C 761.767822265625 -36.8842658996582 766.8766479492188 -44.70606994628906 756.3729248046875 672.3432006835938" fill="rgb(129, 139, 148)" opacity="0.99968433" stroke="rgb(159, 215, 175)" stroke-linecap="round" stroke-linejoin="round" stroke-opacity="0.49019745" stroke-width="0.0"/>
    <path d="M 645.3629150390625 765.7890014648438 C 300.79913330078125 810.8696899414062 267.03643798828125 780.523193359375 -10.764837265014648 780.6990356445312 C -14.957493782043457 689.5364379882812 -12.538344383239746 654.04638671875 6.660374164581299 612.9739990234375 C 244.43804931640625 492.97528076171875 -19.620656967163086 465.34173583984375 415.5970764160156 518.5424194335938 C 412.8799743652344 664.7666015625 550.20458984375 384.3337707519531 645.3629150390625 765.7890014648438" fill="rgb(20, 11, 0)" opacity="0.4779465" stroke="rgb(155, 196, 56)" stroke-linecap="round" stroke-linejoin="round" stroke-opacity="0.55910236" stroke-width="0.0"/>
    <path d="M 354.20135498046875 618.9380493164062 C 234.39183044433594 637.8451538085938 202.05076599121094 629.7785034179688 175.54251098632812 621.4010009765625 C 167.52598571777344 613.9296875 69.62183380126953 581.1427001953125 83.9391098022461 417.2273864746094 C 60.62940979003906 486.8401184082031 144.69656372070312 195.0605926513672 328.74505615234375 172.74928283691406 C 161.62596130371094 571.75439453125 164.43675231933594 411.3057861328125 354.20135498046875 618.9380493164062" fill="rgb(63, 62, 59)" opacity="0.78226125" stroke="rgb(146, 16, 163)" stroke-linecap="round" stroke-linejoin="round" stroke-opacity="0.20425494" stroke-width="0.0"/>
    <path d="M 133.0 176.0 C 132.3301239013672 178.5 130.5 180.3301239013672 128.0 181.0 C 125.5 180.3301239013672 123.66987609863281 178.5 123.0 176.0 C 123.66987609863281 173.5 125.5 171.6698760986328 128.0 171.0 C 130.5 171.6698760986328 132.3301239013672 173.5 133.0 176.0" fill="rgb(55, 59, 59)" opacity="1.0" stroke="rgb(154, 116, 238)" stroke-linecap="round" stroke-linejoin="round" stroke-opacity="0.9484127" stroke-width="0.0"/>
  </g>
</svg>
