<?xml version="1.0" ?>
<svg height="768" version="1.1" width="768" xmlns="http://www.w3.org/2000/svg">
  <defs/>
  <g>
    <path d="M 756.09326171875 672.7326049804688 C -147.67958068847656 597.565673828125 -148.09451293945312 457.7605895996094 -78.82608032226562 299.94793701171875 C -18.775978088378906 -52.43062210083008 29.349706649780273 -75.17283630371094 90.13677978515625 -167.86807250976562 C 206.21160888671875 -14.138915061950684 212.06031799316406 -12.502212524414062 770.1006469726562 -11.637672424316406 C 761.767822265625 -36.8842658996582 766.8917846679688 -44.67832565307617 756.09326171875 672.7326049804688" fill="rgb(130, 141, 150)" opacity="0.992337" stroke="rgb(159, 215, 175)" stroke-linecap="round" stroke-linejoin="round" stroke-opacity="0.49019745" stroke-width="0.0"/>
    <path d="M 648.8312377929688 765.3242797851562 C 301.4156188964844 811.6084594726562 267.05169677734375 780.523193359375 -10.764837265014648 780.6990356445312 C -14.957493782043457 689.5364379882812 -12.538344383239746 654.04638671875 8.727871894836426 628.7758178710938 C 266.209716796875 505.2044982910156 -22.76868438720703 478.2622375488281 414.3985290527344 515.13330078125 C 416.4097595214844 677.3907470703125 555.9899291992188 383.98944091796875 648.8312377929688 765.3242797851562" fill="rgb(19, 8, 0)" opacity="0.48802394" stroke="rgb(155, 196, 56)" stroke-linecap="round" stroke-linejoin="round" stroke-opacity="0.55910236" stroke-width="0.0"/>
    <path d="M 334.3275451660156 620.87939453125 C 243.2679443359375 637.1371459960938 188.719970703125 629.7889404296875 172.642822265625 618.6209106445312 C 171.57472229003906 619.228515625 56.80040740966797 570.3296508789062 88.70579528808594 401.35400390625 C 47.832481384277344 494.0758056640625 176.46092224121094 171.54078674316406 312.73443603515625 184.0651397705078 C 282.2536315917969 413.57659912109375 84.05594635009766 413.2965393066406 334.3275451660156 620.87939453125" fill="rgb(60, 60, 58)" opacity="0.87182504" stroke="rgb(146, 16, 163)" stroke-linecap="round" stroke-linejoin="round" stroke-opacity="0.20425494" stroke-width="0.0"/>
    <path d="M 270.25115966796875 260.4253845214844 C 108.79910278320312 160.2568817138672 150.75450134277344 263.4638671875 82.69355773925781 256.9699401855469 C 133.6416015625 225.78858947753906 49.838523864746094 235.313720703125 112.92958068847656 164.37001037597656 C 93.06132507324219 127.03589630126953 137.2238006591797 88.87322998046875 227.8656463623047 98.86046600341797 C 306.42364501953125 137.44090270996094 320.7311096191406 207.67465209960938 270.25115966796875 260.4253845214844" fill="rgb(94, 62, 57)" opacity="0.9077281" stroke="rgb(154, 116, 238)" stroke-linecap="round" stroke-linejoin="round" stroke-opacity="0.9484127" stroke-width="0.0"/>
    <path d="M 764.0 582.0 C 763.3301391601562 584.5 761.5 586.3301391601562 759.0 587.0 C 756.5 586.3301391601562 754.6698608398438 584.5 754.0 582.0 C 754.6698608398438 579.5 756.5 577.6698608398438 759.0 577.0 C 761.5 577.6698608398438 763.3301391601562 579.5 764.0 582.0" fill="rgb(131, 146, 159)" opacity="1.0" stroke="rgb(127, 254, 159)" stroke-linecap="round" stroke-linejoin="round" stroke-opacity="0.09403891" stroke-width="0.0"/>
  </g>
</svg>
