<?xml version="1.0" ?>
<svg height="768" version="1.1" width="768" xmlns="http://www.w3.org/2000/svg">
  <defs/>
  <g>
    <path d="M 562.7280883789062 835.8297729492188 C 82.03119659423828 801.815673828125 -21.69004249572754 781.1102905273438 -90.17977905273438 715.7661743164062 C -19.378469467163086 554.7852172851562 -16.266448974609375 525.2969970703125 -18.987178802490234 16.393842697143555 C -43.300926208496094 -17.97400665283203 206.99871826171875 -17.95025062561035 766.350830078125 0.5396928191184998 C 733.4166259765625 727.8506469726562 661.5807495117188 797.9564208984375 562.7280883789062 835.8297729492188" fill="rgb(107, 143, 156)" opacity="1.0" stroke="rgb(73, 205, 214)" stroke-linecap="round" stroke-linejoin="round" stroke-opacity="0.965904" stroke-width="0.0"/>
    <path d="M 781.8894653320312 649.724365234375 C 789.6814575195312 772.3527221679688 797.0327758789062 781.0298461914062 689.9849853515625 780.4779052734375 C 628.7532958984375 782.1553955078125 638.0194091796875 775.9801635742188 661.5354614257812 742.0126953125 C 672.6686401367188 632.207763671875 623.031982421875 598.4149169921875 748.43994140625 340.9803466796875 C 921.3786010742188 439.4306335449219 798.0936889648438 535.0244140625 781.8894653320312 649.724365234375" fill="rgb(108, 143, 157)" opacity="1.0" stroke="rgb(81, 183, 210)" stroke-linecap="round" stroke-linejoin="round" stroke-opacity="0.3049385" stroke-width="0.0"/>
    <path d="M 376.0 233.0 C 375.33013916015625 235.5 373.5 237.3301239013672 371.0 238.0 C 368.5 237.3301239013672 366.66986083984375 235.5 366.0 233.0 C 366.66986083984375 230.5 368.5 228.6698760986328 371.0 228.0 C 373.5 228.6698760986328 375.33013916015625 230.5 376.0 233.0" fill="rgb(229, 150, 64)" opacity="1.0" stroke="rgb(125, 189, 16)" stroke-linecap="round" stroke-linejoin="round" stroke-opacity="0.28963178" stroke-width="0.0"/>
  </g>
</svg>
