<?xml version="1.0" ?>
<svg height="768" version="1.1" width="768" xmlns="http://www.w3.org/2000/svg">
  <defs/>
  <g>
    <path d="M 734.3811645507812 -36.574405670166016 C 772.7706909179688 213.28640747070312 790.4473266601562 353.1148681640625 805.2772216796875 763.0718994140625 C 588.6886596679688 789.2643432617188 508.134033203125 797.4461059570312 89.49906921386719 867.8043212890625 C 18.204341888427734 714.01806640625 -28.75379180908203 673.9028930664062 -94.69348907470703 198.66189575195312 C 55.390960693359375 101.99456787109375 79.27754211425781 17.293212890625 734.3811645507812 -36.574405670166016" fill="rgb(117, 133, 154)" opacity="0.9752384" stroke="rgb(45, 141, 83)" stroke-linecap="round" stroke-linejoin="round" stroke-opacity="0.6437386" stroke-width="0.0"/>
    <path d="M 423.26409912109375 507.5687255859375 C 589.8316650390625 351.4105224609375 685.8224487304688 418.9867248535156 480.61419677734375 603.9763793945312 C 90.30879211425781 640.1596069335938 396.86676025390625 566.7439575195312 127.65782165527344 501.6081848144531 C 213.8090057373047 309.3117980957031 355.0334167480469 614.7874145507812 346.8661193847656 404.1163330078125 C 400.5788879394531 533.0280151367188 440.8492126464844 269.2901611328125 423.26409912109375 507.5687255859375" fill="rgb(35, 40, 45)" opacity="0.8061126" stroke="rgb(197, 202, 174)" stroke-linecap="round" stroke-linejoin="round" stroke-opacity="0.52781504" stroke-width="0.0"/>
    <path d="M 554.391845703125 424.0613098144531 C 556.5584106445312 579.376220703125 492.8294372558594 631.7522583007812 289.5473327636719 598.5367431640625 C 91.21783447265625 450.73077392578125 155.6207733154297 315.7336730957031 347.17449951171875 524.5473022460938 C 321.6028137207031 253.1938018798828 359.9281921386719 562.1146850585938 425.4175109863281 397.66961669921875 C 419.06622314453125 628.7124633789062 395.0161437988281 477.1391906738281 554.391845703125 424.0613098144531" fill="rgb(0, 0, 0)" opacity="0.88285667" stroke="rgb(95, 126, 101)" stroke-linecap="round" stroke-linejoin="round" stroke-opacity="0.23086043" stroke-width="0.0"/>
    <path d="M 634.4425048828125 485.3375244140625 C 700.4918823242188 521.0961303710938 654.9042358398438 503.6304626464844 633.384765625 506.35992431640625 C 548.3737182617188 503.0277099609375 499.2435302734375 608.0275268554688 539.5482788085938 507.0158386230469 C 566.4237670898438 396.81829833984375 518.6935424804688 373.451904296875 560.6787109375 403.5086669921875 C 618.6090698242188 440.6451721191406 598.8289184570312 461.98944091796875 634.4425048828125 485.3375244140625" fill="rgb(1, 1, 1)" opacity="0.98450047" stroke="rgb(74, 120, 64)" stroke-linecap="round" stroke-linejoin="round" stroke-opacity="0.9516004" stroke-width="0.0"/>
    <path d="M 318.11376953125 486.0188903808594 C 330.07049560546875 545.4453735351562 435.4189453125 443.63702392578125 396.28656005859375 623.3956298828125 C 369.06524658203125 674.5650024414062 216.90745544433594 396.837158203125 230.85635375976562 430.3476867675781 C 279.41058349609375 452.89581298828125 287.6932678222656 458.3658447265625 302.33892822265625 464.8190002441406 C 309.3390808105469 462.2863464355469 311.3174743652344 456.9934387207031 318.11376953125 486.0188903808594" fill="rgb(2, 2, 1)" opacity="0.9693602" stroke="rgb(94, 249, 173)" stroke-linecap="round" stroke-linejoin="round" stroke-opacity="0.30149052" stroke-width="0.0"/>
  </g>
</svg>
