<?xml version="1.0" ?>
<svg height="768" version="1.1" width="768" xmlns="http://www.w3.org/2000/svg">
  <defs/>
  <g>
    <path d="M 734.320556640625 -36.501121520996094 C 772.6736450195312 213.39697265625 790.3826293945312 353.1835021972656 805.2772216796875 763.0718994140625 C 588.6886596679688 789.2643432617188 508.134033203125 797.4461059570312 89.52039337158203 867.7816162109375 C 18.24561882019043 713.9244995117188 -28.71303939819336 673.827880859375 -94.68118286132812 198.66189575195312 C 55.4067497253418 102.02147674560547 79.3293228149414 17.37198829650879 734.320556640625 -36.501121520996094" fill="rgb(114, 129, 150)" opacity="0.98808396" stroke="rgb(45, 141, 83)" stroke-linecap="round" stroke-linejoin="round" stroke-opacity="0.6437386" stroke-width="0.0"/>
    <path d="M 424.32208251953125 503.81219482421875 C 612.8777465820312 332.6575012207031 717.844482421875 472.76690673828125 466.3605651855469 604.3018188476562 C 98.99602508544922 645.05126953125 395.6611022949219 569.6426391601562 130.3745880126953 501.2859802246094 C 204.5249481201172 307.3802490234375 375.7865905761719 595.4077758789062 342.3216857910156 405.2666015625 C 413.1814270019531 517.5424194335938 434.4033203125 284.18402099609375 424.32208251953125 503.81219482421875" fill="rgb(28, 32, 35)" opacity="0.83964294" stroke="rgb(197, 202, 174)" stroke-linecap="round" stroke-linejoin="round" stroke-opacity="0.52781504" stroke-width="0.0"/>
    <path d="M 578.9773559570312 405.5536193847656 C 611.9653930664062 571.00830078125 401.9433898925781 658.0760498046875 270.2802429199219 583.4568481445312 C 97.55656433105469 441.6730651855469 161.5943145751953 324.73773193359375 347.5760498046875 521.7471923828125 C 325.8864440917969 292.22821044921875 339.2493896484375 510.48992919921875 429.2431640625 422.27618408203125 C 395.39947509765625 599.148193359375 424.7410888671875 476.8374328613281 578.9773559570312 405.5536193847656" fill="rgb(0, 0, 0)" opacity="0.8528934" stroke="rgb(95, 126, 101)" stroke-linecap="round" stroke-linejoin="round" stroke-opacity="0.23086043" stroke-width="0.0"/>
  </g>
</svg>
