<?xml version="1.0" ?>
<svg height="768" version="1.1" width="768" xmlns="http://www.w3.org/2000/svg">
  <defs/>
  <g>
    <path d="M 575.16064453125 -75.3082504272461 C 674.1434326171875 -51.49586486816406 755.66748046875 1.3608795404434204 799.5303955078125 756.8960571289062 C 497.30902099609375 790.0748291015625 332.359375 796.4122314453125 -0.14299049973487854 786.0590209960938 C -16.160472869873047 227.95408630371094 -19.40802001953125 175.13958740234375 -38.71428680419922 3.456037998199463 C 170.30859375 -17.45102882385254 290.0360107421875 -22.49768829345703 575.16064453125 -75.3082504272461" fill="rgb(135, 142, 148)" opacity="0.99408686" stroke="rgb(218, 134, 39)" stroke-linecap="round" stroke-linejoin="round" stroke-opacity="0.7291134" stroke-width="0.0"/>
    <path d="M 565.2481689453125 311.4794616699219 C 583.8944702148438 329.0317077636719 615.3307495117188 378.2349853515625 607.6805419921875 426.75482177734375 C 433.60687255859375 409.18572998046875 356.44915771484375 363.4658203125 335.1353759765625 352.6662902832031 C 357.8930358886719 283.8489074707031 225.1602783203125 381.4150695800781 307.3546447753906 295.99676513671875 C 390.44287109375 229.6616668701172 506.8858947753906 242.4049072265625 565.2481689453125 311.4794616699219" fill="rgb(63, 38, 32)" opacity="0.94733495" stroke="rgb(230, 24, 204)" stroke-linecap="round" stroke-linejoin="round" stroke-opacity="0.04079249" stroke-width="0.0"/>
    <path d="M 416.0 476.0 C 415.33013916015625 478.5 413.5 480.33013916015625 411.0 481.0 C 408.5 480.33013916015625 406.66986083984375 478.5 406.0 476.0 C 406.66986083984375 473.5 408.5 471.66986083984375 411.0 471.0 C 413.5 471.66986083984375 415.33013916015625 473.5 416.0 476.0" fill="rgb(18, 11, 12)" opacity="1.0" stroke="rgb(126, 250, 151)" stroke-linecap="round" stroke-linejoin="round" stroke-opacity="0.6182124" stroke-width="0.0"/>
  </g>
</svg>
