<?xml version="1.0" ?>
<svg height="768" version="1.1" width="768" xmlns="http://www.w3.org/2000/svg">
  <defs/>
  <g>
    <path d="M 575.3351440429688 -75.45301055908203 C 674.6958618164062 -52.254581451416016 756.3985595703125 0.434054970741272 799.9734497070312 757.0143432617188 C 497.4166259765625 790.1791381835938 332.3763122558594 796.4175415039062 -0.14287008345127106 786.0590209960938 C -16.160472869873047 227.95408630371094 -19.40802001953125 175.13958740234375 -38.71428680419922 3.456037998199463 C 170.30859375 -17.45102882385254 290.0360107421875 -22.49768829345703 575.3351440429688 -75.45301055908203" fill="rgb(141, 143, 144)" opacity="0.99840736" stroke="rgb(218, 134, 39)" stroke-linecap="round" stroke-linejoin="round" stroke-opacity="0.7291134" stroke-width="0.0"/>
    <path d="M 564.5429077148438 310.69842529296875 C 583.6514892578125 328.5794677734375 615.5722045898438 378.4571838378906 607.577392578125 426.7089538574219 C 436.1723937988281 409.51568603515625 356.87091064453125 364.1913757324219 335.0662536621094 352.3646545410156 C 358.6090087890625 283.7182922363281 222.843505859375 382.2738342285156 309.180419921875 294.4793395996094 C 383.7511901855469 235.53607177734375 499.40838623046875 236.61203002929688 564.5429077148438 310.69842529296875" fill="rgb(63, 38, 33)" opacity="0.94739664" stroke="rgb(230, 24, 204)" stroke-linecap="round" stroke-linejoin="round" stroke-opacity="0.04079249" stroke-width="0.0"/>
    <path d="M 456.794189453125 467.46844482421875 C 489.66400146484375 475.54547119140625 493.1127014160156 435.7672119140625 503.9712829589844 501.47857666015625 C 365.08026123046875 500.3243103027344 380.2598876953125 510.858154296875 398.08636474609375 483.05645751953125 C 406.02490234375 463.674560546875 406.5516357421875 464.66552734375 409.7063293457031 467.6714782714844 C 426.11370849609375 465.11962890625 426.80780029296875 467.7898254394531 456.794189453125 467.46844482421875" fill="rgb(41, 51, 68)" opacity="0.79512525" stroke="rgb(126, 250, 151)" stroke-linecap="round" stroke-linejoin="round" stroke-opacity="0.6182124" stroke-width="0.0"/>
    <path d="M 765.1228637695312 386.4888610839844 C 569.6265258789062 300.55279541015625 608.8110961914062 238.65391540527344 516.4484252929688 194.23086547851562 C 652.4788208007812 74.70726013183594 655.3739624023438 91.48211669921875 657.8333740234375 -5.6155900955200195 C 692.046142578125 -15.221860885620117 702.083740234375 -15.00931167602539 794.2066650390625 -10.995002746582031 C 789.2872314453125 23.462961196899414 810.3659057617188 47.11281967163086 765.1228637695312 386.4888610839844" fill="rgb(122, 139, 153)" opacity="1.0" stroke="rgb(160, 18, 163)" stroke-linecap="round" stroke-linejoin="round" stroke-opacity="0.99923205" stroke-width="0.0"/>
    <path d="M 385.0 484.0 C 384.33013916015625 486.5 382.5 488.33013916015625 380.0 489.0 C 377.5 488.33013916015625 375.66986083984375 486.5 375.0 484.0 C 375.66986083984375 481.5 377.5 479.66986083984375 380.0 479.0 C 382.5 479.66986083984375 384.33013916015625 481.5 385.0 484.0" fill="rgb(246, 161, 38)" opacity="1.0" stroke="rgb(253, 245, 138)" stroke-linecap="round" stroke-linejoin="round" stroke-opacity="0.7347993" stroke-width="0.0"/>
  </g>
</svg>
