<?xml version="1.0" ?>
<svg height="768" version="1.1" width="768" xmlns="http://www.w3.org/2000/svg">
  <defs/>
  <g>
    <path d="M 768.9241333007812 772.954833984375 C 676.24658203125 828.0206909179688 647.6883544921875 797.66259765625 -16.90839195251465 783.044189453125 C -22.898921966552734 610.8079833984375 -24.506059646606445 589.8458251953125 -6.638270854949951 58.85470962524414 C 57.197574615478516 17.633451461791992 74.63594055175781 12.24830436706543 780.5201416015625 49.091514587402344 C 779.0007934570312 232.14520263671875 774.7313232421875 245.78118896484375 768.9241333007812 772.954833984375" fill="rgb(142, 146, 138)" opacity="0.9547055" stroke="rgb(86, 0, 149)" stroke-linecap="round" stroke-linejoin="round" stroke-opacity="0.99651307" stroke-width="0.0"/>
    <path d="M 658.8612670898438 323.72119140625 C 625.66259765625 595.5545043945312 239.6422882080078 383.4139099121094 351.2831115722656 503.8878479003906 C 316.89111328125 464.671142578125 187.70736694335938 690.5782470703125 334.7975769042969 456.806884765625 C -2.2681970596313477 517.3826293945312 89.22763061523438 280.763427734375 212.21241760253906 311.73907470703125 C 594.1038208007812 721.6969604492188 125.8495101928711 118.0988998413086 658.8612670898438 323.72119140625" fill="rgb(31, 26, 24)" opacity="0.8972867" stroke="rgb(146, 154, 154)" stroke-linecap="round" stroke-linejoin="round" stroke-opacity="0.08431917" stroke-width="0.0"/>
    <path d="M 403.42010498046875 262.7886657714844 C 791.1958618164062 346.4288024902344 552.9177856445312 195.44302368164062 332.1383056640625 600.425048828125 C 390.06976318359375 431.8475036621094 246.4180450439453 584.326904296875 253.04476928710938 410.2054443359375 C 375.6856384277344 453.7215576171875 284.285400390625 473.0320129394531 352.4629211425781 496.3684387207031 C 395.9755554199219 438.0047912597656 359.85174560546875 283.4281005859375 403.42010498046875 262.7886657714844" fill="rgb(4, 0, 0)" opacity="0.8301929" stroke="rgb(133, 187, 60)" stroke-linecap="round" stroke-linejoin="round" stroke-opacity="0.4773967" stroke-width="0.0"/>
    <path d="M 310.3768005371094 522.1588134765625 C 294.38604736328125 550.263916015625 314.7988586425781 555.2818603515625 289.4136962890625 556.7730102539062 C 290.6165466308594 579.3778686523438 261.3887939453125 565.9432373046875 260.8519287109375 572.5406494140625 C 272.7555847167969 528.2889404296875 327.7956237792969 517.6482543945312 254.63987731933594 449.7738952636719 C 372.87213134765625 467.63873291015625 322.69830322265625 497.6907958984375 310.3768005371094 522.1588134765625" fill="rgb(0, 0, 0)" opacity="0.982974" stroke="rgb(216, 125, 233)" stroke-linecap="round" stroke-linejoin="round" stroke-opacity="0.32670325" stroke-width="0.0"/>
    <path d="M 662.0 509.0 C 661.3301391601562 511.5 659.5 513.3301391601562 657.0 514.0 C 654.5 513.3301391601562 652.6698608398438 511.5 652.0 509.0 C 652.6698608398438 506.5 654.5 504.66986083984375 657.0 504.0 C 659.5 504.66986083984375 661.3301391601562 506.5 662.0 509.0" fill="rgb(0, 0, 0)" opacity="1.0" stroke="rgb(27, 49, 96)" stroke-linecap="round" stroke-linejoin="round" stroke-opacity="0.43787405" stroke-width="0.0"/>
  </g>
</svg>
