<?xml version="1.0" ?>
<svg height="768" version="1.1" width="768" xmlns="http://www.w3.org/2000/svg">
  <defs/>
  <g>
    <path d="M 766.381103515625 -32.730411529541016 C 796.1724243164062 600.9548950195312 782.03955078125 607.1778564453125 907.5733032226562 702.1276245117188 C 817.4645385742188 758.8723754882812 782.047607421875 786.8499755859375 461.6008605957031 833.6903686523438 C 296.4769287109375 939.5904541015625 188.7450714111328 943.9546508789062 143.21739196777344 96.38289642333984 C 580.8740844726562 45.18844223022461 588.1901245117188 5.296886920928955 766.381103515625 -32.730411529541016" fill="rgb(116, 143, 125)" opacity="0.9661895" stroke="rgb(77, 67, 76)" stroke-linecap="round" stroke-linejoin="round" stroke-opacity="0.8208083" stroke-width="0.0"/>
    <path d="M 212.04342651367188 175.1450653076172 C 220.92642211914062 414.2670593261719 302.75848388671875 427.7411804199219 491.3003234863281 683.3434448242188 C 236.863037109375 782.2728271484375 89.0900650024414 823.6343383789062 -14.398956298828125 782.0535888671875 C -18.579723358154297 350.243408203125 -23.543609619140625 325.2044372558594 1.3073087930679321 -17.090219497680664 C 551.0686645507812 -11.562530517578125 402.8266906738281 38.525142669677734 212.04342651367188 175.1450653076172" fill="rgb(110, 131, 142)" opacity="1.0" stroke="rgb(7, 107, 5)" stroke-linecap="round" stroke-linejoin="round" stroke-opacity="0.8064527" stroke-width="0.0"/>
    <path d="M 392.3957824707031 490.7668151855469 C 270.55084228515625 484.2997131347656 396.605224609375 596.6343383789062 242.41429138183594 582.0361938476562 C 242.7318115234375 538.0067138671875 -62.6857795715332 565.7069091796875 144.63160705566406 500.1749267578125 C 293.164306640625 548.751220703125 269.37481689453125 312.1177978515625 545.7368774414062 373.4420166015625 C 339.0027160644531 441.0761413574219 457.32293701171875 671.8742065429688 392.3957824707031 490.7668151855469" fill="rgb(0, 133, 15)" opacity="0.8548692" stroke="rgb(67, 192, 183)" stroke-linecap="round" stroke-linejoin="round" stroke-opacity="0.62813187" stroke-width="0.0"/>
    <path d="M 452.24456787109375 547.1475830078125 C 495.4535827636719 586.965576171875 445.04193115234375 577.2103881835938 429.1768798828125 578.2614135742188 C 391.84716796875 580.4497680664062 396.92926025390625 566.801025390625 391.6463623046875 552.218994140625 C 384.25054931640625 492.9958190917969 387.3370361328125 550.4329223632812 415.77978515625 373.6858825683594 C 497.53204345703125 313.9802551269531 383.9922180175781 598.886474609375 452.24456787109375 547.1475830078125" fill="rgb(0, 140, 7)" opacity="0.89424354" stroke="rgb(179, 49, 148)" stroke-linecap="round" stroke-linejoin="round" stroke-opacity="0.7424599" stroke-width="0.0"/>
    <path d="M 647.9189453125 1.0607060194015503 C 584.7557373046875 369.993408203125 529.3380737304688 369.764404296875 278.7726135253906 258.951171875 C 388.55499267578125 109.56491088867188 377.2239685058594 105.33649444580078 309.1683654785156 227.37188720703125 C 298.4024963378906 17.575767517089844 311.15338134765625 -1.4033063650131226 321.7919921875 -12.80112361907959 C 458.5946960449219 -14.100058555603027 466.0664367675781 -19.085664749145508 647.9189453125 1.0607060194015503" fill="rgb(110, 128, 144)" opacity="1.0" stroke="rgb(186, 148, 138)" stroke-linecap="round" stroke-linejoin="round" stroke-opacity="0.3980939" stroke-width="0.0"/>
  </g>
</svg>
