<?xml version="1.0" ?>
<svg height="768" version="1.1" width="768" xmlns="http://www.w3.org/2000/svg">
  <defs/>
  <g>
    <path d="M 766.8668823242188 -31.952152252197266 C 795.8284301757812 600.9912109375 782.0317993164062 607.1778564453125 907.5733032226562 702.1276245117188 C 817.4645385742188 758.8723754882812 782.047607421875 786.8499755859375 461.6008605957031 833.6903686523438 C 296.4769287109375 939.5904541015625 188.7450714111328 943.9546508789062 143.23338317871094 96.51717376708984 C 581.8326416015625 45.61790084838867 589.52294921875 6.193873882293701 766.8668823242188 -31.952152252197266" fill="rgb(118, 144, 124)" opacity="0.9627463" stroke="rgb(77, 67, 76)" stroke-linecap="round" stroke-linejoin="round" stroke-opacity="0.8208083" stroke-width="0.0"/>
    <path d="M 209.13742065429688 175.9683837890625 C 218.97933959960938 412.2617492675781 310.9346923828125 418.2087097167969 490.7022705078125 682.8323364257812 C 235.93630981445312 781.8958129882812 88.67807006835938 823.4286499023438 -14.412200927734375 781.983642578125 C -18.579030990600586 350.243408203125 -23.475296020507812 325.2230529785156 1.3380135297775269 -16.852060317993164 C 549.1987915039062 -10.823954582214355 400.57720947265625 39.52426528930664 209.13742065429688 175.9683837890625" fill="rgb(111, 131, 142)" opacity="1.0" stroke="rgb(7, 107, 5)" stroke-linecap="round" stroke-linejoin="round" stroke-opacity="0.8064527" stroke-width="0.0"/>
    <path d="M 392.38720703125 490.7228088378906 C 271.81500244140625 484.65203857421875 394.00213623046875 593.7345581054688 247.2127227783203 582.48828125 C 221.44808959960938 535.9729614257812 -50.818233489990234 565.7269897460938 140.2516632080078 501.03436279296875 C 300.2319030761719 545.63671875 260.01104736328125 320.5508728027344 542.9325561523438 371.67010498046875 C 340.56402587890625 446.5761413574219 454.825439453125 673.7191772460938 392.38720703125 490.7228088378906" fill="rgb(0, 133, 16)" opacity="0.8788966" stroke="rgb(67, 192, 183)" stroke-linecap="round" stroke-linejoin="round" stroke-opacity="0.62813187" stroke-width="0.0"/>
    <path d="M 452.1855773925781 547.3084716796875 C 495.1142883300781 587.030517578125 445.44940185546875 577.1007080078125 428.8271789550781 578.2166748046875 C 391.1696472167969 580.3694458007812 397.0794372558594 566.3709716796875 391.27923583984375 551.1161499023438 C 388.4378662109375 515.5830688476562 378.51556396484375 538.0152587890625 421.18701171875 396.5753173828125 C 482.5753479003906 358.2001953125 389.2093200683594 594.4746704101562 452.1855773925781 547.3084716796875" fill="rgb(0, 142, 7)" opacity="0.892641" stroke="rgb(179, 49, 148)" stroke-linecap="round" stroke-linejoin="round" stroke-opacity="0.7424599" stroke-width="0.0"/>
  </g>
</svg>
