<?xml version="1.0" ?>
<svg height="768" version="1.1" width="768" xmlns="http://www.w3.org/2000/svg">
  <defs/>
  <g>
    <path d="M 775.4524536132812 782.1663818359375 C 661.3577270507812 787.1797485351562 585.0208129882812 784.271484375 16.832990646362305 767.8659057617188 C 50.07615661621094 277.103271484375 105.86502838134766 210.62661743164062 195.2620086669922 -27.168941497802734 C 948.9819946289062 41.95378112792969 963.5067749023438 155.1387481689453 841.6290283203125 274.9876708984375 C 785.1692504882812 493.8497009277344 782.0428466796875 539.2059936523438 775.4524536132812 782.1663818359375" fill="rgb(126, 130, 145)" opacity="0.99350893" stroke="rgb(94, 206, 157)" stroke-linecap="round" stroke-linejoin="round" stroke-opacity="0.21264395" stroke-width="0.0"/>
    <path d="M 441.03900146484375 358.5301818847656 C 598.0765380859375 389.5455322265625 507.10137939453125 69.86515045166016 658.8062133789062 385.66705322265625 C 539.5663452148438 503.49749755859375 253.50592041015625 479.82012939453125 103.61157989501953 442.8768615722656 C 340.30511474609375 243.97650146484375 391.8819274902344 290.3087463378906 420.8680725097656 229.1726837158203 C 457.8387451171875 258.74688720703125 481.4503479003906 298.61669921875 441.03900146484375 358.5301818847656" fill="rgb(118, 50, 59)" opacity="0.6572203" stroke="rgb(37, 1, 185)" stroke-linecap="round" stroke-linejoin="round" stroke-opacity="0.71929365" stroke-width="0.0"/>
    <path d="M 462.90155029296875 463.7846374511719 C 446.89837646484375 522.8424682617188 492.44427490234375 539.1976928710938 493.24810791015625 540.4183959960938 C 474.7293395996094 551.3318481445312 435.5204162597656 519.7572631835938 455.03424072265625 463.95550537109375 C 414.1917724609375 309.7055969238281 471.9833679199219 554.652587890625 661.0103759765625 379.10845947265625 C 563.7640991210938 541.3035888671875 446.5790100097656 415.9834289550781 462.90155029296875 463.7846374511719" fill="rgb(29, 20, 35)" opacity="1.0" stroke="rgb(57, 161, 133)" stroke-linecap="round" stroke-linejoin="round" stroke-opacity="0.23768018" stroke-width="0.0"/>
    <path d="M 121.0 128.0 C 120.33012390136719 130.5 118.5 132.3301239013672 116.0 133.0 C 113.5 132.3301239013672 111.66987609863281 130.5 111.0 128.0 C 111.66987609863281 125.5 113.5 123.66987609863281 116.0 123.0 C 118.5 123.66987609863281 120.33012390136719 125.5 121.0 128.0" fill="rgb(112, 137, 155)" opacity="1.0" stroke="rgb(30, 139, 121)" stroke-linecap="round" stroke-linejoin="round" stroke-opacity="0.57334864" stroke-width="0.0"/>
  </g>
</svg>
