<?xml version="1.0" ?>
<svg height="768" version="1.1" width="768" xmlns="http://www.w3.org/2000/svg">
  <defs/>
  <g>
    <path d="M 775.4524536132812 782.1663818359375 C 661.3577270507812 787.1797485351562 585.0208129882812 784.271484375 16.833011627197266 767.84033203125 C 50.07615661621094 277.103271484375 105.8690414428711 210.63424682617188 195.2694854736328 -27.099546432495117 C 948.924560546875 42.01913833618164 963.4812622070312 155.16094970703125 841.6290283203125 274.9876708984375 C 785.1692504882812 493.8497009277344 782.0428466796875 539.2059936523438 775.4524536132812 782.1663818359375" fill="rgb(120, 130, 147)" opacity="0.99535596" stroke="rgb(94, 206, 157)" stroke-linecap="round" stroke-linejoin="round" stroke-opacity="0.21264395" stroke-width="0.0"/>
    <path d="M 462.1208801269531 365.5185546875 C 589.1557006835938 329.0885925292969 535.0152587890625 67.71234130859375 682.6962890625 403.84539794921875 C 464.20013427734375 532.6173095703125 295.4308776855469 494.29815673828125 134.8201446533203 434.5771484375 C 345.5574645996094 244.74301147460938 361.4191589355469 243.42030334472656 392.473388671875 219.21592712402344 C 453.1938781738281 236.90052795410156 469.068603515625 271.1210632324219 462.1208801269531 365.5185546875" fill="rgb(122, 63, 73)" opacity="0.53311986" stroke="rgb(37, 1, 185)" stroke-linecap="round" stroke-linejoin="round" stroke-opacity="0.71929365" stroke-width="0.0"/>
    <path d="M 462.0 497.0 C 461.33013916015625 499.5 459.5 501.33013916015625 457.0 502.0 C 454.5 501.33013916015625 452.66986083984375 499.5 452.0 497.0 C 452.66986083984375 494.5 454.5 492.66986083984375 457.0 492.0 C 459.5 492.66986083984375 461.33013916015625 494.5 462.0 497.0" fill="rgb(14, 11, 21)" opacity="1.0" stroke="rgb(57, 161, 133)" stroke-linecap="round" stroke-linejoin="round" stroke-opacity="0.23768018" stroke-width="0.0"/>
  </g>
</svg>
