<?xml version="1.0" ?>
<svg height="768" version="1.1" width="768" xmlns="http://www.w3.org/2000/svg">
  <defs/>
  <g>
    <path d="M 775.4524536132812 782.1663818359375 C 661.3577270507812 787.1797485351562 585.0208129882812 784.271484375 16.274518966674805 767.6392822265625 C 49.24654006958008 276.1389465332031 105.12381744384766 209.6481475830078 194.57589721679688 -27.313283920288086 C 949.0083618164062 41.929718017578125 963.5067749023438 155.1302947998047 841.6290283203125 274.9876708984375 C 785.1692504882812 493.8497009277344 782.0428466796875 539.2059936523438 775.4524536132812 782.1663818359375" fill="rgb(131, 130, 145)" opacity="0.9949075" stroke="rgb(94, 206, 157)" stroke-linecap="round" stroke-linejoin="round" stroke-opacity="0.21264395" stroke-width="0.0"/>
    <path d="M 437.40399169921875 358.4508972167969 C 596.963623046875 396.54345703125 506.4024658203125 76.7686767578125 655.6463012695312 371.9766845703125 C 512.8450317382812 486.76348876953125 238.3902587890625 494.923095703125 99.7005386352539 430.0314636230469 C 337.4245300292969 248.59829711914062 399.4580383300781 306.11724853515625 420.88653564453125 229.4652862548828 C 458.2039489746094 257.3531494140625 483.5462951660156 304.9781188964844 437.40399169921875 358.4508972167969" fill="rgb(106, 49, 59)" opacity="0.6766105" stroke="rgb(37, 1, 185)" stroke-linecap="round" stroke-linejoin="round" stroke-opacity="0.71929365" stroke-width="0.0"/>
    <path d="M 476.2814025878906 429.8492736816406 C 431.5289306640625 515.3818969726562 490.1738586425781 538.4013671875 493.0752868652344 540.251220703125 C 478.8809509277344 550.4686279296875 434.7412414550781 526.331298828125 455.1302185058594 461.0701904296875 C 407.66522216796875 319.2677001953125 540.4190063476562 594.4451293945312 683.7542114257812 310.849609375 C 639.3885498046875 529.96875 432.9322509765625 462.04364013671875 476.2814025878906 429.8492736816406" fill="rgb(26, 16, 32)" opacity="0.97994596" stroke="rgb(57, 161, 133)" stroke-linecap="round" stroke-linejoin="round" stroke-opacity="0.23768018" stroke-width="0.0"/>
    <path d="M 242.04776000976562 4.51665735244751 C 269.6311950683594 181.75930786132812 225.93914794921875 170.79574584960938 156.07363891601562 252.21934509277344 C 99.08984375 320.8716125488281 218.90341186523438 422.8858337402344 1.7199515104293823 584.4467163085938 C -20.7076416015625 80.30839538574219 -14.868949890136719 46.53887939453125 -14.494790077209473 -10.781414031982422 C 215.31947326660156 -13.098478317260742 210.22805786132812 -13.197566032409668 242.04776000976562 4.51665735244751" fill="rgb(118, 132, 149)" opacity="0.96287847" stroke="rgb(30, 139, 121)" stroke-linecap="round" stroke-linejoin="round" stroke-opacity="0.57334864" stroke-width="0.0"/>
    <path d="M 28.0 599.0 C 27.330127716064453 601.5 25.5 603.3301391601562 23.0 604.0 C 20.5 603.3301391601562 18.669872283935547 601.5 18.0 599.0 C 18.669872283935547 596.5 20.5 594.6698608398438 23.0 594.0 C 25.5 594.6698608398438 27.330127716064453 596.5 28.0 599.0" fill="rgb(114, 138, 155)" opacity="1.0" stroke="rgb(221, 19, 104)" stroke-linecap="round" stroke-linejoin="round" stroke-opacity="0.58538973" stroke-width="0.0"/>
  </g>
</svg>
