<?xml version="1.0" ?>
<svg height="768" version="1.1" width="768" xmlns="http://www.w3.org/2000/svg">
  <defs/>
  <g>
    <path d="M 767.7529296875 634.0056762695312 C 164.64279174804688 588.0481567382812 142.23866271972656 517.614013671875 13.036747932434082 417.5027770996094 C 96.56114196777344 -295.9811096191406 259.0933532714844 -225.70663452148438 424.6383361816406 -149.8455810546875 C 535.8565063476562 -14.992713928222656 542.9514770507812 -14.982648849487305 748.3668212890625 -12.922706604003906 C 776.19873046875 -42.89540481567383 788.2655639648438 -56.53607177734375 767.7529296875 634.0056762695312" fill="rgb(115, 110, 117)" opacity="1.0" stroke="rgb(40, 7, 162)" stroke-linecap="round" stroke-linejoin="round" stroke-opacity="0.14963673" stroke-width="0.0"/>
    <path d="M 436.34625244140625 357.8118591308594 C 433.66162109375 454.8531188964844 465.8260192871094 415.8966369628906 384.6089782714844 492.965576171875 C 399.6299743652344 484.1753845214844 325.3614501953125 460.97491455078125 332.0633544921875 405.3287353515625 C 347.26910400390625 285.3709716796875 322.586181640625 408.6715393066406 300.63714599609375 266.1150817871094 C 350.0078430175781 397.89654541015625 541.4833374023438 222.96377563476562 436.34625244140625 357.8118591308594" fill="rgb(247, 242, 240)" opacity="0.94382703" stroke="rgb(148, 223, 127)" stroke-linecap="round" stroke-linejoin="round" stroke-opacity="0.64688516" stroke-width="0.0"/>
    <path d="M 231.74728393554688 -18.30788230895996 C 287.8484802246094 390.2257385253906 490.23223876953125 459.0827331542969 3.047358989715576 569.9472045898438 C -37.38689422607422 233.89747619628906 -14.34119987487793 219.44879150390625 -12.292967796325684 118.69185638427734 C -11.2598295211792 109.89977264404297 -12.758524894714355 106.12730407714844 -42.45259475708008 -4.5114641189575195 C 86.89371490478516 -14.351417541503906 105.89517211914062 -16.388118743896484 231.74728393554688 -18.30788230895996" fill="rgb(123, 117, 123)" opacity="1.0" stroke="rgb(198, 179, 177)" stroke-linecap="round" stroke-linejoin="round" stroke-opacity="0.6956829" stroke-width="0.0"/>
    <path d="M 419.6961364746094 892.685791015625 C 192.74093627929688 784.1098022460938 172.95486450195312 783.20654296875 -14.671348571777344 778.95947265625 C -15.92668342590332 742.8054809570312 -14.7764310836792 727.7893676757812 -11.539595603942871 542.7978515625 C 21.643590927124023 534.0715942382812 38.245914459228516 522.965576171875 561.228515625 522.47119140625 C 580.6193237304688 703.2869873046875 522.6514892578125 919.1740112304688 419.6961364746094 892.685791015625" fill="rgb(120, 114, 120)" opacity="0.9925393" stroke="rgb(158, 190, 84)" stroke-linecap="round" stroke-linejoin="round" stroke-opacity="0.9612107" stroke-width="0.0"/>
    <path d="M 776.1469116210938 599.0452880859375 C 785.2134399414062 750.8089599609375 785.3328857421875 764.6493530273438 774.8528442382812 781.8008422851562 C 601.9213256835938 783.189208984375 587.5087890625 784.484375 538.4967651367188 781.9307861328125 C 541.9950561523438 597.2061767578125 547.3600463867188 598.7752685546875 564.6713256835938 607.1302490234375 C 725.0863037109375 607.7078857421875 731.08203125 607.2052612304688 776.1469116210938 599.0452880859375" fill="rgb(121, 116, 122)" opacity="1.0" stroke="rgb(252, 92, 78)" stroke-linecap="round" stroke-linejoin="round" stroke-opacity="0.32476136" stroke-width="0.0"/>
  </g>
</svg>
