<?xml version="1.0" ?>
<svg height="768" version="1.1" width="768" xmlns="http://www.w3.org/2000/svg">
  <defs/>
  <g>
    <path d="M 770.193603515625 -25.618144989013672 C 780.9546508789062 112.82803344726562 785.1964111328125 160.96241760253906 854.4859619140625 432.0809326171875 C 910.877197265625 572.3569946289062 888.5799560546875 673.7733764648438 145.41636657714844 708.1014404296875 C 82.6123046875 523.6746215820312 45.0611572265625 378.3707275390625 19.128740310668945 0.6255102157592773 C 618.9260864257812 -15.485753059387207 655.8056030273438 -15.90864086151123 770.193603515625 -25.618144989013672" fill="rgb(136, 133, 124)" opacity="1.0" stroke="rgb(181, 244, 162)" stroke-linecap="round" stroke-linejoin="round" stroke-opacity="0.45435742" stroke-width="0.0"/>
    <path d="M 72.6297836303711 170.78367614746094 C 62.177772521972656 211.53515625 385.7283630371094 511.04632568359375 -1.4575594663619995 489.96044921875 C -116.1048355102539 160.9043426513672 -20.032058715820312 86.76559448242188 -12.824087142944336 45.95161056518555 C -10.833711624145508 -15.615108489990234 -2.7870566844940186 -12.53679370880127 13.654193878173828 -11.592317581176758 C 47.62089538574219 -9.150876998901367 47.57063674926758 -5.434723854064941 72.6297836303711 170.78367614746094" fill="rgb(136, 133, 125)" opacity="1.0" stroke="rgb(182, 43, 220)" stroke-linecap="round" stroke-linejoin="round" stroke-opacity="0.8066639" stroke-width="0.0"/>
    <path d="M 451.4904479980469 624.8380126953125 C 516.2753295898438 828.7557373046875 480.8747253417969 804.9268798828125 -14.497476577758789 766.2811889648438 C -16.37293243408203 592.388671875 -15.596117973327637 584.788330078125 -11.311904907226562 480.5455017089844 C 15.037901878356934 475.5553283691406 20.261581420898438 475.55242919921875 71.43498992919922 475.5947265625 C 99.06147766113281 478.7074890136719 100.51654052734375 483.4375 451.4904479980469 624.8380126953125" fill="rgb(136, 133, 124)" opacity="1.0" stroke="rgb(240, 4, 1)" stroke-linecap="round" stroke-linejoin="round" stroke-opacity="0.7274807" stroke-width="0.0"/>
    <path d="M 346.0 272.0 C 345.33013916015625 274.5 343.5 276.33013916015625 341.0 277.0 C 338.5 276.33013916015625 336.66986083984375 274.5 336.0 272.0 C 336.66986083984375 269.5 338.5 267.66986083984375 341.0 267.0 C 343.5 267.66986083984375 345.33013916015625 269.5 346.0 272.0" fill="rgb(6, 7, 6)" opacity="1.0" stroke="rgb(138, 213, 253)" stroke-linecap="round" stroke-linejoin="round" stroke-opacity="0.98968536" stroke-width="0.0"/>
  </g>
</svg>
