<?xml version="1.0" ?>
<svg height="768" version="1.1" width="768" xmlns="http://www.w3.org/2000/svg">
  <defs/>
  <g>
    <path d="M 768.9241333007812 772.954833984375 C 676.24658203125 828.0206909179688 647.6883544921875 797.66259765625 -16.90839195251465 783.044189453125 C -22.898921966552734 610.8079833984375 -24.506059646606445 589.8458251953125 -6.6354804039001465 58.870758056640625 C 57.19941329956055 17.635025024414062 74.63594055175781 12.249444007873535 780.5201416015625 49.09756088256836 C 779.0007934570312 232.14520263671875 774.7313232421875 245.78118896484375 768.9241333007812 772.954833984375" fill="rgb(141, 145, 137)" opacity="0.9576313" stroke="rgb(86, 0, 149)" stroke-linecap="round" stroke-linejoin="round" stroke-opacity="0.99651307" stroke-width="0.0"/>
    <path d="M 672.5062866210938 328.0119934082031 C 592.8865966796875 587.1177978515625 209.93109130859375 422.3703308105469 360.8147888183594 500.21148681640625 C 351.6875915527344 492.0555419921875 172.46658325195312 698.869140625 323.2607421875 460.4912414550781 C 4.290525913238525 516.9805297851562 82.4482421875 267.03424072265625 220.22665405273438 319.9556884765625 C 599.894775390625 722.7338256835938 115.24702453613281 103.18408966064453 672.5062866210938 328.0119934082031" fill="rgb(42, 37, 35)" opacity="0.8453403" stroke="rgb(146, 154, 154)" stroke-linecap="round" stroke-linejoin="round" stroke-opacity="0.08431917" stroke-width="0.0"/>
    <path d="M 395.627197265625 261.7823181152344 C 733.0855102539062 330.5135803222656 599.7125244140625 241.43801879882812 333.5066223144531 582.44677734375 C 388.4804382324219 439.02313232421875 245.7725372314453 585.75048828125 253.07212829589844 407.6999816894531 C 364.2307434082031 452.31866455078125 288.0572814941406 437.51287841796875 347.7032165527344 498.9546813964844 C 396.0530090332031 466.5220947265625 356.9468078613281 358.3039855957031 395.627197265625 261.7823181152344" fill="rgb(3, 0, 0)" opacity="0.73327106" stroke="rgb(133, 187, 60)" stroke-linecap="round" stroke-linejoin="round" stroke-opacity="0.4773967" stroke-width="0.0"/>
  </g>
</svg>
