<?xml version="1.0" ?>
<svg height="768" version="1.1" width="768" xmlns="http://www.w3.org/2000/svg">
  <defs/>
  <g>
    <path d="M 768.9241333007812 772.954833984375 C 676.24658203125 828.0206909179688 647.6883544921875 797.66259765625 -16.90839195251465 783.044189453125 C -22.898921966552734 610.8079833984375 -24.506059646606445 589.8458251953125 -6.639638900756836 58.84685134887695 C 57.19707489013672 17.63254737854004 74.63594055175781 12.247753143310547 780.5201416015625 49.08837890625 C 779.0007934570312 232.14520263671875 774.7313232421875 245.78118896484375 768.9241333007812 772.954833984375" fill="rgb(142, 147, 139)" opacity="0.95648444" stroke="rgb(86, 0, 149)" stroke-linecap="round" stroke-linejoin="round" stroke-opacity="0.99651307" stroke-width="0.0"/>
    <path d="M 651.5086669921875 319.55401611328125 C 634.126953125 601.1627807617188 247.36387634277344 374.0168151855469 348.0401611328125 502.2748107910156 C 318.6690368652344 469.0218505859375 186.6348876953125 690.5115356445312 334.2702941894531 457.85400390625 C -3.7009451389312744 514.0626220703125 92.8772964477539 286.3620300292969 209.24807739257812 308.495361328125 C 592.12890625 721.2313232421875 130.77598571777344 128.33065795898438 651.5086669921875 319.55401611328125" fill="rgb(30, 25, 23)" opacity="0.90367687" stroke="rgb(146, 154, 154)" stroke-linecap="round" stroke-linejoin="round" stroke-opacity="0.08431917" stroke-width="0.0"/>
    <path d="M 402.9366760253906 262.7554931640625 C 800.5510864257812 347.623779296875 539.3106079101562 192.4792938232422 327.5468444824219 613.520751953125 C 396.4941101074219 422.1925964355469 248.68984985351562 590.9353637695312 253.0609588623047 411.05206298828125 C 380.4468078613281 448.510498046875 278.287109375 493.0777587890625 357.6102294921875 494.36749267578125 C 393.6626892089844 400.36956787109375 362.162109375 288.22027587890625 402.9366760253906 262.7554931640625" fill="rgb(5, 0, 0)" opacity="0.8249998" stroke="rgb(133, 187, 60)" stroke-linecap="round" stroke-linejoin="round" stroke-opacity="0.4773967" stroke-width="0.0"/>
    <path d="M 311.0831604003906 520.8040771484375 C 293.986328125 550.025390625 315.0208435058594 555.01123046875 289.5746765136719 556.6993408203125 C 289.50762939453125 577.0098266601562 270.45941162109375 568.0426635742188 261.2500915527344 571.2545166015625 C 272.6475524902344 528.0535278320312 342.7026062011719 506.166015625 224.04835510253906 442.3419189453125 C 382.1348571777344 463.1734924316406 322.5564880371094 498.326904296875 311.0831604003906 520.8040771484375" fill="rgb(0, 0, 0)" opacity="0.98095936" stroke="rgb(216, 125, 233)" stroke-linecap="round" stroke-linejoin="round" stroke-opacity="0.32670325" stroke-width="0.0"/>
    <path d="M 675.285400390625 524.31396484375 C 667.400146484375 534.673095703125 687.411376953125 539.2973022460938 650.5668334960938 549.904541015625 C 645.2476806640625 556.9038696289062 663.5337524414062 481.0240478515625 617.4796142578125 450.1285705566406 C 601.9323120117188 459.02349853515625 535.2803344726562 352.4891052246094 597.6187133789062 374.4625244140625 C 708.7319946289062 503.4688720703125 631.6878662109375 398.5937805175781 675.285400390625 524.31396484375" fill="rgb(5, 5, 6)" opacity="0.99607474" stroke="rgb(27, 49, 96)" stroke-linecap="round" stroke-linejoin="round" stroke-opacity="0.43787405" stroke-width="0.0"/>
  </g>
</svg>
