<?xml version="1.0" ?>
<svg height="768" version="1.1" width="768" xmlns="http://www.w3.org/2000/svg">
  <defs/>
  <g>
    <path d="M 585.68017578125 239.41587829589844 C 692.4744262695312 195.28643798828125 734.6529541015625 144.83816528320312 780.046630859375 504.5401916503906 C 334.10650634765625 635.5682983398438 440.6924743652344 816.0890502929688 500.5063781738281 518.1553344726562 C 521.64013671875 96.71341705322266 487.4188232421875 430.26556396484375 445.6708068847656 195.4040069580078 C 745.5367431640625 148.9473114013672 670.53125 216.67686462402344 585.68017578125 239.41587829589844" fill="rgb(7, 38, 54)" opacity="0.6108422" stroke="rgb(83, 108, 54)" stroke-linecap="round" stroke-linejoin="round" stroke-opacity="0.45222306" stroke-width="0.0"/>
    <path d="M 490.1878356933594 388.2716064453125 C 490.4405822753906 443.10601806640625 501.5015563964844 482.6119384765625 476.1415710449219 595.178955078125 C 450.5447998046875 614.2408447265625 490.006591796875 521.2382202148438 471.2763366699219 406.2050476074219 C 477.1942138671875 279.92401123046875 381.5661926269531 199.34451293945312 464.8806457519531 281.87677001953125 C 512.0723876953125 271.55523681640625 486.1414489746094 378.8503112792969 490.1878356933594 388.2716064453125" fill="rgb(0, 0, 0)" opacity="0.9378625" stroke="rgb(182, 176, 214)" stroke-linecap="round" stroke-linejoin="round" stroke-opacity="0.8801464" stroke-width="0.0"/>
    <path d="M 384.1020812988281 267.15673828125 C 396.54296875 351.4404296875 404.3631896972656 435.6722717285156 384.4958190917969 438.61773681640625 C 386.4693603515625 304.1953430175781 364.1866760253906 236.28692626953125 369.0030212402344 236.2129364013672 C 367.63323974609375 239.09085083007812 373.28216552734375 247.67257690429688 329.2808837890625 137.42056274414062 C 368.5069274902344 136.25924682617188 351.8763122558594 86.60136413574219 384.1020812988281 267.15673828125" fill="rgb(0, 0, 1)" opacity="0.94551873" stroke="rgb(77, 39, 44)" stroke-linecap="round" stroke-linejoin="round" stroke-opacity="0.27604228" stroke-width="0.0"/>
    <path d="M 462.50537109375 517.18408203125 C 465.15594482421875 604.23876953125 456.5685119628906 581.896728515625 401.2814636230469 496.3372802734375 C 459.72711181640625 448.3516845703125 452.5154113769531 495.67828369140625 434.8487548828125 379.7753601074219 C 431.3108215332031 296.844482421875 371.2104797363281 236.0229034423828 445.09344482421875 116.21089935302734 C 432.6785888671875 423.3502502441406 471.0434875488281 416.9300231933594 462.50537109375 517.18408203125" fill="rgb(41, 43, 45)" opacity="0.93284225" stroke="rgb(188, 88, 210)" stroke-linecap="round" stroke-linejoin="round" stroke-opacity="0.44081363" stroke-width="0.0"/>
  </g>
</svg>
