<?xml version="1.0" ?>
<svg height="768" version="1.1" width="768" xmlns="http://www.w3.org/2000/svg">
  <defs/>
  <g>
    <path d="M 585.9160766601562 239.17840576171875 C 692.5862426757812 195.31675720214844 734.652099609375 144.7547149658203 779.8605346679688 505.0086364746094 C 338.1761169433594 631.6129150390625 438.2086181640625 821.4203491210938 500.49700927734375 518.6685791015625 C 521.2694702148438 95.08814239501953 489.256103515625 430.89129638671875 444.5761413574219 194.54635620117188 C 746.0409545898438 149.234375 670.9322509765625 216.26795959472656 585.9160766601562 239.17840576171875" fill="rgb(4, 35, 51)" opacity="0.60327643" stroke="rgb(83, 108, 54)" stroke-linecap="round" stroke-linejoin="round" stroke-opacity="0.45222306" stroke-width="0.0"/>
    <path d="M 490.0893249511719 383.4386901855469 C 490.218505859375 445.61810302734375 501.6949462890625 480.6753845214844 476.1213684082031 595.2081909179688 C 450.3514099121094 613.9808349609375 490.06280517578125 521.5403442382812 471.2565612792969 405.578857421875 C 477.70404052734375 285.40625 381.78472900390625 191.86080932617188 464.2918701171875 281.6744689941406 C 511.7164306640625 265.4954528808594 486.55059814453125 384.2834167480469 490.0893249511719 383.4386901855469" fill="rgb(0, 0, 0)" opacity="0.9347536" stroke="rgb(182, 176, 214)" stroke-linecap="round" stroke-linejoin="round" stroke-opacity="0.8801464" stroke-width="0.0"/>
    <path d="M 383.1468505859375 261.36639404296875 C 396.8158874511719 350.9473876953125 404.3769836425781 435.8360595703125 384.4657287597656 438.638427734375 C 386.576904296875 304.79241943359375 364.0856628417969 235.23605346679688 369.0246276855469 236.3188934326172 C 367.5457458496094 239.0062713623047 373.23712158203125 247.6826629638672 329.2584228515625 137.43690490722656 C 368.4760437011719 136.0700225830078 352.0211486816406 88.22441864013672 383.1468505859375 261.36639404296875" fill="rgb(0, 0, 1)" opacity="0.94446045" stroke="rgb(77, 39, 44)" stroke-linecap="round" stroke-linejoin="round" stroke-opacity="0.27604228" stroke-width="0.0"/>
    <path d="M 462.38433837890625 527.0029907226562 C 464.8437805175781 602.6461791992188 453.37811279296875 577.8099365234375 401.2955322265625 496.147216796875 C 462.5412292480469 446.037109375 450.92828369140625 500.78216552734375 433.0070495605469 364.1293640136719 C 426.23150634765625 288.62322998046875 372.84686279296875 244.82054138183594 452.4552917480469 84.36713409423828 C 424.2908630371094 402.8845520019531 471.6300048828125 401.5388488769531 462.38433837890625 527.0029907226562" fill="rgb(16, 20, 24)" opacity="0.8123406" stroke="rgb(188, 88, 210)" stroke-linecap="round" stroke-linejoin="round" stroke-opacity="0.44081363" stroke-width="0.0"/>
    <path d="M 327.1460876464844 357.515625 C 350.4564208984375 462.6780090332031 370.0568542480469 471.2572937011719 350.525634765625 472.03515625 C 319.933349609375 420.6612548828125 330.6681823730469 413.1585998535156 315.02484130859375 363.6024475097656 C 313.1637878417969 335.3311462402344 282.19000244140625 283.7870788574219 315.4609680175781 231.1776885986328 C 312.2265930175781 307.5787048339844 306.98345947265625 277.572021484375 327.1460876464844 357.515625" fill="rgb(6, 6, 7)" opacity="0.9720106" stroke="rgb(64, 70, 111)" stroke-linecap="round" stroke-linejoin="round" stroke-opacity="0.89823925" stroke-width="0.0"/>
  </g>
</svg>
