<?xml version="1.0" ?>
<svg height="768" version="1.1" width="768" xmlns="http://www.w3.org/2000/svg">
  <defs/>
  <g>
    <path d="M 585.2674560546875 240.16627502441406 C 692.3024291992188 195.33139038085938 734.6609497070312 145.01832580566406 780.3616333007812 503.7109069824219 C 325.3160095214844 643.5189819335938 447.8717041015625 803.9749145507812 500.5858459472656 515.3759155273438 C 522.0211181640625 106.03106689453125 484.2884826660156 427.5125427246094 444.695068359375 195.7725830078125 C 744.6812133789062 149.1519317626953 669.655517578125 217.59066772460938 585.2674560546875 240.16627502441406" fill="rgb(14, 44, 59)" opacity="0.6313918" stroke="rgb(83, 108, 54)" stroke-linecap="round" stroke-linejoin="round" stroke-opacity="0.45222306" stroke-width="0.0"/>
    <path d="M 490.3620300292969 396.397705078125 C 490.2762451171875 438.307861328125 501.6125793457031 483.0010986328125 476.0574645996094 595.2357788085938 C 450.6026306152344 613.8722534179688 489.84674072265625 520.5083618164062 471.475830078125 408.30938720703125 C 475.7962646484375 260.3815612792969 373.96844482421875 212.9972381591797 474.9503173828125 287.51055908203125 C 509.14227294921875 291.4255065917969 485.6130676269531 370.4759216308594 490.3620300292969 396.397705078125" fill="rgb(0, 0, 1)" opacity="0.94241095" stroke="rgb(182, 176, 214)" stroke-linecap="round" stroke-linejoin="round" stroke-opacity="0.8801464" stroke-width="0.0"/>
    <path d="M 385.8323059082031 277.6841735839844 C 396.1101379394531 353.0115051269531 404.43988037109375 434.3639221191406 384.50103759765625 438.8456726074219 C 385.79937744140625 296.880859375 364.7232360839844 243.32801818847656 368.92266845703125 234.6575164794922 C 368.0845031738281 240.70291137695312 373.2685852050781 247.76095581054688 329.3609313964844 137.61666870117188 C 368.7491455078125 134.4229736328125 352.1283264160156 88.12667083740234 385.8323059082031 277.6841735839844" fill="rgb(2, 2, 3)" opacity="0.9546557" stroke="rgb(77, 39, 44)" stroke-linecap="round" stroke-linejoin="round" stroke-opacity="0.27604228" stroke-width="0.0"/>
  </g>
</svg>
