<?xml version="1.0" ?>
<svg height="768" version="1.1" width="768" xmlns="http://www.w3.org/2000/svg">
  <defs/>
  <g>
    <path d="M 550.291259765625 721.6552124023438 C 582.1777954101562 724.2429809570312 692.7849731445312 659.3489379882812 709.6818237304688 773.98828125 C -169.0172576904297 848.3161010742188 -94.78257751464844 870.3302001953125 -17.23906898498535 -11.382685661315918 C 245.03598022460938 -29.79408073425293 420.79296875 -27.8818416595459 805.5278930664062 3.2121164798736572 C 790.4585571289062 661.2374267578125 718.6844482421875 693.5313720703125 550.291259765625 721.6552124023438" fill="rgb(129, 130, 136)" opacity="1.0" stroke="rgb(121, 243, 197)" stroke-linecap="round" stroke-linejoin="round" stroke-opacity="0.5690819" stroke-width="0.0"/>
    <path d="M 377.8404235839844 598.8513793945312 C 371.2305603027344 400.4263916015625 256.17364501953125 410.900390625 323.7704772949219 513.7762451171875 C 320.520751953125 599.10009765625 277.0958557128906 475.37841796875 265.52398681640625 390.4778747558594 C 266.3135681152344 330.2999267578125 367.7786865234375 384.33905029296875 407.0410461425781 284.6659851074219 C 571.6519775390625 436.9543762207031 384.1632385253906 234.99966430664062 377.8404235839844 598.8513793945312" fill="rgb(44, 40, 51)" opacity="0.94802225" stroke="rgb(155, 50, 100)" stroke-linecap="round" stroke-linejoin="round" stroke-opacity="0.2088754" stroke-width="0.0"/>
    <path d="M 780.2211303710938 757.3802490234375 C 788.14013671875 775.6574096679688 790.8856811523438 782.2323608398438 650.5465698242188 777.6854248046875 C 631.9977416992188 763.702392578125 609.9186401367188 771.6975708007812 627.3418579101562 620.384033203125 C 659.1139526367188 600.225830078125 607.7289428710938 567.0604858398438 767.8955688476562 489.15753173828125 C 791.8921508789062 648.3070678710938 782.3777465820312 656.1241455078125 780.2211303710938 757.3802490234375" fill="rgb(126, 131, 143)" opacity="1.0" stroke="rgb(122, 43, 101)" stroke-linecap="round" stroke-linejoin="round" stroke-opacity="0.7450818" stroke-width="0.0"/>
    <path d="M 471.5632629394531 482.0783996582031 C 453.2944641113281 511.59490966796875 438.3780517578125 517.8687133789062 385.8133850097656 516.3167114257812 C 382.2790832519531 521.5217895507812 380.7487487792969 511.5559387207031 392.41693115234375 421.98480224609375 C 396.4441223144531 390.7491149902344 431.7026672363281 362.5331115722656 439.35894775390625 369.7948303222656 C 470.0002136230469 446.9639892578125 483.13311767578125 451.0511779785156 471.5632629394531 482.0783996582031" fill="rgb(245, 212, 178)" opacity="1.0" stroke="rgb(66, 55, 42)" stroke-linecap="round" stroke-linejoin="round" stroke-opacity="0.19821793" stroke-width="0.0"/>
    <path d="M 323.0904541015625 516.63330078125 C 337.864990234375 549.66748046875 342.2886047363281 538.2218627929688 320.0819091796875 542.896484375 C 327.4722900390625 548.0775146484375 306.0586853027344 504.2203369140625 318.0010681152344 508.7911682128906 C 310.5785217285156 505.2326354980469 317.2605895996094 493.4259948730469 363.4764099121094 447.9815979003906 C 366.2192687988281 541.58837890625 381.1856994628906 510.03668212890625 323.0904541015625 516.63330078125" fill="rgb(255, 227, 197)" opacity="0.9420745" stroke="rgb(223, 95, 194)" stroke-linecap="round" stroke-linejoin="round" stroke-opacity="0.93625855" stroke-width="0.0"/>
  </g>
</svg>
