<?xml version="1.0" ?>
<svg height="768" version="1.1" width="768" xmlns="http://www.w3.org/2000/svg">
  <defs/>
  <g>
    <path d="M 562.7333984375 835.8304443359375 C 82.03119659423828 801.815673828125 -21.69004249572754 781.1102905273438 -90.17977905273438 715.7661743164062 C -19.378469467163086 554.7852172851562 -16.266448974609375 525.2969970703125 -18.987178802490234 16.393842697143555 C -43.300926208496094 -17.97400665283203 207.0087890625 -17.95509910583496 766.5592041015625 0.357898086309433 C 733.6195068359375 727.9942626953125 661.6434326171875 797.9900512695312 562.7333984375 835.8304443359375" fill="rgb(110, 140, 147)" opacity="0.99982274" stroke="rgb(73, 205, 214)" stroke-linecap="round" stroke-linejoin="round" stroke-opacity="0.965904" stroke-width="0.0"/>
    <path d="M 781.8894653320312 649.65966796875 C 789.681884765625 772.3527221679688 797.0327758789062 781.0299072265625 685.073486328125 780.4714965820312 C 624.387451171875 781.8418579101562 628.1669921875 773.2962036132812 647.22119140625 720.0390014648438 C 661.45947265625 630.9404907226562 593.6522216796875 592.2608032226562 743.8299560546875 326.529541015625 C 929.7243041992188 435.8903503417969 798.3006591796875 534.6298217773438 781.8894653320312 649.65966796875" fill="rgb(108, 143, 156)" opacity="1.0" stroke="rgb(81, 183, 210)" stroke-linecap="round" stroke-linejoin="round" stroke-opacity="0.3049385" stroke-width="0.0"/>
    <path d="M 410.6689147949219 194.6416778564453 C 492.61712646484375 279.0150146484375 361.16796875 93.27877807617188 486.8367919921875 622.4782104492188 C 193.03506469726562 399.4464111328125 295.83575439453125 344.32525634765625 313.5036926269531 318.1072998046875 C 326.6494140625 134.47926330566406 297.96112060546875 284.51080322265625 256.4156799316406 150.32298278808594 C 503.8464050292969 93.86196899414062 442.8005676269531 140.1573028564453 410.6689147949219 194.6416778564453" fill="rgb(215, 126, 26)" opacity="0.8247677" stroke="rgb(125, 189, 16)" stroke-linecap="round" stroke-linejoin="round" stroke-opacity="0.28963178" stroke-width="0.0"/>
    <path d="M 380.6361389160156 368.6391906738281 C 378.8273620605469 462.32489013671875 380.322998046875 475.11553955078125 378.8467102050781 536.64501953125 C 141.41615295410156 559.9033203125 107.86924743652344 495.0261535644531 296.5812683105469 336.5569763183594 C 278.614501953125 398.7922058105469 324.7894287109375 419.4015197753906 356.6973571777344 387.27117919921875 C 374.01513671875 368.328369140625 392.57867431640625 365.4381103515625 380.6361389160156 368.6391906738281" fill="rgb(105, 144, 156)" opacity="1.0" stroke="rgb(19, 113, 108)" stroke-linecap="round" stroke-linejoin="round" stroke-opacity="0.43757614" stroke-width="0.0"/>
  </g>
</svg>
