<?xml version="1.0" ?>
<svg height="768" version="1.1" width="768" xmlns="http://www.w3.org/2000/svg">
  <defs/>
  <g>
    <path d="M 562.7333984375 835.8304443359375 C 82.03119659423828 801.815673828125 -21.69004249572754 781.1102905273438 -90.17977905273438 715.7661743164062 C -19.378469467163086 554.7852172851562 -16.266448974609375 525.2969970703125 -18.987178802490234 16.393842697143555 C -43.300926208496094 -17.97400665283203 207.0087890625 -17.955101013183594 766.5592041015625 0.3438262939453125 C 733.6195068359375 727.9942626953125 661.6434326171875 797.9900512695312 562.7333984375 835.8304443359375" fill="rgb(109, 138, 143)" opacity="0.9969544" stroke="rgb(73, 205, 214)" stroke-linecap="round" stroke-linejoin="round" stroke-opacity="0.965904" stroke-width="0.0"/>
    <path d="M 781.8894653320312 649.65966796875 C 789.681884765625 772.3527221679688 797.0327758789062 781.0299072265625 684.1686401367188 780.4714965820312 C 623.7307739257812 781.8329467773438 627.100830078125 773.1666259765625 646.803955078125 719.4155883789062 C 661.4174194335938 630.8948974609375 592.2418823242188 591.8154296875 742.6791381835938 325.96160888671875 C 930.2852172851562 435.66180419921875 798.3173828125 534.5916748046875 781.8894653320312 649.65966796875" fill="rgb(108, 143, 156)" opacity="1.0" stroke="rgb(81, 183, 210)" stroke-linecap="round" stroke-linejoin="round" stroke-opacity="0.3049385" stroke-width="0.0"/>
    <path d="M 411.634033203125 195.2411346435547 C 496.1024475097656 286.6910400390625 358.020751953125 75.11449432373047 487.19287109375 626.0736694335938 C 167.43421936035156 407.68896484375 296.4954528808594 347.31024169921875 313.5868225097656 317.551513671875 C 326.4931335449219 134.66696166992188 297.7433776855469 284.6483459472656 256.2897644042969 149.82131958007812 C 527.166748046875 92.34488677978516 425.5342102050781 152.855224609375 411.634033203125 195.2411346435547" fill="rgb(217, 126, 25)" opacity="0.828444" stroke="rgb(125, 189, 16)" stroke-linecap="round" stroke-linejoin="round" stroke-opacity="0.28963178" stroke-width="0.0"/>
    <path d="M 380.6559143066406 369.0927734375 C 378.8817443847656 459.1601257324219 380.3515319824219 472.5387268066406 378.78076171875 550.240966796875 C 123.35411834716797 574.8544921875 81.82662200927734 473.25140380859375 302.4375 326.29302978515625 C 272.0979919433594 383.6263427734375 316.5787658691406 428.247314453125 358.7481689453125 385.4185791015625 C 372.5901794433594 369.34356689453125 393.6752624511719 365.1481628417969 380.6559143066406 369.0927734375" fill="rgb(106, 144, 156)" opacity="1.0" stroke="rgb(19, 113, 108)" stroke-linecap="round" stroke-linejoin="round" stroke-opacity="0.43757614" stroke-width="0.0"/>
    <path d="M 507.048828125 796.4715576171875 C 454.69012451171875 784.095458984375 449.4285583496094 782.9361572265625 372.9373779296875 781.5577392578125 C 363.6129455566406 774.8275756835938 370.9104309082031 755.5917358398438 378.9046936035156 554.7905883789062 C 383.3695983886719 537.381103515625 356.4612121582031 547.25927734375 450.022216796875 558.3098754882812 C 493.6711120605469 626.74951171875 490.1121520996094 641.956298828125 507.048828125 796.4715576171875" fill="rgb(213, 137, 48)" opacity="1.0" stroke="rgb(73, 185, 41)" stroke-linecap="round" stroke-linejoin="round" stroke-opacity="0.70569015" stroke-width="0.0"/>
  </g>
</svg>
