<?xml version="1.0" ?>
<svg height="768" version="1.1" width="768" xmlns="http://www.w3.org/2000/svg">
  <defs/>
  <g>
    <path d="M 562.7333984375 835.8304443359375 C 82.03119659423828 801.815673828125 -21.69004249572754 781.1102905273438 -90.17977905273438 715.7661743164062 C -19.378469467163086 554.7852172851562 -16.266448974609375 525.2969970703125 -18.987178802490234 16.393842697143555 C -43.300926208496094 -17.97400665283203 207.00875854492188 -17.954360961914062 766.5592041015625 0.39360901713371277 C 733.6195068359375 727.9942626953125 661.6434326171875 797.9900512695312 562.7333984375 835.8304443359375" fill="rgb(117, 138, 137)" opacity="0.9986642" stroke="rgb(73, 205, 214)" stroke-linecap="round" stroke-linejoin="round" stroke-opacity="0.965904" stroke-width="0.0"/>
    <path d="M 781.8894653320312 649.6638793945312 C 789.681884765625 772.3527221679688 797.0327758789062 781.0299072265625 685.7542724609375 780.4714965820312 C 624.934814453125 781.8667602539062 629.1882934570312 773.4664306640625 647.689697265625 720.890380859375 C 661.5130615234375 631.0003051757812 595.4356079101562 592.8199462890625 744.3944702148438 327.2626037597656 C 928.988525390625 436.1889953613281 798.2721557617188 534.674072265625 781.8894653320312 649.6638793945312" fill="rgb(108, 143, 156)" opacity="1.0" stroke="rgb(81, 183, 210)" stroke-linecap="round" stroke-linejoin="round" stroke-opacity="0.3049385" stroke-width="0.0"/>
    <path d="M 410.7970886230469 193.45285034179688 C 467.93133544921875 254.76226806640625 381.75933837890625 161.6486053466797 479.29083251953125 595.6944580078125 C 278.6908264160156 375.72442626953125 269.4803161621094 360.6969909667969 313.0119934082031 320.33636474609375 C 327.3691101074219 134.27227783203125 297.2240905761719 284.44464111328125 256.3588562011719 150.0561065673828 C 479.37799072265625 99.19862365722656 457.7633361816406 128.8136444091797 410.7970886230469 193.45285034179688" fill="rgb(202, 123, 36)" opacity="0.76574767" stroke="rgb(125, 189, 16)" stroke-linecap="round" stroke-linejoin="round" stroke-opacity="0.28963178" stroke-width="0.0"/>
  </g>
</svg>
