<?xml version="1.0" ?>
<svg height="768" version="1.1" width="768" xmlns="http://www.w3.org/2000/svg">
  <defs/>
  <g>
    <path d="M 772.9077758789062 -25.637704849243164 C 781.9566040039062 210.49232482910156 786.5969848632812 264.3424072265625 879.7200927734375 475.24383544921875 C 852.14501953125 600.6824340820312 807.3117065429688 672.7861328125 138.64508056640625 709.0589599609375 C 66.91812896728516 552.8035888671875 12.600034713745117 472.4578552246094 -23.10144805908203 0.8525572419166565 C 617.3258056640625 -13.874933242797852 640.9307861328125 -16.42208480834961 772.9077758789062 -25.637704849243164" fill="rgb(134, 155, 144)" opacity="1.0" stroke="rgb(33, 185, 160)" stroke-linecap="round" stroke-linejoin="round" stroke-opacity="0.65745586" stroke-width="0.0"/>
    <path d="M 525.0551147460938 766.088134765625 C 187.80812072753906 796.5430297851562 141.95521545410156 780.38818359375 -16.224464416503906 778.5017700195312 C -14.35621452331543 723.95166015625 -18.720396041870117 715.9879150390625 0.7353195548057556 283.4964599609375 C 188.11756896972656 458.7127685546875 134.71075439453125 521.1696166992188 184.91802978515625 565.693359375 C 209.37887573242188 584.0880126953125 425.7570495605469 295.3731384277344 525.0551147460938 766.088134765625" fill="rgb(135, 157, 145)" opacity="1.0" stroke="rgb(87, 242, 122)" stroke-linecap="round" stroke-linejoin="round" stroke-opacity="0.4958042" stroke-width="0.0"/>
    <path d="M 757.0 763.0 C 756.3301391601562 765.5 754.5 767.3301391601562 752.0 768.0 C 749.5 767.3301391601562 747.6698608398438 765.5 747.0 763.0 C 747.6698608398438 760.5 749.5 758.6698608398438 752.0 758.0 C 754.5 758.6698608398438 756.3301391601562 760.5 757.0 763.0" fill="rgb(134, 153, 142)" opacity="1.0" stroke="rgb(48, 90, 235)" stroke-linecap="round" stroke-linejoin="round" stroke-opacity="0.3369719" stroke-width="0.0"/>
  </g>
</svg>
