<?xml version="1.0" ?>
<svg height="768" version="1.1" width="768" xmlns="http://www.w3.org/2000/svg">
  <defs/>
  <g>
    <path d="M 509.72186279296875 -216.86216735839844 C 673.9192504882812 -212.00643920898438 789.4479370117188 -218.8766632080078 815.3238525390625 442.1741027832031 C 707.6137084960938 532.8652954101562 674.5272827148438 606.2328491210938 0.06947221606969833 640.5142822265625 C -10.280163764953613 -79.59342193603516 -12.521599769592285 -54.19124984741211 2.0285089015960693 -12.346155166625977 C 362.2260437011719 -10.655176162719727 367.5496520996094 -12.416592597961426 509.72186279296875 -216.86216735839844" fill="rgb(141, 152, 165)" opacity="0.97097147" stroke="rgb(38, 37, 115)" stroke-linecap="round" stroke-linejoin="round" stroke-opacity="0.8948597" stroke-width="0.0"/>
    <path d="M 469.4722595214844 528.7627563476562 C 418.78558349609375 450.78106689453125 194.9138946533203 556.4664916992188 292.9078369140625 387.422607421875 C 262.7135314941406 263.3314208984375 181.57859802246094 378.9803466796875 188.76483154296875 231.44154357910156 C 271.22943115234375 122.89419555664062 336.5935974121094 261.8782958984375 309.8587341308594 227.500732421875 C 574.67333984375 220.497314453125 556.1422729492188 33.33073425292969 469.4722595214844 528.7627563476562" fill="rgb(76, 79, 90)" opacity="0.90973115" stroke="rgb(105, 216, 242)" stroke-linecap="round" stroke-linejoin="round" stroke-opacity="0.66096485" stroke-width="0.0"/>
    <path d="M 779.160888671875 778.0234985351562 C 752.8781127929688 785.4243774414062 738.1049194335938 788.9970703125 104.1242904663086 767.4347534179688 C 202.24688720703125 510.7510070800781 316.82305908203125 464.8551940917969 404.498291015625 451.6026306152344 C 608.9508666992188 598.3704833984375 627.2326049804688 579.0945434570312 769.3676147460938 483.04443359375 C 786.193115234375 547.5369873046875 783.67431640625 560.7750244140625 779.160888671875 778.0234985351562" fill="rgb(119, 123, 133)" opacity="0.6567005" stroke="rgb(105, 158, 82)" stroke-linecap="round" stroke-linejoin="round" stroke-opacity="0.36994916" stroke-width="0.0"/>
    <path d="M 391.8167419433594 345.6502685546875 C 390.6304626464844 366.27337646484375 387.39447021484375 369.44342041015625 378.6671447753906 371.2786560058594 C 363.3869934082031 371.99713134765625 360.09393310546875 367.9041748046875 358.1662902832031 340.74420166015625 C 356.24859619140625 332.1729431152344 354.68994140625 329.5123596191406 383.260498046875 330.7553405761719 C 385.23779296875 332.7536315917969 395.05084228515625 328.111083984375 391.8167419433594 345.6502685546875" fill="rgb(2, 2, 4)" opacity="0.9747797" stroke="rgb(173, 121, 148)" stroke-linecap="round" stroke-linejoin="round" stroke-opacity="0.64551234" stroke-width="0.0"/>
    <path d="M 357.9540710449219 462.4621887207031 C 252.8790740966797 581.2393798828125 635.572509765625 578.1280517578125 347.2640075683594 589.74755859375 C 288.3011169433594 651.310302734375 236.66954040527344 580.5062255859375 231.93238830566406 565.2068481445312 C 212.2769012451172 524.3281860351562 259.4535217285156 493.27569580078125 293.1181335449219 537.2431640625 C 264.7553405761719 495.2142028808594 275.65435791015625 446.393310546875 357.9540710449219 462.4621887207031" fill="rgb(53, 54, 64)" opacity="0.72862476" stroke="rgb(175, 201, 4)" stroke-linecap="round" stroke-linejoin="round" stroke-opacity="0.92035806" stroke-width="0.0"/>
  </g>
</svg>
