<?xml version="1.0" ?>
<svg height="768" version="1.1" width="768" xmlns="http://www.w3.org/2000/svg">
  <defs/>
  <g>
    <path d="M 509.67877197265625 -216.74951171875 C 673.7510986328125 -211.77101135253906 789.2890625 -218.64422607421875 814.8995361328125 441.5672607421875 C 705.981201171875 532.2994384765625 673.7240600585938 606.0724487304688 0.15462639927864075 640.7125854492188 C -10.278364181518555 -79.59442901611328 -12.521599769592285 -54.19124984741211 2.0285089015960693 -12.346155166625977 C 362.2260437011719 -10.655176162719727 367.5496520996094 -12.416592597961426 509.67877197265625 -216.74951171875" fill="rgb(139, 149, 162)" opacity="0.9835279" stroke="rgb(38, 37, 115)" stroke-linecap="round" stroke-linejoin="round" stroke-opacity="0.8948597" stroke-width="0.0"/>
    <path d="M 465.2296447753906 516.7813110351562 C 388.62176513671875 464.4217224121094 201.69586181640625 566.5430297851562 292.39703369140625 389.1086730957031 C 265.9176940917969 262.7933044433594 179.32958984375 379.15679931640625 188.9873504638672 230.9599609375 C 267.35650634765625 129.09848022460938 330.0867614746094 247.6803741455078 310.8528747558594 231.133056640625 C 596.8280639648438 188.5814208984375 581.8220825195312 102.52198028564453 465.2296447753906 516.7813110351562" fill="rgb(82, 85, 94)" opacity="0.8880619" stroke="rgb(105, 216, 242)" stroke-linecap="round" stroke-linejoin="round" stroke-opacity="0.66096485" stroke-width="0.0"/>
    <path d="M 779.160888671875 778.0234985351562 C 752.8804931640625 785.4010009765625 738.4559936523438 788.1229858398438 118.42611694335938 766.1924438476562 C 206.68875122070312 512.53564453125 315.3519287109375 444.69415283203125 399.8839416503906 478.552490234375 C 588.4769897460938 576.5869140625 650.890869140625 561.1008911132812 767.1944580078125 484.2372741699219 C 786.0641479492188 547.6621704101562 783.67431640625 560.7764282226562 779.160888671875 778.0234985351562" fill="rgb(114, 119, 129)" opacity="0.6390537" stroke="rgb(105, 158, 82)" stroke-linecap="round" stroke-linejoin="round" stroke-opacity="0.36994916" stroke-width="0.0"/>
  </g>
</svg>
