<?xml version="1.0" ?>
<svg height="768" version="1.1" width="768" xmlns="http://www.w3.org/2000/svg">
  <defs/>
  <g>
    <path d="M 509.54815673828125 -216.3941192626953 C 673.2131958007812 -211.0249481201172 788.7738037109375 -217.9048309326172 813.6229858398438 439.9563903808594 C 701.7193603515625 530.8875732421875 671.65185546875 604.9404907226562 0.0906890407204628 639.8826293945312 C -10.266091346740723 -79.6064682006836 -12.521499633789062 -54.19124984741211 2.0285089015960693 -12.346155166625977 C 362.2260437011719 -10.655176162719727 367.5496520996094 -12.416592597961426 509.54815673828125 -216.3941192626953" fill="rgb(135, 143, 156)" opacity="0.98750126" stroke="rgb(38, 37, 115)" stroke-linecap="round" stroke-linejoin="round" stroke-opacity="0.8948597" stroke-width="0.0"/>
    <path d="M 463.5264892578125 499.35601806640625 C 423.3086242675781 496.08349609375 193.93740844726562 532.6193237304688 289.5902099609375 399.4693298339844 C 295.8515625 271.4891662597656 151.00982666015625 368.38214111328125 193.27073669433594 227.88418579101562 C 262.53668212890625 129.5465087890625 334.951904296875 249.1770782470703 309.8001403808594 231.42068481445312 C 602.386474609375 179.5048828125 625.0897216796875 127.4429702758789 463.5264892578125 499.35601806640625" fill="rgb(91, 95, 106)" opacity="0.84053123" stroke="rgb(105, 216, 242)" stroke-linecap="round" stroke-linejoin="round" stroke-opacity="0.66096485" stroke-width="0.0"/>
    <path d="M 656.0 655.0 C 655.3301391601562 657.5 653.5 659.3301391601562 651.0 660.0 C 648.5 659.3301391601562 646.6698608398438 657.5 646.0 655.0 C 646.6698608398438 652.5 648.5 650.6698608398438 651.0 650.0 C 653.5 650.6698608398438 655.3301391601562 652.5 656.0 655.0" fill="rgb(152, 162, 175)" opacity="1.0" stroke="rgb(105, 158, 82)" stroke-linecap="round" stroke-linejoin="round" stroke-opacity="0.36994916" stroke-width="0.0"/>
  </g>
</svg>
