<?xml version="1.0" ?>
<svg height="768" version="1.1" width="768" xmlns="http://www.w3.org/2000/svg">
  <defs/>
  <g>
    <path d="M 509.7074890136719 -216.82627868652344 C 673.8656005859375 -211.93161010742188 789.3978271484375 -218.80287170410156 815.17236328125 441.96380615234375 C 707.1030883789062 532.6907348632812 674.2957763671875 606.210205078125 0.09721893817186356 640.6199951171875 C -10.279986381530762 -79.59342193603516 -12.521599769592285 -54.19124984741211 2.0285089015960693 -12.346155166625977 C 362.2260437011719 -10.655176162719727 367.5496520996094 -12.416592597961426 509.7074890136719 -216.82627868652344" fill="rgb(141, 151, 164)" opacity="0.9735066" stroke="rgb(38, 37, 115)" stroke-linecap="round" stroke-linejoin="round" stroke-opacity="0.8948597" stroke-width="0.0"/>
    <path d="M 469.4106750488281 520.4688720703125 C 404.44830322265625 456.26287841796875 198.68658447265625 573.3323364257812 292.49530029296875 388.10235595703125 C 263.809326171875 262.6711730957031 181.16983032226562 379.73974609375 188.76654052734375 231.25636291503906 C 270.15380859375 124.53652954101562 334.81378173828125 257.9344787597656 310.1942138671875 228.56103515625 C 580.3269653320312 210.58106994628906 561.9055786132812 54.658180236816406 469.4106750488281 520.4688720703125" fill="rgb(79, 82, 92)" opacity="0.89805645" stroke="rgb(105, 216, 242)" stroke-linecap="round" stroke-linejoin="round" stroke-opacity="0.66096485" stroke-width="0.0"/>
    <path d="M 779.160888671875 778.0234985351562 C 752.8781127929688 785.4243774414062 738.1168823242188 788.967529296875 105.84107208251953 767.7471313476562 C 201.72686767578125 505.5361633300781 315.0513000488281 447.83251953125 402.8258056640625 445.3729553222656 C 603.7745971679688 602.1558227539062 629.976318359375 577.7765502929688 768.8515625 483.0846862792969 C 786.193115234375 547.5369873046875 783.67431640625 560.7750244140625 779.160888671875 778.0234985351562" fill="rgb(101, 105, 116)" opacity="0.58438843" stroke="rgb(105, 158, 82)" stroke-linecap="round" stroke-linejoin="round" stroke-opacity="0.36994916" stroke-width="0.0"/>
    <path d="M 391.98724365234375 345.6927490234375 C 390.4475402832031 366.50604248046875 387.1704406738281 370.3131103515625 377.04046630859375 371.3427734375 C 362.7182922363281 371.8326721191406 360.2574462890625 366.5426330566406 358.26953125 340.7393798828125 C 356.0684814453125 331.4049987792969 355.6825256347656 329.6576232910156 384.185302734375 330.7904357910156 C 383.5465087890625 333.11761474609375 395.5151672363281 326.78619384765625 391.98724365234375 345.6927490234375" fill="rgb(2, 2, 4)" opacity="0.9741364" stroke="rgb(173, 121, 148)" stroke-linecap="round" stroke-linejoin="round" stroke-opacity="0.64551234" stroke-width="0.0"/>
    <path d="M 278.0 558.0 C 277.33013916015625 560.5 275.5 562.3301391601562 273.0 563.0 C 270.5 562.3301391601562 268.66986083984375 560.5 268.0 558.0 C 268.66986083984375 555.5 270.5 553.6698608398438 273.0 553.0 C 275.5 553.6698608398438 277.33013916015625 555.5 278.0 558.0" fill="rgb(74, 77, 87)" opacity="1.0" stroke="rgb(175, 201, 4)" stroke-linecap="round" stroke-linejoin="round" stroke-opacity="0.92035806" stroke-width="0.0"/>
  </g>
</svg>
