<?xml version="1.0" ?>
<svg height="768" version="1.1" width="768" xmlns="http://www.w3.org/2000/svg">
  <defs/>
  <g>
    <path d="M 767.1043090820312 786.992919921875 C 127.1403579711914 763.6699829101562 51.10171127319336 713.2462158203125 -43.62553405761719 619.7863159179688 C -15.894983291625977 -152.0040740966797 71.23473358154297 -151.1660614013672 207.35121154785156 -61.12649154663086 C 493.5363464355469 -18.159574508666992 557.69482421875 -12.953939437866211 793.4483032226562 -3.753028392791748 C 788.2908935546875 284.116455078125 779.1712646484375 343.3415222167969 767.1043090820312 786.992919921875" fill="rgb(160, 173, 137)" opacity="0.9644797" stroke="rgb(154, 81, 138)" stroke-linecap="round" stroke-linejoin="round" stroke-opacity="0.28446054" stroke-width="0.0"/>
    <path d="M 161.95924377441406 548.9641723632812 C 234.9690704345703 696.1448974609375 288.4244384765625 675.9215698242188 445.3057556152344 766.1595458984375 C -30.548397064208984 791.1780395507812 -17.704763412475586 771.092529296875 -13.503893852233887 746.1631469726562 C -11.62237548828125 680.8173217773438 -11.76181411743164 668.7573852539062 -5.86718225479126 638.7705078125 C 56.11094665527344 641.8082275390625 58.10713195800781 655.843017578125 161.95924377441406 548.9641723632812" fill="rgb(135, 141, 129)" opacity="1.0" stroke="rgb(210, 18, 238)" stroke-linecap="round" stroke-linejoin="round" stroke-opacity="0.0005594696" stroke-width="0.0"/>
    <path d="M 444.0401306152344 349.7764892578125 C 455.28399658203125 376.8182067871094 464.99658203125 454.23040771484375 386.4293518066406 475.1949768066406 C 382.350341796875 478.5517578125 328.6970520019531 456.9463195800781 318.5416564941406 426.86322021484375 C 297.38323974609375 362.7550354003906 340.2846374511719 306.3744201660156 375.6776123046875 309.3898620605469 C 400.85205078125 306.7049255371094 425.70709228515625 310.3451232910156 444.0401306152344 349.7764892578125" fill="rgb(9, 154, 142)" opacity="0.94511855" stroke="rgb(173, 159, 99)" stroke-linecap="round" stroke-linejoin="round" stroke-opacity="0.82691187" stroke-width="0.0"/>
    <path d="M 469.4684143066406 -3.0537354946136475 C 432.9214782714844 445.26495361328125 246.85415649414062 474.2530212402344 -229.7523651123047 314.88134765625 C -24.535581588745117 66.67527770996094 -15.363795280456543 53.57074737548828 -4.231224536895752 36.4449462890625 C -19.108789443969727 0.5869159698486328 -23.317970275878906 -10.711465835571289 30.79656410217285 -12.330765724182129 C 46.58759689331055 -8.590871810913086 63.295074462890625 -72.47940826416016 469.4684143066406 -3.0537354946136475" fill="rgb(0, 18, 97)" opacity="0.17074853" stroke="rgb(237, 119, 232)" stroke-linecap="round" stroke-linejoin="round" stroke-opacity="0.43150994" stroke-width="0.0"/>
    <path d="M 525.2067260742188 328.5324401855469 C 529.4374389648438 338.7537536621094 523.6699829101562 343.596435546875 473.7297058105469 335.637451171875 C 421.5661315917969 322.35687255859375 460.1455078125 335.9864501953125 429.2167663574219 311.4063720703125 C 425.3316345214844 310.99761962890625 438.3847961425781 303.8749694824219 455.8834228515625 300.0179138183594 C 479.6723937988281 294.2093200683594 509.06268310546875 307.86907958984375 525.2067260742188 328.5324401855469" fill="rgb(11, 143, 140)" opacity="0.9608866" stroke="rgb(102, 156, 245)" stroke-linecap="round" stroke-linejoin="round" stroke-opacity="0.06235627" stroke-width="0.0"/>
  </g>
</svg>
