<?xml version="1.0" ?>
<svg height="768" version="1.1" width="768" xmlns="http://www.w3.org/2000/svg">
  <defs/>
  <g>
    <path d="M 767.1813354492188 786.992919921875 C 127.14046478271484 763.6699829101562 51.10171127319336 713.2462158203125 -43.62117385864258 619.7863159179688 C -15.884655952453613 -151.99172973632812 71.24333190917969 -151.1576690673828 207.3514862060547 -61.12626647949219 C 493.5363464355469 -18.159574508666992 557.69482421875 -12.953939437866211 793.4483032226562 -3.753028392791748 C 788.2908935546875 284.116455078125 779.18408203125 343.34515380859375 767.1813354492188 786.992919921875" fill="rgb(149, 162, 135)" opacity="0.992347" stroke="rgb(154, 81, 138)" stroke-linecap="round" stroke-linejoin="round" stroke-opacity="0.28446054" stroke-width="0.0"/>
    <path d="M 161.95924377441406 548.9893798828125 C 234.9497833251953 696.4204711914062 287.9324645996094 678.5806884765625 440.5211181640625 766.6009521484375 C -30.865102767944336 789.93798828125 -17.710805892944336 771.0101928710938 -13.503893852233887 746.1631469726562 C -11.62237548828125 680.8173217773438 -11.76181411743164 668.7573852539062 -7.492644786834717 639.7840576171875 C 56.0007209777832 642.3331909179688 58.102237701416016 655.9111328125 161.95924377441406 548.9893798828125" fill="rgb(135, 141, 129)" opacity="1.0" stroke="rgb(210, 18, 238)" stroke-linecap="round" stroke-linejoin="round" stroke-opacity="0.0005594696" stroke-width="0.0"/>
    <path d="M 444.1778564453125 350.2866516113281 C 455.1628112792969 377.1057434082031 464.7423095703125 453.9534606933594 386.68170166015625 475.0565185546875 C 383.0020446777344 478.7218933105469 329.35882568359375 457.1776123046875 318.5859680175781 427.00848388671875 C 297.6364440917969 360.64105224609375 340.79998779296875 307.3292541503906 374.57940673828125 309.3248596191406 C 401.18878173828125 307.1592712402344 425.6020812988281 310.0968933105469 444.1778564453125 350.2866516113281" fill="rgb(8, 152, 142)" opacity="0.9476405" stroke="rgb(173, 159, 99)" stroke-linecap="round" stroke-linejoin="round" stroke-opacity="0.82691187" stroke-width="0.0"/>
    <path d="M 445.5702819824219 10.366539001464844 C 424.45477294921875 448.2333679199219 284.5535888671875 457.4837341308594 -206.03570556640625 298.74566650390625 C -24.535581588745117 66.67527770996094 -15.363801956176758 53.57074737548828 -4.231218338012695 36.44496536254883 C -19.108789443969727 0.5869159698486328 -23.317970275878906 -10.711465835571289 30.796100616455078 -12.33070182800293 C 46.574005126953125 -8.554778099060059 62.87236785888672 -70.04340362548828 445.5702819824219 10.366539001464844" fill="rgb(21, 40, 119)" opacity="0.08970349" stroke="rgb(237, 119, 232)" stroke-linecap="round" stroke-linejoin="round" stroke-opacity="0.43150994" stroke-width="0.0"/>
  </g>
</svg>
