<?xml version="1.0" ?>
<svg height="768" version="1.1" width="768" xmlns="http://www.w3.org/2000/svg">
  <defs/>
  <g>
    <path d="M 775.0865478515625 699.3365478515625 C 189.5110321044922 679.23193359375 18.241561889648438 612.58984375 -112.72334289550781 521.7085571289062 C -22.192554473876953 230.1912384033203 -15.129977226257324 144.99185180664062 4.650335788726807 -66.13924407958984 C 144.52130126953125 -18.71041488647461 158.45343017578125 -15.998766899108887 596.4160766601562 -18.63079071044922 C 722.211181640625 -168.6978302001953 773.1238403320312 -295.1506652832031 775.0865478515625 699.3365478515625" fill="rgb(126, 158, 172)" opacity="0.9847848" stroke="rgb(240, 204, 204)" stroke-linecap="round" stroke-linejoin="round" stroke-opacity="0.5067139" stroke-width="0.0"/>
    <path d="M 618.71533203125 764.7479858398438 C 283.0216979980469 806.2761840820312 269.3986511230469 782.7200317382812 28.583860397338867 781.729248046875 C -1.2788413763046265 809.3958129882812 -10.699273109436035 839.7127075195312 -10.189812660217285 562.304931640625 C 140.21922302246094 606.2879638671875 150.42210388183594 618.09765625 335.8016357421875 628.1747436523438 C 403.45660400390625 592.2948608398438 497.78314208984375 325.0872802734375 618.71533203125 764.7479858398438" fill="rgb(128, 160, 176)" opacity="0.9980532" stroke="rgb(134, 51, 102)" stroke-linecap="round" stroke-linejoin="round" stroke-opacity="0.21901652" stroke-width="0.0"/>
    <path d="M 301.56976318359375 243.43399047851562 C 296.4420166015625 321.582275390625 229.3433380126953 252.37786865234375 266.0694580078125 434.5007019042969 C 562.525634765625 438.943603515625 533.7181396484375 664.2389526367188 223.78231811523438 551.1860961914062 C 108.00672912597656 468.5650634765625 58.58220672607422 253.84259033203125 205.7550506591797 206.4151153564453 C 237.53585815429688 194.29112243652344 292.48773193359375 204.453857421875 301.56976318359375 243.43399047851562" fill="rgb(170, 118, 82)" opacity="1.0" stroke="rgb(220, 11, 117)" stroke-linecap="round" stroke-linejoin="round" stroke-opacity="0.012414543" stroke-width="0.0"/>
    <path d="M 776.8931274414062 668.816650390625 C 780.1082153320312 769.6689453125 777.6100463867188 775.9493408203125 770.7144165039062 779.1359252929688 C 621.9801025390625 775.7337036132812 615.4437255859375 777.677001953125 594.3607177734375 777.4841918945312 C 586.5551147460938 644.597900390625 590.322021484375 667.4430541992188 611.4273071289062 667.4205932617188 C 711.269775390625 671.4653930664062 728.9698486328125 666.8828735351562 776.8931274414062 668.816650390625" fill="rgb(128, 160, 176)" opacity="1.0" stroke="rgb(53, 119, 76)" stroke-linecap="round" stroke-linejoin="round" stroke-opacity="0.17295112" stroke-width="0.0"/>
    <path d="M 386.0 342.0 C 385.33013916015625 344.5 383.5 346.33013916015625 381.0 347.0 C 378.5 346.33013916015625 376.66986083984375 344.5 376.0 342.0 C 376.66986083984375 339.5 378.5 337.66986083984375 381.0 337.0 C 383.5 337.66986083984375 385.33013916015625 339.5 386.0 342.0" fill="rgb(217, 136, 52)" opacity="1.0" stroke="rgb(134, 252, 194)" stroke-linecap="round" stroke-linejoin="round" stroke-opacity="0.15058233" stroke-width="0.0"/>
  </g>
</svg>
