<?xml version="1.0" ?>
<svg height="768" version="1.1" width="768" xmlns="http://www.w3.org/2000/svg">
  <defs/>
  <g>
    <path d="M 495.1888427734375 821.4981079101562 C -217.29534912109375 790.04296875 -187.07781982421875 691.9601440429688 -83.34638214111328 545.4759521484375 C -17.46942710876465 356.9765625 -17.233564376831055 339.7520446777344 1.874158501625061 -30.42830467224121 C 298.5614318847656 -22.803682327270508 366.6011657714844 -20.80785369873047 691.9580688476562 0.6820467114448547 C 652.8795776367188 748.2150268554688 592.6475830078125 765.6221923828125 495.1888427734375 821.4981079101562" fill="rgb(118, 129, 133)" opacity="1.0" stroke="rgb(198, 224, 184)" stroke-linecap="round" stroke-linejoin="round" stroke-opacity="0.14948957" stroke-width="0.0"/>
    <path d="M 781.7626342773438 728.1810913085938 C 810.4971313476562 769.0079345703125 838.9573364257812 780.40673828125 560.61181640625 778.0151977539062 C 611.627197265625 636.30419921875 617.64208984375 629.41943359375 626.5104370117188 445.1224365234375 C 585.593017578125 367.7315673828125 329.65679931640625 270.7149963378906 765.3457641601562 152.41302490234375 C 805.8125610351562 485.5679626464844 783.6734008789062 500.1622619628906 781.7626342773438 728.1810913085938" fill="rgb(117, 129, 133)" opacity="1.0" stroke="rgb(96, 231, 251)" stroke-linecap="round" stroke-linejoin="round" stroke-opacity="0.45682022" stroke-width="0.0"/>
    <path d="M 377.0 542.0 C 376.33013916015625 544.5 374.5 546.3301391601562 372.0 547.0 C 369.5 546.3301391601562 367.66986083984375 544.5 367.0 542.0 C 367.66986083984375 539.5 369.5 537.6698608398438 372.0 537.0 C 374.5 537.6698608398438 376.33013916015625 539.5 377.0 542.0" fill="rgb(62, 50, 47)" opacity="1.0" stroke="rgb(200, 42, 196)" stroke-linecap="round" stroke-linejoin="round" stroke-opacity="0.46455768" stroke-width="0.0"/>
  </g>
</svg>
