<?xml version="1.0" ?>
<svg height="768" version="1.1" width="768" xmlns="http://www.w3.org/2000/svg">
  <defs/>
  <g>
    <path d="M 495.1399230957031 821.5960083007812 C -217.71141052246094 790.3319702148438 -187.50021362304688 692.2705688476562 -83.42466735839844 545.5507202148438 C -17.46942710876465 356.9765625 -17.233564376831055 339.7520446777344 1.874158501625061 -30.42830467224121 C 298.5614318847656 -22.803682327270508 366.6011657714844 -20.811559677124023 692.019287109375 0.5270281434059143 C 652.90380859375 748.226318359375 592.6507568359375 765.6228637695312 495.1399230957031 821.5960083007812" fill="rgb(118, 121, 123)" opacity="0.9899936" stroke="rgb(198, 224, 184)" stroke-linecap="round" stroke-linejoin="round" stroke-opacity="0.14948957" stroke-width="0.0"/>
    <path d="M 781.76123046875 728.1859130859375 C 810.510986328125 769.0067749023438 838.9573364257812 780.40673828125 547.6199340820312 777.7937622070312 C 603.5015258789062 629.664794921875 611.7697143554688 621.4287719726562 620.2979736328125 453.37164306640625 C 573.0704345703125 368.3374328613281 314.0406494140625 266.22564697265625 767.4702758789062 141.3042755126953 C 807.69384765625 484.85687255859375 783.6858520507812 500.14630126953125 781.76123046875 728.1859130859375" fill="rgb(117, 129, 133)" opacity="1.0" stroke="rgb(96, 231, 251)" stroke-linecap="round" stroke-linejoin="round" stroke-opacity="0.45682022" stroke-width="0.0"/>
    <path d="M 435.2626647949219 565.57861328125 C 374.8155822753906 477.0303649902344 484.473388671875 620.1442260742188 298.8751525878906 556.2322998046875 C 330.1824035644531 634.0247192382812 212.46803283691406 378.54827880859375 338.8310241699219 287.8255310058594 C 568.5365600585938 254.31959533691406 267.58990478515625 479.0415344238281 375.7239685058594 536.066162109375 C 397.1423645019531 484.3672790527344 518.2897338867188 524.7810668945312 435.2626647949219 565.57861328125" fill="rgb(76, 65, 64)" opacity="0.8922401" stroke="rgb(200, 42, 196)" stroke-linecap="round" stroke-linejoin="round" stroke-opacity="0.46455768" stroke-width="0.0"/>
    <path d="M 741.0 57.0 C 740.3301391601562 59.5 738.5 61.33012771606445 736.0 62.0 C 733.5 61.33012771606445 731.6698608398438 59.5 731.0 57.0 C 731.6698608398438 54.5 733.5 52.66987228393555 736.0 52.0 C 738.5 52.66987228393555 740.3301391601562 54.5 741.0 57.0" fill="rgb(115, 127, 131)" opacity="1.0" stroke="rgb(119, 222, 116)" stroke-linecap="round" stroke-linejoin="round" stroke-opacity="0.22681169" stroke-width="0.0"/>
  </g>
</svg>
