<?xml version="1.0" ?>
<svg height="768" version="1.1" width="768" xmlns="http://www.w3.org/2000/svg">
  <defs/>
  <g>
    <path d="M 757.6481323242188 673.0875244140625 C -148.46656799316406 597.8995361328125 -149.36119079589844 458.3217468261719 -79.13729095458984 300.1590576171875 C -18.775978088378906 -52.43062210083008 29.349706649780273 -75.17283630371094 90.13677978515625 -167.86807250976562 C 206.21160888671875 -14.138915061950684 212.06031799316406 -12.502212524414062 770.1598510742188 -11.63297176361084 C 762.0484008789062 -36.6937255859375 767.8033447265625 -43.0693244934082 757.6481323242188 673.0875244140625" fill="rgb(132, 142, 151)" opacity="0.9908504" stroke="rgb(159, 215, 175)" stroke-linecap="round" stroke-linejoin="round" stroke-opacity="0.49019745" stroke-width="0.0"/>
    <path d="M 650.9942626953125 766.4515380859375 C 301.7798767089844 812.042236328125 267.0606994628906 780.5238037109375 -10.764837265014648 780.6990356445312 C -14.957493782043457 689.5364379882812 -12.538344383239746 654.04638671875 9.548718452453613 635.10888671875 C 274.656005859375 510.1876525878906 -21.884870529174805 483.1401062011719 413.89349365234375 513.8590087890625 C 418.7932434082031 684.3364868164062 559.4617309570312 382.529296875 650.9942626953125 766.4515380859375" fill="rgb(18, 7, 0)" opacity="0.4897803" stroke="rgb(155, 196, 56)" stroke-linecap="round" stroke-linejoin="round" stroke-opacity="0.55910236" stroke-width="0.0"/>
    <path d="M 334.03466796875 620.6375732421875 C 243.77154541015625 637.6756591796875 184.92803955078125 629.4607543945312 169.8870849609375 617.1241455078125 C 171.4668426513672 618.5519409179688 55.9715690612793 570.4185791015625 89.0870132446289 399.7492370605469 C 44.93122482299805 494.0978088378906 188.77792358398438 160.9259490966797 306.1114807128906 184.5785675048828 C 314.2813720703125 377.18914794921875 68.08651733398438 417.4235534667969 334.03466796875 620.6375732421875" fill="rgb(60, 61, 59)" opacity="0.89877623" stroke="rgb(146, 16, 163)" stroke-linecap="round" stroke-linejoin="round" stroke-opacity="0.20425494" stroke-width="0.0"/>
    <path d="M 253.5042266845703 257.0375671386719 C 115.72103118896484 155.84561157226562 139.3030242919922 277.9411315917969 81.01398468017578 253.644775390625 C 141.7088623046875 231.97763061523438 46.53019332885742 236.74488830566406 113.01968383789062 164.51380920410156 C 90.97349548339844 120.91333770751953 149.3340606689453 88.54786682128906 229.0475311279297 99.22069549560547 C 307.8158264160156 139.089599609375 325.43341064453125 213.2483367919922 253.5042266845703 257.0375671386719" fill="rgb(98, 68, 64)" opacity="1.0" stroke="rgb(154, 116, 238)" stroke-linecap="round" stroke-linejoin="round" stroke-opacity="0.9484127" stroke-width="0.0"/>
    <path d="M 778.6630859375 630.3201293945312 C 826.646240234375 711.3565673828125 918.546142578125 768.1752319335938 669.7750244140625 791.8270874023438 C 587.0673217773438 734.2009887695312 600.337646484375 730.9285278320312 555.7112426757812 674.319580078125 C 520.8851928710938 366.21697998046875 498.2485046386719 513.5903930664062 767.6078491210938 389.3962097167969 C 797.926513671875 540.8743286132812 778.6448974609375 560.70068359375 778.6630859375 630.3201293945312" fill="rgb(0, 59, 94)" opacity="0.056993537" stroke="rgb(127, 254, 159)" stroke-linecap="round" stroke-linejoin="round" stroke-opacity="0.09403891" stroke-width="0.0"/>
  </g>
</svg>
