<?xml version="1.0" ?>
<svg height="768" version="1.1" width="768" xmlns="http://www.w3.org/2000/svg">
  <defs/>
  <g>
    <path d="M 776.4884033203125 777.3528442382812 C 682.0428466796875 789.3181762695312 588.0997924804688 784.130859375 -13.055346488952637 767.4295654296875 C 9.206284523010254 419.5654602050781 54.60122299194336 363.2198791503906 99.10697937011719 -35.105960845947266 C 603.6962890625 -11.281750679016113 836.1847534179688 45.958534240722656 871.8524169921875 125.38455963134766 C 791.0031127929688 320.9058837890625 786.414794921875 367.1382141113281 776.4884033203125 777.3528442382812" fill="rgb(128, 163, 183)" opacity="0.9962093" stroke="rgb(203, 172, 194)" stroke-linecap="round" stroke-linejoin="round" stroke-opacity="0.48010886" stroke-width="0.0"/>
    <path d="M 415.81927490234375 395.2443542480469 C 351.5516052246094 533.2135009765625 407.1336364746094 351.0008239746094 228.41131591796875 334.5539245605469 C 70.03128051757812 314.3529357910156 52.98189926147461 414.2676086425781 54.7635612487793 370.19342041015625 C 146.71170043945312 244.16758728027344 193.706787109375 289.1340026855469 278.7715148925781 235.36575317382812 C 501.64166259765625 239.4691619873047 597.93310546875 187.27655029296875 415.81927490234375 395.2443542480469" fill="rgb(28, 66, 94)" opacity="0.9425239" stroke="rgb(119, 247, 150)" stroke-linecap="round" stroke-linejoin="round" stroke-opacity="0.7426354" stroke-width="0.0"/>
    <path d="M 711.3145141601562 368.37713623046875 C 714.6300048828125 377.3637390136719 712.5066528320312 383.8565368652344 703.8544921875 379.1173400878906 C 695.9164428710938 361.2803649902344 602.209716796875 293.4336242675781 451.8390808105469 359.47845458984375 C 487.05731201171875 194.4072723388672 477.69403076171875 248.6742401123047 580.6532592773438 270.4486083984375 C 664.19970703125 292.7701721191406 705.1834106445312 364.5959777832031 711.3145141601562 368.37713623046875" fill="rgb(26, 65, 93)" opacity="0.9838861" stroke="rgb(213, 129, 0)" stroke-linecap="round" stroke-linejoin="round" stroke-opacity="0.39107174" stroke-width="0.0"/>
    <path d="M 80.6643295288086 305.325927734375 C 19.47195053100586 315.7974853515625 97.95097351074219 403.0799255371094 3.85370135307312 573.5231323242188 C -152.14564514160156 331.6366271972656 -15.577315330505371 263.44293212890625 -8.05371379852295 23.467853546142578 C -31.362516403198242 -9.232165336608887 -50.231143951416016 -30.419410705566406 203.2556915283203 7.189867973327637 C 124.26512908935547 137.76589965820312 100.12860107421875 156.68898010253906 80.6643295288086 305.325927734375" fill="rgb(134, 169, 189)" opacity="1.0" stroke="rgb(168, 233, 103)" stroke-linecap="round" stroke-linejoin="round" stroke-opacity="0.508775" stroke-width="0.0"/>
    <path d="M 404.6605224609375 489.64593505859375 C 412.721923828125 518.9135131835938 465.5553283691406 569.684326171875 435.84320068359375 549.8624267578125 C 391.3039855957031 527.3380737304688 387.6429138183594 477.3209533691406 373.16522216796875 438.0271301269531 C 374.05364990234375 436.16375732421875 376.2864990234375 455.4748840332031 399.0412902832031 427.241455078125 C 402.8263244628906 432.9659729003906 387.8341979980469 432.6375427246094 404.6605224609375 489.64593505859375" fill="rgb(22, 74, 102)" opacity="0.99144995" stroke="rgb(78, 59, 184)" stroke-linecap="round" stroke-linejoin="round" stroke-opacity="0.4381291" stroke-width="0.0"/>
  </g>
</svg>
